<svg xmlns="http://www.w3.org/2000/svg" xmlns:xlink="http://www.w3.org/1999/xlink" id="elI2NKVf7Dd1" viewBox="0 0 250 458"><style><![CDATA[#elI2NKVf7Dd92 {animation: elI2NKVf7Dd92_c_o 6000ms linear infinite normal forwards}@keyframes elI2NKVf7Dd92_c_o { 0% {opacity: 0} 76.666667% {opacity: 0} 83.333333% {opacity: 1} 95% {opacity: 1} 100% {opacity: 0}} #elI2NKVf7Dd98_to {animation: elI2NKVf7Dd98_to__to 6000ms linear infinite normal forwards}@keyframes elI2NKVf7Dd98_to__to { 0% {transform: translate(0px,293.932007px)} 33.333333% {transform: translate(0px,293.932007px)} 46.666667% {transform: translate(54.5px,293.932007px)} 100% {transform: translate(54.5px,293.932007px)}} #elI2NKVf7Dd98 {animation: elI2NKVf7Dd98_c_o 6000ms linear infinite normal forwards}@keyframes elI2NKVf7Dd98_c_o { 0% {opacity: 0} 41.666667% {opacity: 0} 46.666667% {opacity: 1} 95% {opacity: 1} 100% {opacity: 0}} #elI2NKVf7Dd103_to {animation: elI2NKVf7Dd103_to__to 6000ms linear infinite normal forwards}@keyframes elI2NKVf7Dd103_to__to { 0% {transform: translate(0px,350px)} 46.666667% {transform: translate(70px,350px)} 56.666667% {transform: translate(124.5px,350px)} 100% {transform: translate(124.5px,350px)}} #elI2NKVf7Dd103 {animation: elI2NKVf7Dd103_c_o 6000ms linear infinite normal forwards}@keyframes elI2NKVf7Dd103_c_o { 0% {opacity: 0} 51.666667% {opacity: 0} 56.666667% {opacity: 1} 95% {opacity: 1} 100% {opacity: 0}} #elI2NKVf7Dd107 {animation: elI2NKVf7Dd107_c_o 6000ms linear infinite normal forwards}@keyframes elI2NKVf7Dd107_c_o { 0% {opacity: 0} 28.333333% {opacity: 0} 33.333333% {opacity: 1} 95% {opacity: 1} 100% {opacity: 0}} #elI2NKVf7Dd110_to {animation: elI2NKVf7Dd110_to__to 6000ms linear infinite normal forwards}@keyframes elI2NKVf7Dd110_to__to { 0% {transform: translate(350px,159.931999px)} 16.666667% {transform: translate(269.992005px,159.931999px)} 100% {transform: translate(269.992005px,159.931999px)}} #elI2NKVf7Dd110 {animation: elI2NKVf7Dd110_c_o 6000ms linear infinite normal forwards}@keyframes elI2NKVf7Dd110_c_o { 0% {opacity: 0} 8.333333% {opacity: 0} 16.666667% {opacity: 1} 95% {opacity: 1} 100% {opacity: 0}}]]></style><defs><linearGradient id="elI2NKVf7Dd94-fill" x1="0" y1="44" x2="35.557" y2="31.003" spreadMethod="pad" gradientUnits="userSpaceOnUse" gradientTransform="matrix(1 0 0 1 0 0)"><stop id="elI2NKVf7Dd94-fill-0" offset="0%" stop-color="rgb(255,214,10)"></stop><stop id="elI2NKVf7Dd94-fill-1" offset="100%" stop-color="rgb(50,215,75)"></stop></linearGradient></defs><g id="elI2NKVf7Dd2" transform="matrix(0.66755 0 0 0.664325 -0.345734 0)" clip-path="url(#elI2NKVf7Dd143)"><g id="elI2NKVf7Dd3"><rect id="elI2NKVf7Dd4" width="375" height="690" rx="20" ry="20" transform="matrix(1 0 0 1 0.5 0)" fill="rgb(13,36,60)" stroke="none" stroke-width="1"></rect><rect id="elI2NKVf7Dd5" width="375" height="291" rx="0" ry="0" transform="matrix(1 0 0 1 0 521)" fill="rgb(8,22,36)" stroke="none" stroke-width="1"></rect><g id="elI2NKVf7Dd6"><path id="elI2NKVf7Dd7" d="M330,644.36C330,641.784,330,640.496,330.501,639.512C330.942,638.646,331.646,637.942,332.512,637.501C333.496,637,334.784,637,337.36,637L364.64,637C367.216,637,368.504,637,369.488,637.501C370.354,637.942,371.058,638.646,371.499,639.512C372,640.496,372,641.784,372,644.36L372,671.64C372,674.216,372,675.504,371.499,676.488C371.058,677.354,370.354,678.058,369.488,678.499C368.504,679,367.216,679,364.64,679L337.36,679C334.784,679,333.496,679,332.512,678.499C331.646,678.058,330.942,677.354,330.501,676.488C330,675.504,330,674.216,330,671.64L330,644.36Z" clip-rule="evenodd" fill="rgb(44,44,46)" fill-rule="evenodd" stroke="none" stroke-width="1"></path></g><path id="elI2NKVf7Dd8" d="M343.27,662.646L343.105,662.483L342.9,662.283L340.838,660.217C340.808,660.188,340.784,660.164,340.734,660.113C340.685,660.064,340.665,660.044,340.639,660.017C340.612,659.991,340.594,659.973,340.552,659.929L340.477,659.853C340.303,659.681,340.138,659.5,339.982,659.311C339.84,659.156,339.724,658.979,339.639,658.787L339.613,658.72C339.462,658.252,339.462,657.748,339.613,657.28L339.637,657.217C339.721,657.024,339.837,656.847,339.982,656.694C340.131,656.507,340.292,656.33,340.463,656.163C340.511,656.109,340.554,656.065,340.639,655.981C340.662,655.958,340.683,655.937,340.732,655.887L340.784,655.834L340.812,655.806L340.835,655.784L342.887,653.733C342.951,653.666,343.009,653.609,343.099,653.521L343.184,653.437C343.218,653.403,343.247,653.375,343.276,653.347L345.576,651.051C345.677,650.948,345.768,650.857,345.916,650.713C346.011,650.615,346.11,650.518,346.221,650.414C346.308,650.321,346.327,650.301,346.338,650.292C346.648,649.982,347.005,649.723,347.396,649.523C347.786,649.325,348.203,649.188,348.63,649.116C349.028,649.048,349.431,649.012,349.82,649.009C349.92,649.007,349.966,649.005,350.023,649.004C350.142,649.001,350.242,649,350.34,649L356.826,649C356.974,649,357.09,649.002,357.33,649.009C357.735,649.012,358.138,649.047,358.533,649.116C358.963,649.187,359.38,649.325,359.768,649.523C360.16,649.722,360.518,649.981,360.828,650.292C361.138,650.602,361.397,650.958,361.599,651.353C361.794,651.741,361.93,652.156,362.005,652.59C362.069,652.984,362.104,653.383,362.109,653.77C362.112,653.882,362.114,653.968,362.116,654.161L362.118,654.294L362.118,661.706C362.118,661.869,362.115,662.038,362.109,662.218C362.104,662.617,362.069,663.016,362.004,663.416C361.93,663.844,361.794,664.259,361.595,664.655C361.395,665.042,361.137,665.397,360.828,665.708C360.518,666.019,360.16,666.278,359.769,666.477C359.38,666.675,358.963,666.813,358.532,666.884C358.136,666.95,357.736,666.986,357.345,666.991C357.09,666.998,356.974,667,356.826,667L356.233,667L356.233,666.308L356.233,665.615L356.826,665.615C356.957,665.615,357.065,665.613,357.317,665.606C357.649,665.602,357.979,665.573,358.305,665.519C358.596,665.47,358.877,665.377,359.141,665.243C359.403,665.11,359.641,664.937,359.847,664.731C360.055,664.521,360.23,664.281,360.361,664.027C360.495,663.76,360.589,663.475,360.639,663.187C360.692,662.861,360.721,662.531,360.725,662.189C360.73,662.01,360.733,661.854,360.733,661.706L360.733,654.59L360.733,654.303L360.732,654.177C360.729,653.993,360.728,653.912,360.725,653.8C360.721,653.469,360.692,653.139,360.64,652.819C360.589,652.525,360.495,652.24,360.364,651.979C360.23,651.718,360.056,651.479,359.849,651.271C359.641,651.063,359.403,650.89,359.14,650.757C358.877,650.623,358.596,650.53,358.301,650.481C357.978,650.425,357.65,650.396,357.307,650.394C357.065,650.387,356.957,650.385,356.826,650.385L350.34,650.385C350.254,650.385,350.164,650.386,350.055,650.388C350.005,650.39,349.965,650.391,349.869,650.393L349.843,650.394C349.516,650.396,349.189,650.425,348.862,650.481C348.57,650.53,348.287,650.623,348.025,650.757C347.763,650.89,347.524,651.064,347.302,651.285C347.228,651.364,347.199,651.395,347.174,651.419C347.074,651.513,346.988,651.597,346.895,651.692C346.743,651.84,346.659,651.924,346.562,652.023L344.227,654.359C344.189,654.391,344.174,654.405,344.157,654.422L344.103,654.476C343.986,654.59,343.938,654.637,343.878,654.7L341.808,656.769L341.788,656.789L341.765,656.812L341.718,656.859C341.668,656.91,341.643,656.935,341.616,656.962C341.542,657.036,341.512,657.067,341.479,657.104C341.302,657.278,341.169,657.425,341.046,657.58L340.995,657.637C340.965,657.668,340.94,657.703,340.92,657.74C340.873,657.91,340.873,658.089,340.92,658.258C340.942,658.301,340.971,658.341,341.005,658.377C341.168,658.574,341.306,658.726,341.458,658.876L341.499,658.918L341.539,658.959C341.579,658.999,341.594,659.015,341.616,659.036C341.646,659.066,341.669,659.09,341.72,659.141C341.768,659.19,341.788,659.21,341.815,659.237L343.874,661.299L344.076,661.495L344.21,661.629C344.234,661.648,344.257,661.67,344.279,661.693L346.57,663.983C346.663,664.079,346.758,664.173,346.908,664.319C346.984,664.397,347.06,664.471,347.165,664.572C347.194,664.599,347.201,664.605,347.268,664.677C347.291,664.701,347.309,664.719,347.318,664.728C347.526,664.936,347.765,665.11,348.025,665.243C348.289,665.377,348.572,665.47,348.864,665.519C349.19,665.573,349.519,665.602,349.86,665.606C349.96,665.609,350.003,665.61,350.057,665.612C350.166,665.614,350.256,665.615,350.342,665.615L356.231,665.615L356.231,666.308L356.233,667L356.231,667L350.342,667C350.244,667,350.144,666.999,350.025,666.996C349.968,666.995,349.922,666.993,349.832,666.991C349.431,666.986,349.032,666.95,348.636,666.884C348.205,666.812,347.788,666.675,347.397,666.477C347.007,666.277,346.65,666.018,346.354,665.722C346.329,665.699,346.316,665.685,346.262,665.628L346.221,665.585C346.092,665.462,346.006,665.378,345.929,665.299C345.784,665.156,345.682,665.056,345.585,664.956L343.347,662.719L343.27,662.646ZM356.201,654.883C355.968,654.649,355.59,654.649,355.357,654.882L353.086,657.153L350.816,654.886C350.583,654.653,350.205,654.654,349.972,654.887C349.739,655.12,349.739,655.498,349.973,655.731L352.243,657.996L349.98,660.26C349.747,660.493,349.747,660.87,349.98,661.104C350.213,661.337,350.591,661.337,350.824,661.104L353.088,658.839L355.357,661.102C355.589,661.334,355.965,661.334,356.197,661.103C356.431,660.87,356.431,660.492,356.198,660.26L353.931,657.996L356.201,655.726C356.434,655.493,356.434,655.116,356.201,654.883Z" clip-rule="evenodd" fill="rgb(255,255,255)" fill-rule="evenodd" stroke="none" stroke-width="1"></path><g id="elI2NKVf7Dd9"><rect id="elI2NKVf7Dd10" width="42" height="42" rx="4.6" ry="4.6" transform="matrix(1 0 0 1 3 637)" fill="rgb(40,59,80)" stroke="none" stroke-width="1"></rect></g><path id="elI2NKVf7Dd11" d="M24.7058,650.295C24.3154,649.905,23.6832,649.905,23.2928,650.295L16.9592,656.617C15.6975,657.877,16.5894,660.033,18.3721,660.033L19.5157,660.033L19.5157,665C19.5157,665.552,19.9634,666,20.5157,666L27.4829,666C28.0352,666,28.4829,665.552,28.4829,665L28.4829,660.033L29.6265,660.033C31.4092,660.033,32.3011,657.877,31.0394,656.617L24.7058,650.295Z" clip-rule="evenodd" fill="rgb(255,255,255)" fill-rule="evenodd" stroke="none" stroke-width="1"></path><g id="elI2NKVf7Dd12"><rect id="elI2NKVf7Dd13" width="32" height="42" rx="4.6" ry="4.6" transform="matrix(1 0 0 1 285 637)" fill="rgb(40,59,80)" stroke="none" stroke-width="1"></rect></g><path id="elI2NKVf7Dd14" d="M293.189,666L295.034,666L295.034,653.893L295.155,653.893L300.165,666L301.835,666L306.845,653.893L306.966,653.893L306.966,666L308.811,666L308.811,650.147L306.515,650.147L301.088,663.374L300.912,663.374L295.485,650.147L293.189,650.147L293.189,666Z" fill="rgb(255,255,255)" stroke="none" stroke-width="1"></path><g id="elI2NKVf7Dd15"><rect id="elI2NKVf7Dd16" width="32" height="42" rx="4.6" ry="4.6" transform="matrix(1 0 0 1 247 637)" fill="rgb(40,59,80)" stroke="none" stroke-width="1"></rect></g><path id="elI2NKVf7Dd17" d="M256.672,666L258.627,666L258.627,653.706L258.803,653.706L267.406,666L269.328,666L269.328,650.147L267.373,650.147L267.373,662.484L267.197,662.484L258.594,650.147L256.672,650.147L256.672,666Z" fill="rgb(255,255,255)" stroke="none" stroke-width="1"></path><g id="elI2NKVf7Dd18"><rect id="elI2NKVf7Dd19" width="32" height="42" rx="4.6" ry="4.6" transform="matrix(1 0 0 1 209 637)" fill="rgb(40,59,80)" stroke="none" stroke-width="1"></rect></g><path id="elI2NKVf7Dd20" d="M219.628,666L225.813,666C229.186,666,231.185,664.341,231.185,661.562L231.185,661.54C231.185,659.452,229.812,657.969,227.648,657.694L227.648,657.519C229.175,657.244,230.383,655.75,230.383,654.113L230.383,654.091C230.383,651.674,228.604,650.147,225.692,650.147L219.628,650.147L219.628,666ZM225.275,651.894C227.241,651.894,228.384,652.827,228.384,654.431L228.384,654.453C228.384,656.123,227.164,656.98,224.769,656.98L221.605,656.98L221.605,651.894L225.275,651.894ZM225.33,658.683C227.856,658.683,229.153,659.617,229.153,661.441L229.153,661.463C229.153,663.286,227.9,664.253,225.516,664.253L221.605,664.253L221.605,658.683L225.33,658.683Z" fill="rgb(255,255,255)" stroke="none" stroke-width="1"></path><g id="elI2NKVf7Dd21"><rect id="elI2NKVf7Dd22" width="32" height="42" rx="4.6" ry="4.6" transform="matrix(1 0 0 1 172 637)" fill="rgb(40,59,80)" stroke="none" stroke-width="1"></rect></g><path id="elI2NKVf7Dd23" d="M187.022,666L188.978,666L194.823,650.147L192.746,650.147L188.088,663.44L187.912,663.44L183.254,650.147L181.177,650.147L187.022,666Z" fill="rgb(255,255,255)" stroke="none" stroke-width="1"></path><g id="elI2NKVf7Dd24"><rect id="elI2NKVf7Dd25" width="32" height="42" rx="4.6" ry="4.6" transform="matrix(1 0 0 1 134 637)" fill="rgb(40,59,80)" stroke="none" stroke-width="1"></rect></g><path id="elI2NKVf7Dd26" d="M150.352,666.374C153.724,666.374,156.229,664.495,156.757,661.594L156.757,661.573L154.757,661.573L154.735,661.594C154.241,663.418,152.56,664.55,150.352,664.55C147.297,664.55,145.386,662.056,145.386,658.09L145.386,658.068C145.386,654.102,147.297,651.597,150.341,651.597C152.527,651.597,154.219,652.882,154.746,654.915L154.757,654.937L156.746,654.937L156.757,654.915C156.284,651.872,153.68,649.773,150.341,649.773C146.034,649.773,143.353,652.959,143.353,658.068L143.353,658.09C143.353,663.188,146.045,666.374,150.352,666.374Z" fill="rgb(255,255,255)" stroke="none" stroke-width="1"></path><g id="elI2NKVf7Dd27"><rect id="elI2NKVf7Dd28" width="32" height="42" rx="4.6" ry="4.6" transform="matrix(1 0 0 1 97 637)" fill="rgb(40,59,80)" stroke="none" stroke-width="1"></rect></g><path id="elI2NKVf7Dd29" d="M106.342,666L108.583,666L112.857,659.672L112.923,659.672L117.142,666L119.515,666L114.154,658.134L114.154,658.09L119.636,650.147L117.384,650.147L113.099,656.53L113.033,656.53L108.792,650.147L106.408,650.147L111.748,657.991L111.748,658.035L106.342,666Z" fill="rgb(255,255,255)" stroke="none" stroke-width="1"></path><g id="elI2NKVf7Dd30"><rect id="elI2NKVf7Dd31" width="32" height="42" rx="4.6" ry="4.6" transform="matrix(1 0 0 1 59 637)" fill="rgb(40,59,80)" stroke="none" stroke-width="1"></rect></g><path id="elI2NKVf7Dd32" d="M69.1333,666L80.8557,666L80.8557,664.22L71.7371,664.22L71.7371,664.044L80.6689,651.553L80.6689,650.147L69.4409,650.147L69.4409,651.927L78.1091,651.927L78.1091,652.102L69.1333,664.594L69.1333,666Z" fill="rgb(255,255,255)" stroke="none" stroke-width="1"></path><g id="elI2NKVf7Dd33"><rect id="elI2NKVf7Dd34" width="32" height="42" rx="4.6" ry="4.6" transform="matrix(1 0 0 1 322 583)" fill="rgb(40,59,80)" stroke="none" stroke-width="1"></rect></g><path id="elI2NKVf7Dd35" d="M333.627,612L343.251,612L343.251,610.22L335.605,610.22L335.605,596.147L333.627,596.147L333.627,612Z" fill="rgb(255,255,255)" stroke="none" stroke-width="1"></path><g id="elI2NKVf7Dd36"><rect id="elI2NKVf7Dd37" width="32" height="42" rx="4.6" ry="4.6" transform="matrix(1 0 0 1 284 583)" fill="rgb(40,59,80)" stroke="none" stroke-width="1"></rect></g><path id="elI2NKVf7Dd38" d="M294.606,612L296.583,612L296.583,606.463L298.484,604.365L304.208,612L306.768,612L299.846,602.991L306.185,596.147L303.702,596.147L296.759,603.848L296.583,603.848L296.583,596.147L294.606,596.147L294.606,612Z" fill="rgb(255,255,255)" stroke="none" stroke-width="1"></path><g id="elI2NKVf7Dd39"><rect id="elI2NKVf7Dd40" width="32" height="42" rx="4.6" ry="4.6" transform="matrix(1 0 0 1 247 583)" fill="rgb(40,59,80)" stroke="none" stroke-width="1"></rect></g><path id="elI2NKVf7Dd41" d="M262.363,612.374C265.296,612.374,267.032,610.594,267.032,607.594L267.032,596.147L265.054,596.147L265.054,607.573C265.054,609.506,264.11,610.55,262.352,610.55C260.781,610.55,260.001,609.55,259.88,608.353L259.869,608.243L257.891,608.243L257.902,608.396C258.067,610.671,259.616,612.374,262.363,612.374Z" fill="rgb(255,255,255)" stroke="none" stroke-width="1"></path><g id="elI2NKVf7Dd42"><rect id="elI2NKVf7Dd43" width="32" height="42" rx="4.6" ry="4.6" transform="matrix(1 0 0 1 209 583)" fill="rgb(40,59,80)" stroke="none" stroke-width="1"></rect></g><path id="elI2NKVf7Dd44" d="M218.672,612L220.649,612L220.649,604.782L229.351,604.782L229.351,612L231.328,612L231.328,596.147L229.351,596.147L229.351,603.002L220.649,603.002L220.649,596.147L218.672,596.147L218.672,612Z" fill="rgb(255,255,255)" stroke="none" stroke-width="1"></path><g id="elI2NKVf7Dd45"><rect id="elI2NKVf7Dd46" width="32" height="42" rx="4.6" ry="4.6" transform="matrix(1 0 0 1 172 583)" fill="rgb(40,59,80)" stroke="none" stroke-width="1"></rect></g><path id="elI2NKVf7Dd47" d="M188.187,612.374C192.241,612.374,194.921,609.781,194.921,605.87L194.921,603.936L188.494,603.936L188.494,605.672L192.944,605.672L192.944,606.056C192.944,608.737,191.032,610.55,188.198,610.55C185.012,610.55,183.023,608.067,183.023,604.079L183.023,604.057C183.023,600.124,185.045,597.597,188.187,597.597C190.549,597.597,192.142,598.718,192.79,600.761L192.823,600.871L194.823,600.871L194.801,600.761C194.174,597.751,191.702,595.773,188.187,595.773C183.847,595.773,181.002,599.058,181.002,604.057L181.002,604.079C181.002,609.144,183.803,612.374,188.187,612.374Z" fill="rgb(255,255,255)" stroke="none" stroke-width="1"></path><g id="elI2NKVf7Dd48"><rect id="elI2NKVf7Dd49" width="32" height="42" rx="4.6" ry="4.6" transform="matrix(1 0 0 1 134 583)" fill="rgb(40,59,80)" stroke="none" stroke-width="1"></rect></g><path id="elI2NKVf7Dd50" d="M145.583,612L147.561,612L147.561,605.134L154.581,605.134L154.581,603.376L147.561,603.376L147.561,597.927L155.208,597.927L155.208,596.147L145.583,596.147L145.583,612Z" fill="rgb(255,255,255)" stroke="none" stroke-width="1"></path><g id="elI2NKVf7Dd51"><rect id="elI2NKVf7Dd52" width="32" height="42" rx="4.6" ry="4.6" transform="matrix(1 0 0 1 97 583)" fill="rgb(40,59,80)" stroke="none" stroke-width="1"></rect></g><path id="elI2NKVf7Dd53" d="M106.848,612L112.286,612C116.999,612,119.768,609.067,119.768,604.079L119.768,604.057C119.768,599.08,116.988,596.147,112.286,596.147L106.848,596.147L106.848,612ZM108.825,610.22L108.825,597.927L112.154,597.927C115.67,597.927,117.746,600.212,117.746,604.079L117.746,604.101C117.746,607.957,115.692,610.22,112.154,610.22L108.825,610.22Z" fill="rgb(255,255,255)" stroke="none" stroke-width="1"></path><g id="elI2NKVf7Dd54"><rect id="elI2NKVf7Dd55" width="32" height="42" rx="4.6" ry="4.6" transform="matrix(1 0 0 1 59 583)" fill="rgb(40,59,80)" stroke="none" stroke-width="1"></rect></g><path id="elI2NKVf7Dd56" d="M75.0439,612.374C78.5815,612.374,80.8997,610.528,80.8997,607.562L80.8997,607.551C80.8997,605.265,79.5923,603.936,76.2854,603.2L74.5276,602.804C72.3743,602.332,71.5063,601.475,71.5063,600.212L71.5063,600.201C71.5063,598.542,73.0334,597.608,75.011,597.597C77.0764,597.586,78.3948,598.619,78.6145,600.014L78.6365,600.157L80.614,600.157L80.603,600.003C80.4382,597.641,78.23,595.773,75.0659,595.773C71.792,595.773,69.4958,597.63,69.4849,600.256L69.4849,600.267C69.4849,602.563,70.8582,604.024,74.0332,604.727L75.791,605.112C77.9663,605.595,78.8782,606.496,78.8782,607.814L78.8782,607.825C78.8782,609.44,77.3071,610.55,75.1538,610.55C72.8687,610.55,71.2207,609.55,71.0779,607.968L71.0669,607.847L69.0894,607.847L69.1003,607.968C69.3311,610.55,71.5723,612.374,75.0439,612.374Z" fill="rgb(255,255,255)" stroke="none" stroke-width="1"></path><g id="elI2NKVf7Dd57"><rect id="elI2NKVf7Dd58" width="32" height="42" rx="4.6" ry="4.6" transform="matrix(1 0 0 1 22 583)" fill="rgb(40,59,80)" stroke="none" stroke-width="1"></rect></g><path id="elI2NKVf7Dd59" d="M31.1775,612L33.2539,612L34.8469,607.463L41.1531,607.463L42.7461,612L44.8225,612L38.9778,596.147L37.0222,596.147L31.1775,612ZM37.9121,598.707L38.0879,598.707L40.5708,605.782L35.4292,605.782L37.9121,598.707Z" fill="rgb(255,255,255)" stroke="none" stroke-width="1"></path><g id="elI2NKVf7Dd60"><rect id="elI2NKVf7Dd61" width="32" height="42" rx="4.6" ry="4.6" transform="matrix(1 0 0 1 340 529)" fill="rgb(40,59,80)" stroke="none" stroke-width="1"></rect></g><path id="elI2NKVf7Dd62" d="M350.869,558L352.847,558L352.847,552.342L356.846,552.342C359.823,552.342,361.933,550.244,361.933,547.233L361.933,547.211C361.933,544.201,359.823,542.147,356.846,542.147L350.869,542.147L350.869,558ZM356.341,543.905C358.604,543.905,359.911,545.146,359.911,547.233L359.911,547.255C359.911,549.343,358.604,550.584,356.341,550.584L352.847,550.584L352.847,543.905L356.341,543.905Z" fill="rgb(255,255,255)" stroke="none" stroke-width="1"></path><g id="elI2NKVf7Dd63"><rect id="elI2NKVf7Dd64" width="32" height="42" rx="4.6" ry="4.6" transform="matrix(1 0 0 1 303 529)" fill="rgb(40,59,80)" stroke="none" stroke-width="1"></rect></g><path id="elI2NKVf7Dd65" d="M319,558.374C323.526,558.374,326.273,555.133,326.273,550.079L326.273,550.057C326.273,544.981,323.504,541.773,319,541.773C314.518,541.773,311.727,544.97,311.727,550.057L311.727,550.079C311.727,555.144,314.452,558.374,319,558.374ZM319,556.55C315.704,556.55,313.749,554.001,313.749,550.079L313.749,550.057C313.749,546.102,315.77,543.597,319,543.597C322.241,543.597,324.251,546.102,324.251,550.057L324.251,550.079C324.251,554.001,322.252,556.55,319,556.55Z" fill="rgb(255,255,255)" stroke="none" stroke-width="1"></path><g id="elI2NKVf7Dd66"><rect id="elI2NKVf7Dd67" width="32" height="42" rx="4.6" ry="4.6" transform="matrix(1 0 0 1 265 529)" fill="rgb(40,59,80)" stroke="none" stroke-width="1"></rect></g><path id="elI2NKVf7Dd68" d="M280.011,558L281.989,558L281.989,542.147L280.011,542.147L280.011,558Z" fill="rgb(255,255,255)" stroke="none" stroke-width="1"></path><g id="elI2NKVf7Dd69"><rect id="elI2NKVf7Dd70" width="32" height="42" rx="4.6" ry="4.6" transform="matrix(1 0 0 1 228 529)" fill="rgb(40,59,80)" stroke="none" stroke-width="1"></rect></g><path id="elI2NKVf7Dd71" d="M244.011,558.374C247.944,558.374,250.295,556,250.295,552.551L250.295,542.147L248.318,542.147L248.318,552.419C248.318,554.858,246.758,556.55,244.011,556.55C241.264,556.55,239.682,554.858,239.682,552.419L239.682,542.147L237.705,542.147L237.705,552.551C237.705,556,240.078,558.374,244.011,558.374Z" fill="rgb(255,255,255)" stroke="none" stroke-width="1"></path><g id="elI2NKVf7Dd72"><rect id="elI2NKVf7Dd73" width="32" height="42" rx="4.6" ry="4.6" transform="matrix(1 0 0 1 190 529)" fill="rgb(40,59,80)" stroke="none" stroke-width="1"></rect></g><path id="elI2NKVf7Dd74" d="M205.011,558L206.989,558L206.989,551.177L212.614,542.147L210.362,542.147L206.088,549.189L205.912,549.189L201.638,542.147L199.386,542.147L205.011,551.177L205.011,558Z" fill="rgb(255,255,255)" stroke="none" stroke-width="1"></path><g id="elI2NKVf7Dd75"><rect id="elI2NKVf7Dd76" width="32" height="42" rx="4.6" ry="4.6" transform="matrix(1 0 0 1 153 529)" fill="rgb(40,59,80)" stroke="none" stroke-width="1"></rect></g><path id="elI2NKVf7Dd77" d="M168.011,558L169.989,558L169.989,543.927L175.097,543.927L175.097,542.147L162.903,542.147L162.903,543.927L168.011,543.927L168.011,558Z" fill="rgb(255,255,255)" stroke="none" stroke-width="1"></path><g id="elI2NKVf7Dd78"><rect id="elI2NKVf7Dd79" width="32" height="42" rx="4.6" ry="4.6" transform="matrix(1 0 0 1 115 529)" fill="rgb(40,59,80)" stroke="none" stroke-width="1"></rect></g><path id="elI2NKVf7Dd80" d="M125.672,558L127.649,558L127.649,551.727L131.549,551.727L134.944,558L137.262,558L133.593,551.419C135.581,550.793,136.779,549.079,136.779,546.882L136.779,546.86C136.779,544.014,134.779,542.147,131.725,542.147L125.672,542.147L125.672,558ZM127.649,549.969L127.649,543.905L131.461,543.905C133.505,543.905,134.735,545.036,134.735,546.926L134.735,546.948C134.735,548.881,133.582,549.969,131.549,549.969L127.649,549.969Z" fill="rgb(255,255,255)" stroke="none" stroke-width="1"></path><g id="elI2NKVf7Dd81"><rect id="elI2NKVf7Dd82" width="32" height="42" rx="4.6" ry="4.6" transform="matrix(1 0 0 1 78 529)" fill="rgb(40,59,80)" stroke="none" stroke-width="1"></rect></g><path id="elI2NKVf7Dd83" d="M89.3198,558L99.1416,558L99.1416,556.22L91.2974,556.22L91.2974,550.771L98.7351,550.771L98.7351,549.013L91.2974,549.013L91.2974,543.927L99.1416,543.927L99.1416,542.147L89.3198,542.147L89.3198,558Z" fill="rgb(255,255,255)" stroke="none" stroke-width="1"></path><g id="elI2NKVf7Dd84"><rect id="elI2NKVf7Dd85" width="32" height="42" rx="4.6" ry="4.6" transform="matrix(1 0 0 1 40 529)" fill="rgb(40,59,80)" stroke="none" stroke-width="1"></rect></g><path id="elI2NKVf7Dd86" d="M50.4189,558L52.2866,558L55.9341,545.487L56.0659,545.487L59.7134,558L61.5811,558L65.8987,542.147L63.8333,542.147L60.6802,555.034L60.5483,555.034L56.9998,542.147L55.0002,542.147L51.4517,555.034L51.3198,555.034L48.1667,542.147L46.1013,542.147L50.4189,558Z" fill="rgb(255,255,255)" stroke="none" stroke-width="1"></path><g id="elI2NKVf7Dd87"><rect id="elI2NKVf7Dd88" width="32" height="42" rx="4.6" ry="4.6" transform="matrix(1 0 0 1 3 529)" fill="rgb(40,59,80)" stroke="none" stroke-width="1"></rect></g><path id="elI2NKVf7Dd89" d="M19,558.374C20.0657,558.374,21.0325,558.198,21.9004,557.846L23.3066,559.791L25.5259,559.791L23.4604,556.956C25.2622,555.539,26.2729,553.144,26.2729,550.079L26.2729,550.057C26.2729,544.981,23.5044,541.773,19,541.773C14.5176,541.773,11.7271,544.97,11.7271,550.057L11.7271,550.079C11.7271,555.144,14.4517,558.374,19,558.374ZM19,556.55C15.7041,556.55,13.7485,554.001,13.7485,550.079L13.7485,550.057C13.7485,546.102,15.77,543.597,19,543.597C22.241,543.597,24.2515,546.102,24.2515,550.057L24.2515,550.079C24.2515,552.397,23.5483,554.243,22.3069,555.363L20.9226,553.463L18.7034,553.463L20.7468,556.275C20.2195,556.451,19.6262,556.55,19,556.55Z" fill="rgb(255,255,255)" stroke="none" stroke-width="1"></path><path id="elI2NKVf7Dd90" d="M0,469C0,455.745,10.7452,445,24,445L351,445C364.255,445,375,455.745,375,469L375,521L0,521L0,469Z" fill="rgb(8,22,36)" stroke="none" stroke-width="1"></path><path id="elI2NKVf7Dd91" d="M49.075,485.175L37.825,473.925C35.95,471.975,32.875,471.975,30.925,473.85C28.975,475.725,28.975,478.875,30.925,480.75L31,480.825L33.1,483L34.15,481.95L31.975,479.775C30.7,478.5,30.7,476.325,31.975,475.05C33.25,473.775,35.425,473.7,36.7,474.975C36.7,474.975,36.7,474.975,36.775,475.05L47.95,486.225C49.3,487.5,49.3,489.675,48.025,490.95C46.75,492.3,44.575,492.3,43.3,491.025C43.3,491.025,43.3,491.025,43.225,490.95L37.675,485.4C36.925,484.65,37,483.45,37.675,482.775C38.425,482.1,39.55,482.1,40.3,482.775L43.375,485.85L44.425,484.8L41.275,481.65C39.925,480.375,37.825,480.45,36.55,481.8C35.35,483.075,35.35,485.1,36.55,486.45L42.175,492.075C44.05,494.025,47.125,494.025,49.075,492.15C51.025,490.275,51.025,487.125,49.075,485.175C49.075,485.25,49.075,485.175,49.075,485.175Z" fill="rgb(255,255,255)" stroke="none" stroke-width="1"></path><path id="elI2NKVf7Dd92" d="M85.368,477.832L85.368,489L83.128,489L83.128,484.248L78.344,484.248L78.344,489L76.104,489L76.104,477.832L78.344,477.832L78.344,482.424L83.128,482.424L83.128,477.832L85.368,477.832ZM98.5808,480.008C99.6688,480.008,100.543,480.344,101.205,481.016C101.877,481.677,102.213,482.605,102.213,483.8L102.213,489L99.9728,489L99.9728,484.104C99.9728,483.411,99.7968,482.883,99.4448,482.52C99.0928,482.147,98.6128,481.96,98.0048,481.96C97.3968,481.96,96.9114,482.147,96.5488,482.52C96.1968,482.883,96.0208,483.411,96.0208,484.104L96.0208,489L93.7808,489L93.7808,484.104C93.7808,483.411,93.6048,482.883,93.2528,482.52C92.9008,482.147,92.4208,481.96,91.8128,481.96C91.1941,481.96,90.7034,482.147,90.3408,482.52C89.9888,482.883,89.8128,483.411,89.8128,484.104L89.8128,489L87.5728,489L87.5728,480.136L89.8128,480.136L89.8128,481.208C90.1008,480.835,90.4688,480.541,90.9168,480.328C91.3754,480.115,91.8768,480.008,92.4208,480.008C93.1141,480.008,93.7328,480.157,94.2768,480.456C94.8208,480.744,95.2421,481.16,95.5408,481.704C95.8288,481.192,96.2448,480.781,96.7888,480.472C97.3434,480.163,97.9408,480.008,98.5808,480.008ZM115.346,480.008C115.346,480.008,117.309,480.344,117.97,481.016C118.642,481.677,118.978,482.605,118.978,483.8L118.978,489L116.738,489L116.738,484.104C116.738,483.411,116.562,482.883,116.21,482.52C115.858,482.147,115.378,481.96,114.77,481.96C114.162,481.96,113.677,482.147,113.314,482.52C112.962,482.883,112.786,483.411,112.786,484.104L112.786,489L110.546,489L110.546,484.104C110.546,483.411,110.37,482.883,110.018,482.52C109.666,482.147,109.186,481.96,108.578,481.96C107.96,481.96,107.469,482.147,107.106,482.52C106.754,482.883,106.578,483.411,106.578,484.104L106.578,489L104.338,489L104.338,480.136L106.578,480.136L106.578,481.208C106.866,480.835,107.234,480.541,107.682,480.328C108.141,480.115,108.642,480.008,109.186,480.008C109.88,480.008,110.498,480.157,111.042,480.456C111.586,480.744,112.008,481.16,112.306,481.704C112.594,481.192,113.01,480.781,113.554,480.472C114.109,480.163,115.346,480.008,115.346,480.008ZM132.112,480.008C133.2,480.008,134.075,480.344,134.736,481.016C135.408,481.677,135.744,482.605,135.744,483.8L135.744,489L133.504,489L133.504,484.104C133.504,483.411,133.328,482.883,132.976,482.52C132.624,482.147,132.144,481.96,131.536,481.96C130.928,481.96,130.443,482.147,130.08,482.52C129.728,482.883,129.552,483.411,129.552,484.104L129.552,489L127.312,489L127.312,484.104C127.312,483.411,127.136,482.883,126.784,482.52C126.432,482.147,125.952,481.96,125.344,481.96C124.725,481.96,124.235,482.147,123.872,482.52C123.52,482.883,123.344,483.411,123.344,484.104L123.344,489L121.104,489L121.104,480.136L123.344,480.136L123.344,481.208C123.632,480.835,124,480.541,124.448,480.328C124.907,480.115,125.408,480.008,125.952,480.008C126.645,480.008,127.264,480.157,127.808,480.456C128.352,480.744,128.773,481.16,129.072,481.704C129.36,481.192,129.776,480.781,130.32,480.472C130.875,480.163,131.472,480.008,132.112,480.008Z" opacity="0" fill="rgb(255,255,255)" stroke="none" stroke-width="1"></path><path id="elI2NKVf7Dd93" d="M140.578,490.12L156.578,490.12L156.578,474.12L140.578,474.12L140.578,490.12Z" fill="none" stroke="none" stroke-width="1"></path><rect id="elI2NKVf7Dd94" width="48" height="44" rx="12" ry="12" transform="matrix(1 0 0 1 311 461)" fill="url(#elI2NKVf7Dd94-fill)" stroke="none" stroke-width="1"></rect><path id="elI2NKVf7Dd95" d="M343.282,474.218C343.18,474.118,343.052,474.048,342.913,474.017C342.773,473.987,342.628,473.997,342.494,474.046L325.994,480.046C325.852,480.1,325.729,480.196,325.643,480.321C325.556,480.446,325.51,480.595,325.51,480.747C325.51,480.899,325.556,481.048,325.643,481.173C325.729,481.298,325.852,481.394,325.994,481.448L332.437,484.021L337.192,479.251L338.249,480.308L333.472,485.086L336.052,491.528C336.107,491.668,336.203,491.788,336.328,491.872C336.452,491.956,336.599,492.001,336.749,492.001C336.901,491.998,337.048,491.949,337.171,491.86C337.294,491.772,337.388,491.649,337.439,491.506L343.439,475.006C343.49,474.873,343.502,474.729,343.475,474.589C343.447,474.45,343.38,474.321,343.282,474.218Z" fill="rgb(255,255,255)" stroke="none" stroke-width="1"></path><path id="elI2NKVf7Dd96" d="M324.5,431L335,435L345.5,431" fill="none" stroke="rgb(72,72,74)" stroke-width="1.5" stroke-linecap="round"></path><path id="elI2NKVf7Dd97" d="M321.6,411L348.4,411C349.284,411,350,411.735,350,412.641L350,425.359C350,426.265,349.284,427,348.4,427L321.6,427C320.716,427,320,426.265,320,425.359L320,412.641C320,411.735,320.716,411,321.6,411ZM321.891,412.5C321.675,412.5,321.5,412.676,321.5,412.894L321.5,425.106C321.5,425.324,321.675,425.5,321.891,425.5L348.109,425.5C348.325,425.5,348.5,425.324,348.5,425.106L348.5,412.894C348.5,412.676,348.325,412.5,348.109,412.5L321.891,412.5ZM346.5,421.5L344.5,421.5L344.5,423.5L346.5,423.5L346.5,421.5ZM327,421.5L343,421.5L343,423.5L327,423.5L327,421.5ZM325.5,421.5L323.5,421.5L323.5,423.5L325.5,423.5L325.5,421.5ZM344.5,418L346.5,418L346.5,420L344.5,420L344.5,418ZM343,418L341,418L341,420L343,420L343,418ZM337.5,418L339.5,418L339.5,420L337.5,420L337.5,418ZM336,418L334,418L334,420L336,420L336,418ZM330.5,418L332.5,418L332.5,420L330.5,420L330.5,418ZM329,418L327,418L327,420L329,420L329,418ZM323.5,418L325.5,418L325.5,420L323.5,420L323.5,418ZM346.5,414.5L344.5,414.5L344.5,416.5L346.5,416.5L346.5,414.5ZM341,414.5L343,414.5L343,416.5L341,416.5L341,414.5ZM339.5,414.5L337.5,414.5L337.5,416.5L339.5,416.5L339.5,414.5ZM334,414.5L336,414.5L336,416.5L334,416.5L334,414.5ZM332.5,414.5L330.5,414.5L330.5,416.5L332.5,416.5L332.5,414.5ZM327,414.5L329,414.5L329,416.5L327,416.5L327,414.5ZM325.5,414.5L323.5,414.5L323.5,416.5L325.5,416.5L325.5,414.5Z" clip-rule="evenodd" fill="rgb(72,72,74)" fill-rule="evenodd" stroke="none" stroke-width="1"></path><g id="elI2NKVf7Dd98_to" transform="translate(0,293.932007)"><g id="elI2NKVf7Dd98" transform="translate(-54.5,-293.932007)" opacity="0"><path id="elI2NKVf7Dd99" d="M16.7423,271.02C18.329,269.956,19.5983,268.901,20.5503,267.856C21.5023,266.801,21.9783,265.821,21.9783,264.916C21.9783,264.356,21.8336,263.908,21.5443,263.572C21.2643,263.227,20.807,263.054,20.1723,263.054C19.519,263.054,19.0243,263.264,18.6883,263.684C18.3523,264.095,18.1656,264.664,18.1283,265.392L16.8683,265.392C16.9336,264.291,17.2743,263.446,17.8903,262.858C18.5063,262.261,19.2996,261.962,20.2703,261.962C21.1943,261.962,21.927,262.209,22.4683,262.704C23.0096,263.199,23.2803,263.899,23.2803,264.804C23.2803,265.551,23.0376,266.311,22.5523,267.086C22.0763,267.851,21.4743,268.565,20.7463,269.228C20.0276,269.881,19.2856,270.437,18.5203,270.894L23.5323,270.894L23.5323,271.944L16.7423,271.944L16.7423,271.02ZM26.2257,264.454L26.2257,265.952L24.6857,265.952L24.6857,264.454L26.2257,264.454ZM26.2257,270.502L26.2257,272L24.6857,272L24.6857,270.502L26.2257,270.502ZM30.9633,261.864C31.598,261.864,32.144,261.976,32.6013,262.2C33.0587,262.424,33.404,262.732,33.6373,263.124C33.8707,263.516,33.9873,263.959,33.9873,264.454C33.9873,265.07,33.8053,265.588,33.4413,266.008C33.0867,266.428,32.564,266.68,31.8733,266.764L31.8733,266.848C32.592,267.035,33.152,267.324,33.5533,267.716C33.964,268.108,34.1693,268.649,34.1693,269.34C34.1693,270.152,33.8987,270.815,33.3573,271.328C32.816,271.841,32.0367,272.098,31.0193,272.098C30.002,272.098,29.176,271.837,28.5413,271.314C27.916,270.782,27.5473,270.007,27.4353,268.99L28.6953,268.99C28.7793,269.606,29.0127,270.096,29.3953,270.46C29.7873,270.824,30.3147,271.006,30.9773,271.006C31.6027,271.006,32.0833,270.847,32.4193,270.53C32.7553,270.203,32.9233,269.783,32.9233,269.27C32.9233,268.654,32.6807,268.187,32.1953,267.87C31.7193,267.543,31.038,267.38,30.1513,267.38L29.8153,267.38L29.8153,266.316L30.1513,266.316C31.8687,266.316,32.7273,265.742,32.7273,264.594C32.7273,264.09,32.5687,263.689,32.2513,263.39C31.934,263.091,31.4953,262.942,30.9353,262.942C30.3753,262.942,29.904,263.105,29.5213,263.432C29.1387,263.749,28.9147,264.221,28.8493,264.846L27.6033,264.846C27.6687,263.913,27.9907,263.185,28.5693,262.662C29.1573,262.13,29.9553,261.864,30.9633,261.864ZM35.8195,267.002C35.8195,268.589,36.0808,269.825,36.6035,270.712C37.1262,271.599,38.0315,272.042,39.3195,272.042C40.6075,272.042,41.5128,271.599,42.0355,270.712C42.5675,269.825,42.8335,268.589,42.8335,267.002C42.8335,265.434,42.5675,264.207,42.0355,263.32C41.5128,262.433,40.6075,261.99,39.3195,261.99C38.0315,261.99,37.1262,262.433,36.6035,263.32C36.0808,264.197,35.8195,265.425,35.8195,267.002ZM41.5735,267.002C41.5735,267.814,41.5128,268.495,41.3915,269.046C41.2795,269.587,41.0602,270.021,40.7335,270.348C40.4068,270.675,39.9355,270.838,39.3195,270.838C38.7128,270.838,38.2462,270.675,37.9195,270.348C37.5928,270.021,37.3688,269.587,37.2475,269.046C37.1355,268.495,37.0795,267.814,37.0795,267.002C37.0795,266.199,37.1355,265.527,37.2475,264.986C37.3688,264.445,37.5928,264.015,37.9195,263.698C38.2462,263.371,38.7128,263.208,39.3195,263.208C39.9355,263.208,40.4068,263.371,40.7335,263.698C41.0602,264.015,41.2795,264.445,41.3915,264.986C41.5128,265.527,41.5735,266.199,41.5735,267.002ZM49.3761,268.024L49.3761,272L48.1021,272L48.1021,262.13L51.2381,262.13C52.3674,262.13,53.2121,262.396,53.7721,262.928C54.3321,263.451,54.6121,264.169,54.6121,265.084C54.6121,266.008,54.3227,266.731,53.7441,267.254C53.1654,267.767,52.3301,268.024,51.2381,268.024L49.3761,268.024ZM51.1261,266.96C51.9007,266.96,52.4561,266.797,52.7921,266.47C53.1374,266.143,53.3101,265.681,53.3101,265.084C53.3101,264.468,53.1374,264.001,52.7921,263.684C52.4561,263.357,51.9007,263.194,51.1261,263.194L49.3761,263.194L49.3761,266.96L51.1261,266.96ZM65.9841,262.298L65.9841,272L64.7101,272L64.7101,264.258L61.6161,272L60.4821,272L57.3741,264.286L57.3741,272L56.1001,272L56.1001,262.298L57.6261,262.298L61.0701,270.446L64.4581,262.298L65.9841,262.298Z" fill="rgb(99,99,102)" stroke="none" stroke-width="1"></path><path id="elI2NKVf7Dd100" d="M22,282L16,282L22,290L22,282Z" fill="rgb(94,92,230)" stroke="none" stroke-width="1"></path><path id="elI2NKVf7Dd101" d="M22,282L71,282C80.3823,282,85.0735,282,88.3051,284.48C89.1371,285.118,89.8818,285.863,90.5202,286.695C93,289.927,93,294.618,93,304C93,313.382,93,318.073,90.5202,321.305C89.8818,322.137,89.1371,322.882,88.3051,323.52C85.0735,326,80.3823,326,71,326L22,326L22,282Z" fill="rgb(94,92,230)" stroke="none" stroke-width="1"></path><path id="elI2NKVf7Dd102" d="M44.368,298.332L44.368,309.5L42.128,309.5L42.128,304.748L37.344,304.748L37.344,309.5L35.104,309.5L35.104,298.332L37.344,298.332L37.344,302.924L42.128,302.924L42.128,298.332L44.368,298.332ZM54.8128,304.876C54.8128,305.196,54.7914,305.484,54.7488,305.74L48.2688,305.74C48.3221,306.38,48.5461,306.881,48.9408,307.244C49.3354,307.607,49.8208,307.788,50.3968,307.788C51.2288,307.788,51.8208,307.431,52.1728,306.716L54.5888,306.716C54.3328,307.569,53.8421,308.273,53.1168,308.828C52.3914,309.372,51.5008,309.644,50.4448,309.644C49.5914,309.644,48.8234,309.457,48.1408,309.084C47.4688,308.7,46.9408,308.161,46.5568,307.468C46.1834,306.775,45.9967,305.975,45.9967,305.068C45.9967,304.151,46.1834,303.345,46.5568,302.652C46.9301,301.959,47.4528,301.425,48.1248,301.052C48.7968,300.679,49.5701,300.492,50.4448,300.492C51.2874,300.492,52.0394,300.673,52.7008,301.036C53.3728,301.399,53.8901,301.916,54.2528,302.588C54.6261,303.249,54.8128,304.012,54.8128,304.876ZM52.4928,304.236C52.4821,303.66,52.2741,303.201,51.8688,302.86C51.4634,302.508,50.9674,302.332,50.3808,302.332C49.8261,302.332,49.3568,302.503,48.9728,302.844C48.5994,303.175,48.3701,303.639,48.2848,304.236L52.4928,304.236ZM58.6878,297.66L58.6878,309.5L56.4478,309.5L56.4478,297.66L58.6878,297.66ZM63.1409,297.66L63.1409,309.5L60.9009,309.5L60.9009,297.66L63.1409,297.66ZM69.29,309.644C68.4367,309.644,67.6687,309.457,66.986,309.084C66.3033,308.7,65.7647,308.161,65.37,307.468C64.986,306.775,64.794,305.975,64.794,305.068C64.794,304.161,64.9913,303.361,65.386,302.668C65.7913,301.975,66.3407,301.441,67.034,301.068C67.7273,300.684,68.5007,300.492,69.354,300.492C70.2073,300.492,70.9807,300.684,71.674,301.068C72.3673,301.441,72.9113,301.975,73.306,302.668C73.7113,303.361,73.914,304.161,73.914,305.068C73.914,305.975,73.706,306.775,73.29,307.468C72.8847,308.161,72.33,308.7,71.626,309.084C70.9327,309.457,70.154,309.644,69.29,309.644ZM69.29,307.692C69.6953,307.692,70.074,307.596,70.426,307.404C70.7887,307.201,71.0767,306.903,71.29,306.508C71.5033,306.113,71.61,305.633,71.61,305.068C71.61,304.225,71.386,303.58,70.938,303.132C70.5007,302.673,69.962,302.444,69.322,302.444C68.682,302.444,68.1433,302.673,67.706,303.132C67.2793,303.58,67.066,304.225,67.066,305.068C67.066,305.911,67.274,306.561,67.69,307.02C68.1167,307.468,68.65,307.692,69.29,307.692ZM78.4531,298.14L78.1971,305.868L76.3091,305.868L76.0371,298.14L78.4531,298.14ZM77.3011,309.612C76.8958,309.612,76.5598,309.489,76.2931,309.244C76.0371,308.988,75.9091,308.673,75.9091,308.3C75.9091,307.927,76.0371,307.617,76.2931,307.372C76.5598,307.116,76.8958,306.988,77.3011,306.988C77.6958,306.988,78.0211,307.116,78.2771,307.372C78.5331,307.617,78.6611,307.927,78.6611,308.3C78.6611,308.673,78.5331,308.988,78.2771,309.244C78.0211,309.489,77.6958,309.612,77.3011,309.612Z" fill="rgb(255,255,255)" stroke="none" stroke-width="1"></path></g></g><g id="elI2NKVf7Dd103_to" transform="translate(0,350)"><g id="elI2NKVf7Dd103" transform="translate(-124.5,-350)" opacity="0"><path id="elI2NKVf7Dd104" d="M22,328L205,328C214.382,328,219.073,328,222.305,330.48C223.137,331.118,223.882,331.863,224.52,332.695C227,335.927,227,340.618,227,350C227,359.382,227,364.073,224.52,367.305C223.882,368.137,223.137,368.882,222.305,369.52C219.073,372,214.382,372,205,372L46,372C34.6863,372,29.0294,372,25.5147,368.485C22,364.971,22,359.314,22,348L22,328Z" fill="rgb(94,92,230)" stroke="none" stroke-width="1"></path><path id="elI2NKVf7Dd105" d="M44.368,344.332L44.368,355.5L42.128,355.5L42.128,350.748L37.344,350.748L37.344,355.5L35.104,355.5L35.104,344.332L37.344,344.332L37.344,348.924L42.128,348.924L42.128,344.332L44.368,344.332ZM50.5088,355.644C49.6554,355.644,48.8874,355.457,48.2048,355.084C47.5221,354.7,46.9834,354.161,46.5888,353.468C46.2048,352.775,46.0128,351.975,46.0128,351.068C46.0128,350.161,46.2101,349.361,46.6048,348.668C47.0101,347.975,47.5594,347.441,48.2528,347.068C48.9461,346.684,49.7194,346.492,50.5728,346.492C51.4261,346.492,52.1994,346.684,52.8928,347.068C53.5861,347.441,54.1301,347.975,54.5248,348.668C54.9301,349.361,55.1328,350.161,55.1328,351.068C55.1328,351.975,54.9248,352.775,54.5087,353.468C54.1034,354.161,53.5488,354.7,52.8448,355.084C52.1514,355.457,51.3728,355.644,50.5088,355.644ZM50.5088,353.692C50.9141,353.692,51.2928,353.596,51.6448,353.404C52.0074,353.201,52.2954,352.903,52.5088,352.508C52.7221,352.113,52.8288,351.633,52.8288,351.068C52.8288,350.225,52.6048,349.58,52.1568,349.132C51.7194,348.673,51.1808,348.444,50.5408,348.444C49.9008,348.444,49.3621,348.673,48.9248,349.132C48.4981,349.58,48.2848,350.225,48.2848,351.068C48.2848,351.911,48.4928,352.561,48.9088,353.02C49.3354,353.468,49.8688,353.692,50.5088,353.692ZM69.0639,346.636L66.4719,355.5L64.0559,355.5L62.4399,349.308L60.8239,355.5L58.3919,355.5L55.7839,346.636L58.0559,346.636L59.6239,353.388L61.3199,346.636L63.6879,346.636L65.3519,353.372L66.9199,346.636L69.0639,346.636ZM73.5124,351.068C73.5124,350.151,73.699,349.351,74.0724,348.668C74.4457,347.975,74.963,347.441,75.6244,347.068C76.2857,346.684,77.043,346.492,77.8964,346.492C78.995,346.492,79.9017,346.769,80.6164,347.324C81.3417,347.868,81.827,348.636,82.0724,349.628L79.6564,349.628C79.5284,349.244,79.3097,348.945,79.0004,348.732C78.7017,348.508,78.3284,348.396,77.8804,348.396C77.2404,348.396,76.7337,348.631,76.3604,349.1C75.987,349.559,75.8004,350.215,75.8004,351.068C75.8004,351.911,75.987,352.567,76.3604,353.036C76.7337,353.495,77.2404,353.724,77.8804,353.724C78.787,353.724,79.379,353.319,79.6564,352.508L82.0724,352.508C81.827,353.468,81.3417,354.231,80.6164,354.796C79.891,355.361,78.9844,355.644,77.8964,355.644C77.043,355.644,76.2857,355.457,75.6244,355.084C74.963,354.7,74.4457,354.167,74.0724,353.484C73.699,352.791,73.5124,351.985,73.5124,351.068ZM83.1374,351.036C83.1374,350.14,83.3134,349.345,83.6654,348.652C84.028,347.959,84.5134,347.425,85.1214,347.052C85.74,346.679,86.428,346.492,87.1854,346.492C87.8467,346.492,88.4227,346.625,88.9134,346.892C89.4147,347.159,89.8147,347.495,90.1134,347.9L90.1134,346.636L92.3694,346.636L92.3694,355.5L90.1134,355.5L90.1134,354.204C89.8254,354.62,89.4254,354.967,88.9134,355.244C88.412,355.511,87.8307,355.644,87.1694,355.644C86.4227,355.644,85.74,355.452,85.1214,355.068C84.5134,354.684,84.028,354.145,83.6654,353.452C83.3134,352.748,83.1374,351.943,83.1374,351.036ZM90.1134,351.068C90.1134,350.524,90.0067,350.06,89.7934,349.676C89.58,349.281,89.292,348.983,88.9294,348.78C88.5667,348.567,88.1774,348.46,87.7614,348.46C87.3454,348.46,86.9614,348.561,86.6094,348.764C86.2574,348.967,85.9694,349.265,85.7454,349.66C85.532,350.044,85.4254,350.503,85.4254,351.036C85.4254,351.569,85.532,352.039,85.7454,352.444C85.9694,352.839,86.2574,353.143,86.6094,353.356C86.972,353.569,87.356,353.676,87.7614,353.676C88.1774,353.676,88.5667,353.575,88.9294,353.372C89.292,353.159,89.58,352.86,89.7934,352.476C90.0067,352.081,90.1134,351.612,90.1134,351.068ZM99.4691,346.508C100.525,346.508,101.378,346.844,102.029,347.516C102.68,348.177,103.005,349.105,103.005,350.3L103.005,355.5L100.765,355.5L100.765,350.604C100.765,349.9,100.589,349.361,100.237,348.988C99.8851,348.604,99.4051,348.412,98.7971,348.412C98.1785,348.412,97.6878,348.604,97.3251,348.988C96.9731,349.361,96.7971,349.9,96.7971,350.604L96.7971,355.5L94.5571,355.5L94.5571,346.636L96.7971,346.636L96.7971,347.74C97.0958,347.356,97.4745,347.057,97.9331,346.844C98.4025,346.62,98.9145,346.508,99.4691,346.508ZM111.188,344.332L111.188,355.5L108.948,355.5L108.948,344.332L111.188,344.332ZM122.205,346.508C122.877,346.508,123.475,346.657,123.997,346.956C124.52,347.244,124.925,347.676,125.213,348.252C125.512,348.817,125.661,349.5,125.661,350.3L125.661,355.5L123.421,355.5L123.421,350.604C123.421,349.9,123.245,349.361,122.893,348.988C122.541,348.604,122.061,348.412,121.453,348.412C120.835,348.412,120.344,348.604,119.981,348.988C119.629,349.361,119.453,349.9,119.453,350.604L119.453,355.5L117.213,355.5L117.213,343.66L119.453,343.66L119.453,347.74C119.741,347.356,120.125,347.057,120.605,346.844C121.085,346.62,121.619,346.508,122.205,346.508ZM136.032,350.876C136.032,351.196,136.01,351.484,135.968,351.74L129.488,351.74C129.541,352.38,129.765,352.881,130.16,353.244C130.554,353.607,131.04,353.788,131.616,353.788C132.448,353.788,133.04,353.431,133.392,352.716L135.808,352.716C135.552,353.569,135.061,354.273,134.336,354.828C133.61,355.372,132.72,355.644,131.664,355.644C130.81,355.644,130.042,355.457,129.36,355.084C128.688,354.7,128.16,354.161,127.776,353.468C127.402,352.775,127.215,351.975,127.215,351.068C127.215,350.151,127.402,349.345,127.776,348.652C128.149,347.959,128.672,347.425,129.344,347.052C130.016,346.679,130.789,346.492,131.664,346.492C132.506,346.492,133.258,346.673,133.92,347.036C134.592,347.399,135.109,347.916,135.472,348.588C135.845,349.249,136.032,350.012,136.032,350.876ZM133.712,350.236C133.701,349.66,133.493,349.201,133.088,348.86C132.682,348.508,132.186,348.332,131.6,348.332C131.045,348.332,130.576,348.503,130.192,348.844C129.818,349.175,129.589,349.639,129.504,350.236L133.712,350.236ZM139.907,343.66L139.907,355.5L137.667,355.5L137.667,343.66L139.907,343.66ZM144.36,347.916C144.648,347.511,145.042,347.175,145.544,346.908C146.056,346.631,146.637,346.492,147.288,346.492C148.045,346.492,148.728,346.679,149.336,347.052C149.954,347.425,150.44,347.959,150.792,348.652C151.154,349.335,151.336,350.129,151.336,351.036C151.336,351.943,151.154,352.748,150.792,353.452C150.44,354.145,149.954,354.684,149.336,355.068C148.728,355.452,148.045,355.644,147.288,355.644C146.637,355.644,146.061,355.511,145.56,355.244C145.069,354.977,144.669,354.641,144.36,354.236L144.36,359.724L142.12,359.724L142.12,346.636L144.36,346.636L144.36,347.916ZM149.048,351.036C149.048,350.503,148.936,350.044,148.712,349.66C148.498,349.265,148.21,348.967,147.848,348.764C147.496,348.561,147.112,348.46,146.696,348.46C146.29,348.46,145.906,348.567,145.544,348.78C145.192,348.983,144.904,349.281,144.68,349.676C144.466,350.071,144.36,350.535,144.36,351.068C144.36,351.601,144.466,352.065,144.68,352.46C144.904,352.855,145.192,353.159,145.544,353.372C145.906,353.575,146.29,353.676,146.696,353.676C147.112,353.676,147.496,353.569,147.848,353.356C148.21,353.143,148.498,352.839,148.712,352.444C148.936,352.049,149.048,351.58,149.048,351.036ZM165.256,346.636L159.768,359.692L157.384,359.692L159.304,355.276L155.752,346.636L158.264,346.636L160.552,352.828L162.872,346.636L165.256,346.636ZM170.399,355.644C169.546,355.644,168.778,355.457,168.095,355.084C167.413,354.7,166.874,354.161,166.479,353.468C166.095,352.775,165.903,351.975,165.903,351.068C165.903,350.161,166.101,349.361,166.495,348.668C166.901,347.975,167.45,347.441,168.143,347.068C168.837,346.684,169.61,346.492,170.463,346.492C171.317,346.492,172.09,346.684,172.783,347.068C173.477,347.441,174.021,347.975,174.415,348.668C174.821,349.361,175.023,350.161,175.023,351.068C175.023,351.975,174.815,352.775,174.399,353.468C173.994,354.161,173.439,354.7,172.735,355.084C172.042,355.457,171.263,355.644,170.399,355.644ZM170.399,353.692C170.805,353.692,171.183,353.596,171.535,353.404C171.898,353.201,172.186,352.903,172.399,352.508C172.613,352.113,172.719,351.633,172.719,351.068C172.719,350.225,172.495,349.58,172.047,349.132C171.61,348.673,171.071,348.444,170.431,348.444C169.791,348.444,169.253,348.673,168.815,349.132C168.389,349.58,168.175,350.225,168.175,351.068C168.175,351.911,168.383,352.561,168.799,353.02C169.226,353.468,169.759,353.692,170.399,353.692ZM185.035,346.636L185.035,355.5L182.779,355.5L182.779,354.38C182.491,354.764,182.112,355.068,181.643,355.292C181.184,355.505,180.683,355.612,180.139,355.612C179.445,355.612,178.832,355.468,178.299,355.18C177.765,354.881,177.344,354.449,177.035,353.884C176.736,353.308,176.587,352.625,176.587,351.836L176.587,346.636L178.827,346.636L178.827,351.516C178.827,352.22,179.003,352.764,179.355,353.148C179.707,353.521,180.187,353.708,180.795,353.708C181.413,353.708,181.899,353.521,182.251,353.148C182.603,352.764,182.779,352.22,182.779,351.516L182.779,346.636L185.035,346.636ZM190.365,343.948C191.474,343.948,192.365,344.252,193.037,344.86C193.719,345.457,194.061,346.284,194.061,347.34C194.061,348.385,193.725,349.185,193.053,349.74C192.381,350.284,191.49,350.556,190.381,350.556L190.317,351.788L188.349,351.788L188.269,349.068L188.989,349.068C189.917,349.068,190.631,348.945,191.133,348.7C191.634,348.455,191.885,348.007,191.885,347.356C191.885,346.887,191.746,346.513,191.469,346.236C191.202,345.959,190.834,345.82,190.365,345.82C189.874,345.82,189.49,345.953,189.213,346.22C188.946,346.487,188.813,346.855,188.813,347.324L186.701,347.324C186.69,346.673,186.829,346.092,187.117,345.58C187.405,345.068,187.826,344.668,188.381,344.38C188.946,344.092,189.607,343.948,190.365,343.948ZM189.325,355.612C188.919,355.612,188.583,355.489,188.317,355.244C188.061,354.988,187.933,354.673,187.933,354.3C187.933,353.927,188.061,353.617,188.317,353.372C188.583,353.116,188.919,352.988,189.325,352.988C189.719,352.988,190.045,353.116,190.301,353.372C190.557,353.617,190.685,353.927,190.685,354.3C190.685,354.673,190.557,354.988,190.301,355.244C190.045,355.489,189.719,355.612,189.325,355.612Z" fill="rgb(255,255,255)" stroke="none" stroke-width="1"></path><path id="elI2NKVf7Dd106" d="M198.562,356.62L214.562,356.62L214.562,340.62L198.562,340.62L198.562,356.62Z" fill="none" stroke="none" stroke-width="1"></path></g></g><g id="elI2NKVf7Dd107" opacity="0"><path id="elI2NKVf7Dd108" d="M16.49,225.1C16.49,224.139,16.7047,223.28,17.134,222.524C17.5727,221.759,18.1653,221.166,18.912,220.746C19.668,220.317,20.5127,220.102,21.446,220.102C22.538,220.102,23.4947,220.382,24.316,220.942C25.1373,221.502,25.7113,222.277,26.038,223.266L23.784,223.266C23.56,222.799,23.2427,222.449,22.832,222.216C22.4307,221.983,21.964,221.866,21.432,221.866C20.8627,221.866,20.354,222.001,19.906,222.272C19.4673,222.533,19.122,222.907,18.87,223.392C18.6273,223.877,18.506,224.447,18.506,225.1C18.506,225.744,18.6273,226.313,18.87,226.808C19.122,227.293,19.4673,227.671,19.906,227.942C20.354,228.203,20.8627,228.334,21.432,228.334C21.964,228.334,22.4307,228.217,22.832,227.984C23.2427,227.741,23.56,227.387,23.784,226.92L26.038,226.92C25.7113,227.919,25.1373,228.698,24.316,229.258C23.504,229.809,22.5473,230.084,21.446,230.084C20.5127,230.084,19.668,229.874,18.912,229.454C18.1653,229.025,17.5727,228.432,17.134,227.676C16.7047,226.92,16.49,226.061,16.49,225.1ZM31.1561,230.126C30.4094,230.126,29.7374,229.963,29.1401,229.636C28.5428,229.3,28.0714,228.829,27.7261,228.222C27.3901,227.615,27.2221,226.915,27.2221,226.122C27.2221,225.329,27.3948,224.629,27.7401,224.022C28.0948,223.415,28.5754,222.949,29.1821,222.622C29.7888,222.286,30.4654,222.118,31.2121,222.118C31.9588,222.118,32.6354,222.286,33.2421,222.622C33.8488,222.949,34.3248,223.415,34.6701,224.022C35.0248,224.629,35.2021,225.329,35.2021,226.122C35.2021,226.915,35.0201,227.615,34.6561,228.222C34.3014,228.829,33.8161,229.3,33.2001,229.636C32.5934,229.963,31.9121,230.126,31.1561,230.126ZM31.1561,228.418C31.5108,228.418,31.8421,228.334,32.1501,228.166C32.4674,227.989,32.7194,227.727,32.9061,227.382C33.0928,227.037,33.1861,226.617,33.1861,226.122C33.1861,225.385,32.9901,224.82,32.5981,224.428C32.2154,224.027,31.7441,223.826,31.1841,223.826C30.6241,223.826,30.1528,224.027,29.7701,224.428C29.3968,224.82,29.2101,225.385,29.2101,226.122C29.2101,226.859,29.3921,227.429,29.7561,227.83C30.1294,228.222,30.5961,228.418,31.1561,228.418ZM38.5998,219.64L38.5998,230L36.6398,230L36.6398,219.64L38.5998,219.64ZM41.5303,221.32C41.185,221.32,40.8956,221.213,40.6623,220.998C40.4383,220.774,40.3263,220.499,40.3263,220.172C40.3263,219.845,40.4383,219.575,40.6623,219.36C40.8956,219.136,41.185,219.024,41.5303,219.024C41.8756,219.024,42.1603,219.136,42.3843,219.36C42.6176,219.575,42.7343,219.845,42.7343,220.172C42.7343,220.499,42.6176,220.774,42.3843,220.998C42.1603,221.213,41.8756,221.32,41.5303,221.32ZM42.4963,222.244L42.4963,230L40.5363,230L40.5363,222.244L42.4963,222.244ZM48.7308,222.132C49.6548,222.132,50.4015,222.426,50.9708,223.014C51.5401,223.593,51.8248,224.405,51.8248,225.45L51.8248,230L49.8648,230L49.8648,225.716C49.8648,225.1,49.7108,224.629,49.4028,224.302C49.0948,223.966,48.6748,223.798,48.1428,223.798C47.6015,223.798,47.1721,223.966,46.8548,224.302C46.5468,224.629,46.3928,225.1,46.3928,225.716L46.3928,230L44.4328,230L44.4328,222.244L46.3928,222.244L46.3928,223.21C46.6541,222.874,46.9855,222.613,47.3868,222.426C47.7975,222.23,48.2455,222.132,48.7308,222.132Z" fill="rgb(255,255,255)" stroke="none" stroke-width="1"></path><path id="elI2NKVf7Dd109" d="M64.5331,225.87C64.5331,226.113,64.5191,226.369,64.4911,226.64L58.3591,226.64C58.4057,227.396,58.6624,227.989,59.1291,228.418C59.6051,228.838,60.1791,229.048,60.8511,229.048C61.4017,229.048,61.8591,228.922,62.2231,228.67C62.5964,228.409,62.8577,228.063,63.0071,227.634L64.3791,227.634C64.1737,228.371,63.7631,228.973,63.1471,229.44C62.5311,229.897,61.7657,230.126,60.8511,230.126C60.1231,230.126,59.4697,229.963,58.8911,229.636C58.3217,229.309,57.8737,228.847,57.5471,228.25C57.2204,227.643,57.0571,226.943,57.0571,226.15C57.0571,225.357,57.2157,224.661,57.5331,224.064C57.8504,223.467,58.2937,223.009,58.8631,222.692C59.4417,222.365,60.1044,222.202,60.8511,222.202C61.5791,222.202,62.2231,222.361,62.7831,222.678C63.3431,222.995,63.7724,223.434,64.0711,223.994C64.3791,224.545,64.5331,225.17,64.5331,225.87ZM63.2171,225.604C63.2171,225.119,63.1097,224.703,62.8951,224.358C62.6804,224.003,62.3864,223.737,62.0131,223.56C61.6491,223.373,61.2431,223.28,60.7951,223.28C60.1511,223.28,59.6004,223.485,59.1431,223.896C58.6951,224.307,58.4384,224.876,58.3731,225.604L63.2171,225.604ZM69.9527,222.188C70.8861,222.188,71.6421,222.473,72.2207,223.042C72.7994,223.602,73.0887,224.414,73.0887,225.478L73.0887,230L71.8287,230L71.8287,225.66C71.8287,224.895,71.6374,224.311,71.2547,223.91C70.8721,223.499,70.3494,223.294,69.6867,223.294C69.0147,223.294,68.4781,223.504,68.0767,223.924C67.6847,224.344,67.4887,224.955,67.4887,225.758L67.4887,230L66.2147,230L66.2147,222.328L67.4887,222.328L67.4887,223.42C67.7407,223.028,68.0814,222.725,68.5107,222.51C68.9494,222.295,69.4301,222.188,69.9527,222.188ZM76.7238,223.378L76.7238,227.9C76.7238,228.273,76.8031,228.539,76.9618,228.698C77.1205,228.847,77.3958,228.922,77.7878,228.922L78.7258,228.922L78.7258,230L77.5778,230C76.8685,230,76.3365,229.837,75.9818,229.51C75.6271,229.183,75.4498,228.647,75.4498,227.9L75.4498,223.378L74.4558,223.378L74.4558,222.328L75.4498,222.328L75.4498,220.396L76.7238,220.396L76.7238,222.328L78.7258,222.328L78.7258,223.378L76.7238,223.378ZM87.2694,225.87C87.2694,226.113,87.2554,226.369,87.2274,226.64L81.0954,226.64C81.1421,227.396,81.3987,227.989,81.8654,228.418C82.3414,228.838,82.9154,229.048,83.5874,229.048C84.1381,229.048,84.5954,228.922,84.9594,228.67C85.3327,228.409,85.5941,228.063,85.7434,227.634L87.1154,227.634C86.9101,228.371,86.4994,228.973,85.8834,229.44C85.2674,229.897,84.5021,230.126,83.5874,230.126C82.8594,230.126,82.2061,229.963,81.6274,229.636C81.0581,229.309,80.6101,228.847,80.2834,228.25C79.9567,227.643,79.7934,226.943,79.7934,226.15C79.7934,225.357,79.9521,224.661,80.2694,224.064C80.5867,223.467,81.0301,223.009,81.5994,222.692C82.1781,222.365,82.8407,222.202,83.5874,222.202C84.3154,222.202,84.9594,222.361,85.5194,222.678C86.0794,222.995,86.5087,223.434,86.8074,223.994C87.1154,224.545,87.2694,225.17,87.2694,225.87ZM85.9534,225.604C85.9534,225.119,85.8461,224.703,85.6314,224.358C85.4167,224.003,85.1227,223.737,84.7494,223.56C84.3854,223.373,83.9794,223.28,83.5314,223.28C82.8874,223.28,82.3367,223.485,81.8794,223.896C81.4314,224.307,81.1747,224.876,81.1094,225.604L85.9534,225.604ZM90.225,223.574C90.449,223.135,90.7664,222.795,91.177,222.552C91.597,222.309,92.1057,222.188,92.703,222.188L92.703,223.504L92.367,223.504C90.939,223.504,90.225,224.279,90.225,225.828L90.225,230L88.951,230L88.951,222.328L90.225,222.328L90.225,223.574ZM101.174,225.87C101.174,226.113,101.16,226.369,101.132,226.64L94.9997,226.64C95.0464,227.396,95.303,227.989,95.7697,228.418C96.2457,228.838,96.8197,229.048,97.4917,229.048C98.0424,229.048,98.4997,228.922,98.8637,228.67C99.237,228.409,99.4984,228.063,99.6477,227.634L101.02,227.634C100.814,228.371,100.404,228.973,99.7877,229.44C99.1717,229.897,98.4064,230.126,97.4917,230.126C96.7637,230.126,96.1104,229.963,95.5317,229.636C94.9624,229.309,94.5144,228.847,94.1877,228.25C93.861,227.643,93.6977,226.943,93.6977,226.15C93.6977,225.357,93.8564,224.661,94.1737,224.064C94.491,223.467,94.9344,223.009,95.5037,222.692C96.0824,222.365,96.745,222.202,97.4917,222.202C98.2197,222.202,98.8637,222.361,99.4237,222.678C99.9837,222.995,100.413,223.434,100.712,223.994C101.02,224.545,101.174,225.17,101.174,225.87ZM99.8577,225.604C99.8577,225.119,99.7504,224.703,99.5357,224.358C99.321,224.003,99.027,223.737,98.6537,223.56C98.2897,223.373,97.8837,223.28,97.4357,223.28C96.7917,223.28,96.241,223.485,95.7837,223.896C95.3357,224.307,95.079,224.876,95.0137,225.604L99.8577,225.604ZM102.379,226.136C102.379,225.352,102.538,224.666,102.855,224.078C103.173,223.481,103.607,223.019,104.157,222.692C104.717,222.365,105.343,222.202,106.033,222.202C106.631,222.202,107.186,222.342,107.699,222.622C108.213,222.893,108.605,223.252,108.875,223.7L108.875,219.64L110.163,219.64L110.163,230L108.875,230L108.875,228.558C108.623,229.015,108.25,229.393,107.755,229.692C107.261,229.981,106.682,230.126,106.019,230.126C105.338,230.126,104.717,229.958,104.157,229.622C103.607,229.286,103.173,228.815,102.855,228.208C102.538,227.601,102.379,226.911,102.379,226.136ZM108.875,226.15C108.875,225.571,108.759,225.067,108.525,224.638C108.292,224.209,107.975,223.882,107.573,223.658C107.181,223.425,106.747,223.308,106.271,223.308C105.795,223.308,105.361,223.42,104.969,223.644C104.577,223.868,104.265,224.195,104.031,224.624C103.798,225.053,103.681,225.557,103.681,226.136C103.681,226.724,103.798,227.237,104.031,227.676C104.265,228.105,104.577,228.437,104.969,228.67C105.361,228.894,105.795,229.006,106.271,229.006C106.747,229.006,107.181,228.894,107.573,228.67C107.975,228.437,108.292,228.105,108.525,227.676C108.759,227.237,108.875,226.729,108.875,226.15ZM117.603,223.378L117.603,227.9C117.603,228.273,117.682,228.539,117.841,228.698C117.999,228.847,118.275,228.922,118.667,228.922L119.605,228.922L119.605,230L118.457,230C117.747,230,117.215,229.837,116.861,229.51C116.506,229.183,116.329,228.647,116.329,227.9L116.329,223.378L115.335,223.378L115.335,222.328L116.329,222.328L116.329,220.396L117.603,220.396L117.603,222.328L119.605,222.328L119.605,223.378L117.603,223.378ZM124.956,222.188C125.535,222.188,126.058,222.314,126.524,222.566C126.991,222.809,127.355,223.177,127.616,223.672C127.887,224.167,128.022,224.769,128.022,225.478L128.022,230L126.762,230L126.762,225.66C126.762,224.895,126.571,224.311,126.188,223.91C125.806,223.499,125.283,223.294,124.62,223.294C123.948,223.294,123.412,223.504,123.01,223.924C122.618,224.344,122.422,224.955,122.422,225.758L122.422,230L121.148,230L121.148,219.64L122.422,219.64L122.422,223.42C122.674,223.028,123.02,222.725,123.458,222.51C123.906,222.295,124.406,222.188,124.956,222.188ZM137.103,225.87C137.103,226.113,137.089,226.369,137.061,226.64L130.929,226.64C130.976,227.396,131.233,227.989,131.699,228.418C132.175,228.838,132.749,229.048,133.421,229.048C133.972,229.048,134.429,228.922,134.793,228.67C135.167,228.409,135.428,228.063,135.577,227.634L136.949,227.634C136.744,228.371,136.333,228.973,135.717,229.44C135.101,229.897,134.336,230.126,133.421,230.126C132.693,230.126,132.04,229.963,131.461,229.636C130.892,229.309,130.444,228.847,130.117,228.25C129.791,227.643,129.627,226.943,129.627,226.15C129.627,225.357,129.786,224.661,130.103,224.064C130.421,223.467,130.864,223.009,131.433,222.692C132.012,222.365,132.675,222.202,133.421,222.202C134.149,222.202,134.793,222.361,135.353,222.678C135.913,222.995,136.343,223.434,136.641,223.994C136.949,224.545,137.103,225.17,137.103,225.87ZM135.787,225.604C135.787,225.119,135.68,224.703,135.465,224.358C135.251,224.003,134.957,223.737,134.583,223.56C134.219,223.373,133.813,223.28,133.365,223.28C132.721,223.28,132.171,223.485,131.713,223.896C131.265,224.307,131.009,224.876,130.943,225.604L135.787,225.604ZM142.041,226.15C142.041,225.357,142.2,224.666,142.517,224.078C142.835,223.481,143.273,223.019,143.833,222.692C144.403,222.365,145.051,222.202,145.779,222.202C146.722,222.202,147.497,222.431,148.103,222.888C148.719,223.345,149.125,223.98,149.321,224.792L147.949,224.792C147.819,224.325,147.562,223.957,147.179,223.686C146.806,223.415,146.339,223.28,145.779,223.28C145.051,223.28,144.463,223.532,144.015,224.036C143.567,224.531,143.343,225.235,143.343,226.15C143.343,227.074,143.567,227.788,144.015,228.292C144.463,228.796,145.051,229.048,145.779,229.048C146.339,229.048,146.806,228.917,147.179,228.656C147.553,228.395,147.809,228.021,147.949,227.536L149.321,227.536C149.116,228.32,148.705,228.95,148.089,229.426C147.473,229.893,146.703,230.126,145.779,230.126C145.051,230.126,144.403,229.963,143.833,229.636C143.273,229.309,142.835,228.847,142.517,228.25C142.2,227.653,142.041,226.953,142.041,226.15ZM154.829,222.188C155.408,222.188,155.931,222.314,156.397,222.566C156.864,222.809,157.228,223.177,157.489,223.672C157.76,224.167,157.895,224.769,157.895,225.478L157.895,230L156.635,230L156.635,225.66C156.635,224.895,156.444,224.311,156.061,223.91C155.679,223.499,155.156,223.294,154.493,223.294C153.821,223.294,153.285,223.504,152.883,223.924C152.491,224.344,152.295,224.955,152.295,225.758L152.295,230L151.021,230L151.021,219.64L152.295,219.64L152.295,223.42C152.547,223.028,152.893,222.725,153.331,222.51C153.779,222.295,154.279,222.188,154.829,222.188ZM159.5,226.136C159.5,225.352,159.659,224.666,159.976,224.078C160.294,223.481,160.728,223.019,161.278,222.692C161.838,222.365,162.459,222.202,163.14,222.202C163.812,222.202,164.396,222.347,164.89,222.636C165.385,222.925,165.754,223.289,165.996,223.728L165.996,222.328L167.284,222.328L167.284,230L165.996,230L165.996,228.572C165.744,229.02,165.366,229.393,164.862,229.692C164.368,229.981,163.789,230.126,163.126,230.126C162.445,230.126,161.829,229.958,161.278,229.622C160.728,229.286,160.294,228.815,159.976,228.208C159.659,227.601,159.5,226.911,159.5,226.136ZM165.996,226.15C165.996,225.571,165.88,225.067,165.646,224.638C165.413,224.209,165.096,223.882,164.694,223.658C164.302,223.425,163.868,223.308,163.392,223.308C162.916,223.308,162.482,223.42,162.09,223.644C161.698,223.868,161.386,224.195,161.152,224.624C160.919,225.053,160.802,225.557,160.802,226.136C160.802,226.724,160.919,227.237,161.152,227.676C161.386,228.105,161.698,228.437,162.09,228.67C162.482,228.894,162.916,229.006,163.392,229.006C163.868,229.006,164.302,228.894,164.694,228.67C165.096,228.437,165.413,228.105,165.646,227.676C165.88,227.237,165.996,226.729,165.996,226.15ZM170.991,223.378L170.991,227.9C170.991,228.273,171.071,228.539,171.229,228.698C171.388,228.847,171.663,228.922,172.055,228.922L172.993,228.922L172.993,230L171.845,230C171.136,230,170.604,229.837,170.249,229.51C169.895,229.183,169.717,228.647,169.717,227.9L169.717,223.378L168.723,223.378L168.723,222.328L169.717,222.328L169.717,220.396L170.991,220.396L170.991,222.328L172.993,222.328L172.993,223.378L170.991,223.378Z" fill="rgb(99,99,102)" stroke="none" stroke-width="1"></path></g><g id="elI2NKVf7Dd110_to" transform="translate(350,159.931999)"><g id="elI2NKVf7Dd110" transform="translate(-269.992004,-159.931999)" opacity="0"><path id="elI2NKVf7Dd111" d="M308.742,137.02C310.329,135.956,311.598,134.901,312.55,133.856C313.502,132.801,313.978,131.821,313.978,130.916C313.978,130.356,313.834,129.908,313.544,129.572C313.264,129.227,312.807,129.054,312.172,129.054C311.519,129.054,311.024,129.264,310.688,129.684C310.352,130.095,310.166,130.664,310.128,131.392L308.868,131.392C308.934,130.291,309.274,129.446,309.89,128.858C310.506,128.261,311.3,127.962,312.27,127.962C313.194,127.962,313.927,128.209,314.468,128.704C315.01,129.199,315.28,129.899,315.28,130.804C315.28,131.551,315.038,132.311,314.552,133.086C314.076,133.851,313.474,134.565,312.746,135.228C312.028,135.881,311.286,136.437,310.52,136.894L315.532,136.894L315.532,137.944L308.742,137.944L308.742,137.02ZM318.226,130.454L318.226,131.952L316.686,131.952L316.686,130.454L318.226,130.454ZM318.226,136.502L318.226,138L316.686,138L316.686,136.502L318.226,136.502ZM322.963,127.864C323.598,127.864,324.144,127.976,324.601,128.2C325.059,128.424,325.404,128.732,325.637,129.124C325.871,129.516,325.987,129.959,325.987,130.454C325.987,131.07,325.805,131.588,325.441,132.008C325.087,132.428,324.564,132.68,323.873,132.764L323.873,132.848C324.592,133.035,325.152,133.324,325.553,133.716C325.964,134.108,326.169,134.649,326.169,135.34C326.169,136.152,325.899,136.815,325.357,137.328C324.816,137.841,324.037,138.098,323.019,138.098C322.002,138.098,321.176,137.837,320.541,137.314C319.916,136.782,319.547,136.007,319.435,134.99L320.695,134.99C320.779,135.606,321.013,136.096,321.395,136.46C321.787,136.824,322.315,137.006,322.977,137.006C323.603,137.006,324.083,136.847,324.419,136.53C324.755,136.203,324.923,135.783,324.923,135.27C324.923,134.654,324.681,134.187,324.195,133.87C323.719,133.543,323.038,133.38,322.151,133.38L321.815,133.38L321.815,132.316L322.151,132.316C323.869,132.316,324.727,131.742,324.727,130.594C324.727,130.09,324.569,129.689,324.251,129.39C323.934,129.091,323.495,128.942,322.935,128.942C322.375,128.942,321.904,129.105,321.521,129.432C321.139,129.749,320.915,130.221,320.849,130.846L319.603,130.846C319.669,129.913,319.991,129.185,320.569,128.662C321.157,128.13,321.955,127.864,322.963,127.864ZM327.819,133.002C327.819,134.589,328.081,135.825,328.603,136.712C329.126,137.599,330.031,138.042,331.319,138.042C332.607,138.042,333.513,137.599,334.035,136.712C334.567,135.825,334.833,134.589,334.833,133.002C334.833,131.434,334.567,130.207,334.035,129.32C333.513,128.433,332.607,127.99,331.319,127.99C330.031,127.99,329.126,128.433,328.603,129.32C328.081,130.197,327.819,131.425,327.819,133.002ZM333.573,133.002C333.573,133.814,333.513,134.495,333.391,135.046C333.279,135.587,333.06,136.021,332.733,136.348C332.407,136.675,331.935,136.838,331.319,136.838C330.713,136.838,330.246,136.675,329.919,136.348C329.593,136.021,329.369,135.587,329.247,135.046C329.135,134.495,329.079,133.814,329.079,133.002C329.079,132.199,329.135,131.527,329.247,130.986C329.369,130.445,329.593,130.015,329.919,129.698C330.246,129.371,330.713,129.208,331.319,129.208C331.935,129.208,332.407,129.371,332.733,129.698C333.06,130.015,333.279,130.445,333.391,130.986C333.513,131.527,333.573,132.199,333.573,133.002ZM341.376,134.024L341.376,138L340.102,138L340.102,128.13L343.238,128.13C344.367,128.13,345.212,128.396,345.772,128.928C346.332,129.451,346.612,130.169,346.612,131.084C346.612,132.008,346.323,132.731,345.744,133.254C345.165,133.767,344.33,134.024,343.238,134.024L341.376,134.024ZM343.126,132.96C343.901,132.96,344.456,132.797,344.792,132.47C345.137,132.143,345.31,131.681,345.31,131.084C345.31,130.468,345.137,130.001,344.792,129.684C344.456,129.357,343.901,129.194,343.126,129.194L341.376,129.194L341.376,132.96L343.126,132.96ZM357.984,128.298L357.984,138L356.71,138L356.71,130.258L353.616,138L352.482,138L349.374,130.286L349.374,138L348.1,138L348.1,128.298L349.626,128.298L353.07,136.446L356.458,128.298L357.984,128.298Z" fill="rgb(99,99,102)" stroke="none" stroke-width="1"></path><path id="elI2NKVf7Dd112" d="M182,170C182,160.618,182,155.927,184.48,152.695C185.118,151.863,185.863,151.118,186.695,150.48C189.927,148,194.618,148,204,148L353,148L353,168C353,179.314,353,184.971,349.485,188.485C345.971,192,340.314,192,329,192L204,192C194.618,192,189.927,192,186.695,189.52C185.863,188.882,185.118,188.137,184.48,187.305C182,184.073,182,179.382,182,170Z" fill="rgb(8,22,36)" stroke="none" stroke-width="1"></path><path id="elI2NKVf7Dd113" d="M194.56,169.9C194.56,168.801,194.805,167.82,195.296,166.956C195.797,166.081,196.475,165.404,197.328,164.924C198.192,164.433,199.157,164.188,200.224,164.188C201.472,164.188,202.565,164.508,203.504,165.148C204.443,165.788,205.099,166.673,205.472,167.804L202.896,167.804C202.64,167.271,202.277,166.871,201.808,166.604C201.349,166.337,200.816,166.204,200.208,166.204C199.557,166.204,198.976,166.359,198.464,166.668C197.963,166.967,197.568,167.393,197.28,167.948C197.003,168.503,196.864,169.153,196.864,169.9C196.864,170.636,197.003,171.287,197.28,171.852C197.568,172.407,197.963,172.839,198.464,173.148C198.976,173.447,199.557,173.596,200.208,173.596C200.816,173.596,201.349,173.463,201.808,173.196C202.277,172.919,202.64,172.513,202.896,171.98L205.472,171.98C205.099,173.121,204.443,174.012,203.504,174.652C202.576,175.281,201.483,175.596,200.224,175.596C199.157,175.596,198.192,175.356,197.328,174.876C196.475,174.385,195.797,173.708,195.296,172.844C194.805,171.98,194.56,170.999,194.56,169.9ZM206.809,171.036C206.809,170.14,206.985,169.345,207.337,168.652C207.7,167.959,208.185,167.425,208.793,167.052C209.412,166.679,210.1,166.492,210.857,166.492C211.519,166.492,212.095,166.625,212.585,166.892C213.087,167.159,213.487,167.495,213.785,167.9L213.785,166.636L216.041,166.636L216.041,175.5L213.785,175.5L213.785,174.204C213.497,174.62,213.097,174.967,212.585,175.244C212.084,175.511,211.503,175.644,210.841,175.644C210.095,175.644,209.412,175.452,208.793,175.068C208.185,174.684,207.7,174.145,207.337,173.452C206.985,172.748,206.809,171.943,206.809,171.036ZM213.785,171.068C213.785,170.524,213.679,170.06,213.465,169.676C213.252,169.281,212.964,168.983,212.601,168.78C212.239,168.567,211.849,168.46,211.433,168.46C211.017,168.46,210.633,168.561,210.281,168.764C209.929,168.967,209.641,169.265,209.417,169.66C209.204,170.044,209.097,170.503,209.097,171.036C209.097,171.569,209.204,172.039,209.417,172.444C209.641,172.839,209.929,173.143,210.281,173.356C210.644,173.569,211.028,173.676,211.433,173.676C211.849,173.676,212.239,173.575,212.601,173.372C212.964,173.159,213.252,172.86,213.465,172.476C213.679,172.081,213.785,171.612,213.785,171.068ZM223.141,166.508C224.197,166.508,225.05,166.844,225.701,167.516C226.352,168.177,226.677,169.105,226.677,170.3L226.677,175.5L224.437,175.5L224.437,170.604C224.437,169.9,224.261,169.361,223.909,168.988C223.557,168.604,223.077,168.412,222.469,168.412C221.85,168.412,221.36,168.604,220.997,168.988C220.645,169.361,220.469,169.9,220.469,170.604L220.469,175.5L218.229,175.5L218.229,166.636L220.469,166.636L220.469,167.74C220.768,167.356,221.146,167.057,221.605,166.844C222.074,166.62,222.586,166.508,223.141,166.508ZM241.1,166.636L235.612,179.692L233.228,179.692L235.148,175.276L231.596,166.636L234.108,166.636L236.396,172.828L238.716,166.636L241.1,166.636ZM246.243,175.644C245.39,175.644,244.622,175.457,243.939,175.084C243.256,174.7,242.718,174.161,242.323,173.468C241.939,172.775,241.747,171.975,241.747,171.068C241.747,170.161,241.944,169.361,242.339,168.668C242.744,167.975,243.294,167.441,243.987,167.068C244.68,166.684,245.454,166.492,246.307,166.492C247.16,166.492,247.934,166.684,248.627,167.068C249.32,167.441,249.864,167.975,250.259,168.668C250.664,169.361,250.867,170.161,250.867,171.068C250.867,171.975,250.659,172.775,250.243,173.468C249.838,174.161,249.283,174.7,248.579,175.084C247.886,175.457,247.107,175.644,246.243,175.644ZM246.243,173.692C246.648,173.692,247.027,173.596,247.379,173.404C247.742,173.201,248.03,172.903,248.243,172.508C248.456,172.113,248.563,171.633,248.563,171.068C248.563,170.225,248.339,169.58,247.891,169.132C247.454,168.673,246.915,168.444,246.275,168.444C245.635,168.444,245.096,168.673,244.659,169.132C244.232,169.58,244.019,170.225,244.019,171.068C244.019,171.911,244.227,172.561,244.643,173.02C245.07,173.468,245.603,173.692,246.243,173.692ZM260.878,166.636L260.878,175.5L258.622,175.5L258.622,174.38C258.334,174.764,257.956,175.068,257.486,175.292C257.028,175.505,256.526,175.612,255.982,175.612C255.289,175.612,254.676,175.468,254.142,175.18C253.609,174.881,253.188,174.449,252.878,173.884C252.58,173.308,252.43,172.625,252.43,171.836L252.43,166.636L254.67,166.636L254.67,171.516C254.67,172.22,254.846,172.764,255.198,173.148C255.55,173.521,256.03,173.708,256.638,173.708C257.257,173.708,257.742,173.521,258.094,173.148C258.446,172.764,258.622,172.22,258.622,171.516L258.622,166.636L260.878,166.636ZM271.893,166.508C272.565,166.508,273.162,166.657,273.685,166.956C274.208,167.244,274.613,167.676,274.901,168.252C275.2,168.817,275.349,169.5,275.349,170.3L275.349,175.5L273.109,175.5L273.109,170.604C273.109,169.9,272.933,169.361,272.581,168.988C272.229,168.604,271.749,168.412,271.141,168.412C270.522,168.412,270.032,168.604,269.669,168.988C269.317,169.361,269.141,169.9,269.141,170.604L269.141,175.5L266.901,175.5L266.901,163.66L269.141,163.66L269.141,167.74C269.429,167.356,269.813,167.057,270.293,166.844C270.773,166.62,271.306,166.508,271.893,166.508ZM285.719,170.876C285.719,171.196,285.698,171.484,285.655,171.74L279.175,171.74C279.228,172.38,279.452,172.881,279.847,173.244C280.242,173.607,280.727,173.788,281.303,173.788C282.135,173.788,282.727,173.431,283.079,172.716L285.495,172.716C285.239,173.569,284.748,174.273,284.023,174.828C283.298,175.372,282.407,175.644,281.351,175.644C280.498,175.644,279.73,175.457,279.047,175.084C278.375,174.7,277.847,174.161,277.463,173.468C277.09,172.775,276.903,171.975,276.903,171.068C276.903,170.151,277.09,169.345,277.463,168.652C277.836,167.959,278.359,167.425,279.031,167.052C279.703,166.679,280.476,166.492,281.351,166.492C282.194,166.492,282.946,166.673,283.607,167.036C284.279,167.399,284.796,167.916,285.159,168.588C285.532,169.249,285.719,170.012,285.719,170.876ZM283.399,170.236C283.388,169.66,283.18,169.201,282.775,168.86C282.37,168.508,281.874,168.332,281.287,168.332C280.732,168.332,280.263,168.503,279.879,168.844C279.506,169.175,279.276,169.639,279.191,170.236L283.399,170.236ZM289.594,163.66L289.594,175.5L287.354,175.5L287.354,163.66L289.594,163.66ZM294.047,167.916C294.335,167.511,294.73,167.175,295.231,166.908C295.743,166.631,296.324,166.492,296.975,166.492C297.732,166.492,298.415,166.679,299.023,167.052C299.642,167.425,300.127,167.959,300.479,168.652C300.842,169.335,301.023,170.129,301.023,171.036C301.023,171.943,300.842,172.748,300.479,173.452C300.127,174.145,299.642,174.684,299.023,175.068C298.415,175.452,297.732,175.644,296.975,175.644C296.324,175.644,295.748,175.511,295.247,175.244C294.756,174.977,294.356,174.641,294.047,174.236L294.047,179.724L291.807,179.724L291.807,166.636L294.047,166.636L294.047,167.916ZM298.735,171.036C298.735,170.503,298.623,170.044,298.399,169.66C298.186,169.265,297.898,168.967,297.535,168.764C297.183,168.561,296.799,168.46,296.383,168.46C295.978,168.46,295.594,168.567,295.231,168.78C294.879,168.983,294.591,169.281,294.367,169.676C294.154,170.071,294.047,170.535,294.047,171.068C294.047,171.601,294.154,172.065,294.367,172.46C294.591,172.855,294.879,173.159,295.231,173.372C295.594,173.575,295.978,173.676,296.383,173.676C296.799,173.676,297.183,173.569,297.535,173.356C297.898,173.143,298.186,172.839,298.399,172.444C298.623,172.049,298.735,171.58,298.735,171.036ZM317.471,166.508C318.559,166.508,319.434,166.844,320.095,167.516C320.767,168.177,321.103,169.105,321.103,170.3L321.103,175.5L318.863,175.5L318.863,170.604C318.863,169.911,318.687,169.383,318.335,169.02C317.983,168.647,317.503,168.46,316.895,168.46C316.287,168.46,315.802,168.647,315.439,169.02C315.087,169.383,314.911,169.911,314.911,170.604L314.911,175.5L312.671,175.5L312.671,170.604C312.671,169.911,312.495,169.383,312.143,169.02C311.791,168.647,311.311,168.46,310.703,168.46C310.085,168.46,309.594,168.647,309.231,169.02C308.879,169.383,308.703,169.911,308.703,170.604L308.703,175.5L306.463,175.5L306.463,166.636L308.703,166.636L308.703,167.708C308.991,167.335,309.359,167.041,309.807,166.828C310.266,166.615,310.767,166.508,311.311,166.508C312.005,166.508,312.623,166.657,313.167,166.956C313.711,167.244,314.133,167.66,314.431,168.204C314.719,167.692,315.135,167.281,315.679,166.972C316.234,166.663,316.831,166.508,317.471,166.508ZM331.469,170.876C331.469,171.196,331.448,171.484,331.405,171.74L324.925,171.74C324.978,172.38,325.202,172.881,325.597,173.244C325.992,173.607,326.477,173.788,327.053,173.788C327.885,173.788,328.477,173.431,328.829,172.716L331.245,172.716C330.989,173.569,330.498,174.273,329.773,174.828C329.048,175.372,328.157,175.644,327.101,175.644C326.248,175.644,325.48,175.457,324.797,175.084C324.125,174.7,323.597,174.161,323.213,173.468C322.84,172.775,322.653,171.975,322.653,171.068C322.653,170.151,322.84,169.345,323.213,168.652C323.586,167.959,324.109,167.425,324.781,167.052C325.453,166.679,326.226,166.492,327.101,166.492C327.944,166.492,328.696,166.673,329.357,167.036C330.029,167.399,330.546,167.916,330.909,168.588C331.282,169.249,331.469,170.012,331.469,170.876ZM329.149,170.236C329.138,169.66,328.93,169.201,328.525,168.86C328.12,168.508,327.624,168.332,327.037,168.332C326.482,168.332,326.013,168.503,325.629,168.844C325.256,169.175,325.026,169.639,324.941,170.236L329.149,170.236ZM336.224,163.948C337.333,163.948,338.224,164.252,338.896,164.86C339.579,165.457,339.92,166.284,339.92,167.34C339.92,168.385,339.584,169.185,338.912,169.74C338.24,170.284,337.349,170.556,336.24,170.556L336.176,171.788L334.208,171.788L334.128,169.068L334.848,169.068C335.776,169.068,336.491,168.945,336.992,168.7C337.493,168.455,337.744,168.007,337.744,167.356C337.744,166.887,337.605,166.513,337.328,166.236C337.061,165.959,336.693,165.82,336.224,165.82C335.733,165.82,335.349,165.953,335.072,166.22C334.805,166.487,334.672,166.855,334.672,167.324L332.56,167.324C332.549,166.673,332.688,166.092,332.976,165.58C333.264,165.068,333.685,164.668,334.24,164.38C334.805,164.092,335.467,163.948,336.224,163.948ZM335.184,175.612C334.779,175.612,334.443,175.489,334.176,175.244C333.92,174.988,333.792,174.673,333.792,174.3C333.792,173.927,333.92,173.617,334.176,173.372C334.443,173.116,334.779,172.988,335.184,172.988C335.579,172.988,335.904,173.116,336.16,173.372C336.416,173.617,336.544,173.927,336.544,174.3C336.544,174.673,336.416,174.988,336.16,175.244C335.904,175.489,335.579,175.612,335.184,175.612Z" fill="rgb(255,255,255)" stroke="none" stroke-width="1"></path><path id="elI2NKVf7Dd114" d="M353,148L359,148L353,156L353,148Z" fill="rgb(8,22,36)" stroke="none" stroke-width="1"></path></g></g><rect id="elI2NKVf7Dd115" width="48" height="44" rx="12" ry="12" transform="matrix(1 0 0 1 311 54)" fill="rgb(8,22,36)" stroke="none" stroke-width="1"></rect><path id="elI2NKVf7Dd116" d="M335,71.5C335.828,71.5,336.5,70.8284,336.5,70C336.5,69.1716,335.828,68.5,335,68.5C334.172,68.5,333.5,69.1716,333.5,70C333.5,70.8284,334.172,71.5,335,71.5Z" fill="rgb(255,255,255)" stroke="none" stroke-width="1"></path><path id="elI2NKVf7Dd117" d="M335,77.5C335.828,77.5,336.5,76.8284,336.5,76C336.5,75.1716,335.828,74.5,335,74.5C334.172,74.5,333.5,75.1716,333.5,76C333.5,76.8284,334.172,77.5,335,77.5Z" fill="rgb(255,255,255)" stroke="none" stroke-width="1"></path><path id="elI2NKVf7Dd118" d="M335,83.5C335.828,83.5,336.5,82.8284,336.5,82C336.5,81.1716,335.828,80.5,335,80.5C334.172,80.5,333.5,81.1716,333.5,82C333.5,82.8284,334.172,83.5,335,83.5Z" fill="rgb(255,255,255)" stroke="none" stroke-width="1"></path><path id="elI2NKVf7Dd119" d="M40,100C53.2548,100,64,89.2548,64,76C64,62.7452,53.2548,52,40,52C26.7452,52,16,62.7452,16,76C16,89.2548,26.7452,100,40,100Z" clip-rule="evenodd" fill="rgb(245,245,248)" fill-rule="evenodd" stroke="none" stroke-width="1"></path><g id="elI2NKVf7Dd120" mask="url(#elI2NKVf7Dd132)"><g id="elI2NKVf7Dd121"><path id="elI2NKVf7Dd122" d="M57.4618,94.431C56.0469,92.3842,53.9609,90.8965,51.5649,90.2253L45.9999,88.6663L45.9999,84.6665C48.3525,82.8993,49.8974,80.1183,49.9923,76.9726C50.3211,77.1175,50.6841,77.1997,51.0667,77.1997C52.5394,77.1997,53.7334,76.0058,53.7334,74.533C53.7334,73.0602,52.5394,71.8663,51.0667,71.8663C50.6871,71.8663,50.3269,71.9467,50.0001,72.0897L50.0001,71.333C50.0001,65.8101,45.5229,61.333,40.0001,61.333L39.9999,61.333C34.4771,61.333,30.0001,65.8101,30.0001,71.333L30.0001,72.0897C29.6731,71.9467,29.3129,71.8663,28.9334,71.8663C27.4606,71.8663,26.2667,73.0602,26.2667,74.533C26.2667,76.0058,27.4606,77.1997,28.9334,77.1997C29.3159,77.1997,29.6789,77.1177,30.0078,76.9726C30.1026,80.1183,31.6475,82.8993,33.9999,84.6665L33.9999,88.6663L28.4351,90.2253C26.0391,90.8965,23.9531,92.3842,22.5382,94.431L18.6667,100.032L18.6667,104L61.3334,104L61.3334,100.032L57.4618,94.431Z" clip-rule="evenodd" fill="rgb(255,207,131)" fill-rule="evenodd" stroke="none" stroke-width="1"></path><path id="elI2NKVf7Dd123" d="M40,86.6664C38.7669,86.6664,37.5866,86.4418,36.496,86.0337C38.0472,87.0246,39.8893,87.5997,41.8666,87.5997C43.3413,87.5997,44.7398,87.278,46,86.705L46,84.6665C44.3286,85.922,42.2513,86.6664,40,86.6664Z" clip-rule="evenodd" fill="rgb(247,167,79)" fill-rule="evenodd" stroke="none" stroke-width="1"></path><path id="elI2NKVf7Dd124" d="M30.3479,74.9221C30.3819,74.7983,30.4002,74.6677,30.4002,74.5331C30.4002,73.7231,29.7435,73.0664,28.9335,73.0664C28.7309,73.0664,28.538,73.1075,28.3625,73.1816" fill="none" stroke="rgb(0,0,77)" stroke-width="1" stroke-linecap="round" stroke-linejoin="round"></path><path id="elI2NKVf7Dd125" d="M49.6522,74.9221C49.6182,74.7983,49.6001,74.6677,49.6001,74.5331C49.6001,73.7231,50.2568,73.0664,51.0668,73.0664C51.2692,73.0664,51.4621,73.1075,51.6377,73.1816" fill="none" stroke="rgb(0,0,77)" stroke-width="1" stroke-linecap="round" stroke-linejoin="round"></path><path id="elI2NKVf7Dd126" d="M42.6666,80.5347C42.6666,82.0075,41.4728,83.2013,40,83.2013C38.5272,83.2013,37.3333,82.0075,37.3333,80.5347L42.6666,80.5347Z" clip-rule="evenodd" fill="rgb(255,255,255)" fill-rule="evenodd" stroke="none" stroke-width="1"></path><path id="elI2NKVf7Dd127" d="M45.4667,74.9334C45.4667,75.5224,44.9891,76,44.4,76C43.811,76,43.3334,75.5224,43.3334,74.9334C43.3334,74.3443,43.811,73.8667,44.4,73.8667C44.9891,73.8667,45.4667,74.3443,45.4667,74.9334" clip-rule="evenodd" fill="rgb(0,0,77)" fill-rule="evenodd" stroke="none" stroke-width="1"></path><path id="elI2NKVf7Dd128" d="M36.6667,74.9334C36.6667,75.5224,36.1891,76,35.6,76C35.0109,76,34.5333,75.5224,34.5333,74.9334C34.5333,74.3443,35.0109,73.8667,35.6,73.8667C36.1891,73.8667,36.6667,74.3443,36.6667,74.9334" clip-rule="evenodd" fill="rgb(0,0,77)" fill-rule="evenodd" stroke="none" stroke-width="1"></path><path id="elI2NKVf7Dd129" d="M39.9999,73.8667L41.3333,78.4L39.4666,78.6667" fill="none" stroke="rgb(0,0,77)" stroke-width="1" stroke-linecap="round" stroke-linejoin="round"></path><path id="elI2NKVf7Dd130" d="M50.6666,71.8997L50.6666,71.3332C50.6666,69.287,50.0894,67.3761,49.0906,65.7525C48.1649,64.2478,46.8756,62.9924,45.346,62.1044C43.7738,61.1916,41.9486,60.6665,40,60.6665C38.0512,60.6665,36.2261,61.1916,34.654,62.1044C33.1244,62.9924,31.835,64.2478,30.9093,65.7525C29.9105,67.3761,29.3333,69.287,29.3333,71.3332L29.3333,71.8997C29.8896,71.9837,30.3892,72.2377,30.777,72.6094C32.0056,71.3764,32.9949,69.9052,33.668,68.2696C35.5517,69.2881,37.7082,69.8665,40,69.8665C42.2917,69.8665,44.4482,69.2881,46.332,68.2696C47.0049,69.9052,47.9945,71.3764,49.2229,72.6094C49.6108,72.2377,50.1104,71.9837,50.6666,71.8997" clip-rule="evenodd" fill="rgb(0,0,77)" fill-rule="evenodd" stroke="none" stroke-width="1"></path><path id="elI2NKVf7Dd131" d="M61.3334,100.032L57.4618,94.4317C56.047,92.385,53.961,90.8971,51.5648,90.2259L46,88.667C46,91.9807,43.3138,94.667,40,94.667L40,94.667C36.6863,94.667,34,91.9807,34,88.667L28.4351,90.2259C26.0391,90.8971,23.9531,92.385,22.5382,94.4317L18.6667,100.032L18.6667,104L61.3334,104L61.3334,100.032Z" clip-rule="evenodd" fill="rgb(251,52,79)" fill-rule="evenodd" stroke="none" stroke-width="1"></path></g><mask id="elI2NKVf7Dd132"><path id="elI2NKVf7Dd133" d="M40,100C53.2548,100,64,89.2548,64,76C64,62.7452,53.2548,52,40,52C26.7452,52,16,62.7452,16,76C16,89.2548,26.7452,100,40,100Z" clip-rule="evenodd" fill="rgb(255,255,255)" fill-rule="evenodd" stroke="none" stroke-width="1"></path></mask></g><path id="elI2NKVf7Dd134" d="M81.2,83.14C80.2267,83.14,79.3467,82.9733,78.56,82.64C77.7867,82.3067,77.1733,81.8267,76.72,81.2C76.2667,80.5733,76.0333,79.8333,76.02,78.98L79.02,78.98C79.06,79.5533,79.26,80.0067,79.62,80.34C79.9933,80.6733,80.5,80.84,81.14,80.84C81.7933,80.84,82.3067,80.6867,82.68,80.38C83.0533,80.06,83.24,79.6467,83.24,79.14C83.24,78.7267,83.1133,78.3867,82.86,78.12C82.6067,77.8533,82.2867,77.6467,81.9,77.5C81.5267,77.34,81.0067,77.1667,80.34,76.98C79.4333,76.7133,78.6933,76.4533,78.12,76.2C77.56,75.9333,77.0733,75.54,76.66,75.02C76.26,74.4867,76.06,73.78,76.06,72.9C76.06,72.0733,76.2667,71.3533,76.68,70.74C77.0933,70.1267,77.6733,69.66,78.42,69.34C79.1667,69.0067,80.02,68.84,80.98,68.84C82.42,68.84,83.5867,69.1933,84.48,69.9C85.3867,70.5933,85.8867,71.5667,85.98,72.82L82.9,72.82C82.8733,72.34,82.6667,71.9467,82.28,71.64C81.9067,71.32,81.4067,71.16,80.78,71.16C80.2333,71.16,79.7933,71.3,79.46,71.58C79.14,71.86,78.98,72.2667,78.98,72.8C78.98,73.1733,79.1,73.4867,79.34,73.74C79.5933,73.98,79.9,74.18,80.26,74.34C80.6333,74.4867,81.1533,74.66,81.82,74.86C82.7267,75.1267,83.4667,75.3933,84.04,75.66C84.6133,75.9267,85.1067,76.3267,85.52,76.86C85.9333,77.3933,86.14,78.0933,86.14,78.96C86.14,79.7067,85.9467,80.4,85.56,81.04C85.1733,81.68,84.6067,82.1933,83.86,82.58C83.1133,82.9533,82.2267,83.14,81.2,83.14ZM99.0275,71.92L99.0275,83L96.2075,83L96.2075,81.6C95.8475,82.08,95.3742,82.46,94.7875,82.74C94.2142,83.0067,93.5875,83.14,92.9075,83.14C92.0408,83.14,91.2742,82.96,90.6075,82.6C89.9408,82.2267,89.4142,81.6867,89.0275,80.98C88.6542,80.26,88.4675,79.4067,88.4675,78.42L88.4675,71.92L91.2675,71.92L91.2675,78.02C91.2675,78.9,91.4875,79.58,91.9275,80.06C92.3675,80.5267,92.9675,80.76,93.7275,80.76C94.5008,80.76,95.1075,80.5267,95.5475,80.06C95.9875,79.58,96.2075,78.9,96.2075,78.02L96.2075,71.92L99.0275,71.92ZM104.59,73.52C104.95,73.0133,105.443,72.5933,106.07,72.26C106.71,71.9133,107.437,71.74,108.25,71.74C109.197,71.74,110.05,71.9733,110.81,72.44C111.583,72.9067,112.19,73.5733,112.63,74.44C113.083,75.2933,113.31,76.2867,113.31,77.42C113.31,78.5533,113.083,79.56,112.63,80.44C112.19,81.3067,111.583,81.98,110.81,82.46C110.05,82.94,109.197,83.18,108.25,83.18C107.437,83.18,106.717,83.0133,106.09,82.68C105.477,82.3467,104.977,81.9267,104.59,81.42L104.59,88.28L101.79,88.28L101.79,71.92L104.59,71.92L104.59,73.52ZM110.45,77.42C110.45,76.7533,110.31,76.18,110.03,75.7C109.763,75.2067,109.403,74.8333,108.95,74.58C108.51,74.3267,108.03,74.2,107.51,74.2C107.003,74.2,106.523,74.3333,106.07,74.6C105.63,74.8533,105.27,75.2267,104.99,75.72C104.723,76.2133,104.59,76.7933,104.59,77.46C104.59,78.1267,104.723,78.7067,104.99,79.2C105.27,79.6933,105.63,80.0733,106.07,80.34C106.523,80.5933,107.003,80.72,107.51,80.72C108.03,80.72,108.51,80.5867,108.95,80.32C109.403,80.0533,109.763,79.6733,110.03,79.18C110.31,78.6867,110.45,78.1,110.45,77.42ZM118.145,73.52C118.505,73.0133,118.998,72.5933,119.625,72.26C120.265,71.9133,120.992,71.74,121.805,71.74C122.752,71.74,123.605,71.9733,124.365,72.44C125.138,72.9067,125.745,73.5733,126.185,74.44C126.638,75.2933,126.865,76.2867,126.865,77.42C126.865,78.5533,126.638,79.56,126.185,80.44C125.745,81.3067,125.138,81.98,124.365,82.46C123.605,82.94,122.752,83.18,121.805,83.18C120.992,83.18,120.272,83.0133,119.645,82.68C119.032,82.3467,118.532,81.9267,118.145,81.42L118.145,88.28L115.345,88.28L115.345,71.92L118.145,71.92L118.145,73.52ZM124.005,77.42C124.005,76.7533,123.865,76.18,123.585,75.7C123.318,75.2067,122.958,74.8333,122.505,74.58C122.065,74.3267,121.585,74.2,121.065,74.2C120.558,74.2,120.078,74.3333,119.625,74.6C119.185,74.8533,118.825,75.2267,118.545,75.72C118.278,76.2133,118.145,76.7933,118.145,77.46C118.145,78.1267,118.278,78.7067,118.545,79.2C118.825,79.6933,119.185,80.0733,119.625,80.34C120.078,80.5933,120.558,80.72,121.065,80.72C121.585,80.72,122.065,80.5867,122.505,80.32C122.958,80.0533,123.318,79.6733,123.585,79.18C123.865,78.6867,124.005,78.1,124.005,77.42ZM133.82,83.18C132.753,83.18,131.793,82.9467,130.94,82.48C130.086,82,129.413,81.3267,128.92,80.46C128.44,79.5933,128.2,78.5933,128.2,77.46C128.2,76.3267,128.446,75.3267,128.94,74.46C129.446,73.5933,130.133,72.9267,131,72.46C131.866,71.98,132.833,71.74,133.9,71.74C134.966,71.74,135.933,71.98,136.8,72.46C137.666,72.9267,138.346,73.5933,138.84,74.46C139.346,75.3267,139.6,76.3267,139.6,77.46C139.6,78.5933,139.34,79.5933,138.82,80.46C138.313,81.3267,137.62,82,136.74,82.48C135.873,82.9467,134.9,83.18,133.82,83.18ZM133.82,80.74C134.326,80.74,134.8,80.62,135.24,80.38C135.693,80.1267,136.053,79.7533,136.32,79.26C136.586,78.7667,136.72,78.1667,136.72,77.46C136.72,76.4067,136.44,75.6,135.88,75.04C135.333,74.4667,134.66,74.18,133.86,74.18C133.06,74.18,132.386,74.4667,131.84,75.04C131.306,75.6,131.04,76.4067,131.04,77.46C131.04,78.5133,131.3,79.3267,131.82,79.9C132.353,80.46,133.02,80.74,133.82,80.74ZM144.453,73.64C144.813,73.0533,145.28,72.5933,145.853,72.26C146.44,71.9267,147.107,71.76,147.853,71.76L147.853,74.7L147.113,74.7C146.233,74.7,145.567,74.9067,145.113,75.32C144.673,75.7333,144.453,76.4533,144.453,77.48L144.453,83L141.653,83L141.653,71.92L144.453,71.92L144.453,73.64ZM152.999,74.22L152.999,79.58C152.999,79.9533,153.086,80.2267,153.259,80.4C153.446,80.56,153.753,80.64,154.179,80.64L155.479,80.64L155.479,83L153.719,83C151.359,83,150.179,81.8533,150.179,79.56L150.179,74.22L148.859,74.22L148.859,71.92L150.179,71.92L150.179,69.18L152.999,69.18L152.999,71.92L155.479,71.92L155.479,74.22L152.999,74.22Z" fill="rgb(255,255,255)" stroke="none" stroke-width="1"></path><path id="elI2NKVf7Dd135" d="M339.589,17.25L354.411,17.25C355.659,17.25,356.111,17.38,356.568,17.624C357.024,17.868,357.382,18.2261,357.626,18.6824C357.87,19.1387,358,19.5913,358,20.8394L358,25.1606C358,26.4087,357.87,26.8613,357.626,27.3176C357.382,27.7739,357.024,28.132,356.568,28.376C356.111,28.62,355.659,28.75,354.411,28.75L339.589,28.75C338.341,28.75,337.889,28.62,337.432,28.376C336.976,28.132,336.618,27.7739,336.374,27.3176C336.13,26.8613,336,26.4087,336,25.1606L336,20.8394C336,19.5913,336.13,19.1387,336.374,18.6824C336.618,18.2261,336.976,17.868,337.432,17.624C337.889,17.38,338.341,17.25,339.589,17.25ZM339.589,18.25C338.602,18.25,338.258,18.3165,337.904,18.5058C337.622,18.6566,337.407,18.872,337.256,19.154C337.067,19.5079,337,19.8525,337,20.8394L337,25.1606C337,26.1475,337.067,26.4921,337.256,26.846C337.407,27.128,337.622,27.3434,337.904,27.4942C338.258,27.6835,338.602,27.75,339.589,27.75L354.411,27.75C355.398,27.75,355.742,27.6835,356.096,27.4942C356.378,27.3434,356.593,27.128,356.744,26.846C356.933,26.4921,357,26.1475,357,25.1606L357,20.8394C357,19.8525,356.933,19.5079,356.744,19.154C356.593,18.872,356.378,18.6566,356.096,18.5058C355.742,18.3165,355.398,18.25,354.411,18.25L339.589,18.25ZM360.5,22.94C360.5,24.1766,359,24.94,359,24.94L359,20.94C359,20.94,360.5,21.7034,360.5,22.94Z" opacity="0.36" clip-rule="evenodd" fill="rgb(255,255,255)" fill-rule="evenodd" stroke="none" stroke-width="1"></path><rect id="elI2NKVf7Dd136" width="18" height="7.66667" rx="1.6" ry="1.6" transform="matrix(1 0 0 1 338 19.1665)" fill="rgb(255,255,255)" stroke="none" stroke-width="1"></rect><path id="elI2NKVf7Dd137" d="M323.3,19.7666C325.535,19.7667,327.684,20.6252,329.303,22.1648C329.425,22.2836,329.62,22.2821,329.74,22.1614L330.906,20.985C330.967,20.9238,331,20.8408,331,20.7545C330.999,20.6682,330.965,20.5857,330.903,20.5252C326.653,16.4519,319.947,16.4519,315.697,20.5252C315.635,20.5857,315.601,20.6682,315.6,20.7545C315.599,20.8408,315.633,20.9237,315.694,20.985L316.86,22.1614C316.98,22.2823,317.175,22.2838,317.297,22.1648C318.917,20.6251,321.066,19.7666,323.3,19.7666ZM323.3,23.594C324.528,23.5939,325.712,24.0502,326.622,24.8742C326.745,24.9912,326.939,24.9887,327.059,24.8685L328.223,23.6921C328.285,23.6304,328.319,23.5467,328.318,23.4597C328.317,23.3727,328.281,23.2897,328.218,23.2293C325.447,20.6515,321.156,20.6515,318.385,23.2293C318.322,23.2897,318.286,23.3728,318.286,23.4598C318.285,23.5468,318.319,23.6305,318.38,23.6921L319.544,24.8685C319.664,24.9887,319.858,24.9912,319.981,24.8742C320.891,24.0507,322.074,23.5945,323.3,23.594ZM325.538,26.4016C325.6,26.3405,325.635,26.2564,325.633,26.1691C325.631,26.0819,325.593,25.9993,325.529,25.9407C324.242,24.8528,322.358,24.8528,321.072,25.9407C321.008,25.9992,320.97,26.0818,320.968,26.169C320.966,26.2563,321,26.3404,321.063,26.4016L323.077,28.4341C323.136,28.4938,323.216,28.5274,323.3,28.5274C323.384,28.5274,323.465,28.4938,323.524,28.4341L325.538,26.4016Z" clip-rule="evenodd" fill="rgb(255,255,255)" fill-rule="evenodd" stroke="none" stroke-width="1"></path><path id="elI2NKVf7Dd138" d="M307.623,18.6158C307.6,18.7317,307.6,18.8711,307.6,19.1499L307.6,26.8499C307.6,27.1287,307.6,27.2681,307.623,27.384C307.718,27.86,308.09,28.2322,308.566,28.3268C308.682,28.3499,308.821,28.3499,309.1,28.3499C309.379,28.3499,309.518,28.3499,309.634,28.3268C310.11,28.2322,310.482,27.86,310.577,27.384C310.6,27.2681,310.6,27.1287,310.6,26.8499L310.6,19.1499C310.6,18.8711,310.6,18.7317,310.577,18.6158C310.482,18.1398,310.11,17.7676,309.634,17.673C309.518,17.6499,309.379,17.6499,309.1,17.6499C308.821,17.6499,308.682,17.6499,308.566,17.673C308.09,17.7676,307.718,18.1398,307.623,18.6158ZM302.9,21.5499C302.9,21.2711,302.9,21.1317,302.923,21.0158C303.018,20.5398,303.39,20.1676,303.866,20.073C303.982,20.0499,304.121,20.0499,304.4,20.0499C304.679,20.0499,304.818,20.0499,304.934,20.073C305.41,20.1676,305.782,20.5398,305.877,21.0158C305.9,21.1317,305.9,21.2711,305.9,21.5499L305.9,26.8499C305.9,27.1287,305.9,27.2681,305.877,27.384C305.782,27.86,305.41,28.2322,304.934,28.3268C304.818,28.3499,304.679,28.3499,304.4,28.3499C304.121,28.3499,303.982,28.3499,303.866,28.3268C303.39,28.2322,303.018,27.86,302.923,27.384C302.9,27.2681,302.9,27.1287,302.9,26.8499L302.9,21.5499ZM298.323,23.3158C298.3,23.4317,298.3,23.5711,298.3,23.8499L298.3,26.8499C298.3,27.1287,298.3,27.2681,298.323,27.384C298.418,27.86,298.79,28.2322,299.266,28.3268C299.382,28.3499,299.521,28.3499,299.8,28.3499C300.079,28.3499,300.218,28.3499,300.334,28.3268C300.81,28.2322,301.182,27.86,301.277,27.384C301.3,27.2681,301.3,27.1287,301.3,26.8499L301.3,23.8499C301.3,23.5711,301.3,23.4317,301.277,23.3158C301.182,22.8398,300.81,22.4677,300.334,22.373C300.218,22.3499,300.079,22.3499,299.8,22.3499C299.521,22.3499,299.382,22.3499,299.266,22.373C298.79,22.4677,298.418,22.8398,298.323,23.3158ZM293.523,25.3158C293.5,25.4317,293.5,25.5711,293.5,25.8499L293.5,26.8499C293.5,27.1287,293.5,27.2681,293.523,27.384C293.618,27.86,293.99,28.2322,294.466,28.3268C294.582,28.3499,294.721,28.3499,295,28.3499C295.279,28.3499,295.418,28.3499,295.534,28.3268C296.01,28.2322,296.382,27.86,296.477,27.384C296.5,27.2681,296.5,27.1287,296.5,26.8499L296.5,25.8499C296.5,25.5711,296.5,25.4317,296.477,25.3158C296.382,24.8398,296.01,24.4677,295.534,24.373C295.418,24.3499,295.279,24.3499,295,24.3499C294.721,24.3499,294.582,24.3499,294.466,24.373C293.99,24.4677,293.618,24.8398,293.523,25.3158Z" clip-rule="evenodd" fill="rgb(255,255,255)" fill-rule="evenodd" stroke="none" stroke-width="1"></path><path id="elI2NKVf7Dd139" d="M33.5258,16.4502C31.2333,16.4502,29.6,18.0176,29.6,20.1636L29.6,20.1782C29.6,22.1851,31.0209,23.6646,33.0497,23.6646C34.4999,23.6646,35.4227,22.9248,35.8109,22.0898L35.9574,22.0898C35.9574,22.1704,35.9501,22.251,35.9501,22.3315C35.8695,24.353,35.1591,25.9937,33.4818,25.9937C32.5516,25.9937,31.8998,25.5103,31.6215,24.7705L31.5995,24.6973L29.7391,24.6973L29.7538,24.7778C30.0907,26.3965,31.5409,27.5464,33.4818,27.5464C36.1405,27.5464,37.7445,25.437,37.7445,21.8774L37.7445,21.8628C37.7445,18.0542,35.7816,16.4502,33.5258,16.4502ZM33.5184,22.2144C32.3173,22.2144,31.4457,21.3354,31.4457,20.1123L31.4457,20.0977C31.4457,18.9185,32.3759,17.9883,33.5404,17.9883C34.7123,17.9883,35.6278,18.9331,35.6278,20.1416L35.6278,20.1562C35.6278,21.3501,34.7123,22.2144,33.5184,22.2144Z" fill="rgb(255,255,255)" stroke="none" stroke-width="1"></path><path id="elI2NKVf7Dd140" d="M40.9047,20.4346C41.5785,20.4346,42.0693,19.9219,42.0693,19.2773C42.0693,18.6255,41.5785,18.1201,40.9047,18.1201C40.2382,18.1201,39.7402,18.6255,39.7402,19.2773C39.7402,19.9219,40.2382,20.4346,40.9047,20.4346ZM40.9047,25.8691C41.5785,25.8691,42.0693,25.3638,42.0693,24.7119C42.0693,24.0601,41.5785,23.5547,40.9047,23.5547C40.2382,23.5547,39.7402,24.0601,39.7402,24.7119C39.7402,25.3638,40.2382,25.8691,40.9047,25.8691Z" fill="rgb(255,255,255)" stroke="none" stroke-width="1"></path><path id="elI2NKVf7Dd141" d="M49.1919,27.2827L51.0009,27.2827L51.0009,25.2539L52.4218,25.2539L52.4218,23.6938L51.0009,23.6938L51.0009,16.7139L48.3276,16.7139C46.892,18.8965,45.3906,21.3281,44.021,23.7085L44.021,25.2539L49.1919,25.2539L49.1919,27.2827ZM45.7788,23.7378L45.7788,23.6279C46.8042,21.8335,48.0273,19.8779,49.1113,18.2227L49.2211,18.2227L49.2211,23.7378L45.7788,23.7378Z" fill="rgb(255,255,255)" stroke="none" stroke-width="1"></path><path id="elI2NKVf7Dd142" d="M56.6367,27.2827L58.5264,27.2827L58.5264,16.7139L56.644,16.7139L53.8828,18.6548L53.8828,20.4346L56.5122,18.5742L56.6367,18.5742L56.6367,27.2827Z" fill="rgb(255,255,255)" stroke="none" stroke-width="1"></path></g><clipPath id="elI2NKVf7Dd143"><rect id="elI2NKVf7Dd144" width="375" height="690" rx="20" ry="20" fill="rgb(255,255,255)" stroke="none" stroke-width="1"></rect></clipPath></g></svg>