<svg id="Layer_1" data-name="Layer 1" xmlns="http://www.w3.org/2000/svg" xmlns:xlink="http://www.w3.org/1999/xlink" viewBox="0 0 1915.71 1453.99"><defs><style>.cls-1{fill:#3f72fc;opacity:0.18;isolation:isolate;}.cls-2,.cls-5{fill:#fff;}.cls-3{opacity:0.5;}.cls-4{fill:#82b8e1;}.cls-5{fill-rule:evenodd;}.cls-6{fill:url(#linear-gradient);}.cls-7{fill:url(#linear-gradient-2);}.cls-8{fill:#002b6a;}.cls-9{fill:url(#linear-gradient-3);}.cls-10{fill:#a50212;}.cls-11{fill:url(#linear-gradient-4);}.cls-12{opacity:0.1;}.cls-13{fill:url(#linear-gradient-5);}.cls-14{fill:#b5eff7;}.cls-15{fill:url(#linear-gradient-6);}.cls-16{fill:#04579b;}.cls-17{fill:#dadada;}.cls-18{fill:url(#linear-gradient-7);}.cls-19{fill:url(#linear-gradient-8);}.cls-20{fill:url(#linear-gradient-9);}.cls-21{fill:url(#linear-gradient-10);}.cls-22{fill:url(#linear-gradient-11);}.cls-23{fill:url(#linear-gradient-12);}.cls-24{fill:url(#linear-gradient-13);}.cls-25{fill:url(#linear-gradient-14);}.cls-26{fill:url(#linear-gradient-15);}.cls-27{fill:#083d7c;}.cls-28{fill:#d1d3d4;}.cls-29{fill:url(#linear-gradient-16);}.cls-30{fill:url(#linear-gradient-17);}.cls-31{opacity:0.6;}</style><linearGradient id="linear-gradient" x1="534.07" y1="1046.13" x2="1883.92" y2="1046.13" gradientUnits="userSpaceOnUse"><stop offset="0" stop-color="#004dbd"/><stop offset="1" stop-color="#0076fd"/></linearGradient><linearGradient id="linear-gradient-2" x1="1427.64" y1="506.46" x2="1668.63" y2="506.46" xlink:href="#linear-gradient"/><linearGradient id="linear-gradient-3" x1="439.36" y1="1063.69" x2="529.72" y2="1063.69" xlink:href="#linear-gradient"/><linearGradient id="linear-gradient-4" x1="202.18" y1="980.66" x2="369.6" y2="980.66" xlink:href="#linear-gradient"/><linearGradient id="linear-gradient-5" x1="362.37" y1="1764.04" x2="394.32" y2="1749.21" gradientTransform="translate(405.02 -1118.65) rotate(13.76)" gradientUnits="userSpaceOnUse"><stop offset="0" stop-color="#fff"/><stop offset="1" stop-color="#94c7f2"/></linearGradient><linearGradient id="linear-gradient-6" x1="607.89" y1="1011.19" x2="630.43" y2="1011.19" xlink:href="#linear-gradient"/><linearGradient id="linear-gradient-7" x1="-3811.33" y1="-1186.37" x2="-3811.7" y2="-1214.47" gradientTransform="matrix(0.78, 0.62, 0.62, -0.78, 5424.89, 2150.95)" gradientUnits="userSpaceOnUse"><stop offset="0" stop-color="#f2f8fc"/><stop offset="1" stop-color="#94c7f2"/></linearGradient><linearGradient id="linear-gradient-8" x1="-3825.35" y1="-1098.56" x2="-3838.53" y2="-1088.42" gradientTransform="translate(4771.07 3228.37) rotate(23.21)" xlink:href="#linear-gradient-7"/><linearGradient id="linear-gradient-9" x1="-3708.78" y1="1522.76" x2="-3708.9" y2="1513.74" gradientTransform="translate(3210.13 4415.22) rotate(90.01)" xlink:href="#linear-gradient-7"/><linearGradient id="linear-gradient-10" x1="-3696.03" y1="1528.04" x2="-3696.15" y2="1519.02" gradientTransform="translate(3222.65 4414.41) rotate(89.98)" xlink:href="#linear-gradient-7"/><linearGradient id="linear-gradient-11" x1="-3701.87" y1="1525.53" x2="-3701.99" y2="1516.51" gradientTransform="matrix(0.72, 0.69, -0.69, 0.72, 5423.23, 2171.22)" xlink:href="#linear-gradient-7"/><linearGradient id="linear-gradient-12" x1="-3690.5" y1="1528.76" x2="-3690.59" y2="1521.72" gradientTransform="translate(3226.38 4414.5) rotate(89.99)" xlink:href="#linear-gradient-7"/><linearGradient id="linear-gradient-13" x1="986.38" y1="915.9" x2="1023.74" y2="898.55" gradientTransform="translate(64.71 -10.04) rotate(-13.85)" xlink:href="#linear-gradient-5"/><linearGradient id="linear-gradient-14" x1="1386.25" y1="967.32" x2="1513.05" y2="967.32" xlink:href="#linear-gradient"/><linearGradient id="linear-gradient-15" x1="4020.62" y1="1453.25" x2="4025.2" y2="1437.28" gradientTransform="matrix(-0.67, -0.75, -0.75, 0.67, 5031.32, 3045.25)" xlink:href="#linear-gradient-7"/><linearGradient id="linear-gradient-16" x1="4037.88" y1="1452.66" x2="4037.43" y2="1418.56" gradientTransform="matrix(-0.67, -0.75, -0.75, 0.67, 5031.32, 3045.25)" xlink:href="#linear-gradient-7"/><linearGradient id="linear-gradient-17" x1="993.87" y1="629.78" x2="1207.06" y2="629.78" gradientUnits="userSpaceOnUse"><stop offset="0" stop-color="#008eff"/><stop offset="1" stop-color="#0064fd"/></linearGradient></defs><path class="cls-1" d="M2084.51,1113.84c-30.49,57.58-85.61,102.33-100.85,165.31-6.89,27-4.92,55.61-8.36,83.64-12.3,97.9-85.12,178.58-172.69,224.85-3.93,2-7.37,3.93-11.31,5.9-57.57,28-119.57,43.31-182.52,52.66-38.4,5.9-77.24,9.34-116.13,12.29a4775.23,4775.23,0,0,1-482.16,13.77c-77.74-1.47-157-5.41-230.26-31-3.93-1.47-7.38-2.46-11.31-3.93-59.54-22.62-112.16-60.53-158.92-104.29l-2-2c-69.38-64.95-127.45-143.67-164.33-231.25a606.56,606.56,0,0,1-26.06-396.55c22.13-78.23,60.52-152,66.43-232.72,4.42-60.52-9.84-122-.5-182C503.25,369,614,281.4,731.06,251.89s240.58-12.78,360.16,3.94c58.56,8.35,127,31,184.49,12.78,70.85-21.64,130.88-49.21,207.64-49.21,31,0,63,3.44,92,15.73,34.92,15.25,62.5,42.82,90.53,68.39,78.72,70.37,168.25,127.45,248.94,196.33,80.69,68.4,153.51,152,183,253.87,14.76,49.71,18.2,101.83,19.67,153.51C2120,977.55,2117.49,1051.35,2084.51,1113.84Z" transform="translate(-278.28 -219.4)"/><polygon class="cls-2" points="112.93 1113.13 80.48 1113.13 116.57 1010.52 149.02 1010.52 112.93 1113.13"/><path class="cls-2" d="M356.12,1236c-17.17,0-37.05,133.16-37.05,150.34s19.88-88.15,37.05-88.15a31.1,31.1,0,1,0,0-62.19Zm0,45.14a14,14,0,1,1,14.05-14A14,14,0,0,1,356.12,1281.14Z" transform="translate(-278.28 -219.4)"/><path class="cls-2" d="M427.29,1270.34a31.1,31.1,0,1,0,31.1,31.09A31.09,31.09,0,0,0,427.29,1270.34Zm0,45.14a14,14,0,1,1,14-14A14,14,0,0,1,427.29,1315.48Z" transform="translate(-278.28 -219.4)"/><g class="cls-3"><path class="cls-2" d="M2194,687c-47.89,0-78.83,131.43-114.65,283.62-52.86,224.55-117.94,500.91-269.18,500.93a134.5,134.5,0,0,1-27.93-3c-63.72-13.42-109.31-71.63-139.39-178-26.46-93.57-38-211.43-49.09-325.42-17-174.05-33-338.44-100.28-384.93-19.54-13.51-42.19-16.52-69.21-9.22-132.59,35.84-165.17,273.58-196.68,503.5-29.5,215.32-57.38,418.7-168.5,418.7-118,0-134.16-212.7-149.82-418.4C894.59,882.15,880.73,700.2,787.15,700.2h-.43c-45.4.27-87.11,39.82-124,117.56-29.62,62.46-56.13,149.5-78.81,258.69-38.63,186-52.88,374.31-53,376.19a1.2,1.2,0,1,1-2.4-.18c.14-1.88,14.39-190.32,53.05-376.48,22.72-109.39,49.3-196.61,79-259.25,37.29-78.65,79.73-118.66,126.13-118.94h.46c95.83,0,109.75,183,124.5,376.8,15.58,204.6,31.69,416.17,147.42,416.17,109,0,136.75-202.37,166.11-416.62,15.54-113.38,31.61-230.63,60.47-324,32.74-105.89,77.86-165.26,138-181.51,27.37-7.39,51.33-4.18,71.22,9.56,68.18,47.13,84.27,212.07,101.31,386.69,11.11,113.88,22.6,231.64,49,325,29.81,105.41,74.81,163.07,137.57,176.28,169.15,35.64,238.5-259.22,294.26-496.12,36.06-153.19,67.2-285.48,117-285.48Z" transform="translate(-278.28 -219.4)"/><path class="cls-2" d="M278.28,1097.6c62.23,0,89.47-29.75,114.11,73.86,16.39,68.88,35,147,68.67,206,38.74,67.89,91.79,100.89,162.16,100.89,154.28,0,218.17-200.48,274.54-377.37,44-138.08,82-257.33,153.32-257.33,74.06,0,108.26,132.73,144.47,273.26,22.31,86.58,45.37,176.1,79.33,244.88,38.71,78.44,85.93,116.56,144.36,116.56,132.75,0,193.86-146.81,247.77-276.35,44-105.59,81.9-196.78,148.92-196.78,83.5,0,117.49,136,147.47,256,24.56,98.3,47.77,191.15,94.69,199.25a1.2,1.2,0,1,0,.41-2.37c-45.38-7.84-68.39-100-92.76-197.46-30.2-120.86-64.43-257.84-149.81-257.84-68.62,0-106.86,91.88-151.14,198.26-53.62,128.84-114.4,274.87-245.55,274.87-128.69,0-177.92-191.06-221.36-359.63-36.44-141.46-70.87-275.08-146.8-275.08-73.07,0-111.32,120-155.61,259C839.34,1276.38,775.74,1476,623.22,1476c-69.43,0-121.79-32.6-160.06-99.68-33.54-58.78-52.07-136.67-68.42-205.39-24.89-104.61-52.33-75.71-116.46-75.71Z" transform="translate(-278.28 -219.4)"/><path class="cls-2" d="M786.71,771h0a4.3,4.3,0,0,1-4.3-4.29V718.68a4.31,4.31,0,0,1,4.3-4.3h0a4.3,4.3,0,0,1,4.29,4.3v48.05A4.29,4.29,0,0,1,786.71,771Z" transform="translate(-278.28 -219.4)"/><path class="cls-2" d="M862,863.35h0a4.3,4.3,0,0,1-4.3-4.3V818.83a4.29,4.29,0,0,1,4.3-4.29h0a4.29,4.29,0,0,1,4.29,4.29v40.22A4.3,4.3,0,0,1,862,863.35Z" transform="translate(-278.28 -219.4)"/><path class="cls-2" d="M416.33,1235.86h0a4.3,4.3,0,0,1-4.3-4.3v-40.22a4.29,4.29,0,0,1,4.3-4.29h0a4.29,4.29,0,0,1,4.29,4.29v40.22A4.3,4.3,0,0,1,416.33,1235.86Z" transform="translate(-278.28 -219.4)"/><path class="cls-2" d="M329.52,1064.53h0c-2.37,0-10.25,117.31-10.25,114.94v-40.22c0-2.37,7.88-123.53,10.25-123.53h0a4.29,4.29,0,0,1,4.29,4.29v40.22A4.3,4.3,0,0,1,329.52,1064.53Z" transform="translate(-278.28 -219.4)"/><path class="cls-2" d="M956.33,912.61h0a4.3,4.3,0,0,1-4.29-4.3V868.09a4.29,4.29,0,0,1,4.29-4.29h0a4.29,4.29,0,0,1,4.3,4.29v40.22A4.3,4.3,0,0,1,956.33,912.61Z" transform="translate(-278.28 -219.4)"/><path class="cls-2" d="M1148.54,928.16h0a4.29,4.29,0,0,1-4.3-4.3V883.65a4.29,4.29,0,0,1,4.3-4.3h0a4.29,4.29,0,0,1,4.29,4.3v40.21A4.29,4.29,0,0,1,1148.54,928.16Z" transform="translate(-278.28 -219.4)"/><path class="cls-2" d="M1302.63,832.43h0a4.31,4.31,0,0,1-4.3-4.3V787.91a4.3,4.3,0,0,1,4.3-4.29h0a4.29,4.29,0,0,1,4.29,4.29v40.22A4.3,4.3,0,0,1,1302.63,832.43Z" transform="translate(-278.28 -219.4)"/><path class="cls-2" d="M1450.39,554.35h0a4.3,4.3,0,0,1-4.3-4.29V509.84a4.3,4.3,0,0,1,4.3-4.29h0a4.29,4.29,0,0,1,4.29,4.29v40.22A4.29,4.29,0,0,1,1450.39,554.35Z" transform="translate(-278.28 -219.4)"/><path class="cls-2" d="M1585.71,771.38h0a4.31,4.31,0,0,1-4.3-4.3V726.87a4.3,4.3,0,0,1,4.3-4.3h0a4.29,4.29,0,0,1,4.29,4.3v40.21A4.3,4.3,0,0,1,1585.71,771.38Z" transform="translate(-278.28 -219.4)"/><path class="cls-2" d="M1796.24,992.21h0a4.3,4.3,0,0,1-4.29-4.3V947.7a4.29,4.29,0,0,1,4.29-4.3h0a4.3,4.3,0,0,1,4.3,4.3v40.21A4.31,4.31,0,0,1,1796.24,992.21Z" transform="translate(-278.28 -219.4)"/><path class="cls-2" d="M1911.68,1162.77h0a4.3,4.3,0,0,1-4.3-4.3v-40.21a4.29,4.29,0,0,1,4.3-4.3h0a4.29,4.29,0,0,1,4.29,4.3v40.21A4.3,4.3,0,0,1,1911.68,1162.77Z" transform="translate(-278.28 -219.4)"/></g><g class="cls-3"><rect class="cls-2" x="318.88" y="966.97" width="154.12" height="246.06"/><rect class="cls-2" x="496.32" y="757.76" width="154.12" height="455.27"/><rect class="cls-2" x="673.76" y="881.73" width="154.12" height="331.29"/><rect class="cls-2" x="851.2" y="966.97" width="154.12" height="246.06"/><rect class="cls-2" x="1560.64" y="966.97" width="154.12" height="246.06"/><rect class="cls-2" x="1028.65" y="771.09" width="154.12" height="441.94"/><rect class="cls-2" x="1206.09" y="877.83" width="154.12" height="335.19"/><rect class="cls-2" x="1383.53" y="693.99" width="154.12" height="519.04"/></g><circle class="cls-4" cx="1529.75" cy="1358.17" r="79.03" transform="translate(-790.6 1260.1) rotate(-45)"/><path class="cls-2" d="M1595.43,1353.78a65.82,65.82,0,0,0-61.29-61.29v-.15h-8.78v.15a65.81,65.81,0,0,0-61.29,61.29h-.15v8.78h.15a65.81,65.81,0,0,0,61.29,61.29v.16h8.78v-.16a65.81,65.81,0,0,0,61.29-61.29h.15v-8.78Zm-90.3-47.09a69.5,69.5,0,0,0-10.32,20.76h-13.15A57.33,57.33,0,0,1,1505.13,1306.69Zm-28.07,29.54h15.43a104.12,104.12,0,0,0-2.15,17.55h-17.48A56.73,56.73,0,0,1,1477.06,1336.23Zm-4.2,26.33h17.48a104.24,104.24,0,0,0,2.15,17.56h-15.43A56.79,56.79,0,0,1,1472.86,1362.56Zm8.8,26.33h13.13a69.82,69.82,0,0,0,10.34,20.77A57.28,57.28,0,0,1,1481.66,1388.89Zm43.7,25.78c-9-2.42-16.79-12.11-21.51-25.78h21.51Zm0-34.55h-24a98.44,98.44,0,0,1-2.28-17.56h26.25Zm0-26.34h-26.25a98.33,98.33,0,0,1,2.28-17.55h24Zm0-26.33h-21.51c4.72-13.66,12.49-23.36,21.51-25.77Zm52.48,0h-13.13a69.53,69.53,0,0,0-10.34-20.76A57.33,57.33,0,0,1,1577.84,1327.45Zm-43.7-25.77c9,2.41,16.79,12.11,21.51,25.77h-21.51Zm0,34.55h24a100.19,100.19,0,0,1,2.28,17.55h-26.25Zm0,26.33h26.25a98.44,98.44,0,0,1-2.28,17.56h-24Zm0,52.11v-25.78h21.51C1550.93,1402.56,1543.16,1412.25,1534.14,1414.67Zm20.23-5a70.06,70.06,0,0,0,10.34-20.77h13.13A57.28,57.28,0,0,1,1554.37,1409.66Zm28.06-29.54H1567a104.22,104.22,0,0,0,2.16-17.56h17.47A56.51,56.51,0,0,1,1582.43,1380.12Zm-13.27-26.34a104.1,104.1,0,0,0-2.16-17.55h15.43a56.45,56.45,0,0,1,4.2,17.55Z" transform="translate(-278.28 -219.4)"/><circle class="cls-4" cx="1921.39" cy="1358.17" r="79.03" transform="translate(-5.3 2817.8) rotate(-80.78)"/><path class="cls-2" d="M1964.8,1325.27a9.64,9.64,0,0,0-7.41,15.82L1945,1365.63a8.46,8.46,0,0,0-.87-.05,9.61,9.61,0,0,0-5.3,1.59L1918.61,1353c0-.16,0-.31,0-.47a9.65,9.65,0,0,0-19.3,0,9.35,9.35,0,0,0,.4,2.71l-17.82,17.43a9.64,9.64,0,1,0,5.71,8.8,9.5,9.5,0,0,0-.76-3.74l17.26-16.88a9.57,9.57,0,0,0,11.47-1.31l19.17,13.47a9.39,9.39,0,0,0-.28,2.26,9.65,9.65,0,1,0,16.85-6.41l12.28-24.34a9.39,9.39,0,0,0,1.19.08,9.65,9.65,0,1,0,0-19.29Z" transform="translate(-278.28 -219.4)"/><circle class="cls-4" cx="1138.11" cy="1358.17" r="79.03" transform="translate(-905.31 983.17) rotate(-45)"/><circle class="cls-2" cx="1136.84" cy="1383.06" r="11.7" transform="translate(-747.54 1954.68) rotate(-76.8)"/><path class="cls-2" d="M1137,1365.51a23.33,23.33,0,0,1,16.31,6.63,5.22,5.22,0,0,0,6.67.68l.72-.51a5.15,5.15,0,0,0,.61-7.89,34.46,34.46,0,0,0-47.06-1.45,5.13,5.13,0,0,0,.16,7.86l.61.5a5.13,5.13,0,0,0,6.55,0A23.3,23.3,0,0,1,1137,1365.51Z" transform="translate(-278.28 -219.4)"/><path class="cls-2" d="M1136.84,1349.86a38.61,38.61,0,0,1,28.61,12.68,5.51,5.51,0,0,0,7.25.85l.09-.07a5.48,5.48,0,0,0,1-8.12,49.72,49.72,0,0,0-71.75-2.26,5.47,5.47,0,0,0,.51,8.13l.09.08a5.52,5.52,0,0,0,7.32-.41A38.61,38.61,0,0,1,1136.84,1349.86Z" transform="translate(-278.28 -219.4)"/><path class="cls-2" d="M1136.84,1332.71a54.37,54.37,0,0,1,41.5,19.26,5.46,5.46,0,0,0,7.3.92l.09-.07a5.5,5.5,0,0,0,1-8.06,65.41,65.41,0,0,0-97.12-3.07,5.49,5.49,0,0,0,.56,8.08l.09.07a5.47,5.47,0,0,0,7.37-.47A54.33,54.33,0,0,1,1136.84,1332.71Z" transform="translate(-278.28 -219.4)"/><circle class="cls-4" cx="1725.57" cy="1358.17" r="79.03" transform="translate(-733.24 1398.57) rotate(-45)"/><path class="cls-2" d="M1740.42,1390.18a12,12,0,0,1-3.75,8.86,15,15,0,0,1-9.56,4.2v7.88H1724v-7.76a15.15,15.15,0,0,1-9.55-4.29,12.05,12.05,0,0,1-3.76-8.89v-13.94h10.35v19.62q0,5.17,4.54,5.17c3,0,4.48-1.72,4.48-5.17v-15.08a20.58,20.58,0,0,0-3.09-11.29l-12.93-20.11a21.12,21.12,0,0,1-3.35-11.61V1326.1a12,12,0,0,1,3.76-8.83,14.93,14.93,0,0,1,9.55-4.22v-7.82h3.09v7.82a15,15,0,0,1,9.56,4.22,12,12,0,0,1,3.75,8.83V1340h-10.34v-19.61c0-3.45-1.5-5.17-4.48-5.17s-4.54,1.72-4.54,5.17v14.5a20.47,20.47,0,0,0,3.09,11.23l12.93,20.12a21.29,21.29,0,0,1,3.34,11.66Z" transform="translate(-278.28 -219.4)"/><circle class="cls-4" cx="942.3" cy="1358.17" r="79.03" transform="translate(-826.44 1853.68) rotate(-80.87)"/><path class="cls-2" d="M989.69,1354.24l6-2.42c-.92-4.6-.72-3.6-1.63-8.19l-6.44,0-3-7.27,4.58-4.52c-2.6-3.9-2-3.05-4.64-6.94l-5.92,2.5-5.57-5.57,2.5-5.92-6.94-4.64-4.52,4.58-7.27-3,0-6.44-8.19-1.63-2.42,6h-7.87l-2.42-6-8.19,1.63,0,6.44-7.28,3-4.52-4.58-6.94,4.64,2.5,5.92-5.57,5.57-5.92-2.5c-2.61,3.89-2,3-4.64,6.94l4.58,4.52-3,7.27-6.44,0c-.91,4.59-.71,3.59-1.63,8.19l6,2.42v7.87l-6,2.42c.92,4.6.72,3.6,1.63,8.19l6.44,0c1.46,3.53,1.55,3.76,3,7.28l-4.58,4.52,4.64,6.94,5.92-2.5,5.57,5.56-2.5,5.93L916,1405l4.52-4.58,7.28,3,0,6.44,8.19,1.63,2.42-6h7.87l2.42,6,8.19-1.63,0-6.44,7.27-3,4.52,4.58,6.94-4.64-2.5-5.93,5.57-5.56,5.92,2.5,4.64-6.94-4.58-4.52c1.46-3.52,1.55-3.75,3-7.28l6.44,0c.91-4.59.71-3.59,1.63-8.19l-6-2.42Zm-18.9-25.4a2,2,0,1,1-2,2A2,2,0,0,1,970.79,1328.84Zm-50.72,3.61a31.83,31.83,0,0,1,45,0l.23.23-.23.22a31.83,31.83,0,0,1-45,0l-.23-.22Zm27.44,25.72a5.22,5.22,0,1,1-5.21-5.21A5.22,5.22,0,0,1,947.51,1358.17Zm-33.07-30.92a2,2,0,1,1-2,2A2,2,0,0,1,914.44,1327.25Zm-1.59,60.41a2,2,0,1,1,2-2A2,2,0,0,1,912.85,1387.66Zm3.95-7-.23-.22a31.85,31.85,0,0,1,0-45l.23-.23.22.23a31.83,31.83,0,0,1,0,45Zm47.72,3.28a31.85,31.85,0,0,1-45,0l-.22-.23.22-.23a31.85,31.85,0,0,1,45,0l.23.23Zm4.68,5.35a2,2,0,1,1,2-2A2,2,0,0,1,969.2,1389.25ZM968,1381l-.23.22-.22-.22a31.83,31.83,0,0,1,0-45l.22-.23.23.23A31.85,31.85,0,0,1,968,1381Z" transform="translate(-278.28 -219.4)"/><circle class="cls-4" cx="550.66" cy="1358.17" r="79.03" transform="translate(-1077.37 567.78) rotate(-45)"/><path class="cls-5" d="M550.66,1318.53a25.56,25.56,0,0,0-25.59,25.56c0,14.15,23.91,52.57,23.91,52.57.91,1.55,2.41,1.55,3.33,0,0,0,23.94-38.46,23.94-52.57a25.58,25.58,0,0,0-25.59-25.56Zm0,13.12a9,9,0,1,1-8.95,9,9,9,0,0,1,8.95-9Z" transform="translate(-278.28 -219.4)"/><circle class="cls-4" cx="746.48" cy="1358.17" r="79.03" transform="translate(-992.01 1658.06) rotate(-80.78)"/><path class="cls-5" d="M733.06,1385.08a8.05,8.05,0,1,0,8.07,8,8.06,8.06,0,0,0-8.07-8Zm53.73-69.91H773.37a2.7,2.7,0,0,0-2.65,2.22l-1.57,8.55h-63a2.69,2.69,0,0,0-2.48,3.73l13.46,32.23a2.66,2.66,0,0,0,2.48,1.66h42.7l-2,10.73H725a2.7,2.7,0,0,0,0,5.4h37.61a2.67,2.67,0,0,0,2.65-2.23l10.34-56.9h11.21a2.67,2.67,0,0,0,2.69-2.7,2.7,2.7,0,0,0-2.69-2.69Zm-32.23,69.91a8.05,8.05,0,1,0,8,8,8,8,0,0,0-8-8Z" transform="translate(-278.28 -219.4)"/><circle class="cls-4" cx="1333.93" cy="1358.17" r="79.03" transform="translate(-493.33 2245.42) rotate(-81.06)"/><path class="cls-5" d="M1332.31,1371.33l-9.43-8.23a2.42,2.42,0,0,0-3.17,0l-34.42,29.5a7.33,7.33,0,0,0,5.06,2h87.18a7.28,7.28,0,0,0,5-2l-34.41-29.5a2.42,2.42,0,0,0-3.17,0l-9.43,8.23A2.42,2.42,0,0,1,1332.31,1371.33ZM1283,1333.55v49.83a2.43,2.43,0,0,0,4,1.85l29-24.62a2.42,2.42,0,0,0,0-3.67l-29-25.22A2.43,2.43,0,0,0,1283,1333.55Zm101.82,49.83v-49.87a2.43,2.43,0,0,0-4-1.83l-29,25.26a2.42,2.42,0,0,0,0,3.67l29,24.62A2.42,2.42,0,0,0,1384.84,1383.38Z" transform="translate(-278.28 -219.4)"/><path class="cls-2" d="M1289.41,1327.28l42.47,36.45a3.1,3.1,0,0,0,4,0l42.52-36.45a3.12,3.12,0,0,0-2-5.48h-85A3.11,3.11,0,0,0,1289.41,1327.28Z" transform="translate(-278.28 -219.4)"/><path class="cls-6" d="M1305,1408.67a94.59,94.59,0,0,1-10.87-.63,93.37,93.37,0,0,1-72.53-50.39L1085,1090.06,910.94,1364.41a93.55,93.55,0,0,1-156.69,2L534.07,1038.08,654.24,957.5l176.52,263.23,180.06-283.8a93.56,93.56,0,0,1,162.32,7.58l142.45,279,458-539.93,110.33,93.59-507.64,598.45A93.32,93.32,0,0,1,1305,1408.67Z" transform="translate(-278.28 -219.4)"/><polygon class="cls-7" points="1427.64 429.12 1653.06 620.33 1668.63 392.6 1427.64 429.12"/><rect class="cls-2" x="219.91" y="1171.59" width="7.9" height="22"/><circle class="cls-8" cx="216.28" cy="1198.93" r="14.1"/><rect class="cls-2" x="393.26" y="1171.59" width="7.9" height="22"/><circle class="cls-8" cx="404.79" cy="1198.93" r="14.1"/><rect class="cls-2" x="306.87" y="1171.59" width="7.9" height="22"/><rect class="cls-8" x="303.91" y="1184.83" width="13.81" height="28.19" rx="3.52"/><rect class="cls-2" x="296.15" y="1096.13" width="29.05" height="75.18"/><rect class="cls-8" x="292.45" y="980.66" width="36.45" height="122.59"/><rect class="cls-8" x="292.45" y="1156.21" width="36.45" height="20.5"/><rect class="cls-8" x="213.57" y="1166.47" width="194.49" height="10.25" rx="5.07"/><polygon class="cls-4" points="345.39 1005.85 223.09 1005.85 187.07 682.75 300.69 682.75 345.39 1005.85"/><rect class="cls-4" x="202.18" y="955.46" width="299.85" height="50.4" rx="24.95"/><path class="cls-9" d="M529.46,1196.6l-40-273.12a25,25,0,0,0-28.39-21.06l-.5.08a24.94,24.94,0,0,0-21,28.28l39.95,273.12A25,25,0,0,0,508,1225l.5-.07A25,25,0,0,0,529.46,1196.6Z" transform="translate(-278.28 -219.4)"/><path class="cls-10" d="M643.93,1196.6,604,923.48a24.94,24.94,0,0,0-28.39-21.06l-.49.08a25,25,0,0,0-21,28.28l40,273.12A25,25,0,0,0,622.45,1225l.5-.07A25,25,0,0,0,643.93,1196.6Z" transform="translate(-278.28 -219.4)"/><rect class="cls-11" x="202.18" y="955.46" width="167.42" height="50.4" rx="24.95"/><path class="cls-2" d="M808.15,1024.36l32-2.25a7.32,7.32,0,0,1,7.77,6.42l2.05,16.81a3,3,0,0,1-3.08,3.41h-.06a3.06,3.06,0,0,1-2.95-2.56l-1.6-9.81-16.15.32,7.11,3.45a2.6,2.6,0,0,1,1.35,3.11l0,0a2.59,2.59,0,0,1-3.6,1.57l-9-4.33-7.45-.86a8.43,8.43,0,0,1-6.64-4.69l0,0-21.11.23,1.51-11.22Z" transform="translate(-278.28 -219.4)"/><path class="cls-8" d="M630.69,911h0a12.83,12.83,0,0,1,17.36,5.82l48.52,99.75,105.93,5.33a7.68,7.68,0,0,1,7.28,8.29h0a7.69,7.69,0,0,1-7.7,7.09l-112.59-.39a11.46,11.46,0,0,1-10.12-6.12l-54.2-102.33A12.83,12.83,0,0,1,630.69,911Z" transform="translate(-278.28 -219.4)"/><path class="cls-12" d="M662.05,945.57c-5.94,6.79-8.75,20.69-10.07,33.47l-26.82-50.63A12.83,12.83,0,1,1,648,916.79Z" transform="translate(-278.28 -219.4)"/><path class="cls-8" d="M711,1418.59v13.83h9v-6.92l6.09,6.92h22a5.36,5.36,0,0,0-5.36-5.36h-9l-2.94-8.47Z" transform="translate(-278.28 -219.4)"/><path class="cls-8" d="M668.81,1149.61h0a25.24,25.24,0,0,1,25.24-25.24h58.23a30.38,30.38,0,0,1,29.8,36.31l-51.32,257.91H711s-7.7-220.38,21.23-243.74H694.05A25.24,25.24,0,0,1,668.81,1149.61Z" transform="translate(-278.28 -219.4)"/><path class="cls-12" d="M782.08,1160.69l-.12.62c-25.82,29.24-55.84,92.52-70.53,125.43,2.26-51.79,7.89-101.47,20.8-111.89H694.06a25.24,25.24,0,1,1,0-50.47h58.22A30.38,30.38,0,0,1,782.08,1160.69Z" transform="translate(-278.28 -219.4)"/><path class="cls-8" d="M672.57,1418.59v13.83h9v-6.92l6.09,6.92h22a5.36,5.36,0,0,0-5.36-5.36h-9l-2.94-8.47Z" transform="translate(-278.28 -219.4)"/><path class="cls-8" d="M630.39,1149.61h0a25.24,25.24,0,0,1,25.24-25.24h58.23a30.38,30.38,0,0,1,29.8,36.31l-51.32,257.91H672.57s-7.7-220.38,21.23-243.74H655.63A25.24,25.24,0,0,1,630.39,1149.61Z" transform="translate(-278.28 -219.4)"/><path class="cls-8" d="M547.67,907.54,597.3,901l38.58,6.47a16.78,16.78,0,0,1,13.87,14.37h0a527.2,527.2,0,0,1-8.27,183.9l-4.67,20.83H518.36s-3.3-57.22,15-74.94l-.3-127.36A16.79,16.79,0,0,1,547.67,907.54Z" transform="translate(-278.28 -219.4)"/><path class="cls-2" d="M535.2,1110.31l18.2-200.46,35.48-6.1H627.8s24.6,36.64,15.3,79.38-18.83,86.58-12.82,127.18Z" transform="translate(-278.28 -219.4)"/><path class="cls-8" d="M613.45,841h0a26.94,26.94,0,0,1,25.93-10.51L661.24,834a10.42,10.42,0,0,1,6.88,16.23L665,854.8Z" transform="translate(-278.28 -219.4)"/><path class="cls-8" d="M620.07,840s-6.1-4.57-13.44,5,2.63,39.8-4.87,49.37c0,0,29.75-1,38.11-9.33s19.14-29.8,1.73-35.93S620.07,840,620.07,840Z" transform="translate(-278.28 -219.4)"/><polygon class="cls-13" points="377.77 687.91 358.77 685.85 337.97 710.03 308.75 685.35 348.54 649.57 377.77 687.91"/><path class="cls-2" d="M664.34,850.76s3.65,10.87,2.81,13.09-2.38,3.77-2.28,4.85c.08.86,4,10.92,5.6,15a2,2,0,0,1-1.28,2.73,15.31,15.31,0,0,1-3.17.46c-2.79.2-2.84,5.69-2.84,5.69l-1.45,11.88a3.6,3.6,0,0,1-4.22,3.12c-8.65-1.55-29.38-5.88-31.06-12.13-2.13-7.92,2.78-22.71,2.78-22.71L624.61,869a3.77,3.77,0,0,1-.41-5.45l0-.06a3.77,3.77,0,0,1,5.09-.45l5.12,3.94-1,8.28a3.22,3.22,0,0,0,2.81,3.6h0a3.21,3.21,0,0,0,3.46-2.27L642,857.19l-5.37-9.81Z" transform="translate(-278.28 -219.4)"/><path class="cls-2" d="M663.69,887.6l1.12,3.91a.74.74,0,0,1-.3.8l-1,.66s1.37,2.17-.24,3.26-3,2.17-3,2.17Z" transform="translate(-278.28 -219.4)"/><path class="cls-8" d="M662.56,866s-6.22-.73-9.07,1.4c0,0,4.24,2.53,6.33,2.87S662.56,866,662.56,866Z" transform="translate(-278.28 -219.4)"/><path class="cls-14" d="M590.71,901s19.12,18.54,31.22,18.62c0,0-.61,13.17-14.63,13.63l-19.25-29.46Z" transform="translate(-278.28 -219.4)"/><path class="cls-14" d="M628.31,914.21l-2.26,4.35s5,2.43,4.61,10C630.66,928.55,635.78,916.3,628.31,914.21Z" transform="translate(-278.28 -219.4)"/><path class="cls-15" d="M626.89,931.23a3.57,3.57,0,0,0,1.12-.76c2.72-2.84.57-11.13-4-10.33,0,0-1.25,8.4-7.49,11a31.58,31.58,0,0,0,3.15.56L607.89,1091l13.64,11.27,8.9-12.45Z" transform="translate(-278.28 -219.4)"/><path class="cls-8" d="M588.05,903.75h0a457.29,457.29,0,0,1-1.72,170.82l-10.43,52H524.43l24.18-217.71Z" transform="translate(-278.28 -219.4)"/><path class="cls-16" d="M587,1060.52,572.85,945.45l14.35-2-14-6.63,11.56-33.23v0l.92,5.11A450.81,450.81,0,0,1,587,1060.52Z" transform="translate(-278.28 -219.4)"/><path class="cls-8" d="M535.2,1110.31l-1.91,26.47a35.52,35.52,0,0,0,35.43,38.07H694.18a25.24,25.24,0,0,0,25.24-25.24h0a25.24,25.24,0,0,0-25.24-25.24H630.43v-14.06Z" transform="translate(-278.28 -219.4)"/><path class="cls-12" d="M594.15,997.79a456.37,456.37,0,0,1-3.16,48.85h-.6a14.25,14.25,0,0,1-12.86-9.07l-29.17-75.27-4.67-15.12-7.18-23.33,8.83,8.24,30.85,28.79Z" transform="translate(-278.28 -219.4)"/><path class="cls-2" d="M719.05,1027.23l32-2.24a7.3,7.3,0,0,1,7.77,6.41l2.05,16.81a3,3,0,0,1-3.08,3.41h-.06a3.05,3.05,0,0,1-3-2.55l-1.6-9.82-16.15.32,7.12,3.45a2.61,2.61,0,0,1,1.34,3.11v0a2.6,2.6,0,0,1-3.61,1.57l-9-4.33-7.45-.85a8.46,8.46,0,0,1-6.64-4.7l0,0-21.11.23,1.52-11.22Z" transform="translate(-278.28 -219.4)"/><path class="cls-8" d="M541.59,913.84h0A12.84,12.84,0,0,1,559,919.66l48.53,99.76,105.92,5.32a7.7,7.7,0,0,1,7.29,8.29h0a7.69,7.69,0,0,1-7.7,7.09l-112.6-.39a11.48,11.48,0,0,1-10.12-6.11l-54.2-102.33A12.83,12.83,0,0,1,541.59,913.84Z" transform="translate(-278.28 -219.4)"/><rect class="cls-17" x="356.54" y="845.43" width="30.66" height="45.62"/><path class="cls-2" d="M711,1432.43a7.07,7.07,0,0,1-7.06-7.06V1127A8.92,8.92,0,0,0,695,1118H591.72a8.92,8.92,0,0,0-8.91,8.91v298.42a7.06,7.06,0,1,1-14.12,0V1127a23.05,23.05,0,0,1,23-23H695a23,23,0,0,1,23,23v298.42A7.06,7.06,0,0,1,711,1432.43Z" transform="translate(-278.28 -219.4)"/><rect class="cls-2" x="349.76" y="845.43" width="30.66" height="45.62"/><rect class="cls-17" x="606.16" y="845.43" width="30.66" height="45.62"/><path class="cls-2" d="M960.62,1432.43a7.06,7.06,0,0,1-7.06-7.06V1127a8.92,8.92,0,0,0-8.91-8.91H841.34a8.92,8.92,0,0,0-8.9,8.91v298.42a7.06,7.06,0,0,1-14.12,0V1127a23.05,23.05,0,0,1,23-23H944.65a23.05,23.05,0,0,1,23,23v298.42A7.06,7.06,0,0,1,960.62,1432.43Z" transform="translate(-278.28 -219.4)"/><rect class="cls-2" x="599.39" y="845.43" width="30.66" height="45.62"/><path class="cls-2" d="M978.58,1075.49H572c-4.31,0-7.8-3.85-7.8-8.6v-.17c0-4.75,3.49-8.6,7.8-8.6H978.58c4.31,0,7.8,3.85,7.8,8.6v.17C986.38,1071.64,982.89,1075.49,978.58,1075.49Z" transform="translate(-278.28 -219.4)"/><path class="cls-17" d="M724.24,1075.49H572c-4.31,0-7.8-3.85-7.8-8.6v-.17c0-4.75,3.49-8.6,7.8-8.6H724.24c4.31,0,7.8,3.85,7.8,8.6v.17C732,1071.64,728.55,1075.49,724.24,1075.49Z" transform="translate(-278.28 -219.4)"/><rect class="cls-2" x="417.45" y="827.54" width="189.26" height="11.16" rx="5.52"/><rect class="cls-17" x="417.45" y="827.54" width="98.04" height="11.16" rx="5.52"/><path class="cls-17" d="M905.44,966.75H819.38a2.46,2.46,0,0,0-2.34,1.72l-25.66,80.89a2.47,2.47,0,0,0,2.35,3.21h86a2.46,2.46,0,0,0,2.35-1.72L907.79,970A2.47,2.47,0,0,0,905.44,966.75Z" transform="translate(-278.28 -219.4)"/><path class="cls-2" d="M908.85,966.75H822.79a2.46,2.46,0,0,0-2.34,1.72l-25.66,80.89a2.47,2.47,0,0,0,2.35,3.21H883.2a2.46,2.46,0,0,0,2.34-1.72L911.2,970A2.47,2.47,0,0,0,908.85,966.75Z" transform="translate(-278.28 -219.4)"/><path class="cls-17" d="M870.13,1015.73c-2.19,6-7.6,9.48-12.08,7.84s-6.33-7.83-4.13-13.8,7.61-9.49,12.08-7.85S872.33,1009.75,870.13,1015.73Z" transform="translate(-278.28 -219.4)"/><path class="cls-8" d="M1682.71,731.27h0a10.42,10.42,0,0,0-14.73.58L1518.11,894.08a10.42,10.42,0,0,0,.58,14.73h0a10.42,10.42,0,0,0,14.73-.58L1683.3,746A10.43,10.43,0,0,0,1682.71,731.27Z" transform="translate(-278.28 -219.4)"/><path class="cls-18" d="M1695.77,734.41l-10.64,2.48-3.2,3.92a5.87,5.87,0,0,1-8.2.88h0a5.87,5.87,0,0,1-.88-8.29l3.13-3.83-4.18-13,22.14-16.38a3.69,3.69,0,0,1,5.06.66l0,.05a3.68,3.68,0,0,1-.45,5.07l-.87.76,2,0a2.93,2.93,0,0,1,2.79,1.8v0a2.94,2.94,0,0,1-.9,3.45l-.79.62.87-.19a2.86,2.86,0,0,1,3.28,1.8v0a2.84,2.84,0,0,1-.57,2.91l-1.62,1.77.43-.1a2.51,2.51,0,0,1,2.72,1.22v0a2.49,2.49,0,0,1-.29,2.85Z" transform="translate(-278.28 -219.4)"/><path class="cls-19" d="M1676,729.57l-4.18-13,10-18.36a2.92,2.92,0,0,1,3.72-1.28l0,0a2.91,2.91,0,0,1,1.52,3.85l-4.07,9.37a11.87,11.87,0,0,1,.61,12.71C1679.79,729.81,1676,729.57,1676,729.57Z" transform="translate(-278.28 -219.4)"/><rect class="cls-20" x="1685.76" y="702.37" width="15.3" height="7.43" rx="3.68" transform="translate(-265.11 1223.55) rotate(-46.31)"/><rect class="cls-21" x="1691.33" y="715.8" width="15.3" height="5.81" rx="2.88" transform="translate(-272.85 1230.72) rotate(-46.29)"/><path class="cls-22" d="M1691.23,718.42l0,0a3.23,3.23,0,0,1-.1-4.57l6.1-6.38a3.23,3.23,0,0,1,4.57-.11l0,.05a3.24,3.24,0,0,1,.1,4.57l-6.1,6.38A3.24,3.24,0,0,1,1691.23,718.42Z" transform="translate(-278.28 -219.4)"/><rect class="cls-23" x="1695.65" y="721.73" width="11.94" height="4.5" rx="2.23" transform="translate(-275.66 1234.67) rotate(-46.3)"/><path class="cls-8" d="M1464.16,833.14l45.95,28.74L1529.79,885a22.77,22.77,0,0,1,2,26.78h0A596.16,596.16,0,0,1,1397.18,1063l-13.39,10.67-96.32-77.49s34.75-48.68,61.25-51.11l85.6-106.88A22.75,22.75,0,0,1,1464.16,833.14Z" transform="translate(-278.28 -219.4)"/><path class="cls-8" d="M1124.08,1353.73l-9,11.25,7.36,5.91,4.52-5.62.43,9.61,17.86,14.37h0a5.57,5.57,0,0,0-.85-7.85l-7.35-5.92,3.15-8.82Z" transform="translate(-278.28 -219.4)"/><path class="cls-8" d="M1391.84,1052.8l-103.4,146.55-148.29,167.31-16.07-12.93s82.11-173.3,127.65-178.07l77.55-173.08Z" transform="translate(-278.28 -219.4)"/><path class="cls-12" d="M1337.21,1130.23c-28.33,4.12-63.65,17.53-75,22l67.07-149.7,62.57,50.22Z" transform="translate(-278.28 -219.4)"/><path class="cls-2" d="M1314.53,990.6l145.94-151.1,32.84,18.25L1525,883.22s-4,45.88-39.49,74.54-72,58.09-93.63,95Z" transform="translate(-278.28 -219.4)"/><path class="cls-8" d="M1314.53,990.6l171.63,84.84a25.83,25.83,0,0,1,5.67,42.49L1309.91,1279l-16.08-12.93s94.32-153.83,153.66-162.65l-131.9-43.72c-32.91-10.91-33.62-57.21-1.06-69.12Z" transform="translate(-278.28 -219.4)"/><path class="cls-8" d="M1536.62,803.73l11.78-8.88s12.29-13-3.37-20.59c0,0,1.72,9.67-11.72,15.1s-34.51,1.39-34.82,14.77S1528.84,815.08,1536.62,803.73Z" transform="translate(-278.28 -219.4)"/><path class="cls-8" d="M1502.27,806.34s-7.85-1.28-10,11.14,21.68,35.53,19.37,48c0,0,27-15.34,30.73-27.06s3.29-36.82-15.77-34.07S1502.27,806.34,1502.27,806.34Z" transform="translate(-278.28 -219.4)"/><polygon class="cls-24" points="1289.8 631.75 1271.24 639.04 1232.77 680.76 1206.7 653.84 1244.22 610.43 1289.8 631.75"/><path class="cls-2" d="M1548.4,794.85s8.64,8.28,8.94,10.74-.39,4.64.22,5.59c.49.75,9,8.17,12.45,11.17a2.15,2.15,0,0,1,.14,3.15,16.41,16.41,0,0,1-2.71,2c-2.49,1.53.12,6.63.12,6.63l4.41,11.69a3.77,3.77,0,0,1-2.39,4.92c-8.76,2.76-30,8.77-34.6,3.81-5.8-6.29-8.41-22.35-8.41-22.35l-6.09-1.25a3.93,3.93,0,0,1-3-4.84l0-.08a3.93,3.93,0,0,1,4.49-2.88l6.64,1.17,3.07,8.15a3.36,3.36,0,0,0,4.34,2h0a3.35,3.35,0,0,0,2.11-3.77l-7.27-19-9.71-6.48Z" transform="translate(-278.28 -219.4)"/><path class="cls-2" d="M1565.62,829.23l2.92,3.07a.76.76,0,0,1,.11.89l-.6,1.09s2.31,1.35,1.35,3.13-1.76,3.48-1.76,3.48Z" transform="translate(-278.28 -219.4)"/><path class="cls-8" d="M1554.13,809.81s-6.11,2.33-7.71,5.68c0,0,5.14.29,7.24-.41S1554.13,809.81,1554.13,809.81Z" transform="translate(-278.28 -219.4)"/><path class="cls-8" d="M1293.83,1266.09l-9,11.24,7.36,5.92,4.52-5.62.43,9.6,17.87,14.38h0a5.59,5.59,0,0,0-.86-7.86l-7.35-5.92,3.16-8.81Z" transform="translate(-278.28 -219.4)"/><path class="cls-14" d="M1496.63,856.69s3.42,27.58,13.2,35.56c0,0-9.11,10.31-20.82,1.51l3.62-36.55Z" transform="translate(-278.28 -219.4)"/><path class="cls-14" d="M1518.53,892.05l-4.68,2.06s2.51,5.28-2.79,11.14C1511.06,905.25,1523.25,898.64,1518.53,892.05Z" transform="translate(-278.28 -219.4)"/><path class="cls-25" d="M1506.25,905a4,4,0,0,0,1.4.11c4.07-.53,7.74-8.68,3.53-11,0,0-6.51,6-13.3,4a32.72,32.72,0,0,0,2.2,2.52l-113.83,121.83,3.72,18.09,15.39-4.31Z" transform="translate(-278.28 -219.4)"/><path class="cls-8" d="M1493.52,855.59h0a486.88,486.88,0,0,1-115.45,140.58l-41,34.24-41.85-33.67,161-162.58Z" transform="translate(-278.28 -219.4)"/><path class="cls-16" d="M1389.2,984,1453,881.18l13,7.72-7.06-14.56,31.14-19.46a0,0,0,0,0,0,0l-2.6,4.76A470.31,470.31,0,0,1,1389.2,984Z" transform="translate(-278.28 -219.4)"/><path class="cls-26" d="M1282.48,1001.73l-12.07,15.56a3,3,0,0,1-4.17.61l0,0a3,3,0,0,1-.8-4.1L1271,1005Z" transform="translate(-278.28 -219.4)"/><path class="cls-8" d="M1253.93,1033.16,1228.6,997.8l18-12.86a8,8,0,0,1,11.22,1.86l16,22.28a8,8,0,0,1-1.86,11.22ZM1235.64,999l19.45,27.15,13.86-9.92a3,3,0,0,0,.69-4.18l-16-22.28a3,3,0,0,0-4.18-.69Z" transform="translate(-278.28 -219.4)"/><rect class="cls-27" x="1163.08" y="992" width="103.49" height="84.9" rx="3.71" transform="translate(1070.17 -774.92) rotate(54.39)"/><path class="cls-8" d="M1277,1053.54l-13.62,9.75h0a83.39,83.39,0,0,1-60.07-84.13V979l13.41-9.61a3,3,0,0,1,4.17.69l56.79,79.28A3,3,0,0,1,1277,1053.54Z" transform="translate(-278.28 -219.4)"/><path class="cls-12" d="M1208.7,1098.81h0a3,3,0,0,1,.69-4.16l64.18-46a3,3,0,0,1,4.16.69h0a3,3,0,0,1-.69,4.16l-64.17,46A3,3,0,0,1,1208.7,1098.81Z" transform="translate(-278.28 -219.4)"/><rect class="cls-28" x="1206.97" y="1022.91" width="16.09" height="11.1" rx="2.76" transform="translate(1065.38 -777.58) rotate(54.39)"/><rect class="cls-2" x="1206.53" y="1022.29" width="16.09" height="11.1" rx="2.76" transform="translate(1064.69 -777.48) rotate(54.39)"/><path class="cls-12" d="M1213.1,1035.32l-6.42-9a2.21,2.21,0,0,1,.5-3.1l5.42-3.88a2.22,2.22,0,0,1,3.1.52l.85,1.19C1215,1023,1212.13,1027.81,1213.1,1035.32Z" transform="translate(-278.28 -219.4)"/><path class="cls-29" d="M1262.2,980.64l10.68-.67,16.19-14.48,7.66,8.56-16.19,14.48,1.94,13.2-24,12.23a3.6,3.6,0,0,1-4.78-1.45l0-.06a3.61,3.61,0,0,1,1.26-4.83l1-.59-2-.28a2.87,2.87,0,0,1-2.4-2.19v0a2.86,2.86,0,0,1,1.44-3.19l.86-.47-.88,0a2.79,2.79,0,0,1-2.87-2.27v0a2.81,2.81,0,0,1,1-2.72l1.85-1.45-.44,0a2.46,2.46,0,0,1-2.42-1.62v0a2.44,2.44,0,0,1,.75-2.71Z" transform="translate(-278.28 -219.4)"/><path class="cls-8" d="M1273.88,986.86h0a10.42,10.42,0,0,1,1.29-14.68L1444.44,830.3a10.42,10.42,0,0,1,14.68,1.29h0a10.43,10.43,0,0,1-1.29,14.69L1288.56,988.16A10.41,10.41,0,0,1,1273.88,986.86Z" transform="translate(-278.28 -219.4)"/><path class="cls-2" d="M2136.7,1325.12l-35.27-35.27a14.82,14.82,0,0,0-20.8,0l-35.27,35.27a14.56,14.56,0,0,0,0,20.58h0a14.56,14.56,0,0,0,20.58,0l13.9-13.91v52.65a11.19,11.19,0,1,0,22.38,0v-52.65l13.91,13.91a14.55,14.55,0,0,0,20.57,0h0A14.56,14.56,0,0,0,2136.7,1325.12Z" transform="translate(-278.28 -219.4)"/><path class="cls-2" d="M1014.58,735.82l-21.49-21.49a9,9,0,0,0-12.67,0l-21.49,21.49a8.86,8.86,0,0,0,0,12.53h0a8.87,8.87,0,0,0,12.54,0l8.47-8.47V772a6.82,6.82,0,1,0,13.63,0V739.88l8.47,8.47a8.87,8.87,0,0,0,12.54,0h0A8.86,8.86,0,0,0,1014.58,735.82Z" transform="translate(-278.28 -219.4)"/><path class="cls-2" d="M434.86,853.92l-37.28-37.28a15.67,15.67,0,0,0-22,0l-37.28,37.28a15.37,15.37,0,0,0,0,21.75h0a15.39,15.39,0,0,0,21.75,0L374.76,861v55.65a11.83,11.83,0,0,0,23.66,0V861l14.69,14.7a15.39,15.39,0,0,0,21.75,0h0A15.37,15.37,0,0,0,434.86,853.92Z" transform="translate(-278.28 -219.4)"/><path class="cls-30" d="M993.87,619.84a106.6,106.6,0,1,1,164.25,89.64,31.08,31.08,0,0,0-14.39,26.1v.29a10.45,10.45,0,0,1-10.45,10.45h-65.62a10.45,10.45,0,0,1-10.45-10.45v-.29a31.15,31.15,0,0,0-14.44-26.13A106.47,106.47,0,0,1,993.87,619.84Z" transform="translate(-278.28 -219.4)"/><path class="cls-8" d="M1068.31,789.4h64.31a11.53,11.53,0,0,0,11.53-11.53V730.46h-87.37v47.41A11.53,11.53,0,0,0,1068.31,789.4Z" transform="translate(-278.28 -219.4)"/><path class="cls-8" d="M1094.43,801.8h12.07a6.88,6.88,0,0,0,6.89-6.88v-8.63h-25.85v8.63A6.88,6.88,0,0,0,1094.43,801.8Z" transform="translate(-278.28 -219.4)"/><g class="cls-31"><path class="cls-2" d="M1016.31,588.27h0a5.26,5.26,0,0,1-2-7.3,131,131,0,0,1,48.66-47.7,5.25,5.25,0,0,1,7.26,2.18h0a5.21,5.21,0,0,1-2.08,6.91,120.6,120.6,0,0,0-44.85,44A5.21,5.21,0,0,1,1016.31,588.27Z" transform="translate(-278.28 -219.4)"/></g><g class="cls-3"><circle class="cls-8" cx="2057.01" cy="1039.47" r="76.6" transform="translate(-410.81 1539.59) rotate(-45)"/><circle class="cls-2" cx="1778.46" cy="820.14" r="62.23"/><path class="cls-8" d="M2056.74,1040.52h0a.85.85,0,0,1-.85-.85V993.29a.85.85,0,0,1,.85-.85h0a.86.86,0,0,1,.86.85v46.38A.86.86,0,0,1,2056.74,1040.52Z" transform="translate(-278.28 -219.4)"/><rect class="cls-8" x="1777.06" y="753.68" width="3.5" height="8.2"/><rect class="cls-8" x="2099.36" y="991.37" width="3.5" height="8.2" transform="translate(1041.03 -1413.54) rotate(45)"/><rect class="cls-8" x="2117.56" y="1035.44" width="3.5" height="8.2" transform="translate(2880.57 -1299.17) rotate(90)"/><rect class="cls-8" x="2099.26" y="1079.47" width="3.5" height="8.2" transform="translate(4074.59 144.76) rotate(135)"/><rect class="cls-8" x="2055.19" y="1097.66" width="3.5" height="8.2" transform="translate(3835.61 1984.13) rotate(180)"/><rect class="cls-8" x="2011.16" y="1079.37" width="3.5" height="8.2" transform="translate(2391.82 3053.56) rotate(-135)"/><rect class="cls-8" x="1992.97" y="1035.3" width="3.5" height="8.2" transform="translate(677.04 2814.72) rotate(-90)"/><rect class="cls-8" x="2011.26" y="991.27" width="3.5" height="8.2" transform="translate(-392.51 1495.56) rotate(-45)"/><path class="cls-8" d="M2056.17,1040.35h0a2.61,2.61,0,0,1,0-3.68l36.5-36.5a2.61,2.61,0,0,1,3.68,0h0a2.6,2.6,0,0,1,0,3.68l-36.5,36.5A2.6,2.6,0,0,1,2056.17,1040.35Z" transform="translate(-278.28 -219.4)"/><path class="cls-8" d="M2055.89,1039.83h0a3.49,3.49,0,0,1,3.49-3.49h41.1a3.49,3.49,0,0,1,3.49,3.49h0a3.49,3.49,0,0,1-3.49,3.49h-41.1A3.49,3.49,0,0,1,2055.89,1039.83Z" transform="translate(-278.28 -219.4)"/><circle class="cls-8" cx="2057.01" cy="1039.47" r="8.35" transform="translate(294.47 2583.24) rotate(-76.72)"/></g></svg>