<?xml version="1.0" encoding="utf-8"?>
<!-- Generator: Adobe Illustrator 24.1.3, SVG Export Plug-In . SVG Version: 6.00 Build 0)  -->
<svg version="1.1" xmlns="http://www.w3.org/2000/svg" xmlns:xlink="http://www.w3.org/1999/xlink" x="0px" y="0px"
	 viewBox="0 0 606.03 500" style="enable-background:new 0 0 606.03 500;" xml:space="preserve">
<style type="text/css">
	.st0{opacity:0.18;fill:#3F72FC;enable-background:new    ;}
	.st1{fill:#F0B037;}
	.st2{fill:#FFFFFF;}
	.st3{fill:#FFD482;}
	.st4{fill:#F2C97B;}
	.st5{fill:none;stroke:#FFD482;stroke-width:3.5815;stroke-linecap:round;stroke-linejoin:round;stroke-miterlimit:10;}
	.st6{fill:url(#SVGID_1_);}
	.st7{fill:#CF793C;}
	.st8{fill:#EEDFD5;}
	.st9{fill:#032F45;}
	.st10{fill:#BD6324;}
	.st11{fill:#043F5C;}
	.st12{fill:#065780;}
	.st13{fill:#A5ABAD;}
	.st14{fill:#FF5CAB;}
	.st15{fill:#FFA05E;}
	.st16{fill:#848F91;}
	.st17{fill:url(#SVGID_2_);}
	.st18{fill:none;stroke:#FFD482;stroke-width:3.0771;stroke-linecap:round;stroke-linejoin:round;stroke-miterlimit:10;}
	.st19{fill:url(#SVGID_3_);}
	.st20{fill:url(#SVGID_4_);}
	.st21{fill:#1A3474;}
	.st22{fill:url(#SVGID_5_);}
	.st23{fill:url(#SVGID_6_);}
	.st24{fill:url(#SVGID_7_);}
	.st25{fill:url(#SVGID_8_);stroke:#005DEF;stroke-miterlimit:10;}
	.st26{fill:url(#SVGID_9_);stroke:#005DEF;stroke-miterlimit:10;}
	.st27{fill:#DEDEDE;}
	.st28{fill:url(#SVGID_10_);}
	.st29{fill:url(#SVGID_11_);}
	.st30{fill:#0C7AA5;}
	.st31{fill:#4A3C32;}
	.st32{fill:#B06027;}
	.st33{fill:url(#SVGID_12_);}
	.st34{fill:none;stroke:#043F5C;stroke-width:8.8458;stroke-linecap:round;stroke-linejoin:round;stroke-miterlimit:10;}
</style>
<g id="Ñëîé_2">
	<path class="st0" d="M459.51,285.19c-6.63,12.51-18.61,22.25-21.93,35.94c-1.5,5.88-1.07,12.09-1.82,18.18
		c-2.67,21.29-18.5,38.83-37.54,48.88c-0.86,0.43-1.6,0.86-2.46,1.28c-12.51,6.1-25.99,9.41-39.68,11.45
		c-8.34,1.28-16.79,2.03-25.24,2.67c-34.87,2.78-69.74,3.74-104.82,2.99c-16.9-0.32-34.12-1.18-50.06-6.74
		c-0.86-0.32-1.6-0.53-2.46-0.86c-12.94-4.92-24.39-13.16-34.55-22.68l-0.43-0.43c-15.08-14.12-27.7-31.23-35.73-50.27
		c-11.55-27.38-13.48-57.65-5.67-86.21c4.81-17.01,13.16-33.05,14.44-50.59c0.96-13.16-2.14-26.53-0.11-39.58
		c4.28-25.99,28.35-45.03,53.8-51.45s52.3-2.78,78.3,0.86c12.73,1.82,27.6,6.74,40.11,2.78c15.4-4.71,28.45-10.7,45.14-10.7
		c6.74,0,13.69,0.75,20,3.42c7.59,3.32,13.58,9.31,19.68,14.87c17.11,15.3,36.58,27.7,54.12,42.68
		c17.54,14.87,33.37,33.05,39.79,55.19c3.21,10.8,3.96,22.14,4.28,33.37C467.21,255.56,466.67,271.6,459.51,285.19z"/>
</g>
<g id="Layer_2">
	<g>
		<g>
			<g>
				<path class="st1" d="M297.28,311.48c0.37,1.59-0.17,13.53-0.87,15.25c-1.3,5.47-6,10.71-13.99,14.61
					c-17.53,8.57-44.21,7.51-59.59-2.37c-7.17-4.6-11.09-9.32-11.24-15.27c-0.27-3.21-0.46-12.19-0.46-12.19
					c0.54-1.97,2.83,0.05,4.25-1.8c2.34-3.64,6.29-7,11.85-9.71c17.53-8.57,44.21-7.51,59.59,2.37
					C293.29,306.55,296.77,306.38,297.28,311.48z"/>
				
					<ellipse transform="matrix(0.9999 -0.0114 0.0114 0.9999 -3.5277 2.9085)" class="st2" cx="254.24" cy="311.96" rx="43.1" ry="24.39"/>
				
					<ellipse transform="matrix(0.9999 -0.0114 0.0114 0.9999 -3.5125 2.9082)" class="st3" cx="254.23" cy="310.63" rx="43.1" ry="24.39"/>
				
					<ellipse transform="matrix(0.9999 -0.0114 0.0114 0.9999 -3.5048 2.9074)" class="st2" cx="254.19" cy="309.99" rx="30.13" ry="17.05"/>
				<path class="st4" d="M234.85,299.16c12.75-6.15,31.76-5.35,42.45,1.78c4.26,2.84,6.56,6.26,6.97,9.74
					c0.4-4.17-1.88-8.42-6.99-11.83c-10.69-7.13-29.7-7.93-42.45-1.78c-7.67,3.7-11.33,9.06-10.7,14.31
					C224.57,306.83,228.2,302.37,234.85,299.16z"/>
				<path class="st3" d="M240.93,315.73c-1.81-1.48-3.3-3.57-3.34-5.46l5.94-0.42c0.37,1.89,1.17,3.27,2.85,4.37
					c1.97,1.28,3.7,1.41,5.42,0.54c3.84-1.96-5.5-7.94,1.22-11.36c3.66-1.86,8.23-1.83,12.24-0.04l3.84-1.96l3.41,2.21l-3.77,1.92
					c1.91,1.63,2.33,3.29,2.17,4.96l-5.73-0.09c-0.03-1.45-0.49-2.48-1.96-3.44c-1.69-1.1-3.31-1.33-4.99-0.47
					c-3.55,1.8,6.02,7.68-1.11,11.3c-3.58,1.82-8.21,2.02-12.64,0.08l-3.88,1.97l-3.41-2.21L240.93,315.73z"/>
			</g>
		</g>
		<line class="st5" x1="255.14" y1="336.78" x2="255.36" y2="347.14"/>
		<line class="st5" x1="266.22" y1="335.88" x2="266.37" y2="345.96"/>
		<line class="st5" x1="276.73" y1="333.22" x2="276.88" y2="343.3"/>
		<line class="st5" x1="286.14" y1="328.81" x2="286.28" y2="338.1"/>
		<line class="st5" x1="293.8" y1="322.19" x2="293.69" y2="331.64"/>
		<line class="st5" x1="243.53" y1="336.13" x2="243.6" y2="346.22"/>
		<line class="st5" x1="232.96" y1="333.7" x2="233.03" y2="343.78"/>
		<line class="st5" x1="223.46" y1="329.5" x2="223.53" y2="338.8"/>
		<line class="st5" x1="215.65" y1="323.06" x2="215.97" y2="332.5"/>
	</g>
	<g>
		<g>
			<g>
				<path class="st1" d="M296.76,288.41c0.37,1.59-0.17,13.53-0.87,15.25c-1.3,5.47-6,10.71-13.99,14.61
					c-17.53,8.57-44.21,7.51-59.59-2.37c-7.17-4.6-11.09-9.32-11.24-15.27c-0.27-3.21-0.46-12.19-0.46-12.19
					c0.54-1.97,2.83,0.05,4.25-1.8c2.34-3.64,6.29-7,11.85-9.71c17.53-8.57,44.21-7.51,59.59,2.37
					C292.78,283.48,296.26,283.31,296.76,288.41z"/>
				
					<ellipse transform="matrix(0.9999 -0.0114 0.0114 0.9999 -3.2657 2.9012)" class="st2" cx="253.72" cy="288.89" rx="43.1" ry="24.39"/>
				
					<ellipse transform="matrix(0.9999 -0.0114 0.0114 0.9999 -3.2505 2.9008)" class="st3" cx="253.71" cy="287.56" rx="43.1" ry="24.39"/>
				
					<ellipse transform="matrix(0.9999 -0.0114 0.0114 0.9999 -3.2427 2.8999)" class="st2" cx="253.67" cy="286.92" rx="30.13" ry="17.05"/>
				<path class="st4" d="M234.34,276.09c12.75-6.15,31.76-5.35,42.45,1.78c4.26,2.84,6.56,6.26,6.97,9.74
					c0.4-4.17-1.88-8.42-6.99-11.83c-10.69-7.13-29.7-7.93-42.45-1.78c-7.67,3.7-11.33,9.06-10.7,14.31
					C224.05,283.76,227.68,279.3,234.34,276.09z"/>
				<path class="st3" d="M240.41,292.66c-1.81-1.48-3.3-3.57-3.34-5.46l5.94-0.42c0.37,1.89,1.17,3.27,2.85,4.37
					c1.97,1.28,3.7,1.41,5.42,0.54c3.84-1.96-5.5-7.94,1.22-11.36c3.66-1.86,8.23-1.83,12.24-0.04l3.84-1.96l3.41,2.21l-3.77,1.92
					c1.91,1.63,2.33,3.29,2.17,4.96l-5.73-0.09c-0.03-1.45-0.49-2.48-1.96-3.44c-1.69-1.1-3.31-1.33-4.99-0.47
					c-3.55,1.8,6.02,7.68-1.11,11.3c-3.58,1.82-8.21,2.02-12.64,0.08l-3.88,1.97l-3.41-2.21L240.41,292.66z"/>
			</g>
		</g>
		<line class="st5" x1="254.62" y1="313.71" x2="254.85" y2="324.07"/>
		<line class="st5" x1="265.71" y1="312.81" x2="265.86" y2="322.9"/>
		<line class="st5" x1="276.21" y1="310.15" x2="276.37" y2="320.23"/>
		<line class="st5" x1="285.62" y1="305.74" x2="285.76" y2="315.04"/>
		<line class="st5" x1="293.28" y1="299.12" x2="293.17" y2="308.57"/>
		<line class="st5" x1="243.01" y1="313.06" x2="243.08" y2="323.15"/>
		<line class="st5" x1="232.45" y1="310.63" x2="232.52" y2="320.71"/>
		<line class="st5" x1="222.95" y1="306.43" x2="223.01" y2="315.73"/>
		<line class="st5" x1="215.14" y1="299.99" x2="215.46" y2="309.43"/>
	</g>
	<g>
		<g>
			<g>
				<path class="st1" d="M296.25,265.35c0.37,1.59-0.17,13.53-0.87,15.25c-1.3,5.47-6,10.71-13.99,14.61
					c-17.53,8.57-44.21,7.51-59.59-2.37c-7.17-4.6-11.09-9.32-11.24-15.27c-0.27-3.21-0.46-12.19-0.46-12.19
					c0.54-1.97,2.83,0.05,4.25-1.8c2.34-3.64,6.29-7,11.85-9.71c17.53-8.57,44.21-7.51,59.59,2.37
					C292.26,260.41,295.74,260.24,296.25,265.35z"/>
				
					<ellipse transform="matrix(0.9999 -0.0114 0.0114 0.9999 -3.0035 2.8937)" class="st2" cx="253.21" cy="265.82" rx="43.1" ry="24.39"/>
				
					<ellipse transform="matrix(0.9999 -0.0114 0.0114 0.9999 -2.9885 2.8936)" class="st3" cx="253.19" cy="264.49" rx="43.1" ry="24.39"/>
				
					<ellipse transform="matrix(0.9999 -0.0114 0.0114 0.9999 -2.9808 2.8927)" class="st2" cx="253.15" cy="263.85" rx="30.13" ry="17.05"/>
				<path class="st4" d="M233.82,253.03c12.75-6.15,31.76-5.35,42.45,1.78c4.26,2.84,6.56,6.26,6.97,9.74
					c0.4-4.17-1.88-8.42-6.99-11.83c-10.69-7.13-29.7-7.93-42.45-1.78c-7.67,3.7-11.33,9.06-10.7,14.31
					C223.53,260.69,227.17,256.23,233.82,253.03z"/>
				<path class="st3" d="M239.89,269.6c-1.81-1.48-3.3-3.57-3.34-5.46l5.94-0.42c0.37,1.89,1.17,3.27,2.85,4.37
					c1.97,1.28,3.7,1.41,5.42,0.54c3.84-1.96-5.5-7.94,1.22-11.36c3.66-1.86,8.23-1.83,12.24-0.04l3.84-1.96l3.41,2.21l-3.77,1.92
					c1.91,1.63,2.33,3.29,2.17,4.96l-5.73-0.09c-0.03-1.45-0.49-2.48-1.96-3.44c-1.69-1.1-3.31-1.33-4.99-0.47
					c-3.55,1.8,6.02,7.68-1.11,11.3c-3.58,1.82-8.21,2.02-12.64,0.08l-3.88,1.97l-3.41-2.21L239.89,269.6z"/>
			</g>
		</g>
		<line class="st5" x1="254.11" y1="290.64" x2="254.33" y2="301"/>
		<line class="st5" x1="265.19" y1="289.74" x2="265.34" y2="299.83"/>
		<line class="st5" x1="275.7" y1="287.08" x2="275.85" y2="297.16"/>
		<line class="st5" x1="285.1" y1="282.67" x2="285.24" y2="291.97"/>
		<line class="st5" x1="292.77" y1="276.05" x2="292.66" y2="285.51"/>
		<line class="st5" x1="242.5" y1="289.99" x2="242.57" y2="300.08"/>
		<line class="st5" x1="231.93" y1="287.56" x2="232" y2="297.65"/>
		<line class="st5" x1="222.43" y1="283.36" x2="222.5" y2="292.66"/>
		<line class="st5" x1="214.62" y1="276.92" x2="214.94" y2="286.36"/>
	</g>
	<g>
		<g>
			<g>
				<path class="st1" d="M296.25,247.55c0.37,1.59-0.17,13.53-0.87,15.25c-1.3,5.47-6,10.71-13.99,14.61
					c-17.53,8.57-44.21,7.51-59.59-2.37c-7.17-4.6-11.09-9.32-11.24-15.27c-0.27-3.21-0.46-12.19-0.46-12.19
					c0.54-1.97,2.83,0.05,4.25-1.8c2.34-3.64,6.29-7,11.85-9.71c17.53-8.57,44.21-7.51,59.59,2.37
					C292.26,242.61,295.74,242.44,296.25,247.55z"/>
				
					<ellipse transform="matrix(0.9999 -0.0114 0.0114 0.9999 -2.8013 2.8925)" class="st2" cx="253.21" cy="248.02" rx="43.1" ry="24.39"/>
				
					<ellipse transform="matrix(0.9999 -0.0114 0.0114 0.9999 -2.7863 2.8924)" class="st3" cx="253.19" cy="246.69" rx="43.1" ry="24.39"/>
				
					<ellipse transform="matrix(0.9999 -0.0114 0.0114 0.9999 -2.7786 2.8915)" class="st2" cx="253.15" cy="246.05" rx="30.13" ry="17.05"/>
				<path class="st4" d="M233.82,235.23c12.75-6.15,31.76-5.35,42.45,1.78c4.26,2.84,6.56,6.26,6.97,9.74
					c0.4-4.17-1.88-8.42-6.99-11.83c-10.69-7.13-29.7-7.93-42.45-1.78c-7.67,3.7-11.33,9.06-10.7,14.31
					C223.53,242.9,227.17,238.43,233.82,235.23z"/>
				<path class="st3" d="M239.89,251.8c-1.81-1.48-3.3-3.57-3.34-5.46l5.94-0.42c0.37,1.89,1.17,3.27,2.85,4.37
					c1.97,1.28,3.7,1.41,5.42,0.54c3.84-1.96-5.5-7.94,1.22-11.36c3.66-1.86,8.23-1.83,12.24-0.04l3.84-1.96l3.41,2.21l-3.77,1.92
					c1.91,1.63,2.33,3.29,2.17,4.96l-5.73-0.09c-0.03-1.45-0.49-2.48-1.96-3.44c-1.69-1.1-3.31-1.33-4.99-0.47
					c-3.55,1.8,6.02,7.68-1.11,11.3c-3.58,1.82-8.21,2.02-12.64,0.08l-3.88,1.97l-3.41-2.21L239.89,251.8z"/>
			</g>
		</g>
		<line class="st5" x1="254.11" y1="272.84" x2="254.33" y2="283.2"/>
		<line class="st5" x1="265.19" y1="271.94" x2="265.34" y2="282.03"/>
		<line class="st5" x1="275.7" y1="269.28" x2="275.85" y2="279.36"/>
		<line class="st5" x1="285.1" y1="264.87" x2="285.24" y2="274.17"/>
		<line class="st5" x1="292.77" y1="258.26" x2="292.66" y2="267.71"/>
		<line class="st5" x1="242.5" y1="272.19" x2="242.57" y2="282.28"/>
		<line class="st5" x1="231.93" y1="269.76" x2="232" y2="279.85"/>
		<line class="st5" x1="222.43" y1="265.56" x2="222.5" y2="274.86"/>
		<line class="st5" x1="214.62" y1="259.12" x2="214.94" y2="268.57"/>
	</g>
	<g>
		<g>
			<g>
				<path class="st1" d="M296.84,228.87c0.37,1.59-0.17,13.53-0.87,15.25c-1.3,5.47-6,10.71-13.99,14.61
					c-17.53,8.57-44.21,7.51-59.59-2.37c-7.17-4.6-11.09-9.32-11.24-15.27c-0.27-3.21-0.46-12.19-0.46-12.19
					c0.54-1.97,2.83,0.05,4.25-1.8c2.34-3.64,6.29-7,11.85-9.71c17.53-8.57,44.21-7.51,59.59,2.37
					C292.85,223.93,296.33,223.76,296.84,228.87z"/>
				
					<ellipse transform="matrix(0.9999 -0.0114 0.0114 0.9999 -2.5892 2.8982)" class="st2" cx="253.8" cy="229.34" rx="43.1" ry="24.39"/>
				
					<ellipse transform="matrix(0.9999 -0.0114 0.0114 0.9999 -2.5741 2.8979)" class="st3" cx="253.78" cy="228.01" rx="43.1" ry="24.39"/>
				
					<ellipse transform="matrix(0.9999 -0.0114 0.0114 0.9999 -2.5663 2.8969)" class="st2" cx="253.74" cy="227.37" rx="30.13" ry="17.05"/>
				<path class="st4" d="M234.41,216.55c12.75-6.15,31.76-5.35,42.45,1.78c4.26,2.84,6.56,6.26,6.97,9.74
					c0.4-4.17-1.88-8.42-6.99-11.83c-10.69-7.13-29.7-7.93-42.45-1.78c-7.67,3.7-11.33,9.06-10.7,14.31
					C224.12,224.22,227.76,219.75,234.41,216.55z"/>
				<path class="st3" d="M240.48,233.12c-1.81-1.48-3.3-3.57-3.34-5.46l5.94-0.42c0.37,1.89,1.17,3.27,2.85,4.37
					c1.97,1.28,3.7,1.41,5.42,0.54c3.84-1.96-5.5-7.94,1.22-11.36c3.66-1.86,8.23-1.83,12.24-0.04l3.84-1.96l3.41,2.21l-3.77,1.92
					c1.91,1.63,2.33,3.29,2.17,4.96l-5.73-0.09c-0.03-1.45-0.49-2.48-1.96-3.44c-1.69-1.1-3.31-1.33-4.99-0.47
					c-3.55,1.8,6.02,7.68-1.11,11.3c-3.58,1.82-8.21,2.02-12.64,0.08l-3.88,1.97l-3.41-2.21L240.48,233.12z"/>
			</g>
		</g>
		<line class="st5" x1="254.7" y1="254.16" x2="254.92" y2="264.52"/>
		<line class="st5" x1="265.78" y1="253.27" x2="265.93" y2="263.35"/>
		<line class="st5" x1="276.29" y1="250.6" x2="276.44" y2="260.68"/>
		<line class="st5" x1="285.69" y1="246.19" x2="285.83" y2="255.49"/>
		<line class="st5" x1="293.36" y1="239.58" x2="293.25" y2="249.03"/>
		<line class="st5" x1="243.09" y1="253.52" x2="243.16" y2="263.6"/>
		<line class="st5" x1="232.52" y1="251.09" x2="232.59" y2="261.17"/>
		<line class="st5" x1="223.02" y1="246.88" x2="223.09" y2="256.18"/>
		<line class="st5" x1="215.21" y1="240.44" x2="215.53" y2="249.89"/>
	</g>
	<g>
		<g>
			<g>
				<path class="st1" d="M297.35,210.66c0.37,1.59-0.17,13.53-0.87,15.25c-1.3,5.47-6,10.71-13.99,14.61
					c-17.53,8.57-44.21,7.51-59.59-2.37c-7.17-4.6-11.09-9.32-11.24-15.27c-0.27-3.21-0.46-12.19-0.46-12.19
					c0.54-1.97,2.83,0.05,4.25-1.8c2.34-3.64,6.29-7,11.85-9.71c17.53-8.57,44.21-7.51,59.59,2.37
					C293.37,205.72,296.85,205.56,297.35,210.66z"/>
				
					<ellipse transform="matrix(0.9999 -0.0114 0.0114 0.9999 -2.3822 2.9027)" class="st2" cx="254.31" cy="211.14" rx="43.1" ry="24.39"/>
				
					<ellipse transform="matrix(0.9999 -0.0114 0.0114 0.9999 -2.3671 2.9025)" class="st3" cx="254.3" cy="209.81" rx="43.1" ry="24.39"/>
				<linearGradient id="SVGID_1_" gradientUnits="userSpaceOnUse" x1="224.1254" y1="209.1675" x2="284.3899" y2="209.1675">
					<stop  offset="0" style="stop-color:#265B9C"/>
					<stop  offset="1" style="stop-color:#72C1D9"/>
				</linearGradient>
				<path class="st6" d="M277.35,198.04c-10.69-7.13-29.7-7.93-42.45-1.78c-12.75,6.15-14.42,16.91-3.73,24.05
					c10.69,7.13,29.7,7.93,42.45,1.78C286.37,215.94,288.04,205.17,277.35,198.04z"/>
				<path class="st4" d="M234.92,198.34c12.75-6.15,31.76-5.35,42.45,1.78c4.26,2.84,6.56,6.26,6.97,9.74
					c0.4-4.17-1.88-8.42-6.99-11.83c-10.69-7.13-29.7-7.93-42.45-1.78c-7.67,3.7-11.33,9.06-10.7,14.31
					C224.64,206.01,228.27,201.55,234.92,198.34z"/>
				<path class="st3" d="M241,214.91c-1.81-1.48-3.3-3.57-3.34-5.46l5.94-0.42c0.37,1.89,1.17,3.27,2.85,4.37
					c1.97,1.28,3.7,1.41,5.42,0.54c3.84-1.96-5.5-7.94,1.22-11.36c3.66-1.86,8.23-1.83,12.24-0.04l3.84-1.96l3.41,2.21l-3.77,1.92
					c1.91,1.63,2.33,3.29,2.17,4.96l-5.73-0.09c-0.03-1.45-0.49-2.48-1.96-3.44c-1.69-1.1-3.31-1.33-4.99-0.47
					c-3.55,1.8,6.02,7.68-1.11,11.3c-3.58,1.82-8.21,2.02-12.64,0.08l-3.88,1.97l-3.41-2.21L241,214.91z"/>
			</g>
		</g>
		<line class="st5" x1="255.21" y1="235.95" x2="255.43" y2="246.32"/>
		<line class="st5" x1="266.29" y1="235.06" x2="266.44" y2="245.14"/>
		<line class="st5" x1="276.8" y1="232.39" x2="276.95" y2="242.48"/>
		<line class="st5" x1="286.21" y1="227.99" x2="286.35" y2="237.28"/>
		<line class="st5" x1="293.87" y1="221.37" x2="293.76" y2="230.82"/>
		<line class="st5" x1="243.6" y1="235.31" x2="243.67" y2="245.39"/>
		<line class="st5" x1="233.03" y1="232.88" x2="233.1" y2="242.96"/>
		<line class="st5" x1="223.53" y1="228.68" x2="223.6" y2="237.98"/>
		<line class="st5" x1="215.72" y1="222.23" x2="216.05" y2="231.68"/>
	</g>
	<g>
		<path class="st7" d="M190.17,250.73L190.17,250.73c-0.92,0.97-0.88,2.52,0.1,3.44l3.39,3.2c0.97,0.92,2.52,0.88,3.44-0.09l0,0
			c0.92-0.97,0.88-2.52-0.1-3.44l-3.39-3.2C192.64,249.71,191.09,249.76,190.17,250.73z"/>
		<ellipse class="st8" cx="139.15" cy="385.74" rx="21.53" ry="8.42"/>
		<path class="st9" d="M131.5,389.75l0.24-11.78c-0.28-1.11-1.77-1.34-2.95-2.38c-0.53-0.47-1.29-0.51-1.81-0.13l-1.12,0.82
			c-1.67,1.12-1.75,1.46-1.39,2.92l2.16,8.71c0.36,1.47,1.68,3.05,2.92,3.52l0.35,0.13C131.14,392.03,131.86,391.22,131.5,389.75z"
			/>
		<path class="st7" d="M127.94,375.86c0,0,0.64,7.52,2.49,7.97c0,0,1.18,0.29,1.22-1.61c0.04-1.9,0.53-5.59,0.53-5.59L127.94,375.86
			z"/>
		<path class="st9" d="M134.52,238.85c0,0-8.63,1.69-10.75,5c-2.12,3.31,1.63,11.46,1.63,11.46v-4.26c0,0-4.99-8.19,8.78-9.99
			C143.43,239.85,134.52,238.85,134.52,238.85z"/>
		<path class="st9" d="M134.35,239.1c0,0-14.24,9.22-8.96,18.15c5.28,8.93,19.59,12.78,19.59,12.78l5.82-29.99L134.35,239.1z"/>
		<path class="st9" d="M157.12,385.56l-8.8-6.18c-1.12-0.45-3.5-0.51-5.07-0.22c-0.7,0.13-1.17,0.69-1.12,1.32l0.09,1.36
			c0.05,1.96,0.3,2.23,1.78,2.83l8.8,3.55c1.48,0.6,3.6,0.53,4.7-0.15l0.31-0.19C158.92,387.21,158.6,386.16,157.12,385.56z"/>
		<path class="st7" d="M142.89,379.55c0.1,2.73,5.65,3.71,5.76,0.94c6.73-25.71,7.6-49.24,8.89-76.43l-16.99-14.3
			c1.37,23.6,3.52,43.58,3.1,63.96c-0.05,2.64-1.37,5.44-1.52,7.98C141.82,366.97,143.34,374.42,142.89,379.55z"/>
		<path class="st10" d="M145.45,361.93c0.15-2.54,1.46-5.34,1.52-7.98c0.14-6.74,0-13.44-0.31-20.24
			c-0.58-12.95-3.93-13.94-3.32-0.19c0.3,6.8,0.45,13.5,0.31,20.24c-0.05,2.64-1.37,5.44-1.52,7.98c-0.3,5.27,1.21,12.72,0.76,17.85
			C142.97,381.68,145.15,367.2,145.45,361.93z"/>
		<path class="st10" d="M142.63,358.89c0,0,2.79-7.94,6.41-7.85c3.62,0.09,4.82,2.8,4.82,2.8l1.29-8.45l-11.53,0.61l-0.04,7.95
			c0,0.49-0.06,0.98-0.16,1.45L142.63,358.89z"/>
		<path class="st7" d="M127.55,375.22c-0.61,2.4,2.8,4.71,4.33,2.56c4.58-9.44,7.94-16.71,11.06-23.84
			c2.36-5.4,2.87-11.86,3.86-18.34c2.36-15.46-13.61-19.37-12.82-3.65c0.33,6.42,0.21,12.89-0.58,19.3
			c-0.38,3.1-2.15,2.95-3.18,8.16C129.18,364.71,128.97,367.66,127.55,375.22z"/>
		<path class="st10" d="M131.2,362.06c1.28-6.53,4.81-9.28,5.29-13.17c0.99-8.03,2.48-15.39,2.07-23.44
			c-0.06-1.27-0.04-2.44,0.06-3.5c-2.68,0.68-4.88,3.82-4.57,9.9c0.33,6.42,0.21,12.89-0.58,19.3c-0.38,3.1-2.15,2.95-3.18,8.16
			c-1.04,5.29-1.25,8.25-2.67,15.81c-0.47,1.87,1.02,1.47,1.35,1.4C130.56,367.9,129.96,368.41,131.2,362.06z"/>
		<path class="st11" d="M134.33,292.88c-7.39,0.15-0.05,29.39-2.97,50.41c0,0,15.41,14.18,28.47,1.76l-0.48-48.33L134.33,292.88z"/>
		<path class="st12" d="M154.2,348.71c1.91-0.81,3.82-2.04,5.68-3.81l-0.48-48.33l-2.62-0.7c1.54,10.53-2.09,19.56-0.74,28.6
			C158.09,338.21,157.49,344.55,154.2,348.71z"/>
		<path class="st9" d="M142.93,349.52c-8.73-12.58-0.69-16.4-1.9-23.07c-2.5-13.82,2.85-16.99,0.63-31.37l-7.34-2.21
			c-7.39,0.15-0.05,29.39-2.97,50.41C131.35,343.29,136.29,347.83,142.93,349.52z"/>
		<path class="st13" d="M159,295.34c0.43-5.17-2.05,5.15-1.96-0.84c0.04-2.3,1.15-8.89,1.71-13.25c0.52-4.07,4.78-6.49,3.9-11.46
			c-0.12-2.71-4.9-7.72-5.11-9.7c-0.33-3.13-0.55-6.02-7.12-9.1l-2.89,0.63c-1.38,0.3-2.71,0.75-3.97,1.33
			c-13.41,6.21-16.33,6.51-15.4,14.37c0.15,4.04,2.56,0.9,3.28,3.57c1.39,5.13,6.81,10.36,4.9,19.35c-0.39,1.82-1.81,3.05-0.19,4.26
			C143.15,299.72,156.54,300.72,159,295.34z"/>
		<g>
			<path class="st14" d="M159.43,295.29C159.44,295.49,159.45,295.28,159.43,295.29L159.43,295.29z"/>
			<path class="st15" d="M162.77,269.57c-0.12-2.71-4.9-7.72-5.11-9.7l-0.36,0.15c0.23,2.17,3.53,7.85,3.66,10.83
				c0.83,4.67-2.01,7.01-3.2,10.41l1.71-0.57C159.98,276.6,163.64,274.53,162.77,269.57z"/>
		</g>
		<path class="st16" d="M135.45,268.81l-2.81,9.75l1.68,14.32l4.61,1.62l0-12.36C136.98,278.27,136.16,273.59,135.45,268.81z"/>
		<path class="st7" d="M136.33,256.25c0,0,4.92,11.79,12.07,8.72c7.15-3.07,1.97-13.74,1.97-13.74S142.94,252.76,136.33,256.25z"/>
		<path class="st7" d="M144.63,258.52l0.47,0.1c1.6,0.32,3.08-0.65,3.28-2.16l1.16-8.52c0.21-1.51-0.94-3.01-2.54-3.33l-0.47-0.1
			c-1.6-0.32-3.08,0.65-3.28,2.16l-2.39,7.93C140.65,256.11,143.03,258.2,144.63,258.52z"/>
		<path class="st7" d="M144.38,381.48c0,0,6.29,2.57,7.43,1.81c0.96-0.63-3.69-3.68-3.69-3.68L144.38,381.48z"/>
		<path class="st2" d="M137.69,255.59c0,0,4.33,12.16,11.47,8.93c5.54-2.5,1.52-12.56,1.52-12.56l1.49,0.29c0,0,4.78,11.81-3.3,15.1
			c-7.11,2.9-13.08-10.85-13.08-10.85L137.69,255.59z"/>
		<path class="st10" d="M148.87,252.23c0,0-3.91-0.08-6.62-3.77c0,0,2.7,5.58,6.29,6.19L148.87,252.23z"/>
		<path class="st10" d="M137.69,255.59c0,0,0.95-0.65,3.14-1.41l1.78-6.09c0,0-0.84,1.23,1.03,3.09l-0.33,1.24
			c-0.44,1.67-1.51,3.08-2.99,3.95l-1.9,0.95L137.69,255.59z"/>
		<path class="st16" d="M137.78,280.04c0,0,5.1,4.55,8.69,3.78c0,0-6.34,2.25-8.69,1.45C135.44,284.47,137.78,280.04,137.78,280.04z
			"/>
		<path class="st7" d="M141.28,234.87c1.36-2.18,3.43-2.57,5.36-1.31c1.89-0.77,4.17,0.36,5.85,3.22c2.34,3.98,2.11,9.5,0.65,12.97
			c-0.79,1.88-1.72,3.19-6.22,2.4c-3.05-0.58-4.76-1.48-6.49-4.41C138.09,243.76,139.3,238.05,141.28,234.87z"/>
		<path class="st10" d="M144.09,244.99c0,0,4.6,1.81,7.43-4.38c0,0,1-2.12,0.58-3.03C151.67,236.68,144.09,244.99,144.09,244.99z"/>
		<path class="st9" d="M151.94,238.31c-5.41,8.36-8.55,5.96-8.68,7.27c0,0-0.91,3.47-0.92,3.48c-0.55,2.59-3.18,1.54-5.71,2.38
			l-0.01,0c0,0-8.31-9.61,2.02-17.34c6.99-5.23,16.65-0.08,15.61,6.8L151.94,238.31z"/>
		
			<ellipse transform="matrix(0.5162 -0.8565 0.8565 0.5162 -141.6846 240.8514)" class="st7" cx="142.34" cy="245.83" rx="1.89" ry="2.08"/>
		<path class="st10" d="M142.67,245.95c0.23-0.17,0.25-0.51,0.03-0.72c-0.31-0.31-0.78-0.59-1.12,0c-0.35,0.6,0.03,1.37,0.37,1.87
			c0.06,0.09,0.19,0.03,0.17-0.07c-0.08-0.31-0.08-0.68,0.23-0.87C142.48,246.08,142.59,246.01,142.67,245.95z"/>
		<g>
			<g>
				<path class="st2" d="M151.21,250.34L151.21,250.34c0.8-0.31,1.44-1.59,1.44-2.85l-2.89,1.13
					C149.77,249.88,150.42,250.66,151.21,250.34z"/>
			</g>
		</g>
		<g>
			<g>
				<path class="st1" d="M157.91,317.65c-1.36-0.32-10.33-5.33-11.38-6.53c-3.71-3.1-5.92-8.73-5.86-16.37
					c0.15-16.76,11.21-36.86,24.71-44.88c6.29-3.74,11.42-4.94,16.05-2.77c2.57,1.03,9.54,4.33,9.54,4.33
					c1.3,1.17-1.13,2.16-0.25,3.96c1.9,3.19,2.96,7.52,2.91,12.84c-0.15,16.76-11.21,36.86-24.71,44.88
					C163.23,316.48,162.02,319.22,157.91,317.65z"/>
				
					<ellipse transform="matrix(0.437 -0.8995 0.8995 0.437 -157.794 316.6919)" class="st2" cx="174.08" cy="284.39" rx="37.03" ry="20.95"/>
				
					<ellipse transform="matrix(0.437 -0.8995 0.8995 0.437 -157.6649 317.897)" class="st3" cx="175.1" cy="284.89" rx="37.03" ry="20.95"/>
				<linearGradient id="SVGID_2_" gradientUnits="userSpaceOnUse" x1="158.2451" y1="285.1075" x2="192.9754" y2="285.1075">
					<stop  offset="0" style="stop-color:#265B9C"/>
					<stop  offset="1" style="stop-color:#72C1D9"/>
				</linearGradient>
				<path class="st17" d="M175.29,307.13c9.59-5.48,17.5-19.77,17.68-31.94c0.18-12.16-7.46-17.58-17.04-12.11
					c-9.59,5.48-17.5,19.77-17.68,31.94C158.07,307.18,165.7,312.6,175.29,307.13z"/>
				<path class="st4" d="M191.36,274.41c-0.18,12.16-8.09,26.46-17.68,31.94c-3.82,2.18-7.33,2.63-10.16,1.62
					c3.05,1.91,7.19,1.79,11.78-0.83c9.59-5.48,17.5-19.77,17.68-31.94c0.11-7.31-2.61-12.19-6.88-13.72
					C189.42,263.56,191.45,268.06,191.36,274.41z"/>
				<path class="st3" d="M176.29,272.71c1.83-0.82,4.01-1.16,5.48-0.47l-1.96,4.73c-1.59-0.44-2.96-0.36-4.45,0.52
					c-1.74,1.02-2.51,2.3-2.5,3.96c0.03,3.71,8.22-1.17,8.26,5.3c0.02,3.53-1.76,7.03-4.67,9.42l0.03,3.71l-3.01,1.77l-0.03-3.63
					c-1.99,0.84-3.42,0.53-4.64-0.24l2.28-4.37c1.13,0.53,2.09,0.58,3.39-0.19c1.49-0.87,2.29-2.03,2.28-3.65
					c-0.02-3.42-8.21,1.68-8.26-5.19c-0.02-3.45,1.6-7.08,4.79-9.75l-0.03-3.74l3.01-1.77L176.29,272.71z"/>
			</g>
			<line class="st18" x1="154.66" y1="275.55" x2="146.61" y2="271.74"/>
			<line class="st18" x1="151.09" y1="284.41" x2="143.28" y2="280.65"/>
			<line class="st18" x1="149.1" y1="293.51" x2="141.29" y2="289.75"/>
			<line class="st18" x1="148.87" y1="302.43" x2="141.68" y2="298.96"/>
			<line class="st18" x1="151.01" y1="310.86" x2="143.79" y2="307.14"/>
			<line class="st18" x1="159.61" y1="266.87" x2="151.84" y2="263.05"/>
			<line class="st18" x1="165.54" y1="259.69" x2="157.77" y2="255.87"/>
			<line class="st18" x1="172.42" y1="254" x2="165.25" y2="250.48"/>
			<line class="st18" x1="180.37" y1="250.48" x2="172.99" y2="247.09"/>
			<line class="st18" x1="161.83" y1="308.73" x2="154.63" y2="305.26"/>
			<line class="st18" x1="163.97" y1="317.16" x2="156.75" y2="313.44"/>
		</g>
		<path class="st7" d="M147.98,298.76c-7.46-0.29-14.15-2.32-20.17-5.83c-1.62-0.94-2.64-2.65-2.68-4.46
			c-0.09-4.15-0.04-11.52,1.36-12.72l6.45,7.39l-0.3,4.12c7.04,3.1,10.74,6.77,15.04,8.08L147.98,298.76z"/>
		<path class="st10" d="M128.49,292c-1.46-1.18-1.99-3.62-2.03-5.43c-0.06-2.93-0.06-7.45,0.44-10.29l-0.47-0.54
			c-1.4,1.2-1.45,8.57-1.36,12.72c0.04,1.81,1.06,3.52,2.68,4.46c6.02,3.51,12.71,5.54,20.17,5.83
			C147.93,298.76,134.74,297.08,128.49,292z"/>
		<path class="st10" d="M126.53,287.57l6.11-0.31c0,0-2.41,2.93-6.03,1.87L126.53,287.57z"/>
		<path class="st2" d="M125,286.83c0,0,3.01,2.34,7.64,0.43l0.27-3.33l-7.91-0.56V286.83z"/>
		<path class="st16" d="M135.79,268.49l-2.12,13.93c-0.3,2-1.78,3.44-3.61,3.51c-2.71,0.11-6.19-0.39-6.19-3.65
			c-0.02-9.02,1.96-16.05,3.52-20.18c0.67-1.79,2.49-2.3,4.65-3.7c0.35-0.23,0.21,1.85,0.6,2.15l0,0
			C135,262.32,136.25,265.47,135.79,268.49z"/>
		<path class="st16" d="M127.46,262.1c0,0-4.44,12.47-3.52,20.63c0,0-0.01,2.17,2.52,2.81c0,0-0.89-1.95-0.83-4.43
			c0.06-2.47,1.08,0.87,1.45-0.02c0.37-0.89,0.56-4.21,0.37-6.52c-0.19-2.31,1.19-8.93,0.53-10.5
			C127.32,262.5,127.46,262.1,127.46,262.1z"/>
		<path class="st7" d="M145.84,296.45L145.84,296.45c-0.23,1.32,0.67,2.59,1.99,2.81l4.59,0.78c1.32,0.23,2.59-0.67,2.81-1.99v0
			c0.23-1.32-0.67-2.59-1.99-2.81l-4.59-0.78C147.33,294.23,146.07,295.13,145.84,296.45z"/>
	</g>
	
		<ellipse transform="matrix(0.9999 -0.0114 0.0114 0.9999 -4.054 3.4234)" class="st8" cx="299.31" cy="358.55" rx="43.1" ry="24.39"/>
	<g>
		<g>
			<path class="st1" d="M384.91,309.35c0.37,1.59-0.17,13.53-0.87,15.25c-1.3,5.47-6,10.71-13.99,14.61
				c-17.53,8.57-44.21,7.51-59.59-2.37c-7.17-4.6-11.09-9.32-11.24-15.27c-0.27-3.21-0.46-12.19-0.46-12.19
				c0.54-1.97,2.83,0.05,4.25-1.8c2.34-3.64,6.29-7,11.85-9.71c17.53-8.57,44.21-7.51,59.59,2.37
				C380.93,304.41,384.41,304.25,384.91,309.35z"/>
			
				<ellipse transform="matrix(0.9999 -0.0114 0.0114 0.9999 -3.4977 3.9039)" class="st2" cx="341.88" cy="309.83" rx="43.1" ry="24.39"/>
			
				<ellipse transform="matrix(0.9999 -0.0114 0.0114 0.9999 -3.4827 3.9037)" class="st3" cx="341.86" cy="308.5" rx="43.1" ry="24.39"/>
			
				<ellipse transform="matrix(0.9999 -0.0114 0.0114 0.9999 -3.475 3.9027)" class="st2" cx="341.82" cy="307.86" rx="30.13" ry="17.05"/>
			<path class="st4" d="M322.49,297.03c12.75-6.15,31.76-5.35,42.45,1.78c4.26,2.84,6.56,6.26,6.97,9.74
				c0.4-4.17-1.88-8.42-6.99-11.83c-10.69-7.13-29.7-7.93-42.45-1.78c-7.67,3.7-11.33,9.06-10.7,14.31
				C312.2,304.7,315.84,300.24,322.49,297.03z"/>
			<path class="st3" d="M328.56,313.6c-1.81-1.48-3.3-3.57-3.34-5.46l5.94-0.42c0.37,1.89,1.17,3.27,2.85,4.37
				c1.97,1.28,3.7,1.41,5.42,0.54c3.84-1.96-5.5-7.94,1.22-11.36c3.66-1.86,8.23-1.83,12.24-0.04l3.84-1.96l3.41,2.21l-3.77,1.92
				c1.91,1.63,2.33,3.29,2.17,4.96l-5.73-0.09c-0.03-1.45-0.49-2.48-1.96-3.44c-1.69-1.1-3.31-1.33-4.99-0.47
				c-3.55,1.8,6.02,7.68-1.11,11.3c-3.58,1.82-8.21,2.02-12.64,0.08l-3.88,1.97l-3.41-2.21L328.56,313.6z"/>
		</g>
	</g>
	<line class="st5" x1="342.78" y1="334.64" x2="343" y2="345.01"/>
	<line class="st5" x1="353.86" y1="333.75" x2="354.01" y2="343.83"/>
	<line class="st5" x1="364.37" y1="331.08" x2="364.52" y2="341.17"/>
	<line class="st5" x1="373.77" y1="326.67" x2="373.91" y2="335.97"/>
	<line class="st5" x1="381.44" y1="320.06" x2="381.32" y2="329.51"/>
	<line class="st5" x1="331.16" y1="334" x2="331.23" y2="344.08"/>
	<line class="st5" x1="320.6" y1="331.57" x2="320.67" y2="341.65"/>
	<line class="st5" x1="311.1" y1="327.37" x2="311.16" y2="336.67"/>
	<line class="st5" x1="303.29" y1="320.92" x2="303.61" y2="330.37"/>
	<g>
		<g>
			<path class="st1" d="M384.72,291.46c0.37,1.59-0.17,13.53-0.87,15.25c-1.3,5.47-6,10.71-13.99,14.61
				c-17.53,8.57-44.21,7.51-59.59-2.37c-7.17-4.6-11.09-9.32-11.24-15.27c-0.27-3.21-0.46-12.19-0.46-12.19
				c0.54-1.97,2.83,0.05,4.25-1.8c2.34-3.64,6.29-7,11.85-9.71c17.53-8.57,44.21-7.51,59.59,2.37
				C380.73,286.52,384.21,286.35,384.72,291.46z"/>
			
				<ellipse transform="matrix(0.9999 -0.0114 0.0114 0.9999 -3.2945 3.9005)" class="st2" cx="341.68" cy="291.93" rx="43.1" ry="24.39"/>
			
				<ellipse transform="matrix(0.9999 -0.0114 0.0114 0.9999 -3.2793 3.9002)" class="st3" cx="341.66" cy="290.6" rx="43.1" ry="24.39"/>
			
				<ellipse transform="matrix(0.9999 -0.0114 0.0114 0.9999 -3.2716 3.8992)" class="st2" cx="341.62" cy="289.96" rx="30.13" ry="17.05"/>
			<path class="st4" d="M322.29,279.14c12.75-6.15,31.76-5.35,42.45,1.78c4.26,2.84,6.56,6.26,6.97,9.74
				c0.4-4.17-1.88-8.42-6.99-11.83c-10.69-7.13-29.7-7.93-42.45-1.78c-7.67,3.7-11.33,9.06-10.7,14.31
				C312,286.81,315.64,282.34,322.29,279.14z"/>
			<path class="st3" d="M328.36,295.71c-1.81-1.48-3.3-3.57-3.34-5.46l5.94-0.42c0.37,1.89,1.17,3.27,2.85,4.37
				c1.97,1.28,3.7,1.41,5.42,0.54c3.84-1.96-5.5-7.94,1.22-11.36c3.66-1.86,8.23-1.83,12.24-0.04l3.84-1.96l3.41,2.21l-3.77,1.92
				c1.91,1.63,2.33,3.29,2.17,4.96l-5.73-0.09c-0.03-1.45-0.49-2.48-1.96-3.44c-1.69-1.1-3.31-1.33-4.99-0.47
				c-3.55,1.8,6.02,7.68-1.11,11.3c-3.58,1.82-8.21,2.02-12.64,0.08l-3.88,1.97l-3.41-2.21L328.36,295.71z"/>
		</g>
	</g>
	<line class="st5" x1="342.58" y1="316.75" x2="342.8" y2="327.11"/>
	<line class="st5" x1="353.66" y1="315.86" x2="353.81" y2="325.94"/>
	<line class="st5" x1="364.17" y1="313.19" x2="364.32" y2="323.27"/>
	<line class="st5" x1="373.57" y1="308.78" x2="373.71" y2="318.08"/>
	<line class="st5" x1="381.24" y1="302.17" x2="381.13" y2="311.62"/>
	<line class="st5" x1="330.97" y1="316.11" x2="331.04" y2="326.19"/>
	<line class="st5" x1="320.4" y1="313.68" x2="320.47" y2="323.76"/>
	<line class="st5" x1="310.9" y1="309.47" x2="310.97" y2="318.77"/>
	<line class="st5" x1="303.09" y1="303.03" x2="303.41" y2="312.48"/>
	<g>
		<g>
			<path class="st1" d="M384.5,272.34c0.37,1.59-0.17,13.53-0.87,15.25c-1.3,5.47-6,10.71-13.99,14.61
				c-17.53,8.57-44.21,7.51-59.59-2.37c-7.17-4.6-11.09-9.32-11.24-15.27c-0.27-3.21-0.46-12.19-0.46-12.19
				c0.54-1.97,2.83,0.05,4.25-1.8c2.34-3.64,6.29-7,11.85-9.71c17.53-8.57,44.21-7.51,59.59,2.37
				C380.52,267.41,384,267.24,384.5,272.34z"/>
			
				<ellipse transform="matrix(0.9999 -0.0114 0.0114 0.9999 -3.0773 3.8969)" class="st2" cx="341.47" cy="272.82" rx="43.1" ry="24.39"/>
			
				<ellipse transform="matrix(0.9999 -0.0114 0.0114 0.9999 -3.0622 3.8965)" class="st3" cx="341.45" cy="271.49" rx="43.1" ry="24.39"/>
			
				<ellipse transform="matrix(0.9999 -0.0114 0.0114 0.9999 -3.0544 3.8954)" class="st2" cx="341.41" cy="270.85" rx="30.13" ry="17.05"/>
			<path class="st4" d="M322.08,260.02c12.75-6.15,31.76-5.35,42.45,1.78c4.26,2.84,6.56,6.26,6.97,9.74
				c0.4-4.17-1.88-8.42-6.99-11.83c-10.69-7.13-29.7-7.93-42.45-1.78c-7.67,3.7-11.33,9.06-10.7,14.31
				C311.79,267.69,315.43,263.23,322.08,260.02z"/>
			<path class="st3" d="M328.15,276.59c-1.81-1.48-3.3-3.57-3.34-5.46l5.94-0.42c0.37,1.89,1.17,3.27,2.85,4.37
				c1.97,1.28,3.7,1.41,5.42,0.54c3.84-1.96-5.5-7.94,1.22-11.36c3.66-1.86,8.23-1.83,12.24-0.04l3.84-1.96l3.41,2.21l-3.77,1.92
				c1.91,1.63,2.33,3.29,2.17,4.96l-5.73-0.09c-0.03-1.45-0.49-2.48-1.96-3.44c-1.69-1.1-3.31-1.33-4.99-0.47
				c-3.55,1.8,6.02,7.68-1.11,11.3c-3.58,1.82-8.21,2.02-12.64,0.08l-3.88,1.97l-3.41-2.21L328.15,276.59z"/>
		</g>
	</g>
	<line class="st5" x1="342.37" y1="297.63" x2="342.59" y2="308"/>
	<line class="st5" x1="353.45" y1="296.74" x2="353.6" y2="306.82"/>
	<line class="st5" x1="363.96" y1="294.08" x2="364.11" y2="304.16"/>
	<line class="st5" x1="373.36" y1="289.67" x2="373.5" y2="298.96"/>
	<line class="st5" x1="381.03" y1="283.05" x2="380.91" y2="292.5"/>
	<line class="st5" x1="330.75" y1="296.99" x2="330.83" y2="307.08"/>
	<line class="st5" x1="320.19" y1="294.56" x2="320.26" y2="304.64"/>
	<line class="st5" x1="310.69" y1="290.36" x2="310.75" y2="299.66"/>
	<line class="st5" x1="302.88" y1="283.92" x2="303.2" y2="293.36"/>
	<g>
		<g>
			<path class="st1" d="M384.31,254.3c0.37,1.59-0.17,13.53-0.87,15.25c-1.3,5.47-6,10.71-13.99,14.61
				c-17.53,8.57-44.21,7.51-59.59-2.37c-7.17-4.6-11.09-9.32-11.24-15.27c-0.27-3.21-0.46-12.19-0.46-12.19
				c0.54-1.97,2.83,0.05,4.25-1.8c2.34-3.64,6.29-7,11.85-9.71c17.53-8.57,44.21-7.51,59.59,2.37
				C380.32,249.36,383.8,249.2,384.31,254.3z"/>
			
				<ellipse transform="matrix(0.9999 -0.0114 0.0114 0.9999 -2.8724 3.8935)" class="st2" cx="341.27" cy="254.78" rx="43.1" ry="24.39"/>
			
				<ellipse transform="matrix(0.9999 -0.0114 0.0114 0.9999 -2.8574 3.8933)" class="st3" cx="341.25" cy="253.45" rx="43.1" ry="24.39"/>
			
				<ellipse transform="matrix(0.9999 -0.0114 0.0114 0.9999 -2.8497 3.8923)" class="st2" cx="341.21" cy="252.81" rx="30.13" ry="17.05"/>
			<path class="st4" d="M321.88,241.98c12.75-6.15,31.76-5.35,42.45,1.78c4.26,2.84,6.56,6.26,6.97,9.74
				c0.4-4.17-1.88-8.42-6.99-11.83c-10.69-7.13-29.7-7.93-42.45-1.78c-7.67,3.7-11.33,9.06-10.7,14.31
				C311.59,249.65,315.23,245.19,321.88,241.98z"/>
			<path class="st3" d="M327.95,258.55c-1.81-1.48-3.3-3.57-3.34-5.46l5.94-0.42c0.37,1.89,1.17,3.27,2.85,4.37
				c1.97,1.28,3.7,1.41,5.42,0.54c3.84-1.96-5.5-7.94,1.22-11.36c3.66-1.86,8.23-1.83,12.24-0.04l3.84-1.96l3.41,2.21l-3.77,1.92
				c1.91,1.63,2.33,3.29,2.17,4.96l-5.73-0.09c-0.03-1.45-0.49-2.48-1.96-3.44c-1.69-1.1-3.31-1.33-4.99-0.47
				c-3.55,1.8,6.02,7.68-1.11,11.3c-3.58,1.82-8.21,2.02-12.64,0.08l-3.88,1.97l-3.41-2.21L327.95,258.55z"/>
		</g>
	</g>
	<line class="st5" x1="342.17" y1="279.59" x2="342.39" y2="289.96"/>
	<line class="st5" x1="353.25" y1="278.7" x2="353.4" y2="288.78"/>
	<line class="st5" x1="363.76" y1="276.03" x2="363.91" y2="286.12"/>
	<line class="st5" x1="373.16" y1="271.63" x2="373.3" y2="280.92"/>
	<line class="st5" x1="380.83" y1="265.01" x2="380.71" y2="274.46"/>
	<line class="st5" x1="330.56" y1="278.95" x2="330.63" y2="289.03"/>
	<line class="st5" x1="319.99" y1="276.52" x2="320.06" y2="286.6"/>
	<line class="st5" x1="310.49" y1="272.32" x2="310.56" y2="281.62"/>
	<line class="st5" x1="302.68" y1="265.87" x2="303" y2="275.32"/>
	<g>
		<g>
			<path class="st1" d="M318.63,348.05c0.37,1.59-0.17,13.53-0.87,15.25c-1.3,5.47-6,10.71-13.99,14.61
				c-17.53,8.57-44.21,7.51-59.59-2.37c-7.17-4.6-11.09-9.32-11.24-15.27c-0.27-3.21-0.46-12.19-0.46-12.19
				c0.54-1.97,2.83,0.05,4.25-1.8c2.34-3.64,6.29-7,11.85-9.71c17.53-8.57,44.21-7.51,59.59,2.37
				C314.65,343.12,318.13,342.95,318.63,348.05z"/>
			
				<ellipse transform="matrix(0.9999 -0.0114 0.0114 0.9999 -3.9419 3.1536)" class="st2" cx="275.59" cy="348.53" rx="43.1" ry="24.39"/>
			
				<ellipse transform="matrix(0.9999 -0.0114 0.0114 0.9999 -3.9267 3.1532)" class="st3" cx="275.58" cy="347.2" rx="43.1" ry="24.39"/>
			
				<ellipse transform="matrix(0.9999 -0.0114 0.0114 0.9999 -3.9188 3.1522)" class="st2" cx="275.54" cy="346.56" rx="30.13" ry="17.05"/>
			<path class="st4" d="M256.21,335.73c12.75-6.15,31.76-5.35,42.45,1.78c4.26,2.84,6.56,6.26,6.97,9.74
				c0.4-4.17-1.88-8.42-6.99-11.83c-10.69-7.13-29.7-7.93-42.45-1.78c-7.67,3.7-11.33,9.06-10.7,14.31
				C245.92,343.4,249.56,338.94,256.21,335.73z"/>
			<path class="st3" d="M262.28,352.3c-1.81-1.48-3.3-3.57-3.34-5.46l5.94-0.42c0.37,1.89,1.17,3.27,2.85,4.37
				c1.97,1.28,3.7,1.41,5.42,0.54c3.84-1.96-5.5-7.94,1.22-11.36c3.66-1.86,8.23-1.83,12.24-0.04l3.84-1.96l3.41,2.21l-3.77,1.92
				c1.91,1.63,2.33,3.29,2.17,4.96l-5.73-0.09c-0.03-1.45-0.49-2.48-1.96-3.44c-1.69-1.1-3.31-1.33-4.99-0.47
				c-3.55,1.8,6.02,7.68-1.11,11.3c-3.58,1.82-8.21,2.02-12.64,0.08l-3.88,1.97l-3.41-2.21L262.28,352.3z"/>
		</g>
	</g>
	<line class="st5" x1="276.49" y1="373.35" x2="276.72" y2="383.71"/>
	<line class="st5" x1="287.58" y1="372.45" x2="287.73" y2="382.53"/>
	<line class="st5" x1="298.08" y1="369.79" x2="298.24" y2="379.87"/>
	<line class="st5" x1="307.49" y1="365.38" x2="307.63" y2="374.68"/>
	<line class="st5" x1="315.15" y1="358.76" x2="315.04" y2="368.21"/>
	<line class="st5" x1="264.88" y1="372.7" x2="264.95" y2="382.79"/>
	<line class="st5" x1="254.32" y1="370.27" x2="254.39" y2="380.35"/>
	<line class="st5" x1="244.82" y1="366.07" x2="244.88" y2="375.37"/>
	<line class="st5" x1="237.01" y1="359.63" x2="237.33" y2="369.07"/>
	<g>
		<g>
			<path class="st1" d="M318.44,330.16c0.37,1.59-0.17,13.53-0.87,15.25c-1.3,5.47-6,10.71-13.99,14.61
				c-17.53,8.57-44.21,7.51-59.59-2.37c-7.17-4.6-11.09-9.32-11.24-15.27c-0.27-3.21-0.46-12.19-0.46-12.19
				c0.54-1.97,2.83,0.05,4.25-1.8c2.34-3.64,6.29-7,11.85-9.71c17.53-8.57,44.21-7.51,59.59,2.37
				C314.45,325.22,317.93,325.06,318.44,330.16z"/>
			
				<ellipse transform="matrix(0.9999 -0.0114 0.0114 0.9999 -3.7384 3.1499)" class="st2" cx="275.4" cy="330.64" rx="43.1" ry="24.39"/>
			
				<ellipse transform="matrix(0.9999 -0.0114 0.0114 0.9999 -3.7235 3.1499)" class="st3" cx="275.38" cy="329.31" rx="43.1" ry="24.39"/>
			
				<ellipse transform="matrix(0.9999 -0.0114 0.0114 0.9999 -3.7157 3.1489)" class="st2" cx="275.34" cy="328.67" rx="30.13" ry="17.05"/>
			<path class="st4" d="M256.01,317.84c12.75-6.15,31.76-5.35,42.45,1.78c4.26,2.84,6.56,6.26,6.97,9.74
				c0.4-4.17-1.88-8.42-6.99-11.83c-10.69-7.13-29.7-7.93-42.45-1.78c-7.67,3.7-11.33,9.06-10.7,14.31
				C245.72,325.51,249.36,321.05,256.01,317.84z"/>
			<path class="st3" d="M262.08,334.41c-1.81-1.48-3.3-3.57-3.34-5.46l5.94-0.42c0.37,1.89,1.17,3.27,2.85,4.37
				c1.97,1.28,3.7,1.41,5.42,0.54c3.84-1.96-5.5-7.94,1.22-11.36c3.66-1.86,8.23-1.83,12.24-0.04l3.84-1.96l3.41,2.21l-3.77,1.92
				c1.91,1.63,2.33,3.29,2.17,4.96l-5.73-0.09c-0.03-1.45-0.49-2.48-1.96-3.44c-1.69-1.1-3.31-1.33-4.99-0.47
				c-3.55,1.8,6.02,7.68-1.11,11.3c-3.58,1.82-8.21,2.02-12.64,0.08l-3.88,1.97l-3.41-2.21L262.08,334.41z"/>
		</g>
	</g>
	<line class="st5" x1="276.3" y1="355.45" x2="276.52" y2="365.82"/>
	<line class="st5" x1="287.38" y1="354.56" x2="287.53" y2="364.64"/>
	<line class="st5" x1="297.89" y1="351.89" x2="298.04" y2="361.98"/>
	<line class="st5" x1="307.29" y1="347.49" x2="307.43" y2="356.78"/>
	<line class="st5" x1="314.96" y1="340.87" x2="314.84" y2="350.32"/>
	<line class="st5" x1="264.69" y1="354.81" x2="264.76" y2="364.89"/>
	<line class="st5" x1="254.12" y1="352.38" x2="254.19" y2="362.46"/>
	<line class="st5" x1="244.62" y1="348.18" x2="244.69" y2="357.48"/>
	<line class="st5" x1="236.81" y1="341.73" x2="237.13" y2="351.18"/>
	<g>
		<g>
			<path class="st1" d="M318.22,311.05c0.37,1.59-0.17,13.53-0.87,15.25c-1.3,5.47-6,10.71-13.99,14.61
				c-17.53,8.57-44.21,7.51-59.59-2.37c-7.17-4.6-11.09-9.32-11.24-15.27c-0.27-3.21-0.46-12.19-0.46-12.19
				c0.54-1.97,2.83,0.05,4.25-1.8c2.34-3.64,6.29-7,11.85-9.71c17.53-8.57,44.21-7.51,59.59,2.37
				C314.24,306.11,317.72,305.94,318.22,311.05z"/>
			
				<ellipse transform="matrix(0.9999 -0.0114 0.0114 0.9999 -3.5212 3.1463)" class="st2" cx="275.19" cy="311.52" rx="43.1" ry="24.39"/>
			
				<ellipse transform="matrix(0.9999 -0.0114 0.0114 0.9999 -3.5063 3.1462)" class="st3" cx="275.17" cy="310.19" rx="43.1" ry="24.39"/>
			
				<ellipse transform="matrix(0.9999 -0.0114 0.0114 0.9999 -3.4986 3.1453)" class="st2" cx="275.13" cy="309.55" rx="30.13" ry="17.05"/>
			<path class="st4" d="M255.8,298.73c12.75-6.15,31.76-5.35,42.45,1.78c4.26,2.84,6.56,6.26,6.97,9.74
				c0.4-4.17-1.88-8.42-6.99-11.83c-10.69-7.13-29.7-7.93-42.45-1.78c-7.67,3.7-11.33,9.06-10.7,14.31
				C245.51,306.4,249.15,301.93,255.8,298.73z"/>
			<path class="st3" d="M261.87,315.3c-1.81-1.48-3.3-3.57-3.34-5.46l5.94-0.42c0.37,1.89,1.17,3.27,2.85,4.37
				c1.97,1.28,3.7,1.41,5.42,0.54c3.84-1.96-5.5-7.94,1.22-11.36c3.66-1.86,8.23-1.83,12.24-0.04l3.84-1.96l3.41,2.21l-3.77,1.92
				c1.91,1.63,2.33,3.29,2.17,4.96l-5.73-0.09c-0.03-1.45-0.49-2.48-1.96-3.44c-1.69-1.1-3.31-1.33-4.99-0.47
				c-3.55,1.8,6.02,7.68-1.11,11.3c-3.58,1.82-8.21,2.02-12.64,0.08l-3.88,1.97l-3.41-2.21L261.87,315.3z"/>
		</g>
	</g>
	<line class="st5" x1="276.09" y1="336.34" x2="276.31" y2="346.7"/>
	<line class="st5" x1="287.17" y1="335.44" x2="287.32" y2="345.53"/>
	<line class="st5" x1="297.68" y1="332.78" x2="297.83" y2="342.86"/>
	<line class="st5" x1="307.08" y1="328.37" x2="307.22" y2="337.67"/>
	<line class="st5" x1="314.75" y1="321.76" x2="314.63" y2="331.21"/>
	<line class="st5" x1="264.47" y1="335.7" x2="264.54" y2="345.78"/>
	<line class="st5" x1="253.98" y1="343.35" x2="253.91" y2="333.26"/>
	<line class="st5" x1="244.41" y1="329.06" x2="244.47" y2="338.36"/>
	<line class="st5" x1="236.6" y1="322.62" x2="236.92" y2="332.07"/>
	<g>
		<g>
			<path class="st1" d="M318.02,293c0.37,1.59-0.17,13.53-0.87,15.25c-1.3,5.47-6,10.71-13.99,14.61
				c-17.53,8.57-44.21,7.51-59.59-2.37c-7.17-4.6-11.09-9.32-11.24-15.27c-0.27-3.21-0.46-12.19-0.46-12.19
				c0.54-1.97,2.83,0.05,4.25-1.8c2.34-3.64,6.29-7,11.85-9.71c17.53-8.57,44.21-7.51,59.59,2.37
				C314.04,288.07,317.52,287.9,318.02,293z"/>
			
				<ellipse transform="matrix(0.9999 -0.0114 0.0114 0.9999 -3.3165 3.143)" class="st2" cx="274.99" cy="293.48" rx="43.1" ry="24.39"/>
			
				<ellipse transform="matrix(0.9999 -0.0114 0.0114 0.9999 -3.3012 3.1426)" class="st3" cx="274.97" cy="292.15" rx="43.1" ry="24.39"/>
			<linearGradient id="SVGID_3_" gradientUnits="userSpaceOnUse" x1="244.8011" y1="291.5101" x2="305.0656" y2="291.5101">
				<stop  offset="0" style="stop-color:#265B9C"/>
				<stop  offset="1" style="stop-color:#72C1D9"/>
			</linearGradient>
			<path class="st19" d="M298.02,280.38c-10.69-7.13-29.7-7.93-42.45-1.78c-12.75,6.15-14.42,16.91-3.73,24.05
				c10.69,7.13,29.7,7.93,42.45,1.78C307.04,298.28,308.72,287.51,298.02,280.38z"/>
			<path class="st4" d="M255.6,280.68c12.75-6.15,31.76-5.35,42.45,1.78c4.26,2.84,6.56,6.26,6.97,9.74
				c0.4-4.17-1.88-8.42-6.99-11.83c-10.69-7.13-29.7-7.93-42.45-1.78c-7.67,3.7-11.33,9.06-10.7,14.31
				C245.31,288.35,248.95,283.89,255.6,280.68z"/>
			<path class="st3" d="M261.67,297.25c-1.81-1.48-3.3-3.57-3.34-5.46l5.94-0.42c0.37,1.89,1.17,3.27,2.85,4.37
				c1.97,1.28,3.7,1.41,5.42,0.54c3.84-1.96-5.5-7.94,1.22-11.36c3.66-1.86,8.23-1.83,12.24-0.04l3.84-1.96l3.41,2.21l-3.77,1.92
				c1.91,1.63,2.33,3.29,2.17,4.96l-5.73-0.09c-0.03-1.45-0.49-2.48-1.96-3.44c-1.69-1.1-3.31-1.33-4.99-0.47
				c-3.55,1.8,6.02,7.68-1.11,11.3c-3.58,1.82-8.21,2.02-12.64,0.08l-3.88,1.97l-3.41-2.21L261.67,297.25z"/>
		</g>
	</g>
	<line class="st5" x1="275.89" y1="318.3" x2="276.11" y2="328.66"/>
	<line class="st5" x1="286.97" y1="317.4" x2="287.12" y2="327.49"/>
	<line class="st5" x1="297.48" y1="314.74" x2="297.63" y2="324.82"/>
	<line class="st5" x1="306.88" y1="310.33" x2="307.02" y2="319.63"/>
	<line class="st5" x1="314.55" y1="303.71" x2="314.43" y2="313.16"/>
	<line class="st5" x1="264.27" y1="317.65" x2="264.35" y2="327.74"/>
	<line class="st5" x1="253.71" y1="315.22" x2="253.78" y2="325.3"/>
	<line class="st5" x1="244.21" y1="311.02" x2="244.27" y2="320.32"/>
	<line class="st5" x1="236.4" y1="304.58" x2="236.72" y2="314.02"/>
	<g>
		<g>
			<g>
				<path class="st1" d="M383.63,235.82c0.37,1.59-0.17,13.53-0.87,15.25c-1.3,5.47-6,10.71-13.99,14.61
					c-17.53,8.57-44.21,7.51-59.59-2.37c-7.17-4.6-11.09-9.32-11.24-15.27c-0.27-3.21-0.46-12.19-0.46-12.19
					c0.54-1.97,2.83,0.05,4.25-1.8c2.34-3.64,6.29-7,11.85-9.71c17.53-8.57,44.21-7.51,59.59,2.37
					C379.65,230.89,383.13,230.72,383.63,235.82z"/>
				
					<ellipse transform="matrix(0.9999 -0.0114 0.0114 0.9999 -2.6625 3.8846)" class="st2" cx="340.59" cy="236.3" rx="43.1" ry="24.39"/>
				
					<ellipse transform="matrix(0.9999 -0.0114 0.0114 0.9999 -2.6474 3.8844)" class="st3" cx="340.58" cy="234.97" rx="43.1" ry="24.39"/>
				<linearGradient id="SVGID_4_" gradientUnits="userSpaceOnUse" x1="310.4084" y1="234.3297" x2="370.6729" y2="234.3297">
					<stop  offset="0" style="stop-color:#265B9C"/>
					<stop  offset="1" style="stop-color:#72C1D9"/>
				</linearGradient>
				<path class="st20" d="M363.63,223.2c-10.69-7.13-29.7-7.93-42.45-1.78c-12.75,6.15-14.42,16.91-3.73,24.05
					c10.69,7.13,29.7,7.93,42.45,1.78C372.65,241.1,374.32,230.33,363.63,223.2z"/>
				<path class="st4" d="M321.21,223.5c12.75-6.15,31.76-5.35,42.45,1.78c4.26,2.84,6.56,6.26,6.97,9.74
					c0.4-4.17-1.88-8.42-6.99-11.83c-10.69-7.13-29.7-7.93-42.45-1.78c-7.67,3.7-11.33,9.06-10.7,14.31
					C310.92,231.17,314.55,226.71,321.21,223.5z"/>
				<path class="st3" d="M327.28,240.07c-1.81-1.48-3.3-3.57-3.34-5.46l5.94-0.42c0.37,1.89,1.17,3.27,2.85,4.37
					c1.97,1.28,3.7,1.41,5.42,0.54c3.84-1.96-5.5-7.94,1.22-11.36c3.66-1.86,8.23-1.83,12.24-0.04l3.84-1.96l3.41,2.21l-3.77,1.92
					c1.91,1.63,2.33,3.29,2.17,4.96l-5.73-0.09c-0.03-1.45-0.49-2.48-1.96-3.44c-1.69-1.1-3.31-1.33-4.99-0.47
					c-3.55,1.8,6.02,7.68-1.11,11.3c-3.58,1.82-8.21,2.02-12.64,0.08l-3.88,1.97l-3.41-2.21L327.28,240.07z"/>
			</g>
		</g>
		<line class="st5" x1="341.49" y1="261.12" x2="341.72" y2="271.48"/>
		<line class="st5" x1="352.57" y1="260.22" x2="352.73" y2="270.3"/>
		<line class="st5" x1="363.08" y1="257.56" x2="363.24" y2="267.64"/>
		<line class="st5" x1="372.49" y1="253.15" x2="372.63" y2="262.45"/>
		<line class="st5" x1="380.15" y1="246.53" x2="380.04" y2="255.98"/>
		<line class="st5" x1="329.88" y1="260.47" x2="329.95" y2="270.56"/>
		<line class="st5" x1="319.32" y1="258.04" x2="319.39" y2="268.12"/>
		<line class="st5" x1="309.82" y1="253.84" x2="309.88" y2="263.14"/>
		<line class="st5" x1="302.01" y1="247.4" x2="302.33" y2="256.84"/>
	</g>
	<g>
		<path class="st8" d="M333.34,431.58l126.55-57.99c0.4-0.18,0.35-0.58-0.11-0.88L408,338.9c-0.46-0.3-1.16-0.4-1.56-0.21
			l-126.55,57.99c-0.4,0.18-0.35,0.58,0.11,0.88l38.23,32.85C318.23,430.41,332.94,431.77,333.34,431.58z"/>
		<path class="st21" d="M441.87,352.89l-36.68-3.57l-14.17-9.25c-0.45-0.29-1.13-0.39-1.52-0.21l-123.36,56.53
			c-0.39,0.18-0.34,0.56,0.11,0.86l50.47,32.96c0.45,0.29,1.13,0.39,1.52,0.21l123.36-56.53c0.18-0.08,0.26-0.21,0.26-0.35l0.01,0
			V352.89z"/>
		<path class="st21" d="M265.89,396.66l-0.02,0v-20.64l51.57,14.97l0.79,39.42c-0.39,0.18-1.07,0.09-1.52-0.21l-50.47-32.96
			C265.95,397.06,265.85,396.85,265.89,396.66z"/>
		<g>
			<linearGradient id="SVGID_5_" gradientUnits="userSpaceOnUse" x1="265.8705" y1="364.5073" x2="441.8667" y2="364.5073">
				<stop  offset="0" style="stop-color:#265B9C"/>
				<stop  offset="1" style="stop-color:#72C1D9"/>
			</linearGradient>
			<path class="st22" d="M318.24,409.79l123.36-56.53c0.39-0.18,0.34-0.56-0.11-0.86l-50.47-32.96c-0.45-0.29-1.13-0.39-1.52-0.21
				l-123.36,56.53c-0.39,0.18-0.34,0.56,0.11,0.86l50.47,32.96C317.17,409.87,317.85,409.96,318.24,409.79z"/>
			<g>
				<linearGradient id="SVGID_6_" gradientUnits="userSpaceOnUse" x1="335.7554" y1="363.463" x2="371.9818" y2="363.463">
					<stop  offset="0" style="stop-color:#091946"/>
					<stop  offset="0.8118" style="stop-color:#1A3474"/>
				</linearGradient>
				<path class="st23" d="M342.1,355.78c7.6-3.48,19.04-2.87,25.54,1.38c6.5,4.25,5.61,10.51-1.99,14
					c-7.6,3.48-19.04,2.87-25.54-1.38C333.6,365.53,334.49,359.26,342.1,355.78z"/>
				<linearGradient id="SVGID_7_" gradientUnits="userSpaceOnUse" x1="282.3568" y1="363.2829" x2="423.2493" y2="363.2829">
					<stop  offset="0" style="stop-color:#091946"/>
					<stop  offset="0.8118" style="stop-color:#1A3474"/>
				</linearGradient>
				<path class="st24" d="M282.79,374.89c0.09,0.96,0.75,1.91,1.86,2.63l32.09,20.96c1,0.65,2.23,1.06,3.42,1.17
					c1.03,0.1,2.03-0.02,2.81-0.37l98.62-45.19c0.97-0.45,1.53-1.24,1.53-2.17c0-0.02,0-0.04-0.01-0.07l0.14-0.06l-0.15-0.1
					c-0.09-0.96-0.75-1.91-1.86-2.63l-32.09-20.96c-1.87-1.22-4.55-1.56-6.23-0.8l-98.62,45.19c-0.89,0.41-1.42,1.1-1.51,1.93
					l-0.43,0.2L282.79,374.89z M312.27,392.48L293,379.89c4.07-2.47,4.71-6.14,1.64-9.06l82.1-37.62c4.72,2.16,11.43,2.46,16.6,0.7
					l19.27,12.59c-4.16,2.53-4.73,6.31-1.42,9.27l-82,37.58C324.46,391.03,317.56,390.68,312.27,392.48z"/>
			</g>
		</g>
		<polygon class="st2" points="378.54,382.15 326.03,348.31 342.87,340.6 394.04,375.05 		"/>
		<linearGradient id="SVGID_8_" gradientUnits="userSpaceOnUse" x1="265.8705" y1="404.418" x2="320.1968" y2="404.418">
			<stop  offset="0" style="stop-color:#265B9C"/>
			<stop  offset="1" style="stop-color:#72C1D9"/>
		</linearGradient>
		<line class="st25" x1="265.87" y1="387.98" x2="320.2" y2="420.86"/>
		<linearGradient id="SVGID_9_" gradientUnits="userSpaceOnUse" x1="319.9299" y1="392.3585" x2="441.8571" y2="392.3585">
			<stop  offset="0" style="stop-color:#265B9C"/>
			<stop  offset="1" style="stop-color:#72C1D9"/>
		</linearGradient>
		<line class="st26" x1="319.93" y1="420.39" x2="441.86" y2="364.32"/>
		<polygon class="st27" points="394.04,395.67 394.04,375.05 378.54,382.15 378.54,402.77 		"/>
	</g>
	<g>
		
			<ellipse transform="matrix(0.9984 -0.0569 0.0569 0.9984 -23.046 26.4804)" class="st8" cx="453.44" cy="417.9" rx="40.75" ry="19.52"/>
		<g>
			<path class="st1" d="M482.85,401.18c0.37,1.59-0.17,13.53-0.87,15.25c-1.3,5.47-6,10.71-13.99,14.61
				c-17.53,8.57-44.21,7.51-59.59-2.37c-7.17-4.6-11.09-9.32-11.24-15.27c-0.27-3.21-0.46-12.19-0.46-12.19
				c0.54-1.97,2.83,0.05,4.25-1.8c2.34-3.64,6.29-7,11.85-9.71c17.53-8.57,44.21-7.51,59.59,2.37
				C478.87,396.24,482.35,396.08,482.85,401.18z"/>
			
				<ellipse transform="matrix(0.9999 -0.0114 0.0114 0.9999 -4.5347 5.0225)" class="st2" cx="439.81" cy="401.66" rx="43.1" ry="24.39"/>
			
				<ellipse transform="matrix(0.9999 -0.0114 0.0114 0.9999 -4.5197 5.0223)" class="st3" cx="439.8" cy="400.33" rx="43.1" ry="24.39"/>
			<linearGradient id="SVGID_10_" gradientUnits="userSpaceOnUse" x1="409.6262" y1="399.6871" x2="469.8907" y2="399.6871">
				<stop  offset="0" style="stop-color:#265B9C"/>
				<stop  offset="1" style="stop-color:#72C1D9"/>
			</linearGradient>
			<path class="st28" d="M462.85,388.56c-10.69-7.13-29.7-7.93-42.45-1.78c-12.75,6.15-14.42,16.91-3.73,24.05
				c10.69,7.13,29.7,7.93,42.45,1.78C471.87,406.45,473.54,395.69,462.85,388.56z"/>
			<path class="st4" d="M420.42,388.86c12.75-6.15,31.76-5.35,42.45,1.78c4.26,2.84,6.56,6.26,6.97,9.74
				c0.4-4.17-1.88-8.42-6.99-11.83c-10.69-7.13-29.7-7.93-42.45-1.78c-7.67,3.7-11.33,9.06-10.7,14.31
				C410.14,396.53,413.77,392.07,420.42,388.86z"/>
			<path class="st3" d="M426.5,405.43c-1.81-1.48-3.3-3.57-3.34-5.46l5.94-0.42c0.37,1.89,1.17,3.27,2.85,4.37
				c1.97,1.28,3.7,1.41,5.42,0.54c3.84-1.96-5.5-7.94,1.22-11.36c3.66-1.86,8.23-1.83,12.24-0.04l3.84-1.96l3.41,2.21l-3.77,1.92
				c1.91,1.63,2.33,3.29,2.17,4.96l-5.73-0.09c-0.03-1.45-0.49-2.48-1.96-3.44c-1.69-1.1-3.31-1.33-4.99-0.47
				c-3.55,1.8,6.02,7.68-1.11,11.3c-3.58,1.82-8.21,2.02-12.64,0.08l-3.88,1.97l-3.41-2.21L426.5,405.43z"/>
		</g>
		<line class="st5" x1="440.71" y1="426.47" x2="440.94" y2="436.84"/>
		<line class="st5" x1="451.79" y1="425.58" x2="451.94" y2="435.66"/>
		<line class="st5" x1="462.3" y1="422.91" x2="462.45" y2="433"/>
		<line class="st5" x1="471.71" y1="418.51" x2="471.85" y2="427.8"/>
		<line class="st5" x1="479.37" y1="411.89" x2="479.26" y2="421.34"/>
		<line class="st5" x1="429.1" y1="425.83" x2="429.17" y2="435.91"/>
		<line class="st5" x1="418.53" y1="423.4" x2="418.61" y2="433.48"/>
		<line class="st5" x1="409.03" y1="419.2" x2="409.1" y2="428.5"/>
		<line class="st5" x1="401.23" y1="412.75" x2="401.55" y2="422.2"/>
		<line class="st5" x1="471.52" y1="401.74" x2="471.66" y2="411.04"/>
		<line class="st5" x1="479.19" y1="395.12" x2="479.07" y2="404.57"/>
	</g>
	<g>
		
			<ellipse transform="matrix(0.9984 -0.0569 0.0569 0.9984 -22.9258 13.7774)" class="st8" cx="230.45" cy="409.44" rx="40.75" ry="19.52"/>
		<g>
			<path class="st1" d="M259.86,392.72c0.37,1.59-0.17,13.53-0.87,15.25c-1.3,5.47-6,10.71-13.99,14.61
				c-17.53,8.57-44.21,7.51-59.59-2.37c-7.17-4.6-11.09-9.32-11.24-15.27c-0.27-3.21-0.46-12.19-0.46-12.19
				c0.54-1.97,2.83,0.05,4.25-1.8c2.34-3.64,6.29-7,11.85-9.71c17.53-8.57,44.21-7.51,59.59,2.37
				C255.88,387.78,259.36,387.62,259.86,392.72z"/>
			
				<ellipse transform="matrix(0.9999 -0.0114 0.0114 0.9999 -4.453 2.4886)" class="st2" cx="216.82" cy="393.2" rx="43.1" ry="24.39"/>
			
				<ellipse transform="matrix(0.9999 -0.0114 0.0114 0.9999 -4.4379 2.4884)" class="st3" cx="216.81" cy="391.87" rx="43.1" ry="24.39"/>
			<linearGradient id="SVGID_11_" gradientUnits="userSpaceOnUse" x1="186.6393" y1="391.2268" x2="246.9038" y2="391.2268">
				<stop  offset="0" style="stop-color:#265B9C"/>
				<stop  offset="1" style="stop-color:#72C1D9"/>
			</linearGradient>
			<path class="st29" d="M239.86,380.1c-10.69-7.13-29.7-7.93-42.45-1.78c-12.75,6.15-14.42,16.91-3.73,24.05
				c10.69,7.13,29.7,7.93,42.45,1.78C248.88,397.99,250.55,387.23,239.86,380.1z"/>
			<path class="st4" d="M197.44,380.4c12.75-6.15,31.76-5.35,42.45,1.78c4.26,2.84,6.56,6.26,6.97,9.74
				c0.4-4.17-1.88-8.42-6.99-11.83c-10.69-7.13-29.7-7.93-42.45-1.78c-7.67,3.7-11.33,9.06-10.7,14.31
				C187.15,388.07,190.79,383.61,197.44,380.4z"/>
			<path class="st3" d="M203.51,396.97c-1.81-1.48-3.3-3.57-3.34-5.46l5.94-0.42c0.37,1.89,1.17,3.27,2.85,4.37
				c1.97,1.28,3.7,1.41,5.42,0.54c3.84-1.96-5.5-7.94,1.22-11.36c3.66-1.86,8.23-1.83,12.24-0.04l3.84-1.96l3.41,2.21l-3.77,1.92
				c1.91,1.63,2.33,3.29,2.17,4.96l-5.73-0.09c-0.03-1.45-0.49-2.48-1.96-3.44c-1.69-1.1-3.31-1.33-4.99-0.47
				c-3.55,1.8,6.02,7.68-1.11,11.3c-3.58,1.82-8.21,2.02-12.64,0.08l-3.88,1.97l-3.41-2.21L203.51,396.97z"/>
		</g>
		<line class="st5" x1="217.72" y1="418.01" x2="217.95" y2="428.38"/>
		<line class="st5" x1="228.81" y1="417.12" x2="228.96" y2="427.2"/>
		<line class="st5" x1="239.31" y1="414.45" x2="239.47" y2="424.54"/>
		<line class="st5" x1="248.72" y1="410.04" x2="248.86" y2="419.34"/>
		<line class="st5" x1="256.38" y1="403.43" x2="256.27" y2="412.88"/>
		<line class="st5" x1="206.11" y1="417.37" x2="206.18" y2="427.45"/>
		<line class="st5" x1="195.55" y1="414.94" x2="195.62" y2="425.02"/>
		<line class="st5" x1="186.05" y1="410.74" x2="186.11" y2="420.04"/>
		<line class="st5" x1="178.24" y1="404.29" x2="178.56" y2="413.74"/>
		<line class="st5" x1="248.53" y1="393.28" x2="248.67" y2="402.58"/>
		<line class="st5" x1="256.2" y1="386.66" x2="256.09" y2="396.11"/>
	</g>
	<g>
		<path class="st7" d="M417.09,227.54L417.09,227.54c-1.16-0.52-2.53,0-3.05,1.16l-1.81,4.03c-0.52,1.16,0,2.53,1.16,3.05v0
			c1.16,0.52,2.53,0,3.05-1.16l1.81-4.03C418.77,229.44,418.25,228.06,417.09,227.54z"/>
		<path class="st8" d="M497.5,353.61c-5.55-3-14.84-3.22-21.08-0.56c-0.56-1.28-1.78-2.49-3.67-3.51
			c-5.72-3.09-15.4-3.23-21.63-0.32c-6.23,2.91-6.64,7.78-0.92,10.87c5.55,3,14.84,3.22,21.08,0.56c0.56,1.28,1.78,2.49,3.67,3.51
			c5.72,3.09,15.4,3.23,21.63,0.32C502.8,361.56,503.22,356.69,497.5,353.61z"/>
		<path class="st11" d="M478.25,222.06c0,0,4.54,1.26,4.54,3.6c0,2.33-0.45,4.48-0.45,4.48l-15.27-3.22l1.58-6.3L478.25,222.06z"/>
		<path class="st11" d="M454.31,350.02l8.45-5.79c1.27-0.41,2.79-0.49,4.53,0.02c0.78,0.23,0.93-0.36,0.86,0.38l0.73,3.11
			c0.71,2.08-0.94,3.33-3.31,4.05l-8.08,2.31c-1.67,0.54-4.03,0.24-5.24-0.68l-0.34-0.26C450.69,352.25,452.52,350.99,454.31,350.02
			z"/>
		<path class="st30" d="M468.11,345.19c-0.14,2.41-6,2.08-5.86-0.33l0.45-7.83l5.86,0.33L468.11,345.19z"/>
		<path class="st11" d="M469.06,342.21c-2.47,1.83-4.92,1.76-7.36-0.19c0,0-4.12-48.45-2.75-73.34l18.48-5.77
			c-2.32,15.26-7.35,40.31-7.35,40.31C475.43,315.78,470.6,331.32,469.06,342.21z"/>
		<path class="st9" d="M477.42,262.91l-5.18,1.62c-1.42,9.04-3.63,20.86-5.21,29.04c-1.03,5.33-0.94,10.79,0,16.14
			c1.95,11.12-1.62,23.42-2.91,32.5c-0.36,0.27-0.73,0.5-1.09,0.68c2,1.04,4.01,0.82,6.03-0.68c1.37-9.68,5.34-23.03,2.45-34.7
			c-0.86-3.48-0.86-7.11-0.18-10.63C472.97,288.44,475.83,273.37,477.42,262.91z"/>
		<path class="st30" d="M488.99,351.23c0.25,2.4-5.59,3.01-5.84,0.6l-0.81-7.81l5.84-0.6L488.99,351.23z"/>
		<path class="st11" d="M489.43,348.3c-2.52,2.05-4.96,2.41-7.32,0.84c0,0-2.1-16.09-5.39-33.23c-2.55-13.27-6.33-26.59-7.2-37.15
			l17.17-10.01c-0.15,9.38,0.55,30.04,0.87,38.91c0.08,2.07,0.6,4.09,1.5,5.95C493.01,321.73,489.43,348.3,489.43,348.3z"/>
		<path class="st13" d="M457.47,269.84c0.59-8.54,0.69-20.9,0.15-31.63c1.02-14.74,6.96-19.81,16.01-15.78l3.77,1.28
			c10.79,6.81,16.5,6.9,13.68,18.62l-2.66,28.1C487.5,283.82,455.67,285.52,457.47,269.84z"/>
		<path class="st16" d="M491.08,242.33l-2.66,28.1c-0.54,7.8-11.59,11.64-20.35,10.37C478.45,275.61,485.61,261.35,491.08,242.33z"
			/>
		<g>
			<g>
				<path class="st2" d="M481.91,226.32c0,0,0.3,4.07-5.83,6.99c-3.16,1.5-4.9,4.33-5.83,6.71c-0.55,1.39-1.32,0.62-1.36-0.9
					c-0.1-3.94-0.15-5.08-0.74-8.04c-0.95-4.78,1.61-11.54,1.87-11.58C470.26,219.47,481.91,226.32,481.91,226.32z"/>
			</g>
		</g>
		<path class="st11" d="M474.08,222.66c0,0-5.76,1.31-4.92,6.7l-0.41,6.26c0,0-3.74-7.46-1.16-13.92
			C470.18,215.24,474.08,222.66,474.08,222.66z"/>
		<path class="st31" d="M471.74,222.72c0,0,0.89,1.71,1.51,2.09c0.62,0.38,9.97-2.85,9.71-10.35c-0.16-4.75-9.18-4.33-9.18-4.33
			L471.74,222.72z"/>
		<path class="st7" d="M474.98,229.86l-0.45,0.03c-1.53,0.11-2.87-1.05-2.98-2.57l-0.63-8.6c-0.11-1.53,1.05-2.87,2.57-2.98
			l0.45-0.03c1.53-0.11,2.87,1.05,2.98,2.57l1.82,8.18C478.86,227.98,476.51,229.75,474.98,229.86z"/>
		<path class="st32" d="M471.27,223.36c0,0,3.63,0.43,6.33-2.83c0,0-2.8,5.1-6.16,5.24L471.27,223.36z"/>
		<path class="st11" d="M479.38,222.4c0,0,3.54,5.19-3.95,8.41c0,0-3.01,2.66-3.32,5.81c0,0,2.56-1.71,4.04-2.63
			C477.62,233.06,488.55,227.44,479.38,222.4z"/>
		
			<ellipse transform="matrix(0.1433 -0.9897 0.9897 0.1433 190.59 650.0905)" class="st7" cx="470.81" cy="214.95" rx="8.36" ry="4.74"/>
		<path class="st7" d="M478.04,220.42c-2.1,3.4-8.89,4.51-10.54,1.45c-1.66-3.07,1.15-9.19,3.24-12.6c2.1-3.4,5.14-3.68,6.8-0.61
			C479.19,211.73,480.14,217.02,478.04,220.42z"/>
		<path class="st31" d="M475.41,210.75c0,0-2.14,7.1,3.31,9.76c0,0,7.16-2.57,3.66-10.41c-3.08-6.91-10.65-3.45-10.65-3.45
			L475.41,210.75z"/>
		<path class="st31" d="M466.15,214.12c0,0,1.33-2.97,5.35-3.6l-2.66-2.32C468.84,208.21,465.67,208.35,466.15,214.12z"/>
		<path class="st31" d="M477.65,215.55c-0.95-1.92-3.65-2.39-7.73-1.7c-0.62,0.1-1.27,0.09-1.85-0.14c-2.74-1.1-2.53-4.71-2.53-4.71
			c-0.19-2.47,1.57-3.26,4.04-3.44l6.44-0.49c3.65-0.3,6.5,3.17,6.69,5.64l0.09,0.42C482.98,213.59,480.12,215.37,477.65,215.55z"/>
		
			<ellipse transform="matrix(0.2885 -0.9575 0.9575 0.2885 129.8902 613.7625)" class="st7" cx="477.91" cy="219.49" rx="1.76" ry="1.76"/>
		<path class="st11" d="M483.12,351.5l0.42,4.97c0.05,0.59,0.62,3.68,0.87,4.21c0.72,1.54,1.91,2.16,3.06,2.24
			c1.52,0.1,4.58-2.59,3.49-5.92c-0.95-2.91-1.98-5.98-1.98-5.98C486.83,352.01,484.83,352.35,483.12,351.5z"/>
		<g>
			<g>
				<path class="st2" d="M469.42,221.67L469.42,221.67c-0.77-0.3-1.39-1.53-1.39-2.75l2.78,1.09
					C470.81,221.23,470.19,221.97,469.42,221.67z"/>
			</g>
		</g>
		<g>
			<path class="st1" d="M459.57,302.64c1.6-0.34,12.18-5.9,13.43-7.26c4.4-3.5,7.15-9.98,7.29-18.87
				c0.32-19.51-11.97-43.21-27.45-52.94c-7.21-4.54-13.15-6.08-18.59-3.69c-3.02,1.12-11.23,4.76-11.23,4.76
				c-1.55,1.32,1.25,2.54,0.18,4.61c-2.3,3.66-3.66,8.67-3.76,14.85c-0.32,19.51,11.97,43.21,27.45,52.94
				C453.41,301.13,454.74,304.35,459.57,302.64z"/>
			
				<ellipse transform="matrix(0.9101 -0.4143 0.4143 0.9101 -69.468 206.7111)" class="st2" cx="441.73" cy="263.48" rx="24.39" ry="43.1"/>
			
				<ellipse transform="matrix(0.9101 -0.4143 0.4143 0.9101 -69.8051 206.2591)" class="st3" cx="440.52" cy="264.03" rx="24.39" ry="43.1"/>
			<linearGradient id="SVGID_12_" gradientUnits="userSpaceOnUse" x1="420.0055" y1="264.2647" x2="459.8354" y2="264.2647">
				<stop  offset="0" style="stop-color:#265B9C"/>
				<stop  offset="1" style="stop-color:#72C1D9"/>
			</linearGradient>
			<path class="st33" d="M439.65,289.9c-11-6.65-19.79-23.52-19.64-37.67c0.15-14.16,9.19-20.24,20.18-13.59
				c11,6.65,19.79,23.52,19.64,37.67C459.68,290.46,450.65,296.55,439.65,289.9z"/>
			<path class="st4" d="M421.91,251.36c-0.15,14.16,8.64,31.02,19.64,37.67c4.38,2.65,8.46,3.28,11.78,2.18
				c-3.61,2.14-8.42,1.87-13.68-1.31c-11-6.65-19.79-23.52-19.64-37.67c0.09-8.51,3.4-14.11,8.41-15.77
				C424.48,238.79,421.99,243.97,421.91,251.36z"/>
			<path class="st3" d="M442.85,252.85c2.24,1.74,4.92,4.5,6.75,7.36l-2.31,2.29c-1.97-2.76-3.66-4.64-5.48-5.83
				c-2.12-1.39-3.04-1.11-2.99,0.69c0.12,4.04,10.11,10.52,10.31,17.58c0.11,3.84-2.01,5.06-5.54,3.47l0.12,4.04l-3.67-2.41
				l-0.11-3.96c-2.43-1.94-4.21-4.34-5.73-6.92l2.71-1.45c1.4,2.19,2.59,3.63,4.18,4.67c1.82,1.19,2.78,1.1,2.73-0.67
				c-0.11-3.72-10.09-9.98-10.31-17.46c-0.11-3.76,1.81-5.35,5.69-3.65l-0.12-4.08l3.67,2.41L442.85,252.85z"/>
			<line class="st5" x1="464.58" y1="253.75" x2="474.05" y2="249.55"/>
			<line class="st5" x1="468.47" y1="264.16" x2="477.67" y2="260.02"/>
			<line class="st5" x1="470.52" y1="274.81" x2="479.72" y2="270.67"/>
			<line class="st5" x1="470.52" y1="285.2" x2="479" y2="281.38"/>
			<line class="st5" x1="467.79" y1="294.95" x2="476.3" y2="290.83"/>
			<line class="st5" x1="459.06" y1="243.51" x2="468.22" y2="239.29"/>
			<line class="st5" x1="452.37" y1="234.98" x2="461.53" y2="230.76"/>
			<line class="st5" x1="444.54" y1="228.16" x2="452.98" y2="224.27"/>
			<line class="st5" x1="435.39" y1="223.83" x2="444.08" y2="220.11"/>
			<line class="st5" x1="455.27" y1="292.15" x2="463.74" y2="288.33"/>
			<line class="st5" x1="452.53" y1="301.9" x2="461.04" y2="297.78"/>
		</g>
		<path class="st7" d="M469.95,285.95L469.95,285.95c0.85,0.94,2.32,1.02,3.26,0.17l3.28-2.96c0.94-0.85,1.02-2.32,0.17-3.26l0,0
			c-0.85-0.94-2.32-1.02-3.26-0.17l-3.28,2.96C469.18,283.53,469.1,285,469.95,285.95z"/>
		<path class="st13" d="M477.53,238.46c0,0,14.51,18.12,11.33,22.48c-3.17,4.36-15.77,17.45-15.77,17.45l4.91,4.56
			c0,0,22.9-15.28,22.76-21.39c-0.17-7.65-9.93-28.05-9.93-28.05L477.53,238.46z"/>
	</g>
	<path class="st34" d="M363.83,203.36"/>
	<path class="st34" d="M363.83,188.77"/>
	<path class="st8" d="M329.88,225.74"/>
</g>
</svg>
