<svg id="_Layer_" data-name="&lt;Layer&gt;" xmlns="http://www.w3.org/2000/svg" viewBox="0 0 3219.84 1599.93"><defs><style>.cls-1{fill:#c9e6ff;}.cls-2{fill:#acd1f2;}.cls-3{fill:#91c4f2;}.cls-4{fill:#63a2d6;}.cls-5{fill:#478dc7;}.cls-6{fill:#0b2e4f;}.cls-7{fill:#115195;}.cls-8{fill:#2573b4;}.cls-9{fill:#fff;}.cls-10{fill:#104570;}.cls-11{fill:#ed9e91;}.cls-12{fill:#f7baad;}.cls-13{fill:#f4ada2;}.cls-14{fill:#ddd;}.cls-15{fill:#4b7ca3;}.cls-16{fill:#5891bf;}.cls-17{fill:#eacaff;}.cls-18{fill:#c588ff;}</style></defs><path class="cls-1" d="M950,1524.25l7.92,23.73,3.24-30.75c37.65-23.93,75.5-51.76,94.62-103.54a301.84,301.84,0,0,1,3.29,81.83l-27.37,7.44,25.46,6.87c-2.59,15.6-7,31.47-14,46.22l-20-9.49,12.79,22.69a111.3,111.3,0,0,1-24,27.45c-69.59,56.88-155.13,38.81-155.13,38.81C862.85,1577.79,904.92,1552.41,950,1524.25Z" transform="translate(0 -126.51)"/><path class="cls-2" d="M858.84,1493.25l10.78,2.1-7.89-8.3c2.37-4.87,4.91-9.61,7.55-14.29l12.89,12.43-7.64-21.5c14.37-24.39,30-48.57,36.3-84.19,0,0,7.73,16.53,12.74,42.76L910.84,1435l14.34-3.19c3.59,24.12,4.34,54.66-4.18,87.45-19.72,75.9-66.91,92-66.91,92C840,1556.27,846.13,1521.92,858.84,1493.25Z" transform="translate(0 -126.51)"/><path class="cls-2" d="M548.48,1671.14S232.57,1675.67,0,1682.3V1566.14c5.66-15.3,12.15-31.75,28.84-44.11,39.57-29.31,68.61,4.21,96.81-9.34s33.22-65.5,84.08-81.7,93.47,15.14,124.25,53.14,58.21,39.69,132,57.32S548.48,1671.14,548.48,1671.14Z" transform="translate(0 -126.51)"/><path class="cls-3" d="M928.86,1688.59S912,1574.4,827.81,1559.43s-119.76-15-160.92-59.9-93.56-31.83-136.6-11.24c-61.75,28.08-102.91-35.56-160.92-16.84s-59.88,54.28-73,88c-20.58,48.67-99.17,16.84-110.4,114.18C341.3,1679.23,928.86,1688.59,928.86,1688.59Z" transform="translate(0 -126.51)"/><path class="cls-1" d="M1797,1555c4.84-203.32,130.66-173.07,171.79-246.89C1991.76,1489.68,1824.8,1490.89,1797,1555Z" transform="translate(0 -126.51)"/><path class="cls-2" d="M1846.38,1295.54l17.59-18.43c-4.21-20.78-12.59-41.86-26.66-63.16-4.5,23.62-16.61,45.12-30.8,66.1l5.68,41.44-19.25-22.12c-6.5,9.05-13.07,18.08-19.27,27.25l13.77,36.14-25.12-18.27c-8.91,15.15-16.08,30.84-19.59,47.63-13.61,65.18,39.15,164.29,39.15,164.29s10.64-3.85,15.84-18.78c14.28-70,77.18-153.33,68.86-242.76Z" transform="translate(0 -126.51)"/><path class="cls-2" d="M1900.07,1653.74s13.94-60.23-39.3-96-81.9-20.58-130.18-89.51-129.49-62.7-184.51-17.92-93.21,66.42-147.58,61.64-75.66-4.23-115.3,36c-58.46,61.39-235.54-43.42-263.9,132.79C1292.27,1673.66,1900.07,1653.74,1900.07,1653.74Z" transform="translate(0 -126.51)"/><path class="cls-3" d="M1804.14,1663s5.49-62.18,47.16-91.84,83.36-24.87,117.36-72.7c23.41-32.92,89.94-44,129.43-16.26s35.09,50.7,75.68,51.66,55.93,13.39,68,45.91,131.62,5.74,151.36,88C2242.86,1667.82,1804.14,1663,1804.14,1663Z" transform="translate(0 -126.51)"/><path class="cls-2" d="M3219.84,1435.36v252.86c-71.4-3.34-150.5-7-230.65-10.46-185.21-8.08-376-15.56-490.33-17.66,14.25-76.28,113-88.2,183.8-90.82s50.6-71.67,109.08-105.91S2888,1475,2929,1460s52.92-81.45,126.08-97.76C3125.09,1346.6,3180.36,1386.5,3219.84,1435.36Z" transform="translate(0 -126.51)"/><path class="cls-4" d="M1705.25,1655s-50.58-17.73-43.49-38.43,49.59-.73,49.59-.73-45.82-35-31.88-47.57,57.54,13.18,57.54,13.18-28.33-57.91-13.29-63.55,43.49,37.28,43.49,37.28-8.67-64.66,12.11-66.79,22.59,54.4,22.59,54.4,18.88-50.59,36.11-42.36.69,54.21.69,54.21,21.06-35.57,33.7-30.85-7.33,48.38-7.33,48.38,29.11-33.2,44-21.53-14.26,49.47-14.26,49.47,39.45-29.65,48.58-18-21.12,42.5-21.12,42.5,33.61-20.47,43.85-4.24-23.34,32.1-23.34,32.1Z" transform="translate(0 -126.51)"/><path class="cls-4" d="M3219.84,1553.53v157l-227.16-21.26a15.91,15.91,0,0,1-3.76-11.56c.3-4,2.21-8.84,7.43-14.09,14.34-14.49,78.62-8.6,78.62-8.6s-54.4-29.86-40.85-45.43,62.44,13.23,63.41,13.79c-.61-.92-25.81-38.92-10.48-47.17s46.39,27.09,47.26,28.08c-.42-1.26-20.63-61.38-.8-69.16,20-7.87,45.2,55.92,45.2,55.92s2.22-54.84,22.63-57.66C3209.37,1532.33,3215.45,1541.73,3219.84,1553.53Z" transform="translate(0 -126.51)"/><path class="cls-4" d="M33.43,1685.66s-14.25-11.85,1.34-30.5,94-19.2,94-19.2-69.3-28.71-54.79-48.54,78.28,8.84,78.28,8.84-36.08-42.53-18.33-54.12,60.47,27.47,60.47,27.47-32.55-69.49-9.28-81,61.31,60.33,61.31,60.33-3.9-64.56,20.43-70.24,41.37,69.56,41.37,69.56,7.1-59.78,27-59.62,16,67,16,67,28.06-58.45,55.53-44.15-9.3,58.6-9.3,58.6,26.77-35,49.82-19.55-9.29,57.42-9.29,57.42,35.53-26.71,51.95-10.15-1.44,42.23-1.44,42.23,44.37-29,55.28-13.64,30.45,56.57,30.45,56.57Z" transform="translate(0 -126.51)"/><path class="cls-5" d="M1085.94,1463.06c-5.48-78.08-53.8-61-73.79-93.9C1008.8,1434.27,1077.13,1430.52,1085.94,1463.06Z" transform="translate(0 -126.51)"/><path class="cls-5" d="M1006.27,1473.31c19.15-11.84,57.79-5.48,63.83,27.86C1029.61,1501.86,1028.48,1469.06,1006.27,1473.31Z" transform="translate(0 -126.51)"/><path class="cls-5" d="M1103.06,1505.8c-5-63.43,40.35-45.42,57.79-86.55C1164.43,1482.72,1111.36,1483.15,1103.06,1505.8Z" transform="translate(0 -126.51)"/><path class="cls-5" d="M1056.16,1583.23s-14.58-37.93-50.12-35.31C1029.43,1557.6,1016.87,1598.56,1056.16,1583.23Z" transform="translate(0 -126.51)"/><path class="cls-5" d="M1105.54,1680.59a1.58,1.58,0,0,1-1.57-1.52c0-1.18-4.06-118.77-3.24-155.12.84-37.12,16.27-47.53,16.93-48a1.57,1.57,0,0,1,1.71,2.64c-.16.1-14.7,10.14-15.49,45.4-.83,36.25,3.19,153.75,3.24,154.94a1.58,1.58,0,0,1-1.52,1.62Z" transform="translate(0 -126.51)"/><path class="cls-5" d="M1093,1680a1.57,1.57,0,0,1-1.57-1.55c0-1.74-2.85-174.17-3.68-198-.8-23.39-18.17-51.77-18.34-52a1.57,1.57,0,0,1,2.67-1.65c.74,1.19,18,29.37,18.82,53.59.82,23.82,3.64,196.28,3.67,198a1.58,1.58,0,0,1-1.55,1.6Z" transform="translate(0 -126.51)"/><path class="cls-5" d="M1090.57,1580.47a1.62,1.62,0,0,1-.7-.16c-13.82-6.85-14.79-38.27-15.37-57l-.11-3.55c-.55-15.83-6.73-21-17-29.62L1055,1488a1.57,1.57,0,0,1,2-2.4l2.47,2.08c10.53,8.85,17.49,14.69,18.08,31.93l.11,3.56c.56,18.07,1.49,48.31,13.63,54.32a1.57,1.57,0,0,1-.7,3Z" transform="translate(0 -126.51)"/><path class="cls-5" d="M1065.45,1682.67a1.58,1.58,0,0,1-1.57-1.52c0-.69-2.43-69.89-5.06-86.28-2.5-15.66-18.71-23.94-18.87-24a1.57,1.57,0,1,1,1.4-2.81c.72.36,17.81,9,20.58,26.33,2.65,16.59,5,83.82,5.09,86.68a1.57,1.57,0,0,1-1.52,1.62Z" transform="translate(0 -126.51)"/><path class="cls-5" d="M2716.92,1586.81c2.56-71.68,47.34-57.6,64.61-88.32C2786.65,1558,2724,1556.73,2716.92,1586.81Z" transform="translate(0 -126.51)"/><path class="cls-5" d="M2695.87,1543c2.56-58.24-38.38-40.32-55.65-77.43C2638.94,1523.77,2687.55,1522.49,2695.87,1543Z" transform="translate(0 -126.51)"/><path class="cls-5" d="M2659.38,1583.93s-12.16-35.2-44.79-33.92C2635.71,1559.61,2622.91,1596.73,2659.38,1583.93Z" transform="translate(0 -126.51)"/><path class="cls-5" d="M2714.34,1674.4h-.06a1.44,1.44,0,0,1-1.38-1.5c0-.73,2.88-73.06,2.58-86.06-.31-13.54,17.12-36.65,17.87-37.63a1.44,1.44,0,0,1,2.29,1.74c-.18.23-17.57,23.28-17.28,35.83.3,13.09-2.56,85.5-2.58,86.23A1.44,1.44,0,0,1,2714.34,1674.4Z" transform="translate(0 -126.51)"/><path class="cls-5" d="M2701.87,1672.47a1.43,1.43,0,0,1-1.44-1.39c0-1.11-3.87-111.47-6-127.93-2.07-16.06-12.74-28.48-12.85-28.6a1.44,1.44,0,1,1,2.17-1.89c.46.53,11.35,13.17,13.54,30.13,2.14,16.58,5.85,123.65,6,128.2a1.43,1.43,0,0,1-1.39,1.48Z" transform="translate(0 -126.51)"/><path class="cls-5" d="M2677.88,1679.19h0a1.43,1.43,0,0,1-1.4-1.48c0-.32.93-32.8-1-54.54-1.63-18.79-11.81-35.1-31.1-49.87a1.43,1.43,0,1,1,1.74-2.28c20,15.28,30.52,32.26,32.23,51.9,1.9,21.9,1,54.55,1,54.88A1.44,1.44,0,0,1,2677.88,1679.19Z" transform="translate(0 -126.51)"/><path class="cls-6" d="M606.07,1641.7c-76.32-233-106.18-537.15-106.18-537.15H272.35l8.51,549.17a69.12,69.12,0,0,0,69.11,68H548C589.51,1721.76,619,1681.19,606.07,1641.7Z" transform="translate(0 -126.51)"/><path class="cls-7" d="M576.13,1082.59v74.62a30.59,30.59,0,0,1-30.58,30.58H266.14a30.58,30.58,0,0,1-30.58-30.58v-74.62Z" transform="translate(0 -126.51)"/><path class="cls-8" d="M576.13,1082.59v74.62a30.59,30.59,0,0,1-30.58,30.58H379.22a30.58,30.58,0,0,1-30.58-30.58v-74.62Z" transform="translate(0 -126.51)"/><path class="cls-1" d="M960,529.9v758.69c-214.12-165.31-416.32-148-594.31-147.39h-9.36c-5.1,0-10.09-.07-15-.19q-11.46-.3-22.25-1c-151.45-10.2-203.66-80.79-203.66-80.79S103.2,1030,96.76,976.06a562.31,562.31,0,0,1-3.85-66.81,555.31,555.31,0,0,1,5.24-77.55c1.71-12,3.67-22.61,5.63-31.72,5.78-26.6,11.67-40.67,11.67-40.67s52.19-70.57,203.64-80.79c6.35-.43,12.9-.75,19.6-.95,5.76-.19,11.64-.28,17.67-.28,3.12,0,6.24,0,9.36,0C543.71,678,745.91,695.23,960,529.9Z" transform="translate(0 -126.51)"/><path class="cls-2" d="M960,1181.16v107.43c-214.12-165.31-416.32-148-594.31-147.39h-9.36c-5.1,0-10.09-.07-15-.19q-11.46-.3-22.25-1c-151.45-10.2-203.66-80.79-203.66-80.79S103.2,1030,96.76,976.06c37.09,30.49,110.48,74.59,227.06,77.89C494.89,1058.78,762.55,1037.14,960,1181.16Z" transform="translate(0 -126.51)"/><path class="cls-9" d="M960,582.78C931,645.19,909.57,777.14,909.57,777.14S688.46,828.16,504.8,800C347.64,775.86,195.7,781.53,98.15,831.7c1.71-12,3.67-22.61,5.63-31.72h0s101.44-78.11,281.54-69.2S790.1,721.87,960,582.78Z" transform="translate(0 -126.51)"/><path class="cls-8" d="M341.36,1141q-11.46-.3-22.25-1c-151.45-10.2-203.66-80.79-203.66-80.79l-.07-.16a.22.22,0,0,0-.06-.12c-.27-.68-1-2.64-2.14-5.82-.12-.41-.27-.83-.43-1.28-.37-1.12-.78-2.39-1.23-3.8-.14-.43-.28-.87-.42-1.34s-.29-.92-.43-1.4-.27-.88-.41-1.34c-.32-1.12-.68-2.3-1-3.55-.23-.82-.46-1.68-.71-2.55-.55-2-1.12-4.19-1.71-6.51-.18-.68-.34-1.37-.52-2.07,0,0,0,0,0,0l-.76-3.18c-.13-.53-.25-1.08-.4-1.65-.3-1.34-.6-2.71-.92-4.12-.22-.93-.41-1.88-.63-2.86-.3-1.46-.62-3-.94-4.53-.34-1.74-.7-3.56-1-5.42-.18-.92-.34-1.83-.52-2.78l-.48-2.74c-1.38-7.85-2.68-16.5-3.8-25.88a562.31,562.31,0,0,1-3.85-66.81c0-96.13,22.54-149.94,22.54-149.94s52.19-70.57,203.64-80.79c6.35-.43,12.9-.75,19.6-.95-13.53,45.13-37.85,145.79-28.24,261.25,3.83,46.16,8.57,84.3,13.37,115.13C330.31,1095.82,336.89,1124.24,341.36,1141Z" transform="translate(0 -126.51)"/><path class="cls-7" d="M341.36,1141q-11.46-.3-22.25-1c-151.45-10.2-203.66-80.79-203.66-80.79l-.07-.16a.22.22,0,0,0-.06-.12c-.27-.68-1-2.64-2.14-5.82-.12-.41-.27-.83-.43-1.28-.37-1.12-.78-2.39-1.23-3.8-.14-.43-.28-.87-.42-1.34s-.29-.92-.43-1.4-.27-.88-.41-1.34c-.32-1.12-.68-2.3-1-3.55-.23-.82-.46-1.68-.71-2.55-.55-2-1.12-4.19-1.71-6.51-.18-.68-.34-1.37-.52-2.07,0,0,0,0,0,0-.25-1-.51-2.09-.76-3.18-.13-.53-.25-1.08-.4-1.65-.3-1.34-.6-2.71-.92-4.12-.22-.93-.41-1.88-.63-2.86-.3-1.46-.62-3-.94-4.53-.34-1.74-.7-3.56-1-5.42-.18-.92-.34-1.83-.52-2.78l-.48-2.74c-1.38-7.85-2.68-16.5-3.8-25.88,37.09,30.49,110.48,74.59,227.06,77.89C330.31,1095.82,336.89,1124.24,341.36,1141Z" transform="translate(0 -126.51)"/><path class="cls-6" d="M365.72,1141.18v0h-9.36q-19.55,0-37.25-1.23h0q-74.35-230.72,0-461.45,17.71-1.2,37.27-1.23c3.12,0,6.24,0,9.36,0C316.94,840.23,319.41,994.43,365.72,1141.18Z" transform="translate(0 -126.51)"/><path class="cls-1" d="M1206.11,909.25c0,88.42-12.67,170.36-34.2,237.12-20.32,63.1-48.53,112.65-81.41,141.33-20.38,17.79-42.55,27.54-65.73,27.54-75.55,0-140.31-103.4-167.57-250.45a824.79,824.79,0,0,1-11.58-91.86c-1.44-20.74-2.21-42-2.21-63.68,0-25.53,1.06-50.51,3.07-74.75C862.15,646,936,503.26,1024.77,503.26c71.63,0,133.54,93,163,227.91C1199.53,784.93,1206.11,845.38,1206.11,909.25Z" transform="translate(0 -126.51)"/><path class="cls-2" d="M1187.78,731.17c-66.35,34.58-181.73,82.38-341.3,103.33C862.15,646,936,503.26,1024.77,503.26,1096.4,503.26,1158.31,596.21,1187.78,731.17Z" transform="translate(0 -126.51)"/><path class="cls-9" d="M1171.91,1146.37c-20.32,63.1-48.53,112.65-81.41,141.33-43.28-70.1-116.46-158.61-233.3-222.91a824.79,824.79,0,0,1-11.58-91.86C950.47,1001,1071.47,1052.36,1171.91,1146.37Z" transform="translate(0 -126.51)"/><path class="cls-8" d="M1024.77,818.21V1000.3S898,1002,856.5,1060.89c0,0-7.81-51.59-11.32-109.5-1-16.91-1.71-34.36-1.71-51.21,0-74.61,13-142.58,13-142.58C898,816.53,1024.77,818.21,1024.77,818.21Z" transform="translate(0 -126.51)"/><path class="cls-7" d="M1024.77,944.93v55.37S898,1002,856.5,1060.89c0,0-7.81-51.59-11.32-109.5C890.84,936.07,954,925.69,1024.77,944.93Z" transform="translate(0 -126.51)"/><ellipse class="cls-6" cx="1024.77" cy="782.73" rx="36.36" ry="91.04"/><path class="cls-6" d="M1024.77,1329.22c-109.53,0-195.33-184.47-195.33-420s85.8-420,195.33-420,195.34,184.47,195.34,420S1134.3,1329.22,1024.77,1329.22Zm0-812c-90.72,0-167.37,179.51-167.37,392s76.65,392,167.37,392,167.37-179.52,167.37-392S1115.49,517.25,1024.77,517.25Z" transform="translate(0 -126.51)"/><path class="cls-6" d="M249.56,769.41c5.16-24.07,9.77-38.63,9.77-38.63-70.13,1.19-118.87,38-118.87,38s-2.45,9.33-5.37,23.81C171.9,781.26,209.61,772.3,249.56,769.41Z" transform="translate(0 -126.51)"/><path class="cls-6" d="M126,858.58c-.78,12.7-.89,19.25.15,31.19l109.37-5.94c.2-14.84,1-23,2.22-36.57Q187.56,847.67,126,858.58Z" transform="translate(0 -126.51)"/><path class="cls-6" d="M240.06,825.71c1.48-12,3.21-23.16,5-33.36a731.56,731.56,0,0,0-113.3,18.23c-1.53,9-3,19-4.12,29.41C167.65,830.91,205.53,825.47,240.06,825.71Z" transform="translate(0 -126.51)"/><path class="cls-6" d="M1199.78,1271.79c-4.58-3-9.16-9.39-5.72-16.72s4.35-8,2.52-14.65,1.37-8.93,5-14,3.43-11.22,1.14-23.36,2.75-36.41,21.75-41.68c18.32-7.32,34.13-5.49,45.12.92s17.4,20.61,15.8,33.2-2.06,16.72,2.52,24,3.2,14.42.91,20.15,2.75,8.24,5,15.57,1.15,19.69-15.34,20.15S1199.78,1271.79,1199.78,1271.79Z" transform="translate(0 -126.51)"/><path class="cls-8" d="M1240.54,1467.12s-32.06,75.8-38.47,92.75-7.78,31.37-7.32,46.94-24.28,59.08-29.77,71.9-1.38,17-.46,21.07-9.16,6.41-9.16,6.41-9.62,6.87-25.19,6.87c2.75-4.12,14.65-19.23,17.4-27.48s35.73-190.06,43.51-240,27.48-69.5,27.48-69.5c1.37-.12,54.27,0,54.27,0s18.55,26.45,20.84,70-7.78,204.73-4.12,234c2.29,14.65,5,23.36,9.62,26.56l9.16,6.41s-19.7,3.67-24.28-.91l-13.28-13.28s4.58-5.5,0-21.07-16.49-51.75-13.74-69.62,3.9-34.57,2.06-46.94S1240.54,1467.12,1240.54,1467.12Z" transform="translate(0 -126.51)"/><path class="cls-3" d="M1288.63,1270.3s12.37,11.34,15.46,33a269.69,269.69,0,0,0,8.24,38.12l-37.09,1Z" transform="translate(0 -126.51)"/><path class="cls-10" d="M1298.7,1511.54a202.25,202.25,0,0,1-39.24,5.21c-24.71,1.1-53-.91-84-5.21,2.29-14.64,11.9-73.27,20.15-102.58s16.48-43.51,9.61-71.91-13.16-65-13.16-65c3.27-2.12,6.65-4.07,10-5.83a193.28,193.28,0,0,1,20.81-9.49c3.11-1.22,5-1.87,5-1.87l21.08.78,13.54.51s2.42,1,5.93,2.58a133.49,133.49,0,0,1,15.77,8.44,48.91,48.91,0,0,1,4.42,3.16c2.75,19.24,7.56,29.88,7.9,45.69-.57,17.86-11.1,27.93-13.85,40.76s.46,27,9.15,53.59S1298.7,1511.54,1298.7,1511.54Z" transform="translate(0 -126.51)"/><path class="cls-6" d="M1272.32,1693.14c4,1.72,10.47,17,16.83,17.86s15.63-.51,15.63-.51,11.74,1.12,14.37,9.6a.69.69,0,0,1-.67.87h-30a5.9,5.9,0,0,1-4.84-2.51c-2.32-3.31-6.5-8.89-9.11-10.2-.11,6.42.34,13.06.34,13.06h-3.77l-2.75-16.32S1265.1,1694.69,1272.32,1693.14Z" transform="translate(0 -126.51)"/><path class="cls-6" d="M1163.35,1693.14c-3.95,1.72-10.48,17-16.83,17.86s-15.63-.51-15.63-.51-11.74,1.12-14.37,9.6a.69.69,0,0,0,.67.87h30a5.9,5.9,0,0,0,4.84-2.51c2.32-3.31,6.5-8.89,9.11-10.2.11,6.42-.35,13.06-.35,13.06h3.78l2.75-16.32S1170.56,1694.69,1163.35,1693.14Z" transform="translate(0 -126.51)"/><path class="cls-3" d="M1260.7,1336.14c-13.07-43-31.48-70.68-37.82-79.44,3.11-1.22,5-1.87,5-1.87l21.08.78,13.54.51s2.42,1,5.93,2.58C1269.4,1269.76,1270.21,1297.09,1260.7,1336.14Z" transform="translate(0 -126.51)"/><path class="cls-11" d="M1231.57,1213.26c.26,14.23-.21,29.54-3.68,41.56,10.26,5.46,26.08,7.29,34.62,1.3-2.44-10.91-1.78-24.9-1-35,0,0-12.54-10.91-18.28-11.6S1231.57,1213.26,1231.57,1213.26Z" transform="translate(0 -126.51)"/><path class="cls-12" d="M1234.69,1225.16s4.37,10.53,12.44,13,22.15,4,24.78,3.22,8.08-10.81,4.3-26-7.78-35.31-12.2-41.17-16.9-14.69-35.82-7.83-26.26,21.4-17.26,41.48S1234.69,1225.16,1234.69,1225.16Z" transform="translate(0 -126.51)"/><path class="cls-6" d="M1225.12,1216.91c4-7.4,13.21-9.41,12.74-19.06s-2.29-15.8-.34-18.06,14.31-7.34,22-2.45,13.13,14.5,13.13,14.5-6.47-40.36-41.34-29.06-26.68,37.28-25.2,40.67,6.44,17.67,12.59,19.91a25.06,25.06,0,0,0,11.4,1.4Z" transform="translate(0 -126.51)"/><path class="cls-12" d="M1232.74,1211.94s-6.73-8.21-11.4-5.22-.5,11.62,1.9,14.85,6.74,6.42,11.45,3.59C1238.23,1220.17,1234.89,1214.35,1232.74,1211.94Z" transform="translate(0 -126.51)"/><rect class="cls-9" x="1245.62" y="1323.47" width="4.52" height="47.7" transform="translate(-526.5 747.47) rotate(-32.26)"/><path class="cls-6" d="M1233.31,1324.25h0a2.26,2.26,0,0,1,3.12.7l.63,1-3.82,2.41-.63-1A2.26,2.26,0,0,1,1233.31,1324.25Z" transform="translate(0 -126.51)"/><polygon class="cls-6" points="1247.18 1212.7 1238.67 1199.22 1237.42 1200.01 1236.69 1198.85 1239.1 1197.33 1248.34 1211.96 1247.18 1212.7"/><path class="cls-13" d="M1231.84,1368.2c7.79.68,11.91.91,15.57-3.67s2.75-7.1,6.87-9.39,9.62-1.83,11.22.46-11.44,20.38-14.19,22.67-10.31.69-20.84.69S1231.84,1368.2,1231.84,1368.2Z" transform="translate(0 -126.51)"/><path class="cls-3" d="M1182.24,1340.52s35.19,18,53.87,23.9c.39,15.52-9.9,26.24-9.9,26.24s-39.42-12.09-74.1-32.84a12.28,12.28,0,0,1-4.8-15.77c7.4-15.77,23.56-47.06,44.8-70,10,19.23,8.93,45,8.93,45S1189.2,1330,1182.24,1340.52Z" transform="translate(0 -126.51)"/><polygon class="cls-8" points="1335.43 1206.67 1285.14 1202.61 1280.97 1202.27 1278.51 1206.05 1235.22 1272.43 1232.76 1276.22 1236.92 1276.55 1287.21 1280.61 1291.38 1280.95 1293.85 1277.17 1337.13 1210.79 1339.59 1207.01 1335.43 1206.67"/><path class="cls-6" d="M1318.1,1329.41c.59-2.06-.51-3.69-3-3.89l-2.25-.18a10.54,10.54,0,0,0-7.48,3L1301,1328l-3.49,5.36,21.59,1.75,3.49-5.36Z" transform="translate(0 -126.51)"/><path class="cls-13" d="M1312.85,1374.38l-5.5,8.59s14.26-5.16,15.63-7.9,1-8.93.52-11.17-2.06-12.19-4.47-11.68S1310.62,1368,1312.85,1374.38Z" transform="translate(0 -126.51)"/><polygon class="cls-5" points="1597.09 1595.61 1589.55 1595.61 1550 1247.16 1557.44 1246.32 1597.09 1595.61"/><polygon class="cls-5" points="1450.01 1595.61 1442.48 1595.61 1402.93 1247.16 1410.37 1246.32 1450.01 1595.61"/><rect class="cls-5" x="1413.1" y="1299.84" width="147.65" height="7.49"/><rect class="cls-5" x="1418.71" y="1349.23" width="147.08" height="7.49"/><rect class="cls-5" x="1424.31" y="1398.62" width="147.35" height="7.49"/><rect class="cls-5" x="1430.49" y="1448.01" width="146.96" height="7.49"/><rect class="cls-5" x="1435.53" y="1497.4" width="147.08" height="7.49"/><rect class="cls-5" x="1441.13" y="1546.79" width="147.08" height="7.49"/><polygon class="cls-6" points="1360.96 1595.61 1368.49 1595.61 1408.04 1247.16 1400.61 1246.32 1360.96 1595.61"/><polygon class="cls-6" points="1508.03 1595.61 1515.57 1595.61 1555.12 1247.16 1547.68 1246.32 1508.03 1595.61"/><rect class="cls-6" x="1397.3" y="1299.84" width="147.65" height="7.49"/><rect class="cls-6" x="1392.26" y="1349.23" width="147.08" height="7.49"/><rect class="cls-6" x="1386.38" y="1398.62" width="147.35" height="7.49"/><rect class="cls-6" x="1380.6" y="1448.01" width="146.96" height="7.49"/><rect class="cls-6" x="1375.44" y="1497.4" width="147.08" height="7.49"/><rect class="cls-6" x="1369.84" y="1546.79" width="147.08" height="7.49"/><rect class="cls-6" x="1372.69" y="1370.6" width="210.08" height="10.11" transform="translate(2955.46 2624.79) rotate(180)"/><rect class="cls-5" x="1372.69" y="1370.6" width="210.08" height="5.06" transform="translate(2955.46 2619.73) rotate(180)"/><path class="cls-6" d="M923.3,1330.9h0c-1.73-1.25-1.87-4-.31-6.06l86-114.52a1.7,1.7,0,0,1,2.3-.57h0a1.7,1.7,0,0,1,.16,2.36l-82.24,117.21C927.67,1331.44,925,1332.15,923.3,1330.9Z" transform="translate(0 -126.51)"/><path class="cls-12" d="M912.64,1320.87,906.26,1308c6.94-1.52,10-2.69,14.23-6.16s9.81-3.72,13.28-3.48c0,0,5.35,1.1,7.17,3.63,0,0,7.78-.73,9.9,1.92s1.9,7.55-.59,11.87-6.76,5.7-9.88,6.24c-4.77-.46-13.2-6-18.06-5a37.2,37.2,0,0,0-9.67,3.9Z" transform="translate(0 -126.51)"/><path class="cls-9" d="M762.35,1685.68s0,12.54,4,15.83,15.39,5.94,20.22,7.48c4.32,1.37,9.52,3.45,10.89,8.73a1.63,1.63,0,0,1-1.58,2H751a4.25,4.25,0,0,1-4.19-3.54,33.11,33.11,0,0,1-.31-9.65c.88-6.82,1.76-14.29,1.1-18.25S762.35,1685.68,762.35,1685.68Z" transform="translate(0 -126.51)"/><path class="cls-6" d="M763.75,1698a16.75,16.75,0,0,0-3.33,1,3.14,3.14,0,0,0-1.58,4.26,17.3,17.3,0,0,0,2.85,4.24A12.17,12.17,0,0,1,752,1709a45.91,45.91,0,0,0-5.22-1.18,1.49,1.49,0,0,0-1.69,1.63l.77,7.36a5.07,5.07,0,0,0,5,4.55h45.57a2.91,2.91,0,0,0,2.8-3.78,13.65,13.65,0,0,0-9.36-9.08c-9.15-2.85-21.43-5.15-23.83-9.39A2.2,2.2,0,0,0,763.75,1698Z" transform="translate(0 -126.51)"/><path class="cls-9" d="M647.11,1687.88s-7.92-5.11-17.32-2.14c-2,12.69-6.59,15.77-6.59,15.77-4,3.3-15.39,5.94-20.22,7.48-4.32,1.37-9.52,3.45-10.89,8.73a1.63,1.63,0,0,0,1.58,2H638.5a4.2,4.2,0,0,0,4.19-3.54C643.48,1710.31,642.16,1704.37,647.11,1687.88Z" transform="translate(0 -126.51)"/><path class="cls-6" d="M625.55,1697.89a15.68,15.68,0,0,1,3.33,1,3.13,3.13,0,0,1,1.58,4.25,17.42,17.42,0,0,1-2.86,4.25,12.16,12.16,0,0,0,9.73,1.48,45.28,45.28,0,0,1,5.22-1.17,1.47,1.47,0,0,1,1.68,1.63l-.76,7.35a5.08,5.08,0,0,1-5.05,4.56H592.84a2.92,2.92,0,0,1-2.8-3.78,13.67,13.67,0,0,1,9.37-9.08c9.14-2.85,21.42-5.15,23.82-9.39A2.21,2.21,0,0,1,625.55,1697.89Z" transform="translate(0 -126.51)"/><path class="cls-6" d="M840,1363.5c38-11.75,77.09-36.25,77.09-36.25s0-15.19-10.6-26.39c-16.87,8.79-67.27,26.27-67.27,26.27s-28.29-7.62-58.14-32.08c-33.5,16.55-17.14,45.16-17.14,45.16s34.06,16.55,59.3,23.6A29.69,29.69,0,0,0,840,1363.5Z" transform="translate(0 -126.51)"/><path class="cls-6" d="M689.81,1404.3H758s13.19,27.7,14.07,66.39S768.51,1694,768.51,1694a100.31,100.31,0,0,1-41.77,0l-6.6-219.4L664.31,1694c-13.42,3-27.38,2.83-41.77,0l48.36-239.62S677.06,1421.45,689.81,1404.3Z" transform="translate(0 -126.51)"/><path class="cls-10" d="M781.05,1295.05l-2-1.47c-.61-.46-1.24-.92-1.88-1.37-4-2.8-8-5.36-11.89-7.63-.65-.38-1.29-.77-1.93-1.12-.92-.5-1.81-1-2.7-1.5-.55-.31-1.1-.6-1.66-.89-2.88-1.53-5.65-2.91-8.18-4.11-.44-.21-.9-.43-1.35-.62-.61-.28-1.19-.57-1.76-.82a8,8,0,0,0-.75-.32s0,0-.05,0l-1.3-.58c-4.63-2-7.92-3.27-9.06-3.68a2.28,2.28,0,0,0-.29-.11.41.41,0,0,0-.15,0,47.17,47.17,0,0,0-8.84-1.11c-1.41-.07-3-.12-4.74-.12a116,116,0,0,0-16.58,1.23s-2.22.78-5.82,2.23c-4.2,1.69-10.32,4.28-17,7.56a167.38,167.38,0,0,0-20.63,11.86c.55,9.82,5.5,35.69,8.5,63.28.46,1.69.93,3.33,1.4,5h0s10.74,42.91-5.1,96c23.5,11.23,58.75,9.22,58.75,9.22l5.1-14.83,3.58,13.79s30.65,3.57,41.38-2.56c-10.22-63.34-4.72-90.1-4.26-91.6h0a232.66,232.66,0,0,0,9.11-54.11,2.3,2.3,0,0,0,0-.37C781.38,1301.93,781.05,1295.05,781.05,1295.05Z" transform="translate(0 -126.51)"/><path class="cls-6" d="M763.9,1312s-11.44,26.6-31.88,42.21c-19.35-12.1-39.57-40.23-39.57-40.23s2.86-5,5.71-16.27a124.16,124.16,0,0,0-15-17.13c6.67-3.28,12.78-5.87,17-7.56,3.6-1.45,5.82-2.24,5.82-2.24a117.79,117.79,0,0,1,16.59-1.21c1.75,0,3.32,0,4.73.11a47.69,47.69,0,0,1,8.84,1.1s3.35,1.17,8.64,3.47c4.46,1.92,10.28,4.64,16.62,8.12a92.43,92.43,0,0,1-6.29,15.34C762.58,1308.24,763.9,1312,763.9,1312Z" transform="translate(0 -126.51)"/><path class="cls-14" d="M744.77,1274.22c0,3.79-.21,9.26-.67,15.91a296.12,296.12,0,0,1-4.77,36.07,226.22,226.22,0,0,1-7.31,28c-3.43-10.21-7.26-20.63-11.08-30.57-4.09-10.67-8.17-20.75-11.72-29.32-3.83-9.22-7.07-16.7-9.07-21.29,3.6-1.45,5.82-2.23,5.82-2.23a116,116,0,0,1,16.58-1.23c1.76,0,3.33,0,4.74.12a47.17,47.17,0,0,1,8.84,1.11S739.48,1271.92,744.77,1274.22Z" transform="translate(0 -126.51)"/><polygon class="cls-8" points="512.2 1220.45 455.96 1237.63 451.3 1239.05 452.72 1243.71 477.7 1325.49 479.12 1330.15 483.78 1328.73 540.02 1311.56 544.68 1310.13 543.26 1305.47 518.28 1223.69 516.86 1219.03 512.2 1220.45"/><rect class="cls-9" x="467.64" y="1355.24" width="58.81" height="85.51" transform="translate(-386.61 79.59) rotate(-16.98)"/><path class="cls-3" d="M490.32,1350.61a6.39,6.39,0,0,0-7.13-2.49l-2.53.77a6.4,6.4,0,0,0-4.52,6l-5,1.52,2,6.6,24.15-7.38-2-6.59Z" transform="translate(0 -126.51)"/><path class="cls-12" d="M542.07,1383.24c-5.12-1.34-10.09.67-13,2.28s-9,4-9.23,5.65c-.19,1.48,3.51,2.11,8.75.36l2.23-.86,4.81,15.92c3.44-3.35,7.35-8.5,11-9.31a35.83,35.83,0,0,1,10.05-.45l.41-13.89C550.33,1384.39,547.2,1384.58,542.07,1383.24Z" transform="translate(0 -126.51)"/><path class="cls-6" d="M663.52,1291.83c-14.42,19.18-34.77,51.3-46.22,67.84-31.49,14.31-66.47,18.13-66.47,18.13s-2.86,13.67,2.86,26.71c30-4.46,56.47-9.69,70.32-15a62.39,62.39,0,0,0,19.44-11.91c8.86-8,22.61-21.22,32-34.48C679.63,1318,663.52,1291.83,663.52,1291.83Z" transform="translate(0 -126.51)"/><path class="cls-8" d="M739.33,1326.2a226.22,226.22,0,0,1-7.31,28c-3.43-10.21-7.26-20.63-11.08-30.57l7-25.35-10.18-16.35,8.05-9.5,13.33,9.5v5.41l-5.28,10.94Z" transform="translate(0 -126.51)"/><path class="cls-9" d="M744.77,1274.22c0,3.79-.21,9.26-.67,15.91-4-1.9-10.25-5.86-17.12-13.9-4.64,9.5-14.25,15.94-17.76,18-3.83-9.22-7.07-16.7-9.07-21.29,3.6-1.45,5.82-2.23,5.82-2.23a116,116,0,0,1,16.58-1.23c1.76,0,3.33,0,4.74.12a47.17,47.17,0,0,1,8.84,1.11S739.48,1271.92,744.77,1274.22Z" transform="translate(0 -126.51)"/><path class="cls-12" d="M708.11,1231.51c.28,13.66-.22,28.36-3.92,39.9,10.93,5.23,27.76,7,36.86,1.24-2.6-10.47-1.9-23.9-1.12-33.63,0,0-13.36-10.48-19.46-11.14S708.11,1231.51,708.11,1231.51Z" transform="translate(0 -126.51)"/><path class="cls-12" d="M711.74,1238.76s1.15,10.89,7.91,15.34,19.29,9.73,21.93,9.73,10.39-7.75,11-22.76,2.48-34.62,0-41.22-11.54-18.13-30.83-17-30,12.53-27.2,33.47S711.74,1238.76,711.74,1238.76Z" transform="translate(0 -126.51)"/><path class="cls-6" d="M757,1241.73c-1.65-3.79-5.28-5.93-10.39-5.93s-9.89,1.15-12,2.8-4.94,4.12-8.24,3.63a7.32,7.32,0,0,1-5.61-5.28c-.33-1.65.83-4-.16-8.74-2.31-8.74-2-19.29.66-23.25s6.43-4.45,10.72-3.46,8.4,1.32,11,.5,3.63-2.15,6.76-1,7.09.66,6.1-3.63-5.6-4.45-7.58-8.57-4-10.23-8.08-10.88-10.55,3.29-15.83,2.63-14.18-2.8-20.28,1.32-9.73,9.07-9.73,13.69a31.93,31.93,0,0,1-4.61,15.17c-2.64,4.12-3.13,11.87.66,16.81s2.31,10.72,7.09,11.87,6.43,2.48,7.75,7.26,3.29,10.55,8.4,11.87,8.58,2.47,11.55,6.43,9.89,2,14,4.45,9.07,4.62,12,1.16,1.31-5.94,3.13-10.23,3.13-8.41,2.31-11.21S758.61,1245.52,757,1241.73Zm-8.25,6.93a22.07,22.07,0,0,0-5.77.16c-1.32.17-3.63,1.49-3.79-.82-.12-1.72,5-5,6.76-4.78s3.63.66,4,2.3S750.54,1249,748.72,1248.66Z" transform="translate(0 -126.51)"/><path class="cls-12" d="M713.55,1226.07s-4-9.4-9.07-7.92-3.63,10.56-2.31,14.18,4.45,7.75,9.57,6.43C716.35,1235.14,714.87,1228.87,713.55,1226.07Z" transform="translate(0 -126.51)"/><path class="cls-12" d="M502.09,204.57l-12,4.54c-1.39-7.07,3.37-15.43-.05-19.81s-3.55-10-3.23-13.54c0,0,1.23-5.4,3.84-7.18,0,0-.57-7.91,2.17-10s7.69-1.75,12,.86,5.61,7,6.1,10.16c-.57,4.82-3.53,13.55-5.48,18.18C502.69,194.4,502.09,204.57,502.09,204.57Z" transform="translate(0 -126.51)"/><path class="cls-5" d="M483,294.21a16.87,16.87,0,0,0,12-12,594.81,594.81,0,0,0,15.27-84.7s-12.81-9.13-28.28-6.9c-2.58,19.11-14.54,68.9-14.54,68.9s-29.05-.79-51.76-17c-18.26-6.82-34.78,13.6-19.79,28.5S448.67,294.65,483,294.21Z" transform="translate(0 -126.51)"/><path class="cls-11" d="M345.74,641.34s0,12.7,4,16,15.59,6,20.5,7.57c4.38,1.4,9.64,3.5,11,8.86a1.66,1.66,0,0,1-1.61,2.06H334.25a4.31,4.31,0,0,1-4.25-3.59,34,34,0,0,1-.31-9.78c.89-6.91,1.78-14.48,1.12-18.49S345.74,641.34,345.74,641.34Z" transform="translate(0 -126.51)"/><path class="cls-6" d="M347.15,653.84a16.48,16.48,0,0,0-3.37,1,3.19,3.19,0,0,0-1.61,4.32,17.72,17.72,0,0,0,2.9,4.3,12.33,12.33,0,0,1-9.86,1.5,47.82,47.82,0,0,0-5.29-1.19,1.51,1.51,0,0,0-1.71,1.65l.77,7.46a5.17,5.17,0,0,0,5.13,4.62H380.3a3,3,0,0,0,2.84-3.84,13.83,13.83,0,0,0-9.49-9.2c-9.27-2.89-21.72-5.22-24.16-9.52A2.21,2.21,0,0,0,347.15,653.84Z" transform="translate(0 -126.51)"/><path class="cls-11" d="M435.21,643.57s8-5.18,17.55-2.17c2,12.87,6.68,16,6.68,16,4,3.34,15.6,6,20.5,7.57,4.38,1.4,9.65,3.5,11,8.86a1.66,1.66,0,0,1-1.61,2.06H443.94a4.24,4.24,0,0,1-4.25-3.59C438.89,666.3,440.23,660.28,435.21,643.57Z" transform="translate(0 -126.51)"/><path class="cls-6" d="M456.85,653.84a16.56,16.56,0,0,0-3.38,1,3.19,3.19,0,0,0-1.6,4.32,17.54,17.54,0,0,0,2.89,4.3,12.33,12.33,0,0,1-9.86,1.5,47.32,47.32,0,0,0-5.29-1.19,1.51,1.51,0,0,0-1.71,1.65l.78,7.46a5.15,5.15,0,0,0,5.12,4.62H490a3,3,0,0,0,2.84-3.84,13.83,13.83,0,0,0-9.49-9.2c-9.27-2.89-21.72-5.22-24.15-9.52A2.21,2.21,0,0,0,456.85,653.84Z" transform="translate(0 -126.51)"/><path class="cls-8" d="M396.21,355.67H327.14s-13.37,28.08-14.27,67.3,3.57,226.39,3.57,226.39a101.52,101.52,0,0,0,42.34,0L365.46,427l56.6,222.38c13.6,3.08,27.75,2.87,42.34,0l-49-242.88S409.14,373.05,396.21,355.67Z" transform="translate(0 -126.51)"/><path class="cls-3" d="M419.6,245.38l-2-1.49c-.63-.47-1.27-.93-1.91-1.39-4-2.85-8.1-5.43-12.06-7.74-.66-.39-1.31-.76-1.95-1.12L399,232.11c-.57-.31-1.13-.61-1.68-.89-2.92-1.57-5.73-3-8.3-4.17l-1.36-.65-1.79-.81-.75-.34a.11.11,0,0,0-.06,0l-1.32-.59c-4.69-2.06-8-3.32-9.19-3.73-.12-.06-.21-.08-.28-.11l-.16-.05a48.19,48.19,0,0,0-8.95-1.11q-2.14-.12-4.8-.12a119,119,0,0,0-16.82,1.23s-2.25.8-5.9,2.27c-4.26,1.71-10.45,4.33-17.22,7.66-5,2.46-10.32,5.31-15.4,8.44a9.75,9.75,0,0,0-4.53,9.89c2.3,13.72,9.24,49.73,26.67,107.11,44.12,6.68,69.08,0,69.08,0S419.83,294.18,419.6,245.38Z" transform="translate(0 -126.51)"/><path class="cls-11" d="M346.24,181c.28,13.85-.23,28.75-4,40.45,11.07,5.3,28.13,7.09,37.36,1.26-2.64-10.62-1.93-24.23-1.14-34.1,0,0-13.53-10.62-19.72-11.28S346.24,181,346.24,181Z" transform="translate(0 -126.51)"/><path class="cls-12" d="M352.81,187s1.17,11,8,15.54,25,8.53,27.69,8.53,5.07-6.52,5.74-21.73,2.5-35.1,0-41.78-11.7-18.39-31.25-17.22S332.59,143,335.43,164.26,352.81,187,352.81,187Z" transform="translate(0 -126.51)"/><path class="cls-6" d="M351.31,169.39c1.33,4.45,1.78,6.68,5.12,6.46s3.79-3.57,3.12-10,.45-12.48,6.69-13.37a33.72,33.72,0,0,1,14.93,1.34c3.78,1.11,14,1.11,14.7-4.9s-5.35-9.36-9.13-15.83-11.37-7.35-19.39-6-18.05,2-25.85,4.68-10,9.8-9.8,16.49-6.24,11.58-3.57,19.16,6.46,8.47,10,14.93,4.9,9.58,8,9.36,3.79-8.25,2.68-13.15-1.56-8.91-.23-9.8S351.31,169.39,351.31,169.39Z" transform="translate(0 -126.51)"/><path class="cls-12" d="M354.65,174.12s-4-9.53-9.19-8-3.68,10.69-2.34,14.37,4.51,7.86,9.69,6.52C357.49,183.31,356,177,354.65,174.12Z" transform="translate(0 -126.51)"/><circle class="cls-3" cx="574.09" cy="48.62" r="10.75"/><polygon class="cls-15" points="398.91 44.03 398.91 46.98 398.91 50.54 398.91 53.49 474.17 53.49 474.17 50.54 474.17 46.98 474.17 44.03 398.91 44.03"/><polygon class="cls-16" points="431.83 42.64 431.83 46.98 431.83 50.54 431.83 54.88 507.1 56.65 507.1 50.54 507.1 46.98 507.1 40.87 431.83 42.64"/><polygon class="cls-4" points="486.71 39.69 486.71 46.98 486.71 50.54 486.71 57.84 578.44 61.98 578.44 50.54 578.44 46.98 578.44 35.54 486.71 39.69"/><rect class="cls-8" x="396.87" y="42.22" width="4.07" height="13.07"/><rect class="cls-8" x="576.12" y="31.77" width="4.65" height="33.99"/><path class="cls-12" d="M446.35,211.21H433.54c1.21-7.1,8.62-13.23,7-18.55s.24-10.63,1.79-13.8c0,0,3.06-4.61,6.13-5.35,0,0,2.27-7.59,5.57-8.58s7.81,1.09,10.93,5.08,2.78,8.51,2.11,11.65c-2.25,4.31-8.1,11.42-11.57,15.06C450.51,201.92,446.35,211.21,446.35,211.21Z" transform="translate(0 -126.51)"/><path class="cls-4" d="M410.75,286.51c25.79-33.34,52.67-81.75,52.67-81.75s-10.73-10.19-26.19-12.49c-10.76,18.79-44.7,63.35-44.7,63.35s-36.54-4.23-57-10.44c-17.74-5.39-28.65-13.29-36.55.89-7.44,13.38,1.3,28.05,46.34,37.91a407.9,407.9,0,0,0,54.32,8.16C404.14,292.48,408,290,410.75,286.51Z" transform="translate(0 -126.51)"/><path class="cls-6" d="M1666.87,906.23l-25.56,14.18-35.56-43.12-4-4.84a93.64,93.64,0,0,1,9-9.54,43.31,43.31,0,0,1,4.43-3.53,29.81,29.81,0,0,0,6.5,6.46,30.66,30.66,0,0,0,10.3,4.83,15.24,15.24,0,0,1,7.66,4.71Z" transform="translate(0 -126.51)"/><path class="cls-17" d="M1614.06,860.18l0,0Z" transform="translate(0 -126.51)"/><path class="cls-17" d="M1611.29,862.44l.06-.05Z" transform="translate(0 -126.51)"/><path class="cls-17" d="M1613.49,860.62l.07,0Z" transform="translate(0 -126.51)"/><path class="cls-17" d="M1611.82,862l0,0Z" transform="translate(0 -126.51)"/><path class="cls-17" d="M1612.92,861.07l.08-.06Z" transform="translate(0 -126.51)"/><path class="cls-17" d="M1610.76,862.91h0l0,0Z" transform="translate(0 -126.51)"/><path class="cls-17" d="M1614.63,859.77l0,0Z" transform="translate(0 -126.51)"/><path class="cls-17" d="M1612.36,861.53l.08-.07Z" transform="translate(0 -126.51)"/><path class="cls-18" d="M1611.35,862.39l.47-.41Z" transform="translate(0 -126.51)"/><path class="cls-18" d="M1611.87,861.94l.49-.41Z" transform="translate(0 -126.51)"/><path class="cls-18" d="M1610.78,862.89l.51-.45Z" transform="translate(0 -126.51)"/><path class="cls-18" d="M1614.66,859.75l.53-.37Z" transform="translate(0 -126.51)"/><path class="cls-18" d="M1614.11,860.15l.52-.38Z" transform="translate(0 -126.51)"/><path class="cls-18" d="M1612.44,861.46l.48-.39Z" transform="translate(0 -126.51)"/><path class="cls-18" d="M1613,861c.16-.14.33-.27.49-.39C1613.33,860.74,1613.16,860.87,1613,861Z" transform="translate(0 -126.51)"/><path class="cls-18" d="M1613.56,860.57l.5-.39Z" transform="translate(0 -126.51)"/><path class="cls-6" d="M1660.89,808a16.88,16.88,0,1,1-23.56-3.85A16.88,16.88,0,0,1,1660.89,808Z" transform="translate(0 -126.51)"/><path class="cls-6" d="M1584.46,841l20.82,28.94-2.9,2.09a13.58,13.58,0,0,1-19-3.09l-5-6.9a13.57,13.57,0,0,1,3.1-19Z" transform="translate(0 -126.51)"/><rect class="cls-8" x="1589.09" y="833.14" width="24.01" height="35.66" transform="translate(-195.6 968.45) rotate(-35.72)"/><path class="cls-3" d="M1632,785.64l40.84,56.79c-19.12.21-36.42,7.1-51.61,16l-20.82-28.94C1614,817.84,1625.73,803.71,1632,785.64Z" transform="translate(0 -126.51)"/><path class="cls-3" d="M1664.17,830.35l8.69,12.08c-19.12.21-36.42,7.1-51.61,16l-6-8.27S1641.06,834.36,1664.17,830.35Z" transform="translate(0 -126.51)"/><rect class="cls-8" x="1650.55" y="776.57" width="3.78" height="74.93" transform="translate(-164.37 991.51) rotate(-35.72)"/><polygon class="cls-8" points="1668.66 778.72 1640.01 794.61 1632.54 785 1660.04 769.75 1668.66 778.72"/><path class="cls-8" d="M1509.19,1334.47s0,12.7,4,16,15.59,6,20.48,7.58c4.38,1.39,9.64,3.49,11,8.84a1.65,1.65,0,0,1-1.6,2.07h-45.4a4.3,4.3,0,0,1-4.24-3.59,33.92,33.92,0,0,1-.31-9.77c.89-6.91,1.78-14.48,1.11-18.48S1509.19,1334.47,1509.19,1334.47Z" transform="translate(0 -126.51)"/><path class="cls-6" d="M1491.32,1360.59c.25,2.94.72,5.56,1.44,6.71h0a5.13,5.13,0,0,0,4.78,3.3h46.15a3,3,0,0,0,2.85-3.83,15.46,15.46,0,0,0-1-2.35,13.88,13.88,0,0,0-8.49-6.85c-9.28-2.89-21.71-5.21-24.15-9.51a2.2,2.2,0,0,0-2.33-1.1,15.81,15.81,0,0,0-2.77.78c-2.5.64-6,1.45-7.73,1.35-2.84-.16-7.68-2.17-8.53-.67C1491.06,1349.38,1490.86,1355.47,1491.32,1360.59Z" transform="translate(0 -126.51)"/><path class="cls-6" d="M1491.32,1360.59c.25,2.94.72,5.56,1.44,6.71h0a5.13,5.13,0,0,0,4.78,3.3h46.15a3,3,0,0,0,2.85-3.83,15.46,15.46,0,0,0-1-2.35c-3.49.51-6.46,4.21-17.08,4.21-12.36,0-19.87,1.16-23.72-2.5C1501.42,1362.91,1497.05,1359.32,1491.32,1360.59Z" transform="translate(0 -126.51)"/><path class="cls-8" d="M1438.39,1334.47s0,12.7,4,16,15.58,6,20.48,7.58c4.38,1.39,9.64,3.49,11,8.84a1.66,1.66,0,0,1-1.61,2.07h-45.39a4.32,4.32,0,0,1-4.25-3.59,33.61,33.61,0,0,1-.3-9.77c.89-6.91,1.78-14.48,1.11-18.48S1438.39,1334.47,1438.39,1334.47Z" transform="translate(0 -126.51)"/><path class="cls-6" d="M1420.51,1360.59c.26,2.94.72,5.56,1.45,6.71h0a5.16,5.16,0,0,0,4.79,3.3h46.15a3,3,0,0,0,2.85-3.83,15.46,15.46,0,0,0-1-2.35,13.9,13.9,0,0,0-8.5-6.85c-9.27-2.89-21.71-5.21-24.14-9.51a2.22,2.22,0,0,0-2.34-1.1,16,16,0,0,0-2.76.78c-2.5.64-6,1.45-7.74,1.35-2.83-.16-7.68-2.17-8.52-.67C1420.26,1349.38,1420.06,1355.47,1420.51,1360.59Z" transform="translate(0 -126.51)"/><path class="cls-6" d="M1420.51,1360.59c.26,2.94.72,5.56,1.45,6.71h0a5.16,5.16,0,0,0,4.79,3.3h46.15a3,3,0,0,0,2.85-3.83,15.46,15.46,0,0,0-1-2.35c-3.49.51-6.47,4.21-17.09,4.21-12.36,0-19.86,1.16-23.71-2.5C1430.61,1362.91,1426.24,1359.32,1420.51,1360.59Z" transform="translate(0 -126.51)"/><path class="cls-3" d="M1507.22,1045.07s13.76,27.87,15.2,67-.36,226.24-.36,226.24a101.6,101.6,0,0,1-42.3.6l-9.82-222.09-21.5,221.3c-13.53,3.29-26.67,1-41.34-1.62,0,0,.72-244,22.76-284.33C1462.59,1031.2,1507.22,1045.07,1507.22,1045.07Z" transform="translate(0 -126.51)"/><path class="cls-7" d="M1421.85,1062.93c-1,7-4.68,19.7-1,22.38s41.75,9,60.79,8,34.73-3.67,38.07-4.67,1.67-10.69-.67-18.37S1421.85,1062.93,1421.85,1062.93Z" transform="translate(0 -126.51)"/><path class="cls-12" d="M1474.19,878.22s2.81,10.72,10.25,14.16,20.79,6.82,23.43,6.42,9.23-9.34,7.62-24.46-2.77-35.05-6.24-41.28-14.31-16.41-33.45-12.34-28.15,17.09-22.17,37.64S1474.19,878.22,1474.19,878.22Z" transform="translate(0 -126.51)"/><path class="cls-12" d="M1472,868.12c-2.47,13.62-5.93,28.1-11.93,38.81,9.79,7.4,26.14,12.55,36.33,8.67-.47-10.93,2.94-24.11,5.67-33.61,0,0-11.14-13.09-17.06-15S1472,868.12,1472,868.12Z" transform="translate(0 -126.51)"/><path class="cls-7" d="M1506,855.85c6.14-8.59,12.19-11.75,9.64-19.7s-6.07-10.34-11.55-13.79-12.39-10.51-24.44-8.24-14.33,6.45-20.83,9.68-13.72,12-12.91,18.84,6.91,12.92,5.67,19.63.82,15.87,5.57,19,5.91,1.81,9.06,6.29,9.76,8,14.65,4.54,11.8-.89,15-6.33,2.79-8.47,6.6-11.55a9.82,9.82,0,0,0,2.82-11C1504.13,860,1506,855.85,1506,855.85Z" transform="translate(0 -126.51)"/><path class="cls-8" d="M1521.09,1033.87c.8-11.17,5.48-62.73,7.67-86.82q.65-6.07,1.14-12.48l-2-1.48c-.63-.47-1.27-.93-1.91-1.39-4-2.84-8.1-5.42-12-7.73-.66-.39-1.31-.76-2-1.12l-2.74-1.53-1.67-.89c-2.93-1.57-5.73-2.95-8.3-4.17l-1.36-.64-1.79-.82-.75-.33a.09.09,0,0,0-.05,0l-1.33-.59c-4.68-2.05-8-3.31-9.17-3.72-.12-.06-.22-.08-.28-.11l-.16,0a48.38,48.38,0,0,0-9-1.11c-1.43-.08-3-.12-4.8-.12a119,119,0,0,0-16.81,1.23s-2.24.8-5.89,2.27c-4.26,1.71-10.44,4.33-17.2,7.65-3.57,1.76-7.3,3.71-11,5.82a18.34,18.34,0,0,0-8.89,12.61c-3.59,19.33,3.6,126.28,10.95,132.54s92.17,11.11,99.24,3.37S1520,1048.57,1521.09,1033.87Z" transform="translate(0 -126.51)"/><path class="cls-12" d="M1601.38,912.16c3.1-6.49,4.06-9.64,3.93-15.2s3.14-10.15,5.49-12.77,6.25-8.25,8-8.06,1.2,5.25-3.18,11.1c7.07-2.19,8.21-4.16,11.24-8.76s8.81-10.15,11.65-10.27,1.68,5,.56,9.24-1.94,12.68-5.28,16.21-13,6.79-15.24,11.31a37.81,37.81,0,0,0-2.9,10.16Z" transform="translate(0 -126.51)"/><path class="cls-7" d="M1446.9,912.33a189.18,189.18,0,0,1,55.12,6.4c-4.54-10.92-9.08-17.17-12.34-18.16-2.2-.66-15.58-1.79-24.07-2.46a17.38,17.38,0,0,0-17.53,10.59A29.77,29.77,0,0,0,1446.9,912.33Z" transform="translate(0 -126.51)"/><path class="cls-7" d="M1520.57,931.16c15,1.91,33.44,24.6,41.45,28.21s11,7,14.44-.41,3.71-21.73,8-28,11.9-22,13.35-29.08c10.4,4.06,28.09,7.19,28.09,7.19s-6.9,32.89-8,45.16-4.73,33.37-9.36,39.92-5.56,17.58-14,20.29-28.43-9.32-36.65-11.68S1526,983.25,1518.32,974s-15.4-20.2-12.67-28.68S1514.37,930.38,1520.57,931.16Z" transform="translate(0 -126.51)"/><path class="cls-12" d="M2032.87,1410.17l4.1-12.57c-7.35-1.09-15.74,4.22-20.44.9s-10.51-3.17-14.11-2.67c0,0-5.51,1.53-7.22,4.3,0,0-8.18-.2-10.2,2.73s-1.43,8,1.47,12.35,7.47,5.46,10.77,5.8c5-.82,13.81-4.29,18.49-6.53C2022.41,1411.28,2032.87,1410.17,2032.87,1410.17Z" transform="translate(0 -126.51)"/><path class="cls-3" d="M2123.61,1386.59a17.44,17.44,0,0,1-12,12.84,614.5,614.5,0,0,1-86.86,18.77s-9.87-12.89-8.13-28.93c19.63-3.34,70.58-17.46,70.58-17.46s13.08-22.42,19.48-49,15.52-43.68,23.53-47.4,27.25,1.59,22.14,30.82S2123.61,1386.59,2123.61,1386.59Z" transform="translate(0 -126.51)"/><path class="cls-12" d="M2319,1675.6s11.49,6.31,12.53,11.6-2.31,17.11-3.33,22.32c-.91,4.65-1.62,10.47,2.53,14.39a1.72,1.72,0,0,0,2.67-.43l22.57-41.13a4.46,4.46,0,0,0-1.14-5.63,34.84,34.84,0,0,0-8.7-5.13c-6.7-2.62-14-5.58-17.3-8.18S2319,1675.6,2319,1675.6Z" transform="translate(0 -126.51)"/><path class="cls-8" d="M2329.61,1683.09a17.46,17.46,0,0,1,2.59-2.56,3.28,3.28,0,0,1,4.7.69,18.25,18.25,0,0,1,2.46,4.76,12.75,12.75,0,0,0,6.26-8.18,48.19,48.19,0,0,1,1.54-5.38,1.57,1.57,0,0,1,2.35-.73l6.36,4.41a5.32,5.32,0,0,1,1.64,6.93l-23,41.81a3.05,3.05,0,0,1-4.88.67,14.3,14.3,0,0,1-3.61-13.17c2-9.82,6.06-22.25,3.38-26.58A2.3,2.3,0,0,1,2329.61,1683.09Z" transform="translate(0 -126.51)"/><path class="cls-12" d="M2075.74,1681.15s-4.73,12.23-9.83,13.95-17.26,0-22.57-.33c-4.73-.29-10.59-.23-13.92,4.41a1.71,1.71,0,0,0,.78,2.59l43.75,16.92a4.46,4.46,0,0,0,5.43-1.88,35.15,35.15,0,0,0,3.93-9.3c1.72-7,3.68-14.61,5.82-18.23S2075.74,1681.15,2075.74,1681.15Z" transform="translate(0 -126.51)"/><path class="cls-8" d="M2069.73,1692.65a17.3,17.3,0,0,1,2.87,2.23,3.28,3.28,0,0,1-.06,4.75,18.1,18.1,0,0,1-4.39,3.06,12.76,12.76,0,0,0,8.94,5.12,47.35,47.35,0,0,1,5.54.83,1.55,1.55,0,0,1,1,2.22l-3.53,6.89a5.3,5.3,0,0,1-6.65,2.54l-44.48-17.2a3,3,0,0,1-1.31-4.74,14.27,14.27,0,0,1,12.57-5.33c10,.67,22.86,3.06,26.8-.17A2.29,2.29,0,0,1,2069.73,1692.65Z" transform="translate(0 -126.51)"/><path class="cls-6" d="M2184.18,1485.24c12.5,48.81,12.61,90.61,40.81,124.85s56.44,58.11,93.51,82.47a115,115,0,0,0,18.43-40.23c-27-21.17-49.63-46.22-71.94-71.87-25.4-29.19-22.58-80.51-28.42-111.69-8.55-45.67-15.93-61-15.93-61l-58.95,12.06s-57.79,72.2-72.16,120-25.58,140-25.58,140a115.18,115.18,0,0,0,40.91,16.86s14.81-95.42,29.53-137.89S2184.18,1485.24,2184.18,1485.24Z" transform="translate(0 -126.51)"/><path class="cls-8" d="M2160,1262.9l-29.78,12.49s-15.23,34.58.89,71.28a162.53,162.53,0,0,0,9,17.58c17,32.11,21.54,55.6,21.54,55.6s27.25,1.54,58.95-12.06c-2.68-78.53-32.94-124.16-32.94-124.16h0C2176.18,1265.14,2160,1262.9,2160,1262.9Z" transform="translate(0 -126.51)"/><path class="cls-11" d="M2122.49,1252.5c3.32,6.61,5.74,14.46,7.74,22.89,10.44,0,20.31-4.55,29.78-12.49-6.14-11-10.15-23.6-12.46-37.56C2134.39,1230,2125.37,1238.41,2122.49,1252.5Z" transform="translate(0 -126.51)"/><path class="cls-12" d="M2143.44,1240.54s-1.18,11.39-8.25,16.06-25.8,8.87-28.56,8.88-5.25-6.72-6-22.42-2.68-36.23-.11-43.14,12-19,32.22-17.85,31.44,13,28.56,35S2143.44,1240.54,2143.44,1240.54Z" transform="translate(0 -126.51)"/><path class="cls-6" d="M2144.94,1222.36c-1.37,4.6-1.82,6.9-5.27,6.68s-3.92-3.67-3.25-10.34-.49-12.88-6.94-13.79a35,35,0,0,0-15.41,1.42c-3.91,1.16-14.49,1.19-15.19-5s5.49-9.68,9.39-16.36,11.71-7.62,20-6.26,18.64,2,26.7,4.76,10.37,10.1,10.16,17,6.47,12,3.73,19.78-6.65,8.76-10.31,15.44-5,9.9-8.26,9.68-3.93-8.5-2.79-13.57,1.58-9.2.2-10.12S2144.94,1222.36,2144.94,1222.36Z" transform="translate(0 -126.51)"/><path class="cls-12" d="M2141.5,1227.26s4.12-9.85,9.47-8.31,3.83,11,2.46,14.83-4.64,8.12-10,6.76C2138.59,1236.75,2140.13,1230.19,2141.5,1227.26Z" transform="translate(0 -126.51)"/><path class="cls-12" d="M2276.17,1393.05l-12.18-5.16c-1.71,7.23,2.87,16-.83,20.44s-4,10.2-3.86,13.84c0,0,1.06,5.61,3.67,7.56,0,0-.89,8.13,1.85,10.39s7.87,2.11,12.44-.42,6.07-7,6.69-10.24c-.4-5-3.1-14.12-4.94-19C2276.39,1403.56,2276.17,1393.05,2276.17,1393.05Z" transform="translate(0 -126.51)"/><path class="cls-3" d="M2260.39,1300.63a17.41,17.41,0,0,1,11.76,13,614.82,614.82,0,0,1,11.34,88.14s-13.69,8.75-29.52,5.65c-1.66-19.84-11.41-71.81-11.41-71.81s-21.23-14.93-47.18-23.57-42.21-19.17-45.24-27.47,3.9-27,32.6-19.44S2260.39,1300.63,2260.39,1300.63Z" transform="translate(0 -126.51)"/><path class="cls-6" d="M2532.07,1545c1.69,5.12,3.37,10.24,3.37,10.24s8.86-17.16,5.91-22.66l-8.56-15.95s-3.15,1.31-9.54-.86a34.2,34.2,0,0,1-5.28,16.93C2526,1537.14,2530.76,1541,2532.07,1545Z" transform="translate(0 -126.51)"/><path class="cls-8" d="M2632.14,1379.36l-2.31,2.42c-9.18,10.4-32.73,47.51-57.43,86.69a74.1,74.1,0,0,1-11,12.37,12.47,12.47,0,0,1-17.07-.21c-40.23-39.25-64-100.43-64-100.43l-7.88,17.24-36.52,79.93c5.4.25,11.11.53,17,1.33,17.28,2.46,47.34,23.52,60.45,32.07a43.35,43.35,0,0,0,9.88,5,34,34,0,0,1-5.26,16.92c-2.31-1.26-4.87-2.59-7.74-4-11.91-5.3-59.19-17.7-102-29a9.88,9.88,0,0,1-7.32-10.76c11.28-93.07,44.89-179.8,44.89-179.8s32.31-7.19,52.31,0c35.92,16.43,38.27,89,58.46,133.44,5.08,4.84,4.8-13.91,8.34-21.27,7.5-15.74,36.62-38.09,48.74-48a47.91,47.91,0,0,0,4.24-3.89A33.3,33.3,0,0,1,2632.14,1379.36Z" transform="translate(0 -126.51)"/><path class="cls-6" d="M2651.91,1365.83l10.78-.14s-13.7-13.61-19.84-12.44l-17.79,3.37s.48,5.12-7.17,12.9a33.39,33.39,0,0,1,14.25,9.85C2640.7,1370.54,2647,1365.89,2651.91,1365.83Z" transform="translate(0 -126.51)"/><path class="cls-6" d="M2623.06,1362c4.08.78,17.58-7.86,23.11-5.09s12.17,8.89,12.17,8.89,10,5.48,16.66.15a.67.67,0,0,0-.06-1.06l-23.88-16.27a5.7,5.7,0,0,0-5.22-.63c-3.65,1.38-10,3.56-12.79,3.18,3.39-5.17,7.35-10.21,7.35-10.21l-3-2-11,11.51S2618.16,1356.82,2623.06,1362Z" transform="translate(0 -126.51)"/><path class="cls-12" d="M2430.56,1207.23A129.8,129.8,0,0,0,2411,1227.6c-9.71,12.59-31.12,28.26-31.12,28.26s-11.26-12.87-16.56-21.45-9.7-22.48-9.82-26c5.63-2.21,7.83-8.58,7.83-8.58a30.3,30.3,0,0,0,5.08,1.51c1.77.22,5.08.44,5.52-3.75s2-8.83-2-12.8-11.84-6.19-14.86-6.19-8.32,18.11-10.08,30.25c-1.66,11.38,2.51,56,18.69,79a7.37,7.37,0,0,0,8.38,2.66,192.93,192.93,0,0,0,58.46-32.38S2436,1212.68,2430.56,1207.23Z" transform="translate(0 -126.51)"/><path class="cls-8" d="M2473,1098.65c-16.13,2.75-29.54,9.67-33.86,22.18s-11,28-9.76,42,13.73,14.84,18.18,26.33,19.17,27.1,38.18,26.21,46-20.93,70.28-22.43,45.11-24.82,45.46-40.87,26.16-38.61,13.71-50-26.74-4.43-38.1,4.89-21.76-3.68-37.55-1.84-21.31,7.83-31.83,1.5S2481.23,1097.24,2473,1098.65Z" transform="translate(0 -126.51)"/><path class="cls-3" d="M2423,1251.27c1,8.94,6,17.88,12.25,29.14.9,1.6,1.76,3.34,2.57,5.14a159.21,159.21,0,0,1,8,23.67c9.24,4.93,22,5.22,36.64,3,5-.74,10.28-1.78,15.68-3a704.94,704.94,0,0,0,20.35-73.2,35.73,35.73,0,0,0-21.25-40.61l-.21-.09c-1.46-.59-2.77-1.11-3.88-1.53-2.5-1-4-1.47-4-1.47l-33.38,1.24s-2.1.85-5.19,2.25l-1.46.68c-5.59,2.61-13.44,6.63-18.53,10.74C2427.91,1225.77,2423.28,1236,2423,1251.27Z" transform="translate(0 -126.51)"/><path class="cls-11" d="M2455.87,1194.86q15.57,9.93,33.67,0a106.27,106.27,0,0,1-2.38-11.52,82,82,0,0,1-.79-17.62l-13.66.33-13.66-.33a83.73,83.73,0,0,1-1.07,19.43C2457.44,1188.36,2456.74,1191.59,2455.87,1194.86Z" transform="translate(0 -126.51)"/><path class="cls-12" d="M2533.27,1066.2c23.4,53,22.52,81.68,21.19,87.42s-18.1,47.69-23,58.33-15.45,34-26,29.09-10.6-15.89-6.19-31.34,31.35-58.73,31.35-58.73c-8.83-28.69-4-53.86-7.06-83,0,0-13.8-8.5-15.46-12.14s2.65-19.21,5.3-20.53,22.52,3.31,23.18,6.62S2537.24,1054.72,2533.27,1066.2Z" transform="translate(0 -126.51)"/><path class="cls-12" d="M2450.55,1195.81c.3,9.58,2.81,24.35,15.23,25.83,14.6,1.74,24-19,27.34-27.85-2.5-1-4-1.47-4-1.47-11,6.76-22.13,7-33.38,1.24C2455.74,1193.56,2453.64,1194.41,2450.55,1195.81Z" transform="translate(0 -126.51)"/><path class="cls-12" d="M2486.3,1165.52s-4.23,10.14-12,12.48-21.35,3.82-23.89,3.06-7.77-10.44-4.09-25.06,7.57-34,11.84-39.67,16.32-14.13,34.55-7.48,25.27,20.68,16.56,40S2486.3,1165.52,2486.3,1165.52Z" transform="translate(0 -126.51)"/><path class="cls-8" d="M2450.38,1130.65a50,50,0,0,1,1.51-5.22l.13-.06c3.93-10.73,14.06-27.68,37.68-20,33.6,10.95,25.66,36,24.22,39.26s-6.23,17-12.17,19.17a24.24,24.24,0,0,1-11,1.32l4.79-7.55c-3.85-7.14-12.72-9.1-12.24-18.4s2.24-15.23.36-17.4-13.78-7.11-21.17-2.41a28.85,28.85,0,0,0-3.74,2.88s-6.4,8.72-8.25,16.37c-.9-1.06-.91-3.22-.59-5.5-.06.12-.11.2-.11.2S2450,1132.31,2450.38,1130.65Z" transform="translate(0 -126.51)"/><path class="cls-12" d="M2488.21,1152.79s6.5-7.91,11-5,.45,11.19-1.86,14.3-6.51,6.18-11,3.44C2482.9,1160.71,2486.13,1155.1,2488.21,1152.79Z" transform="translate(0 -126.51)"/><path class="cls-6" d="M2527.08,1516.33c.49,4.12,12.78,14.4,11.8,20.5s-4.82,14.29-4.82,14.29-2.23,11.15,4.87,15.93a.66.66,0,0,0,1-.37l8.34-27.67a5.68,5.68,0,0,0-1-5.17c-2.42-3.07-6.4-8.47-6.88-11.24,6,1.67,12,3.94,12,3.94l1-3.48-14.29-7.08S2530.51,1510.1,2527.08,1516.33Z" transform="translate(0 -126.51)"/><path class="cls-12" d="M2755.11,1324.2c-7.52-7.93-8.38-14.91-9.52-24.62s-4.39-20.65-2.85-23.37,16.44-9.57,18.55-8,8.4,11.28,7.47,14-6.71,5.71-6.71,5.71,2,13-1,17.88,4.77,10.64,4.77,10.64S2764.52,1323.06,2755.11,1324.2Z" transform="translate(0 -126.51)"/><path class="cls-9" d="M2786.86,1684s-5,12.42-10.26,14.11-17.63-.27-23-.68c-4.83-.37-10.81-.39-14.29,4.3a1.74,1.74,0,0,0,.76,2.65l44.43,17.94a4.54,4.54,0,0,0,5.57-1.84,35.31,35.31,0,0,0,4.16-9.44c1.86-7.11,4-14.87,6.21-18.53S2786.86,1684,2786.86,1684Z" transform="translate(0 -126.51)"/><path class="cls-6" d="M2780.54,1695.69a16.86,16.86,0,0,1,2.9,2.31,3.35,3.35,0,0,1-.13,4.85,18.46,18.46,0,0,1-4.53,3.06,13,13,0,0,0,9,5.37,47.91,47.91,0,0,1,5.64.92,1.58,1.58,0,0,1,1,2.29l-3.7,7A5.43,5.43,0,0,1,2784,1724l-45.18-18.24a3.11,3.11,0,0,1-1.26-4.86,14.59,14.59,0,0,1,12.92-5.26c10.2.84,23.3,3.47,27.37.23A2.33,2.33,0,0,1,2780.54,1695.69Z" transform="translate(0 -126.51)"/><path class="cls-9" d="M3095.9,1484.18s10.13-8.77,15.56-7.88,15.57,8.28,20.2,11.11c4.13,2.52,9.45,5.27,14.68,2.68a1.75,1.75,0,0,0,.53-2.71l-31.37-36.21a4.55,4.55,0,0,0-5.8-.9,35.42,35.42,0,0,0-8,6.51c-4.89,5.48-10.32,11.42-14,13.66S3095.9,1484.18,3095.9,1484.18Z" transform="translate(0 -126.51)"/><path class="cls-6" d="M3106.84,1476.68a17.7,17.7,0,0,1-1.53-3.38,3.36,3.36,0,0,1,2.33-4.26,18.68,18.68,0,0,1,5.43-.66,13,13,0,0,0-5.61-8.9,49.51,49.51,0,0,1-4.6-3.39,1.59,1.59,0,0,1,.13-2.51l6.48-4.53a5.43,5.43,0,0,1,7.22.9l31.9,36.81a3.12,3.12,0,0,1-1.09,4.91,14.57,14.57,0,0,1-13.89-1.21c-8.71-5.39-19.17-13.7-24.27-12.67A2.36,2.36,0,0,1,3106.84,1476.68Z" transform="translate(0 -126.51)"/><path class="cls-8" d="M3111.29,1489,3008,1584.12a18,18,0,0,1-26.11-1.76c-18.67-22.53-54-66.86-72.67-101.06-2,5.4-5.4,13.6-9.68,23.76-26.28,62.55-87.22,198.38-87.22,198.38a107.41,107.41,0,0,1-41.42-16.72l81.27-220.1c15.34-42.65,22.28-61,22.28-61s39.43-14.34,72.86.56c24.7,34,52.49,115.5,52.49,115.5,43-34.94,82.25-66.37,82.25-66.37A107.65,107.65,0,0,1,3111.29,1489Z" transform="translate(0 -126.51)"/><path class="cls-6" d="M2805.64,1396.43c-30.94-31.18-58.14-69.09-58.14-69.09s8-12.77,22.72-18.95c9.43,11.8,34.42,35.75,45.51,46.23,13.22-18.71,25.41-58.64,35.2-66.37,18.44,15.29,11.92,60.28,11.92,60.28s-13.42,30.28-47.56,49.33A8.09,8.09,0,0,1,2805.64,1396.43Z" transform="translate(0 -126.51)"/><path class="cls-7" d="M2850.69,1288.64l2.09-1.55c.67-.49,1.35-1,2-1.45,4.27-3,8.59-5.66,12.78-8.07l2.07-1.17,2.9-1.59,1.77-.93c3.1-1.62,6.07-3.07,8.79-4.33l1.44-.67,1.9-.84c.27-.13.52-.24.79-.35,0,0,0,0,.06,0l1.4-.61c5-2.13,8.5-3.43,9.71-3.86l.3-.11.17,0a51.07,51.07,0,0,1,9.46-1.1c1.51-.08,3.18-.1,5.06-.09a125.35,125.35,0,0,1,17.73,1.43s2.36.86,6.2,2.44c4.48,1.84,11,4.65,18.1,8.22,5.25,2.63,10.83,5.68,16.17,9a10.27,10.27,0,0,1,4.7,10.47c-2.53,14.45-10.14,52.37-29,112.74-46.59,6.7-72.85-.55-72.85-.55S2850.06,1340.1,2850.69,1288.64Z" transform="translate(0 -126.51)"/><path class="cls-11" d="M2928.56,1221.3c-.41,14.61,0,30.32,3.87,42.68-11.73,5.51-29.73,7.26-39.41,1,2.87-11.18,2.22-25.54,1.47-36,0,0,14.36-11.09,20.88-11.74S2928.56,1221.3,2928.56,1221.3Z" transform="translate(0 -126.51)"/><path class="cls-12" d="M2923.65,1221.26s-3.67,10.93-11.64,14-22.06,5.59-24.77,5-8.91-10.34-6.16-25.92,5.37-36.16,9.42-42.38,16-16,35.58-10.41,28,19.74,20.32,40.63S2923.65,1221.26,2923.65,1221.26Z" transform="translate(0 -126.51)"/><path class="cls-6" d="M2925.81,1209.93s-5.79-.5-4.2-7.62,4.9-13.14,3.24-20.09-7.06-7.44-11-7.25-13.66-1.76-16.12-4.28-4.37,1.25-6.43.12-2-9.48,5.92-13.06,10.68-7.23,19.68-6.12,14.53,5.89,20.18,7.68,13.5,4.07,17.4,12.94-.22,15.43-.6,23.53.12,14.69-6.86,18.88-10.9,5.81-14.5,11.59-4.31,4.36-6.82,4-.27-10.17.93-13.48S2927.89,1210.65,2925.81,1209.93Z" transform="translate(0 -126.51)"/><path class="cls-12" d="M2924.68,1207.8s6.22-8.76,11.14-6.07,1.31,11.68-.87,15.11-6.35,7-11.3,4.42C2919.73,1216.48,2922.69,1210.38,2924.68,1207.8Z" transform="translate(0 -126.51)"/><path class="cls-6" d="M2896.62,1202.8l1.2-5.42a3.83,3.83,0,0,1,4.56-2.9l13.9,3.09a3.82,3.82,0,0,1,2.9,4.56l-1.2,5.42a3.82,3.82,0,0,1-4.56,2.9l-13.9-3.09A3.82,3.82,0,0,1,2896.62,1202.8Zm5.16-5.61a1,1,0,0,0-1.24.79l-1.21,5.43a1,1,0,0,0,.79,1.24l13.9,3.09a1.06,1.06,0,0,0,1.25-.79l1.2-5.43a1,1,0,0,0-.79-1.24Z" transform="translate(0 -126.51)"/><path class="cls-6" d="M2875.36,1198.4l1.34-6a3.35,3.35,0,0,1,4-2.53l10.09,2.24a3.34,3.34,0,0,1,2.53,4l-1.34,6a3.34,3.34,0,0,1-4,2.53l-10.09-2.24A3.34,3.34,0,0,1,2875.36,1198.4Zm4.8-6.19a.91.91,0,0,0-1.09.69l-1.34,6a.93.93,0,0,0,.7,1.09l10.09,2.24a.9.9,0,0,0,1.08-.69l1.34-6a.91.91,0,0,0-.69-1.09Z" transform="translate(0 -126.51)"/><rect class="cls-6" x="2893.86" y="1195.07" width="2.43" height="6.95" transform="translate(1097.05 3638.18) rotate(-77.47)"/><rect class="cls-6" x="2920.17" y="1198.97" width="2.43" height="7.29" transform="translate(1113.88 3667.18) rotate(-77.48)"/><path class="cls-12" d="M3012.61,1098.19c2.33-10.68-.55-17.1-4.59-26s-6.93-19.94-9.65-21.47-19,.31-20,2.71-1.36,14,.84,15.85,8.7,1.41,8.7,1.41,5,12.22,10.14,14.76,1.42,11.58,1.42,11.58S3004,1102.08,3012.61,1098.19Z" transform="translate(0 -126.51)"/><path class="cls-6" d="M3017.07,1199.91c5.15-43.62,4-104.74,4-104.74s-14.2-5.11-29.57-.92c-2.52,25.75-10,67.94-9.23,99.72-16.88,39.49-34.5,74.86-38.41,89.46s-5,28.71,6,38.79,34.82-18.6,47.44-53.35A578.13,578.13,0,0,0,3017.07,1199.91Z" transform="translate(0 -126.51)"/></svg>