<?xml version="1.0" encoding="utf-8"?>
<!-- Generator: Adobe Illustrator 24.1.3, SVG Export Plug-In . SVG Version: 6.00 Build 0)  -->
<svg version="1.1" id="Ñëîé_1" xmlns="http://www.w3.org/2000/svg" xmlns:xlink="http://www.w3.org/1999/xlink" x="0px" y="0px"
	 viewBox="0 0 606.19 500" style="enable-background:new 0 0 606.19 500;" xml:space="preserve">
<style type="text/css">
	.st0{opacity:0.18;fill:#3F72FC;enable-background:new    ;}
	.st1{opacity:0.08;fill:#00467F;}
	.st2{fill:#F3F8FC;}
	.st3{fill:#C9E5F3;}
	.st4{fill:#4B84B3;}
	.st5{fill:#9ED4E7;}
	.st6{fill:#DEEFF8;}
	.st7{fill:#5EA2C7;}
	.st8{fill:#88CAE0;}
	.st9{fill:#1A336B;}
	.st10{fill:#39679E;}
	.st11{fill:#FFFFFF;}
	.st12{fill:#1A3474;}
	.st13{fill:#294C86;}
	.st14{fill:#72C1D9;}
	.st15{fill:#B4DCED;}
	.st16{opacity:0.06;fill:#002E61;}
	.st17{fill:#030C2F;}
	.st18{fill:#FFB0C1;}
	.st19{fill:url(#SVGID_3_);}
	.st20{fill:url(#SVGID_4_);}
	.st21{fill:url(#SVGID_5_);}
	.st22{fill:url(#SVGID_6_);}
	.st23{fill:#BBDBED;}
	.st24{fill:#6DB6E2;}
	.st25{fill:#091946;}
	.st26{fill:url(#SVGID_7_);}
	.st27{fill:url(#SVGID_8_);}
	.st28{fill:url(#SVGID_9_);}
	.st29{fill:url(#SVGID_10_);}
	.st30{fill:#94D7F2;}
	.st31{fill:#BFE0F1;}
	.st32{fill:#B1D9EE;}
</style>
<g>
	<g>
		<defs>
			<rect id="SVGID_1_" x="0.18" y="0" width="606" height="500"/>
		</defs>
		<clipPath id="SVGID_2_">
			<use xlink:href="#SVGID_1_"  style="overflow:visible;"/>
		</clipPath>
	</g>
</g>
<path class="st0" d="M501.91,287.22c-7.59,14.32-21.29,25.45-25.09,41.12c-1.71,6.73-1.22,13.83-2.08,20.8
	c-3.06,24.35-21.17,44.42-42.95,55.92c-0.98,0.49-1.84,0.98-2.81,1.47c-14.32,6.98-29.74,10.77-45.4,13.09
	c-9.55,1.47-19.21,2.33-28.88,3.06c-39.89,3.18-79.79,4.28-119.93,3.43c-19.34-0.37-39.04-1.35-57.27-7.71
	c-0.98-0.37-1.84-0.61-2.81-0.98c-14.81-5.63-27.9-15.05-39.53-25.94l-0.49-0.49c-17.25-16.15-31.69-35.73-40.87-57.52
	c-13.22-31.33-15.42-65.96-6.49-98.63c5.51-19.46,15.05-37.81,16.52-57.88c1.1-15.05-2.45-30.35-0.12-45.28
	c4.89-29.74,32.43-51.52,61.55-58.86s59.84-3.18,89.58,0.98c14.56,2.08,31.57,7.71,45.89,3.18c17.62-5.38,32.55-12.24,51.64-12.24
	c7.71,0,15.66,0.86,22.88,3.92c8.69,3.79,15.54,10.65,22.52,17.01c19.58,17.5,41.85,31.69,61.92,48.83
	c20.07,17.01,38.18,37.81,45.52,63.14c3.67,12.36,4.53,25.33,4.89,38.18C510.72,253.32,510.11,271.68,501.91,287.22z"/>
<g>
	<g>
		<path class="st1" d="M163.32,338.75l89.86,9.36c1.36,0.14,2.26,1.49,1.86,2.8l-20.27,66.68c-0.3,1-1.27,1.64-2.3,1.53l-90.04-9.19
			c-1.36-0.14-2.26-1.49-1.86-2.8l20.45-66.85C161.31,339.29,162.28,338.65,163.32,338.75z"/>
		<polygon class="st2" points="159.97,336.44 254.24,346.26 232.68,417.18 138.22,407.53 		"/>
		<g>
			<g>
				<path class="st3" d="M178.15,356.6l-16-1.63l3.79-12.41l15.97,1.66L178.15,356.6z M164.43,353.46l12.47,1.27l2.74-8.99
					l-12.45-1.3L164.43,353.46z"/>
			</g>
			<polygon class="st3" points="184.82,352.01 200.63,353.68 199.68,357.22 183.84,355.58 			"/>
			<polygon class="st3" points="186.14,347.09 201.95,348.76 201,352.3 185.16,350.66 			"/>
			<polygon class="st3" points="180.09,365.38 195.9,367.04 194.95,370.58 179.11,368.94 			"/>
			<polygon class="st3" points="181.41,360.45 197.22,362.12 196.27,365.66 180.43,364.02 			"/>
			<polygon class="st3" points="174.97,380.91 190.78,382.58 189.83,386.12 173.99,384.48 			"/>
			<polygon class="st3" points="176.29,375.99 192.1,377.66 191.15,381.2 175.31,379.56 			"/>
			<polygon class="st3" points="170.12,396.77 185.94,398.43 184.98,401.97 169.14,400.33 			"/>
			<polygon class="st3" points="171.44,391.84 187.25,393.51 186.3,397.05 170.46,395.41 			"/>
			<polygon class="st3" points="226.78,357.11 242.59,358.78 241.64,362.32 225.8,360.68 			"/>
			<polygon class="st3" points="228.1,352.19 243.91,353.85 242.96,357.39 227.12,355.75 			"/>
			<polygon class="st3" points="222.05,370.47 237.86,372.14 236.91,375.68 221.07,374.04 			"/>
			<polygon class="st3" points="223.37,365.55 239.18,367.22 238.23,370.76 222.39,369.12 			"/>
			<polygon class="st3" points="216.94,386.01 232.75,387.67 231.79,391.21 215.96,389.57 			"/>
			<polygon class="st3" points="218.25,381.08 234.06,382.75 233.11,386.29 217.27,384.65 			"/>
			<polygon class="st3" points="212.09,401.86 227.9,403.53 226.95,407.07 211.11,405.43 			"/>
			<polygon class="st3" points="213.41,396.94 229.22,398.61 228.26,402.15 212.42,400.5 			"/>
			<g>
				<path class="st3" d="M169.01,386.22l-16-1.63l3.8-12.41l15.96,1.66L169.01,386.22z M155.29,383.07l12.47,1.27l2.73-8.99
					l-12.44-1.3L155.29,383.07z"/>
			</g>
			<g>
				<path class="st3" d="M164.15,402.13l-16-1.63l3.8-12.41l15.96,1.66L164.15,402.13z M150.44,398.99l12.47,1.27l2.73-8.99
					l-12.44-1.3L150.44,398.99z"/>
			</g>
			<g>
				<path class="st3" d="M173.63,370.82l-16-1.63l3.8-12.41l15.96,1.66L173.63,370.82z M159.91,367.67l12.47,1.27l2.73-8.99
					l-12.44-1.3L159.91,367.67z"/>
			</g>
		</g>
		<g>
			<g>
				<path class="st3" d="M219.81,360.73l-16-1.63l3.8-12.41l15.96,1.66L219.81,360.73z M206.1,357.58l12.47,1.27l2.73-8.99
					l-12.44-1.3L206.1,357.58z"/>
			</g>
			<g>
				<path class="st3" d="M210.67,390.34l-16-1.63l3.8-12.41l15.96,1.66L210.67,390.34z M196.96,387.19l12.47,1.27l2.73-8.99
					l-12.44-1.3L196.96,387.19z"/>
			</g>
			<g>
				<path class="st3" d="M205.82,406.25l-16-1.63l3.8-12.41l15.96,1.66L205.82,406.25z M192.1,403.11l12.47,1.27l2.73-8.99
					l-12.44-1.3L192.1,403.11z"/>
			</g>
			<g>
				<path class="st3" d="M215.29,374.94l-16-1.63l3.8-12.41l15.96,1.66L215.29,374.94z M201.58,371.79l12.47,1.27l2.73-8.99
					l-12.44-1.3L201.58,371.79z"/>
			</g>
		</g>
		<g>
			<path class="st4" d="M197.68,403.69l-3.13-7.16c-0.19-0.44,0.01-0.95,0.45-1.15c0.44-0.19,0.95,0.01,1.14,0.45l2.26,5.18
				l10.26-7.41c0.39-0.28,0.93-0.19,1.21,0.2c0.28,0.39,0.19,0.93-0.2,1.21L197.68,403.69z"/>
		</g>
		<g>
			<path class="st4" d="M161.05,382.48l-3.13-7.16c-0.19-0.44,0.01-0.95,0.45-1.14c0.44-0.19,0.95,0.01,1.14,0.45l2.27,5.18
				l10.26-7.41c0.39-0.28,0.93-0.19,1.21,0.2c0.28,0.39,0.19,0.93-0.2,1.21L161.05,382.48z"/>
		</g>
		<g>
			<path class="st4" d="M206.52,372.44l-3.13-7.16c-0.19-0.44,0.01-0.95,0.45-1.14c0.44-0.19,0.95,0.01,1.15,0.45l2.26,5.18
				l10.26-7.41c0.39-0.28,0.93-0.19,1.21,0.2c0.28,0.39,0.19,0.93-0.2,1.21L206.52,372.44z"/>
		</g>
		<g>
			<path class="st4" d="M211.49,357.55l-3.13-7.16c-0.19-0.44,0.01-0.95,0.45-1.14c0.44-0.19,0.95,0.01,1.14,0.45l2.26,5.18
				l10.26-7.41c0.39-0.28,0.93-0.19,1.21,0.2c0.28,0.39,0.19,0.93-0.2,1.21L211.49,357.55z"/>
		</g>
	</g>
	<path class="st3" d="M243.25,73.82c0,0-12.57-2.95-11.25,17.76c1.33,20.71,4.67,44.01,4.67,44.01l48.74-27.65l-8.78-26.71
		l-32.07-9.53L243.25,73.82z"/>
	<g>
		<path class="st1" d="M249.08,415.87l52.6,30.4c0.78,0.45,1.74,0.45,2.52,0l166.86-96.57c1.68-0.97,1.68-3.4-0.01-4.37
			l-52.09-29.84c-0.78-0.44-1.73-0.44-2.51,0L249.09,411.5C247.4,412.46,247.4,414.89,249.08,415.87z"/>
		<path class="st5" d="M461.26,340.76v2.1l-47.17-27.03c-0.74-0.43-1.66-0.43-2.4,0l-156.3,89.66v-1.29h-5.14v5.66h0
			c0.01,0.8,0.41,1.61,1.2,2.07l50.36,29.1c0.75,0.43,1.67,0.43,2.42,0l159.73-92.45c0.77-0.44,1.16-1.21,1.19-1.98l0.01-5.84
			H461.26z"/>
		<path class="st3" d="M251.46,406.28l50.36,29.1c0.75,0.43,1.67,0.43,2.42,0l159.73-92.44c1.61-0.93,1.6-3.26-0.01-4.18
			l-49.86-28.57c-0.74-0.43-1.66-0.43-2.4,0l-160.22,91.91C249.85,403.02,249.84,405.34,251.46,406.28z"/>
		<g>
			<path class="st6" d="M443.59,351.56l-7.48,4.26c-0.2,0.11-0.52,0.11-0.72-0.01l-6.47-3.89c-0.2-0.12-0.2-0.31,0-0.42l7.48-4.26
				c0.2-0.11,0.52-0.11,0.72,0.01l6.47,3.89C443.78,351.26,443.79,351.45,443.59,351.56z"/>
			<path class="st6" d="M433.16,357.5l-9.77,5.56c-0.2,0.11-0.52,0.11-0.72-0.01l-6.47-3.89c-0.2-0.12-0.2-0.31,0-0.42l9.77-5.56
				c0.2-0.11,0.52-0.11,0.72,0.01l6.47,3.89C433.36,357.2,433.36,357.39,433.16,357.5z"/>
			<path class="st6" d="M396.05,325.41l6.15-3.5c0.2-0.11,0.52-0.11,0.72,0.01l3.17,1.91c0.2,0.12,0.2,0.31,0,0.42l-6.15,3.5
				c-0.2,0.11-0.52,0.11-0.72-0.01l-3.17-1.91C395.85,325.71,395.85,325.52,396.05,325.41z"/>
			<path class="st6" d="M456.09,344.45l-9.53,5.43c-0.2,0.11-0.52,0.11-0.72-0.01l-6.47-3.89c-0.2-0.12-0.2-0.31,0-0.42l9.53-5.43
				c0.2-0.11,0.52-0.11,0.72,0.01l6.47,3.89C456.29,344.15,456.29,344.33,456.09,344.45z"/>
			<path class="st6" d="M402.67,328.8c-0.2-0.12-0.2-0.31,0-0.42l5.33-3.04c0.2-0.11,0.52-0.11,0.72,0.01l5.33,3.2
				c0.2,0.12,0.2,0.31,0,0.42l-5.33,3.04c-0.2,0.11-0.52,0.11-0.72-0.01L402.67,328.8z"/>
			<path class="st6" d="M357.7,400.45l-7.48,4.26c-0.2,0.11-0.52,0.11-0.72-0.01l-6.47-3.89c-0.2-0.12-0.2-0.31,0-0.42l7.48-4.26
				c0.2-0.11,0.52-0.11,0.72,0.01l6.47,3.89C357.9,400.15,357.9,400.34,357.7,400.45z"/>
			<path class="st6" d="M377.48,378.2l-5.33,3.04c-0.2,0.11-0.52,0.11-0.72-0.01l-5.33-3.2c-0.2-0.12-0.2-0.31,0-0.42l5.33-3.04
				c0.2-0.11,0.52-0.11,0.72,0.01l5.33,3.2C377.68,377.9,377.68,378.09,377.48,378.2z"/>
			<path class="st6" d="M387.27,330.41l6.15-3.5c0.2-0.11,0.52-0.11,0.71,0.01l3.17,1.91c0.2,0.12,0.2,0.3,0,0.42l-6.15,3.5
				c-0.2,0.11-0.52,0.11-0.71-0.01l-3.17-1.91C387.07,330.71,387.07,330.52,387.27,330.41z"/>
			<path class="st6" d="M354.78,390.71l-5.33-3.2c-0.19-0.12-0.19-0.3,0-0.42l5.33-3.04c0.2-0.11,0.52-0.11,0.71,0.01l5.33,3.2
				c0.2,0.12,0.2,0.31,0,0.42l-5.33,3.04C355.3,390.83,354.97,390.82,354.78,390.71z"/>
			<path class="st6" d="M419.33,353.96c0.2,0.12,0.2,0.31,0,0.42l-5.33,3.04c-0.2,0.11-0.52,0.11-0.72-0.01l-5.33-3.2
				c-0.2-0.12-0.2-0.3,0-0.42l5.33-3.04c0.2-0.11,0.52-0.11,0.72,0.01L419.33,353.96z"/>
			<path class="st6" d="M391.17,334.93c0.2-0.11,0.52-0.11,0.72,0.01l5.33,3.2c0.2,0.12,0.2,0.31,0,0.42l-5.34,3.04
				c-0.2,0.11-0.52,0.11-0.71-0.01l-5.33-3.2c-0.2-0.12-0.2-0.3,0-0.42L391.17,334.93z"/>
			<path class="st6" d="M300.59,379.74l6.15-3.5c0.2-0.11,0.52-0.11,0.72,0.01l3.17,1.91c0.2,0.12,0.2,0.31,0,0.42l-6.15,3.5
				c-0.2,0.11-0.52,0.11-0.72-0.01l-3.17-1.91C300.39,380.04,300.39,379.85,300.59,379.74z"/>
			<path class="st6" d="M405.64,362.18c-0.2,0.11-0.52,0.11-0.72-0.01l-5.33-3.2c-0.2-0.12-0.2-0.31,0-0.42l5.33-3.04
				c0.2-0.11,0.52-0.11,0.72,0.01l5.33,3.2c0.2,0.12,0.2,0.31,0,0.42L405.64,362.18z"/>
			<path class="st6" d="M343.85,355.12l6.15-3.5c0.2-0.11,0.52-0.11,0.72,0.01l3.17,1.91c0.2,0.12,0.2,0.31,0,0.42l-6.15,3.5
				c-0.2,0.11-0.52,0.11-0.72-0.01l-3.17-1.91C343.66,355.42,343.66,355.23,343.85,355.12z"/>
			<path class="st6" d="M309.37,374.74l6.15-3.5c0.2-0.11,0.52-0.11,0.72,0.01l3.17,1.91c0.2,0.12,0.2,0.31,0,0.42l-6.15,3.5
				c-0.2,0.11-0.52,0.11-0.72-0.01l-3.17-1.91C309.17,375.05,309.17,374.86,309.37,374.74z"/>
			<path class="st6" d="M352.55,350.17l6.15-3.5c0.2-0.11,0.52-0.11,0.72,0.01l3.17,1.91c0.2,0.12,0.2,0.31,0,0.42l-6.15,3.5
				c-0.2,0.11-0.52,0.11-0.72-0.01l-3.17-1.91C352.35,350.47,352.35,350.28,352.55,350.17z"/>
			<path class="st6" d="M335.07,360.11l6.15-3.5c0.2-0.11,0.52-0.11,0.71,0.01l3.17,1.91c0.2,0.12,0.2,0.31,0,0.42l-6.15,3.5
				c-0.2,0.11-0.52,0.11-0.71-0.01l-3.18-1.91C334.88,360.41,334.88,360.23,335.07,360.11z"/>
			<path class="st6" d="M317.83,369.93l6.15-3.5c0.2-0.11,0.52-0.11,0.72,0.01l3.17,1.91c0.2,0.12,0.2,0.31,0,0.42l-6.15,3.5
				c-0.2,0.11-0.52,0.11-0.72-0.01l-3.17-1.91C317.63,370.23,317.63,370.04,317.83,369.93z"/>
			<path class="st6" d="M326.52,364.98l6.15-3.5c0.2-0.11,0.52-0.11,0.72,0.01l3.17,1.91c0.2,0.12,0.2,0.31,0,0.42l-6.15,3.5
				c-0.2,0.11-0.52,0.11-0.72-0.01l-3.17-1.91C326.33,365.28,326.33,365.09,326.52,364.98z"/>
			<path class="st6" d="M363.78,386c-0.2,0.11-0.52,0.11-0.72-0.01l-5.33-3.2c-0.19-0.12-0.19-0.3,0-0.42l5.33-3.04
				c0.2-0.11,0.52-0.11,0.71,0.01l5.33,3.2c0.2,0.12,0.2,0.31,0,0.42L363.78,386z"/>
			<path class="st6" d="M302.74,420.47c-0.2,0.11-0.52,0.11-0.72-0.01l-5.33-3.2c-0.2-0.12-0.19-0.3,0.01-0.42l5.33-3.03
				c0.2-0.11,0.52-0.11,0.72,0.01l5.33,3.2c0.2,0.12,0.2,0.31,0,0.42L302.74,420.47z"/>
			<path class="st6" d="M294.87,409.08l5.33,3.2c0.2,0.12,0.2,0.31,0,0.42l-5.33,3.03c-0.2,0.11-0.52,0.11-0.72-0.01l-5.33-3.2
				c-0.2-0.12-0.2-0.31,0-0.42l5.33-3.03C294.35,408.96,294.67,408.96,294.87,409.08z"/>
			<path class="st6" d="M266.86,398.94l5.47-3.11c0.2-0.11,0.52-0.11,0.72,0.01l3.17,1.91c0.2,0.12,0.2,0.31,0,0.42l-5.47,3.11
				c-0.2,0.11-0.52,0.11-0.72-0.01l-3.17-1.91C266.65,399.24,266.66,399.06,266.86,398.94z"/>
			<path class="st6" d="M317.71,423.21l-5.54,3.15c-0.2,0.11-0.52,0.11-0.72-0.01l-6.47-3.89c-0.2-0.12-0.2-0.31,0-0.42l5.54-3.15
				c0.19-0.11,0.52-0.1,0.71,0.01l6.47,3.89C317.91,422.91,317.91,423.1,317.71,423.21z"/>
			<path class="st6" d="M286.93,401.33c-0.19,0.11-0.52,0.11-0.71-0.01l-5.33-3.2c-0.2-0.12-0.2-0.31,0-0.42l5.34-3.04
				c0.19-0.11,0.52-0.1,0.71,0.01l5.33,3.2c0.2,0.12,0.2,0.31,0,0.42L286.93,401.33z"/>
			<path class="st6" d="M286.58,404.1l5.33,3.2c0.2,0.12,0.19,0.3-0.01,0.42l-5.33,3.03c-0.2,0.11-0.52,0.11-0.72-0.01l-5.33-3.2
				c-0.2-0.12-0.2-0.31,0-0.42l5.33-3.03C286.06,403.98,286.38,403.98,286.58,404.1z"/>
			<path class="st6" d="M309.18,427.9l-5.33,3.03c-0.2,0.11-0.51,0.11-0.71-0.01l-14.74-8.85c-0.2-0.12-0.2-0.3,0-0.42l5.33-3.03
				c0.2-0.11,0.52-0.11,0.71,0.01l14.74,8.85C309.38,427.6,309.38,427.78,309.18,427.9z"/>
			<path class="st6" d="M278.2,415.52c-0.2,0.11-0.52,0.11-0.72-0.01l-5.33-3.2c-0.2-0.12-0.2-0.31,0-0.42l5.33-3.03
				c0.2-0.11,0.52-0.1,0.71,0.01l5.33,3.2c0.2,0.12,0.2,0.3,0,0.41L278.2,415.52z"/>
			<path class="st6" d="M278.69,406.02c-0.2,0.11-0.52,0.11-0.72-0.01l-5.33-3.2c-0.2-0.12-0.2-0.31,0-0.42l5.33-3.03
				c0.2-0.11,0.52-0.11,0.72,0.01l5.33,3.2c0.2,0.12,0.2,0.31,0,0.42L278.69,406.02z"/>
			<path class="st6" d="M258.43,403.74l5.48-3.12c0.2-0.11,0.52-0.11,0.72,0.01l3.17,1.91c0.2,0.12,0.2,0.31,0,0.42l-5.48,3.12
				c-0.19,0.11-0.52,0.11-0.71-0.01l-3.17-1.91C258.23,404.04,258.24,403.85,258.43,403.74z"/>
			<path class="st6" d="M270.32,410.79c-0.2,0.11-0.52,0.11-0.72-0.01l-5.33-3.2c-0.2-0.12-0.2-0.31,0-0.42l5.33-3.03
				c0.2-0.11,0.52-0.11,0.71,0.01l5.33,3.2c0.2,0.12,0.2,0.3,0,0.42L270.32,410.79z"/>
			<path class="st6" d="M294.82,399.41l5.33,3.2c0.2,0.12,0.19,0.3,0,0.41l-5.34,3.04c-0.19,0.11-0.51,0.11-0.71-0.01l-5.33-3.2
				c-0.2-0.12-0.2-0.31,0-0.42l5.34-3.04C294.3,399.29,294.62,399.29,294.82,399.41z"/>
			<path class="st6" d="M291.82,417.47l-5.33,3.03c-0.2,0.11-0.52,0.11-0.72-0.01l-5.33-3.2c-0.2-0.12-0.2-0.31,0-0.42l5.33-3.03
				c0.2-0.11,0.52-0.1,0.71,0.01l5.33,3.2C292.01,417.17,292.02,417.35,291.82,417.47z"/>
			<path class="st6" d="M334.37,413.73l-13.96,7.95c-0.19,0.11-0.52,0.11-0.71-0.01l-6.47-3.89c-0.2-0.12-0.2-0.31,0-0.42
				l13.96-7.95c0.2-0.11,0.52-0.11,0.72,0.01l6.47,3.89C334.57,413.43,334.57,413.62,334.37,413.73z"/>
			<path class="st6" d="M294.79,389.79c0.19-0.11,0.52-0.1,0.71,0.01l5.33,3.2c0.2,0.12,0.2,0.31,0,0.42l-5.34,3.04
				c-0.19,0.11-0.52,0.11-0.71-0.01l-5.33-3.2c-0.2-0.12-0.2-0.31,0-0.42L294.79,389.79z"/>
			<path class="st6" d="M283.65,389.38l5.7-3.25c0.19-0.11,0.52-0.1,0.71,0.01l3.17,1.91c0.2,0.12,0.2,0.31,0,0.42l-5.7,3.25
				c-0.19,0.11-0.52,0.1-0.71-0.01l-3.17-1.91C283.46,389.68,283.46,389.49,283.65,389.38z"/>
			<path class="st6" d="M275.1,394.25l5.7-3.24c0.19-0.11,0.52-0.11,0.71,0.01l3.17,1.91c0.2,0.12,0.2,0.31,0,0.42l-5.7,3.24
				c-0.2,0.11-0.52,0.11-0.72-0.01l-3.17-1.91C274.9,394.55,274.9,394.36,275.1,394.25z"/>
			<path class="st6" d="M316.32,412.74l-5.34,3.04c-0.19,0.11-0.52,0.11-0.71-0.01l-5.33-3.2c-0.2-0.12-0.19-0.3,0-0.41l5.34-3.04
				c0.19-0.11,0.51-0.11,0.71,0.01l5.33,3.2C316.51,412.44,316.51,412.63,316.32,412.74z"/>
			<path class="st6" d="M302.67,401.18l-5.33-3.2c-0.2-0.12-0.2-0.31,0-0.42l5.34-3.04c0.19-0.11,0.52-0.11,0.71,0.01l5.33,3.2
				c0.2,0.12,0.19,0.3,0,0.42l-5.34,3.04C303.19,401.3,302.87,401.29,302.67,401.18z"/>
			<path class="st6" d="M303.11,404.39l5.33,3.2c0.2,0.12,0.2,0.31,0,0.42l-5.34,3.04c-0.19,0.11-0.52,0.11-0.71-0.01l-5.33-3.2
				c-0.2-0.12-0.2-0.31,0-0.42l5.34-3.04C302.59,404.27,302.91,404.27,303.11,404.39z"/>
			<path class="st6" d="M310.96,406.15l-5.33-3.2c-0.2-0.12-0.2-0.31,0-0.42l5.34-3.04c0.19-0.11,0.52-0.1,0.71,0.01l5.33,3.2
				c0.2,0.12,0.2,0.31,0,0.42l-5.34,3.04C311.48,406.28,311.15,406.27,310.96,406.15z"/>
			<path class="st6" d="M324.89,407.86l-5.34,3.04c-0.19,0.11-0.52,0.11-0.71-0.01l-5.33-3.2c-0.2-0.12-0.19-0.3,0-0.41l5.34-3.04
				c0.19-0.11,0.51-0.11,0.71,0.01l5.33,3.2C325.08,407.56,325.08,407.75,324.89,407.86z"/>
			<path class="st6" d="M446.7,338.81l-15.86,9.03c-0.2,0.11-0.52,0.11-0.72-0.01l-5.33-3.2c-0.2-0.12-0.2-0.31,0-0.42l15.86-9.03
				c0.2-0.11,0.52-0.11,0.72,0.01l5.33,3.2C446.9,338.51,446.9,338.7,446.7,338.81z"/>
			<path class="st6" d="M427.81,349.56l-5.33,3.03c-0.2,0.11-0.52,0.11-0.72-0.01l-5.33-3.2c-0.2-0.12-0.2-0.31,0-0.42l5.33-3.04
				c0.2-0.11,0.52-0.11,0.72,0.01l5.33,3.2C428,349.26,428,349.45,427.81,349.56z"/>
			<path class="st6" d="M414.94,330.79l9.45-5.38c0.2-0.11,0.52-0.11,0.71,0.01l5.33,3.2c0.2,0.12,0.19,0.3,0,0.42l-9.45,5.38
				c-0.2,0.11-0.52,0.11-0.71-0.01l-5.33-3.2C414.74,331.09,414.75,330.9,414.94,330.79z"/>
			<path class="st6" d="M356.99,380.46l-5.33,3.04c-0.2,0.11-0.52,0.11-0.72-0.01l-5.33-3.2c-0.2-0.12-0.2-0.31,0-0.42l5.33-3.04
				c0.2-0.11,0.52-0.11,0.72,0.01l5.33,3.2C357.19,380.16,357.19,380.35,356.99,380.46z"/>
			<path class="st6" d="M407.13,351.92l-5.33,3.04c-0.2,0.11-0.52,0.11-0.72-0.01l-5.33-3.2c-0.2-0.12-0.2-0.31,0-0.42l5.33-3.04
				c0.2-0.11,0.52-0.11,0.72,0.01l5.33,3.2C407.33,351.62,407.33,351.81,407.13,351.92z"/>
			<path class="st6" d="M406.58,335.55l5.33-3.04c0.2-0.11,0.52-0.11,0.71,0.01l5.33,3.2c0.2,0.12,0.19,0.3,0,0.42l-5.33,3.04
				c-0.2,0.11-0.52,0.11-0.71-0.01l-5.33-3.2C406.38,335.85,406.39,335.66,406.58,335.55z"/>
			<path class="st6" d="M335.7,366.51l5.33-3.04c0.2-0.11,0.52-0.11,0.72,0.01l5.33,3.2c0.2,0.12,0.2,0.31,0,0.42l-5.33,3.04
				c-0.2,0.11-0.52,0.11-0.72-0.01l-5.33-3.2C335.5,366.81,335.5,366.62,335.7,366.51z"/>
			<path class="st6" d="M327.22,371.33l5.33-3.04c0.2-0.11,0.52-0.11,0.72,0.01l5.33,3.2c0.2,0.12,0.2,0.3,0,0.42l-5.33,3.04
				c-0.2,0.11-0.52,0.11-0.72-0.01l-5.33-3.2C327.03,371.63,327.03,371.44,327.22,371.33z"/>
			<path class="st6" d="M318.82,376.12l5.34-3.04c0.2-0.11,0.52-0.11,0.71,0.01l5.33,3.2c0.2,0.12,0.2,0.31,0,0.42l-5.34,3.04
				c-0.2,0.11-0.52,0.11-0.72-0.01l-5.33-3.2C318.62,376.42,318.62,376.23,318.82,376.12z"/>
			<path class="st6" d="M382.88,339.65c0.2-0.11,0.52-0.11,0.72,0.01l5.33,3.2c0.2,0.12,0.2,0.31,0,0.42l-5.33,3.04
				c-0.2,0.11-0.52,0.11-0.72-0.01l-5.33-3.2c-0.2-0.12-0.2-0.31,0-0.42L382.88,339.65z"/>
			<path class="st6" d="M310.58,380.81l5.33-3.04c0.2-0.11,0.52-0.11,0.72,0.01l5.33,3.2c0.2,0.12,0.2,0.31,0,0.42l-5.33,3.04
				c-0.2,0.11-0.52,0.11-0.72-0.01l-5.33-3.2C310.38,381.11,310.38,380.92,310.58,380.81z"/>
			<path class="st6" d="M352.35,357.03l5.33-3.04c0.2-0.11,0.52-0.11,0.72,0.01l5.33,3.2c0.2,0.12,0.2,0.31,0,0.42l-5.33,3.04
				c-0.2,0.11-0.52,0.11-0.72-0.01l-5.33-3.2C352.15,357.33,352.15,357.14,352.35,357.03z"/>
			<path class="st6" d="M344.06,361.75l5.34-3.04c0.2-0.11,0.52-0.11,0.72,0.01l5.33,3.2c0.2,0.12,0.2,0.31,0,0.42l-5.34,3.04
				c-0.2,0.11-0.52,0.1-0.71-0.01l-5.33-3.2C343.87,362.05,343.86,361.86,344.06,361.75z"/>
			<path class="st6" d="M352.46,392.44l-5.33,3.04c-0.2,0.11-0.52,0.11-0.72-0.01l-5.33-3.2c-0.19-0.12-0.19-0.3,0-0.42l5.33-3.04
				c0.2-0.11,0.52-0.11,0.71,0.01l5.33,3.2C352.66,392.14,352.66,392.33,352.46,392.44z"/>
			<path class="st6" d="M370.2,393.33l-9.53,5.43c-0.2,0.11-0.52,0.11-0.72-0.01l-6.47-3.89c-0.2-0.12-0.2-0.31,0-0.42l9.53-5.43
				c0.2-0.11,0.52-0.11,0.72,0.01l6.47,3.89C370.4,393.03,370.4,393.22,370.2,393.33z"/>
			<path class="st6" d="M420.7,364.59l-47.59,27.09c-0.2,0.11-0.52,0.11-0.72-0.01l-6.47-3.89c-0.2-0.12-0.2-0.31,0-0.42
				l47.59-27.09c0.2-0.11,0.52-0.11,0.72,0.01l6.47,3.89C420.9,364.29,420.9,364.48,420.7,364.59z"/>
			<path class="st6" d="M416.37,320.59c0.2-0.11,0.52-0.11,0.72,0.01l5.33,3.2c0.2,0.12,0.2,0.31,0,0.42l-5.33,3.04
				c-0.2,0.11-0.52,0.11-0.72-0.01l-5.33-3.2c-0.2-0.12-0.2-0.31,0-0.42L416.37,320.59z"/>
			<path class="st6" d="M404.74,320.46l6.15-3.5c0.2-0.11,0.52-0.11,0.72,0.01l3.17,1.91c0.2,0.12,0.2,0.31,0,0.42l-6.15,3.5
				c-0.2,0.11-0.52,0.11-0.72-0.01l-3.17-1.91C404.54,320.76,404.55,320.57,404.74,320.46z"/>
			<path class="st6" d="M291.9,384.69l6.15-3.5c0.2-0.11,0.52-0.11,0.72,0.01l3.17,1.91c0.2,0.12,0.2,0.31,0,0.42l-6.15,3.5
				c-0.2,0.11-0.52,0.11-0.72-0.01l-3.17-1.91C291.7,384.99,291.7,384.8,291.9,384.69z"/>
			<path class="st6" d="M347.27,406.38l-9.77,5.56c-0.2,0.11-0.52,0.11-0.72-0.01l-6.47-3.89c-0.2-0.12-0.2-0.31,0-0.42l9.77-5.56
				c0.2-0.11,0.52-0.11,0.72,0.01l6.47,3.89C347.47,406.08,347.47,406.27,347.27,406.38z"/>
			<path class="st6" d="M370.02,340.22l6.15-3.5c0.2-0.11,0.52-0.11,0.72,0.01l3.17,1.91c0.2,0.12,0.2,0.31,0,0.42l-6.15,3.5
				c-0.2,0.11-0.52,0.11-0.72-0.01l-3.17-1.91C369.82,340.52,369.82,340.34,370.02,340.22z"/>
			<path class="st6" d="M374.52,344.41c0.2-0.11,0.52-0.11,0.72,0.01l5.33,3.2c0.2,0.12,0.2,0.31,0,0.42l-5.33,3.04
				c-0.2,0.11-0.52,0.11-0.72-0.01l-5.33-3.2c-0.2-0.12-0.2-0.31,0-0.42L374.52,344.41z"/>
			<path class="st6" d="M361.33,345.17l6.15-3.5c0.2-0.11,0.52-0.11,0.72,0.01l3.17,1.91c0.2,0.12,0.2,0.31,0,0.42l-6.15,3.5
				c-0.2,0.11-0.52,0.11-0.71-0.01l-3.17-1.91C361.13,345.47,361.13,345.28,361.33,345.17z"/>
			<path class="st6" d="M399.53,330.17c0.2-0.11,0.52-0.1,0.71,0.01l5.33,3.2c0.2,0.12,0.2,0.3,0,0.42l-5.34,3.04
				c-0.2,0.11-0.52,0.1-0.71-0.01l-5.33-3.2c-0.2-0.12-0.2-0.3,0-0.42L399.53,330.17z"/>
			<path class="st6" d="M366.05,349.23c0.2-0.11,0.52-0.11,0.72,0.01l5.33,3.2c0.2,0.12,0.2,0.31,0,0.42l-5.33,3.04
				c-0.2,0.11-0.52,0.11-0.72-0.01l-5.33-3.2c-0.2-0.12-0.2-0.31,0-0.42L366.05,349.23z"/>
			<path class="st6" d="M378.57,335.35l6.15-3.5c0.2-0.11,0.52-0.11,0.72,0.01l3.17,1.91c0.2,0.12,0.2,0.31,0,0.42l-6.15,3.5
				c-0.2,0.11-0.52,0.11-0.72-0.01l-3.17-1.91C378.38,335.65,378.37,335.47,378.57,335.35z"/>
			<path class="st6" d="M343.99,397.27l-15.93,9.07c-0.2,0.11-0.52,0.11-0.72-0.01l-5.33-3.2c-0.19-0.12-0.19-0.3,0-0.42l15.93-9.07
				c0.2-0.11,0.52-0.11,0.71,0.01l5.33,3.2C344.19,396.97,344.19,397.15,343.99,397.27z"/>
			<path class="st6" d="M392.83,350.44l-5.33,3.04c-0.2,0.11-0.52,0.11-0.71-0.01l-5.33-3.2c-0.2-0.12-0.19-0.3,0-0.42l5.33-3.04
				c0.2-0.11,0.52-0.11,0.71,0.01l5.33,3.2C393.03,350.15,393.03,350.33,392.83,350.44z"/>
			<path class="st6" d="M389.74,345.55c-0.2-0.12-0.19-0.3,0-0.42l5.33-3.04c0.2-0.11,0.52-0.11,0.71,0.01l5.33,3.2
				c0.2,0.12,0.19,0.31,0,0.42l-5.33,3.04c-0.2,0.11-0.52,0.11-0.71-0.01L389.74,345.55z"/>
			<path class="st6" d="M322.77,383.26l5.33-3.04c0.2-0.11,0.52-0.11,0.71,0.01l5.33,3.2c0.2,0.12,0.19,0.3,0,0.42l-5.33,3.04
				c-0.2,0.11-0.52,0.11-0.71-0.01l-5.33-3.2C322.57,383.56,322.57,383.37,322.77,383.26z"/>
			<path class="st6" d="M385.84,373.44l-5.33,3.04c-0.2,0.11-0.52,0.11-0.72-0.01l-5.33-3.2c-0.2-0.12-0.2-0.31,0-0.42l5.33-3.04
				c0.2-0.11,0.52-0.11,0.72,0.01l5.33,3.2C386.04,373.14,386.04,373.33,385.84,373.44z"/>
			<path class="st6" d="M348.63,385.22l-5.33,3.04c-0.2,0.11-0.52,0.11-0.72-0.01l-5.33-3.2c-0.2-0.12-0.2-0.31,0-0.42l5.33-3.04
				c0.2-0.11,0.52-0.11,0.72,0.01l5.33,3.2C348.82,384.92,348.82,385.1,348.63,385.22z"/>
			<path class="st6" d="M340.15,390.04l-5.33,3.04c-0.2,0.11-0.52,0.11-0.72-0.01l-5.33-3.2c-0.2-0.12-0.2-0.31,0-0.42l5.33-3.04
				c0.2-0.11,0.52-0.11,0.72,0.01l5.33,3.2C340.35,389.74,340.35,389.93,340.15,390.04z"/>
			<path class="st6" d="M314.4,388.02l5.33-3.04c0.2-0.11,0.52-0.11,0.71,0.01l5.33,3.2c0.2,0.12,0.19,0.3,0,0.42l-5.33,3.04
				c-0.2,0.11-0.52,0.11-0.71-0.01l-5.33-3.2C314.2,388.32,314.21,388.13,314.4,388.02z"/>
			<path class="st6" d="M398.11,340.38l5.33-3.04c0.2-0.11,0.52-0.11,0.71,0.01l5.33,3.2c0.2,0.12,0.19,0.3,0,0.42l-5.33,3.04
				c-0.2,0.11-0.52,0.11-0.71-0.01l-5.33-3.2C397.91,340.67,397.91,340.49,398.11,340.38z"/>
			<path class="st6" d="M415.49,347.16l-5.34,3.04c-0.2,0.11-0.52,0.1-0.71-0.01l-5.33-3.2c-0.2-0.12-0.2-0.3,0-0.42l5.34-3.04
				c0.2-0.11,0.52-0.11,0.72,0.01l5.33,3.2C415.69,346.86,415.69,347.05,415.49,347.16z"/>
			<path class="st6" d="M402.68,363.86l-5.33,3.04c-0.2,0.11-0.52,0.11-0.72-0.01l-5.33-3.2c-0.2-0.12-0.2-0.31,0-0.42l5.33-3.04
				c0.2-0.11,0.52-0.11,0.71,0.01l5.33,3.2C402.88,363.56,402.88,363.75,402.68,363.86z"/>
			<path class="st6" d="M438.7,333.95l-11.7,6.66c-0.2,0.11-0.52,0.11-0.72-0.01l-5.33-3.2c-0.2-0.12-0.2-0.3,0-0.42l11.7-6.66
				c0.2-0.11,0.52-0.11,0.72,0.01l5.33,3.2C438.89,333.65,438.89,333.84,438.7,333.95z"/>
			<path class="st6" d="M394.32,368.62l-5.33,3.04c-0.2,0.11-0.52,0.11-0.72-0.01l-5.33-3.2c-0.2-0.12-0.2-0.31,0-0.42l5.33-3.04
				c0.2-0.11,0.52-0.11,0.72,0.01l5.33,3.2C394.52,368.32,394.52,368.51,394.32,368.62z"/>
			<path class="st6" d="M423.97,342.33l-5.33,3.04c-0.2,0.11-0.52,0.11-0.72-0.01l-5.33-3.2c-0.2-0.12-0.2-0.3,0-0.42l5.33-3.03
				c0.2-0.11,0.52-0.11,0.72,0.01l5.33,3.2C424.17,342.03,424.17,342.22,423.97,342.33z"/>
			<path class="st6" d="M342.61,379.03l-5.33,3.04c-0.2,0.11-0.52,0.11-0.71-0.01l-5.33-3.2c-0.2-0.12-0.19-0.3,0-0.42l5.33-3.04
				c0.2-0.11,0.52-0.11,0.71,0.01l5.33,3.2C342.81,378.73,342.81,378.92,342.61,379.03z"/>
			<path class="st6" d="M390.48,361.39l-5.33,3.04c-0.2,0.11-0.52,0.11-0.72-0.01l-5.33-3.2c-0.2-0.12-0.2-0.31,0-0.42l5.33-3.03
				c0.2-0.11,0.52-0.11,0.72,0.01l5.33,3.2C390.68,361.09,390.68,361.28,390.48,361.39z"/>
			<path class="st6" d="M373.65,370.98l-5.33,3.04c-0.2,0.11-0.52,0.11-0.72-0.01l-5.33-3.2c-0.2-0.12-0.2-0.31,0-0.42l5.33-3.04
				c0.2-0.11,0.52-0.11,0.72,0.01l5.33,3.2C373.84,370.68,373.84,370.86,373.65,370.98z"/>
			<path class="st6" d="M382.01,366.22l-5.33,3.04c-0.2,0.11-0.52,0.11-0.72-0.01l-5.33-3.2c-0.2-0.12-0.2-0.31,0-0.42l5.33-3.04
				c0.2-0.11,0.52-0.11,0.72,0.01l5.33,3.2C382.2,365.92,382.2,366.11,382.01,366.22z"/>
			<path class="st6" d="M365.28,375.74l-5.33,3.03c-0.2,0.11-0.52,0.11-0.72-0.01l-5.33-3.2c-0.2-0.12-0.2-0.3,0-0.42l5.33-3.04
				c0.2-0.11,0.52-0.11,0.72,0.01l5.33,3.2C365.47,375.44,365.47,375.63,365.28,375.74z"/>
			<path class="st6" d="M320.13,401.44c-0.2,0.11-0.52,0.11-0.72-0.01l-5.33-3.2c-0.2-0.12-0.2-0.31,0-0.42l11.66-6.64
				c0.2-0.11,0.52-0.11,0.72,0.01l5.33,3.2c0.2,0.12,0.2,0.31,0,0.42L320.13,401.44z"/>
			<path class="st6" d="M312.14,396.37c-0.2,0.11-0.51,0.11-0.71-0.01l-5.33-3.2c-0.2-0.12-0.2-0.3,0-0.41l5.34-3.04
				c0.2-0.11,0.52-0.11,0.71,0.01l5.33,3.2c0.2,0.12,0.19,0.3,0,0.42L312.14,396.37z"/>
			<path class="st6" d="M364.62,359.44l5.33-3.04c0.2-0.11,0.52-0.11,0.71,0.01l5.33,3.2c0.2,0.12,0.19,0.3,0,0.42l-5.33,3.04
				c-0.2,0.11-0.52,0.11-0.71-0.01l-5.33-3.2C364.42,359.73,364.42,359.55,364.62,359.44z"/>
			<path class="st6" d="M356.26,364.2l5.33-3.04c0.2-0.11,0.52-0.11,0.71,0.01l5.33,3.2c0.2,0.12,0.19,0.3,0,0.42l-5.33,3.04
				c-0.2,0.11-0.52,0.11-0.71-0.01l-5.33-3.2C356.06,364.49,356.06,364.31,356.26,364.2z"/>
			<path class="st6" d="M398.84,356.63l-5.33,3.04c-0.2,0.11-0.52,0.11-0.72-0.01l-5.33-3.2c-0.2-0.12-0.2-0.31,0-0.42l5.33-3.04
				c0.2-0.11,0.52-0.11,0.72,0.01l5.33,3.2C399.04,356.33,399.04,356.52,398.84,356.63z"/>
			<path class="st6" d="M373.1,354.61l5.33-3.04c0.2-0.11,0.52-0.11,0.71,0.01l5.33,3.2c0.2,0.12,0.19,0.3,0,0.42l-5.33,3.03
				c-0.2,0.11-0.52,0.11-0.71-0.01l-5.33-3.2C372.9,354.91,372.9,354.72,373.1,354.61z"/>
			<path class="st6" d="M347.89,368.96l5.33-3.04c0.2-0.11,0.52-0.11,0.71,0.01l5.33,3.2c0.2,0.12,0.19,0.3,0,0.42l-5.33,3.04
				c-0.2,0.11-0.52,0.11-0.71-0.01l-5.33-3.2C347.69,369.26,347.69,369.07,347.89,368.96z"/>
			<path class="st6" d="M297.8,388.08l10.07-5.73c0.2-0.11,0.52-0.1,0.71,0.01l5.33,3.2c0.2,0.12,0.2,0.3,0,0.42l-10.07,5.73
				c-0.2,0.11-0.52,0.11-0.72-0.01l-5.33-3.2C297.61,388.38,297.61,388.19,297.8,388.08z"/>
			<path class="st6" d="M350.97,374.27l-5.33,3.04c-0.2,0.11-0.52,0.11-0.71-0.01l-5.33-3.2c-0.2-0.12-0.19-0.3,0-0.42l5.33-3.04
				c0.2-0.11,0.52-0.11,0.71,0.01l5.33,3.2C351.18,373.97,351.17,374.16,350.97,374.27z"/>
		</g>
		<path class="st1" d="M334.55,381.79l14.84,8.62c0.3,0.17,0.68,0.17,0.98,0l78.91-45.75c0.65-0.38,0.65-1.32,0-1.69l-14.64-8.4
			c-0.3-0.17-0.67-0.17-0.97,0l-79.11,45.53C333.9,380.47,333.9,381.41,334.55,381.79z"/>
	</g>
	<path class="st1" d="M207.54,348.85l6.49-0.63c2.37-0.23,4.4,1.61,4.4,3.98l0.1,45.24l-4.51,8.17l-6.23-8.38L207.54,348.85z"/>
	<g>
		<g>
			<path class="st1" d="M330.74,326.07v-4.98h-5.99c-19.22-9.2-60.96-29.25-67.82-33.16c-8.96-5.11-8.4-15.55-8.4-15.55l3.29-91.23
				l-39.2,9.53c0,0-21.4,73.05-26.5,94.95c-5.11,21.9,9.23,34.07,9.23,34.07L250.12,371c1.01,1.06,2.6,1.29,3.87,0.57l75.18-42.84
				C330.87,327.81,330.74,326.07,330.74,326.07z"/>
			<path class="st7" d="M331.82,321.73v-4.98h-5.99c-19.22-9.2-60.96-29.25-67.82-33.16c-8.96-5.11-8.4-15.55-8.4-15.55l3.29-91.23
				l-39.2,9.53c0,0-21.4,73.05-26.5,94.95c-5.11,21.9,9.23,34.07,9.23,34.07l54.76,51.29c1.01,1.06,2.6,1.29,3.87,0.57l75.18-42.84
				C331.95,323.46,331.82,321.73,331.82,321.73z"/>
			<path class="st8" d="M251.19,361.73c0,0-43.92-44.32-51.12-51.72c-7.19-7.4-10.38-17.4-7.08-29.86
				c5.76-21.74,27.57-95.75,27.57-95.75l32.34-12.5l-3.29,91.23c0,0-0.57,10.44,8.4,15.55c7.42,4.23,55.62,27.33,72.04,35.18
				c2.31,1.1,2.42,4.34,0.19,5.61l-75.18,42.84C253.8,363.02,252.2,362.78,251.19,361.73z"/>
			<path class="st1" d="M193.47,361.22l198.33-114c4.44-2.57,4.44-8.97,0-11.54l-4.52-2.56c-2.06-1.19-4.61-1.19-6.67,0l-198.33,114
				c-4.44,2.57-4.44,8.97,0,11.54l4.52,2.56C188.86,362.42,191.41,362.42,193.47,361.22z"/>
		</g>
		<g>
			<path class="st9" d="M378.35,31.15l2.88-1.34l-3.99-3.05l0,0.01c-0.89-0.82-2.25-1.08-3.43-0.4L160.68,148.91
				c-0.97,0.56-1.53,1.62-1.45,2.73l12.18,166.31c0.06,0.88,0.51,1.59,1.12,2.07l4.04,3.11l3.03-2.59l-2.4-1.11l212.34-122.27
				c0.97-0.56,1.54-1.63,1.45-2.75L378.35,31.15z"/>
			<path class="st10" d="M164.88,152.14L378.01,29.6c1.85-1.07,4.18,0.17,4.35,2.3l12.84,165.74c0.09,1.12-0.48,2.19-1.45,2.75
				l-213.79,123.1c-1.86,1.07-4.2-0.17-4.35-2.31l-12.18-166.31C163.35,153.75,163.91,152.69,164.88,152.14z"/>
			<polygon class="st11" points="169.69,156.83 375.24,38.55 387.08,196.23 180.97,315.52 			"/>
			<polygon class="st2" points="176.71,161.09 251.21,118.22 259.72,218.69 185.02,261.92 			"/>
			<polygon class="st8" points="264.21,187.2 371.77,124.94 374.02,149.11 266.25,211.73 			"/>
			<polygon class="st8" points="259.72,153.36 368.9,90.19 371.14,114.35 261.76,177.89 			"/>
			<polygon class="st2" points="186.1,268.22 226.89,244.75 229.24,276.04 188.34,299.71 			"/>
			<polygon class="st12" points="240.3,242.75 374.88,164.73 377.12,188.9 242.34,267.28 			"/>
			<polygon class="st8" points="255.49,116.92 365.89,52.83 368.13,77 257.54,141.45 			"/>
		</g>
	</g>
	<path class="st1" d="M353.2,155.77c-2.03-31.31-5.15-65.09-7.25-86c-0.83-8.26-3.9-16.14-8.33-22.59L252.3,96.24
		c5.29,8.4,8.28,16.77,8.28,16.77s6.52,69.07,6.52,91.76c0,12.59,8.21,34.86,17.53,58.46l101.16-58.25
		C374.68,186.61,354.69,178.66,353.2,155.77z"/>
	<g>
		<g>
			<path class="st2" d="M411.43,293.33c0,0-3.2-47.95-3.77-67.55c-1.16-40.3-37.84-43.63-39.86-74.95
				c-2.03-31.31-5.15-65.09-7.25-86c-2.46-24.61-24.79-45.92-43.82-35.84c-11.8,6.25-69.1,39.7-79.79,45.95
				c2.95-1.38,7.26-1.85,13.44,0.51c15.22,5.8,24.79,32.62,24.79,32.62s6.52,69.07,6.52,91.76c0,29.14,40.15,38.56,40.15,66.83
				c0,17,3.77,43.2,3.77,72.63c0,50.6,31.03,43.76,31.03,43.76l85.23-49.42C441.87,333.63,414.48,337.11,411.43,293.33z"/>
		</g>
		<g>
			<path class="st12" d="M324.75,165.25l34.83-20.02c-0.14-2.03-0.28-4.06-0.43-6.09l-34.72,19.96
				C324.56,161.24,324.66,163.3,324.75,165.25z"/>
			<path class="st3" d="M323.55,145.24l34.56-19.87c-0.16-2.04-0.32-4.06-0.48-6.06l-34.51,19.84
				C323.27,141.2,323.41,143.23,323.55,145.24z"/>
			<path class="st3" d="M322.83,135.31l34.48-19.83c-0.17-2.04-0.34-4.06-0.51-6.04l-34.45,19.8
				C322.52,131.26,322.68,133.28,322.83,135.31z"/>
			<path class="st12" d="M335.32,200.56l36.76-21.14c-1.18-1.4-2.33-2.85-3.41-4.37l-36.82,21.17
				C332.93,197.71,334.09,199.15,335.32,200.56z"/>
			<path class="st3" d="M325.07,175.41l35.33-20.31c-0.18-1.22-0.33-2.47-0.41-3.76c-0.05-0.75-0.1-1.5-0.15-2.25l-34.92,20.08
				C325,171.47,325.05,173.57,325.07,175.41z"/>
			<path class="st3" d="M326.26,185.08l36.48-20.98c-0.65-1.71-1.2-3.51-1.64-5.39l-35.91,20.64
				C325.36,181.36,325.73,183.25,326.26,185.08z"/>
			<path class="st3" d="M320.41,105.66l34.31-19.72c-0.19-2.1-0.38-4.11-0.56-6.01l-34.27,19.7
				C320.05,101.51,320.23,103.53,320.41,105.66z"/>
			<path class="st12" d="M318.56,85.01c0,0,0.03,0.34,0.09,0.96l34.18-19.65c-0.02-0.24-0.05-0.48-0.07-0.71
				c-0.17-1.71-0.47-3.41-0.87-5.08L316.81,80.7C317.95,83.32,318.56,85.01,318.56,85.01z"/>
			<path class="st12" d="M337.23,37.91l-35.02,20.13c1.33,1.28,2.6,2.68,3.79,4.16l35.7-20.53C340.3,40.25,338.8,38.99,337.23,37.91
				z"/>
			<path class="st12" d="M322.06,125.41l34.42-19.79c-0.18-2.05-0.35-4.06-0.53-6.03l-34.39,19.77
				C321.73,121.34,321.9,123.36,322.06,125.41z"/>
			<path class="st3" d="M341.73,207.23l36.59-21.04c-1.3-1.33-2.6-2.69-3.88-4.1l-36.71,21.11
				C339.02,204.56,340.36,205.9,341.73,207.23z"/>
			<path class="st3" d="M319.55,95.81l34.25-19.69c-0.21-2.18-0.41-4.19-0.58-6L319,89.79C319.15,91.44,319.34,93.47,319.55,95.81z"
				/>
			<path class="st12" d="M360.41,227.53l35.04-20.14c-0.82-1.67-1.73-3.26-2.72-4.77l-35.51,20.42
				C358.38,224.49,359.45,225.98,360.41,227.53z"/>
			<path class="st3" d="M369.44,325.82l35.66-20.5c-0.36-1.87-0.67-3.8-0.92-5.81l-35.11,20.19
				C369.13,321.85,369.26,323.88,369.44,325.82z"/>
			<path class="st12" d="M368.84,305.46l34.25-19.69c-0.12-1.81-0.25-3.87-0.39-6.11l-34.08,19.6
				C368.71,301.31,368.78,303.37,368.84,305.46z"/>
			<path class="st3" d="M348.48,213.69l36.29-20.87c-1.29-1.36-2.61-2.71-3.94-4.07l-36.49,20.98
				C345.73,211.06,347.12,212.37,348.48,213.69z"/>
			<path class="st3" d="M378.35,351.74l37.77-21.72c-1.19-1.37-2.31-2.84-3.34-4.42l-37.54,21.58
				C376.21,348.92,377.26,350.42,378.35,351.74z"/>
			<path class="st12" d="M373.71,344.05L411,322.62c-0.85-1.57-1.63-3.24-2.34-4.99l-36.84,21.18
				C372.38,340.72,373.02,342.47,373.71,344.05z"/>
			<path class="st3" d="M385.18,357.45l37.35-21.66c-0.73-0.51-1.46-1.06-2.19-1.66c-0.6-0.49-1.18-1-1.74-1.53l-37.77,21.72
				C382.25,355.62,383.72,356.65,385.18,357.45z"/>
			<path class="st3" d="M367.85,285.34l34-19.55c-0.12-2.01-0.24-4.06-0.36-6.13l-34.07,19.59
				C367.57,281.25,367.71,283.28,367.85,285.34z"/>
			<path class="st3" d="M364.12,235.74l34.42-19.79c-0.46-1.9-1.02-3.68-1.68-5.37l-34.77,19.99
				C362.92,232.23,363.61,233.95,364.12,235.74z"/>
			<path class="st3" d="M347.17,48.88c-0.95-1.6-1.99-3.13-3.12-4.54L308.11,65c1.08,1.52,2.08,3.07,3.01,4.61L347.17,48.88z"/>
			<path class="st12" d="M366.37,265.5l34.34-19.74c-0.11-2.1-0.22-4.17-0.31-6.16l-34.47,19.82
				C366.06,261.38,366.21,263.41,366.37,265.5z"/>
			<path class="st3" d="M367.13,275.41l34.13-19.62c-0.12-2.05-0.23-4.11-0.34-6.14l-34.26,19.69
				C366.82,271.32,366.97,273.33,367.13,275.41z"/>
			<path class="st3" d="M365.24,243.6c0,0.59,0.01,1.22,0.02,1.84l34.55-19.87c-0.08-2.12-0.26-4.13-0.55-6.02l-34.37,19.76
				C365.1,240.7,365.24,242.12,365.24,243.6z"/>
			<path class="st3" d="M369,315.72l34.78-20c-0.05-0.62-0.11-1.22-0.16-1.85c0-0.01,0-0.02,0-0.02c-0.02-0.32-0.12-1.84-0.28-4.21
				l-34.41,19.78C368.97,311.51,369,313.6,369,315.72z"/>
		</g>
		<path class="st3" d="M283.64,60.92c5.5,1.87,10.83,6.05,15.11,11.79L276.51,85.5c-3.9-5.99-8.02-10.47-12.3-13.4L283.64,60.92
			 M306.75,90.49c0.32,1.53,0.56,3.06,0.72,4.58c0.4,3.98,0.84,8.45,1.3,13.27l-21.35,12.28c-0.82-9.34-1.42-15.69-1.43-15.76
			l-0.04-0.43l-0.15-0.41c-0.01-0.03-0.17-0.46-0.46-1.2L306.75,90.49 M310.72,129.61c0.54,6.15,1.06,12.22,1.54,18.12l-21.63,12.43
			c-0.41-5.6-0.88-11.69-1.41-18.2L310.72,129.61 M313.9,169.17c0.29,4.07,0.56,8.02,0.81,11.78c0.14,2.13,0.43,4.22,0.88,6.25
			l-22.85,13.14c-0.15-1.12-0.22-2.25-0.22-3.4c0-3.68-0.17-8.78-0.51-15.19L313.9,169.17 M324.23,204.62
			c2.97,3.76,6.37,7.21,9.67,10.56c0.6,0.61,1.2,1.22,1.81,1.84l-22.38,12.87c-0.5-0.48-1.01-0.96-1.51-1.44
			c-3.62-3.44-7.33-6.96-10.48-10.67L324.23,204.62 M348.11,232.28c2.88,4.91,4.73,10.02,5.69,15.73l-21.31,12.25
			c-0.57-5.38-2.5-10.46-5.92-15.6L348.11,232.28 M355.14,269.63c0.26,5.27,0.59,11.44,1,18.43l-21.21,12.19
			c-0.25-3.47-0.51-6.82-0.76-10.11c-0.22-2.8-0.42-5.5-0.62-8.11L355.14,269.63 M357.45,309.69c0.52,8.16,0.89,13.76,0.89,13.77
			c0.1,1.48,0.24,2.96,0.42,4.48l-22.23,12.78c-0.06-1.42-0.09-2.86-0.09-4.33c0-4.64-0.09-9.39-0.28-14.46L357.45,309.69
			 M363.76,347.46c2.41,5.37,5.55,9.7,9.4,12.94l-23.47,13.49c-4.13-2.66-7.33-6.97-9.56-12.85L363.76,347.46 M283.21,57.15
			L256.9,72.28c0.28,0.1,0.54,0.17,0.83,0.28c7.32,2.79,13.33,10.44,17.6,17.63l28.41-16.33C298.55,65.55,291.16,59.31,283.21,57.15
			L283.21,57.15z M305.47,76.87l-28.43,16.34c0.94,1.74,1.77,3.4,2.48,4.91l28.25-16.24C307.1,80.15,306.33,78.48,305.47,76.87
			L305.47,76.87z M308.96,85.21l-28,16.1c1.02,2.36,1.56,3.87,1.56,3.87s0.83,8.81,1.9,21.17l28.02-16.11
			c-0.54-5.68-1.05-10.92-1.51-15.52C310.61,91.47,309.92,88.28,308.96,85.21L308.96,85.21z M312.8,114.05l-28.05,16.13
			c0.17,1.95,0.34,3.97,0.51,6.04l28.09-16.15C313.17,118.02,312.98,116.01,312.8,114.05L312.8,114.05z M313.7,123.88l-28.12,16.17
			c0.69,8.38,1.39,17.37,1.98,25.89l28.35-16.3C315.18,140.73,314.43,132.02,313.7,123.88L313.7,123.88z M316.21,153.48
			l-28.39,16.32c0.14,2.08,0.27,4.13,0.39,6.11l28.48-16.37C316.52,157.52,316.37,155.5,316.21,153.48L316.21,153.48z
			 M316.97,163.39l-28.54,16.41c0.38,6.86,0.62,12.84,0.62,17.14c0,3.14,0.49,6.04,1.32,8.77l29.26-16.82
			c-0.75-2.51-1.25-5.22-1.44-8.17C317.81,175,317.4,169.19,316.97,163.39L316.97,163.39z M320.82,192.22l-29.25,16.82
			c0.73,1.68,1.59,3.3,2.56,4.86l29.15-16.76C322.36,195.58,321.53,193.94,320.82,192.22L320.82,192.22z M325.17,200.07
			l-29.06,16.71c4.63,6.3,10.87,11.78,16.7,17.43l28.5-16.38C335.65,211.79,329.65,206.44,325.17,200.07L325.17,200.07z
			 M343.71,220.45l-28.34,16.29c1.34,1.35,2.63,2.72,3.85,4.12l28.02-16.11C346.1,223.26,344.92,221.83,343.71,220.45L343.71,220.45
			z M349.27,227.6l-27.78,15.97c4.55,5.82,7.71,12.26,7.71,20.19c0,0.77,0.02,1.58,0.03,2.39l28.35-16.3
			C356.44,240.67,353.31,233.59,349.27,227.6L349.27,227.6z M357.93,253.66l-28.59,16.43c0.08,1.96,0.19,4.02,0.32,6.15l28.52-16.4
			c-0.06-1.5-0.11-2.9-0.14-4.18C358.02,254.98,357.97,254.33,357.93,253.66L357.93,253.66z M358.35,263.77l-28.43,16.34
			c0.54,7.77,1.3,16.5,1.92,25.93L359.74,290C359.2,280.91,358.69,271.46,358.35,263.77L358.35,263.77z M359.96,293.88l-27.87,16.03
			c0.12,2.02,0.23,4.07,0.33,6.14l27.91-16.05C360.21,298.02,360.09,295.97,359.96,293.88L359.96,293.88z M360.57,303.88
			l-27.97,16.08c0.22,5.33,0.36,10.82,0.36,16.43c0,3.68,0.18,7.02,0.48,10.11l29.06-16.71c-0.29-2.07-0.54-4.24-0.7-6.58
			C361.81,323.22,361.26,314.95,360.57,303.88L360.57,303.88z M363.11,333.47l-29.21,16.79c0.3,2.03,0.64,3.95,1.06,5.72
			l29.46-16.94C363.93,337.31,363.49,335.46,363.11,333.47L363.11,333.47z M365.5,342.44l-29.59,17.01
			c3.21,10.44,8.58,15.78,13.78,18.45l29.99-17.24C374.59,357.91,369.09,352.59,365.5,342.44L365.5,342.44z"/>
		<path class="st11" d="M305.47,76.87l-28.43,16.34c0.94,1.74,1.77,3.4,2.48,4.91l28.25-16.24
			C307.1,80.15,306.33,78.48,305.47,76.87L305.47,76.87z M312.8,114.05l-28.05,16.13c0.17,1.95,0.34,3.97,0.51,6.04l28.09-16.15
			C313.17,118.02,312.98,116.01,312.8,114.05L312.8,114.05z M316.21,153.48l-28.39,16.32c0.14,2.08,0.27,4.13,0.39,6.11l28.48-16.37
			C316.52,157.52,316.37,155.5,316.21,153.48L316.21,153.48z M320.82,192.22l-29.25,16.82c0.73,1.68,1.59,3.3,2.56,4.86l29.15-16.76
			C322.36,195.58,321.53,193.94,320.82,192.22L320.82,192.22z M343.71,220.45l-28.34,16.29c1.34,1.35,2.63,2.72,3.85,4.12
			l28.02-16.11C346.1,223.26,344.92,221.83,343.71,220.45L343.71,220.45z M357.93,253.66l-28.59,16.43
			c0.08,1.96,0.19,4.02,0.32,6.15l28.52-16.4c-0.06-1.5-0.11-2.9-0.14-4.18C358.02,254.98,357.97,254.33,357.93,253.66
			L357.93,253.66z M359.96,293.88l-27.87,16.03c0.12,2.02,0.23,4.07,0.33,6.14l27.91-16.05
			C360.21,298.02,360.09,295.97,359.96,293.88L359.96,293.88z M363.11,333.47l-29.21,16.79c0.3,2.03,0.64,3.95,1.06,5.72
			l29.46-16.94C363.93,337.31,363.49,335.46,363.11,333.47L363.11,333.47z"/>
	</g>
	<g>
		<g>
			<path class="st13" d="M285.34,77.74c-0.12,0-0.23-0.02-0.34-0.07l-14.25-6.17c-0.44-0.19-0.64-0.7-0.45-1.14
				c0.19-0.44,0.7-0.64,1.14-0.45l13.11,5.68l0.96-15.1c0.03-0.48,0.4-0.82,0.92-0.81c0.48,0.03,0.84,0.44,0.81,0.92l-1.03,16.34
				c-0.02,0.28-0.17,0.54-0.41,0.69C285.66,77.7,285.5,77.74,285.34,77.74z"/>
		</g>
		<g>
			<path class="st13" d="M301.77,151.36c-0.2,0-0.4-0.07-0.56-0.2l-12.55-10.52c-0.37-0.31-0.42-0.86-0.11-1.23
				c0.31-0.37,0.86-0.41,1.22-0.11l11.59,9.72l8.27-22.96c0.16-0.45,0.66-0.69,1.11-0.52c0.45,0.16,0.69,0.66,0.52,1.11l-8.7,24.14
				c-0.1,0.27-0.32,0.47-0.59,0.55C301.92,151.35,301.84,151.36,301.77,151.36z"/>
		</g>
		<g>
			<path class="st13" d="M305.36,190.8c-0.17,0-0.34-0.05-0.48-0.15l-13.79-9.18c-0.4-0.27-0.51-0.81-0.24-1.21
				c0.27-0.4,0.81-0.51,1.21-0.24l12.89,8.58l8.84-22.22c0.18-0.45,0.68-0.67,1.13-0.49c0.45,0.18,0.66,0.68,0.49,1.13l-9.24,23.22
				c-0.1,0.24-0.3,0.43-0.55,0.51C305.53,190.79,305.44,190.8,305.36,190.8z"/>
		</g>
		<g>
			<path class="st13" d="M342.66,251.84c-0.16,0-0.31-0.04-0.45-0.13c-16.88-10.3-16.88-10.3-16.87-10.86l1.74,0.06l-0.87-0.05
				l0.52-0.69c0.46,0.32,9.13,5.63,15.41,9.46l5.95-20.45c0.13-0.46,0.61-0.73,1.08-0.59c0.46,0.13,0.73,0.62,0.59,1.08l-6.27,21.54
				c-0.08,0.26-0.27,0.47-0.52,0.57C342.87,251.82,342.76,251.84,342.66,251.84z"/>
		</g>
		<g>
			<path class="st13" d="M352.07,273.54c-0.02,0-0.03-0.02-0.04-0.02l-7.08,15.55l-11.47-9.66c-0.37-0.31-0.91-0.26-1.23,0.11
				c-0.31,0.37-0.26,0.92,0.11,1.23l12.35,10.4c0.16,0.13,0.36,0.2,0.56,0.2c0.06,0,0.13-0.01,0.19-0.02
				c0.27-0.06,0.49-0.24,0.6-0.49l7.57-16.62C353.1,273.96,352.66,273.63,352.07,273.54z"/>
		</g>
	</g>
	<g>
		<path class="st12" d="M206.64,348.03c0,0,0.13-4.02,4.34-4.06c4.21-0.04,4.9,3.38,4.9,3.38l0.23,46.53c0,0-3.57,10.06-4.73,10.06
			s-4.73-9.95-4.73-9.95V348.03z"/>
		<path class="st8" d="M215.98,393.55c0,0-0.04-3.49-4.34-3.46c-3.54,0.03-4.7,2.79-5,3.78v0.13c0,0,3.57,9.95,4.73,9.95
			c1.04,0,3.99-8.02,4.61-9.73L215.98,393.55z"/>
		<path class="st7" d="M211.37,403.95c0.42,0,1.15-1.31,1.91-2.98l0-0.19c0,0-0.02-1.48-1.84-1.46c-1.42,0.01-1.92,1.04-2.08,1.51
			C210.17,402.56,210.94,403.95,211.37,403.95z"/>
	</g>
	<g>
		<g>
			<g>
				<path d="M427.8,328.23c-0.73,0.98-1.7,1.55-2.47,1.53c3.87,2.83,9.41,6.88,14.83,10.85c0.76-0.01,1.7-0.57,2.41-1.53
					c0.81-1.09,1.02-2.34,0.62-3.06c-5.43-3.99-10.97-8.07-14.79-10.88C428.83,325.86,428.62,327.13,427.8,328.23z"/>
			</g>
			<path class="st14" d="M438.63,336.05c2.53-3.67-0.68-6.5-0.68-6.5s-71.19-52.36-72.31-53.19c-0.01-0.01-0.03-0.02-0.04-0.03
				c-0.51,1.16-1.6,2.19-2.32,3.14c-1.04,1.37-2.78,2.99-3.16,4.71c-0.11,0.5-0.53,0.68-0.88,0.83
				c1.32,0.96,73.08,53.45,73.08,53.45S435.53,340.55,438.63,336.05z"/>
			<path class="st15" d="M365,282.61c1.77-2.38,2.01-5.22,0.6-6.27c-0.01-0.01-8.87-1.75-9.88-0.49c-1.01,1.26,3.51,9.16,3.52,9.17
				C360.65,286.07,363.23,284.99,365,282.61z"/>
			<g>
				<path class="st13" d="M374,289.36c-1.41,1.89-3.3,3-4.78,2.96c7.5,5.48,18.22,13.32,28.72,21.01c1.47-0.01,3.3-1.11,4.67-2.96
					c1.57-2.11,1.98-4.54,1.2-5.93c-10.51-7.73-21.23-15.62-28.63-21.06C375.99,284.76,375.58,287.23,374,289.36z"/>
			</g>
			<path class="st13" d="M358.03,277.64c0.51-0.75,0.43-1.79-0.47-2.25c-0.86-0.44-5.37-2.69-5.64-2.32
				c-0.28,0.37,3.46,4.43,4.04,4.98C356.53,278.61,357.52,278.39,358.03,277.64z"/>
		</g>
		<g>
			<path class="st16" d="M449.65,422.54c-6.17-2.68-14.13-5.52-20.9-3.87c-0.85,0.21-1.28,1.12-1.1,1.93
				c0.38,1.7,1.14,2.62,2.6,3.59c1.61,1.07,8.29,3.49,3.93,5.33c-1.03,0.44-3.49-0.17-4.58-0.18c-1.27-0.01-2.55,0.02-3.82,0.07
				c-2.69,0.12-5.36,0.39-8.02,0.78c-2.82,0.42-9.37,1.01-11.02,3.96c-1.29,2.31,3.07,8.3,29.44,3.83c4.17-0.71,7.58-3.43,11.76-3.8
				c2.5-0.22,7.19,0.6,9.2-1.49C461.36,428.34,452.37,423.72,449.65,422.54z"/>
			<path class="st17" d="M432.47,420.06c0,0-1.18,2.48,2.48,3.95c2.27,0.91,6.26,2.09,7.16,2.82c0.9,0.73,1.24,2.03,2.03,2.54
				c0.79,0.51,2.87,1.69,4.68,0.79c1.41-0.71,1.26-5.54,1.13-7.6c-0.03-0.54-0.45-0.98-0.99-1.04l-4.5-0.56l-2.68,0.04
				C441.8,420.99,435.29,418.54,432.47,420.06z"/>
			<path class="st17" d="M427,429.14c0,0-0.95,0-2.25,0.56c-1.3,0.56-4.01,1.73-4.01,1.73s-9.25,0.36-9.53,4.53
				c3.5,1.58,9.14,1.13,12.91,0.28c5.47,0.9,8.63-0.73,8.63-0.73s0.65-4.69,0-5.92C432.1,428.36,427,429.14,427,429.14z"/>
			<path class="st18" d="M432.1,429.91c0,0-0.22,1.52-2.92,1.52c-2.7,0-2.92-1.52-2.92-1.52v-3.79h5.84V429.91z"/>
			<path class="st18" d="M449.31,421.61c0,0-0.2,1.52-2.58,1.52c-2.39,0-2.58-1.52-2.58-1.52v-3.79h5.17V421.61z"/>
			<path class="st7" d="M450.23,355.15c0,0,3.05,3.72,2.97,10.26c-0.08,6.54-2.76,19.81-2.76,19.81s3.07,6.69,2.76,12.11
				c-0.31,5.41-3.47,17.37-3.47,23.57c-3.95,1.02-5.98-0.68-5.98-0.68s-0.34-21.99-2.93-30.45c-1.92-11.05-3.61-30-3.61-30
				S446.67,353.35,450.23,355.15z"/>
			<g>
				<linearGradient id="SVGID_3_" gradientUnits="userSpaceOnUse" x1="430.4852" y1="321.9171" x2="430.2458" y2="322.9795">
					<stop  offset="0" style="stop-color:#FFB0C1"/>
					<stop  offset="1" style="stop-color:#FF9CA8"/>
				</linearGradient>
				<path class="st19" d="M433.44,323.81c-0.03-0.09-0.11-0.25-0.1-0.34c0,0,0-0.01,0-0.01c-0.12-0.06-0.15-0.1-0.14-0.12
					c-0.02-0.02-0.03-0.05-0.05-0.07l-2.69-1.06c0,0-2.38-0.69-3.71-1.16c0.74,0.49,1.46,1.02,2.07,1.61
					c0.01,0.01,0.01,0.02,0.02,0.02c0.57,0.03,0.9,0.4,1.01,0.84l0.38,0.11c0,0,2.66,1.22,3.23,2.11c0.22-0.27,0.35-0.6,0.27-1.08
					C433.66,324.37,433.53,324.08,433.44,323.81z"/>
				<path class="st18" d="M436.95,329.64l-1.06-0.7l-3.96-0.06l-3.76-1.07c0,0-1.37-0.59-2.52-0.62c-0.05-1.2,1.71-1.27,2.24-1.1
					c0.53,0.16,2.29,0.98,3.11,0.33c0.82-0.64-2.74-3.99-2.74-3.99s-2.09-1.49-2.28-1.68c-0.2-0.19-0.01-0.53-0.01-0.53
					c1.13,0.77,3.04,1.55,3.04,1.55l2.48,1.76l1.66-0.25c0,0,4,1.4,4.04,1.44c0.04,0.04,1.37,1.52,1.37,1.52L436.95,329.64z"/>
			</g>
			<g>
				
					<linearGradient id="SVGID_4_" gradientUnits="userSpaceOnUse" x1="396.6303" y1="310.9932" x2="397.1883" y2="310.3493" gradientTransform="matrix(0.9942 0.108 -0.108 0.9941 32.8255 -38.8424)">
					<stop  offset="0" style="stop-color:#FFB0C1"/>
					<stop  offset="1" style="stop-color:#FF9CA8"/>
				</linearGradient>
				<path class="st20" d="M395.46,315.08c0.4,0,0.69,0.17,0.88,0.42c0.07,0,0.14,0.02,0.21,0.01c0.48-0.03,0.78-0.22,1-0.49
					c-0.99-0.37-2.74-2.72-2.74-2.72l-0.18-0.35c-0.45-0.01-0.88-0.26-1.03-0.81c-0.01-0.01-0.02-0.01-0.03-0.01
					c-0.7-0.47-1.37-1.07-2-1.69c0.74,1.21,1.91,3.39,1.91,3.39l1.55,2.34C395.15,315.12,395.29,315.08,395.46,315.08z"/>
				
					<linearGradient id="SVGID_5_" gradientUnits="userSpaceOnUse" x1="413.112" y1="285.2612" x2="412.8726" y2="286.3237" gradientTransform="matrix(0.3131 0.9497 0.9499 -0.3128 -6.8607 9.0977)">
					<stop  offset="0" style="stop-color:#FFB0C1"/>
					<stop  offset="1" style="stop-color:#FF9CA8"/>
				</linearGradient>
				<path class="st21" d="M396.17,314.41c-0.09,0-0.27-0.03-0.35,0.01c0,0-0.01,0-0.01,0c-0.09-0.09-0.15-0.11-0.16-0.1
					c-0.03-0.02-0.05-0.02-0.08-0.03l-1.85-2.22c0,0-1.4-2.04-2.27-3.16c0.69,0.55,1.42,1.06,2.17,1.46c0.01,0.01,0.02,0,0.03,0.01
					c0.21,0.53,0.66,0.73,1.11,0.69l0.22,0.33c0,0,2,2.14,3.02,2.41c-0.19,0.29-0.47,0.52-0.94,0.6
					C396.78,314.45,396.46,314.41,396.17,314.41z"/>
				<path class="st18" d="M401.78,317.66l-0.72-1.05l-0.14-3.96l-1.15-3.73c0,0-0.62-1.35-0.67-2.51c-1.2-0.03-1.23,1.73-1.06,2.27
					c0.17,0.53,1.02,2.27,0.4,3.11c-0.63,0.84-4.83-1.62-4.83-1.62l-3.54-2.59c-0.21,0-0.44,0.11-0.44,0.11c0.79,1.11,3,3.51,3,3.51
					l2.72,1.69l-0.49,2.08l3.56,4.38L401.78,317.66z"/>
			</g>
			<path class="st13" d="M437.17,332.35l3-4.08l9.57,6.45c0,0-0.77-10.1,0.3-12.97c0.77-2.06,2.18-3.34,5.27-2.84
				c2.53,0.41,4.52,3.26,4.18,6.55c-0.49,4.71-0.99,13.23-4.6,16.47C451.29,345.18,437.17,332.35,437.17,332.35z"/>
			<path class="st7" d="M443.01,358.77c0,0,3.65,1.22,2.62,8.9c-1.03,7.68-9.81,16.77-9.54,29.88c3.26,9.49-3.37,19.67-3.36,30.63
				c-4.87,1.59-7.23-0.47-7.23-0.47l0-31.94c0,0-1.06-20.91-0.66-25.76c0.47-5.62,2.76-11.24,2.76-11.24H443.01z"/>
			<path class="st9" d="M427.34,330c0,0,3.78-5.64,12.8-8.52c9.02-2.88,12.18-3.44,14.44-2.43c2.26,1.02,4.68,4.34,2.82,9.25
				c-1.86,4.91-5.92,11.69-6.49,16.11c-0.56,4.42,0.11,12.54,0.11,12.54s-3.16,5.41-11.5,6.32c-8.35,0.9-12.63-2.48-12.63-2.48
				s0.34-9.76,0-13.7c-0.34-3.95-0.45-13.7-0.39-13.87C426.55,333.05,427.34,330,427.34,330z"/>
			
				<linearGradient id="SVGID_6_" gradientUnits="userSpaceOnUse" x1="365.6842" y1="323.4703" x2="365.0548" y2="314.8168" gradientTransform="matrix(1 0 0 1 74.8867 0)">
				<stop  offset="0" style="stop-color:#FFB0C1"/>
				<stop  offset="1" style="stop-color:#FF9CA8"/>
			</linearGradient>
			<path class="st22" d="M435.07,317.82l2.24,1.13l0.32,4.96c0,0,0.49,1.73,3.65,1.73c3.16,0,3.68-1.69,3.68-1.69l0.26-6.66
				l-7.03-5.26L435.07,317.82z"/>
			<path class="st18" d="M434.94,304.11l-1.19,4.52c-0.15,0.57-0.13,1.18,0.07,1.74l0.42,1.21l-0.44,1.32
				c-0.13,0.4-0.15,0.82-0.06,1.23c0.27,1.15,0.87,3.47,1.32,3.69c0.6,0.3,1.47,0.23,1.8-1.13c0.34-1.35,0-7.14,0-7.14
				L434.94,304.11z"/>
			<path class="st17" d="M436.05,308.92l-0.48,5.76l0.81,0.31c0,0,0.18-0.68,0.72-0.59c0.83,0.12,1.25,2.43,1.44,3.96
				c0.13,1.06,0.87,1.96,1.9,2.28c1.16,0.36,2.49,0.49,4.64-0.46c0.57-4.75,6.58-5.19,4.76-12.1c-0.76-2.86-3.4-5.56-7.29-7.26
				C437.1,298.46,436.05,308.92,436.05,308.92z"/>
			<path class="st17" d="M444.01,315.54c0.67,0.05,1.28,0.06,1.83,0.04c1.49-0.06,2.88-0.85,3.6-2.16c0.71-1.3,1.04-2.92,0.4-5.34
				c-0.76-2.86-3.61-6.05-7.47-7.81c-3.09-1.41-6.34-0.2-6.65,0.23c-1.5,2.13-1.61,5.5-0.02,8.12
				C438.6,313.36,440.74,315.29,444.01,315.54z"/>
			<path class="st18" d="M436.3,315.07c0,0,0.5-1.46,1.21-1.28c0.71,0.19,0.78,1.12,0.63,1.62c-0.11,0.36-0.57,0.9-0.74,1.45
				c-0.23,0.74-0.61,0.63-0.87,0.1C436.19,316.29,436.3,315.07,436.3,315.07z"/>
			<path class="st13" d="M398,319.12l3.39-2.44l13.28,19.17c0,0,12.16-7.03,15.15-7.69c2.15-0.48,3.99,0.01,5.25,2.88
				c1.03,2.35-0.28,5.57-3.22,7.07c-4.22,2.15-15.62,7.38-20.3,6.12C406.86,342.96,398,319.12,398,319.12z"/>
		</g>
	</g>
	<g>
		<g>
			<polygon class="st2" points="260.66,353.22 271.39,359.1 277.53,342.74 266.8,336.85 			"/>
			<g>
				<g>
					<path class="st23" d="M275.84,343.89c0.08,0,0.16-0.04,0.2-0.12c0.06-0.11,0.02-0.25-0.09-0.31l-8.64-4.74
						c-0.11-0.06-0.25-0.02-0.31,0.09c-0.06,0.11-0.02,0.25,0.09,0.31l8.64,4.74C275.76,343.88,275.8,343.89,275.84,343.89z"/>
				</g>
				<g>
					<path class="st23" d="M275.39,344.9c0.08,0,0.16-0.04,0.2-0.12c0.06-0.11,0.02-0.25-0.09-0.31l-8.64-4.74
						c-0.11-0.06-0.25-0.02-0.31,0.09c-0.06,0.11-0.02,0.25,0.09,0.31l8.64,4.74C275.32,344.9,275.36,344.9,275.39,344.9z"/>
				</g>
				<g>
					<path class="st23" d="M274.93,345.88c0.08,0,0.16-0.04,0.2-0.12c0.06-0.11,0.02-0.25-0.09-0.31l-8.64-4.74
						c-0.11-0.06-0.25-0.02-0.31,0.09c-0.06,0.11-0.02,0.25,0.09,0.31l8.64,4.74C274.86,345.87,274.9,345.88,274.93,345.88z"/>
				</g>
			</g>
			<path class="st1" d="M231.9,444.8c0.04,4.35,6.95,4.67,9.9,4.63c1.19-0.02,2.73-0.48,3.9-0.22c5.79,1.3,3.49,1,3.65,3.62
				c0.17,2.91,0.12,3.91,3.67,4.86c8.71,2.32,26.99-2.45,22.97-8.91c-2.33-3.74-10.3-3.77-13.97-4.63
				c-2.89-0.67-7.75-1.07-9.41-3.77c-1.29-2.1-0.57-5.36-2.39-7.28c-2.74-2.89-7.28,0.07-9.68,1.9
				C238.02,436.92,231.87,441.12,231.9,444.8z"/>
			<path class="st24" d="M249.18,435.6c-0.47,1.9-3.92,3.96-6.05,6.72c-0.95,1.22-1.61,2.44-2.7,3.05c-1.9,1.06-4.12,0.84-4.45-0.28
				c-0.51-1.78,0.05-5.93,0.05-5.93s0.31-1.29,2.57-1.38c0.36-0.02,2-1.33,3.68-2.2C247.21,433.04,249.64,433.7,249.18,435.6z"/>
			<path class="st24" d="M254.28,446.05c0,0-1.81,0.34-2.62,1.29c-0.81,0.95-1.03,4.97,0.43,6.39c1.46,1.42,5.59-0.78,9.39-0.85
				c7.25-0.14,10.73-2.17,10.17-4.24c-0.62-2.31-10.1-1.94-10.1-1.94L254.28,446.05z"/>
			<path class="st18" d="M240.69,433.81v3.97c0,0-0.09,2.02-1.82,2.02c-1.73,0-1.84-1.48-1.84-1.48v-5.29L240.69,433.81z"/>
			<path class="st18" d="M257.1,442.91v3.79c0,0-0.16,1.86-1.94,1.94c-2.41,0.11-2.41-1.29-2.41-1.29v-5.83L257.1,442.91z"/>
			<path class="st25" d="M239.91,370.48c-0.52,0.7-4.03,4.23-4.03,10.12c0,5.89,1.99,8.81,1.99,8.81s0.53,9.68,2.04,14.12
				c-6.62,10.95-1.97,13.3-3.39,29.99c-0.15,1.81,4.46,2.8,4.82,0c1.86-14.78,5.04-24.13,5.04-24.13s9.52-23.48,5.3-32.13
				C248.61,371,239.91,370.48,239.91,370.48z"/>
			<path class="st12" d="M243.37,375.87c0,0-2.48,5.74-1.39,10.9c1.09,5.16,5.15,7.24,6.24,8.33c0,7.33,2.72,16.67,2.84,20.36
				c-3.03,9.05,0.45,15.6,0.99,27.58c0.09,1.99,4.38,2.79,5.8,0c0-7.72,1.42-28.02,1.42-28.02s6-22.53-1.97-38.57
				C254.76,371.31,243.37,375.87,243.37,375.87z"/>
			<g>
				
					<linearGradient id="SVGID_7_" gradientUnits="userSpaceOnUse" x1="286.8393" y1="430.1938" x2="285.963" y2="429.4357" gradientTransform="matrix(-0.9718 0.2357 -0.2358 -0.9718 644.4223 696.4079)">
					<stop  offset="0" style="stop-color:#FFB0C1"/>
					<stop  offset="1" style="stop-color:#FF9CA8"/>
				</linearGradient>
				<path class="st26" d="M262.71,350.28c0.19-0.14,0.37-0.29,0.55-0.44c0.57-0.5,1.14-1.03,1.64-1.59
					c0.11-0.13,0.22-0.26,0.33-0.39c-0.12-0.64,0.97-2.11,1.24-2.49c3.36-1.11,2.21-2.23,2.21-2.23l-3.41,1.57
					c0,0-1.78,3.83-1.93,4.15L262.71,350.28z"/>
				
					<linearGradient id="SVGID_8_" gradientUnits="userSpaceOnUse" x1="284.5929" y1="431.2285" x2="284.3198" y2="430.4173" gradientTransform="matrix(-0.9718 0.2357 -0.2358 -0.9718 644.4223 696.4079)">
					<stop  offset="0" style="stop-color:#FFB0C1"/>
					<stop  offset="1" style="stop-color:#FF9CA8"/>
				</linearGradient>
				<path class="st27" d="M263.41,347.91c0.5-0.24,0.5,0.89,0.97,0.58c0.64-0.42,1.26-0.87,1.84-1.36c0.13-0.11,0.26-0.23,0.38-0.35
					c-0.03-0.65,1.24-1.96,1.56-2.31c3.41,0.01,2.17-1.32,2.17-1.32l-4.02,1.13L263.41,347.91z"/>
				<path class="st18" d="M262.54,350.9c-0.04-0.06-0.76-2.31-0.76-2.31s0.36-0.11,1.19-0.42c0.83-0.32,1.67-2.12,1.67-2.12
					l3.61-2.38l3.9,0.58c0,0,0.66,1.77-2.9,0.35c-0.41,0.36-2.25,1.86-1.71,2.39c0.54,0.53,2.84-2.21,4.35-0.51
					c-2.92,1.34-4.95,3.26-4.95,3.26L262.54,350.9z"/>
			</g>
			<path class="st7" d="M263.4,347.8c0.01,0.02,0.74,0.44,1.09,1.07c0.35,0.64,0.33,1.48,0.33,1.48s-14.85,6.67-15.66,6.22
				c-4.06-2.25-12.26-6.87-12.2-6.85c0.07,0.02-2.68-2.98-1.14-5.23c2.61-3.82,7.18,0.06,7.18,0.06l6.65,6.03
				C250.37,351.09,263.4,347.8,263.4,347.8z"/>
			<path class="st7" d="M260.58,354.35c0,0-6.95-5.81-11.33-7.78c-4.38-1.97-15.76-8.54-12.92,3.65c0.57,2.45,4.16,10.58,3.94,14.08
				c-0.22,3.5-1.02,7.08-1.02,7.08s-0.22,5.22,6.13,6.48c6.35,1.26,12.26-0.71,12.26-0.71l0.17-8.33L260.58,354.35z"/>
			<path class="st12" d="M255.15,356.97c0,0-1,11.03-0.73,14.23c0.27,3.2-0.72,6.8-0.72,6.8l3.94-0.86l0.21-8.5l0.48-6.77
				L255.15,356.97z"/>
			<path class="st25" d="M243.41,346.75c-0.32,1.05,1.14,2.43,3.28,3.09c2.13,0.66,4.12,0.34,4.44-0.71
				c0.32-1.05-1.14-2.43-3.28-3.09C245.72,345.39,243.73,345.71,243.41,346.75z"/>
			
				<linearGradient id="SVGID_9_" gradientUnits="userSpaceOnUse" x1="307.7505" y1="344.6133" x2="302.9714" y2="340.5888" gradientTransform="matrix(-1 0 0 1 556.0718 0)">
				<stop  offset="0" style="stop-color:#FFB0C1"/>
				<stop  offset="1" style="stop-color:#FF9CA8"/>
			</linearGradient>
			<path class="st28" d="M253.7,343.05l-2.74,0.63c0,0-0.48,3.49-0.68,4.66c-0.2,1.18-1.38,1.65-3.58,0.93
				c-2.22-0.72-2.74-1.51-2.69-2.68c0.05-1.17,0.2-4.37,0.2-4.37l7.11-4.41l2.05,1.38L253.7,343.05z"/>
			<path class="st18" d="M255.13,331.38c-0.08-1.31,1.45,2.97,1.45,3.52c0,0.55-0.2,1.15-0.2,1.61s0.2,0.82,0.2,1.31
				c0,1.12-2.22,5.23-2.88,5.23c-0.66,0-1.31-1.61-1.31-1.61l-0.5-3.8L255.13,331.38z"/>
			<path class="st25" d="M254.85,334.74c0,0,2.33-2.96,0.69-5.3c-1.64-2.33-4.98-4.35-8.89-3.03c-3.91,1.32-4.98,4.41-4.98,4.41
				s-3.66,0-4.04,3.91c-0.56,5.8,6.24,7.69,6.43,9.84l0,0c2.05,0.53,4.22-0.15,5.6-1.76c0.71-0.82,1.59-1.65,2.6-2.22
				c2.71-1.51,2.14-3.72,2.14-3.72S255.05,335.68,254.85,334.74z"/>
			<path class="st18" d="M272.38,355.04l0-0.99l-0.01,0c0,0,0.12-3.21-0.14-4.23c0.72-0.07,1.37,0.95,1.29,2.47
				c-0.01,0.11-0.02,0.3,0.07,0.37c0.1,0.07,0.24-0.13,0.24-0.13l1.75-4.61l1.35,3.54c0.19,0.49,0.12,1.03-0.18,1.46l-1.61,2.3
				l-1,2.18c0,0-2.55-1.11-2.39-1.18C271.82,356.21,272.38,355.04,272.38,355.04z"/>
			<path class="st18" d="M253,340.9c0,0,0.34-1.55-0.74-1.69c-1.08-0.14-0.89,1.77-0.04,2.62C252.62,342.24,253,340.9,253,340.9z"/>
			<path class="st7" d="M257.68,353.17c0,0-2.64,1.6-2.57,4.51c0.07,2.92,3.56,18.05,8.59,18.29c5.03,0.24,10.54-16.98,11.07-19.57
				c0.34-1.65-2.13-1.94-2.79-1c-1.17,1.53-7.12,10.7-7.12,10.7S262.53,351.64,257.68,353.17z"/>
			<path class="st12" d="M264.86,366.1l0.75,4.24c0,0,4.66-7.45,3.46-8.36C267.88,361.07,264.86,366.1,264.86,366.1z"/>
			<polygon class="st25" points="273.21,346.91 262.91,342.83 263.34,341.83 273.72,345.93 274.54,346.83 			"/>
			
				<linearGradient id="SVGID_10_" gradientUnits="userSpaceOnUse" x1="283.417" y1="349.1391" x2="281.3409" y2="351.1793" gradientTransform="matrix(-1 0 0 1 556.0718 0)">
				<stop  offset="0" style="stop-color:#FFB0C1"/>
				<stop  offset="1" style="stop-color:#FF9CA8"/>
			</linearGradient>
			<polygon class="st29" points="273.83,352.55 275.25,351.75 275.08,349.26 			"/>
		</g>
		<path class="st7" d="M242.24,331.34c0.26,0.63,1.52,0.72,2.82,0.19c1.3-0.53,2.14-1.47,1.89-2.1c-0.26-0.63-1.52-0.72-2.82-0.2
			C242.83,329.76,241.98,330.7,242.24,331.34z"/>
		<path class="st25" d="M237.7,326.24c0-2.78,2.25-5.03,5.03-5.03c2.78,0,5.03,2.25,5.03,5.03c0,2.78-2.25,5.03-5.03,5.03
			C239.95,331.26,237.7,329.01,237.7,326.24z"/>
	</g>
	<path class="st8" d="M212.37,232c0.73-6.06-2.17-10.98-6.47-10.98c-4.3,0-8.38,4.91-9.11,10.97c-0.73,6.06,2.17,10.98,6.47,10.98
		C207.56,242.98,211.64,238.06,212.37,232z"/>
	<path class="st12" d="M215.46,272.23c0.73-6.06-2.17-10.98-6.47-10.98c-4.3,0-8.38,4.91-9.11,10.97
		c-0.73,6.06,2.17,10.98,6.47,10.98C210.65,283.21,214.73,278.29,215.46,272.23z"/>
	<g>
		<g>
			<path class="st30" d="M234.22,229.54l13.54-7.93c1.69-0.99,2.71-2.82,2.65-4.79c-0.28-9.78-0.68-22.1-1.07-26.48
				c-0.77-8.75-5.32-12.13-10.38-14.06c-5.06-1.93-6.77,5.26-8.74,11.77c-1.97,6.51,3.65,40.62,3.65,40.62L234.22,229.54z"/>
			<path class="st31" d="M204.87,245.46c0.93-0.11,1.86-0.24,2.79-0.37l39.36-23.05c0.81-9.39,1.57-19.85,1.3-26.23
				c-0.78-17.96-14.93-22.94-28.46-18.89c-13.53,4.04-25.82,18.26-26.9,22.7c-2.8,11.52,6.65,32.85,8.43,44.08
				c0.97,0.48,1.97,0.92,2.96,1.35C204.59,245.15,204.76,245.3,204.87,245.46z"/>
			<path class="st32" d="M228.44,182.2l0.11,5.44l0.86,1.79l5.29,3.77c0,0,1.7-7.04-1.56-9.68
				C229.88,180.88,228.44,182.2,228.44,182.2z"/>
			<polygon class="st24" points="212.27,169.56 212.27,181.35 228.56,189.64 228.56,182.2 			"/>
			<path class="st30" d="M239.32,155.46l0.29,5.8c0.04,0.83-0.07,1.67-0.34,2.46l-1.18,3.53c-0.23,0.68-0.26,1.42-0.1,2.12l0.39,1.7
				c0.13,0.55,0.12,1.13-0.02,1.68l-1.2,4.82c0,0,0.42,4.9-0.63,5.66c-1.06,0.76-3.33,1.75-7.71,0.52
				c-4.37-1.22-10.85-4.2-11.66-5.07c-0.82-0.87-1.63-7.58-1.63-7.58l2.97-13.96l8.57-3.95L239.32,155.46z"/>
			<path class="st24" d="M235.87,168.93c0,0-1.48,5.33-1.11,6.28c0.37,0.95,2.96,0.97,3.43,0.49
				C239.75,174.13,235.96,170.84,235.87,168.93z"/>
			<path class="st24" d="M207.44,155.5c0.31-6.1,2.29-8.94,6.18-12.05c3.89-3.11,7.46-3.01,10.15-3.03c5.99-0.06,10.72,7,16.02,7
				c0.21,0,3.55,8.71-3.26,11.24c-6.81,2.53-11.36,1.36-11.36,1.36v4.63c0,0-0.12,2.25-2.64,2.49c-2.53,0.23-2.18,3.42-2.18,3.42
				s0.26,2.2-3.02,1.92c-3.02-0.26-3.9-2.54-4.1-2.13h-0.27v3.47c0,0.02,0,0.04,0,0.04s-1.52-0.01-1.59-1.39
				c-0.08-1.37,0-3.32,0-3.32S207.13,161.6,207.44,155.5z"/>
			<path class="st30" d="M216.63,172.27c0,0,0.24-2.93-0.13-4.15c-0.49-1.62-1.74-2.97-3.09-2.79c-1.35,0.18-1.8,2.64-1.59,3.43
				c0.22,0.79,2.34,3.09,2.32,3.76c-0.02,0.67,0.37,1.93,1.17,2C216.57,174.62,216.63,172.27,216.63,172.27z"/>
			<path class="st32" d="M228.56,187.65c-15.63-2.57-16.29-10.73-16.29-10.73l-4.84,6.53c0,0,1.3,10.03,16.15,12.36
				c2.23-2.44,5.83-6.38,5.83-6.38S229.69,188.39,228.56,187.65z"/>
			<path class="st11" d="M229.23,232.46l7.77-4.55c-0.51-11.09-1.84-25.25-5.15-34.55c-1.04-2.93-3.29-3.29-3.42,0
				C230.97,204.85,230.2,221.4,229.23,232.46z"/>
			<polygon class="st11" points="233.43,192.29 229.41,189.44 226.17,192.97 230.61,196.98 			"/>
			<path class="st30" d="M191.11,240.78c-1.22-1.18-1.88-2.82-1.84-4.52c0.24-11.86,1-25.94,1.46-29.44
				c0.75-5.64,2.85-10.66,10.51-10.17c7.66,0.49,8.54,7.64,8.81,11.52c0.22,3.12-2.04,27.49-2.93,36.99
				c-2.07,0.29-4.44,0.66-6.45,0.12C195.26,243.84,192.55,242.17,191.11,240.78z"/>
		</g>
	</g>
</g>
</svg>
