<svg xmlns="http://www.w3.org/2000/svg" xmlns:xlink="http://www.w3.org/1999/xlink" viewBox="0 0 2094.15 1948.7"><defs><style>.cls-1{fill:none;}.cls-2{isolation:isolate;}.cls-3{fill:#dae3ef;}.cls-4{clip-path:url(#clip-path);}.cls-5{fill:#c4d5e8;}.cls-6{fill:url(#linear-gradient);}.cls-7{fill:url(#linear-gradient-2);}.cls-8{fill:url(#linear-gradient-3);}.cls-9{fill:#f0f5f7;}.cls-10{fill:#849bad;}.cls-11{fill:#c3d3dd;}.cls-12{opacity:0.3;}.cls-13{fill:url(#linear-gradient-4);}.cls-14{fill:url(#linear-gradient-5);}.cls-15{fill:url(#linear-gradient-6);}.cls-16{fill:url(#linear-gradient-7);}.cls-17{fill:#f2bc97;}.cls-18{fill:url(#linear-gradient-8);}.cls-19{fill:url(#linear-gradient-9);}.cls-20{fill:url(#linear-gradient-10);}.cls-21{fill:url(#linear-gradient-11);}.cls-22{fill:url(#linear-gradient-12);}.cls-23{fill:url(#linear-gradient-13);}.cls-24{fill:url(#linear-gradient-14);}.cls-25,.cls-27{fill:#d8d0bc;}.cls-25,.cls-26{opacity:0.5;}.cls-25,.cls-26,.cls-34{mix-blend-mode:multiply;}.cls-28{fill:#161f46;}.cls-29{fill:url(#linear-gradient-15);}.cls-30{fill:#072f56;}.cls-31{fill:#e9eef4;}.cls-32{fill:#f9fbfc;}.cls-33{fill:url(#linear-gradient-16);}.cls-34{opacity:0.2;}.cls-35{fill:#7a76fd;}.cls-36{fill:#fefefe;}</style><clipPath id="clip-path" transform="translate(-731.88 -364.56)"><path class="cls-1" d="M1947.57,2084.09c0,30.33,236,54.91,527.15,54.91s527.15-24.58,527.15-54.91-172.56-777.91-463.69-777.91S1947.57,2053.76,1947.57,2084.09Z"/></clipPath><linearGradient id="linear-gradient" x1="2668.53" y1="1605.46" x2="2598.24" y2="2209.29" gradientUnits="userSpaceOnUse"><stop offset="0" stop-color="#3d5b98"/><stop offset="1" stop-color="#8cbfd6"/></linearGradient><linearGradient id="linear-gradient-2" x1="1989.07" y1="790.49" x2="1989.07" y2="647.17" gradientUnits="userSpaceOnUse"><stop offset="0.04" stop-color="#f0f5f7"/><stop offset="0.48" stop-color="#edf3f6"/><stop offset="0.81" stop-color="#e4ebf2"/><stop offset="1" stop-color="#dae3ef"/></linearGradient><linearGradient id="linear-gradient-3" x1="1989.07" y1="299.65" x2="1989.07" y2="156.34" gradientTransform="matrix(1, 0, 0, -1, 0, 2299.03)" gradientUnits="userSpaceOnUse"><stop offset="0.04" stop-color="#f0f5f7"/><stop offset="0.48" stop-color="#edf2f6"/><stop offset="0.81" stop-color="#e3ebf2"/><stop offset="1" stop-color="#dae3ef"/></linearGradient><linearGradient id="linear-gradient-4" x1="1554.38" y1="1876.76" x2="1679.96" y2="1876.76" gradientUnits="userSpaceOnUse"><stop offset="0.02" stop-color="#ed516f"/><stop offset="1" stop-color="#d44751"/></linearGradient><linearGradient id="linear-gradient-5" x1="1546.98" y1="1876.77" x2="1687.36" y2="1876.77" xlink:href="#linear-gradient-4"/><linearGradient id="linear-gradient-6" x1="849.97" y1="1512.21" x2="920.61" y2="1512.21" xlink:href="#linear-gradient-4"/><linearGradient id="linear-gradient-7" x1="203.69" y1="2116.2" x2="525.99" y2="1832.57" gradientTransform="matrix(1, 0, 0, 1, 0, 0)" xlink:href="#linear-gradient-3"/><linearGradient id="linear-gradient-8" x1="1665.55" y1="1264.61" x2="1799.66" y2="1409.9" gradientTransform="translate(-1293.97 -364.56)" xlink:href="#linear-gradient-4"/><linearGradient id="linear-gradient-9" x1="1245.8" y1="1358.55" x2="1575.81" y2="1358.55" gradientTransform="matrix(-0.65, -0.76, -0.76, 0.65, 3097.81, 1511.93)" gradientUnits="userSpaceOnUse"><stop offset="0.04" stop-color="#7973fd"/><stop offset="0.25" stop-color="#a4a4fd"/><stop offset="0.54" stop-color="#7973fd"/><stop offset="1" stop-color="#a4a4fd"/></linearGradient><linearGradient id="linear-gradient-10" x1="1211.67" y1="1535.22" x2="1302.67" y2="1535.22" gradientTransform="matrix(-0.36, 0.93, 0.93, 0.36, 424.27, -240.19)" xlink:href="#linear-gradient"/><linearGradient id="linear-gradient-11" x1="1226.85" y1="1035.7" x2="1287.5" y2="1035.7" gradientTransform="matrix(1, 0, 0, -1, -322.39, 2342.23)" gradientUnits="userSpaceOnUse"><stop offset="0.03" stop-color="#214f95"/><stop offset="1" stop-color="#0e408c"/></linearGradient><linearGradient id="linear-gradient-12" x1="1244.64" y1="1348.81" x2="1265.96" y2="1348.81" gradientUnits="userSpaceOnUse"><stop offset="0.04" stop-color="#7973fd"/><stop offset="0.25" stop-color="#a4a4fd"/><stop offset="1" stop-color="#7973fd"/></linearGradient><linearGradient id="linear-gradient-13" x1="1215.47" y1="2084.4" x2="1297.7" y2="2084.4" gradientTransform="matrix(-0.36, 0.93, 0.93, 0.36, -307.61, -604.75)" xlink:href="#linear-gradient-11"/><linearGradient id="linear-gradient-14" x1="1746.23" y1="1229.79" x2="1746.23" y2="1435.59" gradientTransform="translate(-562.09)" xlink:href="#linear-gradient-4"/><linearGradient id="linear-gradient-15" x1="1858.31" y1="1241.86" x2="1858.31" y2="1525.6" gradientTransform="translate(-562.09)" xlink:href="#linear-gradient-4"/><linearGradient id="linear-gradient-16" x1="2071.6" y1="1311.47" x2="2459.6" y2="1311.47" xlink:href="#linear-gradient"/></defs><title>terms</title><g class="cls-2"><g id="obj"><line class="cls-1" x1="2094.15" y1="612.76" x2="2090.2" y2="608.81"/><line class="cls-1" x1="2068.83" y1="610.92" x2="2064.48" y2="606.57"/><path class="cls-3" d="M2225.65,2136c-.52,1-1,2-1.59,3H1136.94a157.76,157.76,0,0,1-35.85-94.62q-.52-14.63-1.47-29.27c-5.86-89-23.78-177.4-56.6-260.49-31.38-79.52-99.12-150.7-89.8-241,12.7-139.56,160.68-164.93,253.51-235.15a246.77,246.77,0,0,0,29.82-30.68c16.88-21.71,33.8-47.08,46.5-72.45,29.59-88.78,55-181.81,122.61-249.47,59.2-59.2,152.23-59.2,218.21-13a332.94,332.94,0,0,1,48.92,40.44c198.55,196.33,97.07,322.09,401.52,315.48,191.86-4.19,110.89,302.32,95.57,410.27-10.85,76.29-25.4,155-10.59,231.8,7.33,38,23.15,71.09,42.49,104.26.35.61.69,1.24,1.07,1.85C2224.09,2053.16,2246.63,2094.38,2225.65,2136Z" transform="translate(-731.88 -364.56)"/><g class="cls-4"><path class="cls-5" d="M2603.2,2044.3c-145.76,93.39-126.21,204.21-173.9,195.05a28.34,28.34,0,0,1-6.64-2c-34.54-15.55,3.37-94.65-79.12-238-52.13-90.71-153.3-255.75-97.08-309,48.15-45.56,107.12,102.52,178.9,43,52.19-43.28-85.12-105-45.32-155,44.07-55.42,105.7,55.58,136.61-2.28s-9.13-163.36,49.55-161.82c.92,0,1.82.11,2.64.19,55.74,4.12,49.9,91.15,43.26,148-6.73,57.75-12.59,74.78,5.31,75.42s86.65-53.49,109.45-2.87-109.51,115.16-120.23,188.72,98.39-22.19,105.28,50.75C2715.81,1916.34,2675.63,1998,2603.2,2044.3Z" transform="translate(-731.88 -364.56)"/><polygon class="cls-3" points="1921.36 1536.37 1760.65 1614.27 1793.94 1421.84 1794.07 1422.02 1907.21 1329.48 1796.76 1405.52 1835.63 1180.78 1806.47 1311.22 1730.15 1262.23 1803.72 1323.49 1759.23 1522.48 1592.7 1425.79 1756.63 1534.1 1701.49 1784.94 1725.18 1789.63 1758.22 1628.31 1921.36 1536.37"/><path class="cls-6" d="M2723.14,1785.47c18.36-14.26,99-79.79,63.67-104-31.53-21.57-55.59,57.44-64.22,91.19-2.79-41.22-13.87-63.83-16.17-68.08,7.87-31.56,25.31-116-13.86-114.1-39.55,1.89-7.49,85.12,5.23,114.8a4.43,4.43,0,0,0,.47,3c.18.31,12.5,22.57,15.36,66-14.53-29.88-54.65-104.14-83.26-77.88-31.69,29.09,63,77.79,83.75,88a320.86,320.86,0,0,1-3.45,55.44c-1,6.86-2.29,14.15-3.85,21.8-13.74-27.61-56.72-106.7-85.79-79.16-30.81,29.19,61.68,75.54,84.27,86.22-5.83,26.16-15.21,56.59-29.83,91.16-12.14-24.89-56.86-110.2-86.92-81.81-31.2,29.47,63.65,76.66,84.86,86.67a775.59,775.59,0,0,1-38.94,77.21c-9.45-25.69-45.48-115.65-78.33-90.36-34,26.21,55.77,82.77,75.76,94.8-12.58,21.68-27,44.51-43.56,68.45C2581,2091,2548.87,1995,2514.1,2019.1c-35.86,24.88,54.47,87.46,71.89,99.08-15.06,21.63-31.78,44.13-50.47,67.55-7.48-24.26-39.51-119.51-74.15-95.48-35.61,24.7,53.14,86.54,71.46,98.8-12.19,15.19-25.13,30.72-39,46.65a4.48,4.48,0,0,0-.09,5.77,4.26,4.26,0,0,0,.53.55,4.48,4.48,0,0,0,6.32-.44c13.85-15.94,26.8-31.49,39-46.7,18.7,6,123.54,37.44,123.26-6.47-.27-42.11-95.83-7.09-120,2.44,19-23.83,36-46.72,51.26-68.73,26.46,8.09,119.39,33.59,119.12-7.76-.25-39.1-82.64-11.71-113.78,0,14.87-21.79,28-42.64,39.57-62.57,23.89-1,126.55-7.81,111.82-47.84-13.34-36.26-80.07,15.75-106.07,37.85a777.33,777.33,0,0,0,36.75-73.53c24.23-4.75,123.46-26.67,103.07-63.84-18.22-33.22-74.62,25.14-97.94,51.67,13.12-32.05,21.75-60.51,27.29-85.28,23.81-11.11,112.29-55.31,84-86.16-24.51-26.71-63,36.37-80.57,69.3.87-4.81,1.64-9.48,2.28-14A333.42,333.42,0,0,0,2723.14,1785.47Z" transform="translate(-731.88 -364.56)"/></g><path class="cls-7" d="M2531.18,781.2V947.8H1447V781.2A130.34,130.34,0,0,1,1577.3,650.86h823.54A130.34,130.34,0,0,1,2531.18,781.2Z" transform="translate(-731.88 -364.56)"/><path class="cls-3" d="M2531.18,781.2V986.37H2270.51V781.2a130.34,130.34,0,0,1,130.34-130.34h0A130.34,130.34,0,0,1,2531.18,781.2Z" transform="translate(-731.88 -364.56)"/><path class="cls-8" d="M2531.18,2008.66v-166.6H1447v166.6A130.34,130.34,0,0,0,1577.3,2139h823.54A130.34,130.34,0,0,0,2531.18,2008.66Z" transform="translate(-731.88 -364.56)"/><path class="cls-3" d="M2531.18,2008.66V1803.5H2270.51v205.17A130.34,130.34,0,0,0,2400.84,2139h0A130.34,130.34,0,0,0,2531.18,2008.66Z" transform="translate(-731.88 -364.56)"/><rect class="cls-9" x="715.08" y="421.64" width="823.58" height="1168.69"/><path class="cls-10" d="M1507.92,887.25h33.32v7.35h-12.1v38.07H1520V894.6h-12.1Z" transform="translate(-731.88 -364.56)"/><path class="cls-10" d="M1563.64,933.26c-10.48,0-18.09-7.29-18.09-18.61S1553,896,1563.64,896c10.41,0,17.77,7.09,17.77,17.83a21.3,21.3,0,0,1-.26,3.52h-26.36c.45,5.34,4.1,8.33,8.65,8.33a7.43,7.43,0,0,0,7.22-4.36h9.83C1578.54,928,1572.55,933.26,1563.64,933.26Zm-8.78-22H1572c-.13-4.75-3.9-7.74-8.59-7.74C1559,903.52,1555.57,906.32,1554.85,911.26Z" transform="translate(-731.88 -364.56)"/><path class="cls-10" d="M1597.16,932.67H1588V896.62h9.11v5.6a12.5,12.5,0,0,1,11.06-6.12v9.57h-2.41c-5.4,0-8.65,2.08-8.65,9Z" transform="translate(-731.88 -364.56)"/><path class="cls-10" d="M1664.79,912.76c0-5.73-3.19-8.72-8-8.72s-8.07,3-8.07,8.72v19.91h-9.11V912.76c0-5.73-3.19-8.72-8-8.72s-8.13,3-8.13,8.72v19.91h-9.11V896.62h9.11V901a13.13,13.13,0,0,1,10.61-4.88c5.6,0,10.22,2.41,12.69,6.9a14.28,14.28,0,0,1,12.37-6.9c8.65,0,14.77,5.47,14.77,15.42v21.15h-9.11Z" transform="translate(-731.88 -364.56)"/><path class="cls-10" d="M1725.91,924h-18.09l-3,8.65h-9.57l16.34-45.49h10.61l16.33,45.49h-9.63Zm-9-26.29-6.57,19h13.14Z" transform="translate(-731.88 -364.56)"/><path class="cls-10" d="M1769.92,912.76c0-5.79-3.19-8.92-8-8.92s-8.13,3.13-8.13,8.92v19.91h-9.11V896.62h9.11v4.49a13.47,13.47,0,0,1,10.87-5c8.39,0,14.38,5.47,14.38,15.42v21.15h-9.11Z" transform="translate(-731.88 -364.56)"/><path class="cls-10" d="M1801.88,896a14.79,14.79,0,0,1,11.78,5.6V884.52h9.24v48.16h-9.24v-5.34c-2.15,3.32-6.18,5.92-11.84,5.92-9.18,0-16.46-7.49-16.46-18.74S1792.64,896,1801.88,896Zm2.28,8c-4.88,0-9.5,3.65-9.5,10.48s4.62,10.74,9.5,10.74,9.57-3.77,9.57-10.61S1809.17,904,1804.16,904Z" transform="translate(-731.88 -364.56)"/><path class="cls-10" d="M1868.15,886.66c10.09,0,18.29,5.4,21.35,14.71H1879c-2.15-4.36-6.05-6.51-10.93-6.51-7.94,0-13.6,5.79-13.6,15s5.66,15,13.6,15c4.88,0,8.78-2.15,10.93-6.57h10.48c-3.06,9.37-11.26,14.71-21.35,14.71-13.08,0-23-9.57-23-23.17S1855.07,886.66,1868.15,886.66Z" transform="translate(-731.88 -364.56)"/><path class="cls-10" d="M1913.33,933.26c-10.41,0-18.29-7.29-18.29-18.61s8.13-18.61,18.55-18.61,18.55,7.22,18.55,18.61S1923.8,933.26,1913.33,933.26Zm0-7.94c4.81,0,9.44-3.52,9.44-10.67s-4.49-10.67-9.31-10.67-9.17,3.45-9.17,10.67S1908.45,925.32,1913.33,925.32Z" transform="translate(-731.88 -364.56)"/><path class="cls-10" d="M1964.09,912.76c0-5.79-3.19-8.92-8-8.92S1948,907,1948,912.76v19.91h-9.11V896.62H1948v4.49a13.47,13.47,0,0,1,10.87-5c8.39,0,14.38,5.47,14.38,15.42v21.15h-9.11Z" transform="translate(-731.88 -364.56)"/><path class="cls-10" d="M1996.06,896a14.8,14.8,0,0,1,11.78,5.6V884.52h9.24v48.16h-9.24v-5.34c-2.15,3.32-6.18,5.92-11.84,5.92-9.18,0-16.46-7.49-16.46-18.74S1986.82,896,1996.06,896Zm2.28,8c-4.88,0-9.5,3.65-9.5,10.48s4.62,10.74,9.5,10.74,9.57-3.77,9.57-10.61S2003.35,904,1998.34,904Z" transform="translate(-731.88 -364.56)"/><path class="cls-10" d="M2025,887a5.6,5.6,0,1,1,5.6,5.34A5.34,5.34,0,0,1,2025,887Zm1,9.63h9.11v36.05H2026Z" transform="translate(-731.88 -364.56)"/><path class="cls-10" d="M2045.54,904.1h-4.3v-7.49h4.3v-8.91h9.17v8.91h8.07v7.49h-8.07v17.44c0,2.41,1,3.45,3.84,3.45h4.23v7.68h-5.73c-6.9,0-11.52-2.93-11.52-11.19Z" transform="translate(-731.88 -364.56)"/><path class="cls-10" d="M2068.38,887a5.6,5.6,0,1,1,5.6,5.34A5.34,5.34,0,0,1,2068.38,887Zm1,9.63h9.11v36.05h-9.11Z" transform="translate(-731.88 -364.56)"/><path class="cls-10" d="M2103.47,933.26c-10.41,0-18.29-7.29-18.29-18.61s8.13-18.61,18.55-18.61,18.55,7.22,18.55,18.61S2113.94,933.26,2103.47,933.26Zm0-7.94c4.81,0,9.44-3.52,9.44-10.67S2108.41,904,2103.6,904s-9.17,3.45-9.17,10.67S2098.59,925.32,2103.47,925.32Z" transform="translate(-731.88 -364.56)"/><path class="cls-10" d="M2154.24,912.76c0-5.79-3.19-8.92-8-8.92s-8.13,3.13-8.13,8.92v19.91H2129V896.62h9.11v4.49a13.47,13.47,0,0,1,10.87-5c8.39,0,14.38,5.47,14.38,15.42v21.15h-9.11Z" transform="translate(-731.88 -364.56)"/><path class="cls-10" d="M2185.81,933.26c-9,0-15.36-5.27-15.75-12h9.17c.32,2.73,2.86,4.82,6.51,4.82s5.53-1.63,5.53-3.71c0-6.44-20.37-2.34-20.37-15.55,0-6,5.34-10.8,14.25-10.8,8.72,0,14,4.75,14.51,11.91H2191c-.26-2.8-2.47-4.69-6.05-4.69-3.38,0-5.14,1.37-5.14,3.45,0,6.57,20,2.47,20.24,15.68C2200,928.58,2194.6,933.26,2185.81,933.26Z" transform="translate(-731.88 -364.56)"/><rect class="cls-11" x="924.17" y="656.02" width="563.65" height="12.84"/><rect class="cls-11" x="760.07" y="708.07" width="727.76" height="12.84"/><rect class="cls-11" x="760.07" y="760.12" width="727.76" height="12.84"/><rect class="cls-11" x="760.07" y="812.17" width="727.76" height="12.84"/><rect class="cls-11" x="760.07" y="864.22" width="727.76" height="12.84"/><rect class="cls-11" x="760.07" y="916.27" width="727.76" height="12.84"/><rect class="cls-11" x="760.07" y="968.32" width="727.76" height="12.84"/><rect class="cls-11" x="760.07" y="1020.37" width="727.76" height="12.84"/><rect class="cls-11" x="760.07" y="1072.41" width="645.7" height="12.84"/><rect class="cls-11" x="760.07" y="1124.46" width="727.76" height="12.84"/><rect class="cls-11" x="760.07" y="1176.51" width="727.76" height="12.84"/><rect class="cls-11" x="760.07" y="1228.56" width="727.76" height="12.84"/><rect class="cls-11" x="760.07" y="1280.61" width="727.76" height="12.84"/><rect class="cls-11" x="760.07" y="1332.66" width="727.76" height="12.84"/><rect class="cls-11" x="1310.3" y="1526.9" width="177.52" height="12.84"/><path class="cls-10" d="M2074.44,1865.49a.62.62,0,0,1-.22-1.21,26.6,26.6,0,0,1,8.8-1.19c15.33-.32,30.77-.4,46.19-.27-1.56-.64-2.34-2.46-2.79-3.83a97.54,97.54,0,0,1-4.32-25.43,35.88,35.88,0,0,1-6.64,10c-2.62,2.79-6.74,6-11.6,5.77a13.53,13.53,0,0,1-7.4-3.08,17.29,17.29,0,0,1-4.77-5.42c-2.16-4-2.23-8.63-2.29-13.11,0-1.33,0-2.67-.11-4-.3-5.43-2.45-11.8-7.58-13.38-4.43-1.35-9,1.6-10.92,5.25s-1.93,8.36-.18,13.11a.62.62,0,1,1-1.17.43c-1.87-5.07-1.78-10.21.24-14.11,2.43-4.68,7.89-7.27,12.39-5.86,7.23,2.23,8.31,11.66,8.46,14.51.07,1.33.09,2.68.11,4,.06,4.33.12,8.8,2.14,12.53a16,16,0,0,0,4.43,5,12.29,12.29,0,0,0,6.71,2.82c4.37.21,8.18-2.78,10.62-5.38a34.6,34.6,0,0,0,7.41-12.21c-.2-5.62-.15-11.24-.11-16.79.09-10.49.19-22.39,4.42-32.88a.61.61,0,0,1,.72-.38.63.63,0,0,1,.49.64l-1.8,33.31a70.92,70.92,0,0,1-1.57,13.29c-.25,1-.54,2-.88,3,.35,9.44,1.42,18.87,4.38,27.9.41,1.23,1.1,2.89,2.4,3.17.89.18,1.94-.3,3.11-1.47,4-4,6.21-10.15,6.64-18.26.15-2.79.11-5.65.07-8.41a88.46,88.46,0,0,1,.36-11.93.59.59,0,0,1,.69-.55.62.62,0,0,1,.56.68,72.3,72.3,0,0,0,2.12,25.41,25.16,25.16,0,0,0,11.17-19.15q-.51-3.82-.69-7.67a.63.63,0,0,1,1.23-.19,24.15,24.15,0,0,1,.71,7.8,89,89,0,0,0,4.14,17.37c.18.51.41,1.07.79,1.23s.73,0,1.34-.34c4.28-2.42,7.25-7.4,8.16-13.66a60.81,60.81,0,0,0-.08-13.44c-.09-1.15-.18-2.3-.26-3.45-.8-12.19.27-24.51,1.31-36.44a.62.62,0,0,1,.62-.57h0a.63.63,0,0,1,.59.63c-.48,28.23-.52,56.84-.12,85a.64.64,0,0,1-.19.46.51.51,0,0,1-.46.18c-29.43-1.07-59.3-1.3-88.81-.69a25.81,25.81,0,0,0-8.39,1.11A.67.67,0,0,1,2074.44,1865.49Zm57.14-2.65c13.26.14,26.51.44,39.66.91q-.19-13.86-.24-27.82c-1.4,5.17-4.27,9.25-8.14,11.44a2.82,2.82,0,0,1-2.41.41,3,3,0,0,1-1.52-2,90.33,90.33,0,0,1-3.57-13.66,26.07,26.07,0,0,1-11.87,16.59.64.64,0,0,1-.55,0,.63.63,0,0,1-.37-.41q-.92-3.33-1.53-6.7l0,.44c-.45,8.42-2.81,14.83-7,19.07A6.75,6.75,0,0,1,2131.58,1862.84Zm-5.58-77.38c-2.72,9.21-2.81,19.26-2.88,28.26,0,4.22-.07,8.48,0,12.75a75.34,75.34,0,0,0,1.32-12.13Zm45.07,18.41q0,1.72,0,3.44C2171.06,1806.17,2171.06,1805,2171.07,1803.87Z" transform="translate(-731.88 -364.56)"/><g class="cls-12"><path class="cls-13" d="M1617.17,1939.55a62.79,62.79,0,1,1,62.79-62.79A62.86,62.86,0,0,1,1617.17,1939.55Zm0-109.17a46.38,46.38,0,1,0,46.38,46.38A46.43,46.43,0,0,0,1617.17,1830.39Z" transform="translate(-731.88 -364.56)"/><path class="cls-14" d="M1617.17,1947a70.19,70.19,0,1,1,70.19-70.19A70.27,70.27,0,0,1,1617.17,1947Zm0-139.13a68.94,68.94,0,1,0,68.94,68.94A69,69,0,0,0,1617.17,1807.83Z" transform="translate(-731.88 -364.56)"/><circle class="cls-15" cx="885.29" cy="1512.21" r="35.32"/></g><ellipse class="cls-16" cx="445.88" cy="1903.07" rx="285.75" ry="45.62"/><path class="cls-17" d="M996.92,1311.42c-5.34,7.3-5.61,17.15-2.11,25.48,16.39,39,75.9,177.47,94.18,177.65,21.28.21-55.7-204.48-66.74-206.91C1014,1305.83,1004.21,1301.45,996.92,1311.42Z" transform="translate(-731.88 -364.56)"/><path class="cls-17" d="M1138.65,1208.68c-6.6-4.7-15.51-4.42-22.56-.42-31.66,17.93-136.8,79.75-125.3,104.09,13.51,28.62,103.52-31.79,127.37-52.59C1138,1242.43,1154.6,1220,1138.65,1208.68Z" transform="translate(-731.88 -364.56)"/><polygon class="cls-18" points="387.74 831.61 300.35 892.9 334.94 946.31 396.85 899.58 387.74 831.61"/><path class="cls-19" d="M1302.89,1389.16l30.6,1.49L996.64,1259.87a20.27,20.27,0,0,0-26.2,11.55l-4.12,10.6,9,3.51,4.12-10.6a10.57,10.57,0,0,1,13.66-6Z" transform="translate(-731.88 -364.56)"/><path class="cls-20" d="M945.61,1359.57,1768.45,1679l62.92,21.83,31.18-80.3-61.16-26.34L978.54,1274.75a8.76,8.76,0,0,0-11.35,5l-26.58,68.47A8.76,8.76,0,0,0,945.61,1359.57Z" transform="translate(-731.88 -364.56)"/><path class="cls-21" d="M904.45,1286H965.1a0,0,0,0,1,0,0v40.5a.57.57,0,0,1-.57.57H905a.57.57,0,0,1-.57-.57V1286A0,0,0,0,1,904.45,1286Z" transform="translate(1759.18 543.43) rotate(111.22)"/><polygon class="cls-22" points="1244.64 1351.12 1265.96 1354.69 1247.82 1342.93 1244.64 1351.12"/><polygon class="cls-23" points="1099.33 1335.75 1244.21 1352.22 1248.24 1341.84 1130.19 1256.26 1099.33 1335.75"/><path class="cls-17" d="M1094.67,1473.47c-12.84,6.91,1.58,27.72,6.76,34.64,8.44,11.27,26.84,18,31.36,14.78s-16.21-27.77-15.81-29.39,11.64,9.34,15.58,5.83-9.07-19.92-16.78-24.41S1102.72,1469.14,1094.67,1473.47Z" transform="translate(-731.88 -364.56)"/><path class="cls-17" d="M1219.84,1844.79c-69.09-35.78-28.58,282.09-3.33,361.36s31.17-7.34,31.25-138.68S1247,1858.86,1219.84,1844.79Z" transform="translate(-731.88 -364.56)"/><polygon class="cls-17" points="479.31 1837.38 468.55 1785.23 516.31 1784.23 513.5 1845.03 479.31 1837.38"/><path class="cls-17" d="M1080.19,1821.53c-22.27-85.33-259.62,131.24-307.31,199.56s29.85,25.32,140.68-48.27S1088.95,1855.1,1080.19,1821.53Z" transform="translate(-731.88 -364.56)"/><ellipse class="cls-17" cx="1212.36" cy="1655.07" rx="45.01" ry="214.34" transform="matrix(1, -0.04, 0.04, 1, -793.24, -317.81)"/><ellipse class="cls-17" cx="1096.64" cy="1600.4" rx="214.34" ry="45.01" transform="translate(-1422.95 1989.48) rotate(-78.44)"/><path class="cls-17" d="M1289.49,1230.51c8.22.32,15.28,6,18.57,13.51,14.77,33.66,73.59,168.5,49.44,180.77-28.4,14.43-75.82-110-82.5-141.15C1269.43,1257.68,1269.62,1229.74,1289.49,1230.51Z" transform="translate(-731.88 -364.56)"/><path class="cls-17" d="M1345.37,1331.18l24.08,63.95,47.63,51.91-46.29,13.65s-28.63-26.76-35.32-36.39-33.71-65-33.71-65Z" transform="translate(-731.88 -364.56)"/><path class="cls-17" d="M1341.62,1413.14c-2.43,9.3,1.14,19.15,7.85,26,31.41,32.16,144.26,145.91,162.41,139,21.12-8.08-134.82-180.5-146.69-178.6C1356.3,1401,1344.94,1400.43,1341.62,1413.14Z" transform="translate(-731.88 -364.56)"/><path class="cls-17" d="M1508.26,1590.81a92.56,92.56,0,0,1-10.93-9.7c-7.17-7.41-13.07-16.89-5.92-23.79,7-6.76,12.75-7,21.95-4.58s27.29,15.41,24.23,20.08-17.64-3.21-17.58-1.42a4.07,4.07,0,0,0,.33.57c3.16,3.48,27.71,20.51,24.29,24.94C1540.92,1601.49,1520.12,1599.89,1508.26,1590.81Z" transform="translate(-731.88 -364.56)"/><line class="cls-17" x1="508.52" y1="789.12" x2="501.84" y2="841.32"/><path class="cls-17" d="M1240.4,1153.68l-22.46-23.06-10.1,64.65s20.11,19.72,20.72,17.59,7-17.6,7-17.6" transform="translate(-731.88 -364.56)"/><path class="cls-24" d="M1286.06,1282.76v.11c-.22,2.19-.55,4.28-1,6.58-.33,1.64-.66,3.29-1,5-.11.77-.33,1.43-.44,2.19-.22,1.1-.55,2.08-.77,3.07-.11.55-.22,1-.33,1.43a160.36,160.36,0,0,1-5.48,17.54c-1.64,4.38-3.29,8.44-4.93,12.61-4.93,12.17-9.87,24.55-13.48,47.79-6.69,43.19-9.76,65.11-9.76,65.11S1167,1454.75,1081.4,1422c0,0,.44-1.53,1.1-4.38,3.95-16.55,17.65-77.94,13.37-127.6-.44-4.71-1-9.32-1.75-13.7-10-59.19,24.34-103.81,89.89-91.64,29,5.37,47.36,9.43,59.63,13.92,15.35,5.59,21.49,11.73,28.28,21.81C1281.34,1234.31,1289.56,1253.82,1286.06,1282.76Z" transform="translate(-731.88 -364.56)"/><path class="cls-25" d="M1282.88,1299.75c-.11.55-.22,1-.33,1.43a160.36,160.36,0,0,1-5.48,17.54c-1.64,4.38-3.29,8.44-4.93,12.61-3.84-21.59-14.8-40.23-14.8-40.23Z" transform="translate(-731.88 -364.56)"/><g class="cls-26"><path class="cls-27" d="M1082.48,1417.63c4-16.57,17.66-78,13.36-127.6L1116,1277.8S1099.78,1375.35,1082.48,1417.63Z" transform="translate(-731.88 -364.56)"/></g><path class="cls-17" d="M1302.33,1072.67,1220,1036.85l7.16,126.3s14,14.22,43.1-9.16,32-81.32,32-81.32" transform="translate(-731.88 -364.56)"/><path class="cls-28" d="M1205,1011.82s-36.6-4.25-54.92,21.19-11.78,76.95-40.43,85.36c-2.86.84-6,1.66-9.45,2.52-33.67,8.45-5.06,28-37.37,41.73-28.81,12.24-27,30.5-21.67,63.95,1.9,11.87,3,53.94,51.09,51.7,29.91-1.39,61.9-6.91,87.09-24.11,14.55-9.93,24.56-25,31.08-41.13s7.36-34.62,17.71-49c9.28-12.87,28.26-17.36,33.87-33.13,3.56-10-10.44-22.6,4.43-34.09s38.57-18.89,38.75-28.58,1.9-39.3-37.36-58.1S1205,1011.82,1205,1011.82Z" transform="translate(-731.88 -364.56)"/><path class="cls-29" d="M1351.25,1331.72l-53.51,35.85-40.65-76.51-15.91-93.16,2.44.69s45.27,12.74,65.36,34.66C1326.64,1252.52,1351.25,1331.72,1351.25,1331.72Z" transform="translate(-731.88 -364.56)"/><path class="cls-28" d="M1247.28,2204.11s12.12,15.74,38.72,36.36,33.65,16.28,34.19,23.88-111.26,0-111.26,0l2.26-62.42S1247.28,2202.48,1247.28,2204.11Z" transform="translate(-731.88 -364.56)"/><path class="cls-28" d="M802.05,2041.13s-3.18,19.61,0,53.12,11.16,35.68,6,41.27-76.16-81.12-76.16-81.12l47.05-41.07S803.24,2040,802.05,2041.13Z" transform="translate(-731.88 -364.56)"/><path class="cls-28" d="M1248.71,1462.39s19.39,112.5,17.07,283.15-15.67,405.15-15.67,405.15-50.17,2.74-50.5.77c-42-251.53-16.25-309-16.25-309l-41-199.48s-24,150.53-44.89,187.68-231,181.87-231,181.87l-39.86-56.88c74.3-81.65,197.74-162.53,197.74-162.53s-29.8-259.27,49.92-357.56" transform="translate(-731.88 -364.56)"/><path class="cls-30" d="M1248.71,1462.39c-67.18.15-145.25-14.36-176.07-22.91,5.17-12.38,8.74-17.55,8.74-17.55l166.31,20.65S1248.06,1449.79,1248.71,1462.39Z" transform="translate(-731.88 -364.56)"/><polygon class="cls-3" points="1869.39 829.73 1843.91 939.55 1744.51 916.49 1777.77 773.12 1843.62 788.4 1869.39 829.73"/><polygon class="cls-31" points="1835.84 821.95 1869.39 829.73 1843.62 788.4 1835.84 821.95"/><rect class="cls-32" x="2506.09" y="1202.13" width="81" height="4.15" transform="translate(-393.9 -908.86) rotate(13.06)"/><rect class="cls-32" x="2502.22" y="1218.82" width="81" height="4.15" transform="translate(-390.23 -907.56) rotate(13.06)"/><rect class="cls-32" x="2498.35" y="1235.51" width="81" height="4.15" transform="translate(-386.55 -906.25) rotate(13.06)"/><polygon class="cls-3" points="513.88 364.69 488.4 474.51 389 451.45 422.25 308.08 488.11 323.36 513.88 364.69"/><polygon class="cls-31" points="480.33 356.91 513.88 364.69 488.11 323.36 480.33 356.91"/><rect class="cls-32" x="1150.58" y="737.09" width="81" height="4.15" transform="translate(-534.04 -614.59) rotate(13.06)"/><rect class="cls-32" x="1146.71" y="753.78" width="81" height="4.15" transform="translate(-530.37 -613.28) rotate(13.06)"/><rect class="cls-32" x="1142.83" y="770.47" width="81" height="4.15" transform="translate(-526.7 -611.98) rotate(13.06)"/><polygon class="cls-3" points="1302.54 15.72 1368.9 133.54 1262.25 193.62 1175.61 39.8 1246.27 0 1302.54 15.72"/><polygon class="cls-31" points="1266.55 35.99 1302.54 15.72 1246.27 0 1266.55 35.99"/><rect class="cls-32" x="1945.47" y="430.83" width="97.16" height="4.98" transform="translate(-687.89 669.81) rotate(-29.39)"/><rect class="cls-32" x="1955.56" y="448.74" width="97.16" height="4.98" transform="translate(-695.38 677.07) rotate(-29.39)"/><rect class="cls-32" x="1965.65" y="466.65" width="97.16" height="4.98" transform="translate(-702.87 684.32) rotate(-29.39)"/><path class="cls-33" d="M2262.54,1531.83l-1.95-1.25c-184.7-77.48-188.85-352.14-188.94-363.81l-.05-7.3,190.73-67.24,3.34-1.13,193.93,68.37-.05,7.3c-.09,11.7-4.32,287.34-190,364.27l-1.88.78Z" transform="translate(-731.88 -364.56)"/><path class="cls-32" d="M2265.6,1101.93l183.71,64.77s-2.13,279.68-183.71,354.9h-.06a1.91,1.91,0,0,0-.5-.25c-181.08-75.48-183.15-354.65-183.15-354.65L2265,1102.12l.56-.19m.18-21.63-6.66,2.23-.56.19-.16.05-.16.06-183.15,64.58-13.76,4.85.11,14.59c0,3,.81,73.58,24.49,154.61,31.89,109.12,90.57,184.51,169.76,218.15l3.7,2.45h10.22l3.82-1.56c80.17-33.21,139.56-108.88,171.76-218.81,23.76-81.13,24.56-151.86,24.59-154.84l.11-14.6-13.77-4.85-183.71-64.77-6.62-2.34Z" transform="translate(-731.88 -364.56)"/><g class="cls-34"><path class="cls-35" d="M2265,1102.12v419.23c-181.08-75.48-183.15-354.65-183.15-354.65Z" transform="translate(-731.88 -364.56)"/></g><path class="cls-36" d="M2249.42,1377.75l-82.61-68.63a15.66,15.66,0,0,1,20-24.09l61,50.64L2357,1229.53a15.66,15.66,0,1,1,21.84,22.46Z" transform="translate(-731.88 -364.56)"/></g></g></svg>