<svg id="Layer_1" data-name="Layer 1" xmlns="http://www.w3.org/2000/svg" xmlns:xlink="http://www.w3.org/1999/xlink" viewBox="0 0 2556.62 2158.45"><defs><style>.cls-1{fill:#3f72fc;opacity:0.18;isolation:isolate;}.cls-2{fill:#3074a7;}.cls-3{fill:#0c1f55;}.cls-4{fill:url(#linear-gradient);}.cls-5{fill:url(#linear-gradient-2);}.cls-6{fill:url(#linear-gradient-3);}.cls-7{fill:url(#linear-gradient-4);}.cls-8{fill:url(#linear-gradient-5);}.cls-9{fill:url(#linear-gradient-6);}</style><linearGradient id="linear-gradient" x1="2093.12" y1="2318.15" x2="2282.35" y2="2318.15" gradientUnits="userSpaceOnUse"><stop offset="0" stop-color="#008eff"/><stop offset="1" stop-color="#0064fd"/></linearGradient><linearGradient id="linear-gradient-2" x1="2093.12" y1="1738.75" x2="2282.35" y2="1738.75" xlink:href="#linear-gradient"/><linearGradient id="linear-gradient-3" x1="2359.04" y1="1156.73" x2="2548.28" y2="1156.73" xlink:href="#linear-gradient"/><linearGradient id="linear-gradient-4" x1="2359.04" y1="1738.75" x2="2548.28" y2="1738.75" xlink:href="#linear-gradient"/><linearGradient id="linear-gradient-5" x1="2093.12" y1="1156.73" x2="2282.35" y2="1156.73" xlink:href="#linear-gradient"/><linearGradient id="linear-gradient-6" x1="2359.04" y1="2318.15" x2="2548.28" y2="2318.15" xlink:href="#linear-gradient"/></defs><path class="cls-1" d="M2978,2071.65c-45.26,85.47-127.08,151.9-149.71,245.4-10.22,40.15-7.3,82.55-12.41,124.16-18.25,145.33-126.35,265.11-256.35,333.79-5.84,2.92-11,5.84-16.79,8.76-85.47,41.61-177.51,64.3-270.95,78.17-57,8.76-114.67,13.87-172.41,18.25a7089.8,7089.8,0,0,1-715.76,20.44c-115.4-2.19-233-8-341.82-46-5.84-2.19-11-3.65-16.79-5.84-88.39-33.58-166.5-89.85-235.91-154.82l-2.92-2.92c-103-96.42-189.19-213.28-243.94-343.28-78.9-187-92-393.65-38.69-588.68C536.4,1643,593.4,1533.4,602.16,1413.62c6.57-89.85-14.6-181.16-.73-270.22C630.63,965.89,795,835.89,968.8,792.09s357.15-19,534.66,5.84c86.93,12.41,188.46,46,273.87,19,105.18-32.12,194.3-73.07,308.25-73.07,46,0,93.5,5.11,136.57,23.36,51.83,22.63,92.77,63.58,134.38,101.54,116.86,104.45,249.78,189.19,369.56,291.45,119.78,101.53,227.88,225.69,271.68,376.86,21.9,73.79,27,151.17,29.2,227.88C3030.62,1869.32,3027,1978.88,2978,2071.65Z" transform="translate(-471.39 -743.84)"/><path class="cls-2" d="M2604.26,1392.08a74.16,74.16,0,0,0,74.08-74.08V984.75a74.16,74.16,0,0,0-74.08-74.08H1190a74.16,74.16,0,0,0-74.08,74.08V1318a74.16,74.16,0,0,0,74.08,74.08h36.25v100.67H1190a74.15,74.15,0,0,0-74,74v222.45c-168.49,8.47-303.55,145.92-307.35,315.57-130.52,44.09-220.06,167.45-220.06,306.45,0,178.5,145.24,323.74,323.74,323.74a322.74,322.74,0,0,0,198.07-68,323.07,323.07,0,0,0,409.07-10.16,321.31,321.31,0,0,0,211,78.2c127.45,0,237.62-74.23,290.4-181.56h583.34a74.15,74.15,0,0,0,74-74.05V2146.33a74.15,74.15,0,0,0-74-74H2568v-98.05h36.11a74.15,74.15,0,0,0,74-74V1566.79a74.15,74.15,0,0,0-74-74H2568V1392.08ZM1730.39,2685.63a272.56,272.56,0,0,1-193.58-80,24.66,24.66,0,0,0-34.83,0,273.79,273.79,0,0,1-375.3,10.77,24.63,24.63,0,0,0-32.72,0,274,274,0,0,1-181.71,69.19c-151.28,0-274.38-123.09-274.38-274.37,0-123.32,83.18-232.11,202.32-264.51a24.71,24.71,0,0,0,18.19-24.68l-.54-9.9c0-151.28,123.09-274.38,274.4-274.38,84.37,0,162.92,38.22,215.43,104.84a24.7,24.7,0,0,0,34.55,4.18,243.5,243.5,0,0,1,150.9-52c128.3,0,235.9,100.31,245,228.32a24.65,24.65,0,0,0,18.67,22.21,273.71,273.71,0,0,1,208,266C2004.76,2562.54,1881.67,2685.63,1730.39,2685.63Zm898.43-539.3v333.06a24.74,24.74,0,0,1-24.69,24.69H2040.42a322.94,322.94,0,0,0-165.78-382.43h729.49A24.73,24.73,0,0,1,2628.82,2146.33Zm0-579.54v333.39a24.73,24.73,0,0,1-24.69,24.68h-50a23.85,23.85,0,0,0-10.78-2.8H1730.66c-52.56-47.61-122-76.65-197.54-76.65a291.92,291.92,0,0,0-162,48.6,321.5,321.5,0,0,0-205.86-103.86V1566.79a24.73,24.73,0,0,1,24.69-24.68H2604.13A24.73,24.73,0,0,1,2628.82,1566.79ZM1165.28,1318V984.75A24.75,24.75,0,0,1,1190,960H2604.26A24.75,24.75,0,0,1,2629,984.75V1318a24.75,24.75,0,0,1-24.72,24.72H1190A24.75,24.75,0,0,1,1165.28,1318Z" transform="translate(-471.39 -743.84)"/><path class="cls-3" d="M1616.13,2325.29a46.77,46.77,0,1,1,45.64-57.12,24.67,24.67,0,1,0,48.15-10.79c-9.77-43.46-49.21-75-93.79-75a96.13,96.13,0,0,0,0,192.26,46.78,46.78,0,1,1-46.24,54,24.68,24.68,0,0,0-48.79,7.53,96.15,96.15,0,1,0,95-110.85Z" transform="translate(-471.39 -743.84)"/><path class="cls-3" d="M1179.91,2191.55a24.68,24.68,0,0,0-32,14.08l-85,219-85-219a24.69,24.69,0,1,0-46,17.87l108,278.33a24.69,24.69,0,0,0,46,0l108-278.33A24.7,24.7,0,0,0,1179.91,2191.55Z" transform="translate(-471.39 -743.84)"/><path class="cls-3" d="M1371.78,2182.39h-84a24.7,24.7,0,0,0-24.68,24.69v285.81a24.69,24.69,0,1,0,49.37,0V2363.27h59.36a90.44,90.44,0,0,0,0-180.88Zm0,131.52h-59.36v-82.15h59.36a41.08,41.08,0,0,1,0,82.15Z" transform="translate(-471.39 -743.84)"/><path class="cls-2" d="M1250.74,1920.39c-137.33-44.73-217.45,4.5-260.52,53.64a24.67,24.67,0,1,0,37.09,32.53c48.46-55.18,118.4-68.33,208.2-39.24a24.67,24.67,0,1,0,15.23-46.93Z" transform="translate(-471.39 -743.84)"/><path class="cls-2" d="M953.42,2108a25.57,25.57,0,0,0,5.59.64,24.75,24.75,0,0,0,24-19,171.83,171.83,0,0,1,7.43-22.11,24.7,24.7,0,0,0-45.84-18.39,215.51,215.51,0,0,0-9.67,29.31A24.67,24.67,0,0,0,953.42,2108Z" transform="translate(-471.39 -743.84)"/><path class="cls-2" d="M1270.35,1706.83a24.44,24.44,0,0,0,24.68-24.68v-49.7a24.69,24.69,0,0,0-49.37,0v49.7A24.66,24.66,0,0,0,1270.35,1706.83Z" transform="translate(-471.39 -743.84)"/><path class="cls-2" d="M1270.35,1025.58a24.87,24.87,0,0,0-24.69,24.68v50a24.69,24.69,0,1,0,49.37,0v-50A24.65,24.65,0,0,0,1270.35,1025.58Z" transform="translate(-471.39 -743.84)"/><path class="cls-2" d="M1383.56,1025.58a24.86,24.86,0,0,0-24.68,24.68v50a24.68,24.68,0,1,0,49.36,0v-50A24.64,24.64,0,0,0,1383.56,1025.58Z" transform="translate(-471.39 -743.84)"/><path class="cls-2" d="M1496.78,1025.58a24.86,24.86,0,0,0-24.69,24.68v50a24.69,24.69,0,1,0,49.37,0v-50A24.65,24.65,0,0,0,1496.78,1025.58Z" transform="translate(-471.39 -743.84)"/><path class="cls-2" d="M1496.78,1178a24.65,24.65,0,0,0-24.69,24.69v49.69a24.69,24.69,0,1,0,49.37,0v-49.69A24.44,24.44,0,0,0,1496.78,1178Z" transform="translate(-471.39 -743.84)"/><path class="cls-2" d="M1383.56,1706.83a24.44,24.44,0,0,0,24.68-24.68v-49.7a24.68,24.68,0,0,0-49.36,0v49.7A24.65,24.65,0,0,0,1383.56,1706.83Z" transform="translate(-471.39 -743.84)"/><path class="cls-2" d="M1496.78,1706.83a24.44,24.44,0,0,0,24.68-24.68v-49.7a24.69,24.69,0,0,0-49.37,0v49.7A24.65,24.65,0,0,0,1496.78,1706.83Z" transform="translate(-471.39 -743.84)"/><path class="cls-2" d="M1610,1025.58a24.86,24.86,0,0,0-24.69,24.68v50a24.69,24.69,0,1,0,49.37,0v-50A24.65,24.65,0,0,0,1610,1025.58Z" transform="translate(-471.39 -743.84)"/><path class="cls-2" d="M1610,1178a24.65,24.65,0,0,0-24.69,24.69v49.69a24.69,24.69,0,1,0,49.37,0v-49.69A24.44,24.44,0,0,0,1610,1178Z" transform="translate(-471.39 -743.84)"/><path class="cls-2" d="M1610,1706.83a24.44,24.44,0,0,0,24.68-24.68v-49.7a24.69,24.69,0,0,0-49.37,0v49.7A24.65,24.65,0,0,0,1610,1706.83Z" transform="translate(-471.39 -743.84)"/><path class="cls-2" d="M1383.56,1178a24.65,24.65,0,0,0-24.68,24.69v49.69a24.68,24.68,0,1,0,49.36,0v-49.69A24.44,24.44,0,0,0,1383.56,1178Z" transform="translate(-471.39 -743.84)"/><path class="cls-2" d="M1758.42,1758.17h229.71a24.69,24.69,0,1,0,0-49.37H1758.42a24.69,24.69,0,1,0,0,49.37Z" transform="translate(-471.39 -743.84)"/><path class="cls-2" d="M1988.13,1126.61H1758.42a24.69,24.69,0,1,0,0,49.37h229.71a24.69,24.69,0,1,0,0-49.37Z" transform="translate(-471.39 -743.84)"/><path class="cls-4" d="M2187.57,2412.77a94.81,94.81,0,0,0,94.78-94.79c0-52-42.45-94.45-94.78-94.45a94.66,94.66,0,0,0-94.45,94.45C2093.12,2370.31,2135.57,2412.77,2187.57,2412.77Z" transform="translate(-471.39 -743.84)"/><path class="cls-5" d="M2187.57,1833.54a94.79,94.79,0,0,0,0-189.57c-52,0-94.45,42.46-94.45,94.78S2135.57,1833.54,2187.57,1833.54Z" transform="translate(-471.39 -743.84)"/><path class="cls-2" d="M1270.35,1178a24.66,24.66,0,0,0-24.69,24.69v49.69a24.69,24.69,0,1,0,49.37,0v-49.69A24.44,24.44,0,0,0,1270.35,1178Z" transform="translate(-471.39 -743.84)"/><path class="cls-6" d="M2453.49,1062.11a94.66,94.66,0,0,0-94.45,94.45c0,52.33,42.45,94.78,94.45,94.78a94.81,94.81,0,0,0,94.79-94.78C2548.28,1104.56,2505.82,1062.11,2453.49,1062.11Z" transform="translate(-471.39 -743.84)"/><path class="cls-7" d="M2453.49,1833.54a94.79,94.79,0,1,0,0-189.57c-52,0-94.45,42.46-94.45,94.78S2401.49,1833.54,2453.49,1833.54Z" transform="translate(-471.39 -743.84)"/><path class="cls-8" d="M2187.57,1062.11a94.66,94.66,0,0,0-94.45,94.45c0,52.33,42.45,94.78,94.45,94.78a94.8,94.8,0,0,0,94.78-94.78C2282.35,1104.56,2239.9,1062.11,2187.57,1062.11Z" transform="translate(-471.39 -743.84)"/><path class="cls-9" d="M2453.49,2412.77a94.82,94.82,0,0,0,94.79-94.79c0-52-42.46-94.45-94.79-94.45A94.66,94.66,0,0,0,2359,2318C2359,2370.31,2401.49,2412.77,2453.49,2412.77Z" transform="translate(-471.39 -743.84)"/></svg>