<svg id="Layer_1" data-name="Layer 1" xmlns="http://www.w3.org/2000/svg" xmlns:xlink="http://www.w3.org/1999/xlink" viewBox="0 0 1839.78 1453.99"><defs><style>.cls-1{fill:#3f72fc;opacity:0.18;isolation:isolate;}.cls-2{fill:url(#linear-gradient);}.cls-3{fill:#002b6a;}.cls-4{fill:url(#linear-gradient-2);}.cls-5{fill:url(#linear-gradient-3);}.cls-6{fill:url(#linear-gradient-4);}.cls-7{fill:url(#linear-gradient-5);}.cls-8{fill:url(#linear-gradient-6);}.cls-9{fill:url(#linear-gradient-7);}.cls-10{fill:url(#linear-gradient-8);}.cls-11{opacity:0.1;}.cls-12{fill:#fff;}.cls-13{fill:url(#linear-gradient-9);}.cls-14{fill:#b5eff7;}.cls-15{fill:#81cad9;}.cls-16{fill:#04579b;}.cls-17{fill:url(#linear-gradient-10);}.cls-18{fill:#083d7c;}.cls-19{fill:#d1d3d4;}.cls-20{fill:url(#linear-gradient-11);}.cls-21{fill:url(#linear-gradient-12);}.cls-22{fill:url(#linear-gradient-13);}.cls-23{fill:url(#linear-gradient-14);}.cls-24{fill:url(#linear-gradient-15);}.cls-25{fill:url(#linear-gradient-16);}.cls-26{fill:url(#linear-gradient-17);}.cls-27{fill:url(#linear-gradient-18);}.cls-28{fill:url(#linear-gradient-19);}.cls-29{fill:url(#linear-gradient-20);}.cls-30{fill:url(#linear-gradient-21);}.cls-31{fill:url(#linear-gradient-22);}.cls-32{fill:url(#linear-gradient-23);}.cls-33{fill:url(#linear-gradient-24);}.cls-34{fill:url(#linear-gradient-25);}.cls-35{fill:url(#linear-gradient-26);}.cls-36{fill:url(#linear-gradient-27);}.cls-37{fill:url(#linear-gradient-28);}.cls-38{fill:url(#linear-gradient-29);}.cls-39{fill:url(#linear-gradient-30);}.cls-40{fill:url(#linear-gradient-31);}.cls-41{fill:url(#linear-gradient-32);}.cls-42{fill:url(#linear-gradient-33);}.cls-43{fill:url(#linear-gradient-34);}.cls-44{fill:url(#linear-gradient-35);}.cls-45{fill:url(#linear-gradient-36);}.cls-46{fill:url(#linear-gradient-37);}.cls-47{fill:url(#linear-gradient-38);}.cls-48{fill:url(#linear-gradient-39);}.cls-49{fill:url(#linear-gradient-40);}.cls-50{fill:url(#linear-gradient-41);}.cls-51{fill:url(#linear-gradient-42);}.cls-52{fill:url(#linear-gradient-43);}.cls-53{fill:url(#linear-gradient-44);}.cls-54{fill:url(#linear-gradient-45);}.cls-55{fill:#82b8e1;}.cls-56{fill:#043d82;}.cls-57{fill:url(#linear-gradient-46);}.cls-58{fill:url(#linear-gradient-47);}.cls-59{fill:url(#linear-gradient-48);}.cls-60{fill:url(#linear-gradient-49);}.cls-61{fill:url(#linear-gradient-50);}.cls-62{fill:url(#linear-gradient-51);}.cls-63{fill:url(#linear-gradient-52);}.cls-64{fill:url(#linear-gradient-53);}.cls-65{fill:url(#linear-gradient-54);}.cls-66{fill:url(#linear-gradient-55);}.cls-67{fill:url(#linear-gradient-56);}.cls-68{fill:url(#linear-gradient-57);}.cls-69{opacity:0.5;}</style><linearGradient id="linear-gradient" x1="162.7" y1="1126.2" x2="341.99" y2="1126.2" gradientUnits="userSpaceOnUse"><stop offset="0" stop-color="#008eff"/><stop offset="1" stop-color="#0064fd"/></linearGradient><linearGradient id="linear-gradient-2" x1="-5377.78" y1="1379.06" x2="-5378.01" y2="1361.88" gradientTransform="matrix(0.93, -0.37, -0.37, -0.93, 6385.71, 28.57)" gradientUnits="userSpaceOnUse"><stop offset="0" stop-color="#f2f8fc"/><stop offset="1" stop-color="#94c7f2"/></linearGradient><linearGradient id="linear-gradient-3" x1="-4647.37" y1="-3996.98" x2="-4655.43" y2="-3990.78" gradientTransform="matrix(0.79, -0.61, 0.61, 0.79, 7004.79, 1127.09)" xlink:href="#linear-gradient-2"/><linearGradient id="linear-gradient-4" x1="-5493" y1="-903.86" x2="-5493.07" y2="-909.37" gradientTransform="translate(6375.93 1685.59) rotate(0.04)" xlink:href="#linear-gradient-2"/><linearGradient id="linear-gradient-5" x1="-5485.2" y1="-900.63" x2="-5485.27" y2="-906.15" gradientTransform="translate(6377.29 1678.59) rotate(-0.01)" xlink:href="#linear-gradient-2"/><linearGradient id="linear-gradient-6" x1="-5488.77" y1="-902.16" x2="-5488.84" y2="-907.68" gradientTransform="translate(6402.28 40.35) rotate(-16.96)" xlink:href="#linear-gradient-2"/><linearGradient id="linear-gradient-7" x1="-5481.82" y1="-900.19" x2="-5481.87" y2="-904.49" gradientTransform="translate(6402.28 40.35) rotate(-16.96)" xlink:href="#linear-gradient-2"/><linearGradient id="linear-gradient-8" x1="367.58" y1="513.12" x2="649.71" y2="513.12" gradientUnits="userSpaceOnUse"><stop offset="0" stop-color="#004dbd"/><stop offset="1" stop-color="#0076fd"/></linearGradient><linearGradient id="linear-gradient-9" x1="398.78" y1="767.53" x2="419.16" y2="758.07" gradientTransform="translate(-22.69 -108.25) rotate(-11.28)" gradientUnits="userSpaceOnUse"><stop offset="0" stop-color="#fff"/><stop offset="1" stop-color="#94c7f2"/></linearGradient><linearGradient id="linear-gradient-10" x1="4535.07" y1="-1418.56" x2="4537.87" y2="-1428.32" gradientTransform="matrix(-0.9, -0.44, -0.44, 0.9, 4162.88, 4225.36)" xlink:href="#linear-gradient-2"/><linearGradient id="linear-gradient-11" x1="4545.61" y1="-1418.92" x2="4545.34" y2="-1439.75" gradientTransform="matrix(-0.9, -0.44, -0.44, 0.9, 4162.88, 4225.36)" xlink:href="#linear-gradient-2"/><linearGradient id="linear-gradient-12" x1="402.04" y1="1084.26" x2="581.32" y2="1084.26" xlink:href="#linear-gradient"/><linearGradient id="linear-gradient-13" x1="643.68" y1="1041.88" x2="822.96" y2="1041.88" xlink:href="#linear-gradient"/><linearGradient id="linear-gradient-14" x1="880.71" y1="999.75" x2="1060" y2="999.75" xlink:href="#linear-gradient"/><linearGradient id="linear-gradient-15" x1="1120.05" y1="947.09" x2="1299.34" y2="947.09" xlink:href="#linear-gradient"/><linearGradient id="linear-gradient-16" x1="-4098.44" y1="-1277.53" x2="-4098.66" y2="-1294.71" gradientTransform="matrix(0.91, 0.42, 0.42, -0.91, 5885.64, 940.37)" xlink:href="#linear-gradient-2"/><linearGradient id="linear-gradient-17" x1="1443.15" y1="343.76" x2="1566.85" y2="343.76" xlink:href="#linear-gradient-8"/><linearGradient id="linear-gradient-18" x1="-4121.29" y1="-1095.34" x2="-4129.35" y2="-1089.14" gradientTransform="matrix(0.99, 0.16, -0.16, 0.99, 5506.12, 2142.67)" xlink:href="#linear-gradient-2"/><linearGradient id="linear-gradient-19" x1="-3984.94" y1="1630.04" x2="-3985.01" y2="1624.53" gradientTransform="matrix(0, 1, -1, 0, 3246.59, 4367.98)" xlink:href="#linear-gradient-2"/><linearGradient id="linear-gradient-20" x1="-3977.14" y1="1633.27" x2="-3977.21" y2="1627.75" gradientTransform="translate(3258.77 4365.32) rotate(89.99)" xlink:href="#linear-gradient-2"/><linearGradient id="linear-gradient-21" x1="-3980.71" y1="1631.74" x2="-3980.78" y2="1626.22" gradientTransform="matrix(0, 1, -1, 0, 3252.9, 4366.6)" xlink:href="#linear-gradient-2"/><linearGradient id="linear-gradient-22" x1="-3973.76" y1="1633.71" x2="-3973.81" y2="1629.41" gradientTransform="translate(3260.83 4365.28) rotate(90.01)" xlink:href="#linear-gradient-2"/><linearGradient id="linear-gradient-23" x1="1074.26" y1="512.32" x2="1094.65" y2="502.86" gradientTransform="translate(150.64 -220.97)" xlink:href="#linear-gradient-9"/><linearGradient id="linear-gradient-24" x1="4027.95" y1="-1976.88" x2="4030.74" y2="-1986.64" gradientTransform="matrix(-0.9, -0.44, -0.44, 0.9, 4162.88, 4225.36)" xlink:href="#linear-gradient-2"/><linearGradient id="linear-gradient-25" x1="4038.49" y1="-1977.24" x2="4038.21" y2="-1998.07" gradientTransform="matrix(-0.9, -0.44, -0.44, 0.9, 4162.88, 4225.36)" xlink:href="#linear-gradient-2"/><linearGradient id="linear-gradient-26" x1="-5667.53" y1="1244.71" x2="-5667.75" y2="1227.53" gradientTransform="matrix(-0.73, 0.69, 0.69, 0.73, -3721.14, 3838.82)" xlink:href="#linear-gradient-2"/><linearGradient id="linear-gradient-27" x1="-4962.03" y1="-3944.38" x2="-4970.09" y2="-3938.18" gradientTransform="translate(-4699.38 3042.95) rotate(121.06)" xlink:href="#linear-gradient-2"/><linearGradient id="linear-gradient-28" x1="-5769.35" y1="-744.44" x2="-5769.42" y2="-749.95" gradientTransform="translate(-4527.5 87.14) rotate(179.96)" xlink:href="#linear-gradient-2"/><linearGradient id="linear-gradient-29" x1="-5761.55" y1="-741.21" x2="-5761.63" y2="-746.73" gradientTransform="translate(-4526.68 83.94) rotate(-179.95)" xlink:href="#linear-gradient-2"/><linearGradient id="linear-gradient-30" x1="-5765.12" y1="-742.74" x2="-5765.2" y2="-748.26" gradientTransform="translate(-4527.4 88.34) rotate(179.98)" xlink:href="#linear-gradient-2"/><linearGradient id="linear-gradient-31" x1="-5758.17" y1="-740.77" x2="-5758.23" y2="-745.07" gradientTransform="translate(-4527.61 93.32) rotate(179.98)" xlink:href="#linear-gradient-2"/><linearGradient id="linear-gradient-32" x1="660.12" y1="701.91" x2="680.51" y2="692.45" gradientTransform="translate(150.64 -220.97)" xlink:href="#linear-gradient-9"/><linearGradient id="linear-gradient-33" x1="4312.19" y1="-1623.01" x2="4314.99" y2="-1632.76" gradientTransform="matrix(-0.9, -0.44, -0.44, 0.9, 4162.88, 4225.36)" xlink:href="#linear-gradient-2"/><linearGradient id="linear-gradient-34" x1="4322.73" y1="-1623.37" x2="4322.46" y2="-1644.19" gradientTransform="matrix(-0.9, -0.44, -0.44, 0.9, 4162.88, 4225.36)" xlink:href="#linear-gradient-2"/><linearGradient id="linear-gradient-35" x1="-3340.1" y1="-1644.26" x2="-3340.32" y2="-1661.45" gradientTransform="matrix(-0.99, 0.14, 0.14, 0.99, -2484.42, 3135.87)" xlink:href="#linear-gradient-2"/><linearGradient id="linear-gradient-36" x1="-3488.57" y1="-540.29" x2="-3496.63" y2="-534.09" gradientTransform="translate(-2817.22 1919.55) rotate(156.69)" xlink:href="#linear-gradient-2"/><linearGradient id="linear-gradient-37" x1="-3198.53" y1="1929.15" x2="-3198.6" y2="1923.64" gradientTransform="translate(-2597.17 2966.68) rotate(179.97)" xlink:href="#linear-gradient-2"/><linearGradient id="linear-gradient-38" x1="-3190.74" y1="1932.38" x2="-3190.81" y2="1926.86" gradientTransform="translate(-2498.87 3121.08) rotate(177.16)" xlink:href="#linear-gradient-2"/><linearGradient id="linear-gradient-39" x1="-3194.3" y1="1930.85" x2="-3194.38" y2="1925.33" gradientTransform="translate(-2599.03 2963.92) rotate(-179.97)" xlink:href="#linear-gradient-2"/><linearGradient id="linear-gradient-40" x1="-3187.35" y1="1932.82" x2="-3187.41" y2="1928.52" gradientTransform="translate(-2498.87 3121.08) rotate(177.16)" xlink:href="#linear-gradient-2"/><linearGradient id="linear-gradient-41" x1="117.38" y1="810.9" x2="137.76" y2="801.43" gradientTransform="translate(4.34 -129.58) rotate(-9.56)" xlink:href="#linear-gradient-9"/><linearGradient id="linear-gradient-42" x1="4639.6" y1="-1367.01" x2="4642.39" y2="-1376.76" gradientTransform="matrix(-0.99, -0.17, -0.17, 0.99, 4854.06, 3154.83)" xlink:href="#linear-gradient-2"/><linearGradient id="linear-gradient-43" x1="4650.14" y1="-1367.37" x2="4649.86" y2="-1388.19" gradientTransform="matrix(-0.99, -0.17, -0.17, 0.99, 4854.06, 3154.83)" xlink:href="#linear-gradient-2"/><linearGradient id="linear-gradient-44" x1="-5352.2" y1="1619.43" x2="-5352.43" y2="1602.24" gradientTransform="translate(7344.58 1467.77) rotate(19.43)" xlink:href="#linear-gradient-2"/><linearGradient id="linear-gradient-45" x1="-4558.58" y1="-4221.4" x2="-4566.63" y2="-4215.2" gradientTransform="matrix(0.82, 0.57, 0.57, -0.82, 7913.44, 342.84)" xlink:href="#linear-gradient-2"/><linearGradient id="linear-gradient-46" x1="645.58" y1="1039.19" x2="665.96" y2="1029.73" gradientTransform="matrix(-1, 0, 0, 1, 2154.88, -220.97)" xlink:href="#linear-gradient-9"/><linearGradient id="linear-gradient-47" x1="4175.67" y1="-1314.24" x2="4178.46" y2="-1324" gradientTransform="translate(-1231.24 4225.36) rotate(-26.32)" xlink:href="#linear-gradient-2"/><linearGradient id="linear-gradient-48" x1="4186.21" y1="-1314.6" x2="4185.94" y2="-1335.43" gradientTransform="translate(-1231.24 4225.36) rotate(-26.32)" xlink:href="#linear-gradient-2"/><linearGradient id="linear-gradient-49" x1="-5488.58" y1="-1145.16" x2="-5488.65" y2="-1150.68" gradientTransform="matrix(0, 1, 1, 0, 2904.66, 6693.04)" xlink:href="#linear-gradient-2"/><linearGradient id="linear-gradient-50" x1="-5480.79" y1="-1141.93" x2="-5480.86" y2="-1147.45" gradientTransform="matrix(0.97, 0.25, 0.25, -0.97, 7360.73, 1455.7)" xlink:href="#linear-gradient-2"/><linearGradient id="linear-gradient-51" x1="-5484.36" y1="-1143.46" x2="-5484.43" y2="-1148.98" gradientTransform="matrix(0, 1, 1, 0, 2909.35, 6687.83)" xlink:href="#linear-gradient-2"/><linearGradient id="linear-gradient-52" x1="-5477.4" y1="-1141.49" x2="-5477.46" y2="-1145.8" gradientTransform="matrix(0, 1, 1, 0, 2914.16, 6679.91)" xlink:href="#linear-gradient-2"/><linearGradient id="linear-gradient-53" x1="622.81" y1="1054.68" x2="587.82" y2="1054.68" gradientTransform="matrix(-1, 0, 0, 1, 1832.29, 0)" xlink:href="#linear-gradient-2"/><linearGradient id="linear-gradient-54" x1="613.1" y1="1055.45" x2="590.63" y2="1050.79" gradientTransform="matrix(-1, 0, 0, 1, 1832.29, 0)" xlink:href="#linear-gradient-2"/><linearGradient id="linear-gradient-55" x1="222.41" y1="1039.48" x2="242.21" y2="1030.29" gradientTransform="translate(856.29 -220.97)" xlink:href="#linear-gradient-9"/><linearGradient id="linear-gradient-56" x1="4772.25" y1="-1019.11" x2="4775.05" y2="-1028.87" gradientTransform="translate(-2330.59 4225.36) rotate(-26.32)" xlink:href="#linear-gradient-2"/><linearGradient id="linear-gradient-57" x1="4782.79" y1="-1019.47" x2="4782.52" y2="-1040.3" gradientTransform="translate(-2330.59 4225.36) rotate(-26.32)" xlink:href="#linear-gradient-2"/></defs><path class="cls-1" d="M2001.57,1115.41c-30.48,57.58-85.6,102.33-100.84,165.31-6.89,27-4.92,55.61-8.36,83.64-12.3,97.9-85.12,178.59-172.69,224.85-3.93,2-7.38,3.93-11.31,5.9-57.58,28-119.58,43.32-182.52,52.66-38.4,5.9-77.25,9.34-116.13,12.29a4775.4,4775.4,0,0,1-482.16,13.77c-77.74-1.47-156.95-5.41-230.26-31-3.94-1.47-7.38-2.46-11.31-3.93-59.54-22.62-112.16-60.53-158.92-104.29l-2-2c-69.37-65-127.44-143.67-164.32-231.24a606.59,606.59,0,0,1-26.06-396.56c22.13-78.23,60.52-152,66.42-232.72,4.43-60.52-9.83-122-.49-182C420.32,370.54,531.05,283,648.12,253.46s240.59-12.78,360.17,3.94c58.56,8.36,127,31,184.48,12.78,70.86-21.63,130.89-49.21,207.64-49.21,31,0,63,3.44,92,15.73,34.92,15.25,62.49,42.83,90.52,68.4,78.72,70.36,168.26,127.44,249,196.33,80.69,68.39,153.51,152,183,253.86,14.75,49.71,18.2,101.83,19.67,153.51C2037,979.12,2034.56,1052.92,2001.57,1115.41Z" transform="translate(-313.06 -220.97)"/><rect class="cls-2" x="162.7" y="1041.88" width="179.29" height="168.64"/><path class="cls-3" d="M852.11,794l54.47,54.49-15.73-54.13a4.47,4.47,0,0,1,3.11-5.55h0a4.46,4.46,0,0,1,5.45,3l20.46,65.06a9.1,9.1,0,0,1-3.4,10.14h0a9.08,9.08,0,0,1-11.82-1.08l-61.29-63.28a6.15,6.15,0,0,1,.56-9.06h0A6.15,6.15,0,0,1,852.11,794Z" transform="translate(-313.06 -220.97)"/><path class="cls-4" d="M899.31,782l-1.86,6.42,1.13,2.88a3.58,3.58,0,0,1-2,4.63h0a3.57,3.57,0,0,1-4.68-2l-1.11-2.82-8.16-1.65-2.09-16.71a2.24,2.24,0,0,1,1.86-2.5h.05A2.25,2.25,0,0,1,885,772l.14.69.58-1.1a1.79,1.79,0,0,1,1.8-1h0a1.8,1.8,0,0,1,1.57,1.52l.09.61.17-.53a1.73,1.73,0,0,1,1.94-1.2h0a1.74,1.74,0,0,1,1.38,1.18l.46,1.39.08-.26a1.52,1.52,0,0,1,1.46-1.08h0a1.53,1.53,0,0,1,1.43,1Z" transform="translate(-313.06 -220.97)"/><path class="cls-5" d="M890.8,791.09l-8.16-1.65-6.77-10.86a1.78,1.78,0,0,1,.42-2.36l0,0a1.79,1.79,0,0,1,2.51.34l3.77,5a7.25,7.25,0,0,1,7,3.48C892.07,789.14,890.8,791.09,890.8,791.09Z" transform="translate(-313.06 -220.97)"/><rect class="cls-6" x="881.23" y="770.09" width="4.55" height="9.35" rx="2.25" transform="translate(-500.94 71.12) rotate(-17)"/><rect class="cls-7" x="890.13" y="770.9" width="3.56" height="9.35" rx="1.76" transform="translate(-500.41 72.71) rotate(-16.95)"/><path class="cls-8" d="M889.43,779.62h0a2,2,0,0,1-2.47-1.31l-1.57-5.17a2,2,0,0,1,1.31-2.46h0a2,2,0,0,1,2.47,1.31l1.57,5.17A2,2,0,0,1,889.43,779.62Z" transform="translate(-313.06 -220.97)"/><path class="cls-9" d="M896.59,779.24h0a1.36,1.36,0,0,1-1.7-.91L893.52,774a1.37,1.37,0,0,1,.91-1.71h0a1.36,1.36,0,0,1,1.7.9l1.33,4.38A1.36,1.36,0,0,1,896.59,779.24Z" transform="translate(-313.06 -220.97)"/><polygon class="cls-10" points="613.47 570.98 649.71 478.95 571.18 418.81 577.25 440.64 367.58 498.91 397.74 607.42 607.4 549.15 613.47 570.98"/><path class="cls-3" d="M794.45,790.66l32.87-3.92,18.22,3.48a13.89,13.89,0,0,1,11.19,12h0a363.94,363.94,0,0,1-6.15,123.46l-2.29,10.21H772.81s-2.1-36.47,9.58-47.77l-.19-83.61A13.89,13.89,0,0,1,794.45,790.66Z" transform="translate(-313.06 -220.97)"/><path class="cls-3" d="M717.57,1162.13l-3.06,8.26,5.4,2,1.53-4.13,2.11,5.48,13.12,4.88h0a3.41,3.41,0,0,0-2-4.39l-5.4-2,.12-5.72Z" transform="translate(-313.06 -220.97)"/><path class="cls-3" d="M838.85,951.44l-43.35,98.15-66.2,116.88-11.81-4.39s29.31-113.79,53.71-123.51l20.53-99.33Z" transform="translate(-313.06 -220.97)"/><polygon class="cls-11" points="525.79 730.47 493.77 802.96 469.98 760.32 478.67 718.26 525.79 730.47"/><path class="cls-12" d="M783.54,922.84l11.6-127.75,22.61-3.88h24.8s15.68,23.34,9.75,50.58-12,55.17-8.17,81.05Z" transform="translate(-313.06 -220.97)"/><path class="cls-3" d="M817.78,751.41s-4.76-1-6.42,6.53,12.27,22.3,10.52,29.86c0,0,16.93-8.63,19.52-15.68s3-22.41-8.7-21.25S817.78,751.41,817.78,751.41Z" transform="translate(-313.06 -220.97)"/><polygon class="cls-13" points="543.69 559.62 532.15 563.57 526.65 583.16 503.09 576.78 516.43 545.35 543.69 559.62"/><path class="cls-12" d="M846.27,745.66s5.05,5.29,5.17,6.81-.37,2.82,0,3.41,5.27,5.24,7.3,7.17a1.32,1.32,0,0,1,0,1.93A11,11,0,0,1,857,766.1c-1.56.86-.11,4-.11,4l2.37,7.27a2.3,2.3,0,0,1-1.59,2.94c-5.43,1.44-18.58,4.53-21.24,1.37-3.37-4-4.53-13.88-4.53-13.88l-3.68-.93a2.4,2.4,0,0,1-1.71-3v0a2.41,2.41,0,0,1,2.82-1.64l4,.9,1.66,5.06a2,2,0,0,0,2.6,1.32h0a2,2,0,0,0,1.39-2.25l-3.91-11.83-5.76-4.22Z" transform="translate(-313.06 -220.97)"/><path class="cls-12" d="M855.85,767.13l1.7,2a.45.45,0,0,1,0,.54l-.4.65s1.38.89.75,2-1.18,2.07-1.18,2.07Z" transform="translate(-313.06 -220.97)"/><path class="cls-3" d="M849.36,755s-3.79,1.26-4.86,3.26a17.59,17.59,0,0,0,4.43-.05C850.24,757.79,849.36,755,849.36,755Z" transform="translate(-313.06 -220.97)"/><path class="cls-3" d="M815.52,755h0a12.69,12.69,0,0,1,8.83-13.63l14.83-4.62a10.36,10.36,0,0,1,13.37,8.7L853,749s-5.13-.29-8.47-3.14c0,0,1.55,5.15-1.6,6.81,0,0-3.4-3.18-5.07-3.77,0,0,.93,3.53,1.67,4.41,0,0-6.52,1.62-10.29-.1Z" transform="translate(-313.06 -220.97)"/><path class="cls-14" d="M819.89,788.94s11.21,12.3,18.92,12.36c0,0-.39,8.39-9.33,8.68l-12.26-18.77Z" transform="translate(-313.06 -220.97)"/><path class="cls-14" d="M842.87,797.87l-1.44,2.77s3.22,1.55,2.94,6.37C844.37,807,847.64,799.2,842.87,797.87Z" transform="translate(-313.06 -220.97)"/><path class="cls-15" d="M842,808.72a2.25,2.25,0,0,0,.71-.49c1.74-1.8.36-7.09-2.53-6.58,0,0-.8,5.35-4.78,7,0,0,.87.21,2,.36l-7.52,101.52,8.7,7.19,5.67-7.94Z" transform="translate(-313.06 -220.97)"/><path class="cls-3" d="M844.13,922.84l17.43,105.87,19.51,138.89L868.7,1170s-51.87-105.88-36-133.19c0,0-45.67-82.37-49.12-113.94Z" transform="translate(-313.06 -220.97)"/><path class="cls-3" d="M868.7,1170l1.66,8.66,5.66-1.08-.83-4.33,4.64,3.6,13.75-2.64h0a3.41,3.41,0,0,0-4-2.71l-5.66,1.09-2.86-5Z" transform="translate(-313.06 -220.97)"/><path class="cls-3" d="M817,790.1h0a297.2,297.2,0,0,1-1.12,111.07l-6.42,32h-32.8l14.37-139Z" transform="translate(-313.06 -220.97)"/><path class="cls-16" d="M816.53,891.11l-9-73.33,9.14-1.3-8.93-4.22,7.37-21.18v0l.58,3.26A287.56,287.56,0,0,1,816.53,891.11Z" transform="translate(-313.06 -220.97)"/><path class="cls-17" d="M731.9,930.34l-3.3,11.56a1.87,1.87,0,0,1-2.23,1.3h0a1.85,1.85,0,0,1-1.39-2.14l1.16-6.26Z" transform="translate(-313.06 -220.97)"/><path class="cls-3" d="M722.87,954.64l-22.39-14.28L707.73,929a4.92,4.92,0,0,1,6.78-1.5l14.11,9a4.92,4.92,0,0,1,1.5,6.78Zm-18.14-15.22,17.2,11,5.59-8.78a1.83,1.83,0,0,0-.56-2.52l-14.11-9a1.83,1.83,0,0,0-2.52.56Z" transform="translate(-313.06 -220.97)"/><rect class="cls-18" x="669.4" y="938.34" width="63.19" height="51.84" rx="2.37" transform="translate(315.46 -446.64) rotate(32.53)"/><path class="cls-3" d="M740.6,960.94l-5.5,8.62h0a50.92,50.92,0,0,1-53.17-34l0-.09,5.42-8.5a1.81,1.81,0,0,1,2.51-.55l50.21,32A1.83,1.83,0,0,1,740.6,960.94Z" transform="translate(-313.06 -220.97)"/><path class="cls-11" d="M712.16,1002.13h0a1.83,1.83,0,0,1-.55-2.52L737.53,959a1.82,1.82,0,0,1,2.51-.56h0a1.83,1.83,0,0,1,.56,2.52l-25.92,40.63A1.83,1.83,0,0,1,712.16,1002.13Z" transform="translate(-313.06 -220.97)"/><rect class="cls-19" x="694.84" y="957.44" width="9.83" height="6.78" rx="1.77" transform="translate(313.41 -446.51) rotate(32.53)"/><rect class="cls-12" x="694.44" y="957.19" width="9.83" height="6.78" rx="1.77" transform="translate(313.2 -446.34) rotate(32.53)"/><path class="cls-11" d="M700.22,965.14l-5.68-3.62a1.35,1.35,0,0,1-.42-1.88l2.19-3.42a1.34,1.34,0,0,1,1.87-.41l.76.48A11.45,11.45,0,0,0,700.22,965.14Z" transform="translate(-313.06 -220.97)"/><path class="cls-20" d="M715.62,923l5.9-2.81,5.88-11.89,6.28,3.11L727.8,923.3l4.1,7-10.85,12.4a2.2,2.2,0,0,1-3,.26l0,0a2.21,2.21,0,0,1-.39-3l.41-.55-1.18.29A1.75,1.75,0,0,1,715,939v0a1.76,1.76,0,0,1,.08-2.13l.39-.46-.49.22a1.71,1.71,0,0,1-2.14-.63l0,0a1.71,1.71,0,0,1,0-1.77l.72-1.24-.24.11a1.49,1.49,0,0,1-1.74-.36v0a1.48,1.48,0,0,1-.19-1.7Z" transform="translate(-313.06 -220.97)"/><path class="cls-3" d="M723.65,923.87h0a6.37,6.37,0,0,1-2.61-8.62l63.67-118.88a6.37,6.37,0,0,1,8.62-2.61h0a6.37,6.37,0,0,1,2.61,8.62L732.26,921.26A6.36,6.36,0,0,1,723.65,923.87Z" transform="translate(-313.06 -220.97)"/><rect class="cls-21" x="402.04" y="958" width="179.29" height="252.52"/><rect class="cls-22" x="643.68" y="873.24" width="179.29" height="337.28"/><rect class="cls-23" x="880.71" y="788.97" width="179.29" height="421.55"/><rect class="cls-24" x="1120.05" y="683.65" width="179.29" height="526.87"/><path class="cls-3" d="M1620.45,398.27h0a6.36,6.36,0,0,0-8.66,2.49l-65.43,118.15a6.39,6.39,0,0,0,2.49,8.67h0a6.39,6.39,0,0,0,8.67-2.49l65.42-118.16A6.37,6.37,0,0,0,1620.45,398.27Z" transform="translate(-313.06 -220.97)"/><path class="cls-25" d="M1628.66,398.23l-6,3-1.34,2.8a3.58,3.58,0,0,1-4.74,1.71h0a3.59,3.59,0,0,1-1.73-4.79l1.3-2.74-4.36-7.08,10.77-12.95a2.25,2.25,0,0,1,3.1-.35l0,0a2.23,2.23,0,0,1,.47,3.07l-.4.58,1.2-.33a1.81,1.81,0,0,1,1.92.67v0a1.79,1.79,0,0,1,0,2.18l-.38.48.49-.24a1.75,1.75,0,0,1,2.21.6v0a1.71,1.71,0,0,1,.08,1.81l-.7,1.28.24-.11a1.52,1.52,0,0,1,1.79.32l0,0a1.54,1.54,0,0,1,.24,1.73Z" transform="translate(-313.06 -220.97)"/><rect class="cls-12" x="1575.83" y="257.17" width="6.49" height="168.47" transform="translate(-110.63 965.94) rotate(-43.76)"/><path class="cls-26" d="M1566.85,324l-6.82,10.4a99.38,99.38,0,0,1-35.75,32.84l-3.19,1.73a99.4,99.4,0,0,0-30.61,25.72l-8,10.05-11.23-30.82-28.15-10.3,7.24-9.16a99.33,99.33,0,0,1,32.11-26.57h0a99.2,99.2,0,0,0,36.23-32.18l8.75-12.83Z" transform="translate(-313.06 -220.97)"/><path class="cls-27" d="M1616.2,398.23l-4.36-7.08,3.29-12.37a1.79,1.79,0,0,1,2-1.3h0a1.79,1.79,0,0,1,1.47,2.07l-1.06,6.16a7.26,7.26,0,0,1,2.22,7.45C1618.5,397.82,1616.2,398.23,1616.2,398.23Z" transform="translate(-313.06 -220.97)"/><rect class="cls-28" x="1618.46" y="379.48" width="9.35" height="4.55" rx="2.25" transform="translate(170.24 1377.78) rotate(-60.11)"/><rect class="cls-29" x="1623.61" y="386.66" width="9.35" height="3.56" rx="1.76" transform="translate(165.87 1384.5) rotate(-60.06)"/><rect class="cls-30" x="1621.28" y="383.33" width="9.35" height="3.99" rx="1.98" transform="matrix(0.5, -0.87, 0.87, 0.5, 168, 1381.5)"/><rect class="cls-31" x="1626.97" y="389.81" width="7.3" height="2.75" rx="1.36" transform="translate(165.11 1388.33) rotate(-60.08)"/><path class="cls-3" d="M1491.77,517.38l39.66-3.9,23.26,3.72a6.41,6.41,0,0,1,5.34,5.49l1.14,8.65a350.61,350.61,0,0,1-5.92,118.92l-2.82,12.56h-75.59s-2.1-36.52,9.59-47.83l-.44-91.2A6.41,6.41,0,0,1,1491.77,517.38Z" transform="translate(-313.06 -220.97)"/><path class="cls-3" d="M1536,895.79v8.83h5.77v-4.41l3.89,4.41h14a3.42,3.42,0,0,0-3.42-3.42h-5.77l-1.87-5.41Z" transform="translate(-313.06 -220.97)"/><path class="cls-3" d="M1548.26,649.77l6.91,109.46-6.51,136.56H1536s-27.31-114-7.44-133.77l-29.4-112.19Z" transform="translate(-313.06 -220.97)"/><path class="cls-11" d="M1551.91,707.61c-11.92,12.83-23.6,32.75-27.28,39.25l-25.43-97,49.06-.06Z" transform="translate(-313.06 -220.97)"/><path class="cls-12" d="M1487.59,649.77l11.61-127.93,22.64-3.89h24.84s15.7,23.38,9.76,50.66-12,55.25-8.18,81.16Z" transform="translate(-313.06 -220.97)"/><path class="cls-3" d="M1552.25,477.78l8.29-3.55s9.2-5.94,1-12.72c0,0-.4,6-9.18,7.25s-20.69-4.23-22.83,3.68S1546,483.37,1552.25,477.78Z" transform="translate(-313.06 -220.97)"/><path class="cls-3" d="M1531.47,474.3s-4.47-1.91-7.57,5.15,7.67,24.27,4.48,31.34c0,0,18.28-5.15,22.2-11.57s7.35-21.38-4.37-22.53S1531.47,474.3,1531.47,474.3Z" transform="translate(-313.06 -220.97)"/><polygon class="cls-32" points="1250.92 289.57 1238.84 291.18 1229.61 309.32 1207.75 298.46 1226.99 270.24 1250.92 289.57"/><path class="cls-12" d="M1560.54,474.23s3.92,6.18,3.73,7.69-.9,2.69-.68,3.35,4.14,6.16,5.76,8.45a1.31,1.31,0,0,1-.38,1.89,9.92,9.92,0,0,1-1.9.77c-1.7.54-.9,3.95-.9,3.95l.91,7.59a2.3,2.3,0,0,1-2.14,2.57c-5.6.35-19.11.81-21.1-2.81-2.52-4.58-1.72-14.49-1.72-14.49l-3.44-1.64a2.41,2.41,0,0,1-1.08-3.32l0,0a2.41,2.41,0,0,1,3.09-1.05l3.77,1.67.63,5.28a2.07,2.07,0,0,0,2.29,1.81h0a2,2,0,0,0,1.8-1.93l-1.53-12.36-4.81-5.27Z" transform="translate(-313.06 -220.97)"/><path class="cls-12" d="M1565.73,497.16l1.29,2.26a.46.46,0,0,1-.07.54l-.52.56s1.18,1.14.35,2.06-1.56,1.8-1.56,1.8Z" transform="translate(-313.06 -220.97)"/><path class="cls-3" d="M1561.75,484s-4,.49-5.4,2.24a17.52,17.52,0,0,0,4.36.82C1562.06,486.91,1561.75,484,1561.75,484Z" transform="translate(-313.06 -220.97)"/><path class="cls-3" d="M1478.55,895.79v8.83h5.77v-4.41l3.89,4.41h14a3.42,3.42,0,0,0-3.42-3.42H1493l-1.88-5.41Z" transform="translate(-313.06 -220.97)"/><path class="cls-14" d="M1523,516.17s12.21,11.83,19.92,11.89c0,0-.38,8.4-9.33,8.69L1521.31,518Z" transform="translate(-313.06 -220.97)"/><path class="cls-14" d="M1547,524.63l-1.45,2.77s3.22,1.55,2.94,6.38C1548.5,533.78,1551.78,526,1547,524.63Z" transform="translate(-313.06 -220.97)"/><path class="cls-15" d="M1546.1,535.49a2.3,2.3,0,0,0,.71-.49c1.74-1.81.37-7.1-2.53-6.59,0,0-.8,5.36-4.78,7,0,0,.86.21,2,.36L1534,637.47l8.7,7.2,5.68-8Z" transform="translate(-313.06 -220.97)"/><path class="cls-3" d="M1541.17,649.83l-50,246h-12.61s-15-109,14.22-139.8c0,0-17.31-76.82-5.18-106.22Z" transform="translate(-313.06 -220.97)"/><path class="cls-3" d="M1521.11,516.85h0A297.63,297.63,0,0,1,1520,628.08l-6.43,32h-32.85L1495.11,521Z" transform="translate(-313.06 -220.97)"/><path class="cls-16" d="M1520.62,618l-9-73.43,9.16-1.31-9-4.23,7.38-21.21v0l.58,3.26A287.66,287.66,0,0,1,1520.62,618Z" transform="translate(-313.06 -220.97)"/><path class="cls-33" d="M1434,654.77l-3.3,11.57a1.84,1.84,0,0,1-2.22,1.29h0a1.86,1.86,0,0,1-1.39-2.14l1.16-6.26Z" transform="translate(-313.06 -220.97)"/><path class="cls-3" d="M1425,679.08l-22.39-14.28,7.25-11.38a4.92,4.92,0,0,1,6.78-1.5l14.11,9a4.92,4.92,0,0,1,1.5,6.79Zm-18.14-15.22,17.2,11,5.59-8.77a1.83,1.83,0,0,0-.55-2.53l-14.11-9a1.84,1.84,0,0,0-2.53.56Z" transform="translate(-313.06 -220.97)"/><rect class="cls-18" x="1371.49" y="662.78" width="63.19" height="51.84" rx="2.37" transform="translate(277.43 -867.42) rotate(32.53)"/><path class="cls-3" d="M1442.69,685.37l-5.5,8.63h0A50.93,50.93,0,0,1,1384,660l0-.09,5.42-8.49a1.83,1.83,0,0,1,2.52-.56l50.2,32A1.83,1.83,0,0,1,1442.69,685.37Z" transform="translate(-313.06 -220.97)"/><path class="cls-11" d="M1414.26,726.56h0a1.82,1.82,0,0,1-.56-2.51l25.92-40.64a1.81,1.81,0,0,1,2.51-.55h0a1.82,1.82,0,0,1,.56,2.51L1416.77,726A1.81,1.81,0,0,1,1414.26,726.56Z" transform="translate(-313.06 -220.97)"/><rect class="cls-19" x="1396.93" y="681.87" width="9.83" height="6.78" rx="1.77" transform="translate(275.39 -867.3) rotate(32.53)"/><rect class="cls-12" x="1396.54" y="681.62" width="9.83" height="6.78" rx="1.77" transform="translate(275.19 -867.12) rotate(32.53)"/><path class="cls-11" d="M1402.31,689.58l-5.68-3.63a1.36,1.36,0,0,1-.42-1.87l2.19-3.43a1.36,1.36,0,0,1,1.87-.41l.76.48A11.47,11.47,0,0,0,1402.31,689.58Z" transform="translate(-313.06 -220.97)"/><path class="cls-34" d="M1417.71,647.43l5.9-2.81,5.88-11.89,6.29,3.11-5.88,11.89,4.09,7-10.84,12.4a2.2,2.2,0,0,1-3,.27l0,0a2.21,2.21,0,0,1-.38-3l.41-.55-1.19.29a1.78,1.78,0,0,1-1.86-.7v0a1.76,1.76,0,0,1,.09-2.14l.38-.46-.49.23a1.7,1.7,0,0,1-2.14-.64v0a1.68,1.68,0,0,1,0-1.77l.72-1.24-.24.11a1.5,1.5,0,0,1-1.74-.37h0a1.5,1.5,0,0,1-.19-1.7Z" transform="translate(-313.06 -220.97)"/><path class="cls-3" d="M1425.74,648.3h0a6.36,6.36,0,0,1-2.61-8.61l63.68-118.89a6.36,6.36,0,0,1,8.61-2.61h0a6.37,6.37,0,0,1,2.61,8.62L1434.36,645.7A6.37,6.37,0,0,1,1425.74,648.3Z" transform="translate(-313.06 -220.97)"/><path class="cls-3" d="M1228,822.81h0a6.38,6.38,0,0,0,.88-9L1143.15,709.5a6.38,6.38,0,0,0-9-.88h0a6.38,6.38,0,0,0-.88,9l85.76,104.34A6.37,6.37,0,0,0,1228,822.81Z" transform="translate(-313.06 -220.97)"/><path class="cls-35" d="M1225,830.46l-.62-6.65-2.11-2.27a3.6,3.6,0,0,1,.16-5h0a3.58,3.58,0,0,1,5.09.16l2.07,2.21,8.19-1.44,8.08,14.78a2.27,2.27,0,0,1-.82,3l0,0a2.24,2.24,0,0,1-3-.7l-.39-.58-.14,1.23a1.8,1.8,0,0,1-1.32,1.54h0a1.81,1.81,0,0,1-2-.84l-.3-.53,0,.55a1.75,1.75,0,0,1-1.37,1.83h0a1.76,1.76,0,0,1-1.72-.6l-.93-1.12,0,.27a1.54,1.54,0,0,1-1,1.54h0a1.52,1.52,0,0,1-1.69-.42Z" transform="translate(-313.06 -220.97)"/><path class="cls-36" d="M1229.63,818.87l8.19-1.44,10.29,7.61a1.78,1.78,0,0,1,.46,2.36v0a1.78,1.78,0,0,1-2.46.6l-5.34-3.25a7.26,7.26,0,0,1-7.75-.69C1229.16,821.16,1229.63,818.87,1229.63,818.87Z" transform="translate(-313.06 -220.97)"/><rect class="cls-37" x="1240.12" y="826.72" width="4.55" height="9.35" rx="2.25" transform="matrix(0.78, -0.62, 0.62, 0.78, -560.7, 731.05)"/><rect class="cls-38" x="1232.51" y="829.04" width="3.56" height="9.35" rx="1.76" transform="translate(-563.72 728.77) rotate(-38.51)"/><rect class="cls-39" x="1236.03" y="828.02" width="3.99" height="9.35" rx="1.98" transform="translate(-562.42 729.08) rotate(-38.44)"/><rect class="cls-40" x="1229.49" y="831.22" width="2.75" height="7.3" rx="1.36" transform="translate(-565.33 725.09) rotate(-38.44)"/><path class="cls-3" d="M1084.87,706.24l32.87-3.92L1136,705.8a13.89,13.89,0,0,1,11.19,12h0A363.94,363.94,0,0,1,1141,841.24l-2.29,10.2h-75.48s-2.1-36.46,9.58-47.76l-.19-83.61A13.89,13.89,0,0,1,1084.87,706.24Z" transform="translate(-313.06 -220.97)"/><path class="cls-3" d="M1008,1077.71l-3.07,8.26,5.41,2,1.53-4.13,2.11,5.48,13.12,4.88h0a3.41,3.41,0,0,0-2-4.39l-5.4-2,.12-5.71Z" transform="translate(-313.06 -220.97)"/><path class="cls-3" d="M1129.27,867l-43.35,98.16-66.2,116.88-11.81-4.39s29.31-113.79,53.71-123.51l20.53-99.34Z" transform="translate(-313.06 -220.97)"/><polygon class="cls-11" points="816.21 646.05 784.19 718.54 760.4 675.9 769.09 633.84 816.21 646.05"/><path class="cls-12" d="M1074,838.42l11.6-127.75,22.61-3.88H1133s15.68,23.34,9.75,50.58-12,55.17-8.17,81Z" transform="translate(-313.06 -220.97)"/><path class="cls-3" d="M1113.74,666.32h0a11.75,11.75,0,0,1,10.65-10.74l17.19-1.56a7.4,7.4,0,0,1,7.24,10.78l-1.79,3.43Z" transform="translate(-313.06 -220.97)"/><path class="cls-3" d="M1117.33,663.88s-4.47-1.91-7.56,5.15,7.66,24.27,4.47,31.35c0,0,18.29-5.15,22.2-11.57s7.35-21.38-4.37-22.53S1117.33,663.88,1117.33,663.88Z" transform="translate(-313.06 -220.97)"/><polygon class="cls-41" points="836.78 479.16 824.7 480.77 815.47 498.91 793.61 488.05 812.85 459.83 836.78 479.16"/><path class="cls-12" d="M1146.4,663.82s3.92,6.18,3.74,7.69-.91,2.69-.69,3.34,4.14,6.17,5.76,8.46a1.31,1.31,0,0,1-.38,1.89,10.61,10.61,0,0,1-1.9.77c-1.7.54-.89,3.95-.89,3.95l.9,7.59a2.3,2.3,0,0,1-2.14,2.57c-5.6.35-19.11.81-21.1-2.81-2.52-4.58-1.72-14.5-1.72-14.5l-3.44-1.63a2.41,2.41,0,0,1-1.08-3.32l0,0a2.39,2.39,0,0,1,3.08-1l3.77,1.66.63,5.29a2.06,2.06,0,0,0,2.29,1.8h0a2,2,0,0,0,1.81-1.93l-1.53-12.37-4.82-5.26Z" transform="translate(-313.06 -220.97)"/><path class="cls-12" d="M1151.59,686.75l1.29,2.25a.48.48,0,0,1-.06.55l-.53.56s1.18,1.13.35,2-1.56,1.81-1.56,1.81Z" transform="translate(-313.06 -220.97)"/><path class="cls-3" d="M1147.61,673.54s-4,.49-5.4,2.24a17.52,17.52,0,0,0,4.36.82C1147.92,676.49,1147.61,673.54,1147.61,673.54Z" transform="translate(-313.06 -220.97)"/><path class="cls-14" d="M1109.33,705s12.19,11.81,19.9,11.87c0,0-.39,8.39-9.33,8.68l-12.26-18.77Z" transform="translate(-313.06 -220.97)"/><path class="cls-14" d="M1133.29,713.45l-1.44,2.77s3.22,1.55,2.94,6.37C1134.79,722.59,1138.06,714.78,1133.29,713.45Z" transform="translate(-313.06 -220.97)"/><path class="cls-15" d="M1132.39,724.3a2.43,2.43,0,0,0,.71-.49c1.74-1.81.36-7.09-2.53-6.58,0,0-.8,5.35-4.78,7,0,0,.87.21,2,.36l-7.52,101.52,8.7,7.19,5.67-7.94Z" transform="translate(-313.06 -220.97)"/><path class="cls-3" d="M1107.44,705.68h0a297.2,297.2,0,0,1-1.12,111.07l-6.42,32h-32.8l14.37-139Z" transform="translate(-313.06 -220.97)"/><path class="cls-16" d="M1106.94,806.69l-9-73.33,9.14-1.3-8.93-4.22,7.37-21.18h0l.58,3.26A287.36,287.36,0,0,1,1106.94,806.69Z" transform="translate(-313.06 -220.97)"/><path class="cls-42" d="M1022.32,845.91l-3.3,11.57a1.87,1.87,0,0,1-2.23,1.3h0a1.86,1.86,0,0,1-1.39-2.14l1.16-6.26Z" transform="translate(-313.06 -220.97)"/><path class="cls-3" d="M1013.29,870.22,990.9,855.94l7.25-11.37a4.92,4.92,0,0,1,6.78-1.5l14.11,9a4.91,4.91,0,0,1,1.5,6.78ZM995.15,855l17.2,11,5.59-8.78a1.83,1.83,0,0,0-.56-2.52l-14.11-9a1.82,1.82,0,0,0-2.52.56Z" transform="translate(-313.06 -220.97)"/><rect class="cls-18" x="959.82" y="853.92" width="63.19" height="51.84" rx="2.37" transform="translate(315.63 -616.06) rotate(32.53)"/><path class="cls-3" d="M1031,876.52l-5.5,8.62h0a50.92,50.92,0,0,1-53.17-34l0-.09,5.41-8.5a1.82,1.82,0,0,1,2.52-.55l50.21,32A1.83,1.83,0,0,1,1031,876.52Z" transform="translate(-313.06 -220.97)"/><path class="cls-11" d="M1002.58,917.71h0a1.83,1.83,0,0,1-.55-2.52L1028,874.56a1.82,1.82,0,0,1,2.51-.56h0a1.83,1.83,0,0,1,.56,2.52l-25.92,40.63A1.83,1.83,0,0,1,1002.58,917.71Z" transform="translate(-313.06 -220.97)"/><rect class="cls-19" x="985.26" y="873.02" width="9.83" height="6.78" rx="1.77" transform="translate(313.58 -615.93) rotate(32.53)"/><rect class="cls-12" x="984.86" y="872.76" width="9.83" height="6.78" rx="1.77" transform="translate(313.38 -615.75) rotate(32.53)"/><path class="cls-11" d="M990.64,880.72,985,877.1a1.35,1.35,0,0,1-.42-1.88l2.19-3.43a1.36,1.36,0,0,1,1.87-.41l.76.49A11.45,11.45,0,0,0,990.64,880.72Z" transform="translate(-313.06 -220.97)"/><path class="cls-43" d="M1006,838.58l5.9-2.82,5.88-11.88,6.28,3.11-5.88,11.88,4.1,7-10.85,12.41a2.2,2.2,0,0,1-3,.26l0,0a2.2,2.2,0,0,1-.39-3l.41-.55-1.18.29a1.74,1.74,0,0,1-1.86-.7v0a1.76,1.76,0,0,1,.08-2.13l.39-.46-.49.22a1.71,1.71,0,0,1-2.14-.63l0,0a1.71,1.71,0,0,1,0-1.77l.72-1.24-.24.11a1.49,1.49,0,0,1-1.74-.36v0a1.48,1.48,0,0,1-.19-1.7Z" transform="translate(-313.06 -220.97)"/><path class="cls-3" d="M1014.07,839.45h0a6.37,6.37,0,0,1-2.61-8.62l63.67-118.89a6.37,6.37,0,0,1,8.62-2.6h0a6.37,6.37,0,0,1,2.61,8.62l-63.68,118.88A6.36,6.36,0,0,1,1014.07,839.45Z" transform="translate(-313.06 -220.97)"/><path class="cls-3" d="M1163.67,1034.4l-1.23,8.72,5.71.81.61-4.36,3.23,4.9,13.86,2h0a3.41,3.41,0,0,0-2.9-3.85l-5.71-.81-1.1-5.61Z" transform="translate(-313.06 -220.97)"/><path class="cls-3" d="M1074,838.42h60.59l68.09,20.83a15.69,15.69,0,0,1,10.68,18.57l-37.18,158.34-12.47-1.76s-3.45-133.31,19.87-146.44l-79.24-16.79S1073.13,865.13,1074,838.42Z" transform="translate(-313.06 -220.97)"/><path class="cls-3" d="M593.87,1024.09h0a6.36,6.36,0,0,0,5.94-6.78l-8.93-134.77a6.38,6.38,0,0,0-6.78-5.94h0a6.38,6.38,0,0,0-5.94,6.79l8.93,134.76A6.38,6.38,0,0,0,593.87,1024.09Z" transform="translate(-313.06 -220.97)"/><path class="cls-44" d="M587,1028.57l3.37-5.77-.39-3.07a3.58,3.58,0,0,1,3.06-4h0a3.59,3.59,0,0,1,4.05,3.1l.38,3,7.51,3.6-2.05,16.71a2.25,2.25,0,0,1-2.42,2h0a2.25,2.25,0,0,1-2.06-2.33l0-.71-.84.93a1.8,1.8,0,0,1-2,.48h0a1.82,1.82,0,0,1-1.16-1.86l.06-.61-.28.47a1.75,1.75,0,0,1-2.18.7l0,0a1.71,1.71,0,0,1-1-1.48l-.11-1.45-.13.23a1.55,1.55,0,0,1-1.69.69h0a1.54,1.54,0,0,1-1.14-1.33Z" transform="translate(-313.06 -220.97)"/><path class="cls-45" d="M597.46,1021.82l7.51,3.6,3.92,12.18a1.76,1.76,0,0,1-1,2.18l0,0a1.78,1.78,0,0,1-2.35-1l-2.44-5.75a7.26,7.26,0,0,1-5.9-5.07C595.76,1023.41,597.46,1021.82,597.46,1021.82Z" transform="translate(-313.06 -220.97)"/><rect class="cls-46" x="598.28" y="1034.76" width="4.55" height="9.35" rx="2.25" transform="translate(-363.28 -190.28) rotate(-2.81)"/><path class="cls-47" d="M592.36,1031.92h0a1.76,1.76,0,0,1,1.85,1.67l.28,5.83a1.76,1.76,0,0,1-1.67,1.85h0a1.76,1.76,0,0,1-1.85-1.67l-.29-5.83A1.77,1.77,0,0,1,592.36,1031.92Z" transform="translate(-313.06 -220.97)"/><rect class="cls-48" x="594.25" y="1033.27" width="3.99" height="9.35" rx="1.98" transform="translate(-364.15 -189.9) rotate(-2.86)"/><path class="cls-49" d="M589,1031.9h0a1.36,1.36,0,0,1,1.43,1.3l.22,4.56a1.35,1.35,0,0,1-1.29,1.43h0a1.36,1.36,0,0,1-1.43-1.29l-.22-4.57A1.36,1.36,0,0,1,589,1031.9Z" transform="translate(-313.06 -220.97)"/><path class="cls-3" d="M523.59,875.61l39.65-3.9,23.27,3.72a6.41,6.41,0,0,1,5.34,5.49l1.14,8.65a350.36,350.36,0,0,1-5.93,118.92l-2.81,12.56H508.66s-2.11-36.52,9.59-47.83l-.44-91.2A6.41,6.41,0,0,1,523.59,875.61Z" transform="translate(-313.06 -220.97)"/><path class="cls-3" d="M567.86,1254v8.83h5.77v-4.41l3.89,4.41h14a3.42,3.42,0,0,0-3.42-3.42h-5.77l-1.88-5.41Z" transform="translate(-313.06 -220.97)"/><path class="cls-3" d="M580.08,1008,587,1117.46,580.47,1254H567.86s-27.31-114-7.44-133.77L531,1008.06Z" transform="translate(-313.06 -220.97)"/><path class="cls-11" d="M583.73,1065.84c-11.92,12.83-23.6,32.75-27.28,39.25l-25.43-97,49.06-.06Z" transform="translate(-313.06 -220.97)"/><path class="cls-12" d="M519.4,1008,531,880.07l22.64-3.89H578.5s15.7,23.38,9.76,50.66-12,55.25-8.18,81.16Z" transform="translate(-313.06 -220.97)"/><path class="cls-3" d="M553.42,837.59s-1.61-9,1-12.94c0,0,5.9-.74,8.87,3.18a11.93,11.93,0,0,1,3.29-9.21s6.48-.17,9,4.8a16.92,16.92,0,0,1,6.61-6.59s12,10.86,2,17.42S553.42,837.59,553.42,837.59Z" transform="translate(-313.06 -220.97)"/><path class="cls-3" d="M555,835.1s-4.73-1.14-6.61,6.34,11.59,22.66,9.62,30.17c0,0,17.18-8.12,20-15.1s3.69-22.3-8.06-21.49S555,835.1,555,835.1Z" transform="translate(-313.06 -220.97)"/><polygon class="cls-50" points="280.06 644.48 268.41 648.07 262.32 667.49 238.96 660.41 253.25 629.39 280.06 644.48"/><path class="cls-12" d="M583.7,830.21s4.88,5.45,4.95,7-.44,2.81-.11,3.42,5.1,5.39,7.08,7.38a1.32,1.32,0,0,1-.07,1.93,9.71,9.71,0,0,1-1.74,1.07c-1.59.82-.22,4-.22,4l2.14,7.33a2.29,2.29,0,0,1-1.68,2.89c-5.46,1.28-18.7,4-21.27.73-3.25-4.1-4.11-14-4.11-14l-3.65-1a2.4,2.4,0,0,1-1.62-3.09l0-.05a2.4,2.4,0,0,1,2.86-1.55l4,1,1.5,5.11a2.06,2.06,0,0,0,2.56,1.4h0a2,2,0,0,0,1.45-2.2l-3.56-11.94-5.62-4.39Z" transform="translate(-313.06 -220.97)"/><path class="cls-12" d="M592.62,852l1.64,2a.47.47,0,0,1,0,.55l-.42.64s1.35.92.68,2-1.23,2-1.23,2Z" transform="translate(-313.06 -220.97)"/><path class="cls-3" d="M586.5,839.6s-3.82,1.14-5,3.11a17.68,17.68,0,0,0,4.43.08C587.29,842.46,586.5,839.6,586.5,839.6Z" transform="translate(-313.06 -220.97)"/><path class="cls-3" d="M510.37,1254v8.83h5.77v-4.41l3.89,4.41h14a3.42,3.42,0,0,0-3.42-3.42h-5.77L523,1254Z" transform="translate(-313.06 -220.97)"/><path class="cls-14" d="M554.83,874.4s12.2,11.83,19.92,11.88c0,0-.39,8.41-9.34,8.7l-12.28-18.8Z" transform="translate(-313.06 -220.97)"/><path class="cls-14" d="M578.82,882.85l-1.44,2.78s3.22,1.55,2.94,6.38C580.32,892,583.59,884.19,578.82,882.85Z" transform="translate(-313.06 -220.97)"/><path class="cls-15" d="M577.92,893.72a2.43,2.43,0,0,0,.71-.49c1.74-1.81.36-7.1-2.53-6.59,0,0-.8,5.36-4.79,7,0,0,.87.21,2,.36L565.79,995.7l8.71,7.19,5.68-7.95Z" transform="translate(-313.06 -220.97)"/><path class="cls-3" d="M573,1008.06l-50,246H510.37s-15-109,14.22-139.8c0,0-17.31-76.82-5.19-106.22Z" transform="translate(-313.06 -220.97)"/><path class="cls-3" d="M552.93,875.07h0a297.69,297.69,0,0,1-1.12,111.24l-6.43,32.05H512.53l14.39-139.18Z" transform="translate(-313.06 -220.97)"/><path class="cls-16" d="M552.44,976.23l-9-73.44,9.16-1.3-9-4.23L551,876.05v0l.58,3.26A287.92,287.92,0,0,1,552.44,976.23Z" transform="translate(-313.06 -220.97)"/><path class="cls-51" d="M505.8,1024.81l.18,12a1.86,1.86,0,0,1-1.76,1.89h0a1.87,1.87,0,0,1-1.95-1.65l-.7-6.33Z" transform="translate(-313.06 -220.97)"/><path class="cls-3" d="M504.17,1050.69l-25.56-7.21,3.66-13a4.92,4.92,0,0,1,6.06-3.4l16.11,4.54a4.92,4.92,0,0,1,3.39,6.06Zm-21.76-9.34,19.63,5.53,2.83-10a1.84,1.84,0,0,0-1.27-2.26l-16.11-4.54a1.82,1.82,0,0,0-2.25,1.26Z" transform="translate(-313.06 -220.97)"/><rect class="cls-18" x="454.42" y="1040.29" width="63.19" height="51.84" rx="2.37" transform="translate(-5.5 -312.84) rotate(15.74)"/><path class="cls-3" d="M523,1051.59l-2.78,9.85h0a50.92,50.92,0,0,1-60.73-17.22l0-.08,2.73-9.69a1.83,1.83,0,0,1,2.25-1.27l57.31,16.16A1.83,1.83,0,0,1,523,1051.59Z" transform="translate(-313.06 -220.97)"/><path class="cls-11" d="M507.64,1099.24h0a1.82,1.82,0,0,1-1.26-2.25l13.08-46.39a1.82,1.82,0,0,1,2.25-1.26h0a1.84,1.84,0,0,1,1.26,2.25L509.89,1098A1.83,1.83,0,0,1,507.64,1099.24Z" transform="translate(-313.06 -220.97)"/><rect class="cls-19" x="478.91" y="1059.89" width="9.83" height="6.78" rx="1.77" transform="translate(-6.37 -312.36) rotate(15.75)"/><rect class="cls-12" x="478.46" y="1059.77" width="9.83" height="6.78" rx="1.77" transform="translate(-6.42 -312.24) rotate(15.75)"/><path class="cls-11" d="M485.52,1067.28l-6.48-1.83a1.35,1.35,0,0,1-1-1.67l1.11-3.92a1.35,1.35,0,0,1,1.67-.93l.87.24A11.48,11.48,0,0,0,485.52,1067.28Z" transform="translate(-313.06 -220.97)"/><path class="cls-52" d="M488.09,1022.48l4.84-4.39,2.2-13.08,6.91,1.16-2.19,13.08,5.95,5.56-6.8,15a2.2,2.2,0,0,1-2.84,1.13h0a2.2,2.2,0,0,1-1.24-2.78l.23-.65-1,.62a1.77,1.77,0,0,1-2-.13l0,0a1.76,1.76,0,0,1-.53-2.07l.24-.55-.41.36a1.7,1.7,0,0,1-2.23,0l0,0a1.69,1.69,0,0,1-.55-1.69l.33-1.39-.2.18a1.51,1.51,0,0,1-1.77.15h0a1.5,1.5,0,0,1-.67-1.58Z" transform="translate(-313.06 -220.97)"/><path class="cls-3" d="M496,1021h0a6.38,6.38,0,0,1-5-7.5l26.63-132.21a6.36,6.36,0,0,1,7.49-5h0a6.37,6.37,0,0,1,5,7.5L503.53,1016A6.37,6.37,0,0,1,496,1021Z" transform="translate(-313.06 -220.97)"/><path class="cls-3" d="M1768.49,1190.15h0a6.38,6.38,0,0,1-4.46-7.84l35.76-130.23a6.37,6.37,0,0,1,7.84-4.46h0a6.38,6.38,0,0,1,4.46,7.83l-35.76,130.24A6.37,6.37,0,0,1,1768.49,1190.15Z" transform="translate(-313.06 -220.97)"/><path class="cls-53" d="M1774.34,1195.92l-2.15-6.33,1-2.93a3.59,3.59,0,0,0-2.2-4.54h0a3.59,3.59,0,0,0-4.59,2.22l-1,2.87-8.07,2L1756,1206a2.26,2.26,0,0,0,2,2.42h0a2.24,2.24,0,0,0,2.49-1.87l.11-.69.63,1.07a1.8,1.8,0,0,0,1.84.86h0a1.8,1.8,0,0,0,1.5-1.59l.06-.6.19.51a1.74,1.74,0,0,0,2,1.12h0a1.75,1.75,0,0,0,1.33-1.24l.39-1.41.09.26a1.54,1.54,0,0,0,1.51,1h0a1.52,1.52,0,0,0,1.39-1.07Z" transform="translate(-313.06 -220.97)"/><path class="cls-54" d="M1765.43,1187.21l-8.07,2-6.29,11.14a1.78,1.78,0,0,0,.54,2.34l0,0a1.78,1.78,0,0,0,2.49-.45l3.54-5.14a7.28,7.28,0,0,0,6.8-3.79C1766.79,1189.1,1765.43,1187.21,1765.43,1187.21Z" transform="translate(-313.06 -220.97)"/><rect class="cls-55" x="1786.19" y="1007.3" width="14.11" height="576.26" transform="translate(184.75 2867.71) rotate(-90)"/><rect class="cls-55" x="1786.19" y="906.13" width="14.11" height="576.26" transform="translate(285.93 2766.54) rotate(-90)"/><rect class="cls-55" x="1500.39" y="1238.58" width="101.17" height="12.54" transform="translate(-6.93 2574.86) rotate(-90)"/><rect class="cls-55" x="1581.15" y="1238.58" width="101.17" height="12.54" transform="translate(73.83 2655.62) rotate(-90)"/><rect class="cls-55" x="1661.9" y="1238.58" width="101.17" height="12.54" transform="translate(154.59 2736.37) rotate(-90)"/><rect class="cls-55" x="1742.66" y="1238.58" width="101.17" height="12.54" transform="translate(235.34 2817.13) rotate(-90)"/><rect class="cls-55" x="1823.42" y="1238.58" width="101.17" height="12.54" transform="translate(316.1 2897.88) rotate(-90)"/><rect class="cls-55" x="1904.17" y="1238.58" width="101.17" height="12.54" transform="translate(396.85 2978.64) rotate(-90)"/><rect class="cls-55" x="1984.93" y="1238.58" width="101.17" height="12.54" transform="translate(477.61 3059.39) rotate(-90)"/><path class="cls-3" d="M1861.31,1043.52l-32.86-3.92-18.22,3.48a13.9,13.9,0,0,0-11.2,12h0a364,364,0,0,0,6.16,123.47l2.28,10.2H1883s2.1-36.47-9.58-47.77l.19-83.61A13.91,13.91,0,0,0,1861.31,1043.52Z" transform="translate(-313.06 -220.97)"/><path class="cls-3" d="M1938.19,1415l3.07,8.27-5.4,2-1.54-4.13-2.1,5.48-13.13,4.88h0a3.43,3.43,0,0,1,2-4.39l5.41-2-.13-5.72Z" transform="translate(-313.06 -220.97)"/><path class="cls-3" d="M1816.92,1204.3l43.35,98.16,66.2,116.87,11.81-4.39s-29.31-113.79-53.72-123.51L1864,1192.1Z" transform="translate(-313.06 -220.97)"/><polygon class="cls-11" points="1503.86 983.33 1535.88 1055.82 1559.67 1013.18 1550.98 971.12 1503.86 983.33"/><path class="cls-12" d="M1872.23,1175.7,1860.63,1048l-22.61-3.88h-24.8s-15.68,23.34-9.75,50.58,12,55.18,8.17,81Z" transform="translate(-313.06 -220.97)"/><path class="cls-3" d="M1832.52,1002.16h0a11,11,0,0,0-9.7-8.84L1807,991.71a8,8,0,0,0-8.35,10.77l1.16,3.13Z" transform="translate(-313.06 -220.97)"/><path class="cls-56" d="M1828.85,1001.17s4.48-1.92,7.57,5.15-7.67,24.27-4.47,31.34c0,0-18.29-5.15-22.21-11.57s-7.34-21.38,4.38-22.53S1828.85,1001.17,1828.85,1001.17Z" transform="translate(-313.06 -220.97)"/><polygon class="cls-57" points="1483.28 816.44 1495.37 818.05 1504.6 836.19 1526.46 825.33 1507.22 797.11 1483.28 816.44"/><path class="cls-12" d="M1799.78,1001.1s-3.91,6.18-3.73,7.69.91,2.69.68,3.35-4.14,6.16-5.75,8.45a1.31,1.31,0,0,0,.38,1.89,10.21,10.21,0,0,0,1.89.77c1.7.54.9,4,.9,4l-.9,7.59a2.29,2.29,0,0,0,2.14,2.57c5.6.35,19.1.81,21.09-2.81,2.52-4.58,1.73-14.49,1.73-14.49l3.43-1.64a2.4,2.4,0,0,0,1.08-3.32l0,0a2.41,2.41,0,0,0-3.09-1l-3.77,1.66-.63,5.29a2.07,2.07,0,0,1-2.29,1.81h0a2,2,0,0,1-1.8-1.93l1.53-12.36,4.82-5.27Z" transform="translate(-313.06 -220.97)"/><path class="cls-12" d="M1794.59,1024l-1.28,2.26a.45.45,0,0,0,.06.54l.52.56s-1.18,1.13-.35,2.06,1.56,1.8,1.56,1.8Z" transform="translate(-313.06 -220.97)"/><path class="cls-3" d="M1798.57,1010.82s4,.49,5.41,2.24a17.52,17.52,0,0,1-4.36.82C1798.27,1013.78,1798.57,1010.82,1798.57,1010.82Z" transform="translate(-313.06 -220.97)"/><path class="cls-14" d="M1836.85,1042.29s-12.19,11.82-19.89,11.87c0,0,.38,8.39,9.32,8.68l12.27-18.77Z" transform="translate(-313.06 -220.97)"/><path class="cls-14" d="M1812.89,1050.73l1.44,2.77s-3.21,1.55-2.93,6.37C1811.4,1059.87,1808.13,1052.06,1812.89,1050.73Z" transform="translate(-313.06 -220.97)"/><path class="cls-15" d="M1813.79,1061.58a2.54,2.54,0,0,1-.71-.48c-1.73-1.81-.36-7.1,2.54-6.59,0,0,.79,5.36,4.77,7,0,0-.86.21-2,.36l7.52,101.53-8.69,7.18-5.67-7.94Z" transform="translate(-313.06 -220.97)"/><path class="cls-3" d="M1811.64,1175.7l-17.43,105.87-19.52,138.9,12.38,2.36s51.87-105.88,36-133.19c0,0,45.66-82.37,49.12-113.94Z" transform="translate(-313.06 -220.97)"/><path class="cls-3" d="M1787.07,1422.83l-1.66,8.66-5.66-1.08.83-4.33-4.65,3.6-13.75-2.64h0a3.41,3.41,0,0,1,4-2.7l5.66,1.08,2.85-5Z" transform="translate(-313.06 -220.97)"/><path class="cls-3" d="M1838.75,1043h0a297.2,297.2,0,0,0,1.12,111.07l6.42,32h32.8l-14.37-139Z" transform="translate(-313.06 -220.97)"/><path class="cls-16" d="M1839.24,1144l9-73.33-9.15-1.3,8.93-4.22-7.36-21.18v0l-.59,3.26A287.3,287.3,0,0,0,1839.24,1144Z" transform="translate(-313.06 -220.97)"/><path class="cls-58" d="M1923.86,1183.2l3.3,11.56a1.87,1.87,0,0,0,2.23,1.3h0a1.85,1.85,0,0,0,1.38-2.14l-1.15-6.26Z" transform="translate(-313.06 -220.97)"/><path class="cls-3" d="M1925.64,1196.13a4.92,4.92,0,0,1,1.5-6.78l14.11-9a4.93,4.93,0,0,1,6.79,1.5l7.25,11.37-22.39,14.28Zm19.8-12.62a1.84,1.84,0,0,0-2.53-.56l-14.11,9a1.83,1.83,0,0,0-.56,2.52l5.6,8.78,17.19-11Z" transform="translate(-313.06 -220.97)"/><rect class="cls-18" x="1923.17" y="1191.2" width="63.19" height="51.84" rx="2.37" transform="translate(3944.29 971.15) rotate(147.47)"/><path class="cls-3" d="M1915.17,1213.8l5.5,8.62h0a50.92,50.92,0,0,0,53.17-34l0-.09-5.42-8.49a1.83,1.83,0,0,0-2.52-.56l-50.21,32A1.83,1.83,0,0,0,1915.17,1213.8Z" transform="translate(-313.06 -220.97)"/><path class="cls-11" d="M1943.6,1255h0a1.82,1.82,0,0,0,.56-2.51l-25.92-40.64a1.83,1.83,0,0,0-2.52-.56h0a1.83,1.83,0,0,0-.55,2.52l25.92,40.63A1.82,1.82,0,0,0,1943.6,1255Z" transform="translate(-313.06 -220.97)"/><rect class="cls-19" x="1951.1" y="1210.3" width="9.83" height="6.78" rx="1.77" transform="matrix(-0.84, 0.54, -0.54, -0.84, 3944.74, 964.14)"/><rect class="cls-12" x="1951.5" y="1210.05" width="9.83" height="6.78" rx="1.77" transform="translate(3945.33 963.47) rotate(147.47)"/><path class="cls-11" d="M1955.54,1218l5.69-3.62a1.36,1.36,0,0,0,.42-1.87l-2.19-3.43a1.35,1.35,0,0,0-1.88-.41l-.75.48A11.42,11.42,0,0,1,1955.54,1218Z" transform="translate(-313.06 -220.97)"/><path class="cls-59" d="M1940.15,1175.86l-5.9-2.81-5.88-11.89-6.29,3.11,5.88,11.89-4.1,7,10.85,12.4a2.19,2.19,0,0,0,3,.26l0,0a2.2,2.2,0,0,0,.39-3l-.41-.56,1.18.29a1.74,1.74,0,0,0,1.86-.69l0,0a1.76,1.76,0,0,0-.09-2.13l-.38-.46.49.22a1.71,1.71,0,0,0,2.14-.63v0a1.7,1.7,0,0,0,0-1.78l-.72-1.24.24.11a1.48,1.48,0,0,0,1.74-.36l0,0a1.5,1.5,0,0,0,.19-1.7Z" transform="translate(-313.06 -220.97)"/><path class="cls-3" d="M1932.12,1176.73h0a6.37,6.37,0,0,0,2.6-8.62l-63.67-118.88a6.37,6.37,0,0,0-8.62-2.61h0a6.37,6.37,0,0,0-2.6,8.62l63.67,118.88A6.37,6.37,0,0,0,1932.12,1176.73Z" transform="translate(-313.06 -220.97)"/><rect class="cls-60" x="1754.2" y="1201.57" width="9.35" height="4.55" rx="2.25" transform="matrix(0.25, -0.97, 0.97, 0.25, -156.75, 2388.1)"/><path class="cls-61" d="M1768.41,1198.13h0a1.78,1.78,0,0,0-2.15,1.27l-1.45,5.65a1.76,1.76,0,0,0,1.27,2.14h0a1.75,1.75,0,0,0,2.14-1.27l1.45-5.65A1.76,1.76,0,0,0,1768.41,1198.13Z" transform="translate(-313.06 -220.97)"/><rect class="cls-62" x="1758.72" y="1201.25" width="9.35" height="3.99" rx="1.98" transform="translate(-153.26 2391.49) rotate(-75.62)"/><rect class="cls-63" x="1767.17" y="1200.95" width="7.3" height="2.75" rx="1.36" transform="translate(-146.81 2397.95) rotate(-75.61)"/><path class="cls-3" d="M1238.11,1050.3h0a6.37,6.37,0,0,1,6.32-6.41l134.86-.93a6.37,6.37,0,0,1,6.41,6.32h0a6.37,6.37,0,0,1-6.32,6.41l-134.86.93A6.35,6.35,0,0,1,1238.11,1050.3Z" transform="translate(-313.06 -220.97)"/><path class="cls-64" d="M1246.34,1050a3.4,3.4,0,0,0-3.39-3.15h-39.37a2,2,0,0,0-2,2v0a2,2,0,0,0,2,2h13.47l-1.88,4a2.89,2.89,0,0,0,2.22,4.1h0v0a3.3,3.3,0,0,0,4,3.09l1.87-.39,0,0a3,3,0,0,0,4.15-.22l1.35-1.46a3.6,3.6,0,0,0,1-2.46h0s8.07,1.37,10.33-4H1243a3.4,3.4,0,0,0,3.39-3.64Z" transform="translate(-313.06 -220.97)"/><path class="cls-65" d="M1231.55,1046.87l-14.21,7a2.54,2.54,0,0,0-1.25,3.2l0,0a2.55,2.55,0,0,0,3.39,1.4l6-2.64,6.63,2.15a5.91,5.91,0,0,0,6.9-2.57l1.07-1.77H1243a3.4,3.4,0,0,0,3.39-3.64h0a3.4,3.4,0,0,0-3.39-3.15Z" transform="translate(-313.06 -220.97)"/><path class="cls-3" d="M1427.54,1043.52l-32.86-3.92-18.22,3.48a13.9,13.9,0,0,0-11.2,12h0a364,364,0,0,0,6.16,123.47l2.28,10.2h75.49s2.1-36.47-9.58-47.77l.19-83.61A13.91,13.91,0,0,0,1427.54,1043.52Z" transform="translate(-313.06 -220.97)"/><path class="cls-3" d="M1504.42,1415l3.07,8.27-5.4,2-1.54-4.13-2.1,5.48-13.13,4.88h0a3.43,3.43,0,0,1,2-4.39l5.41-2-.13-5.72Z" transform="translate(-313.06 -220.97)"/><path class="cls-3" d="M1383.15,1204.3l43.35,98.16,66.2,116.87,11.81-4.39s-29.31-113.79-53.72-123.51l-20.53-99.33Z" transform="translate(-313.06 -220.97)"/><polygon class="cls-11" points="1070.09 983.33 1102.11 1055.82 1125.9 1013.18 1117.21 971.12 1070.09 983.33"/><path class="cls-12" d="M1438.46,1175.7,1426.86,1048l-22.61-3.88h-24.8s-15.68,23.34-9.75,50.58,12,55.18,8.17,81Z" transform="translate(-313.06 -220.97)"/><circle class="cls-3" cx="1075.36" cy="779.44" r="8.38"/><circle class="cls-3" cx="1086.46" cy="776.14" r="8.38"/><circle class="cls-3" cx="1097.85" cy="774.18" r="8.38"/><path class="cls-3" d="M1384.07,1000.48s-4.47-1.91-7.56,5.14,10.75,25.72,7.56,32.78c0,0,15.17-6.63,19.08-13s7.33-21.35-4.37-22.51S1384.07,1000.48,1384.07,1000.48Z" transform="translate(-313.06 -220.97)"/><polygon class="cls-66" points="1103.47 815.7 1091.4 817.3 1085.41 837.12 1065.09 832 1079.57 796.39 1103.47 815.7"/><path class="cls-12" d="M1413.09,1000.41s3.91,6.17,3.73,7.68-.91,2.69-.68,3.34,4.13,6.16,5.75,8.44a1.33,1.33,0,0,1-.38,1.89,10.81,10.81,0,0,1-1.89.77c-1.71.54-.9,4-.9,4l.9,7.57a2.3,2.3,0,0,1-2.14,2.57c-5.59.35-19.07.81-21.06-2.8-2.52-4.58-1.72-14.48-1.72-14.48l-3.43-1.63a2.4,2.4,0,0,1-1.08-3.32l0,0a2.4,2.4,0,0,1,3.08-1.05l3.77,1.66.63,5.28a2,2,0,0,0,2.28,1.8h0a2,2,0,0,0,1.8-1.93l-1.52-12.34-4.81-5.26Z" transform="translate(-313.06 -220.97)"/><path class="cls-12" d="M1418.28,1023.31l1.28,2.25a.47.47,0,0,1-.06.54l-.52.56s1.17,1.14.34,2.06-1.55,1.8-1.55,1.8Z" transform="translate(-313.06 -220.97)"/><path class="cls-3" d="M1414.3,1010.12s-4,.48-5.39,2.24a17.54,17.54,0,0,0,4.35.81C1414.61,1013.07,1414.3,1010.12,1414.3,1010.12Z" transform="translate(-313.06 -220.97)"/><path class="cls-14" d="M1403.08,1042.29s-12.19,11.82-19.89,11.87c0,0,.38,8.39,9.32,8.68l12.27-18.77Z" transform="translate(-313.06 -220.97)"/><path class="cls-14" d="M1379.12,1050.73l1.44,2.77s-3.21,1.55-2.93,6.37C1377.63,1059.87,1374.36,1052.06,1379.12,1050.73Z" transform="translate(-313.06 -220.97)"/><path class="cls-15" d="M1380,1061.58a2.4,2.4,0,0,1-.71-.48c-1.73-1.81-.36-7.1,2.54-6.59,0,0,.79,5.36,4.77,7,0,0-.86.21-2,.36l7.52,101.53-8.69,7.18-5.67-7.94Z" transform="translate(-313.06 -220.97)"/><path class="cls-3" d="M1377.87,1175.7l-17.43,105.87-19.52,138.9,12.38,2.36s51.87-105.88,36-133.19c0,0,45.66-82.37,49.12-113.94Z" transform="translate(-313.06 -220.97)"/><path class="cls-3" d="M1353.3,1422.83l-1.66,8.66-5.66-1.08.83-4.33-4.65,3.6-13.75-2.64h0a3.41,3.41,0,0,1,4-2.7l5.66,1.08,2.85-5Z" transform="translate(-313.06 -220.97)"/><path class="cls-3" d="M1405,1043h0A297.2,297.2,0,0,0,1406.1,1154l6.42,32h32.8l-14.37-139Z" transform="translate(-313.06 -220.97)"/><path class="cls-16" d="M1405.47,1144l9-73.33-9.14-1.3,8.93-4.22-7.36-21.18v0l-.59,3.26A287.3,287.3,0,0,0,1405.47,1144Z" transform="translate(-313.06 -220.97)"/><path class="cls-67" d="M1490.09,1183.2l3.3,11.56a1.87,1.87,0,0,0,2.23,1.3h0a1.85,1.85,0,0,0,1.38-2.14l-1.15-6.26Z" transform="translate(-313.06 -220.97)"/><path class="cls-3" d="M1491.87,1196.13a4.92,4.92,0,0,1,1.5-6.78l14.11-9a4.93,4.93,0,0,1,6.79,1.5l7.25,11.37-22.39,14.28Zm19.8-12.62a1.84,1.84,0,0,0-2.53-.56l-14.11,9a1.83,1.83,0,0,0-.56,2.52l5.6,8.78,17.19-11Z" transform="translate(-313.06 -220.97)"/><rect class="cls-18" x="1489.4" y="1191.2" width="63.19" height="51.84" rx="2.37" transform="translate(3144.81 1204.41) rotate(147.47)"/><path class="cls-3" d="M1481.4,1213.8l5.5,8.62h0a50.92,50.92,0,0,0,53.17-34l0-.09-5.42-8.49a1.83,1.83,0,0,0-2.52-.56l-50.21,32A1.82,1.82,0,0,0,1481.4,1213.8Z" transform="translate(-313.06 -220.97)"/><path class="cls-11" d="M1509.83,1255h0a1.82,1.82,0,0,0,.56-2.51l-25.92-40.64a1.83,1.83,0,0,0-2.52-.56h0a1.83,1.83,0,0,0-.55,2.52l25.92,40.63A1.82,1.82,0,0,0,1509.83,1255Z" transform="translate(-313.06 -220.97)"/><rect class="cls-19" x="1517.33" y="1210.3" width="9.83" height="6.78" rx="1.77" transform="translate(3145.26 1197.39) rotate(147.47)"/><rect class="cls-12" x="1517.72" y="1210.05" width="9.83" height="6.78" rx="1.77" transform="matrix(-0.84, 0.54, -0.54, -0.84, 3145.85, 1196.72)"/><path class="cls-11" d="M1521.77,1218l5.69-3.62a1.36,1.36,0,0,0,.42-1.87l-2.19-3.43a1.35,1.35,0,0,0-1.88-.41l-.75.48A11.47,11.47,0,0,1,1521.77,1218Z" transform="translate(-313.06 -220.97)"/><path class="cls-68" d="M1506.38,1175.86l-5.9-2.81-5.88-11.89-6.29,3.11,5.88,11.89-4.1,7,10.85,12.4a2.19,2.19,0,0,0,3,.26l0,0a2.2,2.2,0,0,0,.39-3l-.41-.56,1.18.29a1.74,1.74,0,0,0,1.86-.69l0,0a1.76,1.76,0,0,0-.09-2.13l-.38-.46.49.22a1.71,1.71,0,0,0,2.14-.63v0a1.7,1.7,0,0,0,0-1.78l-.72-1.24.24.11a1.48,1.48,0,0,0,1.74-.36l0,0a1.5,1.5,0,0,0,.19-1.7Z" transform="translate(-313.06 -220.97)"/><path class="cls-3" d="M1498.35,1176.73h0a6.37,6.37,0,0,0,2.6-8.62l-63.67-118.88a6.37,6.37,0,0,0-8.62-2.61h0a6.37,6.37,0,0,0-2.6,8.62l63.67,118.88A6.37,6.37,0,0,0,1498.35,1176.73Z" transform="translate(-313.06 -220.97)"/><polygon class="cls-12" points="1793.95 297.27 1771.81 297.27 1796.43 227.26 1818.57 227.26 1793.95 297.27"/><path class="cls-12" d="M2083.06,452.38c-11.71,0-25.27,90.86-25.27,102.58s13.56-60.15,25.27-60.15a21.22,21.22,0,1,0,0-42.43Zm0,30.8a9.58,9.58,0,1,1,9.59-9.58A9.58,9.58,0,0,1,2083.06,483.18Z" transform="translate(-313.06 -220.97)"/><path class="cls-12" d="M2131.63,475.81A21.22,21.22,0,1,0,2152.84,497,21.22,21.22,0,0,0,2131.63,475.81Zm0,30.8a9.59,9.59,0,1,1,9.58-9.58A9.58,9.58,0,0,1,2131.63,506.61Z" transform="translate(-313.06 -220.97)"/><g class="cls-69"><path class="cls-12" d="M2064.91,335.38h0c-1.62,0-7,80.05-7,78.43V386.37c0-1.62,5.37-84.29,7-84.29h0a2.93,2.93,0,0,1,2.93,2.93v27.44A2.93,2.93,0,0,1,2064.91,335.38Z" transform="translate(-313.06 -220.97)"/></g></svg>