<svg id="image" xmlns="http://www.w3.org/2000/svg" viewBox="0 0 2109.26 1813.69"><defs><style>.cls-1{fill:#e6f2ff;}.cls-1,.cls-13,.cls-17,.cls-19,.cls-20,.cls-3,.cls-6,.cls-9{fill-rule:evenodd;}.cls-2{fill:#557aed;}.cls-3{fill:#81b9eb;}.cls-4{fill:#e3735a;}.cls-5{fill:#ba5e4a;}.cls-6,.cls-8{fill:#223a7a;}.cls-7{fill:#a8d6ff;}.cls-11,.cls-16,.cls-17,.cls-18,.cls-19,.cls-20,.cls-9{fill:none;stroke-linecap:round;}.cls-11,.cls-9{stroke:#223a7a;stroke-width:7.04px;}.cls-11,.cls-17,.cls-18,.cls-9{stroke-miterlimit:10;}.cls-10{fill:#ff5d17;}.cls-12,.cls-13{fill:#fff;}.cls-14{fill:#4f71dd;}.cls-15{fill:#587ff5;}.cls-16,.cls-19{stroke:#ab4a35;stroke-width:5.53px;}.cls-16,.cls-19,.cls-20{stroke-linejoin:round;}.cls-17,.cls-18{stroke:#7e9cfc;stroke-width:4.69px;}.cls-20{stroke:#fff;stroke-width:5.89px;}</style></defs><title>contact us</title><path class="cls-1" d="M1728.23,2097.8s-382.56-243-159-667.82,346.6-171.45,578.25-663.35,942.18-324.82,922.31,240.06,621.09,783.5,357.75,992.19S2244.95,2479.95,1728.23,2097.8Z" transform="translate(-1381.91 -475.88)"/><ellipse class="cls-2" cx="1060.66" cy="679.09" rx="52.4" ry="58.66"/><path class="cls-3" d="M2300.08,1686.94s111.28-577.2,617.15-529.12c323.41,30.74,543.29,920.52-81.38,940C1589,2136.64,2068.84,2078.34,2300.08,1686.94Z" transform="translate(-1381.91 -475.88)"/><path class="cls-4" d="M2327.36,1938.81h0a69,69,0,0,1-51.31-82.73l84.06-358.71a69,69,0,0,1,82.73-51.31h0a69,69,0,0,1,51.31,82.73l-84.06,358.71A69,69,0,0,1,2327.36,1938.81Z" transform="translate(-1381.91 -475.88)"/><polygon class="cls-5" points="933.76 1211.65 1047.82 1327.81 1075.46 1218.67 933.76 1211.65"/><path class="cls-4" d="M1943.9,1983.46l350.63-164.73,114.13,74.55s-19,104.24-397.79,158.23Z" transform="translate(-1381.91 -475.88)"/><path class="cls-6" d="M2472.26,1932c-52.3,52.47-167.47,110-167.27,163.39L2778.76,2108s32.86,7.07,78.29,0c43.69-6.79-42.09-225.55-42.09-225.55Z" transform="translate(-1381.91 -475.88)"/><rect class="cls-7" x="462.26" y="603.99" width="451.68" height="240.91" rx="69.21" ry="69.21"/><rect class="cls-8" x="300.92" y="422.42" width="578.58" height="157.08" rx="47.24" ry="47.24"/><path class="cls-9" d="M2130.65,1380.84h0a69.07,69.07,0,0,0,3.86-22.78V1255.57a69.21,69.21,0,0,0-69.21-69.21H1752a69.21,69.21,0,0,0-69.21,69.21v102.49a69.21,69.21,0,0,0,69.21,69.21h313.26l61.39,33.62a12.34,12.34,0,0,0,18-13.37Z" transform="translate(-1381.91 -475.88)"/><circle class="cls-10" cx="405.07" cy="828.89" r="57.19"/><line class="cls-11" x1="484.54" y1="798.65" x2="710.28" y2="798.65"/><line class="cls-11" x1="484.54" y1="860.76" x2="642.55" y2="860.76"/><path class="cls-12" d="M783.87,1593.23h589.58a23.41,23.41,0,0,1,23.41,23.41v15.51a0,0,0,0,1,0,0h-613a0,0,0,0,1,0,0v-38.92A0,0,0,0,1,783.87,1593.23Z"/><path class="cls-13" d="M2321.86,2108H1618.41l-234-461.22,15-20.52a32.51,32.51,0,0,1,26.24-13.31h656.65a25.56,25.56,0,0,1,23.05,15.38Z" transform="translate(-1381.91 -475.88)"/><path class="cls-6" d="M2291.27,2108H1587.81l-202.48-451.26a15.45,15.45,0,0,1,14.09-21.77H2069a15.45,15.45,0,0,1,14.09,9.12Z" transform="translate(-1381.91 -475.88)"/><path class="cls-13" d="M1859.8,1884.73c8.37,29.5-14.46,53.42-51,53.42s-72.92-23.92-81.29-53.42,14.46-53.42,51-53.42S1851.43,1855.23,1859.8,1884.73Z" transform="translate(-1381.91 -475.88)"/><circle class="cls-11" cx="937.48" cy="1614.8" r="9.62"/><line class="cls-11" x1="1238.88" y1="1612.69" x2="1290.77" y2="1612.69"/><line class="cls-11" x1="1316.72" y1="1612.69" x2="1368.62" y2="1612.69"/><path class="cls-14" d="M2795.59,1389.51Q2644.17,1434,2497.26,1376s-127.17,71.63-114.82,228.47c3.76,47.77,42.76,75.46,64.69,96.86,11.84,87.44,13.83,176.94-6.88,237.45-39.24,152.24,165.66,88.36,361.81,23.06,0,0,76-294.32,85.57-333.17C2924.36,1479.45,2795.59,1389.51,2795.59,1389.51Z" transform="translate(-1381.91 -475.88)"/><path class="cls-8" d="M2651.73,1025.34s67.8,73.88,41.17,129.24-36.63,110.72-72.81,89.4-50.21-261.29-50.21-261.29Z" transform="translate(-1381.91 -475.88)"/><path class="cls-4" d="M2643.19,1434l-9.12,2.08c-28,6.4-94.9-5-101.89-35.67,50.83-26.54,18.35-128.14-11.48-225.85-7-30.62,10.23-60.92,38.27-67.32l9.12-2.08c28-6.4,69.62,21.52,76.62,52.14,22.76,91.33,26,172.18,81.88,190.94C2733.58,1378.89,2671.24,1427.62,2643.19,1434Z" transform="translate(-1381.91 -475.88)"/><path class="cls-4" d="M2788.89,1557.53l-411-37.84c0-57.63,20.71-171.12,154.68-174.58l174.85-1.24,108.29,25C2868.41,1368.89,2841.58,1557.56,2788.89,1557.53Z" transform="translate(-1381.91 -475.88)"/><path class="cls-5" d="M2547,1265.48s12.52-2.45,16.25-4.22,53.93-29.38,53.93-29.38-18.79,69-61,78.54C2556.21,1310.42,2549.51,1275.31,2547,1265.48Z" transform="translate(-1381.91 -475.88)"/><path class="cls-6" d="M2618.94,949s55.09-57.58,115.24-32.48,30.34,77.15,101.67,104.73c118.39,45.78,84.82,158.05,42.2,183.2-76.1,44.91-121.29,3.77-131.76-41s3.23-156.19-56.78-143.78S2611.85,1024.76,2618.94,949Z" transform="translate(-1381.91 -475.88)"/><path class="cls-4" d="M2506.65,1288c-29.06-16.12-55.34-59.85-60.44-107.42l-13.28-81.37c-6.56-61.14,32.12-115.89,86-121.66l5.38-.58c53.83-5.77,103.24,39.53,109.79,100.67l10.63,99.17c5.14,48-57,80.5-79.28,104.54C2554.15,1293.49,2514.94,1292.56,2506.65,1288Z" transform="translate(-1381.91 -475.88)"/><path class="cls-8" d="M2394.14,1067.24c-6.42,29.31,29.13,48.39,50.71,27.54,10.14-9.79,22.34-16.27,32.46-23.58,59.08-42.7,128.55-14.47,122.91-36.23l-63.88-72.46s-54.94-33.15-105.06,26.56C2410.94,1013.29,2399.87,1041.06,2394.14,1067.24Z" transform="translate(-1381.91 -475.88)"/><path class="cls-6" d="M2507.85,953.81s69.69-56.53,153.42-.36,36,188.5,36,188.5-108.54-27.38-115.6-82.76-84.24-76.55-84.24-76.55Z" transform="translate(-1381.91 -475.88)"/><path class="cls-15" d="M2672.43,1148.55c-3.18,18.35-15.07,30.24-26.55,26.57s-18.2-21.52-15-39.86,15.07-30.24,26.55-26.57S2675.61,1130.21,2672.43,1148.55Z" transform="translate(-1381.91 -475.88)"/><path class="cls-8" d="M2456.16,1131.72a66.68,66.68,0,0,1,18.61-1.46,4.68,4.68,0,0,0,4.81-4.81v0a4.51,4.51,0,0,0-3.91-4.52,54.73,54.73,0,0,0-21.55,1.72,4.79,4.79,0,0,0-3.35,5.15v0A4.45,4.45,0,0,0,2456.16,1131.72Z" transform="translate(-1381.91 -475.88)"/><path class="cls-8" d="M2538.63,1124.45a117.76,117.76,0,0,1,24.77-1.8c3.48.12,6.47-2.18,6.48-4.9v0c0-2.32-2.17-4.23-5.12-4.45a96.45,96.45,0,0,0-28.69,2.11c-2.92.66-4.85,2.91-4.55,5.22v0C2531.89,1123.33,2535.16,1125.06,2538.63,1124.45Z" transform="translate(-1381.91 -475.88)"/><path class="cls-8" d="M2557.34,1148.52c.73,5.09-1.52,9.65-5,10.18s-6.94-3.17-7.66-8.26,1.52-9.65,5-10.18S2556.61,1143.42,2557.34,1148.52Z" transform="translate(-1381.91 -475.88)"/><path class="cls-8" d="M2475.46,1157.9c.73,5.09-1.52,9.65-5,10.18s-6.94-3.17-7.66-8.26,1.52-9.65,5-10.18S2474.73,1152.81,2475.46,1157.9Z" transform="translate(-1381.91 -475.88)"/><path class="cls-9" d="M2645,1141.91s1.74-19,12.43-15.88" transform="translate(-1381.91 -475.88)"/><path class="cls-2" d="M2558.33,1330.37s-26.7-12.69-39.2,7.94l-69.64,20.39a116.39,116.39,0,0,0-78,75.75L2305,1682.77c47.9,19,94.59,20.13,139.84,0Z" transform="translate(-1381.91 -475.88)"/><path class="cls-2" d="M2558.33,1330.37s-3.52,101.25,62.45,101.25,70.53-111.25,70.53-111.25l83.64,77.71,33.54,193.37,42.45,180.72v228.89H2438.86V1750.93s-88.42-57.9-57.24-169.55S2558.33,1330.37,2558.33,1330.37Z" transform="translate(-1381.91 -475.88)"/><path class="cls-4" d="M2922.51,1956.37h0a77.56,77.56,0,0,1-83.73-70.36l-30.39-350.12a77.56,77.56,0,0,1,70.36-83.73h0a77.56,77.56,0,0,1,83.73,70.36l30.39,350.12A77.56,77.56,0,0,1,2922.51,1956.37Z" transform="translate(-1381.91 -475.88)"/><path class="cls-11" d="M2569.88,1452.15s39.86,62.14,99.48,0" transform="translate(-1381.91 -475.88)"/><path class="cls-11" d="M2383.15,1645s-10.57-49,46.56-103.1c12.42-11.76,19.07-62.11,19.07-62.11" transform="translate(-1381.91 -475.88)"/><ellipse class="cls-2" cx="1068.83" cy="1297.93" rx="23.51" ry="32.3"/><ellipse class="cls-2" cx="1077.51" cy="1500.64" rx="42.65" ry="37.27"/><path class="cls-4" d="M2362.55,2069.11c-3.92,0,12.41-73.4,127.69-73.4,105.22,0,95.87,73.4,95.87,73.4Z" transform="translate(-1381.91 -475.88)"/><path class="cls-11" d="M2438.86,1750.93s-26.79,24.72,0,55.18v127.35s-28.39,23.57-22.09,43.06" transform="translate(-1381.91 -475.88)"/><path class="cls-11" d="M2513.51,1341s-1.6,15.59,8,25.22" transform="translate(-1381.91 -475.88)"/><polygon class="cls-5" points="1440.87 1219.08 1601.31 1285.52 1593.04 1190.23 1440.87 1219.08"/><path class="cls-2" d="M2691.31,1320.37s34.29-8.6,51.06,22.6l83.24,17.24a187.58,187.58,0,0,1,136,120.23l31.54,180.27c-65.91,20.34-127.14,49.84-174.73,31.72l-77.84-309.71Z" transform="translate(-1381.91 -475.88)"/><line class="cls-11" x1="1422.9" y1="1094.32" x2="1436.52" y2="1216.56"/><path class="cls-11" d="M2742.71,1340.43s-1.42,13.56-6.08,22.56" transform="translate(-1381.91 -475.88)"/><path class="cls-11" d="M1393.06,1635s9.57-22,32.61-22h656.65" transform="translate(-1381.91 -475.88)"/><path class="cls-16" d="M2503,1151.54s-5.53,24.25-9.66,37.89c-4.52,14.91,7.2,18.63,19.44,18" transform="translate(-1381.91 -475.88)"/><path class="cls-17" d="M2623.13,934.68s59.31,5,83,84.91" transform="translate(-1381.91 -475.88)"/><path class="cls-11" d="M2432.3,1090.18c1.24,0,138.89-6.25,153.84-74.28" transform="translate(-1381.91 -475.88)"/><path class="cls-11" d="M2775.36,972.84s29.42,32.3,75.57,26.5,102.47,70.66,56.92,121" transform="translate(-1381.91 -475.88)"/><path class="cls-16" d="M2375,2066.3l18.66-20.22c15-20.08,48.74-24.12,48.74-24.12" transform="translate(-1381.91 -475.88)"/><path class="cls-16" d="M2399.69,2066.3l26.6-19.25a87.94,87.94,0,0,1,46-16.53h0" transform="translate(-1381.91 -475.88)"/><path class="cls-16" d="M2280,1826.59s21.63-8.94,38.71,0" transform="translate(-1381.91 -475.88)"/><path class="cls-18" d="M2512.82,960.21s-63.95-7.45-101.83,98.13" transform="translate(-1381.91 -475.88)"/><path class="cls-18" d="M2594.47,1028.45s10.05,58.88,54.61,72.75" transform="translate(-1381.91 -475.88)"/><path class="cls-11" d="M2513.51,1339.75l-69.64,20.39a116.39,116.39,0,0,0-78,75.75l-66.52,248.31" transform="translate(-1381.91 -475.88)"/><circle class="cls-8" cx="1054.3" cy="911.57" r="6.37"/><circle class="cls-8" cx="1136.9" cy="911.57" r="6.37"/><circle class="cls-8" cx="1303.2" cy="911.57" r="6.37"/><circle class="cls-8" cx="1386.04" cy="911.57" r="6.37"/><circle class="cls-8" cx="1468.77" cy="911.57" r="6.37"/><circle class="cls-8" cx="1335.06" cy="867.99" r="6.37"/><circle class="cls-8" cx="1163.06" cy="874.36" r="6.37"/><circle class="cls-8" cx="1054.3" cy="993.9" r="6.37"/><circle class="cls-8" cx="1136.9" cy="993.9" r="6.37"/><circle class="cls-8" cx="1303.2" cy="993.9" r="6.37"/><circle class="cls-8" cx="1386.04" cy="993.9" r="6.37"/><circle class="cls-8" cx="1468.77" cy="993.9" r="6.37"/><circle class="cls-8" cx="1552" cy="993.9" r="6.37"/><circle class="cls-8" cx="1012.86" cy="953.78" r="6.37"/><circle class="cls-8" cx="1095.46" cy="953.78" r="6.37"/><circle class="cls-8" cx="1261.76" cy="958.08" r="6.37"/><circle class="cls-8" cx="1178.61" cy="953.78" r="6.37"/><circle class="cls-8" cx="1344.6" cy="953.78" r="6.37"/><circle class="cls-8" cx="1427.33" cy="953.78" r="6.37"/><circle class="cls-8" cx="1510.56" cy="953.78" r="6.37"/><circle class="cls-8" cx="1012.86" cy="1036.05" r="6.37"/><circle class="cls-8" cx="1095.46" cy="1036.05" r="6.37"/><circle class="cls-8" cx="1261.76" cy="1036.05" r="6.37"/><circle class="cls-8" cx="1178.61" cy="1036.05" r="6.37"/><circle class="cls-8" cx="1344.6" cy="1036.05" r="6.37"/><circle class="cls-8" cx="1427.33" cy="1036.05" r="6.37"/><circle class="cls-8" cx="1510.56" cy="1036.05" r="6.37"/><circle class="cls-8" cx="1012.86" cy="1118.96" r="6.37"/><circle class="cls-8" cx="1095.46" cy="1118.96" r="6.37"/><circle class="cls-8" cx="1261.76" cy="1118.96" r="6.37"/><circle class="cls-8" cx="1178.61" cy="1118.96" r="6.37"/><circle class="cls-8" cx="1344.6" cy="1118.96" r="6.37"/><circle class="cls-8" cx="1510.56" cy="1118.96" r="6.37"/><circle class="cls-8" cx="1593.66" cy="1118.96" r="6.37"/><circle class="cls-8" cx="1012.86" cy="1201.68" r="6.37"/><circle class="cls-8" cx="1095.46" cy="1201.68" r="6.37"/><circle class="cls-8" cx="1261.76" cy="1201.68" r="6.37"/><circle class="cls-8" cx="1178.61" cy="1201.68" r="6.37"/><circle class="cls-8" cx="1344.6" cy="1201.68" r="6.37"/><circle class="cls-8" cx="1510.56" cy="1201.68" r="6.37"/><circle class="cls-8" cx="1095.46" cy="1284.95" r="6.37"/><circle class="cls-8" cx="1261.76" cy="1284.95" r="6.37"/><circle class="cls-8" cx="1178.61" cy="1284.95" r="6.37"/><circle class="cls-8" cx="1344.6" cy="1284.95" r="6.37"/><circle class="cls-8" cx="1427.33" cy="1284.95" r="6.37"/><circle class="cls-8" cx="1095.46" cy="1367.91" r="6.37"/><circle class="cls-8" cx="1261.76" cy="1367.91" r="6.37"/><circle class="cls-8" cx="1178.61" cy="1367.91" r="6.37"/><circle class="cls-8" cx="1344.6" cy="1367.91" r="6.37"/><circle class="cls-8" cx="1427.33" cy="1367.91" r="6.37"/><circle class="cls-8" cx="1095.46" cy="1450.73" r="6.37"/><circle class="cls-8" cx="1261.76" cy="1450.73" r="6.37"/><circle class="cls-8" cx="1178.61" cy="1450.73" r="6.37"/><circle class="cls-8" cx="1054.3" cy="1076.24" r="6.37"/><circle class="cls-8" cx="970.71" cy="1076.24" r="6.37"/><circle class="cls-8" cx="1136.9" cy="1076.24" r="6.37"/><circle class="cls-8" cx="1303.2" cy="1076.24" r="6.37"/><circle class="cls-8" cx="1386.04" cy="1076.24" r="6.37"/><circle class="cls-8" cx="1220.05" cy="1076.24" r="6.37"/><circle class="cls-8" cx="1468.77" cy="1076.24" r="6.37"/><circle class="cls-8" cx="1552" cy="1076.24" r="6.37"/><circle class="cls-8" cx="1054.3" cy="1158.57" r="6.37"/><circle class="cls-8" cx="1136.9" cy="1158.57" r="6.37"/><circle class="cls-8" cx="1303.2" cy="1158.57" r="6.37"/><circle class="cls-8" cx="1220.05" cy="1158.57" r="6.37"/><circle class="cls-8" cx="970.71" cy="1158.57" r="6.37"/><circle class="cls-8" cx="1386.04" cy="1158.57" r="6.37"/><circle class="cls-8" cx="1468.77" cy="1158.57" r="6.37"/><circle class="cls-8" cx="1552" cy="1158.57" r="6.37"/><circle class="cls-8" cx="1054.3" cy="1244.78" r="6.37"/><circle class="cls-8" cx="1136.9" cy="1244.78" r="6.37"/><circle class="cls-8" cx="1303.2" cy="1244.78" r="6.37"/><circle class="cls-8" cx="1220.05" cy="1244.78" r="6.37"/><circle class="cls-8" cx="1386.04" cy="1244.78" r="6.37"/><circle class="cls-8" cx="1054.3" cy="1325.11" r="6.37"/><circle class="cls-8" cx="1136.9" cy="1325.11" r="6.37"/><circle class="cls-8" cx="1303.2" cy="1325.11" r="6.37"/><circle class="cls-8" cx="1220.05" cy="1325.11" r="6.37"/><circle class="cls-8" cx="1386.04" cy="1325.11" r="6.37"/><circle class="cls-8" cx="1136.9" cy="1410.72" r="6.37"/><circle class="cls-8" cx="1303.2" cy="1410.72" r="6.37"/><circle class="cls-8" cx="1220.05" cy="1410.72" r="6.37"/><circle class="cls-8" cx="1386.04" cy="1410.72" r="6.37"/><circle class="cls-8" cx="1054.3" cy="1490.74" r="6.37"/><circle class="cls-8" cx="1136.9" cy="1490.74" r="6.37"/><circle class="cls-8" cx="1220.05" cy="1490.74" r="6.37"/><path class="cls-4" d="M2539,2005.57l330.79-169.24,114.13,79.51s-19,99.28-397.79,153.27Z" transform="translate(-1381.91 -475.88)"/><path class="cls-19" d="M2835.85,1852.27s23.8-14.45,48.53-5.76" transform="translate(-1381.91 -475.88)"/><circle class="cls-11" cx="1773.72" cy="887.4" r="36.77"/><circle class="cls-11" cx="932.71" cy="1767.18" r="22.37"/><circle class="cls-11" cx="44.06" cy="974.82" r="22.37"/><polygon class="cls-9" points="814.21 341.19 803.48 255.49 879.5 290.99 814.21 341.19"/><ellipse class="cls-12" cx="1291.31" cy="671.04" rx="52.4" ry="58.66"/><path class="cls-13" d="M2649.08,1101.2s-21.43-165.77-162.64-147.87l57.33-24.75S2664.49,930,2685.11,1113Z" transform="translate(-1381.91 -475.88)"/><path class="cls-13" d="M2665.14,1157.9s-32,74.65-67.62,74.65l13.26,19.21s59-25.24,72.75-93.87Z" transform="translate(-1381.91 -475.88)"/><path class="cls-20" d="M1503.55,1920.24,1387.1,1660.72s-10.05-18.43,12.32-25.71" transform="translate(-1381.91 -475.88)"/><path class="cls-12" d="M1793.19,939.83l5,10.11a8.81,8.81,0,0,0,6.64,4.82l11.16,1.62a8.81,8.81,0,0,1,4.88,15l-8.08,7.87a8.81,8.81,0,0,0-2.53,7.8l1.91,11.12a8.81,8.81,0,0,1-12.79,9.29l-10-5.25a8.81,8.81,0,0,0-8.2,0l-10,5.25a8.81,8.81,0,0,1-12.79-9.29l1.91-11.12a8.81,8.81,0,0,0-2.53-7.8l-8.08-7.87a8.81,8.81,0,0,1,4.88-15l11.16-1.62a8.81,8.81,0,0,0,6.63-4.82l5-10.11A8.81,8.81,0,0,1,1793.19,939.83Z" transform="translate(-1381.91 -475.88)"/><path class="cls-12" d="M1886.6,939.83l5,10.11a8.81,8.81,0,0,0,6.63,4.82l11.16,1.62a8.81,8.81,0,0,1,4.88,15l-8.08,7.87a8.81,8.81,0,0,0-2.53,7.8l1.91,11.12a8.81,8.81,0,0,1-12.79,9.29l-10-5.25a8.81,8.81,0,0,0-8.2,0l-10,5.25a8.81,8.81,0,0,1-12.79-9.29l1.91-11.12a8.81,8.81,0,0,0-2.53-7.8l-8.08-7.87a8.81,8.81,0,0,1,4.88-15l11.16-1.62a8.81,8.81,0,0,0,6.63-4.82l5-10.11A8.81,8.81,0,0,1,1886.6,939.83Z" transform="translate(-1381.91 -475.88)"/><path class="cls-12" d="M1980,939.83l5,10.11a8.81,8.81,0,0,0,6.63,4.82l11.16,1.62a8.81,8.81,0,0,1,4.88,15l-8.08,7.87a8.81,8.81,0,0,0-2.53,7.8l1.91,11.12a8.81,8.81,0,0,1-12.79,9.29l-10-5.25a8.81,8.81,0,0,0-8.2,0l-10,5.25a8.81,8.81,0,0,1-12.79-9.29l1.91-11.12a8.81,8.81,0,0,0-2.53-7.8l-8.08-7.87a8.81,8.81,0,0,1,4.88-15l11.16-1.62a8.81,8.81,0,0,0,6.63-4.82l5-10.11A8.81,8.81,0,0,1,1980,939.83Z" transform="translate(-1381.91 -475.88)"/><path class="cls-12" d="M2073.43,939.83l5,10.11a8.81,8.81,0,0,0,6.64,4.82l11.16,1.62a8.81,8.81,0,0,1,4.88,15l-8.08,7.87a8.81,8.81,0,0,0-2.53,7.8l1.91,11.12a8.81,8.81,0,0,1-12.79,9.29l-10-5.25a8.81,8.81,0,0,0-8.2,0l-10,5.25a8.81,8.81,0,0,1-12.79-9.29l1.91-11.12a8.81,8.81,0,0,0-2.53-7.8l-8.08-7.87a8.81,8.81,0,0,1,4.88-15l11.16-1.62a8.81,8.81,0,0,0,6.63-4.82l5-10.11A8.81,8.81,0,0,1,2073.43,939.83Z" transform="translate(-1381.91 -475.88)"/><path class="cls-12" d="M2166.84,939.83l5,10.11a8.81,8.81,0,0,0,6.63,4.82l11.16,1.62a8.81,8.81,0,0,1,4.88,15l-8.08,7.87a8.81,8.81,0,0,0-2.53,7.8l1.91,11.12a8.81,8.81,0,0,1-12.79,9.29l-10-5.25a8.81,8.81,0,0,0-8.2,0l-10,5.25a8.81,8.81,0,0,1-12.79-9.29l1.91-11.12a8.81,8.81,0,0,0-2.53-7.8l-8.08-7.87a8.81,8.81,0,0,1,4.88-15l11.16-1.62a8.81,8.81,0,0,0,6.64-4.82l5-10.11A8.81,8.81,0,0,1,2166.84,939.83Z" transform="translate(-1381.91 -475.88)"/><path class="cls-13" d="M2497.52,1226.16l49.49-4.39s-3.9,35.13-24.75,34.64S2497.52,1226.16,2497.52,1226.16Z" transform="translate(-1381.91 -475.88)"/><ellipse class="cls-8" cx="2681.94" cy="1141.94" rx="28.89" ry="34.06" transform="translate(-1468.59 -245.82) rotate(-4.83)"/><path class="cls-9" d="M2643.41,1195.17s10.22,11.41,24.81,10.42" transform="translate(-1381.91 -475.88)"/><ellipse class="cls-8" cx="2592.17" cy="1246.18" rx="29.61" ry="22.96" transform="translate(-1560.15 -2.44) rotate(-10.09)"/><line class="cls-11" x1="117.23" y1="1632.33" x2="1674.72" y2="1632.33"/><path class="cls-10" d="M2998.6,1094.09c-.73-14.24,9.17-25.21,22.46-25.9s23.94,9.24,24.68,23.47-8.85,25.2-22.14,25.88S2999.33,1108.33,2998.6,1094.09ZM2997,938.76l-2.81-36,36.7-1.89.59,36.13.48,108.13-24.36,1.25Z" transform="translate(-1381.91 -475.88)"/><path class="cls-8" d="M3166,969.43c3.81-14.72-2.86-26.92-18.5-31-12.57-3.25-24.28.27-35.71,7.78l-14.95-23.17c17.54-12.15,39.41-18.27,62.41-12.33,31.9,8.25,50.38,31.68,41.73,65.1-10.07,38.95-61.48,40.38-67.42,81l-31-8C3107.74,1002.46,3158.88,997,3166,969.43Zm-82.28,123.34c3.57-13.8,16-21.38,28.88-18.05s20.38,16.07,16.81,29.87-16.31,21.3-29.19,18S3080.16,1106.57,3083.73,1092.77Z" transform="translate(-1381.91 -475.88)"/></svg>