<svg xmlns="http://www.w3.org/2000/svg" xmlns:xlink="http://www.w3.org/1999/xlink" viewBox="0 0 347.11 224.41"><defs><style>.cls-1{fill:none;}.cls-2,.cls-3{isolation:isolate;}.cls-3{fill:#3f72fc;opacity:0.18;}.cls-19,.cls-33,.cls-4,.cls-5,.cls-6,.cls-7,.cls-8,.cls-9{mix-blend-mode:multiply;}.cls-4{fill:url(#radial-gradient);}.cls-5{fill:url(#radial-gradient-2);}.cls-6{fill:url(#radial-gradient-3);}.cls-7{fill:url(#radial-gradient-4);}.cls-8{fill:url(#radial-gradient-5);}.cls-9{fill:url(#radial-gradient-6);}.cls-10{fill:url(#linear-gradient);}.cls-11{fill:url(#linear-gradient-2);}.cls-12{fill:url(#linear-gradient-3);}.cls-13{fill:url(#linear-gradient-4);}.cls-14{fill:#047987;}.cls-15{fill:url(#linear-gradient-5);}.cls-16{fill:url(#linear-gradient-6);}.cls-17{fill:url(#radial-gradient-7);}.cls-18{fill:#adf7ff;}.cls-20{clip-path:url(#clip-path);}.cls-21,.cls-33{fill:#999;}.cls-22{fill:url(#linear-gradient-7);}.cls-23{fill:url(#linear-gradient-8);}.cls-24{fill:#78756f;}.cls-25{fill:url(#linear-gradient-9);}.cls-26{fill:url(#linear-gradient-10);}.cls-27{fill:url(#linear-gradient-11);}.cls-28{fill:url(#linear-gradient-12);}.cls-29{fill:url(#radial-gradient-8);}.cls-30{fill:#e6e6e6;}.cls-31{fill:#88857e;}.cls-32{clip-path:url(#clip-path-2);}.cls-34{fill:url(#linear-gradient-13);}.cls-35{fill:url(#linear-gradient-14);}.cls-36{fill:#3e4645;}.cls-37{fill:#383f3e;}.cls-38{fill:url(#linear-gradient-15);}.cls-39{fill:url(#linear-gradient-16);}.cls-40{clip-path:url(#clip-path-3);}.cls-41{fill:url(#linear-gradient-17);}.cls-42{fill:url(#linear-gradient-18);}.cls-43{fill:url(#radial-gradient-9);}.cls-44{fill:#dbdbdb;}.cls-45{fill:url(#linear-gradient-19);}.cls-46{clip-path:url(#clip-path-4);}.cls-47{fill:#fff;}.cls-48{fill:url(#linear-gradient-20);}.cls-49{clip-path:url(#clip-path-5);}.cls-50{fill:url(#linear-gradient-21);}.cls-51{fill:url(#linear-gradient-22);}.cls-52{fill:url(#linear-gradient-23);}.cls-53{fill:url(#linear-gradient-24);}.cls-54{fill:url(#linear-gradient-25);}.cls-55{fill:url(#linear-gradient-26);}.cls-56{clip-path:url(#clip-path-6);}.cls-57{fill:url(#linear-gradient-27);}.cls-58{fill:url(#radial-gradient-10);}.cls-59{fill:#ffebad;}.cls-60{fill:url(#linear-gradient-28);}</style><radialGradient id="radial-gradient" cx="162.98" cy="48539.04" r="33.06" gradientTransform="translate(0 -6802.72) scale(1 0.15)" gradientUnits="userSpaceOnUse"><stop offset="0" stop-color="#666"/><stop offset="0.24" stop-color="#999"/><stop offset="0.48" stop-color="#c5c5c5"/><stop offset="0.7" stop-color="#e5e5e5"/><stop offset="0.88" stop-color="#f8f8f8"/><stop offset="1" stop-color="#fff"/></radialGradient><radialGradient id="radial-gradient-2" cx="199.89" cy="48539.04" r="33.06" xlink:href="#radial-gradient"/><radialGradient id="radial-gradient-3" cx="240.98" cy="48539.04" r="33.06" xlink:href="#radial-gradient"/><radialGradient id="radial-gradient-4" cx="288.28" cy="48539.04" r="33.06" xlink:href="#radial-gradient"/><radialGradient id="radial-gradient-5" cx="329.28" cy="48539.04" r="33.06" xlink:href="#radial-gradient"/><radialGradient id="radial-gradient-6" cx="234.81" cy="48520.51" r="162.21" gradientTransform="translate(0 -6802.72) scale(1 0.15)" gradientUnits="userSpaceOnUse"><stop offset="0" stop-color="#404040"/><stop offset="0.12" stop-color="#616161"/><stop offset="0.34" stop-color="#999"/><stop offset="0.55" stop-color="#c5c5c5"/><stop offset="0.74" stop-color="#e5e5e5"/><stop offset="0.89" stop-color="#f8f8f8"/><stop offset="1" stop-color="#fff"/></radialGradient><linearGradient id="linear-gradient" x1="119.83" y1="59.49" x2="142.47" y2="67.04" gradientUnits="userSpaceOnUse"><stop offset="0" stop-color="#046d79"/><stop offset="1" stop-color="#2f9ba7"/></linearGradient><linearGradient id="linear-gradient-2" x1="93.56" y1="128.35" x2="103.13" y2="128.35" gradientUnits="userSpaceOnUse"><stop offset="0" stop-color="#2f9ba7"/><stop offset="1" stop-color="#046d79"/></linearGradient><linearGradient id="linear-gradient-3" x1="82.03" y1="165.31" x2="102.04" y2="165.31" xlink:href="#linear-gradient-2"/><linearGradient id="linear-gradient-4" x1="87.48" y1="117.51" x2="103.13" y2="117.51" xlink:href="#linear-gradient-2"/><linearGradient id="linear-gradient-5" x1="57.33" y1="143.37" x2="74.81" y2="143.37" xlink:href="#linear-gradient-2"/><linearGradient id="linear-gradient-6" x1="55.34" y1="61.67" x2="70.58" y2="56.09" xlink:href="#linear-gradient-2"/><radialGradient id="radial-gradient-7" cx="166.76" cy="182.8" r="95.75" gradientUnits="userSpaceOnUse"><stop offset="0" stop-color="#07b6ca"/><stop offset="1" stop-color="#2f9ba7"/></radialGradient><clipPath id="clip-path" transform="translate(-52.34 -109.16)"><polygon class="cls-1" points="221.7 136.9 196.4 197.58 207.25 197.65 207.25 219.1 187.99 219.18 181.92 234.19 181.92 240.73 207.41 240.36 207.41 261.82 181.92 262.45 181.92 285.23 155.47 286.17 155.47 263.11 128.86 263.77 128.86 241.49 155.47 241.11 155.47 234.06 149.38 219.34 129.03 219.43 129.03 197.17 140.75 197.24 113.77 133.06 143.58 134.12 168.7 204.2 193.71 135.9 221.7 136.9"/></clipPath><linearGradient id="linear-gradient-7" x1="238.45" y1="258.19" x2="259" y2="258.19" gradientUnits="userSpaceOnUse"><stop offset="0" stop-color="#bdbaaf"/><stop offset="1" stop-color="#86837c"/></linearGradient><linearGradient id="linear-gradient-8" x1="220.21" y1="178.69" x2="250.16" y2="178.69" xlink:href="#linear-gradient-7"/><linearGradient id="linear-gradient-9" x1="209.06" y1="258.4" x2="230.96" y2="258.4" xlink:href="#linear-gradient-7"/><linearGradient id="linear-gradient-10" x1="189" y1="178.35" x2="228.15" y2="178.35" gradientUnits="userSpaceOnUse"><stop offset="0" stop-color="#86837c"/><stop offset="1" stop-color="#bdbaaf"/></linearGradient><linearGradient id="linear-gradient-11" x1="121.85" y1="112.21" x2="143.87" y2="112.21" xlink:href="#linear-gradient-7"/><linearGradient id="linear-gradient-12" x1="175.25" y1="248.33" x2="210.29" y2="248.33" xlink:href="#linear-gradient-7"/><radialGradient id="radial-gradient-8" cx="222.75" cy="192.45" r="72.93" gradientUnits="userSpaceOnUse"><stop offset="0" stop-color="#dad5c9"/><stop offset="1" stop-color="#ccc9bd"/></radialGradient><clipPath id="clip-path-2" transform="translate(-52.34 -109.16)"><path class="cls-1" d="M230.51,146.78a31.63,31.63,0,0,1,9,1.65A36.21,36.21,0,0,1,248,152.6a43.65,43.65,0,0,1,7.54,6.45,50.64,50.64,0,0,1,6.33,8.5L250.16,185.8a36.79,36.79,0,0,0-4.2-5.61,34.73,34.73,0,0,0-5-4.54,25.16,25.16,0,0,0-5.35-3.07,15,15,0,0,0-5.24-1.19,9.52,9.52,0,0,0-7.71,3.5,12.4,12.4,0,0,0-2.2,4.14,17.6,17.6,0,0,0-.79,5.36,27.61,27.61,0,0,0,.71,5.94,58,58,0,0,0,1.79,6.12c.72,2.09,1.52,4.24,2.33,6.48s1.63,4.56,2.36,7l27,.09v22.46l-24.1.18a45.64,45.64,0,0,1-1.05,6.85,46.21,46.21,0,0,1-2.14,6.68,55.28,55.28,0,0,1-3.33,6.74,79.3,79.3,0,0,1-4.63,7.06c1.11-.5,2.16-.93,3.16-1.29s2-.65,2.89-.89a25.9,25.9,0,0,1,2.69-.52,22.59,22.59,0,0,1,2.56-.2,28.12,28.12,0,0,1,4.86.38c1.61.26,3.2.61,4.8,1s3.17.7,4.76.95a26.74,26.74,0,0,0,4.81.37,15.61,15.61,0,0,0,2.39-.22,18.73,18.73,0,0,0,2.33-.56c.78-.24,1.58-.53,2.43-.88s1.73-.73,2.69-1.17L264.51,279a26,26,0,0,1-3.65,2.55,31.25,31.25,0,0,1-8.64,3.42,24.32,24.32,0,0,1-4.35.58,28.31,28.31,0,0,1-6.71-.7c-2.28-.48-4.59-1.14-6.93-1.8s-4.72-1.33-7.1-1.82a31.66,31.66,0,0,0-7.17-.71,34.71,34.71,0,0,0-4.46.48c-1.6.28-3.29.66-5,1.13s-3.52,1.05-5.3,1.69-3.56,1.37-5.29,2.15l-5.11-22a46.32,46.32,0,0,0,5.83-6.73,50.15,50.15,0,0,0,7.57-16,44.31,44.31,0,0,0,1.42-8.44l-13.47.11V209.83l9.59,0c-.82-2.37-1.67-4.73-2.5-7.09s-1.62-4.75-2.32-7.15a67,67,0,0,1-1.7-7.29,46,46,0,0,1-.66-7.55,37.46,37.46,0,0,1,2.53-13.67,33.83,33.83,0,0,1,6.9-10.92,30.28,30.28,0,0,1,10.17-7.11A29.1,29.1,0,0,1,230.51,146.78Z"/></clipPath><linearGradient id="linear-gradient-13" x1="294.8" y1="256.11" x2="300.46" y2="233.78" gradientUnits="userSpaceOnUse"><stop offset="0" stop-color="#3e4745"/><stop offset="1" stop-color="#73827f"/></linearGradient><linearGradient id="linear-gradient-14" x1="294.32" y1="183.22" x2="298.99" y2="202.89" xlink:href="#linear-gradient-13"/><linearGradient id="linear-gradient-15" x1="238.45" y1="264.58" x2="288.81" y2="264.58" xlink:href="#linear-gradient-13"/><linearGradient id="linear-gradient-16" x1="259.37" y1="178.14" x2="243.37" y2="169.14" xlink:href="#linear-gradient-13"/><clipPath id="clip-path-3" transform="translate(-52.34 -109.16)"><path class="cls-1" d="M244.7,228.44l-9.52-.05c-.07-.73-.13-1.46-.19-2.19s-.1-1.46-.13-2.19-.06-1.46-.08-2.19,0-1.45,0-2.18h9.53c0,.74,0,1.47,0,2.2s0,1.47.08,2.2.08,1.47.14,2.21S244.63,227.7,244.7,228.44Z"/></clipPath><linearGradient id="linear-gradient-17" x1="234.75" y1="224.04" x2="244.7" y2="224.04" xlink:href="#linear-gradient-13"/><linearGradient id="linear-gradient-18" x1="172.54" y1="102.56" x2="187.07" y2="102.56" gradientUnits="userSpaceOnUse"><stop offset="0" stop-color="#73827f"/><stop offset="1" stop-color="#3e4745"/></linearGradient><radialGradient id="radial-gradient-9" cx="279.41" cy="201.71" r="85.07" gradientUnits="userSpaceOnUse"><stop offset="0" stop-color="#73827f"/><stop offset="1" stop-color="#4d5957"/></radialGradient><linearGradient id="linear-gradient-19" x1="171.53" y1="127.21" x2="186.07" y2="127.21" xlink:href="#linear-gradient-18"/><clipPath id="clip-path-4" transform="translate(-52.34 -109.16)"><path class="cls-1" d="M292,156a36.53,36.53,0,0,1,22.27,8.31,42.17,42.17,0,0,1,8.09,8.88,50.37,50.37,0,0,1,5.73,11.24l-16.75,15.35a30.8,30.8,0,0,0-3.75-8.37,21.52,21.52,0,0,0-5-5.39,19.13,19.13,0,0,0-11.16-3.84,17.14,17.14,0,0,0-7.66,1.6,19.7,19.7,0,0,0-6.17,4.65,30.3,30.3,0,0,0-4.67,7,46.16,46.16,0,0,0-3.16,8.65l31.18.24-4.75,15.37-28.38,0c0,.87,0,1.68,0,2.46s0,1.52.08,2.24.08,1.4.13,2.06.11,1.32.18,1.95l28.64-.1-4.76,15.43-19.56.22a35.8,35.8,0,0,0,3.58,6.25,24.87,24.87,0,0,0,4.44,4.78,18.15,18.15,0,0,0,5.21,3,16.19,16.19,0,0,0,5.92,1,18,18,0,0,0,5.69-1.05,19.44,19.44,0,0,0,5.58-3.15,22.07,22.07,0,0,0,4.84-5.48,29.54,29.54,0,0,0,3.5-8.09l17.93,13.74a41.67,41.67,0,0,1-6.12,12.49,43.14,43.14,0,0,1-9.23,9.4,43.82,43.82,0,0,1-11.09,6,37.69,37.69,0,0,1-11.65,2.32A32.29,32.29,0,0,1,277,282.32a41.32,41.32,0,0,1-12.28-8.62,60.06,60.06,0,0,1-9.82-13.16A80.32,80.32,0,0,1,248,244.17l-14.61.16,5-15.87,6.29,0c-.07-.74-.13-1.47-.18-2.2s-.1-1.47-.14-2.21-.06-1.46-.08-2.2,0-1.46,0-2.2h-9.9l5-15.81Z"/></clipPath><linearGradient id="linear-gradient-20" x1="324.88" y1="242.9" x2="343.25" y2="242.9" gradientUnits="userSpaceOnUse"><stop offset="0" stop-color="#ba8400"/><stop offset="0.36" stop-color="#a86d0b"/><stop offset="0.71" stop-color="#9d5f13"/><stop offset="1" stop-color="#995a15"/></linearGradient><clipPath id="clip-path-5" transform="translate(-52.34 -109.16)"><path class="cls-1" d="M351.66,203l-10.63.14a10.43,10.43,0,0,0-1.82-1.72,37.77,37.77,0,0,0-3.71-2.62,41.42,41.42,0,0,0-5-2.66,26.63,26.63,0,0,0-5.64-1.86l10.59-.21a27.22,27.22,0,0,1,5.66,1.87,39.54,39.54,0,0,1,5,2.69,37.37,37.37,0,0,1,3.72,2.64A10,10,0,0,1,351.66,203Z"/></clipPath><linearGradient id="linear-gradient-21" x1="324.88" y1="198.59" x2="351.66" y2="198.59" xlink:href="#linear-gradient-20"/><linearGradient id="linear-gradient-22" x1="267.87" y1="132.66" x2="278.46" y2="132.66" gradientUnits="userSpaceOnUse"><stop offset="0" stop-color="#ba8400"/><stop offset="0.18" stop-color="#b87c07"/><stop offset="0.62" stop-color="#b46e14"/><stop offset="1" stop-color="#b36918"/></linearGradient><linearGradient id="linear-gradient-23" x1="267.87" y1="92.94" x2="278.46" y2="92.94" xlink:href="#linear-gradient-22"/><linearGradient id="linear-gradient-24" x1="266.65" y1="58.82" x2="277.24" y2="58.82" xlink:href="#linear-gradient-22"/><linearGradient id="linear-gradient-25" x1="266.65" y1="168.9" x2="277.24" y2="168.9" xlink:href="#linear-gradient-22"/><linearGradient id="linear-gradient-26" x1="310.19" y1="204.51" x2="284.52" y2="205.51" gradientUnits="userSpaceOnUse"><stop offset="0" stop-color="#c9761c"/><stop offset="0.25" stop-color="#cd7b1a"/><stop offset="0.55" stop-color="#d88912"/><stop offset="0.86" stop-color="#eaa106"/><stop offset="1" stop-color="#f3ad00"/></linearGradient><clipPath id="clip-path-6" transform="translate(-52.34 -109.16)"><path class="cls-1" d="M329.58,270.44,319,270.11a46.42,46.42,0,0,1-7-1.21,50.21,50.21,0,0,1-6.94-2.27,50.86,50.86,0,0,1-6.62-3.27,47,47,0,0,1-6-4.19l10.52.25a46.65,46.65,0,0,0,6,4.23,51.38,51.38,0,0,0,13.58,5.58A48.07,48.07,0,0,0,329.58,270.44Z"/></clipPath><linearGradient id="linear-gradient-27" x1="292.43" y1="264.8" x2="329.58" y2="264.8" xlink:href="#linear-gradient-22"/><radialGradient id="radial-gradient-10" cx="333.37" cy="197.78" r="108.66" gradientUnits="userSpaceOnUse"><stop offset="0" stop-color="#f3ad00"/><stop offset="1" stop-color="#da7100"/></radialGradient><linearGradient id="linear-gradient-28" x1="240.09" y1="140.61" x2="257.79" y2="140.61" xlink:href="#linear-gradient-26"/></defs><g class="cls-2"><g id="Layer_1" data-name="Layer 1"><path class="cls-3" d="M313,247.21c-4.7,8.89-13.21,15.8-15.56,25.52-1.07,4.17-.76,8.58-1.29,12.91-1.9,15.11-13.14,27.56-26.66,34.7-.6.31-1.14.61-1.74.91-8.89,4.33-18.46,6.69-28.17,8.13-5.93.91-11.93,1.44-17.93,1.9a738.47,738.47,0,0,1-74.42,2.12c-12-.23-24.22-.83-35.53-4.78-.61-.23-1.14-.38-1.75-.61-9.19-3.49-17.31-9.34-24.53-16.09l-.3-.31a105.56,105.56,0,0,1-25.36-35.69,93.61,93.61,0,0,1-4-61.2C59.1,202.64,65,191.25,65.94,178.8c.68-9.34-1.52-18.84-.08-28.1,3-18.45,20.13-32,38.2-36.52s37.13-2,55.58.61c9,1.29,19.6,4.78,28.48,2,10.93-3.34,20.2-7.6,32-7.6a36.33,36.33,0,0,1,14.2,2.43c5.38,2.35,9.64,6.61,14,10.56,12.15,10.86,26,19.67,38.42,30.3s23.69,23.46,28.25,39.18c2.27,7.67,2.81,15.72,3,23.69C318.42,226.18,318,237.57,313,247.21Z" transform="translate(-52.34 -109.16)"/><path class="cls-4" d="M196.53,285.49c0,2.88-15,5.23-33.55,5.23s-33.55-2.35-33.55-5.23,15-5.23,33.55-5.23S196.53,282.6,196.53,285.49Z" transform="translate(-52.34 -109.16)"/><path class="cls-5" d="M233.45,285.49c0,2.88-15,5.23-33.56,5.23s-33.55-2.35-33.55-5.23,15-5.23,33.55-5.23S233.45,282.6,233.45,285.49Z" transform="translate(-52.34 -109.16)"/><path class="cls-6" d="M274.53,285.49c0,2.88-15,5.23-33.55,5.23s-33.55-2.35-33.55-5.23,15-5.23,33.55-5.23S274.53,282.6,274.53,285.49Z" transform="translate(-52.34 -109.16)"/><path class="cls-7" d="M321.84,285.49c0,2.88-15,5.23-33.56,5.23s-33.55-2.35-33.55-5.23,15-5.23,33.55-5.23S321.84,282.6,321.84,285.49Z" transform="translate(-52.34 -109.16)"/><path class="cls-8" d="M362.83,285.49c0,2.88-15,5.23-33.55,5.23s-33.55-2.35-33.55-5.23,15-5.23,33.55-5.23S362.83,282.6,362.83,285.49Z" transform="translate(-52.34 -109.16)"/><path class="cls-9" d="M399.45,282.78c0,14.17-73.71,25.65-164.64,25.65S70.17,297,70.17,282.78s73.71-25.65,164.64-25.65S399.45,268.62,399.45,282.78Z" transform="translate(-52.34 -109.16)"/><polygon class="cls-10" points="116.36 95.04 106.76 95.08 131.72 27.21 141.37 26.74 116.36 95.04"/><polygon class="cls-11" points="103.13 131.95 93.56 131.75 93.56 124.75 103.13 124.9 103.13 131.95"/><polygon class="cls-12" points="103.13 177.01 93.56 176.52 93.56 153.6 103.13 153.94 103.13 177.01"/><polygon class="cls-13" points="103.13 124.9 93.56 124.75 87.47 110.13 97.04 110.18 103.13 124.9"/><polygon class="cls-14" points="76.69 110.27 67.17 110.21 67.17 88.09 76.69 88.01 76.69 110.27"/><polygon class="cls-15" points="76.52 154.6 67 154.26 67 132.13 76.52 132.33 76.52 154.6"/><polygon class="cls-16" points="88.41 88.08 78.87 88.16 51.94 24.4 61.43 23.89 88.41 88.08"/><path class="cls-17" d="M156,263.11a.48.48,0,0,0-.15-.36.5.5,0,0,0-.35-.14l-26.11.64V242l26.12-.38a.5.5,0,0,0,.49-.5v-7.05a.63.63,0,0,0,0-.19l-6.1-14.72a.51.51,0,0,0-.46-.3l-19.85.08V197.67l11.22.07a.5.5,0,0,0,.42-.22.52.52,0,0,0,.05-.47l-26.68-63.47,28.68,1,25,69.77a.5.5,0,0,0,.47.33h0a.5.5,0,0,0,.47-.33l24.89-68,26.9,1-25,60a.52.52,0,0,0,0,.47.51.51,0,0,0,.42.22l10.35.06V218.6l-18.76.08a.5.5,0,0,0-.46.31l-6.07,15a.41.41,0,0,0,0,.19v6.54a.51.51,0,0,0,.5.5l25-.36v20.46l-25,.62a.51.51,0,0,0-.49.5v22.3l-25.45.91Z" transform="translate(-52.34 -109.16)"/><path class="cls-18" d="M115.3,134.11l27.57,1,24.89,69.45a1,1,0,0,0,.94.66h0a1,1,0,0,0,.94-.66l24.76-67.62,25.82.92L195.48,197.2a1,1,0,0,0,.09.93,1,1,0,0,0,.83.45l9.85.06v19.47l-18.26.07a1,1,0,0,0-.93.63l-6.07,15a1,1,0,0,0-.07.38v6.54a1,1,0,0,0,1,1h0l24.48-.36v19.48l-24.52.6a1,1,0,0,0-1,1v21.82l-24.45.87v-22a1,1,0,0,0-1-1h0l-25.59.63V242.48l25.63-.37a1,1,0,0,0,1-1v-7.05a1,1,0,0,0-.07-.38L150.3,219a1,1,0,0,0-.92-.61h0l-19.34.08V198.17l10.72.07h0a1,1,0,0,0,.93-1.39L115.3,134.11Zm-1.53-1.06,27,64.19L129,197.17v22.26l20.35-.08,6.09,14.71v7.05l-26.61.38v22.28l26.61-.66v23.06l26.45-.94V262.45l25.49-.63V240.36l-25.49.37v-6.54l6.07-15,19.26-.08V197.65l-10.85-.07,25.3-60.68-28-1-25,68.3-25.12-70.08-29.81-1.07Z" transform="translate(-52.34 -109.16)"/><g class="cls-19"><g class="cls-20"><path class="cls-21" d="M183.94,293.17,176.41,261l3.35-3.16c.5-.47,1.05-1,1.71-1.75l.41-.44c.63-.7,1.13-1.29,1.57-1.84l.09-.14c.44-.55.91-1.19,1.42-1.93l.33-.48c.52-.78.94-1.45,1.31-2.07l.14-.26c.36-.61.7-1.25,1.06-2l.3-.59c.37-.74.68-1.42,1-2.05l.06-.14,0-.11c.26-.63.51-1.3.8-2.12l.38-1.11-11.74-.13v-38.8l6.29,0c-.06-.19-.42-1.28-.48-1.48l-.3-1-.22-.75c-.08-.23-.15-.45-.21-.68l-.31-1.1c-.28-1-.53-2-.77-3,0,0-.08-.35-.1-.46-.22-.95-.41-1.91-.59-2.88l-.07-.37-.06-.34c-.15-.86-.27-1.74-.4-2.78,0-.13,0-.25,0-.37l-.14-1.47c0-.46-.08-.92-.1-1.39l-.06-1.36c0-.53,0-1,0-1.48,0-.31,0-.63,0-.94l0-.94,0-.28,0-.71c0-.27.07-1,.07-1l0-.17c0-.39.09-.8.13-1.22,0-.22.08-.73.08-.73l0-.17c.06-.43.13-.9.21-1.36,0-.21.05-.37.08-.54l0-.26c.1-.53.22-1.12.35-1.7l.12-.52c.11-.46.23-1,.37-1.46l.07-.25c0-.08.05-.19.09-.31.2-.69.41-1.34.62-2,.06-.17.11-.33.16-.49s.08-.21.13-.33.1-.31.16-.46c.2-.52.42-1.08.65-1.63l.06-.16.18-.39c.3-.68.59-1.29.89-1.89l.21-.43a3.9,3.9,0,0,1,.19-.35c.4-.76.75-1.39,1.1-2l.23-.37c.38-.62.79-1.26,1.27-2l.35-.5c.51-.7,1-1.32,1.44-1.9l.22-.27a2.23,2.23,0,0,1,.23-.27c.27-.33.52-.64.79-.94l.5-.55.5-.53c.57-.59,1.14-1.16,1.72-1.69.06-.07.13-.13.2-.2l.37-.32c.51-.46,1-.92,1.61-1.36l.4-.32c.58-.45,1.22-.92,1.89-1.38l.28-.2.44-.28c.64-.42,1.24-.78,1.84-1.13l.31-.18c.59-.33,1.18-.65,1.79-.94l.73-.36.45-.19.84-.37.92-.37,1.09-.42.57-.18.19-.07.68-.22,1-.28,1-.27.69-.16.29-.06.64-.14c.32-.07.64-.12,1-.18l.92-.16,1-.12.18,0,.65-.08c.57-.06,1.16-.1,1.76-.13l9.73-.45h0c.63,0,1.25,0,1.86,0,.38,0,.75,0,1.13,0a39.48,39.48,0,0,1,11.3,2.06,44,44,0,0,1,10.32,5.09,50.75,50.75,0,0,1,9,7.66,58.73,58.73,0,0,1,7.35,9.85l2.53,4.24-16.63,26-18.51.37-2.39-3.92a28.92,28.92,0,0,0-3.28-4.34,26.12,26.12,0,0,0-2.7-2.58c0,.37-.05.75-.05,1.15a19.36,19.36,0,0,0,.52,4.2,49.06,49.06,0,0,0,1.55,5.27c.49,1.43,1,2.88,1.57,4.37l.72,2c.2.56.41,1.14.62,1.74l29.23.09V240.4l-25.2.2c-.05.24-.11.49-.17.73a52.74,52.74,0,0,1-2.51,7.86l0,.09c.67.08,1.37.17,2.09.28,1.82.29,3.55.67,5.22,1l1.18.26.43-.16.9-.35,1-.42,1.24-.56,1.68-.77,17.58.47,8.2,32.78-3.8,3.22a34.37,34.37,0,0,1-4.8,3.36,39.74,39.74,0,0,1-5.29,2.56,38.51,38.51,0,0,1-5.61,1.74,31.59,31.59,0,0,1-5.85.78h-.91l-1.38,0-9.63-.44A42,42,0,0,1,228.9,292c-2.11-.48-4.18-1.07-6.19-1.63l-.27-.08c-2.06-.58-3.79-1.06-5.49-1.45l-.1,0c-1.33.23-2.76.55-4.26,1s-3.11.92-4.69,1.49-3.18,1.22-4.7,1.92l-1.76.79Z" transform="translate(-52.34 -109.16)"/></g></g><path class="cls-22" d="M257.35,257.63l.35-.15,1.3-.58-9.66-.26-1.32.6-.27.11-.93.39-.45.18c-.25.1-.5.2-.74.28l-.43.16-.71.24-.44.13-.68.19-.43.11-.76.15-.33.06q-.56.09-1.11.15h0c-.39,0-.79.06-1.2.07h-1.07l9.64.28h1.69l.31,0,.27,0h0c.37,0,.73-.08,1.09-.14h.06l.27-.06c.21,0,.42-.07.62-.12l.15,0,.42-.11.68-.19.19-.05.27-.09.33-.1.35-.13.45-.16.78-.3.25-.1.13-.05.19-.08Z" transform="translate(-52.34 -109.16)"/><path class="cls-23" d="M246,180.19a34.73,34.73,0,0,0-5-4.54,25.16,25.16,0,0,0-5.35-3.07,15,15,0,0,0-5.24-1.19h-.56l-9.6.28h.55a14.92,14.92,0,0,1,5.24,1.18,25.67,25.67,0,0,1,5.34,3,35,35,0,0,1,5,4.51,36.39,36.39,0,0,1,4.19,5.57l9.64-.19A36.79,36.79,0,0,0,246,180.19Z" transform="translate(-52.34 -109.16)"/><path class="cls-24" d="M240.3,284.61c-2-.45-4-1-6.08-1.61s-4.11-1.17-6.19-1.63a36.29,36.29,0,0,0-6.26-.88l-9.59-.42a36.2,36.2,0,0,1,6.25.89c2.07.45,4.14,1,6.18,1.61s4.07,1.15,6.07,1.61a34.08,34.08,0,0,0,5.89.87l9.63.44A33.41,33.41,0,0,1,240.3,284.61Z" transform="translate(-52.34 -109.16)"/><path class="cls-25" d="M221.35,256.83h-1.43l-.4,0-.41,0H219l-.34,0L218,257l-.27,0h-.06c-.4.05-.8.12-1.21.2h0l-.15,0-1.12.25-.11,0-.3.08-.6.16-.29.09-.51.16-.87.29-.31.1-.22.08-.27.1-.69.27-.48.19c-.48.2-1,.41-1.49.64l9.57.28c.51-.23,1-.44,1.5-.64l.53-.21c.3-.12.6-.24.89-.34l.59-.21.82-.28.53-.16.87-.24.45-.12,1.05-.24.21-.05c.41-.08.82-.14,1.23-.2l.37,0,1-.11h0l1.26-.06h1Z" transform="translate(-52.34 -109.16)"/><path class="cls-26" d="M203,202.16c-.25-.72-.49-1.43-.72-2.14-.15-.44-.29-.88-.43-1.31-.24-.73-.46-1.45-.68-2.18l-.42-1.42-.15-.54c-.24-.9-.48-1.8-.69-2.7l-.06-.28c-.2-.87-.38-1.74-.54-2.62,0-.13,0-.27-.07-.41-.16-.9-.29-1.8-.39-2.72-.05-.35-.09-.71-.12-1.06l0-.27c-.05-.55-.08-1.1-.11-1.66,0-.11,0-.23,0-.34,0-.58,0-1.15,0-1.73s0-1.14,0-1.71a.25.25,0,0,1,0-.08c0-.51,0-1,.1-1.52,0-.35.07-.69.1-1s.05-.47.08-.7c.06-.41.12-.81.19-1.21,0-.17.05-.33.07-.5.1-.56.22-1.12.34-1.68l.1-.37c.1-.43.2-.85.32-1.27,0-.09.05-.17.07-.25.18-.63.37-1.24.58-1.84.05-.17.11-.33.17-.5.24-.66.49-1.32.76-2,0-.05.05-.1.07-.16.26-.59.53-1.17.82-1.75l.24-.47c.32-.61.64-1.21,1-1.8l0-.07c.35-.59.73-1.17,1.12-1.73l.27-.4c.41-.57.82-1.12,1.26-1.66l.17-.21q.6-.72,1.23-1.41l.31-.33c.47-.49.95-1,1.44-1.42.1-.1.2-.18.3-.27.44-.4.9-.79,1.36-1.16l.3-.24c.53-.42,1.07-.81,1.62-1.19l.37-.24c.51-.34,1-.66,1.55-1l.24-.14c.59-.33,1.19-.64,1.79-.93l.6-.28.62-.27.72-.29.62-.24.76-.26.61-.2.78-.23.63-.17.8-.19.62-.14.87-.15.59-.1,1-.13.47-.05c.5,0,1-.09,1.5-.11l-9.6.44h0c-.5,0-1,.06-1.47.1l-.5.06-.89.11h-.07l-.61.11-.84.15-.63.14-.64.14-.16,0-.62.17-.78.23-.61.2-.53.17L210,149l-.61.23-.73.3-.61.26-.42.19-.19.09-.37.17q-.72.36-1.41.75l-.24.14c-.53.31-1,.62-1.55,1l-.23.14-.13.1c-.56.37-1.1.77-1.63,1.18l-.29.24c-.47.37-.92.76-1.37,1.16l-.2.16-.08.09c-.5.46-1,.93-1.45,1.42l-.3.33-.51.54-.71.84-.15.17,0,.06c-.43.54-.85,1.08-1.25,1.65-.09.13-.18.27-.28.4-.38.55-.75,1.11-1.1,1.69a.35.35,0,0,1,0,.08v0c-.35.58-.67,1.18-1,1.78l-.12.22-.12.25c-.28.57-.56,1.15-.81,1.74l-.06.12s0,0,0,0c-.22.5-.42,1-.62,1.52-.05.14-.09.28-.14.41l-.09.24-.09.28c-.2.6-.4,1.21-.57,1.82l-.06.18s0,0,0,.06c-.13.45-.24.9-.35,1.35l-.06.27v0c-.12.55-.23,1.11-.34,1.67v0c0,.14,0,.29-.07.43-.07.41-.13.82-.19,1.24,0,0,0,.06,0,.08l-.06.56c0,.37-.08.73-.11,1.1a.59.59,0,0,0,0,.13c0,.26,0,.52,0,.78s0,.37,0,.55,0,.09,0,.14v.09l0,.79c0,.26,0,.53,0,.79s0,.8,0,1.2c0,.17,0,.34,0,.5s0,.25,0,.38,0,.2,0,.31l.09,1.17c0,.05,0,.1,0,.14l0,.28c0,.25.05.51.07.76,0,.09,0,.19,0,.28.09.83.21,1.66.34,2.48a2,2,0,0,1,.05.24c0,.13,0,.26.07.39.16.88.34,1.76.54,2.63,0,.06,0,.11,0,.17a.24.24,0,0,0,0,.08c.21.91.45,1.81.69,2.71l.15.51c0,.17.09.35.14.52s.19.6.28.9c.13.45.26.89.4,1.33l.27.84c.14.43.28.86.43,1.29l.72,2.12.21.62c.08.23.17.47.25.71l.14.39c.7,2,1.42,4,2.11,5.94l9.55,0c-.73-2.11-1.48-4.21-2.22-6.31C203.33,203.09,203.17,202.62,203,202.16Z" transform="translate(-52.34 -109.16)"/><polygon class="cls-27" points="143.79 123.75 134.26 123.64 134.26 100.71 143.79 100.67 143.79 123.75"/><path class="cls-28" d="M200,232.7c0,.47-.08.94-.13,1.42,0,.3-.06.6-.1.9s-.11.76-.16,1.14-.09.61-.14.91-.15.78-.23,1.17l-.18.88c-.09.4-.19.8-.29,1.19s-.14.58-.22.87l-.09.31c-.23.82-.49,1.64-.76,2.45l-.24.69c-.32.9-.65,1.79-1,2.67l0,.07c-.36.86-.76,1.71-1.17,2.56-.11.22-.23.44-.34.67-.4.78-.81,1.55-1.25,2.31l-.14.25c-.5.86-1,1.69-1.59,2.51-.13.21-.27.41-.41.61-.55.79-1.11,1.57-1.7,2.32a1,1,0,0,1-.08.11c-.62.78-1.26,1.53-1.93,2.27-.16.19-.33.37-.49.55-.68.73-1.37,1.44-2.09,2.12l9.53.31c.72-.68,1.42-1.41,2.1-2.14.08-.09.17-.17.25-.27s.16-.18.24-.27c.66-.75,1.31-1.5,1.93-2.29v0a.61.61,0,0,0,.07-.1c.42-.54.84-1.08,1.23-1.64.16-.22.31-.46.47-.68s.16-.21.23-.32.12-.2.19-.3c.55-.83,1.09-1.67,1.59-2.53l0,0a1.62,1.62,0,0,0,.1-.18c.44-.77.86-1.56,1.26-2.35.07-.12.14-.23.2-.35a3.73,3.73,0,0,1,.16-.35l.3-.61c.3-.64.59-1.28.86-1.93a.3.3,0,0,1,0-.08h0c.37-.89.71-1.78,1-2.68,0-.11.08-.22.12-.33l.12-.38c.27-.81.52-1.62.75-2.44,0-.08.06-.16.08-.25s0-.06,0-.09l0-.09c.06-.24.11-.48.17-.72s.2-.74.28-1.11l0-.15c.06-.28.11-.56.17-.84s.15-.68.21-1a1.25,1.25,0,0,1,0-.19c.05-.3.09-.6.13-.89s.11-.62.15-.93c0-.08,0-.16,0-.24,0-.31.07-.62.1-.92s.07-.57.09-.85c0-.05,0-.09,0-.14s0-.1,0-.14,0-.1,0-.14,0-.1,0-.15Z" transform="translate(-52.34 -109.16)"/><path class="cls-29" d="M195.33,264.13a47.21,47.21,0,0,0,5.69-6.61,50.88,50.88,0,0,0,4.56-7.79,49.21,49.21,0,0,0,3.08-8.36,44.49,44.49,0,0,0,1.44-8.53.49.49,0,0,0-.14-.38.48.48,0,0,0-.36-.16l-13,.1V210.33l9.09,0a.49.49,0,0,0,.41-.21.49.49,0,0,0,.07-.45c-.45-1.29-.9-2.57-1.36-3.85-.39-1.08-.77-2.16-1.15-3.25-.67-1.93-1.55-4.48-2.31-7.11a65,65,0,0,1-1.68-7.25,44.41,44.41,0,0,1-.66-7.46,36.71,36.71,0,0,1,2.5-13.48,33.12,33.12,0,0,1,6.79-10.77,29.69,29.69,0,0,1,10-7,28.46,28.46,0,0,1,11.2-2.27h1a31,31,0,0,1,8.87,1.63,35.37,35.37,0,0,1,8.32,4.11,42,42,0,0,1,7.45,6.38,49.73,49.73,0,0,1,6.11,8.14l-11.07,17.32a36.89,36.89,0,0,0-3.84-5,35.23,35.23,0,0,0-5.07-4.61,25.67,25.67,0,0,0-5.46-3.13,15.34,15.34,0,0,0-5.42-1.23h-.25a10.14,10.14,0,0,0-4.29.92,10,10,0,0,0-3.56,2.76,12.76,12.76,0,0,0-2.3,4.3,18,18,0,0,0-.81,5.52,27.58,27.58,0,0,0,.73,6.05,56.35,56.35,0,0,0,1.8,6.18c.5,1.48,1.06,3,1.62,4.53l.71,1.95c.74,2,1.6,4.44,2.35,7a.5.5,0,0,0,.48.35l26.52.09V232l-23.6.18a.5.5,0,0,0-.5.46A43.53,43.53,0,0,1,226.12,246a54.89,54.89,0,0,1-3.29,6.68,78.91,78.91,0,0,1-4.6,7,.5.5,0,0,0,0,.61.48.48,0,0,0,.38.18.49.49,0,0,0,.21,0c1.09-.49,2.14-.92,3.12-1.28s1.93-.64,2.84-.87a21.88,21.88,0,0,1,2.64-.51,21.05,21.05,0,0,1,2.5-.2h.41a27.39,27.39,0,0,1,4.37.38c1.58.25,3.19.6,4.74.94s3.2.7,4.82,1a28.31,28.31,0,0,0,4.44.39h.45a16.79,16.79,0,0,0,2.46-.23,18.74,18.74,0,0,0,2.39-.57c.77-.23,1.58-.53,2.48-.89.64-.26,1.33-.56,2.16-.94L264,278.76a25.52,25.52,0,0,1-3.34,2.31,31,31,0,0,1-4.14,2,29.29,29.29,0,0,1-4.37,1.36,22,22,0,0,1-4.25.57h-.65a29,29,0,0,1-5.93-.7c-2.21-.46-4.4-1.08-6.72-1.74l-.19-.05c-2.63-.75-4.83-1.36-7.13-1.83a33,33,0,0,0-6.55-.73H220a34.62,34.62,0,0,0-4.53.49c-1.6.28-3.31.66-5.08,1.14s-3.55,1-5.33,1.7c-1.61.58-3.21,1.23-4.77,1.92Z" transform="translate(-52.34 -109.16)"/><path class="cls-30" d="M229.53,146.77v1h.95a30.74,30.74,0,0,1,8.72,1.6,34.78,34.78,0,0,1,8.2,4.06,41.33,41.33,0,0,1,7.36,6.3,48.09,48.09,0,0,1,5.89,7.79l-10.49,16.41a37.37,37.37,0,0,0-3.46-4.42,35.13,35.13,0,0,0-5.15-4.67,26.2,26.2,0,0,0-5.56-3.19,15.87,15.87,0,0,0-5.6-1.27h-.26a10.47,10.47,0,0,0-8.24,3.86,13.47,13.47,0,0,0-2.38,4.47,18.41,18.41,0,0,0-.84,5.67,28,28,0,0,0,.74,6.16,58.79,58.79,0,0,0,1.81,6.23c.51,1.48,1.06,3,1.63,4.55.24.64.48,1.28.71,1.94.74,2,1.59,4.43,2.35,6.94a1,1,0,0,0,1,.71l26,.09v20.46l-23.11.18a1,1,0,0,0-1,.92,44,44,0,0,1-1,6.7,43,43,0,0,1-2.09,6.53,52.62,52.62,0,0,1-3.27,6.62,79.17,79.17,0,0,1-4.56,7,1,1,0,0,0,0,1.21,1,1,0,0,0,.78.37,1,1,0,0,0,.41-.09c1.07-.48,2.11-.91,3.08-1.26s1.9-.63,2.8-.86a22.13,22.13,0,0,1,5-.69h.4a27.53,27.53,0,0,1,4.29.37c1.57.25,3.17.6,4.73.94s3.2.7,4.83,1a29.27,29.27,0,0,0,4.52.39h.46a17.76,17.76,0,0,0,2.53-.23,19.88,19.88,0,0,0,2.46-.59c.78-.24,1.6-.54,2.51-.91.5-.2,1-.43,1.64-.7l5.07,20.28a25.64,25.64,0,0,1-3,2.06,30.14,30.14,0,0,1-8.35,3.3,22.09,22.09,0,0,1-4.17.56h-.63a28,28,0,0,1-5.83-.69c-2.19-.46-4.37-1.08-6.69-1.73l-.18-.06c-2.65-.75-4.85-1.36-7.17-1.83a34,34,0,0,0-6.65-.74h-.75a34.38,34.38,0,0,0-4.6.5,51.73,51.73,0,0,0-5.12,1.15c-1.77.48-3.58,1.06-5.37,1.71-1.44.52-2.86,1.08-4.25,1.69l-4.71-20.23a47.69,47.69,0,0,0,5.55-6.48,52.29,52.29,0,0,0,4.61-7.87,50.11,50.11,0,0,0,3.1-8.44,44.76,44.76,0,0,0,1.46-8.63,1,1,0,0,0-.27-.75,1,1,0,0,0-.73-.32h0l-12.46.1V210.83l8.59,0h0a1,1,0,0,0,.82-.42,1,1,0,0,0,.13-.91c-.45-1.28-.9-2.56-1.36-3.85l-1.15-3.24c-.67-1.93-1.54-4.47-2.29-7.09a64.17,64.17,0,0,1-1.68-7.19,43.45,43.45,0,0,1-.65-7.38,36.19,36.19,0,0,1,2.47-13.3,32.62,32.62,0,0,1,6.68-10.6,29.13,29.13,0,0,1,9.84-6.88,28,28,0,0,1,11-2.23v-1Zm0,0a28.94,28.94,0,0,0-11.39,2.31A30.28,30.28,0,0,0,208,156.19a33.83,33.83,0,0,0-6.9,10.92,37.46,37.46,0,0,0-2.53,13.67,46,46,0,0,0,.66,7.55,67,67,0,0,0,1.7,7.29c.7,2.4,1.49,4.78,2.32,7.15s1.68,4.72,2.5,7.09l-9.59,0v23.08l13.47-.11a44.31,44.31,0,0,1-1.42,8.44,50.15,50.15,0,0,1-7.57,16,46.32,46.32,0,0,1-5.83,6.73l5.11,22c1.73-.78,3.5-1.5,5.29-2.15s3.56-1.21,5.3-1.69,3.42-.85,5-1.13a34.71,34.71,0,0,1,4.46-.48h.72a32.85,32.85,0,0,1,6.45.72c2.38.49,4.75,1.15,7.1,1.82s4.65,1.32,6.93,1.8a29.5,29.5,0,0,0,6,.71h.67a24.32,24.32,0,0,0,4.35-.58,31.25,31.25,0,0,0,8.64-3.42,26,26,0,0,0,3.65-2.55L259,256.9c-1,.44-1.85.83-2.69,1.17s-1.65.64-2.43.88a18.73,18.73,0,0,1-2.33.56,15.61,15.61,0,0,1-2.39.22h-.44a27.93,27.93,0,0,1-4.37-.38c-1.59-.25-3.18-.6-4.76-.95s-3.19-.69-4.8-1a28.71,28.71,0,0,0-4.44-.38h-.42a22.59,22.59,0,0,0-2.56.2,25.9,25.9,0,0,0-2.69.52c-.92.24-1.88.53-2.89.89s-2,.79-3.16,1.29a79.3,79.3,0,0,0,4.63-7.06,55.28,55.28,0,0,0,3.33-6.74,46.21,46.21,0,0,0,2.14-6.68,45.64,45.64,0,0,0,1.05-6.85l24.1-.18V210l-27-.09c-.73-2.43-1.54-4.76-2.36-7s-1.61-4.39-2.33-6.48a58,58,0,0,1-1.79-6.12,27.61,27.61,0,0,1-.71-5.94,17.6,17.6,0,0,1,.79-5.36,12.4,12.4,0,0,1,2.2-4.14,9.49,9.49,0,0,1,7.47-3.5h.24a15,15,0,0,1,5.24,1.19,25.16,25.16,0,0,1,5.35,3.07,34.73,34.73,0,0,1,5,4.54,36.79,36.79,0,0,1,4.2,5.61l11.67-18.25a50.64,50.64,0,0,0-6.33-8.5A43.65,43.65,0,0,0,248,152.6a36.21,36.21,0,0,0-8.44-4.17,31.63,31.63,0,0,0-9-1.65Z" transform="translate(-52.34 -109.16)"/><polygon class="cls-31" points="142.44 154.8 132.91 154.49 138.01 176.31 147.55 176.76 142.44 154.8"/><g class="cls-32"><path class="cls-33" d="M291,293.16c-.61,0-1.23,0-1.87,0h0l-9.63-.41a40.86,40.86,0,0,1-16.66-4.4A50.51,50.51,0,0,1,249.13,278a68.65,68.65,0,0,1-10.48-14.45,84,84,0,0,1-5.15-11.23L213.66,252l7.77-24.36h-6.82L224.71,196l5.73-.06.36-1.33h0L231,194l.07-.22c.14-.51.29-1,.44-1.51.09-.3.35-1.1.35-1.1.15-.46.3-.93.46-1.41l.1-.3.3-.82c.16-.45.32-.9.49-1.35s.28-.73.42-1.09.36-.9.54-1.34l.18-.45c.08-.17.54-1.26.63-1.45l.22-.48.52-1.12c.2-.42.39-.83.59-1.24l.26-.53.29-.56c.22-.42.42-.81.63-1.2l.6-1.09q.33-.6.69-1.2l.34-.61c.08-.12.15-.24.23-.35.63-1.05,1.26-2,1.89-3l.36-.53c.68-1,1.34-1.88,2-2.75l.29-.39c.51-.65,1-1.29,1.57-1.91.17-.21.35-.41.54-.61l.64-.73c.78-.86,1.58-1.69,2.37-2.47l.26-.26.72-.67s.55-.52.68-.63c.55-.5,1.12-1,1.7-1.47l.31-.25,1.47-1.16.83-.6.6-.44,1.16-.78c.39-.26.8-.52,1.21-.77l.71-.43c.49-.29,1-.56,1.44-.82l.43-.24.24-.13c.62-.32,1.25-.64,1.89-.94l.45-.2c.53-.24,1.13-.5,1.74-.75l.59-.23.38-.15.86-.32,1.11-.37.14,0,1.38-.43.91-.25.1,0,.58-.15.63-.14.13,0,.92-.2c.48-.11,1-.2,1.48-.28l.81-.14.4-.07,1.12-.13.39,0,.6-.07c.64-.06,1.3-.11,2-.15l.19,0H280l8.91-.38.17,0h.71l1.85,0c.43,0,.85,0,1.28,0A44.52,44.52,0,0,1,320,158.08a50,50,0,0,1,9.64,10.56,57.92,57.92,0,0,1,6.65,13l1.82,5-22.94,21-6.23.09-3.86,12.48,3.33,0-3.94,12.77,10.31.13,24.41,18.71-1.57,5.28a49.61,49.61,0,0,1-7.29,14.87,51.7,51.7,0,0,1-24.08,18.28,45.38,45.38,0,0,1-14.14,2.81Zm1.09-96.94L292,196a13.46,13.46,0,0,0-3.1-3.37,10.36,10.36,0,0,0-1.88-1.14,12.94,12.94,0,0,0-2.76,2.32,18.65,18.65,0,0,0-1.81,2.35Z" transform="translate(-52.34 -109.16)"/></g><path class="cls-34" d="M310.75,243.12q.31-.94.6-2l-9.66-.13c-.2.73-.43,1.44-.66,2.12l-.24.63c-.17.46-.34.91-.53,1.35l-.3.68c-.19.4-.37.79-.57,1.17-.11.21-.22.42-.34.63-.2.37-.41.72-.62,1.07l-.35.58c-.24.37-.49.72-.74,1.06-.11.14-.21.29-.31.43-.36.47-.73.91-1.1,1.34h0c-.38.43-.77.83-1.17,1.21-.13.13-.26.24-.4.36l-.81.71c-.17.14-.34.26-.51.39l-.76.56-.53.35-.79.49-.52.29-.63.32c-.33.16-.67.32-1,.46l-.61.24-1,.36-.57.17c-.38.11-.77.2-1.15.28l-.44.1c-.52.1-1,.17-1.55.22s-.89.07-1.33.08h-.74l9.62.25h1.37l.32,0,.32,0h.06c.51-.05,1-.12,1.56-.22h.07l.34-.08c.39-.08.78-.18,1.17-.29l.2,0,.38-.14.64-.19.39-.16.29-.11.3-.13,1-.47c.12-.07.25-.11.37-.18a2,2,0,0,0,.25-.14,5.39,5.39,0,0,0,.52-.3c.27-.15.54-.31.8-.49l.52-.34.31-.21.47-.37.34-.25.15-.13c.28-.23.55-.47.82-.72l.4-.36.1-.09c.36-.35.73-.73,1.08-1.12,0,0,0,0,0,0,.35-.38.68-.78,1-1.2l.08-.12c.12-.15.22-.32.34-.47.24-.34.47-.67.7-1a2.43,2.43,0,0,0,.14-.2c.09-.13.16-.28.24-.41s.26-.4.38-.62.15-.29.23-.43.23-.43.34-.65.18-.33.26-.5.2-.44.3-.66.21-.46.31-.7.11-.22.15-.34c.14-.32.25-.67.38-1s.16-.42.24-.65C310.7,243.24,310.73,243.19,310.75,243.12Z" transform="translate(-52.34 -109.16)"/><path class="cls-35" d="M307.6,191.38a21.52,21.52,0,0,0-5-5.39,19.13,19.13,0,0,0-11.16-3.84h-.82l-9.61.25h.82a19.24,19.24,0,0,1,5.55.92,18.72,18.72,0,0,1,5.58,2.89,21.55,21.55,0,0,1,5,5.36,30.66,30.66,0,0,1,3.73,8.31l9.66-.13A30.8,30.8,0,0,0,307.6,191.38Z" transform="translate(-52.34 -109.16)"/><polygon class="cls-36" points="215.93 119.19 206.36 119.14 234.94 119.03 244.57 119.08 215.93 119.19"/><polygon class="cls-37" points="243.89 110.49 234.26 110.5 205.94 110.49 215.51 110.48 243.89 110.49"/><path class="cls-38" d="M275.37,281.57a42.91,42.91,0,0,1-11.58-8.77,61.21,61.21,0,0,1-9.27-12.86A80.18,80.18,0,0,1,248,244.17l-9.53-.15A80.34,80.34,0,0,0,245,259.69a61.07,61.07,0,0,0,9.26,12.77,42.79,42.79,0,0,0,11.55,8.72,32.76,32.76,0,0,0,13.42,3.54l9.61.42A32.92,32.92,0,0,1,275.37,281.57Z" transform="translate(-52.34 -109.16)"/><path class="cls-39" d="M246.26,201.06l.33-1.45c.06-.24.12-.49.17-.73l.39-1.52.15-.58c.1-.35.21-.7.31-1.05s.24-.87.38-1.3.22-.7.33-1,.27-.83.4-1.24.25-.71.38-1.06.28-.81.43-1.21l.4-1c.15-.4.31-.8.48-1.19s.28-.68.43-1,.33-.76.5-1.14.31-.69.47-1,.34-.74.52-1.1.33-.67.5-1l.58-1.1c.16-.31.33-.62.5-.92l.63-1.11.45-.76c.55-.93,1.13-1.84,1.73-2.72.1-.15.21-.3.31-.46.6-.86,1.2-1.7,1.84-2.52l.13-.18c.66-.85,1.34-1.66,2.05-2.46l.39-.45q1-1.14,2.13-2.22c.3-.3.61-.59.93-.88l.39-.37c.48-.43,1-.86,1.46-1.27l.27-.22,1.24-1,.53-.39,1-.73.59-.4,1-.67.59-.36,1.17-.66.5-.28q.82-.43,1.68-.84l.38-.17q.69-.32,1.38-.6l.66-.25c.38-.15.76-.3,1.15-.43l.75-.25,1.11-.34.78-.22,1.13-.28.79-.17,1.21-.23c.24,0,.49-.09.74-.12.46-.07.93-.13,1.4-.18a5.93,5.93,0,0,1,.59-.07c.68-.07,1.37-.12,2.06-.15h0l-9.58.41h-.05c-.67,0-1.34.08-2,.15l-.6.07-1.13.13-.25.05-.75.12-1.21.23-.76.17c-.21.05-.42.08-.62.14l-.54.14-.76.21-1.13.35-.72.24-.3.1c-.3.1-.6.22-.89.34l-.62.23c-.5.21-1,.42-1.49.65-.09,0-.18.07-.27.12l0,0c-.56.26-1.11.53-1.65.82l-.1,0-.38.21-1.18.67-.59.37c-.35.21-.69.42-1,.65l-.62.41c-.12.08-.24.15-.35.24l-.65.47-.55.4c-.41.31-.81.63-1.21.95l-.29.23c-.49.41-1,.83-1.45,1.26l-.42.39c-.25.23-.51.46-.76.71-.05,0-.09.1-.14.14-.73.71-1.43,1.45-2.12,2.21l-.42.46-.62.7c-.48.56-.95,1.14-1.41,1.73l0,0a1.13,1.13,0,0,1-.1.13c-.63.82-1.24,1.66-1.83,2.51-.1.16-.21.31-.32.46-.59.88-1.16,1.78-1.72,2.7,0,.08-.1.15-.14.23s-.21.36-.31.53l-.62,1.08-.52,1-.56,1.06c-.08.17-.18.34-.26.5l-.24.5c-.18.36-.35.73-.53,1.1l-.46,1-.21.45c-.1.23-.19.46-.29.68l-.28.63c-.05.13-.1.27-.16.4-.16.39-.31.78-.47,1.18l-.39,1-.45,1.22c-.08.24-.17.48-.26.73,0,.09-.06.19-.1.29l-.42,1.28c-.1.33-.21.66-.31,1s-.27.92-.4,1.38c-.08.25-.16.5-.23.76,0,.07,0,.14-.05.2-.06.21-.11.41-.16.62s-.18.65-.26,1-.08.34-.13.51-.11.48-.17.72-.09.39-.14.58-.12.58-.19.87l-.15.69a2.38,2.38,0,0,1-.05.26q-.19.92-.36,1.83l9.53-.11c.13-.7.27-1.41.41-2.11Z" transform="translate(-52.34 -109.16)"/><g class="cls-2"><g class="cls-40"><path class="cls-41" d="M244.7,228.44l-9.52-.05c-.07-.73-.13-1.46-.19-2.19s-.1-1.46-.13-2.19-.06-1.46-.08-2.19,0-1.45,0-2.18h9.53c0,.74,0,1.47,0,2.2s0,1.47.08,2.2.08,1.47.14,2.21.11,1.46.18,2.2Z" transform="translate(-52.34 -109.16)"/></g></g><polygon class="cls-36" points="186.07 119.3 176.55 119.25 182.84 119.22 192.36 119.27 186.07 119.3"/><polygon class="cls-37" points="191.94 110.47 182.41 110.48 172.54 110.47 182.04 110.47 191.94 110.47"/><polygon class="cls-42" points="182.04 110.47 172.54 110.47 177.55 94.76 187.07 94.65 182.04 110.47"/><path class="cls-43" d="M290.19,284.67a32,32,0,0,1-13-2.81A40.59,40.59,0,0,1,265,273.34a59.38,59.38,0,0,1-9.74-13A79.52,79.52,0,0,1,248.46,244l-.11-.36-14.3.15L238.77,229l6.48,0-.05-.55q-.1-1.09-.18-2.19c-.06-.73-.1-1.46-.14-2.19s-.06-1.46-.08-2.19,0-1.46,0-2.19v-.5h-9.71l4.7-14.81,6.35.05.07-.42a78.8,78.8,0,0,1,5.7-18.47,60,60,0,0,1,9.82-15.33,42.36,42.36,0,0,1,13.51-10.26,36.45,36.45,0,0,1,15.57-3.44l1.2,0a36.61,36.61,0,0,1,11.9,2.35A36.2,36.2,0,0,1,314,164.67a41.78,41.78,0,0,1,8,8.77,49.7,49.7,0,0,1,5.55,10.82L311.6,198.85a31,31,0,0,0-3.58-7.74,22,22,0,0,0-5.1-5.52,19.65,19.65,0,0,0-5.74-3,20,20,0,0,0-5.71-.95h-.35a17.54,17.54,0,0,0-7.53,1.65,20.21,20.21,0,0,0-6.33,4.76,30.88,30.88,0,0,0-4.75,7.12,46.41,46.41,0,0,0-3.19,8.75l-.16.62,31.14.24-4.44,14.37-28.51,0v.5c0,.87,0,1.69,0,2.47s0,1.53.08,2.25.08,1.41.13,2.08.11,1.33.18,2l.05.45,28.42-.1-4.46,14.44-20,.22.32.7a38.09,38.09,0,0,0,3.63,6.34,26.25,26.25,0,0,0,4.53,4.87,18.68,18.68,0,0,0,5.36,3.1,16.68,16.68,0,0,0,5.78,1h.32a18.26,18.26,0,0,0,5.84-1.08,19.74,19.74,0,0,0,5.73-3.23,22.75,22.75,0,0,0,5-5.6,30.17,30.17,0,0,0,3.35-7.52L328.7,255.1a41.22,41.22,0,0,1-5.95,12,43.1,43.1,0,0,1-20.09,15.25,36.72,36.72,0,0,1-11.48,2.29Z" transform="translate(-52.34 -109.16)"/><path class="cls-44" d="M290.79,157l1.19,0a35.62,35.62,0,0,1,21.67,8.09,41.55,41.55,0,0,1,7.9,8.66,49.14,49.14,0,0,1,5.38,10.4L311.83,198a30.67,30.67,0,0,0-3.39-7.12,22.6,22.6,0,0,0-5.22-5.64,19.81,19.81,0,0,0-5.89-3.06,20.37,20.37,0,0,0-5.85-1h-.36a18.18,18.18,0,0,0-7.74,1.69,20.77,20.77,0,0,0-6.49,4.89,31,31,0,0,0-4.82,7.23,46.68,46.68,0,0,0-3.24,8.84l-.32,1.24h1.28l29.84.23-4.14,13.38-27.64,0h-1v1c0,.87,0,1.7,0,2.48s0,1.54.08,2.27.08,1.42.13,2.09.12,1.34.19,2l.1.89h.9l27.28-.1-4.15,13.44-18.83.21-1.54,0,.64,1.39a36.38,36.38,0,0,0,3.68,6.43,26.25,26.25,0,0,0,4.61,5,19.13,19.13,0,0,0,5.51,3.19,17.14,17.14,0,0,0,5.95,1.05h.32a18.71,18.71,0,0,0,6-1.11,20.34,20.34,0,0,0,5.87-3.31,23.15,23.15,0,0,0,5.07-5.72,30.22,30.22,0,0,0,3.19-7l16.23,12.44a40.49,40.49,0,0,1-5.77,11.53,42.6,42.6,0,0,1-19.86,15.08,36.05,36.05,0,0,1-11.33,2.26l-1,0a31.3,31.3,0,0,1-12.83-2.77,40.1,40.1,0,0,1-12-8.41,59.09,59.09,0,0,1-9.66-12.94,78.85,78.85,0,0,1-6.78-16.17l-.22-.72H248l-13.23.15,4.4-13.86,5.57,0h1.09l-.1-1.09c-.07-.73-.13-1.45-.19-2.18s-.09-1.45-.13-2.17-.06-1.46-.08-2.18,0-1.45,0-2.18v-1h-9.53l4.39-13.81,5.55,0h.84l.15-.83a78.25,78.25,0,0,1,5.66-18.35,59.51,59.51,0,0,1,9.74-15.2,41.62,41.62,0,0,1,13.35-10.14,35.78,35.78,0,0,1,15.36-3.4Zm0-1A36.94,36.94,0,0,0,275,159.44a42.78,42.78,0,0,0-13.66,10.38,60.91,60.91,0,0,0-9.91,15.45,79.53,79.53,0,0,0-5.73,18.59l-6.29,0-5,15.81h9.9c0,.74,0,1.47,0,2.2s0,1.47.08,2.2.08,1.47.14,2.21.11,1.46.18,2.2l-6.29,0-5,15.87,14.61-.16a80.32,80.32,0,0,0,6.87,16.37,60.06,60.06,0,0,0,9.82,13.16A41.32,41.32,0,0,0,277,282.32a32.4,32.4,0,0,0,13.24,2.85l1,0a37.69,37.69,0,0,0,11.65-2.32,43.82,43.82,0,0,0,11.09-6,43.14,43.14,0,0,0,9.23-9.4,41.67,41.67,0,0,0,6.12-12.49l-17.93-13.74a29.54,29.54,0,0,1-3.5,8.09,22.07,22.07,0,0,1-4.84,5.48,19.44,19.44,0,0,1-5.58,3.15,18,18,0,0,1-5.69,1.05h-.31a16.15,16.15,0,0,1-5.61-1,18.15,18.15,0,0,1-5.21-3,24.87,24.87,0,0,1-4.44-4.78,35.8,35.8,0,0,1-3.58-6.25l19.56-.22,4.76-15.43-28.64.1q-.11-.94-.18-1.95c0-.66-.1-1.35-.13-2.06s-.06-1.46-.08-2.24,0-1.59,0-2.46l28.38,0L301,204.29l-31.18-.24A46.16,46.16,0,0,1,273,195.4a30.3,30.3,0,0,1,4.67-7,19.7,19.7,0,0,1,6.17-4.65,17.14,17.14,0,0,1,7.32-1.6h.34A19.13,19.13,0,0,1,302.62,186a21.52,21.52,0,0,1,5,5.39,30.8,30.8,0,0,1,3.75,8.37L328.1,184.4a50.37,50.37,0,0,0-5.73-11.24,42.17,42.17,0,0,0-8.09-8.88A36.53,36.53,0,0,0,292,156l-1.22,0Z" transform="translate(-52.34 -109.16)"/><polygon class="cls-45" points="181.03 135.17 171.53 135.01 176.55 119.25 186.07 119.3 181.03 135.17"/><g class="cls-46"><path class="cls-33" d="M323.66,293.78A13.34,13.34,0,0,1,311,280.58v-3.69l-.94-.23a58.78,58.78,0,0,1-15.68-6.41c-1.22-.71-2.43-1.49-3.6-2.3-4.72-3.29-6.4-10.16-4-16.35l3.84-9.88a15.87,15.87,0,0,1,10.23-9.13l-.28-.19-.85-.62c-.42-.32-.83-.65-1.23-1l-.12-.1c-.22-.18-.44-.36-.65-.55-.43-.38-.84-.78-1.24-1.17l-.09-.08-.42-.41-.27-.28c-.43-.45-.87-1-1.31-1.5l-.18-.2-.12-.15c-.49-.62-1-1.3-1.47-2.05l-.39-.62-.05-.1c-.3-.48-.61-1-.89-1.54q-.19-.36-.36-.72l-.17-.34c-.13-.26-.27-.55-.41-.86s-.16-.39-.23-.58-.22-.56-.33-.86c-.19-.5-.36-1-.52-1.48-.06-.16-.13-.36-.19-.57s-.12-.42-.17-.64c-.13-.48-.26-1-.38-1.51-.07-.33-.15-.69-.22-1.06-.11-.56-.2-1.12-.29-1.69l0-.21c0-.25-.08-.51-.11-.78s0-.29-.06-.46c-.05-.41-.09-.85-.12-1.3l-.09-1.23c0-.52,0-1-.05-1.42s0-.91,0-1.37,0-.74,0-1.1v-.2h-.09l.23-2.9.19-2.79H288v-.05c.06-.46.13-.88.2-1.31,0-.11,0-.27.06-.42s0-.21.08-.37c.07-.4.15-.81.24-1.21,0-.18.06-.33.09-.48l.09-.34c.08-.36.19-.79.3-1.22,0-.18.17-.67.17-.67l0-.08c.15-.52.33-1.12.52-1.71l.17-.5c.29-.82.6-1.63.92-2.41l.45-1c.19-.42.39-.87.61-1.29.11-.23.23-.45.36-.67l.07-.13.4-.73,0,0c.1-.2.22-.41.33-.6.29-.48.58-.93.88-1.38l.06-.08.3-.47c.55-.79,1.06-1.48,1.59-2.13l.38-.45c.12-.15.27-.31.42-.47.47-.53.95-1,1.42-1.52l.59-.58.49-.48c.44-.4.89-.77,1.34-1.14l.4-.33c.66-.52,1.34-1,2-1.46l.44-.28.52-.32c.55-.34,1.13-.67,1.71-1l.58-.32.39-.18a3.51,3.51,0,0,1,.43-.22c.33-.16.66-.3,1-.43l.38-.16.8-.34.51-.21c.37-.13.76-.26,1.15-.37l.1,0v-1.92a13.35,13.35,0,0,1,12.66-13.2l5.87-.24,3.84.11c6.35.19,11.32,5.94,11.32,13.1v2.08l1,.33a51.34,51.34,0,0,1,6.95,3,65.07,65.07,0,0,1,6,3.55c.89.59,1.75,1.19,2.57,1.79,5,3.63,5.1,10.71,3.1,15.75l-3.38,8.5a16.09,16.09,0,0,1-9.36,8.86l.32.18a34.38,34.38,0,0,1,9,7.09A29.33,29.33,0,0,1,367,228a43.09,43.09,0,0,1,1.93,13.52,45.82,45.82,0,0,1-2.44,15.4,32.1,32.1,0,0,1-7.08,11.61A31.14,31.14,0,0,1,349,275.59a37.26,37.26,0,0,1-4.32,1.5v3.72c0,7.16-5,12.92-11.32,13.1l-3.84.11Z" transform="translate(-52.34 -109.16)"/></g><path class="cls-47" d="M310.13,240.07,299.9,240l-7.47,19.21a47,47,0,0,0,6,4.19,50.86,50.86,0,0,0,6.62,3.27A50.21,50.21,0,0,0,312,268.9a46.42,46.42,0,0,0,7,1.21v15.47l10.58.44,7.11-.21v-15.4a30.4,30.4,0,0,0,9.21-2.19,23.27,23.27,0,0,0,7.72-5.25,24.09,24.09,0,0,0,5.31-8.74,37.79,37.79,0,0,0,2-12.71,35.16,35.16,0,0,0-1.54-11,21.45,21.45,0,0,0-4.41-7.76,26.62,26.62,0,0,0-7-5.44,60.87,60.87,0,0,0-9.26-4.1l-3.24-1.07V198.78h0a37.77,37.77,0,0,1,3.71,2.62,10.43,10.43,0,0,1,1.82,1.72l10.63-.14,7.07-17.8c-1.37-1.08-2.87-2.19-4.51-3.28a56.28,56.28,0,0,0-5.25-3.1,44.33,44.33,0,0,0-5.89-2.55,34.87,34.87,0,0,0-6.39-1.56V161.29l-7.11-.21-10.58.44v13.36c-.75.07-1.49.18-2.22.31l-.09,0c-.26,0-.51.12-.76.18-.44.09-.88.18-1.31.3l-.18.05-.86.28c-.35.11-.71.21-1.05.34l-.26.11c-.3.11-.59.25-.89.37s-.59.23-.87.37l-.37.19-.26.12c-.11.06-.21.13-.32.18-.47.25-.93.52-1.39.8l-.49.3-.23.15c-.51.34-1,.71-1.5,1.1l-.25.21c-.35.29-.7.57-1,.88l-.35.34-.47.46q-.58.6-1.14,1.23a3.85,3.85,0,0,0-.27.3,1.13,1.13,0,0,0-.1.13l-.17.19c-.41.51-.81,1-1.19,1.6l-.24.37c-.25.37-.49.73-.72,1.12-.1.16-.18.33-.28.5l-.33.6c-.1.2-.21.38-.31.58-.19.37-.37.77-.54,1.17l-.21.44a1.3,1.3,0,0,1-.08.17q-.39.91-.72,1.89c0,.08-.05.17-.08.26a1,1,0,0,0-.06.16c-.17.49-.31,1-.46,1.49a.24.24,0,0,1,0,.08c0,.13-.07.27-.1.4l-.27,1.06a1.6,1.6,0,0,1-.05.21c0,.13-.05.27-.08.4-.07.35-.14.69-.2,1l-.06.29c0,.11,0,.22-.05.32-.06.36-.11.72-.16,1.08l-.06.4,0,.26-.12,1.16c0,.15,0,.29,0,.45s0,.13,0,.2,0,.19,0,.28l0,.42c0,.3,0,.6,0,.91v.32c0,.2,0,.4,0,.61s0,.62,0,.94,0,.78,0,1.16,0,.77.05,1.14c0,.06,0,.13,0,.2s0,.15,0,.23,0,.45,0,.67.06.71.1,1.06c0,.1,0,.19,0,.29,0,.29.09.57.13.86.06.45.13.89.22,1.32.05.28.11.55.18.82s.19.82.3,1.22c0,.13.06.28.1.41s.09.24.13.37c.12.39.26.77.4,1.14l.27.71c.05.12.09.24.14.35.11.26.24.5.37.75s.2.43.3.63c.21.39.44.77.66,1.14l.29.48c.35.52.71,1,1.1,1.51h0l0,0c.35.43.72.86,1.11,1.27a.76.76,0,0,0,.09.09c.14.15.3.29.45.44s.6.59.93.87l.59.5c.3.25.61.5.94.75l.67.49c.33.23.67.47,1,.69l.34.24.37.22c.16.09.3.2.47.29s.44.25.66.37l.75.43,1.24.64.79.4,1.45.67.7.31c.75.32,1.51.64,2.31.95l4.88,1.83V247.1c-1-.52-2-1.06-2.86-1.6a42.86,42.86,0,0,1-4.63-3.23,12.51,12.51,0,0,1-2.27-2.19Z" transform="translate(-52.34 -109.16)"/><path class="cls-48" d="M343.24,243.54a2,2,0,0,0,0-.25c0-.09,0-.17,0-.25V243c0-.06,0-.11,0-.16s0-.24-.05-.36,0-.19,0-.28l-.12-.47a1.42,1.42,0,0,0-.05-.22,6.84,6.84,0,0,0-.5-1.24v0a8,8,0,0,0-.64-1l-.1-.12a6.14,6.14,0,0,0-.54-.62l-.16-.14c-.06-.06-.1-.12-.16-.17s-.32-.26-.48-.39-.3-.26-.46-.38-.53-.36-.8-.54l-.38-.26-.12-.06-.11-.07-.89-.48-.47-.25c-.52-.26-1.06-.52-1.64-.77l-10.59-.08c.57.25,1.11.5,1.63.76l.47.26c.34.17.68.35,1,.54s.34.21.51.32.54.35.79.53l.47.38c.22.18.43.36.63.55s.49.5.71.76a.94.94,0,0,0,.09.12,7.12,7.12,0,0,1,.63,1,5.55,5.55,0,0,1,.29.6c.08.21.16.43.23.65,0,.07,0,.14.05.2s.08.32.11.49a2.36,2.36,0,0,1,0,.28,4.18,4.18,0,0,1,.07.51v0c0,.26,0,.52,0,.79a10,10,0,0,1-.11,1.49h0a4.81,4.81,0,0,1-.14.68h0c-.06.2-.12.39-.19.57a.5.5,0,0,1-.05.13,3.92,3.92,0,0,1-.22.51.93.93,0,0,0-.05.1,3.21,3.21,0,0,1-.19.31,3.58,3.58,0,0,1-.31.45l-.13.18a6.77,6.77,0,0,1-.52.56h0a7.49,7.49,0,0,1-.6.49l-.21.13a4.14,4.14,0,0,1-.5.3l-.25.13a5.87,5.87,0,0,1-.56.25l-.22.09c-.28.1-.56.19-.86.27l-.21.05-.75.16-.34,0-.71.09-.62.05,10.59.2h.42l.2,0c.25,0,.49,0,.73-.09l.22,0,.11,0c.26-.05.52-.1.77-.17l.16,0h0a8.35,8.35,0,0,0,.8-.25l.06,0,.06,0,.17-.08c.2-.08.39-.16.57-.25l.11,0,.12-.07.52-.31.13-.08a.18.18,0,0,1,.07-.05,6.47,6.47,0,0,0,.57-.47l0,0h0a4.45,4.45,0,0,0,.51-.56.12.12,0,0,0,.05,0,1,1,0,0,0,.09-.13l.31-.45.07-.11c0-.07.07-.14.11-.2l0-.1,0-.05c.06-.12.11-.24.16-.37a.3.3,0,0,0,0-.1s0,0,0,0l0-.07c0-.06,0-.11.05-.16a3,3,0,0,0,.12-.4h0v0c0-.1.05-.2.07-.3s.05-.23.07-.35,0-.25.05-.37,0-.25,0-.38,0-.12,0-.19,0-.13,0-.19a1.34,1.34,0,0,1,0-.2v-.19A2.17,2.17,0,0,0,343.24,243.54Z" transform="translate(-52.34 -109.16)"/><g class="cls-2"><g class="cls-49"><path class="cls-50" d="M351.66,203l-10.63.14a10.43,10.43,0,0,0-1.82-1.72,37.77,37.77,0,0,0-3.71-2.62,41.42,41.42,0,0,0-5-2.66,26.63,26.63,0,0,0-5.64-1.86l10.59-.21a27.22,27.22,0,0,1,5.66,1.87,39.54,39.54,0,0,1,5,2.69,37.37,37.37,0,0,1,3.72,2.64,10,10,0,0,1,1.82,1.73Z" transform="translate(-52.34 -109.16)"/></g></g><polygon class="cls-51" points="278.46 141.54 267.87 141.35 267.87 123.77 278.46 123.84 278.46 141.54"/><polygon class="cls-52" points="278.46 101.08 267.87 101.17 267.87 84.91 278.46 84.7 278.46 101.08"/><polygon class="cls-53" points="277.24 65.37 266.65 65.72 266.65 52.36 277.24 51.92 277.24 65.37"/><polygon class="cls-54" points="277.24 176.86 266.65 176.41 266.65 160.94 277.24 161.27 277.24 176.86"/><path class="cls-55" d="M325.9,231.16c-.79-.32-1.56-.64-2.3-1l-.71-.32-1.46-.67-.79-.4-1.22-.64-.79-.45c-.37-.21-.74-.43-1.09-.65s-.51-.31-.75-.48-.67-.45-1-.68l-.68-.5-.93-.75c-.21-.17-.41-.33-.6-.5s-.62-.58-.92-.88l-.47-.45c-.41-.44-.8-.88-1.17-1.34l-.07-.08a18.25,18.25,0,0,1-1.09-1.52c-.11-.16-.2-.33-.3-.5-.23-.37-.45-.74-.65-1.12-.11-.21-.22-.44-.32-.66s-.34-.71-.49-1.08-.2-.49-.29-.75-.27-.73-.39-1.11l-.24-.81c-.1-.39-.2-.79-.29-1.2s-.13-.56-.19-.86-.15-.86-.22-1.31c0-.29-.08-.57-.12-.87-.08-.66-.14-1.35-.19-2.05,0-.07,0-.14,0-.21-.05-.82-.07-1.66-.07-2.53,0-.55,0-1.1,0-1.65v-.1c0-.51,0-1,.08-1.51a1.64,1.64,0,0,1,0-.22c0-.23,0-.45.06-.68,0-.4.07-.79.12-1.18,0-.21.05-.43.08-.64s.1-.71.16-1.06l.12-.68c.06-.34.13-.68.2-1s.08-.4.13-.59c.09-.39.18-.77.28-1.14,0-.14.07-.28.11-.42.16-.57.33-1.13.52-1.68.27-.8.56-1.57.88-2.32.07-.16.14-.32.22-.47q.39-.9.84-1.74c.11-.21.22-.41.34-.61.31-.56.65-1.11,1-1.63.08-.13.15-.26.24-.38.43-.62.88-1.22,1.35-1.79l.39-.45c.37-.42.74-.83,1.13-1.22l.48-.48c.45-.42.9-.83,1.37-1.21l.27-.23c.56-.44,1.14-.85,1.73-1.24.16-.11.33-.21.5-.31.45-.28.92-.55,1.39-.81l.57-.29c.41-.21.83-.39,1.26-.57l.88-.38c.43-.17.87-.31,1.31-.45s.58-.2.87-.28c.49-.14,1-.25,1.5-.36l.75-.17c.76-.15,1.53-.26,2.31-.34l-10.58.35c-.75.07-1.49.18-2.22.31l-.09,0c-.26,0-.51.12-.76.18-.44.09-.88.18-1.31.3l-.18.05-.86.28c-.35.11-.71.21-1.05.34l-.26.11c-.3.11-.59.25-.89.37s-.59.23-.87.37l-.37.19-.26.12c-.11.06-.21.13-.32.18-.47.25-.93.52-1.39.8l-.49.3-.23.15c-.51.34-1,.71-1.5,1.1l-.25.21c-.35.29-.7.57-1,.88l-.35.34-.47.46q-.58.6-1.14,1.23a3.85,3.85,0,0,0-.27.3,1.13,1.13,0,0,0-.1.13l-.17.19c-.41.51-.81,1-1.19,1.6l-.24.37c-.25.37-.49.73-.72,1.12-.1.16-.18.33-.28.5l-.33.6c-.1.2-.21.38-.31.58-.19.37-.37.77-.54,1.17l-.21.44a1.3,1.3,0,0,1-.08.17q-.39.91-.72,1.89c0,.08-.05.17-.08.26a1,1,0,0,0-.06.16c-.17.49-.31,1-.46,1.49a.24.24,0,0,1,0,.08c0,.13-.07.27-.1.4l-.27,1.06a1.6,1.6,0,0,1-.05.21c0,.13-.05.27-.08.4-.07.35-.14.69-.2,1l-.06.29c0,.11,0,.22-.05.32-.06.36-.11.72-.16,1.08l-.06.4,0,.26-.12,1.16c0,.15,0,.29,0,.45s0,.13,0,.2,0,.19,0,.28l0,.42c0,.3,0,.6,0,.91v.32c0,.2,0,.4,0,.61s0,.62,0,.94,0,.78,0,1.16,0,.77.05,1.14c0,.06,0,.13,0,.2s0,.15,0,.23,0,.45,0,.67.06.71.1,1.06c0,.1,0,.19,0,.29,0,.29.09.57.13.86.06.45.13.89.22,1.32.05.28.11.55.18.82s.19.82.3,1.22c0,.13.06.28.1.41s.09.24.13.37c.12.39.26.77.4,1.14l.27.71c.05.12.09.24.14.35.11.26.24.5.37.75s.2.43.3.63c.21.39.44.77.66,1.14l.29.48c.35.52.71,1,1.1,1.51h0l0,0c.35.43.72.86,1.11,1.27a.76.76,0,0,0,.09.09c.14.15.3.29.45.44s.6.59.93.87l.59.5c.3.25.61.5.94.75l.67.49c.33.23.67.47,1,.69l.34.24.37.22c.16.09.3.2.47.29s.44.25.66.37l.75.43,1.24.64.79.4,1.45.67.7.31c.75.32,1.51.64,2.31.95l4.88,1.83,10.59.07Z" transform="translate(-52.34 -109.16)"/><g class="cls-2"><g class="cls-56"><path class="cls-57" d="M329.58,270.44,319,270.11a46.42,46.42,0,0,1-7-1.21,50.21,50.21,0,0,1-6.94-2.27,50.86,50.86,0,0,1-6.62-3.27,47,47,0,0,1-6-4.19l10.52.25a46.65,46.65,0,0,0,6,4.23,51.38,51.38,0,0,0,13.58,5.58,48.07,48.07,0,0,0,7,1.21Z" transform="translate(-52.34 -109.16)"/></g></g><path class="cls-58" d="M338.71,213.2a60.87,60.87,0,0,1,9.26,4.1,26.62,26.62,0,0,1,7,5.44,21.45,21.45,0,0,1,4.41,7.76,35.16,35.16,0,0,1,1.54,11,37.79,37.79,0,0,1-2,12.71,24.09,24.09,0,0,1-5.31,8.74,23.27,23.27,0,0,1-7.72,5.25,30.4,30.4,0,0,1-9.21,2.19v15.4l-7.11.21V270.44a48.07,48.07,0,0,1-7-1.21A51.38,51.38,0,0,1,309,263.65a46.65,46.65,0,0,1-6-4.23l7.5-19.34a12.51,12.51,0,0,0,2.27,2.19,42.86,42.86,0,0,0,4.63,3.23,44.76,44.76,0,0,0,6.27,3.18,32.05,32.05,0,0,0,7.18,2V233l-4.9-1.84a51.32,51.32,0,0,1-8.75-4.32,24.5,24.5,0,0,1-6.19-5.42,20.76,20.76,0,0,1-3.67-7.14,33.13,33.13,0,0,1-1.2-9.45,39.63,39.63,0,0,1,1.84-12.4,27.89,27.89,0,0,1,5.05-9.25,24,24,0,0,1,7.47-6,25.58,25.58,0,0,1,9.13-2.66V161.08l7.11.21V174.7a34.87,34.87,0,0,1,6.39,1.56,44.33,44.33,0,0,1,5.89,2.55,56.28,56.28,0,0,1,5.25,3.1c1.64,1.09,3.14,2.2,4.51,3.28L351.66,203a10,10,0,0,0-1.82-1.73,37.37,37.37,0,0,0-3.72-2.64,39.54,39.54,0,0,0-5-2.69,27.22,27.22,0,0,0-5.66-1.87v18.07Zm-3.24,37.71a12.44,12.44,0,0,0,3.44-.66,6.93,6.93,0,0,0,2.42-1.43,5.7,5.7,0,0,0,1.44-2.17,8,8,0,0,0,.48-2.85,7.78,7.78,0,0,0-.55-3,7.23,7.23,0,0,0-1.56-2.33,12.29,12.29,0,0,0-2.44-1.88,30.31,30.31,0,0,0-3.23-1.63v15.94Zm-4.67-40.67V193.87a10.62,10.62,0,0,0-3.09.73,6.37,6.37,0,0,0-2.24,1.51,6.09,6.09,0,0,0-1.36,2.3,9.49,9.49,0,0,0-.46,3.1,8.52,8.52,0,0,0,.46,2.92,6.82,6.82,0,0,0,1.36,2.29,10.5,10.5,0,0,0,2.24,1.86,24.42,24.42,0,0,0,3.09,1.66Z" transform="translate(-52.34 -109.16)"/><path class="cls-59" d="M329.58,286.52a.52.52,0,0,1-.35-.14.55.55,0,0,1-.15-.36V270.89a47.61,47.61,0,0,1-6.63-1.18,52,52,0,0,1-13.72-5.63,48,48,0,0,1-6.09-4.27.5.5,0,0,1-.15-.57L310,239.9a.5.5,0,0,1,.42-.32.52.52,0,0,1,.47.22,12,12,0,0,0,2.17,2.08,41.39,41.39,0,0,0,4.57,3.19,42.5,42.5,0,0,0,6.2,3.14,31.49,31.49,0,0,0,6.49,1.91V233.35l-4.57-1.73a50.67,50.67,0,0,1-8.85-4.36,24.92,24.92,0,0,1-6.31-5.53,21,21,0,0,1-3.76-7.31,33.7,33.7,0,0,1-1.22-9.59,40.28,40.28,0,0,1,1.87-12.56,28.53,28.53,0,0,1,5.13-9.41,24.47,24.47,0,0,1,7.63-6.11,25.85,25.85,0,0,1,8.86-2.67v-13a.5.5,0,0,1,.52-.5l7.1.21a.51.51,0,0,1,.49.5v13a36.51,36.51,0,0,1,6.05,1.53,45.41,45.41,0,0,1,6,2.57,55.7,55.7,0,0,1,5.3,3.14c1.51,1,3,2.11,4.54,3.3a.51.51,0,0,1,.15.58l-7.06,17.79a.51.51,0,0,1-.88.1,10.74,10.74,0,0,0-1.72-1.63,40.37,40.37,0,0,0-3.67-2.6,39.66,39.66,0,0,0-4.94-2.65,27.27,27.27,0,0,0-4.95-1.71v17.09l2.9,1a61.38,61.38,0,0,1,9.35,4.13,27.48,27.48,0,0,1,7.11,5.55,21.89,21.89,0,0,1,4.51,7.93,35.72,35.72,0,0,1,1.56,11.18,38.41,38.41,0,0,1-2,12.88,24.52,24.52,0,0,1-5.42,8.92,23.68,23.68,0,0,1-7.89,5.36,30.33,30.33,0,0,1-8.9,2.18v14.95a.51.51,0,0,1-.49.5l-7.1.21Zm-26-27.25a48.67,48.67,0,0,0,5.69,4,52,52,0,0,0,6.56,3.26,50.88,50.88,0,0,0,6.89,2.26,46.28,46.28,0,0,0,6.94,1.2.5.5,0,0,1,.45.5V285.5l6.11-.18V270.41a.49.49,0,0,1,.45-.5,29.78,29.78,0,0,0,9.06-2.15,22.79,22.79,0,0,0,7.56-5.13,23.72,23.72,0,0,0,5.2-8.56,37.51,37.51,0,0,0,1.94-12.55,34.68,34.68,0,0,0-1.51-10.87,20.91,20.91,0,0,0-4.31-7.57,26.47,26.47,0,0,0-6.85-5.35,61.16,61.16,0,0,0-9.19-4.06l-3.22-1.07a.5.5,0,0,1-.35-.47V194.06a.49.49,0,0,1,.19-.39.5.5,0,0,1,.41-.1,27.53,27.53,0,0,1,5.76,1.91,40.32,40.32,0,0,1,5.06,2.72,36.91,36.91,0,0,1,3.76,2.67c.54.43,1,.84,1.35,1.18l6.63-16.69c-1.39-1.09-2.79-2.1-4.18-3a57.17,57.17,0,0,0-5.21-3.08,43.86,43.86,0,0,0-5.82-2.51,35.17,35.17,0,0,0-6.31-1.55.5.5,0,0,1-.42-.49V161.78l-6.11-.18v12.93a.5.5,0,0,1-.45.5,25,25,0,0,0-8.95,2.6,23.61,23.61,0,0,0-7.32,5.87,27.47,27.47,0,0,0-4.95,9.08,39.22,39.22,0,0,0-1.82,12.25,32.51,32.51,0,0,0,1.18,9.31,20,20,0,0,0,3.58,7,24.43,24.43,0,0,0,6.06,5.31,50.16,50.16,0,0,0,8.68,4.27l4.88,1.84a.51.51,0,0,1,.33.47v17.71a.52.52,0,0,1-.17.38.5.5,0,0,1-.41.11,32.32,32.32,0,0,1-7.29-2.06,44.43,44.43,0,0,1-6.34-3.21,43.18,43.18,0,0,1-4.68-3.27,21.84,21.84,0,0,1-1.8-1.61Zm31.92-7.86a.51.51,0,0,1-.34-.14.48.48,0,0,1-.16-.36V235a.52.52,0,0,1,.23-.42.51.51,0,0,1,.48,0,28.4,28.4,0,0,1,3.28,1.65,12.84,12.84,0,0,1,2.54,2,7.65,7.65,0,0,1,1.66,2.49,8.12,8.12,0,0,1,.59,3.18,8.39,8.39,0,0,1-.51,3,6.25,6.25,0,0,1-1.56,2.36,7.51,7.51,0,0,1-2.6,1.54,13.23,13.23,0,0,1-3.57.69Zm.5-15.66v14.62a11.35,11.35,0,0,0,2.77-.59,6.31,6.31,0,0,0,2.25-1.33,5.16,5.16,0,0,0,1.31-2,7.44,7.44,0,0,0,.45-2.67,7.31,7.31,0,0,0-.51-2.8,6.72,6.72,0,0,0-1.45-2.17,11.86,11.86,0,0,0-2.35-1.8A24.14,24.14,0,0,0,336,235.75Zm-5.17-25a.54.54,0,0,1-.21-.05,24.62,24.62,0,0,1-3.15-1.69,11,11,0,0,1-2.35-1.95,7.39,7.39,0,0,1-1.45-2.45,9.11,9.11,0,0,1-.49-3.09,10.25,10.25,0,0,1,.48-3.26,6.85,6.85,0,0,1,1.48-2.49,7,7,0,0,1,2.4-1.62,11.25,11.25,0,0,1,3.24-.77.45.45,0,0,1,.38.13.47.47,0,0,1,.17.37v16.37a.5.5,0,0,1-.23.42A.53.53,0,0,1,330.8,210.74Zm-.5-16.31a10,10,0,0,0-2.4.63,6.13,6.13,0,0,0-2.07,1.39,5.76,5.76,0,0,0-1.25,2.12,9.14,9.14,0,0,0-.43,2.94,8.06,8.06,0,0,0,.43,2.75,6.52,6.52,0,0,0,1.26,2.13,10.08,10.08,0,0,0,2.14,1.77,21.5,21.5,0,0,0,2.32,1.29Z" transform="translate(-52.34 -109.16)"/><polygon class="cls-60" points="250.03 150.43 240.09 150 247.56 130.8 257.79 130.91 250.03 150.43"/></g></g></svg>