<svg id="Ñëîé_1" data-name="Ñëîé 1" xmlns="http://www.w3.org/2000/svg" xmlns:xlink="http://www.w3.org/1999/xlink" viewBox="0 0 2884 1860"><defs><style>.cls-1{fill:none;}.cls-2{fill:#fff;}.cls-3{clip-path:url(#clip-path);}.cls-4{fill:#dfefea;}.cls-5{fill:#deefea;}.cls-6{fill:#ddeeea;}.cls-7{fill:#dceeea;}.cls-8{fill:#dbedeb;}.cls-9{fill:#daedeb;}.cls-10{fill:#d9edeb;}.cls-11{fill:#d8eceb;}.cls-12{fill:#d7eceb;}.cls-13{fill:#d6eceb;}.cls-14{fill:#d5ebeb;}.cls-15{fill:#d4ebeb;}.cls-16{fill:#d3eaec;}.cls-17{fill:#d2eaec;}.cls-18{fill:#d1eaec;}.cls-19{fill:#d0e9ec;}.cls-20{fill:#cee9ec;}.cls-21{fill:#cde8ec;}.cls-22{fill:#cce8ec;}.cls-23{fill:#cbe8ec;}.cls-24{fill:#cae7ed;}.cls-25{fill:#c9e7ed;}.cls-26{fill:#c8e6ed;}.cls-27{fill:#c7e6ed;}.cls-28{fill:#c6e6ed;}.cls-29{fill:#c5e5ed;}.cls-30{fill:#c4e5ed;}.cls-31{fill:#c3e5ed;}.cls-32{fill:#c2e4ee;}.cls-33{fill:#c1e4ee;}.cls-34{fill:#c0e3ee;}.cls-35{fill:#bfe3ee;}.cls-36{clip-path:url(#clip-path-2);}.cls-37{fill:#aad5c0;}.cls-38{fill:#f7b58e;}.cls-39{fill:url(#linear-gradient);}.cls-40{fill:url(#linear-gradient-2);}.cls-41{fill:url(#linear-gradient-3);}.cls-42{fill:#f39e84;}.cls-43{fill:#222c53;}.cls-44{fill:url(#linear-gradient-4);}.cls-45{fill:#008789;}.cls-46{fill:#063c5c;}.cls-47{fill:url(#linear-gradient-5);}.cls-48{fill:url(#linear-gradient-6);}.cls-49{clip-path:url(#clip-path-3);}.cls-50{fill:#ddeee9;}.cls-51{fill:#dceee9;}.cls-52{fill:#dbede9;}.cls-53{fill:#daede9;}.cls-54{fill:#d9ece9;}.cls-55{fill:#d8ecea;}.cls-56{fill:#d7ecea;}.cls-57{fill:#d6ebea;}.cls-58{fill:#d5ebea;}.cls-59{fill:#d4ebea;}.cls-60{fill:#d3eaea;}.cls-61{fill:#d2eaea;}.cls-62{fill:#d1e9ea;}.cls-63{fill:#d0e9ea;}.cls-64{fill:#cfe9ea;}.cls-65{fill:#cde8eb;}.cls-66{fill:#cce8eb;}.cls-67{fill:#cbe8eb;}.cls-68{fill:#cae7eb;}.cls-69{fill:#c9e7eb;}.cls-70{fill:#c8e6eb;}.cls-71{fill:#c7e6eb;}.cls-72{fill:#c6e6eb;}.cls-73{fill:#c5e5eb;}.cls-74{fill:#c4e5eb;}.cls-75{fill:#c3e5ec;}.cls-76{fill:#c2e4ec;}.cls-77{fill:#c1e4ec;}.cls-78{fill:#c0e3ec;}.cls-79{fill:#bfe3ec;}.cls-80{fill:#091946;}.cls-81{fill:#edecec;}.cls-82{fill:#f39f85;}.cls-83{fill:#212b53;}.cls-84{fill:url(#linear-gradient-7);}.cls-85{fill:url(#linear-gradient-8);}.cls-86{fill:#01888b;}.cls-87{fill:#64c0c3;}.cls-88{fill:#00878a;}.cls-89{fill:#073c5d;}.cls-90{fill:#63c0c4;}.cls-91{fill:#00666b;}.cls-92{clip-path:url(#clip-path-4);}.cls-93{fill:#f0f7f6;}.cls-94{fill:#eff7f6;}.cls-95{fill:#eef6f6;}.cls-96{fill:#edf6f5;}.cls-97{fill:#ecf5f5;}.cls-98{fill:#ebf5f5;}.cls-99{fill:#eaf5f5;}.cls-100{fill:#e9f4f5;}.cls-101{fill:#e8f4f5;}.cls-102{fill:#e7f3f4;}.cls-103{fill:#e6f3f4;}.cls-104{fill:#e5f2f4;}.cls-105{fill:#e4f2f4;}.cls-106{fill:#e3f2f4;}.cls-107{fill:#e2f1f3;}.cls-108{fill:#e1f1f3;}.cls-109{fill:#e0f0f3;}.cls-110{fill:#dff0f3;}.cls-111{fill:#def0f3;}.cls-112{fill:#ddeff2;}.cls-113{fill:#dceff2;}.cls-114{fill:#dbeef2;}.cls-115{fill:#daeef2;}.cls-116{fill:#d9edf2;}.cls-117{fill:#d8edf2;}.cls-118{fill:#d6edf1;}.cls-119{fill:#d5ecf1;}.cls-120{fill:#d4ecf1;}.cls-121{fill:#d3ebf1;}.cls-122{fill:#d2ebf1;}.cls-123{fill:#d1ebf0;}.cls-124{fill:#d0eaf0;}.cls-125{fill:#cfeaf0;}.cls-126{fill:#cee9f0;}.cls-127{fill:#cde9f0;}.cls-128{fill:#cce8ef;}.cls-129{fill:#cbe8ef;}.cls-130{fill:#cae8ef;}.cls-131{fill:#c9e7ef;}.cls-132{fill:#c8e7ef;}.cls-133{fill:#c7e6ef;}.cls-134{fill:#c6e6ee;}.cls-135{fill:#c5e6ee;}.cls-136{fill:#c4e5ee;}.cls-137{fill:#c3e5ee;}.cls-138{fill:#c1e4ed;}.cls-139{fill:#c0e3ed;}.cls-140{fill:#bfe3ed;}.cls-141{fill:#aed7c6;}.cls-142{clip-path:url(#clip-path-5);}.cls-143{clip-path:url(#clip-path-6);}.cls-144{clip-path:url(#clip-path-7);}</style><clipPath id="clip-path"><path class="cls-1" d="M1930,803.35c-11.69,50.79,108.1,57.32,157.45,57.87a193.77,193.77,0,0,0,40.71-3.87c41.74-8.47,133.1-30.7,120.29-60.92-16.53-39-66.19-11.81-66.19-11.81s6.23-29.44-78.27-48.88-84.17,45.35-84.17,45.35S1944.7,739.54,1930,803.35Z"/></clipPath><clipPath id="clip-path-2"><path class="cls-1" d="M923.58,1191.6h-426s-23.1-29.22,0-48.89c12.75-10.85,27.8-9.73,38.74-6.54,7.13,2.08,14.23-2.73,15.79-10,2.59-12,10.57-27.74,33.5-37,22.56-9.14,36.83,4.82,45.08,19.16a6.41,6.41,0,0,0,11.59-1.18c7.15-22.64,32.07-52.65,114-52.65,104.14,0,92.57,55.36,83.26,78.38a5.31,5.31,0,0,0,6,7.24c16.06-3.43,45.88-7.89,59.25,2.61C923.58,1157.45,923.58,1191.6,923.58,1191.6Z"/></clipPath><linearGradient id="linear-gradient" x1="1902.11" y1="1126.19" x2="2389" y2="1126.19" gradientUnits="userSpaceOnUse"><stop offset="0" stop-color="#1a3474"/><stop offset="1" stop-color="#364d85"/></linearGradient><linearGradient id="linear-gradient-2" x1="1716.63" y1="1283.39" x2="2031.79" y2="1283.39" gradientUnits="userSpaceOnUse"><stop offset="0" stop-color="#1a3474"/><stop offset="1" stop-color="#4787b7"/></linearGradient><linearGradient id="linear-gradient-3" x1="1673.48" y1="1285.88" x2="1966.39" y2="1285.88" xlink:href="#linear-gradient"/><linearGradient id="linear-gradient-4" x1="649.33" y1="1272.82" x2="865.56" y2="1272.82" gradientUnits="userSpaceOnUse"><stop offset="0" stop-color="#265b9c"/><stop offset="1" stop-color="#72c1d9"/></linearGradient><linearGradient id="linear-gradient-5" x1="833.55" y1="1283.44" x2="1160.69" y2="1283.44" xlink:href="#linear-gradient-4"/><linearGradient id="linear-gradient-6" x1="920.6" y1="1285.88" x2="1213.51" y2="1285.88" xlink:href="#linear-gradient-4"/><clipPath id="clip-path-3"><polygon class="cls-1" points="1012.11 985.89 936.24 1002.77 925.8 1025.91 1023.94 1010.12 1012.11 985.89"/></clipPath><linearGradient id="linear-gradient-7" x1="1137.75" y1="1257.67" x2="1718.24" y2="1257.67" xlink:href="#linear-gradient-4"/><linearGradient id="linear-gradient-8" x1="1344.43" y1="1056.91" x2="1497.93" y2="1056.91" xlink:href="#linear-gradient-4"/><clipPath id="clip-path-4"><polygon class="cls-1" points="2138.6 620.45 2211.87 559.31 2252.13 542.83 2284.68 541.37 2138.6 620.45"/></clipPath><clipPath id="clip-path-5"><polygon class="cls-1" points="2320.68 557.11 2295.32 543.57 2139.55 620 2280.26 588.42 2320.68 557.11"/></clipPath><clipPath id="clip-path-6"><polygon class="cls-1" points="248.45 875.44 230.59 852.61 356.62 824.22 248.45 875.44"/></clipPath><clipPath id="clip-path-7"><polygon class="cls-1" points="356.62 824.22 270.64 890.14 298.69 922.21 356.62 824.22"/></clipPath></defs><title>services</title><rect class="cls-2" width="2884" height="1860"/><g class="cls-3"><rect class="cls-4" x="1918.33" y="716.3" width="10.89" height="145.07"/><rect class="cls-4" x="1929.22" y="716.3" width="10.01" height="145.07"/><rect class="cls-5" x="1939.23" y="716.3" width="10.01" height="145.07"/><rect class="cls-6" x="1949.25" y="716.3" width="10.01" height="145.07"/><rect class="cls-7" x="1959.26" y="716.3" width="10.01" height="145.07"/><rect class="cls-8" x="1969.28" y="716.3" width="10.01" height="145.07"/><rect class="cls-9" x="1979.29" y="716.3" width="10.01" height="145.07"/><rect class="cls-10" x="1989.3" y="716.3" width="10.01" height="145.07"/><rect class="cls-11" x="1999.32" y="716.3" width="10.01" height="145.07"/><rect class="cls-12" x="2009.33" y="716.3" width="10.01" height="145.07"/><rect class="cls-13" x="2019.35" y="716.3" width="10.01" height="145.07"/><rect class="cls-14" x="2029.36" y="716.3" width="10.01" height="145.07"/><rect class="cls-15" x="2039.38" y="716.3" width="10.01" height="145.07"/><rect class="cls-16" x="2049.39" y="716.3" width="10.01" height="145.07"/><rect class="cls-17" x="2059.41" y="716.3" width="10.01" height="145.07"/><rect class="cls-18" x="2069.42" y="716.3" width="10.01" height="145.07"/><rect class="cls-19" x="2079.44" y="716.3" width="10.01" height="145.07"/><rect class="cls-20" x="2089.45" y="716.3" width="10.01" height="145.07"/><rect class="cls-21" x="2099.47" y="716.3" width="10.01" height="145.07"/><rect class="cls-22" x="2109.48" y="716.3" width="10.01" height="145.07"/><rect class="cls-23" x="2119.5" y="716.3" width="10.01" height="145.07"/><rect class="cls-24" x="2129.51" y="716.3" width="10.01" height="145.07"/><rect class="cls-25" x="2139.53" y="716.3" width="10.01" height="145.07"/><rect class="cls-26" x="2149.54" y="716.3" width="10.01" height="145.07"/><rect class="cls-27" x="2159.56" y="716.3" width="10.01" height="145.07"/><rect class="cls-28" x="2169.57" y="716.3" width="10.01" height="145.07"/><rect class="cls-29" x="2179.58" y="716.3" width="10.01" height="145.07"/><rect class="cls-30" x="2189.6" y="716.3" width="10.01" height="145.07"/><rect class="cls-31" x="2199.61" y="716.3" width="10.01" height="145.07"/><rect class="cls-32" x="2209.63" y="716.3" width="10.01" height="145.07"/><rect class="cls-33" x="2219.64" y="716.3" width="10.01" height="145.07"/><rect class="cls-34" x="2229.66" y="716.3" width="10.01" height="145.07"/><rect class="cls-35" x="2239.67" y="716.3" width="10.01" height="145.07"/><rect class="cls-35" x="2249.69" y="716.3" width="11.59" height="145.07"/></g><g class="cls-36"><path class="cls-4" d="M923.58,1191.6v0Z"/><rect class="cls-4" x="909.95" y="1054.49" width="13.63" height="137.11"/><rect class="cls-5" x="896.32" y="1054.49" width="13.63" height="137.11"/><rect class="cls-6" x="882.69" y="1054.49" width="13.63" height="137.11"/><rect class="cls-7" x="869.05" y="1054.49" width="13.63" height="137.11"/><rect class="cls-8" x="855.42" y="1054.49" width="13.63" height="137.11"/><rect class="cls-9" x="841.79" y="1054.49" width="13.63" height="137.11"/><rect class="cls-10" x="828.15" y="1054.49" width="13.63" height="137.11"/><rect class="cls-11" x="814.52" y="1054.49" width="13.63" height="137.11"/><rect class="cls-12" x="800.89" y="1054.49" width="13.63" height="137.11"/><rect class="cls-13" x="787.26" y="1054.49" width="13.63" height="137.11"/><rect class="cls-14" x="773.62" y="1054.49" width="13.63" height="137.11"/><rect class="cls-15" x="759.99" y="1054.49" width="13.63" height="137.11"/><rect class="cls-16" x="746.36" y="1054.49" width="13.63" height="137.11"/><rect class="cls-17" x="732.73" y="1054.49" width="13.63" height="137.11"/><rect class="cls-18" x="719.09" y="1054.49" width="13.63" height="137.11"/><rect class="cls-19" x="705.46" y="1054.49" width="13.63" height="137.11"/><rect class="cls-20" x="691.83" y="1054.49" width="13.63" height="137.11"/><rect class="cls-21" x="678.19" y="1054.49" width="13.63" height="137.11"/><rect class="cls-22" x="664.56" y="1054.49" width="13.63" height="137.11"/><rect class="cls-23" x="650.93" y="1054.49" width="13.63" height="137.11"/><rect class="cls-24" x="637.3" y="1054.49" width="13.63" height="137.11"/><rect class="cls-25" x="623.66" y="1054.49" width="13.63" height="137.11"/><rect class="cls-26" x="610.03" y="1054.49" width="13.63" height="137.11"/><rect class="cls-27" x="596.4" y="1054.49" width="13.63" height="137.11"/><rect class="cls-28" x="582.77" y="1054.49" width="13.63" height="137.11"/><rect class="cls-29" x="569.13" y="1054.49" width="13.63" height="137.11"/><rect class="cls-30" x="555.5" y="1054.49" width="13.63" height="137.11"/><rect class="cls-31" x="541.87" y="1054.49" width="13.63" height="137.11"/><rect class="cls-32" x="528.24" y="1054.49" width="13.63" height="137.11"/><rect class="cls-33" x="514.6" y="1054.49" width="13.63" height="137.11"/><rect class="cls-34" x="500.97" y="1054.49" width="13.63" height="137.11"/><rect class="cls-35" x="487.34" y="1054.49" width="13.63" height="137.11"/><rect class="cls-35" x="474.5" y="1054.49" width="12.83" height="137.11"/></g><path class="cls-37" d="M1794.19,528.18a172.2,172.2,0,0,1,172.2,172.2c0,35.4-10.65,55.57-30.86,95.67-29.41,58.37,19.11,83.07,19.11,83.07s-127.21.88-160.45.88c-95.1,0-172.2-84.51-172.2-179.61A172.2,172.2,0,0,1,1794.19,528.18Z"/><path class="cls-38" d="M2409.38,950.77c-3.61.16-6.66,4.56-6.66,4.56l-29.47,39.37-11.37-12.35c-9.37-10.19-43.51,15.57-36.34,3.72l49.71-69.19s4.92-8.14,17.1-11.51c14.42-4,88.45-16,88.45-16s11.51.32,3.06,10.43-44.48,16.8-44.48,16.8-3,1.06-1.61,1.37c3.32.75,34.49-6.07,42.29-11.88s31.11-43,47.57-42.33c6.67.28-41.47,67.08-41.47,67.08s-4.21,8-15.89,9.51S2413,950.61,2409.38,950.77Z"/><path class="cls-39" d="M2016.8,1272.82S2237,1312.88,2389,978.07h-65s-205,221.33-363.55,95.44S2016.8,1272.82,2016.8,1272.82Z"/><path class="cls-40" d="M2031.79,1560.69,2016,1208c1.36-74.62-52.09-151.56-95.09-201.64-.9-.6-2.16,0-3.26,0-33.11,0-89.16-3.41-162.38,65.64-66.26,62.48-29.52,421.07-18.31,488.72Z"/><path class="cls-38" d="M1966.39,1500.19s28.77-17,66.33-17c17.85,0,36.43,12.69,51,26,11.71,10.7,4.23,26.78-11.63,26.78H1942.45Z"/><path class="cls-41" d="M1840.37,1041.11c-81.9-54.36-166.89,159.36-166.89,271.76s276.23,226.49,276.23,226.49l16.68-39.17s-149.86-149.87-177.11-204.36C1815.86,1207.1,1895.78,1077.88,1840.37,1041.11Z"/><polygon class="cls-42" points="1008.7 908.57 1007.41 1028.47 941.03 1028.47 930.06 977.38 996.11 908.57 1008.7 908.57"/><path class="cls-38" d="M893.48,989.88c-49.2-65.77-38.53-161.06-38.53-161.06l47-29,73.45,28.46,15.38,77.23c.17.67-6.48,1.34-6.32,2,6.56,28.76-5.06,46.21-26.18,66.81C945.2,987.07,912,1005.78,893.48,989.88Z"/><path class="cls-43" d="M969.75,856.48c-7.05-11.82-14.18-41.83-26.57-35.81-9,4.39-41.18,15.46-52.14,18.73-26.1,7.8-75.68,11.49-87.55-28.23-5.93-19.86,8.21-42.74,18.89-51.47,10.48-8.58,24.07-12.38,37.6-11.76,31.75,1.46,73,7.31,90.78,4.64,26.92-4.05,54-5.41,60.17,16.43,6.55,23.33,4.87,61.86.09,87.45a127.35,127.35,0,0,1-15.88,41.89h0Z"/><path class="cls-44" d="M859.88,1092.52S793,1268.11,748.38,1308.46s-99.05,66.8-99.05,66.8l36.09,77.86s152.46-41.6,174.6-114.36C872.56,1297.58,859.88,1092.52,859.88,1092.52Z"/><path class="cls-45" d="M887.79,961.52l.05-9.29-17.39-.09a11.61,11.61,0,0,1-11.33-13.82l3.39-13.17-4.86-23.41L850,936.54a20.89,20.89,0,0,0,20.39,24.88Z"/><path class="cls-46" d="M885.49,964.67l12.25-.21a8.25,8.25,0,0,0,8.09-8.37h0a8.25,8.25,0,0,0-8.37-8.09l-12.25.21a8.25,8.25,0,0,0-8.09,8.37h0A8.25,8.25,0,0,0,885.49,964.67Z"/><path class="cls-47" d="M841.2,1560.69l-7.53-338.2c-1.36-74.62,7.93-168.61,132.46-216.13,1-.38,2.16,0,3.26,0,33.11,0,89.16-3.41,162.38,65.64,66.26,62.48-.49,421.07-11.69,488.72Z"/><path class="cls-38" d="M920.6,1500.19s-28.77-17-66.33-17c-17.85,0-36.43,12.69-51,26-11.71,10.7-4.23,26.78,11.63,26.78H944.53Z"/><path class="cls-48" d="M1046.61,1041.11c81.9-54.36,166.89,159.36,166.89,271.76s-276.23,226.49-276.23,226.49l-16.68-39.17s149.86-149.87,177.11-204.36C1071.13,1207.1,991.2,1077.88,1046.61,1041.11Z"/><g class="cls-49"><polygon class="cls-50" points="1023.94 1025.91 1023.94 1010.09 1023.94 1025.91 1023.94 1025.91"/><polygon class="cls-50" points="1020.67 1025.91 1020.67 985.89 1023.94 985.89 1023.94 1010.11 1023.94 1025.91 1020.67 1025.91"/><rect class="cls-51" x="1017.4" y="985.9" width="3.27" height="40.02"/><rect class="cls-52" x="1014.13" y="985.9" width="3.27" height="40.02"/><rect class="cls-53" x="1010.86" y="985.9" width="3.27" height="40.02"/><rect class="cls-54" x="1007.59" y="985.9" width="3.27" height="40.02"/><rect class="cls-55" x="1004.31" y="985.9" width="3.27" height="40.02"/><rect class="cls-56" x="1001.04" y="985.9" width="3.27" height="40.02"/><rect class="cls-57" x="997.77" y="985.9" width="3.27" height="40.02"/><rect class="cls-58" x="994.5" y="985.9" width="3.27" height="40.02"/><rect class="cls-59" x="991.23" y="985.9" width="3.27" height="40.02"/><rect class="cls-60" x="987.96" y="985.9" width="3.27" height="40.02"/><rect class="cls-61" x="984.69" y="985.9" width="3.27" height="40.02"/><rect class="cls-62" x="981.41" y="985.9" width="3.27" height="40.02"/><rect class="cls-63" x="978.14" y="985.9" width="3.27" height="40.02"/><rect class="cls-64" x="974.87" y="985.9" width="3.27" height="40.02"/><rect class="cls-65" x="971.6" y="985.9" width="3.27" height="40.02"/><rect class="cls-66" x="968.33" y="985.9" width="3.27" height="40.02"/><rect class="cls-67" x="965.06" y="985.9" width="3.27" height="40.02"/><rect class="cls-68" x="961.78" y="985.9" width="3.27" height="40.02"/><rect class="cls-69" x="958.51" y="985.9" width="3.27" height="40.02"/><rect class="cls-70" x="955.24" y="985.9" width="3.27" height="40.02"/><rect class="cls-71" x="951.97" y="985.9" width="3.27" height="40.02"/><rect class="cls-72" x="948.7" y="985.9" width="3.27" height="40.02"/><rect class="cls-73" x="945.43" y="985.9" width="3.27" height="40.02"/><rect class="cls-74" x="942.16" y="985.9" width="3.27" height="40.02"/><rect class="cls-75" x="938.88" y="985.9" width="3.27" height="40.02"/><rect class="cls-76" x="935.61" y="985.9" width="3.27" height="40.02"/><rect class="cls-77" x="932.34" y="985.9" width="3.27" height="40.02"/><rect class="cls-78" x="929.07" y="985.9" width="3.27" height="40.02"/><polygon class="cls-79" points="925.8 1025.91 925.8 1025.91 925.8 985.89 929.07 985.89 929.07 1025.91 925.8 1025.91"/><polygon class="cls-79" points="925.8 985.89 925.8 1025.91 925.8 985.89 925.8 985.89"/></g><path class="cls-45" d="M908.67,752.31c4.82-7.66,36.59-5.66,36.59-5.66,36.24,0,65.73,33.49,65.73,69.73v61.84h-10.45V816.38c0-30.48-24.8-61.27-55.27-61.27Z"/><circle class="cls-45" cx="1001.15" cy="894.32" r="36.92"/><rect class="cls-80" x="411.07" y="1536.7" width="490.42" height="22.81"/><polygon class="cls-80" points="285.61 1300.99 667.68 1300.99 793.2 1559.51 411.06 1559.51 285.61 1300.99"/><circle class="cls-81" cx="521.77" cy="1412.03" r="15.33"/><polygon class="cls-82" points="1382.12 966.63 1382.12 1052.67 1422.99 1115.01 1459 1055.34 1459 967.98 1382.12 966.63"/><path class="cls-83" d="M1565.67,791c2.37-24.27,7.49-39.25.39-63a100.06,100.06,0,0,0-14.08-28.6c-59.6-85.09-114.95-51.17-129-40.3V931.43c3.08-1.58,13.48.84,48.63,13.21,72,25.36,122-8,122-8S1552.69,924.09,1565.67,791Z"/><path class="cls-83" d="M1423,660.51v70.55l.51-70.06Z"/><path class="cls-83" d="M1280.27,791c-2.37-24.27-7.49-39.25-.39-63a100.06,100.06,0,0,1,14.08-28.6c59.6-85.09,118.95-51.17,133-40.3l-4,272.29c-3.08-1.58-13.48.84-48.63,13.21-72,25.36-122-8-122-8S1293.24,924.09,1280.27,791Z"/><path class="cls-83" d="M1422.93,660.51v70.55l-.51-70.06Z"/><path class="cls-84" d="M1642.42,1303.17l-35.76-22.47L1718.24,1231l-58.19-105.18c-21.36-44.86-109.44-82.41-162.12-82.44L1423,1097.26l-69.93-56c-52.69,0-135.77,39.66-157.13,84.52L1137.75,1231l111.58,49.75-35.76,22.47-19.82,170.92,234.24-3.67,234.24,3.67Z"/><path class="cls-38" d="M1718.24,1231l23,76.09c16.8,55.51-1.13,115.12-46.46,154.41l-104.52,81.64-33.6-91.37,57.81-53.91c19-17.7,24.64-44.32,14.33-67.42l-22.17-49.7Z"/><path class="cls-38" d="M1138.89,1231l-23,76.09c-16.81,55.51,1.13,115.12,46.46,154.41l104.52,81.64,33.6-91.37-57.81-53.91c-19-17.7-24.64-44.32-14.33-67.42l22.17-49.7Z"/><path class="cls-80" d="M1169.66,1570h519l24.75-305.56a22.89,22.89,0,0,0-22.84-24.44h-524a22.89,22.89,0,0,0-22.89,22.89Z"/><polygon class="cls-85" points="1460 1010 1422.99 1098.01 1381.36 1010 1344.43 1040.33 1422.68 1103.82 1497.93 1042.33 1460 1010"/><circle class="cls-86" cx="1513.3" cy="822.34" r="25.67"/><circle class="cls-86" cx="1328.39" cy="822.34" r="25.67"/><path class="cls-38" d="M1421.6,978.07h0c-30.8,0-54-17.81-68.6-42.7a114.28,114.28,0,0,1-15.39-57.94V801.08a84.24,84.24,0,0,1,84-84h0a84.24,84.24,0,0,1,84,84v72.55a115.23,115.23,0,0,1-9.36,45.81C1481.11,954.35,1459.24,978.07,1421.6,978.07Z"/><path class="cls-83" d="M1424,707c-27.22-47.45-113,10.08-113,10.08l26.37,105.25s64.94-10.58,86.15-60c18.55,49.42,82.1,60,82.1,60L1537,717.09S1451.18,659.56,1424,707Z"/><path class="cls-86" d="M1316.67,806.76c-.37-2.71-8.57-67,26.71-107.32,18-20.64,44-31.11,77.22-31.11,33.68,0,60.08,10.52,78.46,31.28,35,39.48,27.88,101.29,27.56,103.9l-14.9-1.69c.11-.9,7.5-58.38-23.19-93-15.61-17.59-38.46-26.51-67.93-26.51-29,0-51.41,8.86-66.68,26.32-31.13,35.61-21.45,95.63-21.37,96.23Zm203-4.09"/><path class="cls-86" d="M1403.46,938.74c-1.11-.08-29.46-2.06-52.7-12a57.88,57.88,0,0,1-35.14-53.42V839h14v34.37a43.9,43.9,0,0,0,26.62,40.54c21,9,46,10.85,46.22,10.87Z"/><rect class="cls-86" x="1401.96" y="915.09" width="52" height="34" rx="8.86" ry="8.86"/><circle class="cls-2" cx="1422.99" cy="1397.65" r="15.55"/><polygon class="cls-82" points="1927.72 952.98 1911.39 1052.82 1843.4 993.4 1865.27 884.57 1927.72 952.98"/><path class="cls-83" d="M1939.41,782.15c-48.61,6.61-72.8,68.92-72.8,68.92l.55,184.43-83.29-68.88s-7.11-87.22,13.68-177.86c18-57.09,90.79-72.12,141.86-44.27,24.84,13.55,39.6,40.12,48.37,66.52,11.77,35.44,12.8,73.58,5,110.1l-28.91,135.33-45.26-48s0-22.22,9.11-55.47C1946.24,885.06,1972,777.72,1939.41,782.15Z"/><path class="cls-38" d="M1852.3,853.66c5.45-5.27,15.65-4.27,22.78,2.23s8.5,16.05,3,21.33-15.65,4.27-22.78-2.23S1846.85,858.94,1852.3,853.66Z"/><path class="cls-38" d="M1948,954.55c9.41-.29,18.14-1.83,22.7-5.9,27.15-43.26-3.77-159.89-3.77-159.89l-43.39-20-55.13,37.68-3.14,78.15a65.62,65.62,0,0,0,24.62,53.91h0C1907.34,949.22,1927.5,955.17,1948,954.55Z"/><path class="cls-83" d="M1948.58,775.77c10.39,34.85-87,77.3-87,77.3l-18.2-45.5,42.4-52,53.6,8.56S1946.81,770,1948.58,775.77Z"/><path class="cls-83" d="M1949.17,783.11c1.94,13.75,23.38,30.43,23.38,30.43l2-16.43-4.89-11.55-11-6.11S1947.24,769.36,1949.17,783.11Z"/><path class="cls-38" d="M2103.46,1505.81a11,11,0,0,0-7-11.07l-43.68-17a47.1,47.1,0,0,0-33.64-.2L1976,1496l-9.61,13.54,1.94,24c8.39-3.45,13.3-5.58,13.3-5.58l27.71-3.53s59.57,40.26,78.84-5.8c8,44.57,20.6,39.1,20.6,39.1Z"/><rect class="cls-80" x="1963.17" y="1536.7" width="490.42" height="22.81"/><polygon class="cls-80" points="2596.05 1300.99 2213.98 1300.99 2088.46 1559.51 2470.59 1559.51 2596.05 1300.99"/><circle class="cls-81" cx="2363.89" cy="1412.03" r="15.33"/><path class="cls-2" d="M1758.84,728.16l64.42-73.57a35.5,35.5,0,0,0,37.4-10.8,36,36,0,0,0,8.78-28l-10.81,12.34c-6.33,7.23-14.18,11.42-21.53,10l-18.59-16.27-.15.17c-2.67-7.19.45-15.7,6.91-23.08l10.86-12.4a36,36,0,0,0-26.69,12.4,35.43,35.43,0,0,0-5.33,39.34l-.46.52-.66-.59L1739.29,711a35.5,35.5,0,0,0-37.4,10.8,36,36,0,0,0-8.78,28l10.81-12.34c6.34-7.23,14.18-11.42,21.53-10L1744,743.72l.15-.17c2.67,7.19-.45,15.7-6.91,23.08L1726.42,779a36,36,0,0,0,26.69-12.4A35.45,35.45,0,0,0,1758.84,728.16Z"/><path class="cls-87" d="M605.45,695.79A146.39,146.39,0,0,1,751.84,842.17c0,30.1-9.06,47.24-26.23,81.33-25,49.62,16.25,70.61,16.25,70.61s-108.14.75-136.4.75c-80.85,0-146.39-71.84-146.39-152.69A146.39,146.39,0,0,1,605.45,695.79Z"/><path class="cls-88" d="M1123.48,334.48c102.13,14.88,172.86,109.74,158,211.87-5.54,38-20.13,58-48.11,97.91-40.72,58.08,7.53,92.19,7.53,92.19s-136.75-19-172.45-24.16c-102.13-14.88-171.7-117.7-156.82-219.83S1021.35,319.6,1123.48,334.48Z"/><circle class="cls-89" cx="2426.42" cy="747.88" r="121.34"/><circle class="cls-89" cx="675.74" cy="498.46" r="86.56"/><path class="cls-90" d="M1213.64,541.92c-.84-2.39-9.19-7.3-19.4-10.86a94,94,0,0,0-2.42-27.36c8.6-3.93,17.26-9,18-13.6,1.46-9.39-12.86-30.9-16.49-32.63-2.32-1.11-12,1.43-21.93,6.3a94,94,0,0,0-20.55-17.83c3.32-8.88,5.89-18.61,3.12-22.4-5.61-7.67-30.94-12.76-34.74-11.42-2.38.84-7.27,9.14-10.83,19.31a93.94,93.94,0,0,0-27.82,1.59c-3.87-8.29-8.71-16.36-13.17-17.05-9.39-1.46-30.9,12.86-32.63,16.49-1,2.16,1.09,10.69,5.31,19.85A94,94,0,0,0,1020.55,474c-8.09-2.81-16.32-4.65-19.73-2.16-7.67,5.61-12.76,30.94-11.41,34.74.76,2.14,7.54,6.31,16.29,9.71a94,94,0,0,0,1.87,30.26c-7.25,3.62-13.7,7.89-14.31,11.85-1.46,9.39,12.86,30.9,16.49,32.63,2,1,9.44-.79,17.8-4.4a94,94,0,0,0,23.29,19.89c-2.55,7.66-4.08,15.2-1.72,18.43,5.61,7.67,30.94,12.76,34.74,11.42,2.14-.76,6.33-7.57,9.74-16.35a94,94,0,0,0,29.74-2.8c3.72,7.64,8.2,14.66,12.34,15.31,9.39,1.46,30.9-12.86,32.63-16.49,1-2.17-1.11-10.77-5.38-20a93.94,93.94,0,0,0,18.14-22c8.53,3.09,17.55,5.3,21.16,2.66C1209.9,571,1215,545.71,1213.64,541.92Zm-127,23.87a42.29,42.29,0,1,1,53.38-27A42.29,42.29,0,0,1,1086.61,565.79Z"/><path class="cls-2" d="M1081.63,582a60.19,60.19,0,1,1,76-38.39A60.25,60.25,0,0,1,1081.63,582Zm37.31-113.54a59.33,59.33,0,1,0,37.84,74.89A59.4,59.4,0,0,0,1118.94,468.46Z"/><path class="cls-2" d="M1187,535c-.36-.17-.72-.34-1.08-.52a86.27,86.27,0,0,1-169.85,11.1h0c-.39,0-.79-.1-1.18-.16A87.39,87.39,0,0,0,1187,535Z"/><path class="cls-2" d="M1071.25,444.62a85.83,85.83,0,0,1,55.77-.7c.37.12.73.26,1.09.39,0-.4,0-.79,0-1.19l-.74-.26a86.94,86.94,0,0,0-56.27.63Q1071.18,444,1071.25,444.62Z"/><path class="cls-91" d="M681.1,789.1C666,799.3,623.83,805.66,603,777.88V935.74C696.44,870.15,681.1,789.1,681.1,789.1Z"/><path class="cls-88" d="M526.34,789.1c15.09,10.2,57.27,16.56,78.05-11.22V935.74C511,870.15,526.34,789.1,526.34,789.1Z"/><path class="cls-2" d="M2409.93,752.78q11.23-17.16,11.24-28.68,0-12.55-8.75-19.61t-24.26-7.07a31.49,31.49,0,0,0-17,4.79,29.67,29.67,0,0,0-11.27,12l12.06,9.51q6.41-11.1,16.89-11.1,13.72,0,13.72,11.44,0,9.65-9.58,23.78L2361,795v5.24h66.17V784.29h-37.91Z"/><path class="cls-2" d="M2493.06,759.61v-60.8h-7.86l-55.35,64.73v10.27h46v26.4h17.23v-26.4h10.2v-14.2Zm-17.23,0h-25.92l25.92-30.33Z"/><path class="cls-2" d="M705.46,530.86q-21.83,23-32.66,23-6,0-10.08-6.11t-4.11-15.35q0-19.87,13.44-55.05l23.7-4.95h1.12l-9.33,29.21q-5.79,18.1-5.79,25.85a8.45,8.45,0,0,0,1.35,5,4,4,0,0,0,3.41,1.91,12.49,12.49,0,0,0,7.32-2.66q3.69-2.66,11.62-11.52Zm-1.87-95q0,22.39-16.52,22.39a20.43,20.43,0,0,1-13.72-4.85,67.72,67.72,0,0,0,8.4-18.48q7.37,4.57,11.85,4.57A16.75,16.75,0,0,0,703.59,435.87Z"/><g class="cls-92"><polygon class="cls-93" points="2284.68 541.37 2284.68 541.37 2284.68 541.37 2284.68 541.37"/><polygon class="cls-93" points="2284.68 558.39 2281.39 541.37 2284.68 541.37 2284.68 541.37 2284.68 558.39"/><polygon class="cls-94" points="2284.68 575.42 2278.09 541.37 2281.39 541.37 2284.68 558.39 2284.68 575.42"/><polygon class="cls-95" points="2284.68 592.45 2274.8 541.37 2278.09 541.37 2284.68 575.42 2284.68 592.45"/><polygon class="cls-96" points="2284.68 594.24 2281.84 594.78 2271.51 541.37 2274.8 541.37 2284.68 592.45 2284.68 594.24"/><polygon class="cls-97" points="2281.84 594.78 2278.66 595.4 2268.21 541.37 2271.51 541.37 2281.84 594.78"/><polygon class="cls-98" points="2278.66 595.4 2275.49 596.01 2264.92 541.37 2268.21 541.37 2278.66 595.4"/><polygon class="cls-99" points="2275.49 596.01 2272.31 596.63 2261.63 541.37 2264.92 541.37 2275.49 596.01"/><polygon class="cls-100" points="2272.31 596.63 2269.14 597.24 2258.33 541.37 2261.63 541.37 2272.31 596.63"/><polygon class="cls-101" points="2269.14 597.24 2265.96 597.86 2255.04 541.37 2258.33 541.37 2269.14 597.24"/><polygon class="cls-102" points="2265.96 597.86 2262.79 598.47 2251.74 541.37 2255.04 541.37 2265.96 597.86"/><polygon class="cls-103" points="2262.79 598.47 2259.61 599.08 2248.48 541.5 2249.19 541.37 2251.74 541.37 2262.79 598.47"/><rect class="cls-104" x="2250.84" y="541.28" width="3.23" height="58.65" transform="translate(-67.37 438.16) rotate(-10.95)"/><rect class="cls-105" x="2247.67" y="541.89" width="3.23" height="58.65" transform="translate(-67.54 437.51) rotate(-10.95)"/><rect class="cls-106" x="2244.49" y="542.51" width="3.23" height="58.65" transform="translate(-67.72 436.98) rotate(-10.95)"/><rect class="cls-107" x="2241.32" y="543.12" width="3.23" height="58.65" transform="translate(-67.89 436.33) rotate(-10.95)"/><rect class="cls-108" x="2238.14" y="543.73" width="3.23" height="58.65" transform="translate(-68.07 435.72) rotate(-10.95)"/><rect class="cls-109" x="2234.97" y="544.35" width="3.23" height="58.65" transform="translate(-68.24 435.22) rotate(-10.95)"/><rect class="cls-110" x="2231.79" y="544.96" width="3.23" height="58.65" transform="translate(-68.41 434.54) rotate(-10.95)"/><rect class="cls-111" x="2228.62" y="545.58" width="3.23" height="58.65" transform="translate(-68.59 434.03) rotate(-10.95)"/><rect class="cls-112" x="2225.44" y="546.19" width="3.23" height="58.65" transform="translate(-68.76 433.37) rotate(-10.95)"/><rect class="cls-113" x="2222.27" y="546.8" width="3.23" height="58.65" transform="translate(-68.94 432.77) rotate(-10.95)"/><rect class="cls-114" x="2219.1" y="547.42" width="3.23" height="58.65" transform="translate(-69.12 432.26) rotate(-10.95)"/><rect class="cls-115" x="2215.92" y="548.03" width="3.23" height="58.65" transform="translate(-69.29 431.58) rotate(-10.95)"/><rect class="cls-116" x="2212.75" y="548.65" width="3.23" height="58.65" transform="translate(-69.47 431.07) rotate(-10.95)"/><rect class="cls-117" x="2209.57" y="549.26" width="3.23" height="58.65" transform="translate(-69.63 430.4) rotate(-10.95)"/><rect class="cls-118" x="2206.4" y="549.87" width="3.23" height="58.65" transform="translate(-69.81 429.82) rotate(-10.95)"/><rect class="cls-119" x="2203.22" y="550.49" width="3.23" height="58.65" transform="translate(-69.99 429.28) rotate(-10.95)"/><rect class="cls-120" x="2200.05" y="551.1" width="3.23" height="58.65" transform="translate(-70.16 428.64) rotate(-10.95)"/><rect class="cls-121" x="2196.87" y="551.72" width="3.23" height="58.65" transform="translate(-70.34 428.1) rotate(-10.95)"/><rect class="cls-122" x="2193.7" y="552.33" width="3.23" height="58.65" transform="translate(-70.51 427.45) rotate(-10.95)"/><rect class="cls-123" x="2190.52" y="552.94" width="3.23" height="58.65" transform="translate(-70.68 426.86) rotate(-10.95)"/><rect class="cls-124" x="2187.35" y="553.56" width="3.23" height="58.65" transform="translate(-70.86 426.33) rotate(-10.95)"/><rect class="cls-125" x="2184.17" y="554.17" width="3.23" height="58.65" transform="translate(-71.03 425.68) rotate(-10.95)"/><rect class="cls-126" x="2181" y="554.79" width="3.23" height="58.65" transform="translate(-71.21 425.14) rotate(-10.95)"/><rect class="cls-127" x="2177.83" y="555.4" width="3.23" height="58.65" transform="translate(-71.38 424.5) rotate(-10.95)"/><rect class="cls-128" x="2174.65" y="556.01" width="3.23" height="58.65" transform="translate(-71.55 423.89) rotate(-10.95)"/><rect class="cls-129" x="2171.48" y="556.63" width="3.23" height="58.65" transform="translate(-71.73 423.38) rotate(-10.95)"/><rect class="cls-130" x="2168.3" y="557.24" width="3.23" height="58.65" transform="translate(-71.9 422.71) rotate(-10.95)"/><rect class="cls-131" x="2165.13" y="557.86" width="3.23" height="58.65" transform="translate(-72.08 422.2) rotate(-10.95)"/><rect class="cls-132" x="2161.95" y="558.47" width="3.23" height="58.65" transform="translate(-72.25 421.54) rotate(-10.95)"/><rect class="cls-133" x="2158.78" y="559.08" width="3.23" height="58.65" transform="translate(-72.42 420.93) rotate(-10.95)"/><rect class="cls-134" x="2155.6" y="559.7" width="3.23" height="58.65" transform="translate(-72.6 420.42) rotate(-10.95)"/><rect class="cls-135" x="2152.43" y="560.31" width="3.23" height="58.65" transform="translate(-72.77 419.75) rotate(-10.95)"/><rect class="cls-136" x="2149.25" y="560.93" width="3.23" height="58.65" transform="translate(-72.95 419.24) rotate(-10.95)"/><rect class="cls-137" x="2146.08" y="561.54" width="3.23" height="58.65" transform="translate(-73.12 418.57) rotate(-10.95)"/><polygon class="cls-32" points="2151.68 619.96 2149.13 620.45 2148.48 620.45 2138.6 569.37 2138.6 562.76 2140.54 562.38 2151.68 619.96"/><polygon class="cls-138" points="2145.18 620.45 2138.6 586.4 2138.6 569.37 2148.48 620.45 2145.18 620.45"/><polygon class="cls-139" points="2141.89 620.45 2138.6 603.43 2138.6 586.4 2145.18 620.45 2141.89 620.45"/><polygon class="cls-140" points="2138.6 620.45 2138.6 620.45 2138.6 603.43 2141.89 620.45 2138.6 620.45"/><path class="cls-140" d="M2138.6,620.45Z"/></g><polyline class="cls-141" points="2138.6 620.45 2284.57 551.26 2284.68 541.37"/><polygon class="cls-87" points="2294.05 576.76 2293.92 577.12 2292.08 602.22 2138.99 620.39 2294.05 576.76"/><g class="cls-142"><polygon class="cls-93" points="2320.68 557.11 2318.06 543.57 2320.68 543.57 2320.68 557.11"/><polygon class="cls-93" points="2320.68 577.51 2314.12 543.57 2318.06 543.57 2320.68 557.11 2320.68 577.51"/><polygon class="cls-94" points="2320.68 587.01 2318.65 587.4 2310.17 543.57 2314.12 543.57 2320.68 577.51 2320.68 587.01"/><polygon class="cls-95" points="2318.65 587.4 2314.85 588.13 2306.23 543.57 2310.17 543.57 2318.65 587.4"/><polygon class="cls-96" points="2314.85 588.13 2311.05 588.87 2302.28 543.57 2306.23 543.57 2314.85 588.13"/><polygon class="cls-97" points="2311.05 588.87 2307.24 589.61 2298.34 543.57 2302.28 543.57 2311.05 588.87"/><polygon class="cls-98" points="2307.24 589.61 2303.44 590.34 2294.39 543.57 2298.34 543.57 2307.24 589.61"/><polygon class="cls-99" points="2303.44 590.34 2299.64 591.08 2290.45 543.57 2294.39 543.57 2303.44 590.34"/><polygon class="cls-100" points="2299.64 591.08 2295.83 591.81 2286.5 543.57 2290.45 543.57 2299.64 591.08"/><polygon class="cls-101" points="2295.83 591.81 2292.03 592.55 2282.64 543.98 2284.79 543.57 2286.5 543.57 2295.83 591.81"/><rect class="cls-102" x="2283.5" y="543.9" width="3.87" height="49.47" transform="translate(-66.4 444.35) rotate(-10.95)"/><rect class="cls-103" x="2279.69" y="544.64" width="3.87" height="49.47" transform="translate(-66.61 443.64) rotate(-10.95)"/><rect class="cls-104" x="2275.89" y="545.37" width="3.87" height="49.47" transform="translate(-66.81 442.92) rotate(-10.95)"/><rect class="cls-105" x="2272.09" y="546.11" width="3.87" height="49.47" transform="translate(-67.02 442.23) rotate(-10.95)"/><rect class="cls-106" x="2268.29" y="546.84" width="3.87" height="49.47" transform="matrix(0.98, -0.19, 0.19, 0.98, -67.23, 441.52)"/><rect class="cls-107" x="2264.48" y="547.58" width="3.87" height="49.47" transform="translate(-67.44 440.81) rotate(-10.95)"/><rect class="cls-108" x="2260.68" y="548.31" width="3.87" height="49.47" transform="translate(-67.65 440.09) rotate(-10.95)"/><rect class="cls-109" x="2256.88" y="549.05" width="3.87" height="49.47" transform="matrix(0.98, -0.19, 0.19, 0.98, -67.86, 439.39)"/><rect class="cls-110" x="2253.08" y="549.78" width="3.87" height="49.47" transform="translate(-68.07 438.68) rotate(-10.95)"/><rect class="cls-111" x="2249.27" y="550.52" width="3.87" height="49.47" transform="translate(-68.28 437.96) rotate(-10.95)"/><rect class="cls-112" x="2245.47" y="551.25" width="3.87" height="49.47" transform="translate(-68.49 437.27) rotate(-10.95)"/><rect class="cls-113" x="2241.67" y="551.99" width="3.87" height="49.47" transform="translate(-68.69 436.56) rotate(-10.95)"/><rect class="cls-114" x="2237.87" y="552.73" width="3.87" height="49.47" transform="translate(-68.9 435.84) rotate(-10.95)"/><rect class="cls-115" x="2234.06" y="553.46" width="3.87" height="49.47" transform="translate(-69.12 435.2) rotate(-10.95)"/><rect class="cls-116" x="2230.26" y="554.2" width="3.87" height="49.47" transform="translate(-69.32 434.43) rotate(-10.95)"/><rect class="cls-117" x="2226.46" y="554.93" width="3.87" height="49.47" transform="translate(-69.53 433.71) rotate(-10.95)"/><rect class="cls-118" x="2222.65" y="555.67" width="3.87" height="49.47" transform="translate(-69.74 433.01) rotate(-10.95)"/><rect class="cls-119" x="2218.85" y="556.4" width="3.87" height="49.47" transform="translate(-69.95 432.3) rotate(-10.95)"/><rect class="cls-120" x="2215.05" y="557.14" width="3.87" height="49.47" transform="translate(-70.16 431.6) rotate(-10.95)"/><rect class="cls-121" x="2211.25" y="557.87" width="3.87" height="49.47" transform="translate(-70.36 430.88) rotate(-10.95)"/><rect class="cls-122" x="2207.44" y="558.61" width="3.87" height="49.47" transform="translate(-70.57 430.18) rotate(-10.95)"/><rect class="cls-123" x="2203.64" y="559.35" width="3.87" height="49.47" transform="translate(-70.78 429.47) rotate(-10.95)"/><rect class="cls-124" x="2199.84" y="560.08" width="3.87" height="49.47" transform="translate(-70.99 428.75) rotate(-10.95)"/><rect class="cls-125" x="2196.04" y="560.82" width="3.87" height="49.47" transform="translate(-71.2 428.05) rotate(-10.95)"/><rect class="cls-126" x="2192.23" y="561.55" width="3.87" height="49.47" transform="translate(-71.41 427.34) rotate(-10.95)"/><rect class="cls-127" x="2188.43" y="562.29" width="3.87" height="49.47" transform="translate(-71.62 426.62) rotate(-10.95)"/><rect class="cls-128" x="2184.63" y="563.02" width="3.87" height="49.47" transform="translate(-71.83 425.93) rotate(-10.95)"/><rect class="cls-129" x="2180.83" y="563.76" width="3.87" height="49.47" transform="translate(-72.04 425.22) rotate(-10.95)"/><rect class="cls-130" x="2177.02" y="564.49" width="3.87" height="49.47" transform="translate(-72.24 424.51) rotate(-10.95)"/><rect class="cls-131" x="2173.22" y="565.23" width="3.87" height="49.47" transform="translate(-72.45 423.79) rotate(-10.95)"/><rect class="cls-132" x="2169.42" y="565.96" width="3.87" height="49.47" transform="translate(-72.66 423.09) rotate(-10.95)"/><rect class="cls-133" x="2165.62" y="566.7" width="3.87" height="49.47" transform="translate(-72.88 422.44) rotate(-10.95)"/><rect class="cls-134" x="2161.81" y="567.44" width="3.87" height="49.47" transform="translate(-73.08 421.66) rotate(-10.95)"/><rect class="cls-135" x="2158.01" y="568.17" width="3.87" height="49.47" transform="matrix(0.98, -0.19, 0.19, 0.98, -73.29, 420.96)"/><rect class="cls-136" x="2154.21" y="568.91" width="3.87" height="49.47" transform="translate(-73.5 420.26) rotate(-10.95)"/><rect class="cls-137" x="2150.4" y="569.64" width="3.87" height="49.47" transform="translate(-73.71 419.54) rotate(-10.95)"/><rect class="cls-32" x="2146.6" y="570.38" width="3.87" height="49.47" transform="translate(-73.92 418.84) rotate(-10.95)"/><polygon class="cls-138" points="2151.33 619.76 2150.08 620 2147.44 620 2139.55 579.21 2139.55 571.66 2141.94 571.2 2151.33 619.76"/><polygon class="cls-139" points="2143.49 620 2139.55 599.61 2139.55 579.21 2147.44 620 2143.49 620"/><polygon class="cls-140" points="2139.55 599.61 2143.49 620 2139.55 620 2139.55 599.61"/></g><path class="cls-87" d="M2725.07,794.63a117,117,0,0,1-16-3.55,2.27,2.27,0,1,0-1.29,4.36,121.74,121.74,0,0,0,16.64,3.69q3,.45,6.06.75a2.27,2.27,0,1,0,.46-4.52Q2728,795.06,2725.07,794.63Z"/><path class="cls-87" d="M2362.35,531.8c-6.79,2.24-13.82,4.79-21.49,7.79a2.27,2.27,0,1,0,1.66,4.23c7.59-3,14.54-5.5,21.25-7.71a2.27,2.27,0,0,0-1.42-4.32Z"/><path class="cls-87" d="M2399.9,526.31a2.27,2.27,0,0,0-2.09-3.77c-7.17,1.32-14.68,3.09-22.33,5.24a2.27,2.27,0,0,0,1.23,4.38c7.51-2.11,14.88-3.84,21.92-5.14A2.25,2.25,0,0,0,2399.9,526.31Z"/><path class="cls-87" d="M2676.8,776.05a2.24,2.24,0,0,0-3.15.65,2.27,2.27,0,0,0,.65,3.15,126.65,126.65,0,0,0,20.38,10.9,2.27,2.27,0,0,0,2.56-.56,2.19,2.19,0,0,0,.42-.65,2.27,2.27,0,0,0-1.21-3A122.77,122.77,0,0,1,2676.8,776.05Z"/><path class="cls-87" d="M2666.34,771.3a2.27,2.27,0,0,0-.3-3.2q-2.34-1.95-4.58-4a117.85,117.85,0,0,1-11.17-11.75,2.27,2.27,0,0,0-3.2-.31,2.3,2.3,0,0,0-.31,3.2,122.14,122.14,0,0,0,11.6,12.21q2.32,2.13,4.75,4.14a2.27,2.27,0,0,0,3.13-.21Z"/><path class="cls-87" d="M2641.71,744.72a2.27,2.27,0,0,0,.65-3.15A155.13,155.13,0,0,1,2631.53,722a2.27,2.27,0,1,0-4.11,1.92,158.32,158.32,0,0,0,11.15,20.15A2.27,2.27,0,0,0,2641.71,744.72Z"/><path class="cls-87" d="M2545.71,565.74q3.45,2.86,6.75,5.89c3.32,3,6.54,6.24,9.58,9.49a2.27,2.27,0,0,0,3.21.11l.13-.13a2.27,2.27,0,0,0,0-3.08c-3.12-3.34-6.42-6.62-9.83-9.74q-3.38-3.1-6.92-6a2.16,2.16,0,0,0-3.2.3A2.27,2.27,0,0,0,2545.71,565.74Z"/><path class="cls-87" d="M2570.83,591.3a165.76,165.76,0,0,1,12.74,18.43,2.27,2.27,0,1,0,3.91-2.32,169.71,169.71,0,0,0-13.09-18.94,2.27,2.27,0,1,0-3.56,2.83Z"/><path class="cls-87" d="M2516,545.68A184.83,184.83,0,0,1,2535,557.54a2.27,2.27,0,0,0,3-.31l.18-.22a2.27,2.27,0,0,0-.54-3.17,190.14,190.14,0,0,0-19.52-12.15,2.27,2.27,0,0,0-2.17,4Z"/><path class="cls-87" d="M2469.92,528.24a2.27,2.27,0,0,0,1-4.43,179.89,179.89,0,0,0-22.71-3.7,2.27,2.27,0,1,0-.44,4.52A175.57,175.57,0,0,1,2469.92,528.24Z"/><path class="cls-87" d="M2613,678.18a2.27,2.27,0,0,0,1.49-2.85l-.86-2.75c-2-6.33-4-12.66-6.08-18.94a2.27,2.27,0,0,0-4.31,1.44c2.09,6.26,4.08,12.56,6.06,18.86l.86,2.75A2.27,2.27,0,0,0,2613,678.18Z"/><path class="cls-87" d="M2503.9,539.7a2.27,2.27,0,1,0,1.87-4.14,188.79,188.79,0,0,0-21.51-8.15,2.27,2.27,0,1,0-1.35,4.34A183.54,183.54,0,0,1,2503.9,539.7Z"/><path class="cls-87" d="M2615.75,686.85a2.27,2.27,0,0,0-1.45,2.87c2.78,8.48,5.22,15.33,7.68,21.54a2.27,2.27,0,0,0,4.23-1.68c-2.43-6.13-4.84-12.89-7.59-21.28A2.27,2.27,0,0,0,2615.75,686.85Z"/><path class="cls-87" d="M2744.31,796a2.27,2.27,0,0,0,0,4.54,183.51,183.51,0,0,0,22.94-1.44,2.27,2.27,0,1,0-.55-4.51A180.78,180.78,0,0,1,2744.31,796Z"/><path class="cls-87" d="M2591,618.53a2.28,2.28,0,0,0-1,3c3,6.22,5.9,13,8.78,20.71a2.27,2.27,0,1,0,4.26-1.59c-2.93-7.86-5.86-14.76-9-21.12A2.27,2.27,0,0,0,2591,618.53Z"/><path class="cls-87" d="M2419.42,519.73q-4,.29-8,.75A2.27,2.27,0,0,0,2412,525q3.88-.45,7.78-.74c4.82-.35,9.74-.49,14.61-.4a2.27,2.27,0,1,0,.08-4.54C2429.43,519.23,2424.38,519.37,2419.42,519.73Z"/><polygon class="cls-141" points="248.45 875.44 244.61 906.94 270.64 890.14 356.62 824.22 248.45 875.44"/><polygon class="cls-87" points="244.61 906.94 291.74 886.4 277.74 884.7 244.61 906.94"/><g class="cls-143"><polygon class="cls-93" points="356.62 824.22 356.62 824.22 356.62 824.22 356.62 824.22"/><polygon class="cls-93" points="356.62 831.87 353.84 824.22 356.62 824.22 356.62 824.22 356.62 831.87"/><polygon class="cls-94" points="356.62 838.23 356.21 838.38 351.06 824.22 353.84 824.22 356.62 831.87 356.62 838.23"/><polygon class="cls-95" points="356.21 838.38 353.75 839.27 348.27 824.22 351.06 824.22 356.21 838.38"/><polygon class="cls-96" points="353.75 839.27 351.29 840.17 345.49 824.22 348.27 824.22 353.75 839.27"/><polygon class="cls-97" points="351.29 840.17 348.83 841.06 342.71 824.22 345.49 824.22 351.29 840.17"/><polygon class="cls-98" points="348.83 841.06 346.38 841.96 339.92 824.22 342.71 824.22 348.83 841.06"/><polygon class="cls-99" points="346.38 841.96 343.92 842.85 337.14 824.22 339.92 824.22 346.38 841.96"/><polygon class="cls-100" points="343.92 842.85 341.46 843.74 334.36 824.22 337.14 824.22 343.92 842.85"/><polygon class="cls-101" points="341.46 843.74 339 844.64 331.57 824.22 334.36 824.22 341.46 843.74"/><polygon class="cls-102" points="339 844.64 336.55 845.53 328.79 824.22 331.57 824.22 339 844.64"/><polygon class="cls-103" points="336.55 845.53 334.09 846.43 326.01 824.22 328.79 824.22 336.55 845.53"/><polygon class="cls-104" points="334.09 846.43 331.63 847.32 323.23 824.22 326.01 824.22 334.09 846.43"/><polygon class="cls-105" points="331.63 847.32 329.17 848.21 320.44 824.22 323.23 824.22 331.63 847.32"/><polygon class="cls-106" points="329.17 848.21 326.71 849.11 317.66 824.22 320.44 824.22 329.17 848.21"/><polygon class="cls-107" points="326.71 849.11 324.26 850 314.88 824.22 317.66 824.22 326.71 849.11"/><polygon class="cls-108" points="324.26 850 321.8 850.89 312.1 824.22 314.88 824.22 324.26 850"/><polygon class="cls-109" points="321.8 850.89 319.34 851.79 309.31 824.22 312.1 824.22 321.8 850.89"/><polygon class="cls-110" points="319.34 851.79 316.88 852.68 306.53 824.22 309.31 824.22 319.34 851.79"/><polygon class="cls-111" points="316.88 852.68 314.43 853.58 303.75 824.22 306.53 824.22 316.88 852.68"/><polygon class="cls-112" points="314.43 853.58 311.97 854.47 301.18 824.81 302.82 824.22 303.75 824.22 314.43 853.58"/><rect class="cls-113" x="304.04" y="824.31" width="2.62" height="31.56" transform="translate(-268.76 154.97) rotate(-19.99)"/><rect class="cls-114" x="301.58" y="825.2" width="2.62" height="31.56" transform="matrix(0.94, -0.34, 0.34, 0.94, -269.2, 154.17)"/><rect class="cls-115" x="299.12" y="826.1" width="2.62" height="31.56" transform="translate(-269.66 153.4) rotate(-19.99)"/><rect class="cls-116" x="296.67" y="826.99" width="2.62" height="31.56" transform="translate(-270.09 152.59) rotate(-19.98)"/><rect class="cls-117" x="294.21" y="827.88" width="2.62" height="31.56" transform="translate(-270.56 151.81) rotate(-19.99)"/><rect class="cls-118" x="291.75" y="828.78" width="2.62" height="31.56" transform="translate(-271.02 151.04) rotate(-19.99)"/><rect class="cls-119" x="289.29" y="829.67" width="2.62" height="31.56" transform="translate(-271.45 150.23) rotate(-19.98)"/><rect class="cls-120" x="286.84" y="830.56" width="2.62" height="31.56" transform="matrix(0.94, -0.34, 0.34, 0.94, -271.94, 149.47)"/><rect class="cls-121" x="284.38" y="831.46" width="2.62" height="31.56" transform="translate(-272.36 148.66) rotate(-19.98)"/><rect class="cls-122" x="281.92" y="832.35" width="2.62" height="31.56" transform="translate(-272.81 147.87) rotate(-19.98)"/><rect class="cls-123" x="279.46" y="833.25" width="2.62" height="31.56" transform="translate(-273.29 147.11) rotate(-19.99)"/><rect class="cls-124" x="277" y="834.14" width="2.62" height="31.56" transform="translate(-273.73 146.31) rotate(-19.99)"/><rect class="cls-125" x="274.55" y="835.03" width="2.62" height="31.56" transform="translate(-274.2 145.53) rotate(-19.99)"/><rect class="cls-126" x="272.09" y="835.93" width="2.62" height="31.56" transform="translate(-274.63 144.73) rotate(-19.98)"/><rect class="cls-127" x="269.63" y="836.82" width="2.62" height="31.56" transform="translate(-275.09 143.95) rotate(-19.99)"/><rect class="cls-128" x="267.17" y="837.72" width="2.62" height="31.56" transform="translate(-275.56 143.17) rotate(-19.99)"/><rect class="cls-129" x="264.72" y="838.61" width="2.62" height="31.56" transform="translate(-275.99 142.37) rotate(-19.98)"/><rect class="cls-130" x="262.26" y="839.5" width="2.62" height="31.56" transform="matrix(0.94, -0.34, 0.34, 0.94, -276.48, 141.61)"/><rect class="cls-131" x="259.8" y="840.4" width="2.62" height="31.56" transform="translate(-276.9 140.8) rotate(-19.98)"/><rect class="cls-132" x="257.34" y="841.29" width="2.62" height="31.56" transform="translate(-277.35 140.01) rotate(-19.98)"/><rect class="cls-133" x="254.89" y="842.18" width="2.62" height="31.56" transform="matrix(0.94, -0.34, 0.34, 0.94, -277.84, 139.25)"/><rect class="cls-134" x="252.43" y="843.08" width="2.62" height="31.56" transform="translate(-278.26 138.44) rotate(-19.98)"/><rect class="cls-135" x="249.97" y="843.97" width="2.62" height="31.56" transform="translate(-278.74 137.67) rotate(-19.99)"/><polygon class="cls-136" points="255.44 875.03 254.31 875.44 252.81 875.44 242.2 846.26 244.66 845.37 255.44 875.03"/><polygon class="cls-137" points="250.03 875.44 239.74 847.16 242.2 846.26 252.81 875.44 250.03 875.44"/><polygon class="cls-32" points="247.24 875.44 237.28 848.05 239.74 847.16 250.03 875.44 247.24 875.44"/><polygon class="cls-138" points="244.46 875.44 234.82 848.95 237.28 848.05 247.24 875.44 244.46 875.44"/><polygon class="cls-139" points="241.68 875.44 232.37 849.84 234.82 848.95 244.46 875.44 241.68 875.44"/><polygon class="cls-140" points="238.9 875.44 230.59 852.61 230.59 850.48 232.37 849.84 241.68 875.44 238.9 875.44"/><polygon class="cls-140" points="230.59 852.61 238.9 875.44 230.59 875.44 230.59 852.61"/></g><g class="cls-144"><polygon class="cls-93" points="356.62 824.22 356.62 824.22 356.62 824.22 356.62 824.22"/><polygon class="cls-93" points="356.62 830.38 354.38 824.22 356.62 824.22 356.62 824.22 356.62 830.38"/><polygon class="cls-94" points="356.62 836.56 352.13 824.22 354.38 824.22 356.62 830.38 356.62 836.56"/><polygon class="cls-95" points="356.62 842.73 349.99 824.5 350.77 824.22 352.13 824.22 356.62 836.56 356.62 842.73"/><polygon class="cls-96" points="356.62 848.9 348.01 825.22 349.99 824.5 356.62 842.73 356.62 848.9"/><polygon class="cls-97" points="356.62 855.07 346.03 825.94 348.01 825.22 356.62 848.9 356.62 855.07"/><polygon class="cls-98" points="356.62 861.24 344.05 826.66 346.03 825.94 356.62 855.07 356.62 861.24"/><polygon class="cls-99" points="356.62 867.41 342.06 827.38 344.05 826.66 356.62 861.24 356.62 867.41"/><polygon class="cls-100" points="356.62 873.58 340.08 828.1 342.06 827.38 356.62 867.41 356.62 873.58"/><polygon class="cls-101" points="356.62 879.75 338.1 828.82 340.08 828.1 356.62 873.58 356.62 879.75"/><polygon class="cls-102" points="356.62 885.92 336.12 829.54 338.1 828.82 356.62 879.75 356.62 885.92"/><polygon class="cls-103" points="356.62 892.09 334.14 830.26 336.12 829.54 356.62 885.92 356.62 892.09"/><polygon class="cls-104" points="356.62 898.26 332.15 830.99 334.14 830.26 356.62 892.09 356.62 898.26"/><polygon class="cls-105" points="356.62 903.27 356.25 903.4 330.17 831.71 332.15 830.99 356.62 898.26 356.62 903.27"/><rect class="cls-106" x="341.16" y="829.77" width="2.11" height="76.29" transform="translate(-276.04 169.24) rotate(-19.99)"/><rect class="cls-107" x="339.18" y="830.49" width="2.11" height="76.29" transform="matrix(0.94, -0.34, 0.34, 0.94, -276.41, 168.61)"/><rect class="cls-108" x="337.2" y="831.21" width="2.11" height="76.29" transform="translate(-276.77 167.97) rotate(-19.99)"/><rect class="cls-109" x="335.22" y="831.93" width="2.11" height="76.29" transform="translate(-277.13 167.33) rotate(-19.99)"/><rect class="cls-110" x="333.24" y="832.65" width="2.11" height="76.29" transform="translate(-277.5 166.7) rotate(-19.99)"/><rect class="cls-111" x="331.26" y="833.37" width="2.11" height="76.29" transform="translate(-277.86 166.07) rotate(-19.99)"/><rect class="cls-112" x="329.27" y="834.09" width="2.11" height="76.29" transform="translate(-278.23 165.43) rotate(-19.99)"/><rect class="cls-113" x="327.29" y="834.81" width="2.11" height="76.29" transform="translate(-278.59 164.8) rotate(-19.99)"/><rect class="cls-114" x="325.31" y="835.54" width="2.11" height="76.29" transform="translate(-278.96 164.16) rotate(-19.99)"/><rect class="cls-115" x="323.33" y="836.26" width="2.11" height="76.29" transform="translate(-279.33 163.53) rotate(-19.99)"/><rect class="cls-116" x="321.35" y="836.98" width="2.11" height="76.29" transform="translate(-279.69 162.89) rotate(-19.99)"/><rect class="cls-117" x="319.36" y="837.7" width="2.11" height="76.29" transform="translate(-280.06 162.26) rotate(-19.99)"/><rect class="cls-118" x="317.38" y="838.42" width="2.11" height="76.29" transform="translate(-280.42 161.63) rotate(-19.99)"/><rect class="cls-119" x="315.4" y="839.14" width="2.11" height="76.29" transform="translate(-280.79 160.99) rotate(-19.99)"/><rect class="cls-120" x="313.42" y="839.86" width="2.11" height="76.29" transform="translate(-281.15 160.36) rotate(-19.99)"/><rect class="cls-121" x="311.44" y="840.58" width="2.11" height="76.29" transform="translate(-281.52 159.73) rotate(-19.99)"/><rect class="cls-122" x="309.45" y="841.3" width="2.11" height="76.29" transform="translate(-281.92 159.12) rotate(-19.99)"/><rect class="cls-123" x="307.47" y="842.02" width="2.11" height="76.29" transform="translate(-282.25 158.46) rotate(-19.99)"/><rect class="cls-124" x="305.49" y="842.74" width="2.11" height="76.29" transform="translate(-282.62 157.82) rotate(-19.99)"/><rect class="cls-125" x="303.51" y="843.46" width="2.11" height="76.29" transform="translate(-282.98 157.19) rotate(-19.99)"/><rect class="cls-126" x="301.53" y="844.19" width="2.11" height="76.29" transform="translate(-283.36 156.56) rotate(-19.99)"/><rect class="cls-127" x="299.54" y="844.91" width="2.11" height="76.29" transform="translate(-283.71 155.92) rotate(-19.99)"/><rect class="cls-128" x="297.56" y="845.63" width="2.11" height="76.29" transform="translate(-284.08 155.29) rotate(-19.99)"/><rect class="cls-129" x="295.58" y="846.35" width="2.11" height="76.29" transform="translate(-284.45 154.65) rotate(-19.99)"/><rect class="cls-130" x="293.6" y="847.07" width="2.11" height="76.29" transform="translate(-284.81 154.02) rotate(-19.99)"/><rect class="cls-131" x="291.62" y="847.79" width="2.11" height="76.29" transform="translate(-285.18 153.39) rotate(-19.99)"/><polygon class="cls-132" points="304.72 922.15 304.55 922.21 302.5 922.21 276.66 851.17 278.64 850.45 304.72 922.15"/><polygon class="cls-133" points="300.25 922.21 274.68 851.89 276.66 851.17 302.5 922.21 300.25 922.21"/><polygon class="cls-134" points="298.01 922.21 272.7 852.61 274.68 851.89 300.25 922.21 298.01 922.21"/><polygon class="cls-135" points="295.77 922.21 270.71 853.33 272.7 852.61 298.01 922.21 295.77 922.21"/><polygon class="cls-136" points="293.52 922.21 270.64 859.29 270.64 853.36 270.71 853.33 295.77 922.21 293.52 922.21"/><polygon class="cls-137" points="291.28 922.21 270.64 865.46 270.64 859.29 293.52 922.21 291.28 922.21"/><polygon class="cls-32" points="289.03 922.21 270.64 871.63 270.64 865.46 291.28 922.21 289.03 922.21"/><polygon class="cls-138" points="286.79 922.21 270.64 877.8 270.64 871.63 289.03 922.21 286.79 922.21"/><polygon class="cls-139" points="284.55 922.21 270.64 883.97 270.64 877.8 286.79 922.21 284.55 922.21"/><polygon class="cls-140" points="282.3 922.21 270.64 890.14 270.64 883.97 284.55 922.21 282.3 922.21"/><polygon class="cls-140" points="270.64 890.14 282.3 922.21 270.64 922.21 270.64 890.14"/></g><path class="cls-87" d="M265,929.82a2.41,2.41,0,0,1-1.82-3.57,67.78,67.78,0,0,1,7-10.35,2.41,2.41,0,1,1,3.72,3.08,62.84,62.84,0,0,0-6.54,9.61A2.41,2.41,0,0,1,265,929.82Z"/><path class="cls-87" d="M387.8,1166.86l-.15,0a72.71,72.71,0,0,1-23.45-9,2.42,2.42,0,0,1,2.45-4.17,67.92,67.92,0,0,0,21.88,8.37,2.41,2.41,0,0,1-.73,4.77Zm-34.57-17.15a2.37,2.37,0,0,1-1.27-.56,91.11,91.11,0,0,1-16.62-18.64,2.41,2.41,0,1,1,4-2.69,86.4,86.4,0,0,0,15.74,17.66,2.41,2.41,0,0,1-1.86,4.23ZM330,1118.77a2.41,2.41,0,0,1-1.92-1.41l-.47-1.07a116.53,116.53,0,0,1-6.93-22.67,2.41,2.41,0,0,1,4.73-1,111.43,111.43,0,0,0,6.64,21.73l.44,1a2.41,2.41,0,0,1-2.5,3.38Zm-9.31-37.7a2.41,2.41,0,0,1-2.11-2.18,180,180,0,0,1-.42-24.7,2.41,2.41,0,0,1,4.82.23,175.77,175.77,0,0,0,.4,24,2.41,2.41,0,0,1-2.19,2.62A2.63,2.63,0,0,1,320.67,1081.07Zm.75-39a2.41,2.41,0,0,1-2.11-2.66c.06-.59.13-1.17.2-1.76a78.49,78.49,0,0,1-11.92-1.94,2.41,2.41,0,0,1,1.15-4.69,73.23,73.23,0,0,0,11.36,1.83c.73-5.56,1.65-11.39,2.79-17.73a2.41,2.41,0,0,1,4.75.85c-1.1,6.11-2,11.75-2.7,17.12q3.62.06,7.25-.22a2.41,2.41,0,1,1,.38,4.81,81.12,81.12,0,0,1-8.22.22c-.08.67-.16,1.35-.23,2a2.42,2.42,0,0,1-2.66,2.14Zm-27.3-11.22a2.34,2.34,0,0,1-.76-.22,65.45,65.45,0,0,1-20.17-15,2.41,2.41,0,0,1,3.57-3.25,60.67,60.67,0,0,0,18.7,13.93,2.41,2.41,0,0,1-1.34,4.57Zm52.36,4.35a2.41,2.41,0,0,1-.34-4.73,70.56,70.56,0,0,0,21.37-9.71,2.41,2.41,0,1,1,2.71,4,75.43,75.43,0,0,1-22.82,10.38A2.41,2.41,0,0,1,346.48,1035.25Zm-80.38-30.64a2.41,2.41,0,0,1-1.8-1.19A78.1,78.1,0,0,1,255.52,980a2.41,2.41,0,0,1,4.73-1,73.21,73.21,0,0,0,8.24,22,2.41,2.41,0,0,1-2.38,3.6Zm113.56,11.1a2.41,2.41,0,0,1-1.47-4,58.63,58.63,0,0,0,3.89-4.64,46.76,46.76,0,0,0,7.57-15.32A2.41,2.41,0,1,1,394.3,993a51.56,51.56,0,0,1-8.37,16.91,63,63,0,0,1-4.21,5A2.41,2.41,0,0,1,379.66,1015.71Zm-51.84-12.06-.24,0a2.42,2.42,0,0,1-1.82-2.89c2.22-9.76,4.82-17.26,8.17-23.58a2.41,2.41,0,1,1,4.26,2.26c-3.15,5.93-5.6,13-7.73,22.38A2.41,2.41,0,0,1,327.82,1003.64ZM256,967.34a2.42,2.42,0,0,1-2.12-2.35,82.22,82.22,0,0,1,.59-11.43,78.31,78.31,0,0,1,2.83-13.38,2.41,2.41,0,0,1,4.62,1.41,73.81,73.81,0,0,0-2.65,12.56,77.41,77.41,0,0,0-.55,10.75,2.41,2.41,0,0,1-2.37,2.46Zm137.12,12.94a2.41,2.41,0,0,1-2.11-2.14,21.79,21.79,0,0,0-6.89-14.34,19.67,19.67,0,0,0-4.67-3.15,2.41,2.41,0,1,1,2.1-4.35,24.5,24.5,0,0,1,5.81,3.92,26.81,26.81,0,0,1,8.44,17.41,2.41,2.41,0,0,1-2.15,2.65A2.34,2.34,0,0,1,393.11,980.28Zm-48.8-11.43a2.41,2.41,0,0,1-1.41-4.11A39,39,0,0,1,366,953.8a2.41,2.41,0,1,1,.49,4.8,34.54,34.54,0,0,0-20.17,9.57A2.41,2.41,0,0,1,344.31,968.86Z"/><path class="cls-87" d="M402.61,1167.75a2.42,2.42,0,0,1,.12-4.81,51.75,51.75,0,0,0,11.32-2.08,2.41,2.41,0,1,1,1.4,4.62,56.63,56.63,0,0,1-12.37,2.28A2.62,2.62,0,0,1,402.61,1167.75Z"/><path class="cls-45" d="M1957.17,937.3l-.05-9.29,17.39-.09a11.61,11.61,0,0,0,11.33-13.82l-4.39-11.17-.14-28.41,13.64,37.81a20.89,20.89,0,0,1-20.39,24.88Z"/><path class="cls-46" d="M1959.46,940.45l-12.25-.21a8.25,8.25,0,0,1-8.09-8.37h0a8.25,8.25,0,0,1,8.37-8.09l12.25.21a8.25,8.25,0,0,1,8.09,8.37h0A8.25,8.25,0,0,1,1959.46,940.45Z"/><path class="cls-45" d="M1930.28,740.1c-4.83-7.66-30.59-5.66-30.59-5.66-36.24,0-65.73,33.49-65.73,69.73V866h10.45V804.16c0-30.48,24.8-61.27,55.27-61.27Z"/><circle class="cls-45" cx="1843.8" cy="882.1" r="36.92"/><path class="cls-87" d="M2100.47,335.26a97.58,97.58,0,0,0-97.58,97.58c0,20.06,6,31.49,17.49,54.21,16.66,33.07-10.83,47.07-10.83,47.07s72.08.5,90.92.5c53.89,0,97.58-47.89,97.58-101.78A97.58,97.58,0,0,0,2100.47,335.26Z"/><circle class="cls-2" cx="2058.94" cy="434.94" r="12.01"/><circle class="cls-2" cx="2099.94" cy="434.94" r="12.01"/><circle class="cls-2" cx="2139.94" cy="434.94" r="12.01"/></svg>