<svg id="Layer_1" data-name="Layer 1" xmlns="http://www.w3.org/2000/svg" xmlns:xlink="http://www.w3.org/1999/xlink" viewBox="0 0 2791.61 2213.29"><defs><style>.cls-1{fill:#3f72fc;opacity:0.18;isolation:isolate;}.cls-2{fill:#82b8e1;}.cls-3{fill:#3074a7;}.cls-4{fill:#0c1f55;}.cls-5{fill:url(#linear-gradient);}.cls-6{fill:url(#linear-gradient-2);}.cls-7{fill:url(#linear-gradient-3);}.cls-8{fill:url(#linear-gradient-4);}.cls-9{fill:url(#linear-gradient-5);}.cls-10{fill:url(#linear-gradient-6);}.cls-11{fill:url(#linear-gradient-7);}.cls-12{fill:url(#linear-gradient-8);}.cls-13{fill:url(#linear-gradient-9);}.cls-14{fill:url(#linear-gradient-10);}.cls-15{fill:url(#linear-gradient-11);}.cls-16{fill:url(#linear-gradient-12);}.cls-17{fill:url(#linear-gradient-13);}.cls-18{fill:url(#linear-gradient-14);}.cls-19{fill:url(#linear-gradient-15);}.cls-20{fill:url(#linear-gradient-16);}.cls-21{fill:url(#linear-gradient-17);}</style><linearGradient id="linear-gradient" x1="749.43" y1="2660.65" x2="1014.87" y2="2660.65" gradientUnits="userSpaceOnUse"><stop offset="0" stop-color="#008eff"/><stop offset="1" stop-color="#0064fd"/></linearGradient><linearGradient id="linear-gradient-2" x1="1923.44" y1="990.16" x2="1998.97" y2="990.16" xlink:href="#linear-gradient"/><linearGradient id="linear-gradient-3" x1="1035.37" y1="1322.15" x2="1110.92" y2="1322.15" xlink:href="#linear-gradient"/><linearGradient id="linear-gradient-4" x1="2439.93" y1="2333.65" x2="2514.07" y2="2333.65" xlink:href="#linear-gradient"/><linearGradient id="linear-gradient-5" x1="653.13" y1="2344.98" x2="727.27" y2="2344.98" xlink:href="#linear-gradient"/><linearGradient id="linear-gradient-6" x1="2462.67" y1="1082.21" x2="2733.67" y2="1082.21" xlink:href="#linear-gradient"/><linearGradient id="linear-gradient-7" x1="2546.06" y1="1081.15" x2="2637.13" y2="1081.15" xlink:href="#linear-gradient"/><linearGradient id="linear-gradient-8" x1="2283.99" y1="2839.58" x2="2387.14" y2="2839.58" xlink:href="#linear-gradient"/><linearGradient id="linear-gradient-9" x1="2177.3" y1="2959.02" x2="2493.81" y2="2959.02" xlink:href="#linear-gradient"/><linearGradient id="linear-gradient-10" x1="2225.91" y1="2900.35" x2="2445.2" y2="2900.35" xlink:href="#linear-gradient"/><linearGradient id="linear-gradient-11" x1="3046.93" y1="1888.81" x2="3102.6" y2="1888.81" xlink:href="#linear-gradient"/><linearGradient id="linear-gradient-12" x1="2996.47" y1="1832.32" x2="3153.03" y2="1832.32" xlink:href="#linear-gradient"/><linearGradient id="linear-gradient-13" x1="3019.48" y1="1860.07" x2="3130.05" y2="1860.07" xlink:href="#linear-gradient"/><linearGradient id="linear-gradient-14" x1="2956.55" y1="2053.59" x2="3193" y2="2053.59" xlink:href="#linear-gradient"/><linearGradient id="linear-gradient-15" x1="3068.21" y1="1967.63" x2="3081.31" y2="1967.63" xlink:href="#linear-gradient"/><linearGradient id="linear-gradient-16" x1="1424.31" y1="1060.85" x2="1795.31" y2="1060.85" xlink:href="#linear-gradient"/><linearGradient id="linear-gradient-17" x1="458.5" y1="1511.32" x2="807.28" y2="1511.32" xlink:href="#linear-gradient"/></defs><path class="cls-1" d="M2908,2175.65c-45.26,85.47-127.08,151.9-149.71,245.4-10.22,40.15-7.3,82.55-12.41,124.16-18.25,145.33-126.35,265.11-256.35,333.79-5.84,2.92-11,5.84-16.79,8.76-85.47,41.61-177.51,64.3-270.95,78.17-57,8.76-114.67,13.87-172.41,18.25a7089.8,7089.8,0,0,1-715.76,20.44c-115.4-2.19-233-8-341.82-46-5.84-2.19-10.95-3.65-16.79-5.84-88.39-33.58-166.5-89.85-235.91-154.82l-2.92-2.92c-103-96.42-189.19-213.28-243.94-343.28-78.9-187-92-393.65-38.69-588.68C466.4,1747,523.4,1637.4,532.16,1517.62c6.57-89.85-14.6-181.16-.73-270.22C560.63,1069.89,725,939.89,898.8,896.09s357.15-19,534.66,5.84c86.93,12.41,188.46,46,273.87,19,105.18-32.12,194.3-73.07,308.25-73.07,46,0,93.5,5.11,136.57,23.36,51.83,22.63,92.77,63.58,134.38,101.54,116.86,104.45,249.78,189.19,369.56,291.45,119.78,101.53,227.88,225.69,271.68,376.86,21.9,73.79,27,151.17,29.2,227.88C2960.62,1973.32,2957,2082.88,2908,2175.65Z" transform="translate(-401.39 -793)"/><path class="cls-2" d="M897.44,2345.19v38a86.25,86.25,0,0,0,86.26,86.25H2181a86.24,86.24,0,0,0,86.25-86.25v-38a86.25,86.25,0,0,0-86.25-86.25h0c-47.61-10.63-280.73,27.4-270.64-86.25v-38a86.26,86.26,0,0,1,86.25-86.25h537.11a86.24,86.24,0,0,0,86.25-86.25v-38a86.25,86.25,0,0,0-86.25-86.25h-146a86.26,86.26,0,0,1-86.25-86.25v-38a86.25,86.25,0,0,1,86.25-86.25h53.29a86.26,86.26,0,0,0,86.25-86.25v-37.94a86.26,86.26,0,0,0-86.25-86.25H1379.65a86.26,86.26,0,0,0-86.25,86.25v37.94a86.26,86.26,0,0,0,86.25,86.25h53.29a86.25,86.25,0,0,1,86.25,86.25v38a86.26,86.26,0,0,1-86.25,86.25H1114.35a86.26,86.26,0,0,0-86.25,86.25v38a86.25,86.25,0,0,0,86.25,86.25h6.51a86.25,86.25,0,0,1,86.25,86.25v38a86.24,86.24,0,0,1-86.25,86.25H983.7A86.26,86.26,0,0,0,897.44,2345.19Z" transform="translate(-401.39 -793)"/><path class="cls-3" d="M2505.44,1598.5h-50.06a86,86,0,0,0-64.51,29h50.06A86,86,0,0,0,2505.44,1598.5Z" transform="translate(-401.39 -793)"/><path class="cls-3" d="M1379.65,1627.53h53.29a86.25,86.25,0,0,1,86.25,86.25v38a85.89,85.89,0,0,1-21.74,57.22h3.22a86.25,86.25,0,0,0,86.25-86.25v-38a86.24,86.24,0,0,0-86.25-86.25h-53.28a86.25,86.25,0,0,1-86.25-86.25v-37.94a85.94,85.94,0,0,1,21.73-57.22h-3.22a86.26,86.26,0,0,0-86.25,86.26v37.93A86.26,86.26,0,0,0,1379.65,1627.53Z" transform="translate(-401.39 -793)"/><path class="cls-3" d="M2064.28,2019.44a86,86,0,0,0-64.52,29h533.89a86,86,0,0,0,64.51-29Z" transform="translate(-401.39 -793)"/><path class="cls-3" d="M1051.43,2440.38a86.25,86.25,0,0,1-86.25-86.25v-38a85.89,85.89,0,0,1,21.74-57.22H983.7a86.25,86.25,0,0,0-86.25,86.25v38a86.24,86.24,0,0,0,86.25,86.25H2181a86,86,0,0,0,64.51-29Z" transform="translate(-401.39 -793)"/><path class="cls-3" d="M1114.35,2048.47h6.51a86.25,86.25,0,0,1,86.25,86.25v38a85.92,85.92,0,0,1-21.73,57.22h3.22a86.25,86.25,0,0,0,86.25-86.25v-38a86.26,86.26,0,0,0-86.25-86.25h-6.51a86.24,86.24,0,0,1-86.25-86.25v-38a85.94,85.94,0,0,1,21.73-57.22h-3.22a86.26,86.26,0,0,0-86.25,86.25v38A86.25,86.25,0,0,0,1114.35,2048.47Z" transform="translate(-401.39 -793)"/><path class="cls-4" d="M655.05,1921.09a6.53,6.53,0,1,0,9.26-9.21L606.41,1854a6.63,6.63,0,0,0-9.26,0l-57.88,57.92a6.53,6.53,0,1,0,9.27,9.21l53.24-53.27Z" transform="translate(-401.39 -793)"/><path class="cls-4" d="M548.54,1846l53.24-53.26L655.05,1846a6.57,6.57,0,0,0,9.26-9.31l-57.9-57.87a6.54,6.54,0,0,0-9.26,0l-57.88,57.87a6.62,6.62,0,0,0,0,9.31A6.55,6.55,0,0,0,548.54,1846Z" transform="translate(-401.39 -793)"/><path class="cls-4" d="M1234.65,1720c17.65,0,32-13.91,32-31s-14.35-31-32-31a31.34,31.34,0,0,0-30.64,24.45H1070.29V1511.32a6.55,6.55,0,0,0-6.55-6.55H907.68a31.35,31.35,0,0,0-30.63-24.46c-17.66,0-32,13.92-32,31s14.35,31,32,31a31.34,31.34,0,0,0,30.63-24.46h149.51V1689a6.54,6.54,0,0,0,6.55,6.55H1204A31.34,31.34,0,0,0,1234.65,1720Zm-357.6-190.81c-10.42,0-18.91-8-18.91-17.91s8.49-17.91,18.91-17.91,18.9,8,18.9,17.91S887.46,1529.23,877.05,1529.23Zm357.6,141.9c10.41,0,18.9,8,18.9,17.9s-8.49,17.91-18.9,17.91-18.91-8-18.91-17.91S1224.23,1671.13,1234.65,1671.13Z" transform="translate(-401.39 -793)"/><path class="cls-5" d="M965.54,2673.49c-21.94,0-39.94,14.65-46.32,34.5l-79-36.7c.18-1.69,1-3.17,1-4.91,0-5-1.37-9.53-2.84-14l82.77-37.61A38.46,38.46,0,1,0,910,2587.63a37.91,37.91,0,0,0,3.76,16.07l-81.38,37c-8.3-11.92-21.42-20.25-37-20.25a45.93,45.93,0,1,0,42.15,64l79.07,36.74c0,.58-.33,1.06-.33,1.64a49.33,49.33,0,1,0,49.32-49.33Zm-17.09-111.24a25.41,25.41,0,1,1-25.4,25.38A25.42,25.42,0,0,1,948.45,2562.25ZM795.33,2699.18a32.83,32.83,0,1,1,32.8-32.8A32.85,32.85,0,0,1,795.33,2699.18Zm170.21,59.87a36.23,36.23,0,1,1,36.23-36.23A36.28,36.28,0,0,1,965.54,2759.05Z" transform="translate(-401.39 -793)"/><path class="cls-4" d="M2776.73,2110.42l-56.91,56.9-56.87-56.9a6.57,6.57,0,1,0-9.26,9.31l61.5,61.51a6.63,6.63,0,0,0,9.27,0l61.53-61.51a6.57,6.57,0,0,0-9.26-9.31Z" transform="translate(-401.39 -793)"/><path class="cls-4" d="M2776.73,2190.19l-56.91,56.9-56.87-56.9a6.57,6.57,0,0,0-9.26,9.31l61.5,61.51a6.63,6.63,0,0,0,9.27,0L2786,2199.5a6.57,6.57,0,0,0-9.26-9.31Z" transform="translate(-401.39 -793)"/><path class="cls-4" d="M2979.67,1927.49c0-20.37-17.1-36.9-38.13-36.9a37.28,37.28,0,0,0-36.75,30.35H2736.17V1707.1a6.54,6.54,0,0,0-6.55-6.55H2506.69a37.28,37.28,0,0,0-36.75-30.35c-21,0-38.12,16.53-38.12,36.9s17.09,36.89,38.12,36.89a37.28,37.28,0,0,0,36.75-30.34h216.38v213.84a6.55,6.55,0,0,0,6.55,6.55h175.17a37.29,37.29,0,0,0,36.75,30.29C2962.57,1964.33,2979.67,1947.8,2979.67,1927.49Zm-509.73-196.6c-13.79,0-25-10.69-25-23.79s11.23-23.8,25-23.8,25,10.7,25,23.8S2483.73,1730.89,2469.94,1730.89Zm471.6,220.34c-13.79,0-25-10.64-25-23.74s11.23-23.8,25-23.8,25,10.7,25,23.8S2955.33,1951.23,2941.54,1951.23Z" transform="translate(-401.39 -793)"/><path class="cls-4" d="M2127.48,1380c20.34,0,36.9-17.09,36.9-38.12a37.29,37.29,0,0,0-30.09-36.7V1088.56h213.64c3.17,19.38,19.28,34.49,39.57,34.49a40.86,40.86,0,0,0,0-81.72c-20.15,0-36.16,14.91-39.49,34.13H2127.74a6.54,6.54,0,0,0-6.55,6.55v223.08a37.29,37.29,0,0,0-30.6,36.81C2090.59,1362.93,2107.14,1380,2127.48,1380Zm260-325.59a27.76,27.76,0,1,1-27.76,27.78A27.8,27.8,0,0,1,2387.5,1054.43Zm-260.09,262.46c.12,0,.2.14.33.14s.1-.06.16-.06c12.92.24,23.38,11.27,23.38,24.93s-10.67,25-23.8,25-23.79-11.21-23.79-25S2114.31,1316.94,2127.41,1316.89Z" transform="translate(-401.39 -793)"/><path class="cls-6" d="M1930,996.71h24.67v24.66a6.55,6.55,0,1,0,13.1,0V996.71h24.66a6.55,6.55,0,0,0,0-13.1h-24.66V958.94a6.55,6.55,0,1,0-13.1,0v24.67H1930a6.55,6.55,0,1,0,0,13.1Z" transform="translate(-401.39 -793)"/><path class="cls-7" d="M1041.92,1328.7h24.66v24.66a6.55,6.55,0,0,0,13.1,0V1328.7h24.69a6.55,6.55,0,1,0,0-13.1h-24.69v-24.67a6.55,6.55,0,1,0-13.1,0v24.67h-24.66a6.55,6.55,0,0,0,0,13.1Z" transform="translate(-401.39 -793)"/><path class="cls-8" d="M2507.52,2327.12h-24v-24a6.55,6.55,0,0,0-13.1,0v24h-24a6.55,6.55,0,0,0,0,13.1h24v24a6.55,6.55,0,1,0,13.1,0v-24h24a6.55,6.55,0,1,0,0-13.1Z" transform="translate(-401.39 -793)"/><path class="cls-9" d="M720.72,2338.43h-24v-24a6.55,6.55,0,1,0-13.1,0v24h-24a6.55,6.55,0,1,0,0,13.1h24v24a6.55,6.55,0,1,0,13.1,0v-24h24a6.55,6.55,0,0,0,0-13.1Z" transform="translate(-401.39 -793)"/><path class="cls-10" d="M2468.45,1104.78l22.11,2.61a104.23,104.23,0,0,0,14.12,32.44L2490.43,1158a6.6,6.6,0,0,0,.54,8.7l22.74,22.72a6.72,6.72,0,0,0,8.68.51l19.62-15.45a104.77,104.77,0,0,0,30.39,11.16l3.18,26.3a6.51,6.51,0,0,0,6.5,5.78h32.16a6.51,6.51,0,0,0,6.49-5.78l3.51-29a104.46,104.46,0,0,0,25.64-12l24.07,19a6.58,6.58,0,0,0,8.67-.51l22.72-22.72a6.57,6.57,0,0,0,.52-8.7l-20.11-25.63a104,104,0,0,0,9.28-23.64l32.85-3.94a6.56,6.56,0,0,0,5.79-6.5v-32.19a6.57,6.57,0,0,0-5.79-6.5l-32.85-3.94a105.6,105.6,0,0,0-9.28-23.64l20.11-25.58a6.5,6.5,0,0,0-.52-8.65L2682.62,975a6.48,6.48,0,0,0-8.67-.56l-24.07,19a103.67,103.67,0,0,0-25.67-12l-3.48-29a6.51,6.51,0,0,0-6.49-5.79h-32.16a6.51,6.51,0,0,0-6.5,5.79l-3.15,26.25a104,104,0,0,0-30.47,11.1l-19.57-15.4a6.61,6.61,0,0,0-8.68.56L2491,997.78a6.49,6.49,0,0,0-.51,8.65l14.25,18.06a104.84,104.84,0,0,0-14.15,32.5l-22.11,2.6a6.56,6.56,0,0,0-5.78,6.5v32.19A6.55,6.55,0,0,0,2468.45,1104.78Zm7.32-32.85,20.95-2.51a6.53,6.53,0,0,0,5.66-5.22,91.72,91.72,0,0,1,15.78-36.13,6.53,6.53,0,0,0-.17-7.88l-13.64-17.29,14.51-14.53,18.52,14.58a6.64,6.64,0,0,0,7.47.41,90.22,90.22,0,0,1,34.44-12.49,6.6,6.6,0,0,0,5.55-5.73l3-25.33h20.55l3.3,27.53a6.6,6.6,0,0,0,4.83,5.58,90.79,90.79,0,0,1,29.79,13.92,6.56,6.56,0,0,0,7.85-.15l23.26-18.32,14.5,14.53-19.24,24.46a6.56,6.56,0,0,0-.48,7.42,90.83,90.83,0,0,1,11.05,28.19,6.55,6.55,0,0,0,5.65,5.17l31.63,3.79v20.52l-31.63,3.78a6.57,6.57,0,0,0-5.65,5.17,92.1,92.1,0,0,1-11,28.25,6.48,6.48,0,0,0,.49,7.36l19.21,24.52L2677.48,1176l-23.28-18.32a6.64,6.64,0,0,0-7.85-.16,90.57,90.57,0,0,1-29.76,13.92,6.61,6.61,0,0,0-4.84,5.58l-3.32,27.58h-20.55l-3-25.38a6.62,6.62,0,0,0-5.53-5.73,91.64,91.64,0,0,1-34.46-12.49,6.43,6.43,0,0,0-7.45.41L2518.86,1176l-14.54-14.48,13.64-17.4a6.6,6.6,0,0,0,.15-7.88,91.51,91.51,0,0,1-15.73-36.08,6.53,6.53,0,0,0-5.66-5.22l-20.95-2.5Z" transform="translate(-401.39 -793)"/><path class="cls-11" d="M2591.57,1126.68a45.64,45.64,0,0,0,32.26-13.31v0a45.7,45.7,0,1,0-32.26,13.36Zm-23-68.52a32.24,32.24,0,0,1,23-9.46,32.46,32.46,0,1,1-23,9.46Z" transform="translate(-401.39 -793)"/><path class="cls-12" d="M2385.23,2834.93a6.62,6.62,0,0,0,0-9.31,6.55,6.55,0,0,0-9.27,0,57.13,57.13,0,0,1-80.79,0,6.55,6.55,0,0,0-9.27,0,6.62,6.62,0,0,0,0,9.31,70.36,70.36,0,0,0,99.33,0Z" transform="translate(-401.39 -793)"/><path class="cls-13" d="M2482.63,2923c-81.11,81.21-213.05,81.16-294.15,0a6.57,6.57,0,0,0-9.26,9.32,221.4,221.4,0,0,0,312.67,0,6.57,6.57,0,0,0-9.26-9.32Z" transform="translate(-401.39 -793)"/><path class="cls-14" d="M2227.83,2874.43a6.55,6.55,0,0,0,0,9.27,152.62,152.62,0,0,0,215.45,0,6.57,6.57,0,0,0-9.26-9.32c-54.3,54.35-142.64,54.35-196.93,0A6.55,6.55,0,0,0,2227.83,2874.43Z" transform="translate(-401.39 -793)"/><path class="cls-4" d="M2329.19,2780.38a6.55,6.55,0,0,0,13.1,0v-109.5a6.55,6.55,0,0,0-6.55-6.55H1888.55v-88.55c17.91-3.17,31.82-18.16,31.82-37a38.28,38.28,0,0,0-76.55,0c0,18.73,13.8,33.66,31.63,36.93v95.14a6.55,6.55,0,0,0,6.55,6.55h447.19Zm-472.27-241.57a25.18,25.18,0,1,1,25.52,25.1c-.17,0-.27-.18-.44-.18s-.24.16-.38.16A25.16,25.16,0,0,1,1856.92,2538.81Z" transform="translate(-401.39 -793)"/><path class="cls-4" d="M1573,2500.54a38.32,38.32,0,0,0-38.27,38.27c0,18.72,13.78,33.65,31.59,36.92v88.45H1158.81c-3.32-19.22-19.34-34.13-39.5-34.13a40.83,40.83,0,0,0,0,81.66c20.27,0,36.38-15.08,39.56-34.43h414a6.55,6.55,0,0,0,6.55-6.55v-94.95c17.92-3.17,31.83-18.16,31.83-37A38.32,38.32,0,0,0,1573,2500.54Zm-453.67,198.08a27.74,27.74,0,1,1,27.76-27.74A27.76,27.76,0,0,1,1119.31,2698.62ZM1573.16,2564c-.12,0-.19-.12-.31-.12s-.12.08-.19.09a23.83,23.83,0,1,1,.5,0Z" transform="translate(-401.39 -793)"/><path class="cls-15" d="M3100.68,1897.86a6.6,6.6,0,0,0,0-9.31,36.47,36.47,0,0,0-25.92-10.7h0a36.16,36.16,0,0,0-25.89,10.75,6.53,6.53,0,1,0,9.26,9.21,23.34,23.34,0,0,1,16.63-6.86h0a23.2,23.2,0,0,1,16.66,6.91A6.54,6.54,0,0,0,3100.68,1897.86Z" transform="translate(-401.39 -793)"/><path class="cls-16" d="M3007.66,1851.81a95,95,0,0,1,134.19,0,6.62,6.62,0,0,0,9.26,0,6.62,6.62,0,0,0,0-9.32,108.13,108.13,0,0,0-152.72,0,6.57,6.57,0,1,0,9.27,9.32Z" transform="translate(-401.39 -793)"/><path class="cls-17" d="M3123.5,1876.67a6.45,6.45,0,0,0,4.63-1.89,6.6,6.6,0,0,0,0-9.31,75.67,75.67,0,0,0-106.74,0,6.62,6.62,0,0,0,0,9.31,6.55,6.55,0,0,0,9.27,0,62.37,62.37,0,0,1,88.21,0A6.49,6.49,0,0,0,3123.5,1876.67Z" transform="translate(-401.39 -793)"/><path class="cls-18" d="M3192.53,2079.82c0-.45.36-.83.23-1.28l-26.45-88a6.53,6.53,0,0,0-6.27-4.66h-70.77a6.55,6.55,0,0,0,0,13.1h65.91l22.51,74.91H2971.94l23.61-74.91h64.68a6.55,6.55,0,1,0,0-13.1h-69.49a6.5,6.5,0,0,0-6.24,4.61l-27.73,88c-.16.47.27.93.23,1.43s-.54,1-.44,1.64l6.09,34.33a6.59,6.59,0,0,0,6.45,5.43h212.61a6.57,6.57,0,0,0,6.5-5.63l4.78-34.34C3193.07,2080.79,3192.6,2080.37,3192.53,2079.82Zm-16.53,28.4H2974.6l-3.79-21.24H3179Z" transform="translate(-401.39 -793)"/><path class="cls-19" d="M3068.21,1914.18v106.9a6.55,6.55,0,1,0,13.1,0v-106.9a6.55,6.55,0,1,0-13.1,0Z" transform="translate(-401.39 -793)"/><path class="cls-20" d="M1788.76,1132.36H1642.49a37.57,37.57,0,0,0-30.67-30.67v-43.32h148.8a6.55,6.55,0,0,0,6.55-6.55V856.4a6.55,6.55,0,0,0-6.55-6.55h-124.7v-50.3a6.55,6.55,0,0,0-6.55-6.55H1442a6.55,6.55,0,0,0-6.55,6.55v252.27a6.55,6.55,0,0,0,6.55,6.55h156.68v43.34a37.56,37.56,0,0,0-30.64,30.65H1430.86a6.55,6.55,0,0,0,0,13.1H1568.1a37.62,37.62,0,0,0,30.67,30.61v79.54c-17.29,3.2-30.68,17.68-30.68,35.89a37.19,37.19,0,1,0,74.38,0c0-18.19-13.35-32.65-30.6-35.87v-79.57a37.6,37.6,0,0,0,30.6-30.6h146.29a6.55,6.55,0,0,0,0-13.1ZM1448.59,806.1h174.23v43.75h-41.63a6.55,6.55,0,1,0,0,13.1h172.88v182.32H1448.59Zm180.78,485.4a24.09,24.09,0,1,1-24.07-24.1A24.11,24.11,0,0,1,1629.37,1291.5Zm-24.07-127.21a25.41,25.41,0,1,1,25.4-25.43A25.46,25.46,0,0,1,1605.3,1164.29Z" transform="translate(-401.39 -793)"/><path class="cls-4" d="M1493.67,922.56H1703a6.55,6.55,0,1,0,0-13.1H1493.67a6.55,6.55,0,0,0,0,13.1Z" transform="translate(-401.39 -793)"/><path class="cls-4" d="M1493.67,965.49H1703a6.55,6.55,0,0,0,0-13.1H1493.67a6.55,6.55,0,0,0,0,13.1Z" transform="translate(-401.39 -793)"/><path class="cls-4" d="M1709.55,1001.82a6.55,6.55,0,0,0-6.55-6.55H1493.67a6.55,6.55,0,0,0,0,13.1H1703A6.54,6.54,0,0,0,1709.55,1001.82Z" transform="translate(-401.39 -793)"/><path class="cls-4" d="M601.78,2088.06a6.54,6.54,0,0,0-6.55,6.55v37.5a6.55,6.55,0,0,0,13.1,0v-37.5A6.54,6.54,0,0,0,601.78,2088.06Z" transform="translate(-401.39 -793)"/><path class="cls-4" d="M601.78,1943.55a6.55,6.55,0,0,0-6.55,6.55V2069a6.55,6.55,0,0,0,13.1,0V1950.1A6.55,6.55,0,0,0,601.78,1943.55Z" transform="translate(-401.39 -793)"/><path class="cls-21" d="M807.28,1558.71c0-26.2-18.81-49.59-45.52-57.78a49.18,49.18,0,0,0,.33-5.78c0-33.67-30-61-66.8-61a67.31,67.31,0,0,0-30.75,7.06c-9.6-23.44-33.85-39.2-61.76-39.2-29,0-54,16.68-62.84,41.19-35.41,1.23-63.78,28.15-63.78,61a45.71,45.71,0,0,0,1.53,11.92,57.61,57.61,0,0,0-19.19,42.58c0,33.87,30,61.45,66.8,61.45.64,0,1.26.1,1.85.15a18.18,18.18,0,0,0,6-.15H726.35a23.09,23.09,0,0,0,5.22.51c1.79,0,3.51-.15,5.12-.25a37.2,37.2,0,0,1,4.22-.26C777.5,1620.16,807.28,1592.58,807.28,1558.71Zm-66.37,48.35c-1.77,0-3.56.15-5.32.31a24.34,24.34,0,0,1-6.71,0,6.37,6.37,0,0,0-1.74-.26H531.57a12.41,12.41,0,0,0-3,.21,30.83,30.83,0,0,0-3.28-.21c-29.6,0-53.7-21.7-53.7-48.35,0-13.56,6.48-26.41,17.73-35.26a6.57,6.57,0,0,0,2.05-7.57,31.38,31.38,0,0,1-2.12-11.67c0-25.18,21.83-45.32,48.69-47.45.17,16.24,6.35,32.43,17.8,44a64.39,64.39,0,0,0,45.16,18.57,58.78,58.78,0,0,0,8.49-.56,6.55,6.55,0,0,0,5.55-7.42,6.38,6.38,0,0,0-7.39-5.58,51.33,51.33,0,0,1-42.5-14.22c-10.42-10.52-15.3-25.92-13.69-40.62,5.78-21.1,26.7-35.83,51.41-35.83,25,0,46.28,15.35,51.7,37.41a6.64,6.64,0,0,0,4,4.5,6.35,6.35,0,0,0,6-.67,53.8,53.8,0,0,1,30.75-9.1c29.6,0,53.7,21.49,53.7,47.94a37.55,37.55,0,0,1-1.12,9,6.59,6.59,0,0,0,.82,5.06,6.43,6.43,0,0,0,4.22,2.92c23.92,5,41.27,24.56,41.27,46.57C794.18,1585.36,770.28,1607.06,740.91,1607.06Z" transform="translate(-401.39 -793)"/><path class="cls-4" d="M2194.92,1746a35.33,35.33,0,0,0,35.29-35.29V1552a35.33,35.33,0,0,0-35.29-35.29H1521.2a35.33,35.33,0,0,0-35.29,35.29v158.76A35.33,35.33,0,0,0,1521.2,1746h17.23v48h-17.26a35.33,35.33,0,0,0-35.28,35.28v106c-80.26,4-144.59,69.51-146.4,150.33a154.46,154.46,0,0,0-104.84,146c0,85,69.19,154.23,154.22,154.23a153.79,153.79,0,0,0,94.36-32.41,153.88,153.88,0,0,0,194.87-4.86,153,153,0,0,0,100.52,37.27c60.71,0,113.2-35.36,138.34-86.49h277.89a35.32,35.32,0,0,0,35.28-35.28V2105.34a35.32,35.32,0,0,0-35.28-35.28h-17.24v-46.71h17.24a35.32,35.32,0,0,0,35.28-35.28V1829.26a35.32,35.32,0,0,0-35.28-35.28h-17.17v-48Zm-685.49-35.29V1552a11.78,11.78,0,0,1,11.77-11.77h673.72a11.78,11.78,0,0,1,11.77,11.77v158.76a11.78,11.78,0,0,1-11.77,11.77H1521.2A11.78,11.78,0,0,1,1509.43,1710.74Zm269.19,651.51a129.89,129.89,0,0,1-92.22-38.09,11.75,11.75,0,0,0-16.59,0,130.44,130.44,0,0,1-178.79,5.13,11.72,11.72,0,0,0-15.58,0,130.53,130.53,0,0,1-86.57,33c-72.07,0-130.71-58.64-130.71-130.71a130.89,130.89,0,0,1,96.4-126,11.78,11.78,0,0,0,8.67-11.76l-.26-4.72c0-72.06,58.63-130.7,130.7-130.7a130,130,0,0,1,102.64,49.94,11.76,11.76,0,0,0,16.46,2,116,116,0,0,1,71.87-24.79c61.12,0,112.38,47.79,116.72,108.77a11.75,11.75,0,0,0,8.88,10.58,130.4,130.4,0,0,1,99.09,126.69C1909.33,2303.61,1850.69,2362.25,1778.62,2362.25Zm428-256.91V2264a11.78,11.78,0,0,1-11.76,11.76H1926.31a153.86,153.86,0,0,0-79-182.18h347.5A11.78,11.78,0,0,1,2206.61,2105.34Zm-52.51-35.28H1821.29a139.89,139.89,0,0,0-20.82-46.71H2154.1Zm52.51-240.8v158.81a11.78,11.78,0,0,1-11.76,11.76h-23.93a11.53,11.53,0,0,0-5.06-1.25h-387a139.77,139.77,0,0,0-171.34-13.45,153.15,153.15,0,0,0-98.08-49.47v-106.4a11.78,11.78,0,0,1,11.76-11.76h673.68A11.78,11.78,0,0,1,2206.61,1829.26ZM2154.16,1794H1561.94v-48h592.22Z" transform="translate(-401.39 -793)"/><path class="cls-4" d="M1559.52,1618.77a11.77,11.77,0,0,0,11.76-11.76v-23.78a11.76,11.76,0,0,0-23.52,0V1607A11.77,11.77,0,0,0,1559.52,1618.77Z" transform="translate(-401.39 -793)"/><path class="cls-4" d="M1613.46,1618.77a11.77,11.77,0,0,0,11.76-11.76v-23.78a11.76,11.76,0,0,0-23.52,0V1607A11.77,11.77,0,0,0,1613.46,1618.77Z" transform="translate(-401.39 -793)"/><path class="cls-4" d="M1667.39,1618.77a11.77,11.77,0,0,0,11.76-11.76v-23.78a11.76,11.76,0,1,0-23.52,0V1607A11.77,11.77,0,0,0,1667.39,1618.77Z" transform="translate(-401.39 -793)"/><path class="cls-4" d="M1721.31,1618.77a11.77,11.77,0,0,0,11.76-11.76v-23.78a11.76,11.76,0,0,0-23.52,0V1607A11.77,11.77,0,0,0,1721.31,1618.77Z" transform="translate(-401.39 -793)"/><path class="cls-4" d="M1559.52,1691.25a11.77,11.77,0,0,0,11.76-11.76v-23.78a11.76,11.76,0,0,0-23.52,0v23.78A11.77,11.77,0,0,0,1559.52,1691.25Z" transform="translate(-401.39 -793)"/><path class="cls-4" d="M1613.46,1691.25a11.77,11.77,0,0,0,11.76-11.76v-23.78a11.76,11.76,0,0,0-23.52,0v23.78A11.77,11.77,0,0,0,1613.46,1691.25Z" transform="translate(-401.39 -793)"/><path class="cls-4" d="M1667.39,1691.25a11.77,11.77,0,0,0,11.76-11.76v-23.78a11.76,11.76,0,1,0-23.52,0v23.78A11.77,11.77,0,0,0,1667.39,1691.25Z" transform="translate(-401.39 -793)"/><path class="cls-4" d="M1721.31,1691.25a11.77,11.77,0,0,0,11.76-11.76v-23.78a11.76,11.76,0,0,0-23.52,0v23.78A11.77,11.77,0,0,0,1721.31,1691.25Z" transform="translate(-401.39 -793)"/><path class="cls-4" d="M2123.17,1679a45.11,45.11,0,1,0-45.12-45.1A45.16,45.16,0,0,0,2123.17,1679Zm0-66.71a21.6,21.6,0,1,1-21.6,21.61A21.63,21.63,0,0,1,2123.17,1612.27Z" transform="translate(-401.39 -793)"/><path class="cls-4" d="M1996.47,1679a45.11,45.11,0,1,0-45.1-45.1A45.17,45.17,0,0,0,1996.47,1679Zm0-66.71a21.6,21.6,0,1,1-21.58,21.61A21.64,21.64,0,0,1,1996.47,1612.27Z" transform="translate(-401.39 -793)"/><path class="cls-4" d="M1792,1643.12h109.35a11.76,11.76,0,1,0,0-23.51H1792a11.76,11.76,0,1,0,0,23.51Z" transform="translate(-401.39 -793)"/><path class="cls-4" d="M1559.52,1848.76a11.77,11.77,0,0,0-11.76,11.76v23.76a11.76,11.76,0,0,0,23.52,0v-23.76A11.77,11.77,0,0,0,1559.52,1848.76Z" transform="translate(-401.39 -793)"/><path class="cls-4" d="M1613.46,1848.76a11.77,11.77,0,0,0-11.76,11.76v23.76a11.76,11.76,0,0,0,23.52,0v-23.76A11.77,11.77,0,0,0,1613.46,1848.76Z" transform="translate(-401.39 -793)"/><path class="cls-4" d="M1667.39,1848.76a11.77,11.77,0,0,0-11.76,11.76v23.76a11.76,11.76,0,0,0,23.52,0v-23.76A11.77,11.77,0,0,0,1667.39,1848.76Z" transform="translate(-401.39 -793)"/><path class="cls-4" d="M1721.31,1848.76a11.77,11.77,0,0,0-11.76,11.76v23.76a11.76,11.76,0,0,0,23.52,0v-23.76A11.77,11.77,0,0,0,1721.31,1848.76Z" transform="translate(-401.39 -793)"/><path class="cls-4" d="M2123.17,1866.05a45.11,45.11,0,1,0,45.1,45.1A45.17,45.17,0,0,0,2123.17,1866.05Zm0,66.71a21.6,21.6,0,1,1,21.59-21.61A21.63,21.63,0,0,1,2123.17,1932.76Z" transform="translate(-401.39 -793)"/><path class="cls-4" d="M1996.47,1866.05a45.11,45.11,0,1,0,45.12,45.1A45.16,45.16,0,0,0,1996.47,1866.05Zm0,66.71a21.6,21.6,0,1,1,21.61-21.61A21.63,21.63,0,0,1,1996.47,1932.76Z" transform="translate(-401.39 -793)"/><path class="cls-4" d="M1901.38,1896.88H1792a11.76,11.76,0,0,0,0,23.52h109.35a11.76,11.76,0,1,0,0-23.52Z" transform="translate(-401.39 -793)"/><path class="cls-4" d="M2123.17,2142.05a45.12,45.12,0,1,0,45.1,45.12A45.17,45.17,0,0,0,2123.17,2142.05Zm0,66.71a21.6,21.6,0,1,1,21.59-21.59A21.62,21.62,0,0,1,2123.17,2208.76Z" transform="translate(-401.39 -793)"/><path class="cls-4" d="M1996.47,2142.05a45.12,45.12,0,1,0,45.12,45.12A45.17,45.17,0,0,0,1996.47,2142.05Zm0,66.71a21.6,21.6,0,1,1,21.61-21.59A21.62,21.62,0,0,1,1996.47,2208.76Z" transform="translate(-401.39 -793)"/><path class="cls-4" d="M1724.19,2190.59a22.28,22.28,0,1,1,21.74-27.21,11.75,11.75,0,0,0,22.94-5.14,45.8,45.8,0,1,0-44.68,55.87,22.28,22.28,0,1,1-22,25.72,11.75,11.75,0,1,0-23.24,3.55,45.8,45.8,0,1,0,45.26-52.79Z" transform="translate(-401.39 -793)"/><path class="cls-4" d="M1516.39,2126.88a11.75,11.75,0,0,0-15.22,6.71l-40.48,104.34-40.46-104.34a11.76,11.76,0,1,0-21.93,8.51l51.43,132.59a11.77,11.77,0,0,0,21.93,0l51.44-132.59A11.77,11.77,0,0,0,1516.39,2126.88Z" transform="translate(-401.39 -793)"/><path class="cls-4" d="M1607.78,2122.52h-40a11.75,11.75,0,0,0-11.76,11.76v136.15a11.76,11.76,0,1,0,23.51,0v-61.74h28.28a43.09,43.09,0,1,0,0-86.17Zm0,62.65H1579.5V2146h28.28a19.57,19.57,0,1,1,0,39.14Z" transform="translate(-401.39 -793)"/><path class="cls-4" d="M1550.12,1997.7c-65.42-21.31-103.59,2.15-124.11,25.56a11.76,11.76,0,0,0,8.84,19.5,11.63,11.63,0,0,0,8.83-4c23.08-26.29,56.39-32.55,99.19-18.69a11.75,11.75,0,0,0,7.25-22.36Z" transform="translate(-401.39 -793)"/><path class="cls-4" d="M1408.5,2087.07a12.21,12.21,0,0,0,2.66.31,11.8,11.8,0,0,0,11.46-9.06,82.6,82.6,0,0,1,3.52-10.55,11.76,11.76,0,0,0-21.84-8.73,103.6,103.6,0,0,0-4.59,13.95A11.75,11.75,0,0,0,1408.5,2087.07Z" transform="translate(-401.39 -793)"/></svg>