<?xml version="1.0" encoding="utf-8"?>
<svg viewBox="0 0 500 500" xmlns="http://www.w3.org/2000/svg">
  <defs>
    <path id="Q" d="M152.8 88.5c4 2.7 8.5 4.5 13.3 5.5.2 0 .5.1.5.4 0 .1 0 .3-.1.4a31.72 31.72 0 01-3.6 5.4c-.2.2-.4.4-.6.5-.5.1-1 .1-1.3-.2-3.1-1.2-6-2.6-9-4.1a21.05 21.05 0 01-6.8-5c-1-1.2-1.5-2.5-1.5-3.9 0-1.6 1.4-4.5 3.5-3.7 1 .4 1.7 1.4 2.4 2.1.9.9 2.1 1.8 3.2 2.6z"/>
    <path id="R" d="M209.9 80.4c2 2.5 1.5 6.2-1 8.2-1.2 1-2.9 1.4-4.5 1.2 0 0-6.4.2-5 6.2l12.3 15.6-15.6 12.3c-6 1.4-6.2-5-6.2-5 .5-3.2-1.7-6.1-5-6.6-3.2-.5-6.1 1.7-6.6 5s1.7 6.1 5 6.6h.3c5.6 1.8 3.4 7.2 3.4 7.2l-15.6 12.3-32-40.4 15.5-12.3c6-1.4 6.2 5 6.2 5-.5 3.2 1.7 6.1 4.9 6.6s6.1-1.7 6.6-4.9c.3-1.6-.2-3.2-1.2-4.5-1-1.2-2.5-2-4.1-2.2-5.5-1.8-3.4-7.3-3.4-7.3L179.7 71 192 86.6s5.5 2.1 7.2-3.4c.3-3.2 3.2-5.6 6.4-5.2 1.9.3 3.3 1.1 4.3 2.4z"/>
    <path id="S" d="M149.9 277.4v-25.5c3.4-7.3 10-2.3 10-2.3 2.9 3 7.6 3.1 10.6.3s3.1-7.6.3-10.6c-2.9-3-7.6-3.1-10.6-.3l-.3.3c-6.2 4.1-10-2.3-10-2.3v-25.5h25.5s6.4-3.7 2.3-10c-3-2.9-3.1-7.6-.3-10.6 2.9-3 7.6-3.1 10.6-.3 3 2.9 3.1 7.6.3 10.6l-.3.3s-5 6.6 2.3 10h25.5v66l-65.9-.1z"/>
    <path id="T" d="M347.6 211.4v66h-66v-25.5s3.7-6.4 10-2.3c2.9 3 7.6 3.1 10.6.3 3-2.9 3.1-7.6.3-10.6-2.9-3-7.6-3.1-10.6-.3l-.3.3s-6.6 5-10-2.3v-25.5h25.5c7.3-3.4 2.3-10 2.3-10-3-2.9-3.1-7.6-.3-10.6 2.9-3 7.6-3.1 10.6-.3 3 2.9 3.1 7.6.3 10.6l-.3.3c-4.1 6.2 2.3 10 2.3 10l25.6-.1z"/>
    <path id="U" d="M216.5 363.6c-1.2.7-2.3 1.2-3.5 1.6h-.1c-2 .8-4.2-2.3-4.2-2.3s-2.8-17.4-2.7-24.5c.1-4.9-1.1-12-2.9-24.7-.5 13.1-2.7 18.7-2.1 23.4.9 7.1-.2 24.8-.2 24.8s-1.9 3.5-3.9 3h-.1c-1.2-.3-2.5-.7-3.6-1.2 0 0-2.4-24.3-2.4-30.7s.3-12.1.3-12.1l-1.2-20.3 5.4-7.8.5-.2.4-.4 6-4.3s0 1.1-.1 2.7l4.6 2.5.5.3.5.1 7.7 1.3 2.7 37.4c.4 6.4-1.6 31.4-1.6 31.4z"/>
  </defs>
  <path d="M 475.289 337.611 C 471.789 351.311 465.789 365.111 460.389 377.311 C 440.189 423.511 406.289 455.111 353.089 448.611 C 327.489 445.411 302.289 436.911 276.489 437.711 C 251.789 438.511 228.289 447.811 204.789 455.611 C 161.189 470.011 112.889 479.311 69.789 463.411 C 26.689 447.511 -6.711 398.611 8.589 355.311 C 20.489 321.511 57.789 298.811 61.789 263.111 C 66.789 216.811 11.989 176.811 23.589 131.611 C 28.489 112.611 44.289 98.411 61.089 88.211 C 99.689 64.611 146.989 56.811 191.189 64.911 C 233.289 72.511 268.389 107.911 310.789 109.511 C 338.189 110.611 364.489 95.011 391.689 97.611 C 425.389 100.911 450.189 130.711 465.889 160.711 C 470.989 170.111 475.189 179.811 478.589 190.011 C 485.089 210.511 486.489 232.511 482.389 253.711 C 478.289 275.511 478.789 295.911 478.189 318.311 C 478.089 324.811 476.989 331.311 475.289 337.611 Z" opacity=".18" class="a" style="fill: rgb(63, 114, 252);"/>
  <linearGradient id="A" gradientUnits="userSpaceOnUse" x1="202.75" y1="328.526" x2="205.571" y2="382.746" gradientTransform="matrix(1, 0, 0, 1, 4.788535, 61.810989)">
    <stop offset="0.01"/>
    <stop offset="0.08" stop-opacity=".69"/>
    <stop offset="0.21" stop-opacity=".32"/>
    <stop offset="1" stop-opacity="0"/>
  </linearGradient>
  <path d="M 183.289 425.911 C 181.689 426.411 179.689 427.211 179.389 428.911 C 184.689 432.311 191.089 433.011 197.289 432.811 C 203.389 432.611 209.689 431.611 215.789 431.611 C 223.989 431.611 233.189 433.011 239.789 428.111 C 236.889 426.311 233.589 425.211 230.089 425.011 C 231.289 417.411 188.189 424.411 183.289 425.911 Z" fill="url(#A)"/>
  <linearGradient id="B" gradientUnits="userSpaceOnUse" x1="223.134" y1="125.627" x2="234.961" y2="319.533" gradientTransform="matrix(1, 0, 0, 1, 4.788535, 61.810989)">
    <stop offset="0.01"/>
    <stop offset="0.08" stop-opacity=".69"/>
    <stop offset="0.21" stop-opacity=".32"/>
    <stop offset="1" stop-opacity="0"/>
  </linearGradient>
  <path d="M 78.289 335.011 C 76.089 335.011 72.989 336.211 73.589 338.311 L 174.289 346.511 C 186.089 347.511 197.989 348.411 209.889 348.411 C 227.889 348.411 245.789 346.211 263.789 345.111 C 280.689 344.111 297.589 344.211 314.489 344.211 C 330.089 344.311 349.389 347.111 364.589 343.011 C 366.889 342.411 369.189 340.511 368.989 338.211 C 368.889 337.111 368.289 336.011 368.789 334.911 C 369.089 334.411 369.489 334.011 369.989 333.711 C 373.189 331.811 377.089 333.311 380.689 334.111 C 386.489 335.311 392.389 334.611 397.589 332.011 C 398.589 331.611 399.389 330.911 399.989 330.011 C 400.589 329.111 400.389 327.911 399.489 327.211 C 399.082 327.017 398.639 326.915 398.189 326.911 L 367.389 324.511 C 366.189 324.311 365.089 324.411 363.989 324.811 C 362.789 325.411 362.789 326.711 361.889 327.311 C 360.289 328.311 356.689 327.811 354.889 327.911 L 340.889 328.711 L 312.889 329.911 L 255.489 331.211 L 141.989 333.611 C 120.689 334.411 99.489 334.611 78.289 335.011 Z" fill="url(#B)"/>
  <g fill="#ff681c" transform="matrix(1, 0, 0, 1, 4.788535, 61.810989)">
    <path d="M150.9 63.3c-1.7-.6-3.7-.6-5.5.1-2.3.8-4.1 2.5-5 4.8 0 .6-.5 1-1.1 1h-.1c-2 0-3.9.8-5.4 2-1.7 1.5-1.7 3.5-1.9 5.8a1.91 1.91 0 00-1.8 0c-.6.3-1.1.7-1.5 1.1-.8.6-1.3 1.3-1.7 2.2-.6 1.4.1 3.2.1 4.7 0 .1 0 .3-.1.4s-.3.1-.4 0c-.4-.1-.8-.3-1.2-.4-1.1 0-1.9.8-2.1 1.7-.2 1-.1 2 .2 3s.2 1.9-.1 2.9c-.3.6-.8 1.2-1.2 1.6-1.4 1.3-2.4 3.3-2.7 5.2-.1 1 .2 1.9.8 2.7s1.5 1.2 2.5 1.2c2.3-.3 3.1-3.5 5.2-4.2 2.1-.8 4.6-3.3 6-5.3 1.2-1.6 2.2-3.5 4.1-4.1.6-.1 1.2-.4 1.7-.7.4-.3.7-.7.9-1.1.8-1.2 1.3-2.4 1.8-3.7.7-2.6 0-5.6 1.2-8 .8-1.4 2-2.4 3.6-2.8.7-.2 1.3-.2 1.9-.4.8-.2 1.4-.6 2.1-1 1.6-1 2.9-2.6 3.2-4.5 0-1.8-1.7-3.6-3.5-4.2z" style="fill: rgb(61, 59, 58);"/>
    <path d="M156.5 66.4c1.4.6 2.2 2 1.9 3.5-.2.6-.6 1.1-1.1 1.5l-2.5 2.7-1.1-3.7c-.1-.7-.5-1.3-1-1.8-.7-.4-1.6-.4-2.3 0-.8.4-1.3 1-2 1.3-.2.1-.4.2-.6.1s-.2-.5-.1-.8c1.3-3.1 5.8-4 8.8-2.8z" style="fill: rgb(61, 59, 58);"/>
  </g>
  <path d="M 162.989 230.811 C 163.098 232.089 163.509 233.323 164.189 234.411 C 165.289 235.711 167.189 236.411 168.689 237.511 C 168.989 237.711 169.289 238.011 169.389 238.311 C 169.389 238.711 169.189 239.011 168.789 239.111 C 168.489 239.211 168.089 239.211 167.789 239.211 C 166.289 238.911 164.589 238.811 163.089 238.711 C 162.289 238.711 161.389 238.811 160.889 238.111 C 160.589 237.611 160.389 236.911 160.589 236.411 C 160.689 234.211 160.589 231.911 159.989 229.711 C 159.789 229.111 159.789 228.611 159.789 228.111 C 159.945 227.322 160.693 226.794 161.489 226.911 C 161.789 227.011 161.989 227.111 162.189 227.211 C 163.189 227.811 162.889 229.711 162.989 230.811 Z M 137.789 239.211 C 137.589 240.411 137.789 241.811 138.289 242.911 C 139.089 244.511 140.789 245.511 141.989 246.711 C 142.289 246.911 142.489 247.311 142.489 247.711 C 142.389 248.011 142.089 248.311 141.789 248.311 C 141.489 248.311 141.089 248.311 140.789 248.211 C 139.389 247.611 137.789 247.211 136.289 246.911 C 135.489 246.811 134.589 246.611 134.289 245.911 C 134.089 245.311 134.089 244.711 134.289 244.211 C 134.888 242.028 135.191 239.775 135.189 237.511 C 135.089 236.911 135.189 236.311 135.389 235.911 C 135.689 235.111 136.589 234.711 137.389 235.111 C 137.589 235.211 137.889 235.411 137.989 235.611 C 138.489 236.311 137.889 238.211 137.789 239.211 Z" class="c" style="fill: rgb(252, 189, 186);"/>
  <g class="d" transform="matrix(1, 0, 0, 1, 4.788535, 61.810989)" style="fill: rgb(71, 63, 71);">
    <path d="M128 116.1s13 19.3 21.5 25.1c-.2 1.9-.1 3.8.1 5.8.5 3.2 1.9 5.9 2.4 8.9l1.6 10.3c.1.5.2 1.1.7 1.2.3.1.6.1.9 0l3.6-1c-.2-6.2-.1-12.4.4-18.6.3-2.5.4-5 .2-7.5-.6-5.5-5.1-10.3-8.2-14.7-1.8-2.7-3.8-6.6-6.5-8.6-2.2-1.6-5.3-.9-8-.6-2 .2-4.1.1-6.1-.5-.8-.3-1.8-.3-2.6.2z"/>
    <path d="M123.1 116s5.1 22.8 10.9 31.2c-.9 1.7-1.5 3.6-2 5.5-.3 1.5-.5 3.1-.6 4.7l-1.2 19c1.8.1 3.6-.1 5.4-.7l6.6-16.7c1.2-2.7 2-5.6 2.2-8.4 0-5.7-5.5-26.5-6-27.6-1.4-2.4-4.6-2.7-7.2-3.5-2-.6-3.8-1.4-5.6-2.7-.8-.6-1.6-1.1-2.5-.8z"/>
  </g>
  <path d="M 174.489 160.111 C 177.289 161.311 180.389 161.811 183.289 161.411 C 184.189 161.111 185.089 161.111 185.989 161.311 C 185.589 161.911 185.189 162.611 185.789 163.111 C 185.989 163.211 186.189 163.311 186.389 163.311 C 187.189 163.411 187.789 163.311 188.589 163.111 C 188.911 162.893 189.31 162.821 189.689 162.911 C 190.389 163.111 190.789 163.811 190.689 164.411 C 190.489 165.111 190.089 165.611 189.489 165.911 C 187.589 167.111 185.189 167.311 183.189 166.311 C 182.589 166.011 182.089 165.611 181.489 165.211 C 180.289 164.711 179.189 164.311 177.889 164.111 C 174.289 163.311 170.789 162.411 167.289 161.011 C 166.189 160.711 165.389 160.011 164.789 159.211 C 164.089 157.511 165.389 154.611 167.389 155.711 C 169.789 157.211 171.989 159.111 174.489 160.111 Z" class="c" style="fill: rgb(252, 189, 186);"/>
  <path d="M 157.589 150.311 C 161.589 153.011 166.089 154.811 170.889 155.811 C 171.089 155.811 171.389 155.911 171.389 156.211 C 171.389 156.311 171.389 156.511 171.289 156.611 C 170.276 158.529 169.07 160.339 167.689 162.011 C 167.489 162.211 167.289 162.411 167.089 162.511 C 166.589 162.611 166.089 162.611 165.789 162.311 C 162.689 161.111 159.789 159.711 156.789 158.211 C 154.208 157.021 151.894 155.32 149.989 153.211 C 148.989 152.011 148.489 150.711 148.489 149.311 C 148.489 147.711 149.889 144.811 151.989 145.611 C 152.989 146.011 153.689 147.011 154.389 147.711 C 155.289 148.611 156.489 149.511 157.589 150.311 Z"/>
  <path d="M 157.589 150.311 C 161.589 153.011 166.089 154.811 170.889 155.811 C 171.089 155.811 171.389 155.911 171.389 156.211 C 171.389 156.311 171.389 156.511 171.289 156.611 C 170.276 158.529 169.07 160.339 167.689 162.011 C 167.489 162.211 167.289 162.411 167.089 162.511 C 166.589 162.611 166.089 162.611 165.789 162.311 C 162.689 161.111 159.789 159.711 156.789 158.211 C 154.208 157.021 151.894 155.32 149.989 153.211 C 148.989 152.011 148.489 150.711 148.489 149.311 C 148.489 147.711 149.889 144.811 151.989 145.611 C 152.989 146.011 153.689 147.011 154.389 147.711 C 155.289 148.611 156.489 149.511 157.589 150.311 Z" style="fill: rgb(9, 62, 112);"/>
  <path d="M 214.689 142.211 C 216.689 144.711 216.189 148.411 213.689 150.411 C 212.489 151.411 210.789 151.811 209.189 151.611 C 209.189 151.611 202.789 151.811 204.189 157.811 L 216.489 173.411 L 200.889 185.711 C 194.889 187.111 194.689 180.711 194.689 180.711 C 195.189 177.511 192.989 174.611 189.689 174.111 C 186.489 173.611 183.589 175.811 183.089 179.111 C 182.589 182.411 184.789 185.211 188.089 185.711 L 188.389 185.711 C 193.989 187.511 191.789 192.911 191.789 192.911 L 176.189 205.211 L 144.189 164.811 L 159.689 152.511 C 165.689 151.111 165.889 157.511 165.889 157.511 C 165.389 160.711 167.589 163.611 170.789 164.111 C 173.989 164.611 176.889 162.411 177.389 159.211 C 177.689 157.611 177.189 156.011 176.189 154.711 C 175.189 153.511 173.689 152.711 172.089 152.511 C 166.589 150.711 168.689 145.211 168.689 145.211 L 184.489 132.811 L 196.789 148.411 C 196.789 148.411 202.289 150.511 203.989 145.011 C 204.289 141.811 207.189 139.411 210.389 139.811 C 212.289 140.111 213.689 140.911 214.689 142.211 Z"/>
  <path d="M 214.689 142.211 C 216.689 144.711 216.189 148.411 213.689 150.411 C 212.489 151.411 210.789 151.811 209.189 151.611 C 209.189 151.611 202.789 151.811 204.189 157.811 L 216.489 173.411 L 200.889 185.711 C 194.889 187.111 194.689 180.711 194.689 180.711 C 195.189 177.511 192.989 174.611 189.689 174.111 C 186.489 173.611 183.589 175.811 183.089 179.111 C 182.589 182.411 184.789 185.211 188.089 185.711 L 188.389 185.711 C 193.989 187.511 191.789 192.911 191.789 192.911 L 176.189 205.211 L 144.189 164.811 L 159.689 152.511 C 165.689 151.111 165.889 157.511 165.889 157.511 C 165.389 160.711 167.589 163.611 170.789 164.111 C 173.989 164.611 176.889 162.411 177.389 159.211 C 177.689 157.611 177.189 156.011 176.189 154.711 C 175.189 153.511 173.689 152.711 172.089 152.511 C 166.589 150.711 168.689 145.211 168.689 145.211 L 184.489 132.811 L 196.789 148.411 C 196.789 148.411 202.289 150.511 203.989 145.011 C 204.289 141.811 207.189 139.411 210.389 139.811 C 212.289 140.111 213.689 140.911 214.689 142.211 Z" style="fill: rgb(9, 62, 112);"/>
  <linearGradient id="E" gradientUnits="userSpaceOnUse" x1="158.046" y1="89.507" x2="170.31" y2="149.655" gradientTransform="matrix(1, 0, 0, 1, 4.788535, 61.810989)">
    <stop offset="0.01"/>
    <stop offset="0.08" stop-opacity=".69"/>
    <stop offset="0.21" stop-opacity=".32"/>
    <stop offset="1" stop-opacity="0"/>
  </linearGradient>
  <path d="M 162.989 177.811 C 166.389 180.511 169.789 183.511 173.889 184.111 C 175.489 184.511 177.189 184.211 178.489 183.211 C 178.989 182.911 179.289 182.411 179.189 181.911 C 178.989 181.211 178.189 181.011 177.589 180.811 C 174.389 180.411 171.489 179.311 168.789 177.611 C 167.789 176.911 166.889 176.211 165.989 175.311 L 159.389 169.311 C 159.189 169.111 158.989 169.011 158.689 169.011 C 158.389 169.011 158.189 169.311 158.089 169.611 C 157.689 170.511 157.289 171.311 157.089 172.211 C 156.889 173.211 157.089 173.411 157.989 173.911 C 159.889 175.311 161.489 176.411 162.989 177.811 Z" fill="url(#E)"/>
  <path d="M 166.089 172.811 C 168.389 174.811 171.289 176.211 174.289 176.611 C 175.189 176.611 176.089 176.811 176.889 177.211 C 176.289 177.611 175.689 178.411 176.089 178.911 C 176.189 179.111 176.389 179.211 176.589 179.311 C 177.289 179.611 177.989 179.711 178.689 179.711 C 179.089 179.611 179.489 179.711 179.789 179.811 C 180.389 180.211 180.589 181.011 180.289 181.511 C 179.889 182.111 179.289 182.511 178.789 182.711 C 176.62 183.389 174.255 182.855 172.589 181.311 L 171.289 179.911 C 170.289 179.111 169.289 178.511 168.189 177.911 C 164.916 176.23 161.803 174.255 158.889 172.011 C 157.939 171.473 157.252 170.57 156.989 169.511 C 156.789 167.711 158.789 165.311 160.489 166.911 C 162.389 168.711 163.989 171.011 166.089 172.811 Z" class="c" style="fill: rgb(252, 189, 186);"/>
  <path d="M 127.889 180.811 C 128.189 181.111 128.489 181.311 128.789 181.511 C 130.089 182.311 131.589 182.911 132.989 183.511 C 136.789 184.811 140.989 184.811 144.789 183.411 C 146.289 182.811 147.789 182.111 148.989 181.111 C 149.489 180.811 149.889 180.311 150.189 179.911 C 150.589 179.011 150.689 178.211 150.489 177.311 C 150.089 172.711 149.589 168.011 150.489 163.511 C 150.789 162.011 151.289 160.511 151.789 159.111 C 152.889 157.211 153.789 155.211 154.489 153.111 C 154.989 150.511 154.289 147.711 152.589 145.711 C 150.889 143.411 147.589 141.511 144.689 142.411 C 141.389 143.611 138.589 145.911 136.389 148.711 C 134.089 151.911 132.389 155.411 131.089 159.211 C 130.489 160.611 129.989 162.111 129.589 163.611 C 128.689 167.211 128.189 170.911 127.889 174.611 C 127.689 176.111 127.589 177.711 127.389 179.311 C 127.489 179.611 127.589 180.211 127.889 180.811 Z" class="a" style="fill: rgb(63, 136, 252);"/>
  <path d="M 144.789 183.311 C 146.289 182.711 147.789 182.011 148.989 181.011 C 149.489 180.711 149.889 180.211 150.189 179.811 C 150.589 178.911 150.689 178.111 150.489 177.211 C 150.089 172.611 149.589 167.911 150.489 163.411 C 149.889 162.811 149.289 162.311 148.789 161.911 C 147.489 160.711 145.389 158.511 143.489 158.711 C 143.985 160.792 144.385 162.894 144.689 165.011 C 144.989 167.111 144.889 169.311 145.189 171.411 C 145.689 175.111 145.589 178.911 144.889 182.511 C 144.889 182.911 144.889 183.111 144.789 183.311 Z" style="fill: rgb(34, 93, 147);"/>
  <path d="M 161.389 165.611 C 161.589 165.711 161.789 165.911 161.889 166.211 C 161.889 166.411 161.789 166.711 161.689 166.811 C 160.489 168.511 158.889 170.111 157.089 171.211 L 156.489 171.511 C 156.189 171.511 155.989 171.411 155.789 171.211 L 147.689 165.011 C 145.989 163.811 144.389 162.311 143.189 160.611 C 142.189 159.111 141.589 157.411 141.089 155.711 C 139.489 150.611 144.389 148.411 147.589 152.111 C 151.989 156.911 155.889 161.711 161.389 165.611 Z" class="a" style="fill: rgb(63, 136, 252);"/>
  <path d="M 160.689 238.311 C 160.489 237.911 160.589 237.511 160.789 237.211 C 161.089 236.911 161.589 237.011 161.989 237.211 C 162.889 237.611 163.689 238.011 164.589 238.211 C 165.589 238.511 166.489 238.311 167.289 237.911 C 167.789 237.611 168.289 237.211 168.689 237.211 C 168.989 237.211 169.189 237.311 169.489 237.511 C 170.389 237.911 171.189 238.311 172.089 238.411 C 172.489 238.411 172.889 238.611 173.189 238.811 C 173.289 238.911 173.389 239.011 173.389 239.111 C 173.389 239.411 173.089 239.611 172.889 239.711 C 169.989 240.811 166.889 240.411 163.889 240.111 L 162.789 240.111 C 162.289 240.211 161.589 240.511 161.289 240.111 C 161.014 239.538 160.812 238.934 160.689 238.311 Z M 133.789 246.011 C 133.689 245.611 133.789 245.211 134.089 244.911 C 134.489 244.611 134.889 244.911 135.289 245.111 C 136.089 245.611 136.889 246.111 137.789 246.311 C 138.664 246.611 139.614 246.611 140.489 246.311 C 140.989 246.111 141.489 245.711 141.989 245.811 C 142.289 245.911 142.489 246.011 142.689 246.211 C 143.489 246.811 144.189 247.211 145.189 247.411 C 145.589 247.511 145.989 247.711 146.289 247.911 C 146.389 248.011 146.389 248.111 146.489 248.211 C 146.489 248.511 146.189 248.711 145.889 248.711 C 142.889 249.511 139.889 248.711 136.889 247.911 C 136.589 247.811 136.189 247.711 135.789 247.711 C 135.289 247.711 134.589 247.911 134.289 247.411 C 133.889 247.211 133.789 246.611 133.789 246.011 Z" class="d" style="fill: rgb(71, 63, 71);"/>
  <path d="M 159.089 137.611 C 158.889 138.411 158.589 139.111 158.389 139.911 C 158.189 141.111 157.889 142.211 157.489 143.311 C 157.089 144.411 156.289 145.311 155.189 145.711 C 153.989 146.111 152.789 145.511 152.389 144.411 C 151.689 144.611 151.489 145.411 151.489 146.011 C 151.589 146.711 151.489 147.311 151.089 147.911 C 150.489 148.711 149.289 148.311 148.489 147.811 C 145.989 146.211 144.789 143.111 145.289 140.211 C 145.989 137.111 145.989 133.511 147.689 130.911 C 148.289 130.011 149.089 129.311 149.989 128.711 C 150.789 128.111 151.689 127.711 152.689 127.611 C 153.389 127.611 153.989 127.611 154.689 127.811 C 157.589 128.311 160.089 128.811 160.089 132.011 C 160.089 133.811 159.789 135.811 159.089 137.611 Z" class="c" style="fill: rgb(252, 189, 186);"/>
  <path d="M 155.489 132.311 C 154.989 132.311 154.489 132.211 154.189 132.511 C 153.889 132.811 153.789 133.411 153.489 133.811 C 152.989 134.711 151.789 134.911 150.889 135.211 C 149.689 135.811 149.089 137.011 149.089 138.311 C 149.089 137.911 148.989 137.511 148.789 137.111 C 148.551 136.805 148.125 136.72 147.789 136.911 C 147.689 137.111 147.589 137.211 147.589 137.411 C 147.489 138.211 147.889 138.911 148.489 139.411 C 147.889 140.611 146.689 141.311 145.289 141.311 C 144.855 141.317 144.432 141.176 144.089 140.911 C 143.889 140.711 143.689 140.411 143.589 140.111 C 142.789 137.911 143.989 135.611 144.289 133.311 C 144.289 132.511 144.489 131.711 144.689 130.911 C 144.989 130.311 145.289 129.811 145.789 129.511 C 146.989 128.011 148.789 126.811 150.689 126.211 C 152.489 125.711 156.189 125.911 157.589 127.411 C 158.589 128.611 158.389 130.511 157.089 131.411 C 156.689 132.111 156.089 132.311 155.489 132.311 Z" style="fill: rgb(61, 59, 58);"/>
  <linearGradient id="G" gradientUnits="userSpaceOnUse" x1="183.715" y1="141.961" x2="181.658" y2="385.467" gradientTransform="matrix(1, 0, 0, 1, 4.788535, 61.810989)">
    <stop offset="0.01"/>
    <stop offset="0.08" stop-opacity=".69"/>
    <stop offset="0.21" stop-opacity=".32"/>
    <stop offset="1" stop-opacity="0"/>
  </linearGradient>
  <path d="M 154.689 339.211 L 154.689 313.711 C 158.089 306.411 164.689 311.411 164.689 311.411 C 167.589 314.411 172.289 314.511 175.289 311.711 C 178.289 308.911 178.389 304.111 175.589 301.111 C 172.689 298.111 167.989 298.011 164.989 300.811 L 164.689 301.111 C 158.489 305.211 154.689 298.811 154.689 298.811 L 154.689 273.311 L 180.189 273.311 C 180.189 273.311 186.589 269.611 182.489 263.311 C 179.489 260.411 179.389 255.711 182.189 252.711 C 185.089 249.711 189.789 249.611 192.789 252.411 C 195.789 255.311 195.889 260.011 193.089 263.011 L 192.789 263.311 C 192.789 263.311 187.789 269.911 195.089 273.311 L 220.589 273.311 L 220.589 339.311 L 154.689 339.211 Z" fill="url(#G)"/>
  <g class="a" transform="matrix(1, 0, 0, 1, 4.788535, 61.810989)" style="fill: rgb(252, 91, 63);">
    <path d="M101.1 276h-4.6l47.1-124.5c.3-.9 1.2-1.3 2-1.3 1.2 0 2.1 1 2.1 2.1 0 .3 0 .5-.1.8L101.1 276zm27.6 0H124l47.8-125.9h4.6z"/>
    <path d="M164.3 169.7h-24.4l1.2-3.2h24.4zm-7.5 19.8h-24.4l1.2-3.2H158zm-7.5 19.8h-24.4l1.3-3.3h24.3zm-7.5 19.8h-24.3l1.2-3.3h24.4zm-7.5 19.7H110l1.2-3.2h24.4z"/>
  </g>
  <path d="M 146.089 231.511 L 139.889 248.011 L 162.889 248.011 L 161.689 251.311 L 138.689 251.311 L 132.489 267.811 L 155.489 267.811 L 154.289 271.111 L 131.289 271.111 L 125.089 287.611 L 148.089 287.611 L 146.889 290.911 L 123.889 290.911 L 117.689 307.411 L 140.689 307.411 L 139.489 310.711 L 116.489 310.711 L 105.889 337.811 L 101.289 337.811 L 148.389 213.311 C 148.889 212.211 150.189 211.811 151.289 212.211 C 151.989 212.511 152.489 213.311 152.489 213.911 C 152.489 214.211 152.489 214.411 152.389 214.711 L 147.289 228.211 L 170.289 228.211 L 169.089 231.511 L 146.089 231.511 Z" style="fill: rgb(63, 136, 252);"/>
  <path d="M 133.489 337.811 L 128.789 337.811 L 176.589 211.911 L 181.189 211.911 Z" style="fill: rgb(34, 93, 147);"/>
  <path d="M 361.889 230.111 C 361.201 230.705 360.376 231.117 359.489 231.311 C 358.689 231.311 357.889 231.211 357.189 230.911 L 345.889 227.211 C 344.089 228.511 343.689 231.111 344.889 233.011 C 346.089 234.211 347.489 235.111 348.989 235.511 L 356.789 238.311 C 360.389 240.011 364.689 239.911 368.189 238.211 C 370.489 237.411 373.089 236.511 374.189 234.311 C 375.389 232.111 374.489 229.211 374.889 226.711 C 375.289 225.111 375.689 223.411 375.889 221.811 C 375.889 220.411 374.689 218.211 372.989 218.511 C 371.589 218.811 370.489 221.311 369.689 222.411 C 367.589 225.211 364.989 227.911 361.889 230.111 Z" class="b" style="fill: rgb(255, 255, 255);"/>
  <path d="M 344.489 226.511 C 344.389 226.211 344.189 225.911 343.889 225.611 C 343.642 225.395 343.303 225.32 342.989 225.411 C 342.689 225.611 342.489 226.011 342.489 226.311 C 342.489 226.411 342.489 226.611 342.389 226.711 C 342.289 226.811 342.189 226.711 341.989 226.711 C 340.789 226.411 339.389 226.211 338.089 226.111 C 337.652 226.034 337.226 226.29 337.089 226.711 L 337.089 227.211 C 337.189 227.711 337.489 228.111 337.789 228.411 C 338.489 229.511 338.789 230.911 339.789 231.711 C 340.489 232.111 341.189 232.311 341.889 232.211 C 342.689 232.211 343.289 232.011 344.089 232.111 C 344.589 232.211 345.189 232.211 345.489 231.911 C 345.789 231.611 346.089 231.211 345.989 230.711 C 345.889 230.011 345.689 229.411 345.289 228.811 C 345.289 228.011 344.889 227.211 344.489 226.511 Z M 376.189 311.811 C 371.889 310.811 372.689 317.011 371.589 319.311 C 370.789 320.511 369.989 321.511 368.889 322.411 C 367.789 323.311 367.189 324.511 366.989 325.911 C 366.989 326.211 366.989 326.411 367.189 326.711 C 367.389 327.011 367.789 327.211 368.089 327.211 C 370.589 328.011 373.289 327.711 375.489 326.411 C 376.589 325.911 377.389 325.111 378.089 324.011 C 378.589 322.811 378.789 321.711 378.789 320.411 C 378.589 317.911 379.689 312.611 376.189 311.811 Z" class="e" style="fill: rgb(253, 185, 169);"/>
  <path d="M 378.489 327.211 C 377.389 328.511 371.589 330.411 368.989 330.211 C 366.389 330.011 364.089 328.911 364.389 327.111 C 364.689 325.511 369.189 321.511 370.089 321.611 C 370.989 321.711 371.589 323.611 373.389 324.011 C 374.889 324.311 376.589 323.711 377.589 322.511 C 377.889 322.111 378.489 321.911 378.889 322.111 C 379.489 323.711 379.389 325.711 378.489 327.211 Z" class="b" style="fill: rgb(9, 62, 112);"/>
  <path d="M 390.989 314.211 C 386.689 313.111 387.489 319.411 386.389 321.611 C 385.589 322.811 384.789 323.811 383.689 324.711 C 382.589 325.611 381.989 326.811 381.789 328.211 C 381.789 328.511 381.789 328.711 381.989 329.011 C 382.189 329.311 382.589 329.511 382.889 329.511 C 385.389 330.211 388.089 330.011 390.289 328.711 C 391.389 328.211 392.189 327.411 392.889 326.311 C 393.36 325.205 393.598 324.013 393.589 322.811 C 393.489 320.311 394.689 315.011 390.989 314.211 Z" class="e" style="fill: rgb(253, 185, 169);"/>
  <path d="M 393.289 329.511 C 392.189 330.811 386.389 332.711 383.789 332.511 C 381.189 332.311 378.889 331.211 379.189 329.411 C 379.489 327.811 383.989 323.811 384.889 323.911 C 385.789 324.011 386.389 325.911 388.189 326.311 C 389.689 326.611 391.389 326.011 392.389 324.911 C 392.689 324.511 393.289 324.311 393.689 324.511 C 394.389 326.111 394.189 328.011 393.289 329.511 Z" class="b" style="fill: rgb(9, 62, 112);"/>
  <g class="d" transform="matrix(1, 0, 0, 1, 4.788535, 61.810989)" style="fill: rgb(71, 63, 71);">
    <path d="M375 196.3l5.8 61.1 8.4-1.1c3.3-14.9 2.5-59.5 2.5-59.5l-16.7-.5z"/>
    <path d="M380.9 194.7l-5.8 61.1-8.4-1.1c-4.8-38.7-.9-62.7-.9-62.7l15.1 2.7z"/>
  </g>
  <path d="M 371.389 234.411 C 371.289 233.211 370.989 232.211 370.889 231.011 C 370.589 228.711 370.689 226.411 370.989 224.111 C 371.389 221.711 372.189 219.311 373.189 217.011 C 374.189 215.111 375.889 214.311 377.889 213.311 C 379.489 212.411 381.389 211.811 383.189 211.511 C 384.489 211.411 385.789 211.511 386.989 211.711 C 390.889 212.511 396.089 214.411 398.789 217.611 C 400.789 219.911 401.089 223.311 401.089 226.311 C 401.187 230.58 401.087 234.851 400.789 239.111 C 400.789 239.711 400.689 240.311 400.689 240.911 C 400.489 245.611 399.689 250.311 398.589 254.911 C 398.389 256.311 397.589 257.611 396.389 258.511 C 393.289 260.311 388.589 259.311 385.289 258.911 C 380.889 258.211 376.389 257.711 372.389 255.411 C 371.589 255.011 370.989 254.411 370.589 253.611 C 370.389 252.511 370.489 251.611 370.989 250.611 C 372.289 246.311 371.289 241.711 371.289 237.211 C 371.289 236.411 371.389 235.611 371.389 234.811 L 371.389 234.411 Z" class="b" style="fill: rgb(255, 255, 255);"/>
  <linearGradient id="J" gradientUnits="userSpaceOnUse" x1="344.072" y1="99.732" x2="432.986" y2="308.477" gradientTransform="matrix(1, 0, 0, 1, 4.788535, 61.810989)">
    <stop offset="0.01"/>
    <stop offset="0.08" stop-opacity=".69"/>
    <stop offset="0.21" stop-opacity=".32"/>
    <stop offset="1" stop-opacity="0"/>
  </linearGradient>
  <path d="M 385.289 242.311 C 386.389 243.011 387.489 243.511 388.789 243.611 C 392.389 244.711 396.089 245.211 399.689 246.311 C 399.989 246.311 400.189 246.511 400.389 246.611 C 400.589 246.811 400.589 247.111 400.589 247.411 C 400.589 248.511 400.489 249.511 400.089 250.511 C 399.989 251.011 399.689 251.511 399.289 251.711 C 398.774 251.911 398.203 251.911 397.689 251.711 L 384.189 248.811 C 383.189 248.511 382.289 248.411 381.189 248.411 C 379.989 248.511 378.889 248.811 377.689 249.311 C 375.589 250.011 373.489 250.511 371.389 250.611 C 371.489 248.011 371.789 245.411 372.389 242.911 C 372.589 242.111 372.889 241.511 373.289 240.811 C 373.789 240.111 374.289 239.511 374.789 239.011 C 376.989 236.711 378.389 233.911 380.689 231.611 C 381.889 230.411 383.289 229.711 384.289 228.311 C 384.689 227.811 388.189 223.311 387.889 222.811 C 388.589 223.711 390.289 222.811 390.889 223.711 C 391.289 224.311 390.889 224.911 390.489 225.511 C 387.889 229.911 386.089 234.711 385.089 239.711 C 384.689 241.111 384.289 241.511 385.289 242.311 Z" fill="url(#J)"/>
  <path d="M 374.189 186.411 C 377.689 188.611 378.689 193.211 376.389 196.811 C 375.289 198.511 373.589 199.711 371.589 200.111 C 371.589 200.111 363.789 203.011 368.189 209.711 L 389.689 223.411 L 376.089 244.911 C 369.389 249.211 366.489 241.511 366.489 241.511 C 365.689 237.511 361.789 234.911 357.689 235.611 C 353.689 236.411 351.089 240.311 351.789 244.411 C 352.589 248.411 356.489 251.011 360.589 250.311 C 360.689 250.311 360.789 250.311 360.889 250.211 C 368.389 250.011 368.089 257.511 368.089 257.511 L 354.489 279.011 L 298.789 243.611 L 312.289 222.311 C 318.989 218.011 321.889 225.711 321.889 225.711 C 322.689 229.711 326.589 232.411 330.689 231.611 C 334.689 230.811 337.389 226.911 336.589 222.811 C 335.789 218.811 331.889 216.111 327.789 216.911 C 327.689 216.911 327.589 217.011 327.389 217.011 C 319.889 217.211 320.189 209.711 320.189 209.711 L 333.989 188.011 L 355.489 201.711 C 355.489 201.711 362.989 202.011 362.789 194.511 C 362.289 192.511 362.689 190.411 363.789 188.611 C 366.289 185.311 370.789 184.311 374.189 186.411 Z" class="a" style="fill: rgb(9, 62, 112);"/>
  <path d="M 407.389 230.511 C 407.989 231.511 408.489 232.511 408.689 233.611 C 409.189 235.411 409.189 237.411 408.789 239.311 C 408.589 241.111 407.889 242.911 406.889 244.411 C 404.589 247.111 400.489 247.411 396.889 247.111 C 392.889 246.711 388.789 245.911 384.989 244.711 C 384.589 244.611 384.289 244.511 383.989 244.211 C 383.689 243.811 383.389 243.411 383.289 243.011 C 382.989 241.811 382.789 240.711 382.689 239.511 C 386.789 238.311 391.289 239.311 395.589 238.611 C 396.689 238.611 397.389 237.711 397.389 236.811 C 397.389 236.611 397.389 236.411 397.289 236.211 C 397.089 233.811 395.589 231.711 394.889 229.411 C 394.189 227.211 394.289 224.811 395.089 222.611 C 395.589 221.111 396.689 219.711 398.189 219.111 C 399.889 218.511 400.589 219.911 401.489 221.111 C 403.789 224.111 405.689 227.111 407.389 230.511 Z" class="b" style="fill: rgb(255, 255, 255);"/>
  <path d="M 381.089 237.911 L 380.489 237.611 C 380.189 237.611 379.889 237.811 379.689 238.211 C 379.589 238.511 379.389 238.811 379.289 239.111 C 378.889 239.611 378.189 239.811 377.689 239.811 C 377.089 239.711 376.489 239.711 375.889 239.811 C 375.689 239.811 375.389 240.011 375.289 240.111 C 375.089 240.311 374.989 240.511 374.889 240.711 C 374.689 241.711 374.989 242.611 375.689 243.311 C 376.389 244.011 377.089 244.511 378.089 244.711 C 379.089 245.111 379.989 245.311 381.089 245.111 C 381.689 244.911 382.189 244.711 382.589 244.411 L 384.589 243.311 C 384.789 243.211 384.889 243.111 385.089 243.011 C 385.589 242.411 384.889 240.811 384.489 240.311 C 383.489 239.211 382.389 238.511 381.089 237.911 Z M 379.789 205.311 C 379.789 204.111 379.889 202.911 379.989 201.811 C 380.089 200.611 380.289 199.811 380.489 198.711 C 380.489 198.111 380.789 197.511 381.289 197.211 C 382.789 196.211 384.689 195.811 386.489 195.911 C 387.878 195.818 389.247 196.286 390.289 197.211 C 390.889 198.011 391.289 198.911 391.389 199.911 C 391.489 202.511 391.189 205.111 390.589 207.611 C 390.289 209.611 390.189 211.511 390.289 213.611 C 389.317 214.301 388.176 214.715 386.989 214.811 C 386.389 214.811 385.889 214.711 385.489 214.511 C 385.189 214.411 384.889 214.311 384.789 214.011 C 384.689 213.811 384.689 213.511 384.789 213.311 L 384.789 212.611 C 384.889 211.411 384.889 210.311 384.689 209.111 C 384.689 209.011 384.689 208.911 384.589 208.811 L 383.989 208.811 C 383.389 208.911 382.789 208.911 382.289 208.811 C 381.605 208.72 380.972 208.403 380.489 207.911 C 379.889 207.311 379.689 206.311 379.789 205.311 Z" class="e" style="fill: rgb(253, 185, 169);"/>
  <path d="M 382.289 197.911 C 381.889 197.911 381.489 198.111 381.089 197.911 C 380.689 197.611 380.389 197.211 380.089 196.811 C 379.389 195.911 379.089 194.911 379.189 193.811 C 379.189 193.311 379.389 192.811 379.689 192.511 C 379.989 192.211 380.389 191.811 380.889 191.611 C 381.789 191.211 382.689 191.011 383.589 191.011 C 384.889 191.211 386.189 191.811 387.189 192.711 C 387.389 192.911 387.689 193.111 387.989 193.211 C 388.289 193.311 388.589 193.311 388.789 193.211 C 390.489 193.011 392.289 193.611 393.589 194.611 C 394.389 195.311 394.889 196.111 395.689 196.711 C 396.489 197.311 397.189 197.511 397.689 198.211 C 398.089 198.911 397.989 199.711 397.489 200.411 C 396.989 201.011 396.289 201.411 395.489 201.611 C 395.889 202.611 395.389 203.511 394.389 203.911 C 394.089 203.911 393.789 204.111 393.489 204.211 C 393.289 204.411 393.189 204.611 392.989 204.811 C 392.489 205.211 391.889 205.311 391.789 206.011 C 391.689 206.311 391.689 206.611 391.689 206.811 C 391.689 207.211 391.489 207.611 391.189 207.911 C 390.989 208.111 390.689 208.611 390.389 208.711 C 390.089 208.811 389.889 208.411 389.789 208.111 C 389.489 206.911 389.589 205.711 389.989 204.611 C 390.389 204.011 390.589 203.411 390.589 202.911 C 390.589 202.211 389.689 201.711 389.289 202.111 C 388.789 202.511 388.789 203.311 388.289 203.211 C 388.989 201.411 388.089 199.411 386.389 198.511 C 385.389 198.211 384.489 198.111 383.489 198.111 C 383.289 198.011 382.789 197.911 382.289 197.911 Z" class="d" style="fill: rgb(71, 63, 71);"/>
  <path d="M 383.989 209.011 C 385.289 208.711 386.689 208.311 387.889 207.811 C 388.089 210.011 386.689 212.111 384.589 212.811 C 384.689 211.611 384.689 210.511 384.589 209.311 C 384.589 209.211 384.589 209.111 384.489 209.011 L 383.989 209.011 Z" fill="#de9f93"/>
  <path d="M 341.389 218.911 C 341.789 219.511 341.889 220.211 341.689 220.911 C 341.489 221.611 341.089 222.211 340.589 222.811 L 338.489 226.011 C 337.889 226.911 337.189 227.711 336.189 227.611 C 333.889 227.411 332.789 221.411 333.689 219.511 C 334.689 217.311 339.889 216.911 341.389 218.911 Z" class="e" style="fill: rgb(253, 185, 169);"/>
  <path d="M 352.389 273.211 L 352.389 339.211 L 286.389 339.211 L 286.389 313.711 C 286.389 313.711 290.089 307.311 296.389 311.411 C 299.289 314.411 303.989 314.511 306.989 311.711 C 309.989 308.811 310.089 304.111 307.289 301.111 C 304.389 298.111 299.689 298.011 296.689 300.811 L 296.389 301.111 C 296.389 301.111 289.789 306.111 286.389 298.811 L 286.389 273.311 L 311.889 273.311 C 319.189 269.911 314.189 263.311 314.189 263.311 C 311.189 260.411 311.089 255.711 313.889 252.711 C 316.789 249.711 321.489 249.611 324.489 252.411 C 327.489 255.311 327.589 260.011 324.789 263.011 L 324.489 263.311 C 320.389 269.511 326.789 273.311 326.789 273.311 L 352.389 273.211 Z"/>
  <path d="M 352.389 273.211 L 352.389 339.211 L 286.389 339.211 L 286.389 313.711 C 286.389 313.711 290.089 307.311 296.389 311.411 C 299.289 314.411 303.989 314.511 306.989 311.711 C 309.989 308.811 310.089 304.111 307.289 301.111 C 304.389 298.111 299.689 298.011 296.689 300.811 L 296.389 301.111 C 296.389 301.111 289.789 306.111 286.389 298.811 L 286.389 273.311 L 311.889 273.311 C 319.189 269.911 314.189 263.311 314.189 263.311 C 311.189 260.411 311.089 255.711 313.889 252.711 C 316.789 249.711 321.489 249.611 324.489 252.411 C 327.489 255.311 327.589 260.011 324.789 263.011 L 324.489 263.311 C 320.389 269.511 326.789 273.311 326.789 273.311 L 352.389 273.211 Z" style="fill: rgb(9, 62, 112);"/>
  <g class="a" transform="matrix(1, 0, 0, 1, 4.788535, 61.810989)" style="fill: rgb(252, 91, 63);">
    <path d="M238.6 178.4c0 4.1-3.4 7.5-7.5 7.5-2 0-3.9-.9-5.4-2.3-6.2-4.1-10 2.3-10 2.3v25.5h66v-66h-66v25.4c3.4 7.3 10 2.3 10 2.3 2.9-3 7.6-3.1 10.6-.2 1.4 1.5 2.3 3.5 2.3 5.5z" style="fill: rgb(34, 93, 147);"/>
    <path d="M243.6 221.3c-3 2.9-3.1 7.6-.3 10.6 2.9 3 7.6 3.1 10.6.3 3-2.9 3.1-7.6.3-10.6l-.3-.3s-5-6.6 2.3-10h-15c0 .1 6.5 3.8 2.4 10z" style="fill: rgb(34, 93, 147);"/>
  </g>
  <g class="a" transform="matrix(1, 0, 0, 1, 4.788535, 61.810989)" style="fill: rgb(252, 91, 63);">
    <path d="M215.7 211.4v66h66v-25.5s3.7-6.4 10-2.3c2.9 3 7.6 3.1 10.6.3s3.1-7.6.3-10.6c-2.9-3-7.6-3.1-10.6-.3l-.3.3s-6.6 5-10-2.3v-25.5h-25.4c-7.3 3.4-2.3 10-2.3 10 3 2.9 3.1 7.6.3 10.6s-7.6 3.1-10.6.3c-3-2.9-3.1-7.6-.3-10.6l.3-.3c4.1-6.2-2.3-10-2.3-10l-25.7-.1z" style="fill: rgb(63, 136, 252);"/>
    <path d="M149.9 277.4v-25.5c3.4-7.3 10-2.3 10-2.3 2.9 3 7.6 3.1 10.6.3s3.1-7.6.3-10.6c-2.9-3-7.6-3.1-10.6-.3l-.3.3c-6.2 4.1-10-2.3-10-2.3v-25.5h25.5s6.4-3.7 2.3-10c-3-2.9-3.1-7.6-.3-10.6 2.9-3 7.6-3.1 10.6-.3 3 2.9 3.1 7.6.3 10.6l-.3.3s-5 6.6 2.3 10h25.5v66l-65.9-.1z" transform="matrix(1, 0, 0, 1, 0, 0)"/>
  </g>
  <path d="M 154.689 339.211 L 154.689 313.711 C 158.089 306.411 164.689 311.411 164.689 311.411 C 167.589 314.411 172.289 314.511 175.289 311.711 C 178.289 308.911 178.389 304.111 175.589 301.111 C 172.689 298.111 167.989 298.011 164.989 300.811 L 164.689 301.111 C 158.489 305.211 154.689 298.811 154.689 298.811 L 154.689 273.311 L 180.189 273.311 C 180.189 273.311 186.589 269.611 182.489 263.311 C 179.489 260.411 179.389 255.711 182.189 252.711 C 185.089 249.711 189.789 249.611 192.789 252.411 C 195.789 255.311 195.889 260.011 193.089 263.011 L 192.789 263.311 C 192.789 263.311 187.789 269.911 195.089 273.311 L 220.589 273.311 L 220.589 339.311 L 154.689 339.211 Z" style="fill: rgb(34, 93, 147);"/>
  <path d="M 243.489 240.211 C 243.489 244.311 240.089 247.711 235.989 247.711 C 233.989 247.711 232.089 246.811 230.589 245.411 C 230.589 245.411 223.989 240.411 220.589 247.711 L 220.589 273.211 L 195.089 273.211 C 187.789 269.811 192.789 263.211 192.789 263.211 C 195.789 260.311 195.889 255.611 193.089 252.611 C 190.289 249.611 185.489 249.511 182.489 252.311 C 179.489 255.211 179.389 259.911 182.189 262.911 L 182.489 263.211 C 186.589 269.411 180.189 273.211 180.189 273.211 L 154.789 273.211 L 154.789 207.211 L 179.989 207.211 C 187.289 210.611 182.289 217.211 182.289 217.211 C 179.289 220.111 179.189 224.811 181.989 227.811 C 184.889 230.811 189.589 230.911 192.589 228.111 C 195.589 225.211 195.689 220.511 192.889 217.511 L 192.589 217.211 C 188.489 211.011 194.889 207.211 194.889 207.211 L 220.589 207.211 L 220.589 232.611 C 220.589 232.611 224.289 239.011 230.589 234.911 C 233.489 231.911 238.189 231.811 241.189 234.711 C 242.689 236.211 243.489 238.211 243.489 240.211 Z M 259.589 367.011 C 259.689 371.111 256.289 374.511 252.189 374.611 C 250.189 374.611 248.189 373.811 246.689 372.411 C 246.689 372.411 239.989 367.511 236.789 374.911 L 237.189 400.411 L 211.689 400.811 C 204.389 397.511 209.189 390.911 209.189 390.911 C 212.189 388.011 212.189 383.311 209.289 380.311 C 206.389 377.311 201.689 377.311 198.689 380.211 C 195.689 383.111 195.689 387.811 198.589 390.811 L 198.789 391.011 C 202.989 397.111 196.589 401.011 196.589 401.011 L 171.089 401.411 L 170.089 335.411 L 195.289 335.011 C 202.589 338.311 197.789 344.911 197.789 344.911 C 194.789 347.811 194.789 352.511 197.689 355.511 C 200.589 358.511 205.289 358.511 208.289 355.611 C 211.289 352.711 211.289 348.011 208.389 345.011 L 208.189 344.811 C 203.989 338.711 210.389 334.811 210.389 334.811 L 236.089 334.411 L 236.489 359.911 C 236.489 359.911 240.289 366.311 246.489 362.111 C 247.889 360.611 249.889 359.711 251.989 359.711 C 256.189 359.511 259.589 362.911 259.589 367.011 Z" class="a" style="fill: rgb(63, 136, 252);"/>
  <linearGradient id="N" gradientUnits="userSpaceOnUse" x1="149.544" y1="259.281" x2="268.872" y2="388.965" gradientTransform="matrix(1, 0, 0, 1, 4.788535, 61.810989)">
    <stop offset="0.01"/>
    <stop offset="0.08" stop-opacity=".69"/>
    <stop offset="0.21" stop-opacity=".32"/>
    <stop offset="1" stop-opacity="0"/>
  </linearGradient>
  <path d="M 179.589 335.511 C 178.589 336.611 177.989 338.811 179.389 339.611 C 179.889 339.911 180.489 340.111 180.989 340.111 L 188.689 341.111 C 188.489 341.111 192.489 386.511 194.089 396.211 C 194.289 397.411 194.789 398.811 195.889 398.911 C 196.589 398.911 197.189 398.511 197.589 397.811 C 198.789 396.111 199.289 394.111 199.389 391.911 C 201.289 377.011 202.189 362.111 202.089 347.211 C 202.089 344.211 201.989 341.211 200.589 338.611 C 198.789 335.711 195.789 333.811 192.489 333.211 C 188.289 332.311 182.789 332.011 179.589 335.511 Z" fill="url(#N)"/>
  <path d="M 198.189 429.811 L 198.189 430.011 C 198.489 430.911 199.489 431.111 200.389 431.211 C 201.289 431.311 201.989 431.311 202.889 431.311 C 203.289 431.311 203.689 431.311 204.089 431.111 C 204.489 430.911 204.789 430.711 205.089 430.511 L 207.489 428.811 C 208.189 428.311 208.689 427.811 209.289 427.211 C 209.889 426.611 210.189 425.811 210.089 425.011 C 209.989 424.111 209.389 423.511 208.689 423.311 C 208.189 423.211 207.689 423.211 207.189 423.311 C 205.989 423.511 204.989 422.911 204.289 422.011 C 204.189 421.511 203.889 421.111 203.589 420.811 C 203.189 420.611 202.789 420.611 202.389 420.711 C 201.489 420.711 200.789 420.911 199.989 421.211 C 199.189 421.511 198.589 422.211 198.289 422.911 C 198.189 423.311 198.189 423.711 198.189 424.111 L 198.189 426.411 L 197.989 429.311 C 198.089 429.311 198.089 429.611 198.189 429.811 Z M 221.289 430.211 C 219.689 431.011 217.989 431.511 216.289 432.111 C 215.589 432.411 214.889 432.411 214.189 432.211 C 213.589 431.911 213.189 431.411 212.989 430.911 C 212.789 430.311 212.789 429.711 212.789 429.111 C 212.882 428.158 213.083 427.219 213.389 426.311 C 213.589 425.411 213.689 424.611 213.789 423.711 L 214.289 420.111 L 218.589 421.111 C 219.089 421.211 219.489 422.911 219.789 423.311 C 220.189 423.911 220.889 424.211 221.489 424.311 C 222.289 424.211 222.889 424.111 223.689 424.111 C 224.689 424.311 225.389 425.211 225.389 426.211 C 225.389 427.211 224.989 428.111 224.189 428.811 C 223.389 429.511 222.689 430.011 221.689 430.311 L 221.289 430.211 Z" fill="#262836"/>
  <path d="M 221.289 425.411 C 220.089 426.111 218.989 426.611 217.789 427.011 L 217.689 427.011 C 215.689 427.811 213.489 424.711 213.489 424.711 C 213.489 424.711 210.689 407.311 210.789 400.211 C 210.889 395.311 209.689 388.211 207.889 375.511 C 207.389 388.611 205.189 394.211 205.789 398.911 C 206.689 406.011 205.589 423.711 205.589 423.711 C 205.589 423.711 203.689 427.211 201.689 426.711 L 201.589 426.711 C 200.389 426.411 199.089 426.011 197.989 425.511 C 197.989 425.511 195.589 401.211 195.589 394.811 C 195.589 388.411 195.889 382.711 195.889 382.711 L 194.689 362.411 L 200.089 354.611 L 200.589 354.411 L 200.989 354.011 L 206.989 349.711 C 206.989 349.711 206.989 350.811 206.889 352.411 L 211.489 354.911 L 211.989 355.211 L 212.489 355.311 L 220.189 356.611 L 222.889 394.011 C 223.289 400.411 221.289 425.411 221.289 425.411 Z"/>
  <linearGradient id="O" gradientUnits="userSpaceOnUse" x1="175.129" y1="288.701" x2="243.452" y2="384.346" gradientTransform="matrix(1, 0, 0, 1, 4.788535, 61.810989)">
    <stop offset="0.01"/>
    <stop offset="0.08" stop-opacity=".69"/>
    <stop offset="0.21" stop-opacity=".32"/>
    <stop offset="1" stop-opacity="0"/>
  </linearGradient>
  <path d="M 221.289 425.411 C 220.089 426.111 218.989 426.611 217.789 427.011 L 217.689 427.011 C 215.689 427.811 213.489 424.711 213.489 424.711 C 213.489 424.711 210.689 407.311 210.789 400.211 C 210.889 395.311 209.689 388.211 207.889 375.511 C 207.389 388.611 205.189 394.211 205.789 398.911 C 206.689 406.011 205.589 423.711 205.589 423.711 C 205.589 423.711 203.689 427.211 201.689 426.711 L 201.589 426.711 C 200.389 426.411 199.089 426.011 197.989 425.511 C 197.989 425.511 195.589 401.211 195.589 394.811 C 195.589 388.411 195.889 382.711 195.889 382.711 L 194.689 362.411 L 200.089 354.611 L 200.589 354.411 L 200.989 354.011 L 206.989 349.711 C 206.989 349.711 206.989 350.811 206.889 352.411 L 211.489 354.911 L 211.989 355.211 L 212.489 355.311 L 220.189 356.611 L 222.889 394.011 C 223.289 400.411 221.289 425.411 221.289 425.411 Z" fill="url(#O)"/>
  <path d="M 257.689 316.911 C 257.789 316.811 257.889 316.811 257.989 316.811 C 258.289 316.811 258.289 317.311 258.189 317.611 C 257.889 318.511 257.489 319.211 256.989 319.911 C 256.789 320.111 256.689 320.311 256.689 320.611 C 256.689 320.911 256.889 321.011 257.089 321.211 C 258.189 322.411 258.489 324.011 258.189 325.511 C 257.789 327.011 256.989 328.411 255.989 329.411 C 255.389 330.111 254.689 330.611 253.789 330.611 C 252.389 330.611 250.489 328.811 249.889 327.511 C 249.389 326.311 249.689 324.811 250.589 323.811 C 252.189 320.911 254.689 318.511 257.689 316.911 Z M 214.989 302.611 C 215.489 303.111 216.189 303.611 216.089 304.211 C 215.989 304.611 215.589 304.811 215.289 305.011 C 214.567 305.722 214.169 306.698 214.189 307.711 C 214.189 308.711 214.089 309.611 213.789 310.611 C 213.389 311.611 212.489 312.111 211.489 311.911 C 210.889 311.711 210.289 311.211 209.889 311.511 C 209.289 311.711 209.289 312.211 209.089 312.611 C 208.489 313.611 207.389 314.011 206.189 313.911 C 205.089 313.711 204.089 313.311 203.089 312.811 C 202.683 312.602 202.312 312.333 201.989 312.011 C 201.789 311.611 201.789 311.211 201.889 310.911 C 202.289 309.711 202.789 308.811 203.489 307.811 C 204.689 306.011 205.389 304.011 205.489 301.811 C 205.589 300.311 205.489 298.611 206.489 297.511 C 207.789 296.011 210.889 296.011 212.489 297.111 C 214.289 298.311 213.389 301.011 214.989 302.611 Z" fill="#a67c52"/>
  <path d="M 212.989 295.811 C 212.789 296.211 212.489 296.511 212.089 296.811 C 211.289 297.211 210.789 297.811 210.089 298.111 C 209.389 298.611 208.889 299.311 208.889 300.011 C 208.589 301.311 209.389 302.911 208.889 304.311 C 208.689 304.611 208.189 304.411 208.089 304.111 C 207.889 303.811 207.789 303.511 207.489 303.311 C 206.989 303.011 206.389 303.511 206.289 304.011 C 205.789 305.211 206.489 306.611 207.589 307.111 C 207.489 307.611 206.889 307.711 206.489 307.711 C 205.989 307.611 205.589 307.511 205.189 307.511 C 204.089 307.711 203.889 309.111 202.789 309.311 C 202.089 309.311 201.489 308.911 201.089 308.211 L 199.889 306.911 C 199.689 306.611 199.489 306.411 199.189 306.111 C 198.889 305.911 198.389 305.911 198.189 305.611 C 197.989 305.311 198.189 304.711 197.889 304.411 C 197.789 304.311 197.589 304.211 197.489 304.111 C 196.689 303.711 196.289 302.911 196.589 302.111 L 196.589 301.811 C 196.589 301.711 196.389 301.611 196.289 301.511 C 195.489 301.011 195.189 300.011 195.589 299.211 C 195.771 298.735 196.082 298.319 196.489 298.011 C 196.789 297.611 197.289 297.311 197.689 297.411 L 197.889 295.611 C 197.889 294.411 198.789 293.611 199.889 293.511 L 200.289 293.511 L 199.889 292.111 C 199.789 291.911 199.789 291.711 199.889 291.511 C 199.989 291.411 200.189 291.311 200.389 291.211 L 201.789 290.911 C 201.589 290.511 201.489 290.011 201.389 289.711 C 201.289 289.511 201.389 289.311 201.589 289.211 C 201.689 289.211 201.789 289.111 201.889 289.211 L 202.489 289.211 L 202.189 287.911 C 202.089 287.511 202.189 287.111 202.389 286.711 C 202.689 286.311 203.189 286.211 203.589 286.211 C 204.089 286.311 204.489 286.411 204.789 286.711 C 204.789 286.211 205.389 285.911 205.889 285.911 C 207.689 285.811 209.489 286.711 210.589 288.211 C 210.689 288.311 210.789 288.511 210.889 288.611 C 211.089 288.711 211.389 288.911 211.589 288.911 C 212.389 289.311 212.889 290.011 213.189 290.711 C 213.389 291.511 213.489 292.311 213.489 293.211 C 213.489 293.911 213.489 294.411 213.289 295.111 C 213.089 295.411 212.989 295.611 212.989 295.811 Z" fill="#2f3554"/>
  <g class="b" transform="matrix(1, 0, 0, 1, 4.788535, 61.810989)" style="fill: rgb(255, 255, 255);">
    <path d="M201.4 249.4c1.2.5 2.2 1.1 3.3 1.6.3.2.6.4.9.8.2.3.3.8.1 1.2-.3.5-1 .3-1.4.1-2.4-.8-4.9-1.2-7.5-1.1-.4.1-.7-.1-.9-.4-.1-.4-.1-.7.1-1.1 1.2-2.4 3.3-2 5.4-1.1z"/>
    <path d="M248.1 269.5c-.5 1.2-1.2 2.3-2.1 3.3l-2.7 2.9c-2.2 2.2-4.6 4.2-7.1 6-1.6 1.4-3.6 2.6-5.9 3.2-.9.2-1.8.2-2.7-.2-.7-.4-1.3-.8-1.8-1.3-.7-.7-7.9-9-8.1-9-.4.2-.8.6-.9 1.1-1.1 2.2-1.7 4.5-1.9 6.9-.1 1.1-.1 2.1 0 3.3.3 3.6 1.5 7.4.3 10.9-.3.8-.7 1.4-1.2 1.9-.6.5-1.2.9-1.8 1.1-1.2.5-2.4.9-3.6 1.1-.7.1-1.4.2-2.2.2-2.7.1-5.3-.4-8-.3-2.3.1-4.5.7-6.8.7-1.2.3-2.4-.6-2.7-1.8v-.4c-.9-4.9-1.3-9.8-1.3-14.7 0-1.7-.1-3.5-.2-5.2-.1-1.4.3-5.2-1.3-5.5-4.2-.9-8.6.2-12.9-.4.1-2.8 1.3-5.5 3.3-7.4 1-.9 2-1.5 3.2-2.2 1.3-1 2.5-2 3.5-3.3 2.9-3.6 6.5-6.4 10.8-8.4.7-.3 1.3-.6 2.1-.8h.5c.9-.1 1.8 0 2.7.2 6 1.1 12.1 2.4 18 4.1.8.2 1.5.5 2.2 1 .5.4.9.9 1.2 1.4l5 7.6c1.4 2.1 2.9 4.9 5 6.4 4.6-1.9 9-4.3 13-7.3.6-.4 1.2-.9 1.9-.6.2.1.4.2.6.4 1.3 1.3 2.7 2.8 1.9 5.1z"/>
  </g>
</svg>