<?xml version="1.0" encoding="utf-8"?>
<svg viewBox="0 0 500 500" xmlns="http://www.w3.org/2000/svg">
  <defs>
    <path id="H" d="M161.7 278.3h-19.8c-3 0-5.4-2.4-5.4-5.4 0-3 2.4-5.4 5.4-5.4h19.8c3 0 5.4 2.4 5.4 5.4 0 3-2.5 5.4-5.4 5.4z"/>
    <path id="I" d="M214.3 310.2a16.28 16.28 0 013.1.3c1 .1 1.9.5 2.6 1.1.4.4.7.9.8 1.4.1.6-.1 1.1-.5 1.6-.4.3-.8.6-1.3.7l-3.3 1.1c-2.3.9-4.7 1.5-7.2 1.8h-.4c-.1-.1-.2-.1-.3-.2-1.5-1.4-2.9-3.2-3.3-5.2v-.2c0-.1.1-.1.2-.2 1.5-1 3.1-1.8 4.9-2.3 1.6-.5 3.1.1 4.7.1z"/>
    <path id="J" d="M81 215.7c4.2.3 6.7-3.6 7.2-8.7.1-.6.1-1.1.1-1.7 0-1.7-.2-3.3-.6-4.9-1.8-7.8-13-4.7-13-4.7-8.7 3.9-1 19.4 6.3 20z"/>
    <path id="K" d="M76.6 243.2l-3.2 7s-6.9-8.6-9.5-17.8c-2.3-8.2 1.8-10.2 1.8-10.2 3.1-1.1 5.2 3.3 8.3 12.2 1.6 4.9 2.6 8.8 2.6 8.8z"/>
    <path id="L" d="M82.3 255.4s17.3 14.1 19.2 17.8c5.1 10.2 2.6 17.5 2.6 17.5l12.8 20.5c3 .1 6.9-.7 7.1-3.7 0-.8-.2-1.7-.6-2.4l-9.6-24c-1.9-4.7-3.9-9.6-6.9-13.7l-.3-.4c-.2-.2-.8-1-1.8-2.1-2.8-3.1-8.2-8.6-13.1-10.8-.1.1-5.9 1.8-9.4 1.3z"/>
    <path id="M" d="M264.5 231.5h40.7c1.3 0 2.4-1 2.5-2.3l2.7-30.9c.1-1.1-.7-2.1-1.8-2.3h-41c-1.3 0-2.4 1-2.5 2.3l-2.7 30.9c-.1 1.1.7 2.1 1.8 2.3h.3z"/>
    <path id="N" d="M18.8 251.9v68.3c0 1.3.9 2.4 1.9 2.4h29.7c1.1 0 1.9-1.1 1.9-2.4v-68.3c0-.2.2-.5.4-.5h230.8c.2 0 .4.3.4.5v59.7c.3.2.7.3 1 .5l.5.2v-60.8h30.2c.2 0 .4.3.4.5v68.3c0 .2-.2.5-.4.5H286c-.2 0-.4-.3-.4-.5v-1.7c-.5.1-1 .2-1.5.1v1.7c0 1.3.9 2.4 1.9 2.4h29.7c1.1 0 1.9-1.1 1.9-2.4v-68.3c0-1.3-.9-2.4-1.9-2.4H20.8c-1.1-.2-2 .9-2 2.2zm1.6 0c0-.3.2-.5.4-.5H51v68.8c0 .2-.2.5-.4.5H20.8c-.3 0-.4-.3-.4-.5v-68.3z"/>
    <path id="O" d="M20.8 322.6h29.7c1.1 0 1.9-1.1 1.9-2.4v-68.3c0-.2.2-.5.4-.5h262.9c.3 0 .4.2.4.5v68.3c0 .3-.2.5-.4.5-.5.1-.8.6-.7 1.1.1.4.4.7.7.7 1.1 0 1.9-1.1 1.9-2.4v-68.3c0-1.3-.9-2.4-1.9-2.4H52.9c-1.1 0-1.9 1.1-1.9 2.4v68.3c0 .2-.2.5-.4.5H20.8c-.3 0-.4-.2-.4-.5v-68.3c0-.3.2-.5.4-.5.5-.1.8-.6.7-1.1-.1-.4-.4-.7-.7-.7-1.1 0-1.9 1.1-1.9 2.4v68.3c-.1 1.3.8 2.4 1.9 2.4z"/>
    <path id="P" d="M15.3 244H51c.3 0 .6.3.5.7v2c0 .3-.2.6-.5.7H15.3c-.4 0-.7-.4-.6-.8v-1.7c-.1-.5.2-.8.6-.9z"/>
  </defs>
  <g class="X" transform="matrix(0.856467, 0, 0, 0.856467, 33.424366, 140.732605)" style="fill: rgb(252, 91, 63);">
    <path d="M2.7 295.9c2.7 16.8 19.4 94.8 80.2 111.3 46 12.6 175.2-30.5 248.8-8.8C479.8 442 507 325 498.7 293.5c-5.8-22-12.9-44.1-13.1-67.1-.2-24 8.2-47.7 9.2-71.9 2.3-61.3-40.7-121.4-99.5-139C370.1 8 349.6.3 323.3.1 270-.4 143.6.1 81.4 90.6c-11.1 16.2-27.3 28.3-39.7 43.5-16.6 20.4-27.6 45-34.2 70.4-7.8 29.8-9.7 61.2-4.8 91.4z" opacity=".18" class="d" style="fill: rgb(63, 114, 252);"/>
    <path d="M384.4 209.8h4.1v106.4h-4.1z"/>
  </g>
  <path d="M 362.65 320.419 L 366.162 320.419 L 366.162 411.548 L 362.65 411.548 Z" fill="#bcdbf2" style=""/>
  <linearGradient id="A" gradientUnits="userSpaceOnUse" x1="128.636" y1="169.304" x2="89.457" y2="-359.522" gradientTransform="matrix(0.462407, 0.005567, 0.005567, -0.462407, 133.826298, 380.443205)">
    <stop offset="0.01"/>
    <stop offset="0.08" stop-opacity=".69"/>
    <stop offset="0.21" stop-opacity=".32"/>
    <stop offset="1" stop-opacity="0"/>
  </linearGradient>
  <path d="M 243.944 405.124 L 314.603 407.865 C 317.943 408.036 321.454 408.122 324.195 408.807 C 328.649 409.92 329.848 412.061 328.22 413.86 C 326.593 415.573 322.653 416.943 318.542 418.057 C 292.763 424.994 256.705 424.823 223.56 424.309 L 67.34 422.082 C 61.345 421.996 55.093 421.911 49.612 420.969 C 44.13 420.027 39.591 418.057 40.362 416.001 C 41.047 414.117 45.672 412.832 50.297 411.89 C 63.829 409.149 79.931 408.293 95.604 407.522 L 167.119 404.268" fill="url(#A)" style=""/>
  <linearGradient id="B" gradientUnits="userSpaceOnUse" x1="607.068" y1="109.88" x2="580.512" y2="-248.631" gradientTransform="matrix(0.462492, 0, 0, -0.462492, 127.39937, 392.867128)">
    <stop offset="0.01"/>
    <stop offset="0.08" stop-opacity=".69"/>
    <stop offset="0.21" stop-opacity=".32"/>
    <stop offset="1" stop-opacity="0"/>
  </linearGradient>
  <path d="M 423.716 407.18 L 448.982 409.149 C 450.181 409.149 451.38 409.406 452.408 410.006 C 454.035 411.034 454.464 413.346 453.864 415.145 C 453.265 416.943 451.894 418.399 450.438 419.598 C 441.274 427.05 428.427 427.392 416.522 427.307 L 360.68 426.964 C 358.539 426.964 356.312 426.964 354.343 426.022 C 352.373 425.165 350.745 423.11 351.002 420.969 C 351.259 419.084 352.887 417.628 354.514 416.601 C 359.31 413.603 365.048 412.49 370.701 411.462 L 396.224 407.18" fill="url(#B)" style=""/>
  <path d="M 302.783 222.354 L 422.517 222.354 L 422.517 332.496 L 302.783 332.496 Z" class="Y" style="fill: rgb(255, 255, 255);"/>
  <path d="M 364.449 237.171 L 415.237 237.171 L 415.237 323.16 L 364.449 323.16 Z" opacity=".18" class="X d" style="fill: rgb(63, 136, 252);"/>
  <path d="M 368.474 245.393 L 412.925 245.393 L 412.925 286.589 L 368.474 286.589 Z" class="Y" style="fill: rgb(255, 255, 255);"/>
  <path d="M 299.357 219.699 L 424.659 219.699 L 424.659 224.409 L 299.357 224.409 Z M 299.357 330.868 L 424.659 330.868 L 424.659 335.579 L 299.357 335.579 Z" class="X" style="fill: rgb(63, 136, 252);"/>
  <g class="Z" transform="matrix(0.856467, 0, 0, 0.856467, 33.424366, 140.732605)" style="fill: rgb(76, 80, 109);">
    <path d="M151.8 278.3h3.2v29.5h-3.2z"/>
    <path d="M137.8 307.3h35.5v4.1h-35.5z"/>
  </g>
  <path d="M 151.446 403.925 L 181.85 403.925 L 181.85 407.436 L 151.446 407.436 Z" class="a" style="fill: rgb(47, 53, 84);"/>
  <path d="M 171.915 379.087 L 154.957 379.087 C 152.388 379.087 150.332 377.032 150.332 374.463 C 150.332 371.893 152.388 369.838 154.957 369.838 L 171.915 369.838 C 174.485 369.838 176.54 371.893 176.54 374.463 C 176.54 377.032 174.399 379.087 171.915 379.087 Z" style=""/>
  <path d="M 177.397 379.087 L 160.438 379.087 C 157.869 379.087 155.814 377.032 155.814 374.463 C 155.814 371.893 157.869 369.838 160.438 369.838 L 177.397 369.838 C 179.966 369.838 182.021 371.893 182.021 374.463 C 182.021 377.032 179.88 379.087 177.397 379.087 Z" style=""/>
  <path d="M 142.795 335.75 L 142.795 344.572 C 142.795 347.826 145.45 350.481 148.705 350.481 L 157.526 350.481 C 160.781 350.481 163.436 347.826 163.436 344.572 L 163.436 335.75 C 163.436 332.496 160.781 329.841 157.526 329.841 L 148.705 329.841 C 148.448 329.841 148.191 329.841 147.934 329.926 C 145.022 330.269 142.795 332.753 142.795 335.75 Z" class="Z" style="fill: rgb(76, 80, 109);"/>
  <path d="M 145.279 344.572 C 145.365 345.514 145.707 346.37 146.307 347.141 C 147.934 349.282 151.017 349.625 153.672 349.625 C 155.642 349.711 162.665 351.167 162.151 347.826 C 161.894 346.028 160.867 344.229 160.267 342.516 C 159.753 340.803 158.64 338.577 158.64 336.864 C 158.297 335.236 157.783 333.609 157.184 332.067 C 156.841 331.297 156.413 330.526 155.814 329.755 L 148.79 329.755 C 148.534 329.755 148.277 329.755 148.02 329.841 C 148.277 332.239 146.735 333.866 145.879 335.921 C 145.108 337.806 145.108 339.776 145.108 341.831 C 145.108 342.773 145.193 343.715 145.279 344.572 Z" class="a" style="fill: rgb(47, 53, 84);"/>
  <g class="Y" transform="matrix(0.856467, 0, 0, 0.856467, 33.424366, 140.732605)" style="fill: rgb(255, 255, 255);">
    <path d="M144.8 238.4c.5 1.2 1 2.4 1.3 3.7l1 4.6c.5 3.1.8 6.3.8 9.5 0 1.3 0 2.7.9 3.5.7.5 1.5.9 2.3.9 1.6.3 3.1 1 4.7 1.2 1.8.3 3.6.4 5.3.3 5.3 0 15.1-.6 14.7-8-.4-8.3-1-16.5-2.2-24.8-.4-2.8-.5-6-1.3-8.7-.7-2.2-3.3-2.3-5.5-2h-.4c-.4 0-.8.1-1.3.2a63.26 63.26 0 01-8.7.3c-3.3-.1-8.5-.4-11.7 2.7-.2.2-.4.4-.6.7-3.3 4-1.5 10.3.7 15.9z"/>
    <path d="M187.2 236.5c.3 1.8.4 3.5.4 5.3 0 .6-.1 1.2-.4 1.8-.5.8-1.7 1-2.7 1-3.2 0-6.2-1.3-8.4-3.5-2.1-2.1-4-4.3-5.7-6.7-1-1.1-1.4-2.6-1.3-4.1 0-2 .1-4 .3-6 0-.5 3.3-.1 3.6 0 1.2.3 2.4.9 3.4 1.5.1-1.3-.3-2.8-.4-4.2-.1-.4 0-.8.1-1.2.4-.7 1.3-.7 2-.7 1.6.1 3.4.4 4.4 1.7.4.6.7 1.3.9 2 1.7 4.2 3.1 8.6 3.8 13.1z"/>
  </g>
  <path d="M 189.644 344.657 C 189.815 345.257 189.73 345.856 189.473 346.37 C 188.873 347.312 187.417 346.97 186.389 346.542 C 185.019 345.856 183.734 345.086 182.535 344.229 C 182.364 344.058 182.021 343.887 181.764 343.972 C 181.593 344.058 181.422 344.144 181.251 344.315 C 179.366 346.37 177.054 348.083 174.485 349.197 C 173.628 349.539 172.429 349.796 171.829 349.111 C 171.23 348.426 171.658 347.141 172.258 346.285 L 178.852 336.007 C 178.92 335.854 179.042 335.732 179.195 335.665 C 179.452 335.579 179.709 335.75 179.88 335.921 C 180.822 336.692 181.85 337.377 182.878 337.891 C 183.22 338.148 183.734 338.234 184.163 338.148 C 184.762 337.977 185.019 337.206 185.105 336.521 C 185.276 335.408 185.276 334.38 185.19 333.266 C 185.105 332.838 185.19 332.324 185.276 331.896 C 185.619 331.125 186.561 330.868 187.246 331.211 C 187.332 331.211 187.332 331.297 187.417 331.297 C 188.274 331.896 188.102 334.294 188.274 335.236 L 189.644 344.657 Z M 166.691 344.315 C 167.29 345.428 168.061 346.37 169.089 347.141 C 170.202 347.998 172.686 351.252 174.228 350.31 C 173.542 350.91 172.772 351.338 171.829 351.595 C 174.228 353.308 177.225 353.736 180.137 354.25 C 180.908 354.336 181.593 354.592 182.278 354.935 C 182.964 355.363 183.306 356.048 183.22 356.819 C 183.049 358.104 181.336 358.532 180.052 358.618 C 176.797 358.789 173.542 358.875 170.373 359.303 C 167.633 359.646 164.721 360.331 163.008 362.558 C 162.922 362.729 162.751 362.9 162.494 362.986 C 162.151 363.071 161.809 362.9 161.638 362.558 C 161.466 362.215 161.466 361.872 161.466 361.53 C 161.381 358.875 161.038 356.134 160.267 353.565 C 159.925 352.537 159.925 351.424 159.582 350.481 C 159.239 349.282 158.554 348.083 158.126 346.884 C 157.27 344.401 156.756 341.917 156.413 339.262 C 156.242 337.463 156.327 335.236 157.869 334.294 C 159.068 333.695 160.524 333.866 161.552 334.637 C 162.58 335.493 163.35 336.607 163.864 337.806 C 164.806 340.033 165.577 342.345 166.691 344.315 Z" fill="#d8dae1" style=""/>
  <path d="M 173.371 333.009 C 173.285 333.095 173.2 333.266 173.2 333.438 C 173.2 333.609 173.2 333.78 173.285 333.866 C 174.741 337.72 175.855 341.66 176.711 345.685 C 177.568 349.197 178.339 352.708 178.596 356.305 C 178.596 356.562 178.596 356.819 178.51 357.076 C 178.253 357.933 177.054 358.275 176.54 359.046 L 174.827 357.162 C 174.741 357.076 174.656 356.905 174.57 356.819 C 174.485 356.648 174.485 356.391 174.57 356.22 C 175.17 352.366 174.485 348.426 173.628 344.657 C 172.857 341.403 171.829 338.148 171.915 334.808 C 171.988 334.403 171.861 333.988 171.573 333.695 C 171.401 333.609 171.23 333.523 170.973 333.438 C 170.031 333.009 169.603 331.896 170.117 330.954 C 170.117 330.954 170.117 330.868 170.202 330.868 C 170.545 330.868 170.887 330.783 171.23 330.611 C 171.573 330.44 171.915 330.354 172.258 330.44 C 173.029 330.611 173.799 332.324 173.371 333.009 Z" class="X" style="fill: rgb(34, 93, 147);"/>
  <path d="M 157.355 330.783 C 160.096 328.128 164.635 328.385 167.376 328.47 C 169.86 328.556 172.343 328.47 174.827 328.213 C 175.17 328.128 175.512 328.128 175.941 328.042 C 174.485 327.442 172.343 327.871 170.802 327.871 C 168.404 327.956 166.005 328.128 163.607 328.299 C 161.295 328.642 158.811 329.07 157.355 330.783 Z" class="Y" style="fill: rgb(255, 255, 255);"/>
  <path d="M 165.834 320.933 C 166.776 323.417 169.431 324.702 172.001 323.931 C 172.001 323.931 170.802 327.442 172.258 329.669 C 172.258 329.669 171.316 332.153 164.721 328.47 C 164.721 328.47 166.519 328.299 166.005 324.702 C 165.834 323.417 165.406 322.218 164.721 321.19 C 164.978 321.447 165.32 321.447 165.577 321.19 C 165.749 321.105 165.834 321.019 165.834 320.933 Z" class="c" style="fill: rgb(214, 131, 105);"/>
  <path d="M 169.003 325.473 C 172.429 326.5 175.255 323.674 176.54 319.477 C 176.711 319.049 176.797 318.535 176.883 318.021 C 177.14 316.651 177.311 315.195 177.225 313.739 C 177.054 306.887 167.119 307.572 167.119 307.572 C 159.239 309.371 163.008 323.674 169.003 325.473 Z" class="b" style="fill: rgb(236, 156, 125);"/>
  <path d="M 190.5 368.296 L 190.329 368.125 L 191.871 369.923 L 190.5 368.296 Z" class="g" style="fill: rgb(220, 155, 213);"/>
  <path d="M 174.142 306.459 C 175.427 306.802 176.54 307.572 177.225 308.6 C 177.568 309.2 177.825 309.799 178.339 310.313 C 178.938 311.084 179.88 311.598 180.223 312.54 C 178.681 312.797 177.054 312.54 175.684 311.683 C 175.427 312.026 175.084 312.283 174.57 312.283 C 174.142 312.283 173.714 312.197 173.285 312.026 C 173.029 311.94 172.772 311.94 172.6 311.94 C 172.429 312.026 172.258 312.112 172.172 312.283 C 171.316 312.968 170.202 313.225 169.174 312.883 C 168.575 312.711 167.975 312.283 167.376 312.54 C 166.776 312.711 166.434 313.568 166.434 314.253 C 166.519 314.938 166.519 315.709 166.348 316.394 C 165.92 316.48 165.834 315.794 165.406 315.538 C 165.063 315.281 164.635 315.623 164.464 315.966 C 164.121 316.565 164.207 317.25 164.635 317.764 C 164.796 317.846 164.895 318.012 164.892 318.193 C 164.892 318.364 164.892 318.535 164.806 318.706 L 164.121 320.419 C 163.179 318.278 162.066 316.308 160.781 314.339 C 160.267 313.568 159.668 312.711 159.839 311.769 C 160.096 310.827 161.038 310.227 160.867 309.285 C 160.781 309.114 160.781 308.943 160.695 308.771 C 160.695 308.515 160.695 308.258 160.867 308.001 C 161.809 306.202 163.522 304.832 165.577 304.403 C 167.547 303.975 169.603 304.061 171.658 304.489 L 177.653 305.517 C 177.825 305.517 177.996 305.603 178.082 305.688 L 178.082 305.945 C 177.996 306.373 177.568 306.63 177.225 306.973 C 176.883 307.315 176.626 307.744 176.883 308.172 M 166.605 360.331 C 166.605 360.331 170.802 370.78 174.142 371.893 C 177.482 373.007 189.987 376.775 189.987 376.775 L 207.287 409.406 L 214.139 405.21 L 198.808 367.011 L 185.276 360.074 C 185.276 360.074 181.85 360.245 166.605 360.331 Z" class="a" style="fill: rgb(47, 53, 84);"/>
  <path d="M 160.867 362.301 C 160.867 362.301 160.096 371.893 163.436 372.921 L 179.281 377.803 L 197.78 413.175 L 205.489 410.092 L 188.188 368.039 L 174.656 361.102 C 174.57 361.187 166.691 358.361 160.867 362.301 Z" class="Z" style="fill: rgb(76, 80, 109);"/>
  <g class="a" transform="matrix(0.856467, 0, 0, 0.856467, 33.424366, 140.732605)" style="fill: rgb(47, 53, 84);">
    <path d="M214.3 310.2a16.28 16.28 0 013.1.3c1 .1 1.9.5 2.6 1.1.4.4.7.9.8 1.4.1.6-.1 1.1-.5 1.6-.4.3-.8.6-1.3.7l-3.3 1.1c-2.3.9-4.7 1.5-7.2 1.8h-.4c-.1-.1-.2-.1-.3-.2-1.5-1.4-2.9-3.2-3.3-5.2v-.2c0-.1.1-.1.2-.2 1.5-1 3.1-1.8 4.9-2.3 1.6-.5 3.1.1 4.7.1z" transform="matrix(1, 0, 0, 1, 0, 0)"/>
    <path d="M214.3 310.2a16.28 16.28 0 013.1.3c1 .1 1.9.5 2.6 1.1.4.4.7.9.8 1.4.1.6-.1 1.1-.5 1.6-.4.3-.8.6-1.3.7l-3.3 1.1c-2.3.9-4.7 1.5-7.2 1.8h-.4c-.1-.1-.2-.1-.3-.2-1.5-1.4-2.9-3.2-3.3-5.2v-.2c0-.1.1-.1.2-.2 1.5-1 3.1-1.8 4.9-2.3 1.6-.5 3.1.1 4.7.1z" transform="matrix(1, 0, 0, 1, -11.899999618530273, 4.699999809265137)"/>
  </g>
  <path d="M 155.728 335.75 C 155.728 335.75 161.638 349.025 167.89 350.824 C 174.142 352.623 181.679 334.037 181.679 334.037 L 176.626 332.153 L 168.147 340.632 C 168.147 340.632 162.922 329.498 160.781 330.012 C 158.64 330.526 154.871 333.438 155.728 335.75 Z" class="Y" style="fill: rgb(255, 255, 255);"/>
  <path d="M 182.964 324.702 C 183.049 325.216 183.22 325.73 183.563 326.072 C 183.991 326.929 184.248 327.785 184.334 328.727 C 184.505 329.669 184.848 330.526 185.362 331.211 C 185.961 331.982 186.989 332.239 187.845 331.896 C 188.445 331.553 188.788 330.954 188.873 330.354 C 188.959 329.669 188.873 329.07 188.616 328.47 C 188.359 327.699 188.102 326.843 187.674 326.158 C 187.332 325.473 186.818 324.787 186.218 324.274 C 185.533 323.503 183.049 322.903 182.964 324.702 Z" class="c" style="fill: rgb(214, 131, 105);"/>
  <path d="M 180.48 325.558 C 180.799 324.982 181.274 324.507 181.85 324.188 C 182.364 324.017 182.964 323.931 183.563 323.931 C 184.676 323.931 185.961 324.102 186.475 325.13 C 186.823 325.918 186.725 326.832 186.218 327.528 C 185.79 328.213 185.19 328.898 184.762 329.584 C 184.163 330.611 183.82 331.896 182.878 332.667 C 182.45 333.009 182.021 333.181 181.508 333.266 C 179.88 333.609 177.739 332.838 178.082 330.954 C 178.51 328.984 179.366 327.186 180.48 325.558 Z" class="b" style="fill: rgb(236, 156, 125);"/>
  <g class="Z" transform="matrix(0.856467, 0, 0, 0.856467, 33.424366, 140.732605)" style="fill: rgb(76, 80, 109);">
    <path d="M73.4 277.9h3.2v29.5h-3.2z"/>
    <path d="M59.4 306.8h35.5v4.1H59.4z"/>
  </g>
  <path d="M 84.299 403.497 L 114.703 403.497 L 114.703 407.008 L 84.299 407.008 Z" class="a" style="fill: rgb(47, 53, 84);"/>
  <path d="M 104.768 378.745 L 87.81 378.745 C 85.241 378.745 83.185 376.689 83.185 374.12 C 83.185 371.551 85.241 369.495 87.81 369.495 L 104.768 369.495 C 107.337 369.495 109.393 371.551 109.393 374.12 C 109.393 376.689 107.337 378.745 104.768 378.745 Z" class="Z" style="fill: rgb(76, 80, 109);"/>
  <path d="M 110.249 378.745 L 93.206 378.745 C 90.636 378.745 88.581 376.689 88.581 374.12 C 88.581 371.551 90.636 369.495 93.206 369.495 L 110.164 369.495 C 112.733 369.495 114.789 371.551 114.789 374.12 C 114.874 376.689 112.819 378.745 110.249 378.745 Z" class="a" style="fill: rgb(47, 53, 84);"/>
  <path d="M 75.734 335.408 L 75.734 344.229 C 75.734 347.484 78.389 350.139 81.643 350.139 L 90.465 350.139 C 93.72 350.139 96.375 347.484 96.375 344.229 L 96.375 335.408 C 96.375 332.153 93.72 329.498 90.465 329.498 L 81.558 329.498 C 81.301 329.498 81.044 329.498 80.787 329.584 C 77.875 329.926 75.734 332.41 75.734 335.408 Z" class="Z" style="fill: rgb(76, 80, 109);"/>
  <path d="M 78.132 344.229 C 78.218 345.171 78.56 346.028 79.16 346.799 C 80.787 348.94 83.87 349.282 86.525 349.282 C 88.495 349.368 95.518 350.824 95.004 347.484 C 94.747 345.685 93.72 343.887 93.12 342.174 C 92.606 340.461 91.493 338.234 91.493 336.521 C 91.15 334.894 90.636 333.266 90.037 331.725 C 89.694 330.954 89.266 330.183 88.666 329.498 L 81.643 329.498 C 81.387 329.498 81.13 329.498 80.873 329.584 C 81.13 331.982 79.588 333.609 78.731 335.665 C 77.961 337.549 77.961 339.519 77.961 341.574 C 77.961 342.431 78.046 343.373 78.132 344.229 Z" class="a" style="fill: rgb(47, 53, 84);"/>
  <path d="M 109.136 327.785 C 106.138 328.042 103.226 328.128 100.229 328.128 C 97.231 328.042 92.349 327.699 89.609 330.954 C 86.268 334.979 89.18 342.088 91.493 347.484 C 92.349 349.454 92.778 355.963 92.349 360.673 C 92.349 360.673 101.685 363.928 109.907 362.215 L 112.733 351.595 C 112.733 351.68 120.527 340.033 109.136 327.785 Z" class="Z" style="fill: rgb(76, 80, 109);"/>
  <path d="M 105.453 306.63 C 105.453 306.63 109.393 306.887 110.592 312.626 C 111.791 318.364 106.053 318.278 106.053 318.278 L 102.541 308.343 L 105.453 306.63 Z" class="h" style="fill: rgb(49, 49, 48);"/>
  <path d="M 103.798 325.473 C 107.395 325.73 109.537 322.389 109.965 318.021 C 110.05 317.507 110.05 317.079 110.05 316.565 C 110.05 315.109 109.879 313.739 109.537 312.369 C 107.995 305.688 98.402 308.343 98.402 308.343 C 90.951 311.683 97.546 324.959 103.798 325.473 Z" style="fill: rgb(236, 156, 125);"/>
  <path d="M 98.687 320.591 C 99.287 322.561 101.942 326.072 104.854 325.216 C 104.169 326.5 104.254 328.128 105.111 329.327 C 105.111 329.327 104.169 331.81 97.574 328.128 C 97.574 328.128 99.372 327.956 98.858 324.359 C 98.687 323.074 98.259 321.961 97.574 320.848 C 97.831 321.105 98.173 321.105 98.43 320.933 C 98.602 320.848 98.687 320.676 98.687 320.591 Z" class="c" style="fill: rgb(214, 131, 105);"/>
  <path d="M 105.368 308.172 C 104.425 311.427 103.226 316.051 100.058 317.764 C 99.629 318.021 99.115 318.193 98.602 318.193 C 98.088 318.107 98.173 317.679 97.831 317.336 C 97.574 317.079 97.231 316.994 96.889 317.165 C 96.632 317.336 96.46 317.679 96.46 318.021 C 96.46 318.792 96.889 319.563 97.574 319.991 C 97.916 320.162 98.173 320.334 98.43 320.505 C 98.773 320.848 98.944 321.276 98.944 321.704 C 99.03 322.903 98.43 324.102 97.402 324.702 C 97.317 324.787 97.231 324.787 97.231 324.787 C 97.146 324.787 97.06 324.702 96.974 324.616 L 95.518 323.331 C 94.833 322.732 94.234 322.132 93.72 321.362 C 93.034 320.419 92.692 319.306 92.692 318.107 C 92.692 317.593 92.863 317.079 92.863 316.565 C 92.778 315.88 92.606 315.281 92.349 314.595 C 92.007 313.825 91.835 312.968 91.835 312.112 C 91.921 310.399 93.377 309.114 94.833 308.343 C 97.231 307.144 99.972 307.059 102.627 306.973 C 103.141 306.973 103.655 306.973 104.169 307.144 C 104.768 307.572 104.939 308.086 105.368 308.172 Z" class="h" style="fill: rgb(49, 49, 48);"/>
  <g class="b" transform="matrix(0.856467, 0, 0, 0.856467, 33.424366, 140.732605)" style="fill: rgb(236, 156, 125);">
    <path d="M76.6 243.2l-3.2 7s-6.9-8.6-9.5-17.8c-2.3-8.2 1.8-10.2 1.8-10.2 3.1-1.1 5.2 3.3 8.3 12.2 1.6 4.9 2.6 8.8 2.6 8.8z" transform="matrix(1, 0, 0, 1, 0, 0)"/>
    <path d="M73.4 250.2s-.1-5.7 2.7-6.8 22.3-4.2 22.3-4.2l1.8 2.1c-.1 0-19.2 11-26.8 8.9z"/>
  </g>
  <path d="M 123.353 367.953 L 123.182 367.782 L 124.724 369.581 L 123.353 367.953 Z" class="g" style="fill: rgb(220, 155, 213);"/>
  <g class="X" transform="matrix(0.856467, 0, 0, 0.856467, 33.424366, 140.732605)" style="fill: rgb(252, 91, 63);">
    <path d="M67.6 266.4c.6 3.3 2.8 6.2 5.6 8.1s6 3.1 9.2 4.1c1.9.6 3.1 3 4.8 4.1a5.09 5.09 0 011.6 1.3c.6 1 .3 2.3 0 3.5l-4.4 15.2c-.7 2.5-1.4 5.2-.8 7.7.7 2.5 3.4 4.7 5.8 3.9l14.6-23.6c7.3-11.8 2.4-9.5-2.6-17.5-2.2-3.5-19.2-17.8-19.2-17.8-4.3-.6-8.8-.9-13-1.2-.4 4.1-2.3 8.2-1.6 12.2z" style="fill: rgb(63, 136, 252);"/>
    <path d="M82.3 255.4s17.3 14.1 19.2 17.8c5.1 10.2 2.6 17.5 2.6 17.5l12.8 20.5c3 .1 6.9-.7 7.1-3.7 0-.8-.2-1.7-.6-2.4l-9.6-24c-1.9-4.7-3.9-9.6-6.9-13.7l-.3-.4c-.2-.2-.8-1-1.8-2.1-2.8-3.1-8.2-8.6-13.1-10.8-.1.1-5.9 1.8-9.4 1.3z" transform="matrix(1, 0, 0, 1, 0, 0)"/>
  </g>
  <path d="M 103.912 359.474 C 103.912 359.474 118.728 371.551 120.356 374.719 C 124.724 383.455 122.583 389.708 122.583 389.708 L 133.545 407.265 C 136.115 407.351 139.455 406.666 139.626 404.096 C 139.626 403.411 139.455 402.64 139.112 402.041 L 130.89 381.486 C 129.263 377.46 127.55 373.263 124.981 369.752 L 124.724 369.409 C 124.552 369.238 124.039 368.553 123.182 367.611 C 120.784 364.956 116.159 360.245 111.962 358.361 C 111.877 358.447 106.909 359.903 103.912 359.474 Z" style="fill: rgb(34, 93, 147);"/>
  <path d="M 111.534 413.774 C 112.476 414.716 113.847 415.573 113.761 416.943 C 113.761 417.115 113.761 417.2 113.675 417.286 C 113.504 417.457 113.333 417.457 113.161 417.457 C 110.164 417.8 107.337 416.001 105.025 414.031 C 104.425 413.603 103.912 413.004 103.655 412.233 C 103.655 411.462 103.826 410.691 104.254 410.006 C 104.768 408.892 105.282 407.693 105.625 406.494 C 105.539 406.837 106.995 408.122 107.252 408.379 C 107.766 408.807 108.622 409.149 108.965 409.749 C 109.307 410.348 109.564 410.948 109.821 411.548 C 110.335 412.49 110.849 413.175 111.534 413.774 Z M 142.538 408.122 C 143.566 408.464 144.851 408.721 145.45 409.578 C 145.536 409.749 145.622 409.92 145.707 410.177 C 145.707 410.691 145.108 411.034 144.508 411.119 C 142.367 411.548 140.14 411.291 137.913 410.948 C 137.656 410.948 137.314 410.862 137.143 410.691 C 136.886 410.434 136.629 410.092 136.543 409.749 L 135.687 407.094 L 135.687 406.837 C 135.687 406.751 135.772 406.666 135.858 406.666 C 136.457 406.237 137.057 405.895 137.742 405.638 C 138.599 405.21 138.684 405.295 139.284 405.98 C 140.14 406.923 141.254 407.693 142.538 408.122 Z M 119.414 345.257 C 121.127 345 123.096 344.743 124.467 345.771 C 125.152 346.37 125.666 347.056 126.094 347.826 C 126.608 348.34 126.694 349.111 126.18 349.625 C 125.923 349.968 125.495 350.053 125.152 350.053 C 123.525 350.396 121.812 350.824 120.356 350.224 C 119.242 349.796 118.3 348.854 117.101 348.597 C 116.93 348.597 116.673 348.512 116.502 348.426 C 116.33 348.255 116.245 348.083 116.159 347.912 C 115.474 345.514 117.872 345.428 119.414 345.257 Z" class="b" style="fill: rgb(236, 156, 125);"/>
  <path d="M 137.913 413.004 C 137.999 413.089 138.085 413.26 138.17 413.346 C 138.342 413.432 138.513 413.432 138.684 413.346 C 139.626 413.175 140.654 413.175 141.596 413.26 C 143.566 413.26 145.622 413.004 147.591 412.747 C 148.448 412.661 149.39 412.404 149.904 411.719 C 149.99 411.633 149.99 411.548 149.99 411.462 C 149.99 411.291 149.904 411.119 149.818 411.034 C 148.946 409.981 147.785 409.207 146.478 408.807 C 145.964 408.636 145.45 408.464 144.936 408.464 C 144.423 408.464 143.909 408.721 143.566 409.064 C 143.223 409.492 143.138 410.177 142.795 410.605 C 142.367 410.948 141.767 411.119 141.168 411.034 C 140.483 411.034 139.798 410.948 139.112 410.777 C 138.599 410.691 137.913 410.348 137.314 410.434 C 136.372 410.691 137.571 412.404 137.913 413.004 Z M 102.97 413.86 C 102.97 414.031 102.97 414.203 103.055 414.288 C 103.141 414.46 103.398 414.545 103.569 414.631 C 104.597 415.145 105.539 415.744 106.481 416.429 C 108.365 417.714 110.421 418.742 112.476 419.684 C 113.418 420.112 114.446 420.54 115.303 420.198 C 115.388 420.198 115.56 420.112 115.56 420.027 C 115.645 419.855 115.645 419.684 115.645 419.513 C 115.474 417.971 114.874 416.515 113.932 415.23 C 113.59 414.716 113.161 414.288 112.733 414.031 C 112.219 413.689 111.62 413.603 111.02 413.774 C 110.421 413.946 109.907 414.545 109.307 414.716 C 108.622 414.802 107.937 414.545 107.423 414.117 C 106.782 413.653 106.181 413.138 105.625 412.575 C 105.196 412.147 104.768 411.376 104.169 411.119 C 102.884 410.605 102.97 413.004 102.97 413.86 Z" class="X" style="fill: rgb(34, 93, 147);"/>
  <g class="Z" transform="matrix(0.856467, 0, 0, 0.856467, 33.424366, 140.732605)" style="fill: rgb(76, 80, 109);">
    <path d="M62.6 225c-.5 1.5-.8 3-1 4.6l-.3 2.1c-.1.4-.1.9.1 1.3.3.7 1.8.4 2.5.5l3.7.6 7.5 1.1c.1-1.3.1-2.6-.1-3.8s-.7-2.3-1-3.5c-.2-1-.3-2-.6-2.9-.5-2-1.7-3.8-3.4-5.1-2.6-1.9-6.5 2.7-7.3 4.8 0 .1 0 .2-.1.3zm165.1 52.8h3.2v29.5h-3.2z"/>
    <path d="M213.7 306.7h35.5v4.1h-35.5z"/>
  </g>
  <path d="M 216.451 403.411 L 246.856 403.411 L 246.856 406.923 L 216.451 406.923 Z" class="a" style="fill: rgb(47, 53, 84);"/>
  <path d="M 236.921 378.659 L 219.963 378.659 C 217.394 378.659 215.338 376.604 215.338 374.034 C 215.338 371.465 217.394 369.409 219.963 369.409 L 236.921 369.409 C 239.49 369.409 241.546 371.465 241.546 374.034 C 241.546 376.604 239.49 378.659 236.921 378.659 Z" class="Z" style="fill: rgb(76, 80, 109);"/>
  <path d="M 242.402 378.659 L 225.444 378.659 C 222.875 378.659 220.819 376.604 220.819 374.034 C 220.819 371.465 222.875 369.409 225.444 369.409 L 242.402 369.409 C 244.972 369.409 247.027 371.465 247.027 374.034 C 247.027 376.604 244.972 378.659 242.402 378.659 Z" class="a" style="fill: rgb(47, 53, 84);"/>
  <path d="M 207.887 335.236 L 207.887 344.058 C 207.887 347.312 210.542 349.968 213.796 349.968 L 222.618 349.968 C 223.646 349.968 224.588 349.711 225.444 349.197 C 226.129 348.768 226.815 348.255 227.329 347.569 C 228.099 346.542 228.528 345.343 228.528 344.058 L 228.528 335.236 C 228.528 331.982 225.873 329.327 222.618 329.327 L 213.796 329.327 C 213.539 329.327 213.282 329.327 213.026 329.412 C 210.028 329.841 207.887 332.324 207.887 335.236 Z" class="Z" style="fill: rgb(76, 80, 109);"/>
  <path d="M 210.37 344.144 C 210.456 345.086 210.799 345.942 211.398 346.713 C 213.026 348.854 216.109 349.197 218.764 349.197 C 220.734 349.282 227.757 350.738 227.243 347.398 C 226.986 345.6 225.958 343.801 225.359 342.088 C 224.845 340.375 223.731 338.148 223.731 336.435 C 223.389 334.808 222.875 333.181 222.275 331.639 C 221.933 330.868 221.505 330.098 220.905 329.412 L 213.796 329.412 C 213.539 329.412 213.282 329.412 213.026 329.498 C 213.282 331.896 211.741 333.523 210.884 335.579 C 210.114 337.463 210.114 339.433 210.114 341.489 C 210.114 342.345 210.199 343.201 210.37 344.144 Z" class="a" style="fill: rgb(47, 53, 84);"/>
  <path d="M 225.444 319.82 C 226.815 321.704 230.84 323.417 230.84 323.417 C 231.268 321.618 230.326 320.933 230.326 320.933 C 229.298 321.019 227.928 318.45 228.356 317.679 C 228.956 316.651 229.641 317.079 230.241 317.507 C 231.268 316.651 231.953 315.452 232.125 314.082 C 232.21 313.311 230.84 311.084 233.409 310.142 C 235.979 309.2 239.662 310.142 239.662 310.142 C 239.662 310.142 240.604 307.744 237.606 306.545 C 235.122 305.603 231.44 306.116 228.87 306.459 C 227.5 306.545 226.129 306.973 224.93 307.658 C 223.217 308.857 222.447 310.998 222.104 313.054 C 221.762 315.109 221.762 317.25 221.162 319.22 C 220.819 320.334 220.22 321.362 220.22 322.561 C 220.22 323.674 220.991 325.044 222.104 325.044 C 222.532 325.044 223.046 324.873 223.389 325.044 C 223.731 325.216 223.817 325.901 224.16 326.243 C 224.759 326.843 225.787 326.243 226.729 326.072 C 227.842 325.815 229.127 326.5 230.155 325.901 C 230.583 325.644 230.926 325.301 231.354 325.216 C 231.953 325.13 232.467 325.73 233.067 325.815 C 234.095 325.986 234.951 324.616 235.979 324.702 C 236.447 324.805 236.905 324.948 237.349 325.13 C 238.891 325.644 240.604 324.787 241.118 323.246 L 241.118 323.074 C 241.46 323.331 241.888 323.246 242.145 322.903 C 242.145 322.903 242.145 322.818 242.231 322.818 C 242.402 322.475 242.488 322.047 242.488 321.618 C 242.488 318.193 243.43 312.711 240.775 309.971 C 238.805 307.915 235.551 307.401 232.724 307.829 C 230.412 308.258 225.273 309.457 224.245 311.598 C 223.217 313.739 224.16 317.936 225.444 319.82 Z" class="e" style="fill: rgb(50, 56, 79);"/>
  <g class="c" transform="matrix(0.856467, 0, 0, 0.856467, 33.424366, 140.732605)" style="fill: rgb(214, 131, 105);">
    <path d="M249.5 245.3c-2.5-6.5-4.9-14.1-4.9-14.1l-1.9-12.9c6.3-.4 8.3 7.6 9.7 11.9 1.1 3.6 4.2 12.3 5.2 15h-8.1z"/>
    <path d="M276.2 243.7c-1.6 2-4.6 2.2-7.2 2.2h-12.7c-.5.1-1 0-1.4-.3s-.6-.6-.8-1.1c-.6-1.2-3-6.1-2-7.2s5.9 1 7.2 1.4c5.6 1.5 11.2 3.2 16.9 5z"/>
  </g>
  <g class="X" transform="matrix(0.856467, 0, 0, 0.856467, 33.424366, 140.732605)" style="fill: rgb(252, 91, 63);">
    <path d="M246.9 219.1c1.2.9 2.1 2.1 2.9 3.4l8.5 12.6c.8 1.5 2.2 2.6 3.8 3l8.4 3.1c.3.1.6.3.7.5s-.2.7-.4 1l-3.1 3.2c-.3.4-.7.7-1.1.8-.5.1-.9 0-1.3-.2l-16.4-5.3c-.5-.1-1-.4-1.4-.7-.7-.7-.8-1.8-.9-2.8-.1-2.8-.6-5.6-1.4-8.3-1-2.8-2.6-5.5-2.9-8.6-.1-1-.4-2.4.7-2.9.7-.5 3 .5 3.9 1.2z" style="fill: rgb(63, 136, 252);"/>
    <path d="M242.7 218.3c-3.5.3-6.9.4-10.4.4-3.5-.1-9.2-.5-12.4 3.3-3.9 4.7-.5 13 2.2 19.3 1 2.3 1.5 9.9 1 15.4 0 0 10.9 3.8 20.5 1.8l3.3-12.3s9.1-13.6-4.2-27.9z" style="fill: rgb(63, 136, 252);"/>
  </g>
  <path d="M 237.606 306.459 C 237.606 306.459 241.546 306.716 242.745 312.454 C 243.944 318.193 238.206 318.107 238.206 318.107 L 234.694 308.172 L 237.606 306.459 Z" class="e" style="fill: rgb(50, 56, 79);"/>
  <path d="M 234.951 325.387 C 238.548 325.644 240.689 322.304 241.118 317.936 C 241.203 317.422 241.203 316.994 241.203 316.48 C 241.203 315.024 241.032 313.653 240.689 312.283 C 239.148 305.603 229.555 308.258 229.555 308.258 C 222.104 311.598 228.699 324.873 234.951 325.387 Z" style="fill: rgb(236, 156, 125);"/>
  <path d="M 230.84 320.419 C 231.44 322.389 234.095 325.901 237.007 325.044 C 236.321 326.329 236.407 327.956 237.264 329.155 C 237.264 329.155 236.321 331.639 229.727 327.956 C 229.727 327.956 231.525 327.785 231.011 324.188 C 230.84 322.903 230.412 321.79 229.727 320.676 C 229.984 320.933 230.326 320.933 230.583 320.762 C 230.754 320.676 230.84 320.591 230.84 320.419 Z" class="c" style="fill: rgb(214, 131, 105);"/>
  <path d="M 237.52 308.086 C 236.578 311.341 235.379 315.966 232.21 317.679 C 231.782 317.936 231.268 318.107 230.754 318.107 C 230.241 318.021 230.326 317.593 229.984 317.25 C 229.727 316.994 229.384 316.908 229.041 317.079 C 228.785 317.25 228.613 317.593 228.613 317.936 C 228.613 318.706 229.041 319.477 229.727 319.906 C 230.069 320.077 230.326 320.248 230.583 320.419 C 230.926 320.762 231.097 321.105 231.097 321.618 C 231.183 322.818 230.583 324.017 229.555 324.616 C 229.47 324.702 229.384 324.702 229.298 324.702 C 229.213 324.702 229.127 324.616 229.041 324.53 L 227.671 323.246 C 226.986 322.646 226.386 322.047 225.873 321.276 C 225.187 320.334 224.845 319.22 224.845 318.021 C 224.845 317.507 225.016 316.994 225.016 316.48 C 224.93 315.794 224.759 315.195 224.502 314.51 C 224.16 313.739 223.988 312.883 223.988 312.026 C 224.074 310.313 225.53 309.028 226.986 308.258 C 229.384 307.059 232.125 306.973 234.78 306.887 C 235.294 306.887 235.808 306.887 236.321 307.059 C 236.921 307.487 237.092 307.915 237.52 308.086 Z" class="e" style="fill: rgb(50, 56, 79);"/>
  <g class="b" transform="matrix(0.856467, 0, 0, 0.856467, 33.424366, 140.732605)" style="fill: rgb(236, 156, 125);">
    <path d="M76.6 243.2l-3.2 7s-6.9-8.6-9.5-17.8c-2.3-8.2 1.8-10.2 1.8-10.2 3.1-1.1 5.2 3.3 8.3 12.2 1.6 4.9 2.6 8.8 2.6 8.8z" transform="matrix(1, 0, 0, 1, 154.3000030517578, -0.10000000149011612)"/>
    <path d="M227.7 250.1s-.1-5.7 2.7-6.8 22.3-4.2 22.3-4.2l1.8 2.1s-19.2 11-26.8 8.9z"/>
  </g>
  <g class="X" transform="matrix(0.856467, 0, 0, 0.856467, 33.424366, 140.732605)" style="fill: rgb(252, 91, 63);">
    <path d="M 215.532 230.3 C 215.132 234.2 215.932 238.1 217.932 241.5 C 218.432 242.3 219.032 243.1 219.732 243.8 C 220.622 244.495 221.642 245.005 222.732 245.3 C 225.432 246 228.232 246.3 231.032 246.2 C 236.032 246.2 241.032 245.9 246.032 245.6 C 246.732 245.6 247.332 245.5 248.032 245.2 C 248.632 244.8 249.132 244.3 249.432 243.7 C 249.532 243.5 249.732 243.3 249.732 243.1 C 249.732 242.8 249.632 242.6 249.532 242.4 L 247.932 239 C 247.751 238.41 247.113 238.09 246.532 238.3 C 246.432 238.3 246.332 238.4 246.232 238.4 C 242.132 239.5 238.032 240.2 233.832 240.5 C 233.332 240.6 232.932 240.5 232.432 240.4 C 232.132 240.2 231.932 240 231.732 239.7 C 230.532 238.1 230.032 236.2 229.432 234.3 C 228.332 230.5 227.132 226.6 224.932 223.2 C 224.132 221.9 222.732 220.3 221.032 221 C 219.432 221.6 218.232 223.6 217.432 225 C 216.432 226.5 215.832 228.3 215.532 230.3 Z" style="fill: rgb(34, 93, 147);"/>
    <path d="M264.5 231.5h40.7c1.3 0 2.4-1 2.5-2.3l2.7-30.9c.1-1.1-.7-2.1-1.8-2.3h-41c-1.3 0-2.4 1-2.5 2.3l-2.7 30.9c-.1 1.1.7 2.1 1.8 2.3h.3z" transform="matrix(1, 0, 0, 1, 0, 0)" style="fill: rgb(63, 136, 252);"/>
  </g>
  <path d="M 261.768 339.005 L 296.627 339.005 C 297.74 339.005 298.682 338.148 298.768 337.035 L 301.08 310.57 C 301.166 309.628 300.481 308.771 299.538 308.6 L 264.423 308.6 C 263.31 308.6 262.368 309.457 262.282 310.57 L 259.97 337.035 C 259.884 337.977 260.569 338.833 261.511 339.005 L 261.768 339.005 Z" style="fill: rgb(34, 93, 147);"/>
  <path d="M 287.881 349.625 L 277.774 349.625 L 277.774 333.009 C 277.774 330.183 280.001 327.956 282.828 327.956 C 285.654 327.956 287.881 330.183 287.881 333.009 L 287.881 349.625 Z" class="X" style="fill: rgb(63, 136, 252);"/>
  <path d="M 290.193 349.625 L 280.087 349.625 L 280.087 333.009 C 280.087 330.183 282.314 327.956 285.14 327.956 C 287.966 327.956 290.193 330.183 290.193 333.009 L 290.193 349.625 Z" class="Y" style="fill: rgb(255, 255, 255);"/>
  <path d="M 255.506 367.868 L 255.335 367.696 L 256.877 369.495 C 256.448 368.895 255.935 368.382 255.506 367.868 Z" class="g" style="fill: rgb(220, 155, 213);"/>
  <path d="M 223.56 368.81 C 224.074 371.636 225.958 374.12 228.356 375.747 C 230.754 377.374 233.495 378.402 236.236 379.259 C 237.863 379.773 238.891 381.828 240.347 382.685 C 240.875 382.958 241.341 383.337 241.717 383.798 C 242.231 384.654 241.974 385.768 241.717 386.796 L 237.949 399.814 C 237.349 401.955 236.75 404.268 237.264 406.409 C 237.863 408.55 240.176 410.434 242.317 409.749 L 254.821 389.536 C 254.821 389.536 256.877 381.4 252.594 374.548 C 250.71 371.551 236.15 359.303 236.15 359.303 C 232.467 358.789 228.613 358.532 225.016 358.275 C 224.502 361.872 222.961 365.298 223.56 368.81 Z" class="Z" style="fill: rgb(76, 80, 109);"/>
  <path d="M 236.065 359.389 C 236.065 359.389 250.881 371.465 252.509 374.634 C 256.877 383.37 254.735 389.622 254.735 389.622 L 265.698 407.18 C 268.268 407.265 271.608 406.58 271.779 404.011 C 271.779 403.325 271.608 402.64 271.265 401.955 L 263.043 381.4 C 261.416 377.289 259.703 373.178 257.134 369.666 L 256.877 369.324 L 256.877 369.238 C 256.705 369.067 256.191 368.382 255.335 367.439 C 252.937 364.784 248.312 360.074 244.115 358.19 C 244.03 358.361 239.148 359.731 236.065 359.389 Z" class="a" style="fill: rgb(47, 53, 84);"/>
  <path d="M 243.687 413.689 C 244.629 414.545 246 415.487 245.914 416.772 C 245.914 416.943 245.914 417.029 245.828 417.115 C 245.657 417.286 245.486 417.286 245.314 417.286 C 242.317 417.628 239.49 415.83 237.178 413.86 C 236.578 413.432 236.065 412.832 235.808 412.061 C 235.808 411.291 235.979 410.52 236.407 409.835 C 236.921 408.721 237.435 407.522 237.777 406.323 C 237.692 406.666 239.148 407.95 239.405 408.207 C 239.919 408.636 240.775 408.978 241.118 409.578 C 241.46 410.177 241.717 410.777 241.974 411.376 C 242.488 412.318 243.002 413.004 243.687 413.689 Z M 274.691 408.036 C 275.719 408.379 277.004 408.636 277.603 409.492 C 277.774 409.663 277.774 409.835 277.86 410.092 C 277.86 410.605 277.261 410.948 276.661 411.034 C 274.52 411.462 272.293 411.119 270.066 410.862 C 269.809 410.862 269.467 410.777 269.295 410.605 C 269.038 410.348 268.782 410.006 268.696 409.663 L 267.839 407.008 L 267.839 406.751 C 267.839 406.666 267.925 406.58 268.011 406.58 C 268.61 406.152 269.21 405.809 269.895 405.467 C 270.751 405.038 270.837 405.124 271.437 405.809 C 272.293 406.837 273.406 407.608 274.691 408.036 Z M 251.567 345.086 C 253.279 344.829 255.249 344.572 256.62 345.685 C 257.305 346.285 257.819 346.97 258.247 347.741 C 258.761 348.255 258.847 349.025 258.333 349.539 C 258.076 349.882 257.647 350.053 257.305 349.968 C 255.678 350.31 253.965 350.738 252.509 350.139 C 251.395 349.711 250.453 348.768 249.254 348.512 C 249.083 348.512 248.826 348.426 248.655 348.34 C 248.483 348.169 248.398 347.998 248.312 347.826 C 247.712 345.428 250.025 345.343 251.567 345.086 Z" class="b" style="fill: rgb(236, 156, 125);"/>
  <path d="M 270.066 412.832 C 270.152 412.918 270.238 413.089 270.323 413.175 C 270.494 413.26 270.666 413.26 270.837 413.175 C 271.779 413.004 272.807 413.004 273.835 413.089 C 275.805 413.089 277.86 412.832 279.83 412.575 C 280.686 412.49 281.629 412.233 282.142 411.548 C 282.228 411.462 282.228 411.376 282.228 411.291 C 282.228 411.119 282.142 411.034 282.057 410.862 C 281.185 409.81 280.024 409.036 278.717 408.636 C 278.203 408.464 277.689 408.293 277.175 408.293 C 276.661 408.293 276.147 408.55 275.805 408.892 C 275.462 409.321 275.376 410.006 275.034 410.434 C 274.606 410.777 274.006 410.948 273.406 410.862 C 272.721 410.862 272.036 410.777 271.351 410.605 C 270.837 410.52 270.152 410.177 269.552 410.263 C 268.525 410.52 269.809 412.318 270.066 412.832 Z M 235.122 413.689 C 235.122 413.86 235.122 414.031 235.208 414.117 C 235.294 414.288 235.551 414.374 235.722 414.46 C 236.725 414.958 237.672 415.56 238.548 416.258 C 240.471 417.477 242.474 418.564 244.544 419.513 C 245.4 419.941 246.428 420.369 247.37 420.027 C 247.456 420.027 247.541 419.941 247.627 419.855 C 247.712 419.684 247.712 419.513 247.712 419.341 C 247.541 417.8 246.942 416.344 246 415.059 C 245.657 414.545 245.229 414.117 244.8 413.86 C 244.287 413.517 243.687 413.432 243.088 413.603 C 242.488 413.774 241.974 414.374 241.375 414.545 C 240.689 414.631 240.004 414.374 239.49 413.946 C 238.849 413.482 238.248 412.966 237.692 412.404 C 237.264 411.976 236.75 411.205 236.236 410.948 C 235.122 410.434 235.122 412.918 235.122 413.689 Z" class="X" style="fill: rgb(34, 93, 147);"/>
  <path d="M 49.526 356.477 L 49.526 414.973 C 49.526 416.087 50.297 417.029 51.153 417.029 L 76.59 417.029 C 77.532 417.029 78.218 416.087 78.218 414.973 L 78.218 356.477 C 78.218 356.305 78.389 356.048 78.56 356.048 L 276.233 356.048 C 276.404 356.048 276.575 356.305 276.575 356.477 L 276.575 407.608 C 276.832 407.779 277.175 407.865 277.432 408.036 L 277.86 408.207 L 277.86 356.134 L 303.725 356.134 C 303.897 356.134 304.068 356.391 304.068 356.562 L 304.068 415.059 C 304.068 415.23 303.897 415.487 303.725 415.487 L 278.374 415.487 C 278.203 415.487 278.031 415.23 278.031 415.059 L 278.031 413.603 C 277.603 413.689 277.175 413.774 276.747 413.689 L 276.747 415.145 C 276.747 416.258 277.518 417.2 278.374 417.2 L 303.811 417.2 C 304.753 417.2 305.438 416.258 305.438 415.145 L 305.438 356.648 C 305.438 355.535 304.668 354.592 303.811 354.592 L 51.239 354.592 C 50.297 354.421 49.526 355.363 49.526 356.477 Z M 50.896 356.477 C 50.896 356.22 51.068 356.048 51.239 356.048 L 77.104 356.048 L 77.104 414.973 C 77.104 415.145 76.933 415.402 76.762 415.402 L 51.239 415.402 C 50.982 415.402 50.896 415.145 50.896 414.973 L 50.896 356.477 Z" style=""/>
  <linearGradient id="D" gradientUnits="userSpaceOnUse" x1="114.881" y1="-198.624" x2="85.675" y2="762.72" gradientTransform="matrix(0.462492, 0, 0, -0.462492, 127.39937, 392.867128)">
    <stop offset="0.01"/>
    <stop offset="0.08" stop-opacity=".69"/>
    <stop offset="0.21" stop-opacity=".32"/>
    <stop offset="1" stop-opacity="0"/>
  </linearGradient>
  <path d="M 49.526 356.477 L 49.526 414.973 C 49.526 416.087 50.297 417.029 51.153 417.029 L 76.59 417.029 C 77.532 417.029 78.218 416.087 78.218 414.973 L 78.218 356.477 C 78.218 356.305 78.389 356.048 78.56 356.048 L 276.233 356.048 C 276.404 356.048 276.575 356.305 276.575 356.477 L 276.575 407.608 C 276.832 407.779 277.175 407.865 277.432 408.036 L 277.86 408.207 L 277.86 356.134 L 303.725 356.134 C 303.897 356.134 304.068 356.391 304.068 356.562 L 304.068 415.059 C 304.068 415.23 303.897 415.487 303.725 415.487 L 278.374 415.487 C 278.203 415.487 278.031 415.23 278.031 415.059 L 278.031 413.603 C 277.603 413.689 277.175 413.774 276.747 413.689 L 276.747 415.145 C 276.747 416.258 277.518 417.2 278.374 417.2 L 303.811 417.2 C 304.753 417.2 305.438 416.258 305.438 415.145 L 305.438 356.648 C 305.438 355.535 304.668 354.592 303.811 354.592 L 51.239 354.592 C 50.297 354.421 49.526 355.363 49.526 356.477 Z M 50.896 356.477 C 50.896 356.22 51.068 356.048 51.239 356.048 L 77.104 356.048 L 77.104 414.973 C 77.104 415.145 76.933 415.402 76.762 415.402 L 51.239 415.402 C 50.982 415.402 50.896 415.145 50.896 414.973 L 50.896 356.477 Z" fill="url(#D)" style=""/>
  <path d="M 51.239 417.029 L 76.676 417.029 C 77.618 417.029 78.303 416.087 78.303 414.973 L 78.303 356.477 C 78.303 356.305 78.475 356.048 78.646 356.048 L 303.811 356.048 C 304.068 356.048 304.154 356.22 304.154 356.477 L 304.154 414.973 C 304.154 415.23 303.982 415.402 303.811 415.402 C 303.383 415.487 303.126 415.916 303.212 416.344 C 303.297 416.686 303.554 416.943 303.811 416.943 C 304.753 416.943 305.438 416.001 305.438 414.888 L 305.438 356.391 C 305.438 355.278 304.668 354.336 303.811 354.336 L 78.731 354.336 C 77.789 354.336 77.104 355.278 77.104 356.391 L 77.104 414.888 C 77.104 415.059 76.933 415.316 76.762 415.316 L 51.239 415.316 C 50.982 415.316 50.896 415.145 50.896 414.888 L 50.896 356.391 C 50.896 356.134 51.068 355.963 51.239 355.963 C 51.667 355.877 51.924 355.449 51.838 355.021 C 51.753 354.678 51.496 354.421 51.239 354.421 C 50.297 354.421 49.612 355.363 49.612 356.477 L 49.612 414.973 C 49.526 416.087 50.297 417.029 51.239 417.029 Z" style=""/>
  <linearGradient id="E" gradientUnits="userSpaceOnUse" x1="114.023" y1="242.809" x2="88.805" y2="-772.973" gradientTransform="matrix(0.462492, 0, 0, -0.462492, 127.39937, 392.867128)">
    <stop offset="0.01"/>
    <stop offset="0.08" stop-opacity=".69"/>
    <stop offset="0.21" stop-opacity=".32"/>
    <stop offset="1" stop-opacity="0"/>
  </linearGradient>
  <path d="M 51.239 417.029 L 76.676 417.029 C 77.618 417.029 78.303 416.087 78.303 414.973 L 78.303 356.477 C 78.303 356.305 78.475 356.048 78.646 356.048 L 303.811 356.048 C 304.068 356.048 304.154 356.22 304.154 356.477 L 304.154 414.973 C 304.154 415.23 303.982 415.402 303.811 415.402 C 303.383 415.487 303.126 415.916 303.212 416.344 C 303.297 416.686 303.554 416.943 303.811 416.943 C 304.753 416.943 305.438 416.001 305.438 414.888 L 305.438 356.391 C 305.438 355.278 304.668 354.336 303.811 354.336 L 78.731 354.336 C 77.789 354.336 77.104 355.278 77.104 356.391 L 77.104 414.888 C 77.104 415.059 76.933 415.316 76.762 415.316 L 51.239 415.316 C 50.982 415.316 50.896 415.145 50.896 414.888 L 50.896 356.391 C 50.896 356.134 51.068 355.963 51.239 355.963 C 51.667 355.877 51.924 355.449 51.838 355.021 C 51.753 354.678 51.496 354.421 51.239 354.421 C 50.297 354.421 49.612 355.363 49.612 356.477 L 49.612 414.973 C 49.526 416.087 50.297 417.029 51.239 417.029 Z" fill="url(#E)" style=""/>
  <path d="M 305.353 354.421 L 76.076 354.421 L 76.076 351.338 L 307.237 351.338 L 307.237 352.537 C 307.228 353.574 306.389 354.412 305.353 354.421 Z M 76.076 354.421 L 49.697 354.421 C 48.66 354.412 47.822 353.574 47.813 352.537 L 47.813 350.567 L 76.076 350.567 L 76.076 354.421 Z" style=""/>
  <g class="X" transform="matrix(0.856467, 0, 0, 0.856467, 33.424366, 140.732605)" style="fill: rgb(252, 91, 63);">
    <path d="M45.5 244h275.8c.3 0 .6.3.5.7v2c0 .3-.2.6-.5.7H45.5V244z" style="fill: rgb(63, 136, 252);"/>
    <path d="M15.3 244H51c.3 0 .6.3.5.7v2c0 .3-.2.6-.5.7H15.3c-.4 0-.7-.4-.6-.8v-1.7c-.1-.5.2-.8.6-.9z" transform="matrix(1, 0, 0, 1, 0, 0)"/>
  </g>
  <path d="M 46.528 349.711 L 77.104 349.711 C 77.361 349.711 77.618 349.968 77.532 350.31 L 77.532 352.023 C 77.532 352.28 77.361 352.537 77.104 352.623 L 46.528 352.623 C 46.186 352.623 45.929 352.28 46.014 351.937 L 46.014 350.481 C 45.929 350.053 46.186 349.796 46.528 349.711 Z" style="fill: rgb(34, 93, 147);"/>
  <path d="M 241.203 313.568 C 241.203 313.653 241.203 313.739 241.118 313.825 C 240.946 314.082 240.604 314.167 240.347 313.996 C 240.09 313.91 239.833 313.653 239.662 313.482 C 239.662 313.739 239.576 313.91 239.319 313.996 C 239.099 314.082 238.854 314.082 238.634 313.996 C 238.12 313.91 237.606 313.739 237.178 313.482 C 237.092 314.167 236.578 314.595 235.893 314.595 C 235.551 314.595 235.294 314.424 235.037 314.167 L 234.694 314.767 C 234.437 314.595 234.095 314.767 233.752 314.767 C 233.067 314.681 232.639 314.082 232.639 313.396 C 232.639 312.711 232.81 312.112 233.153 311.512 C 233.581 310.484 233.838 309.371 234.095 308.343 C 234.095 308.001 234.266 307.658 234.437 307.315 C 234.694 307.059 234.951 306.802 235.294 306.716 C 236.921 306.202 238.891 307.315 239.919 308.6 C 241.003 310.013 241.466 311.806 241.203 313.568 Z" class="e" style="fill: rgb(50, 56, 79);"/>
  <path d="M 407.529 412.233 C 407.615 413.517 407.358 414.802 406.844 416.001 C 406.245 417.115 405.217 417.971 404.103 418.571 C 401.62 419.855 398.708 420.112 396.053 419.341 C 395.71 419.256 395.367 419.084 395.11 418.742 C 394.939 418.485 394.939 418.228 394.939 417.971 C 395.025 416.515 395.967 415.23 397.08 414.203 C 398.108 413.175 399.307 412.233 399.992 410.862 C 401.191 408.379 400.335 401.698 405.045 402.812 C 408.9 403.668 407.615 409.406 407.529 412.233 Z" class="f" style="fill: rgb(253, 185, 169);"/>
  <path d="M 407.872 413.832 C 407.358 413.575 406.673 413.747 406.33 414.26 C 405.217 415.545 403.504 416.145 401.791 415.888 C 399.907 415.46 399.222 413.318 398.279 413.318 C 397.337 413.318 392.455 417.515 392.198 419.314 C 391.942 421.112 394.425 422.397 397.166 422.568 C 399.907 422.739 406.245 420.855 407.444 419.399 C 408.643 417.858 408.471 414.774 407.872 413.832 Z" class="Y" style="fill: rgb(77, 75, 75);"/>
  <path d="M 423.631 414.802 C 423.716 416.087 423.46 417.372 422.946 418.571 C 422.346 419.684 421.318 420.54 420.205 421.14 C 417.721 422.425 414.809 422.682 412.154 421.911 C 411.812 421.825 411.469 421.654 411.212 421.311 C 411.041 421.054 411.041 420.797 411.041 420.54 C 411.126 419.084 412.069 417.8 413.182 416.772 C 414.21 415.744 415.409 414.802 416.094 413.432 C 417.293 410.948 416.436 404.268 421.147 405.381 C 425.001 406.237 423.802 411.976 423.631 414.802 Z" class="f" style="fill: rgb(253, 185, 169);"/>
  <path d="M 423.973 415.402 C 423.46 415.145 422.774 415.316 422.432 415.83 C 421.318 417.115 419.605 417.714 417.892 417.457 C 416.008 417.029 415.323 414.888 414.381 414.888 C 413.439 414.888 408.557 419.084 408.3 420.883 C 408.043 422.682 410.527 423.966 413.268 424.138 C 416.008 424.309 422.346 422.425 423.545 420.883 C 424.744 419.427 424.659 416.344 423.973 415.402 Z" class="Y" style="fill: rgb(42, 40, 40);"/>
  <g fill="#473f47" transform="matrix(0.856467, 0, 0, 0.856467, 33.424366, 140.732605)" style="">
    <path d="M459.5 238.9s1 56.4-3.2 75.2l-10.6 1.3-7.3-77.2 21.1.7z"/>
    <path d="M426.8 232.7s-5 30.4 1.1 79.3l10.6 1.3 7.3-77.2-19-3.4z"/>
  </g>
  <g class="X" transform="matrix(0.856467, 0, 0, 0.856467, 33.424366, 140.732605)" style="fill: rgb(252, 91, 63);">
    <path d="M414.4 208.5c.1 2 .8 3.8 2.5 4.4.1.1.3.1.5.1 3.3.7 7.5-1.8 10.5-4 1.2-.9 2.4-1.9 3.6-2.9v-21.8l-15.8 16.2c-.1 0-1.5 4.4-1.3 8z" style="fill: rgb(63, 136, 252);"/>
    <path d="M427.8 208.9l-.1 3.1c0 5.6 1.3 11.4-.4 16.9-.4 1.2-.9 2.6-.5 3.8a4.89 4.89 0 002.4 2.3c5 2.7 10.7 3.5 16.3 4.3 4.2.6 10.2 1.8 14.1-.4 1.7-1 2.2-2.8 2.7-4.6 1.7-5.7 2.2-11.8 2.6-17.8.1-.8.1-1.6.2-2.3.3-5.4.4-10.8.3-16.2-.1-3.9-.4-8.1-2.9-11.1-3.4-3.9-10-6.5-15-7.5-1.6-.3-3.3-.4-4.9-.3-2.3.4-4.6 1.1-6.7 2.3-2.5 1.2-4.7 2.3-5.9 4.7-1.3 2.8-2.3 5.8-2.8 8.9-.5 2.9-.5 5.8-.2 8.8.2 1.4.5 2.8.7 4.3 0 .3.1.6.1.8z" style="fill: rgb(63, 136, 252);"/>
  </g>
  <path d="M 419.434 346.97 C 420.804 347.398 424.059 346.113 425.087 345.942 C 425.686 345.856 426.286 345.514 426.971 345.343 C 430.14 344.572 430.568 335.579 430.825 333.181 C 431.682 326.757 432.966 320.162 432.966 313.825 C 432.966 311.341 432.966 308.857 432.11 306.545 C 431.339 304.232 429.626 302.091 427.314 301.235 C 423.203 299.779 422.004 312.626 421.49 315.366 L 418.406 329.926 C 417.978 331.725 417.721 333.523 417.55 335.408 C 417.464 337.977 418.235 339.776 418.92 342.088 C 419.263 343.373 418.321 345.771 418.749 346.713 C 419.006 346.799 419.263 346.97 419.434 346.97 Z" opacity=".1" fill="#020202" class="d" style=""/>
  <path d="M 409.67 290.529 C 410.184 291.043 410.869 291.471 411.64 291.471 C 412.24 291.556 412.925 291.556 413.525 291.471 L 413.867 291.471 C 413.953 291.471 414.038 291.471 414.124 291.556 C 414.21 291.642 414.21 291.728 414.21 291.813 C 414.381 293.098 414.381 294.383 414.295 295.582 C 414.295 295.839 414.295 296.01 414.21 296.267 C 414.124 296.524 414.21 296.781 414.295 296.952 C 414.467 297.209 414.724 297.38 415.066 297.466 C 415.58 297.637 416.18 297.723 416.779 297.723 C 418.034 297.638 419.245 297.225 420.291 296.524 C 420.205 294.383 420.291 292.156 420.633 290.015 C 421.061 287.274 421.747 284.448 421.49 281.707 C 421.404 280.594 421.061 279.566 420.376 278.709 C 419.348 277.596 417.721 277.253 416.265 277.253 C 414.295 277.253 412.325 277.767 410.613 278.795 C 410.013 279.223 409.927 279.737 409.756 280.508 C 409.501 281.607 409.33 282.724 409.242 283.848 C 409.071 285.047 408.985 286.332 408.985 287.617 C 408.985 288.644 408.985 289.758 409.67 290.529 Z" class="f" style="fill: rgb(253, 185, 169);"/>
  <path d="M 411.897 279.48 C 413.353 279.737 414.895 279.48 416.265 279.994 C 418.149 280.765 418.92 283.163 418.321 285.133 C 418.835 285.304 418.92 284.362 419.348 283.934 C 419.777 283.506 420.719 284.105 420.804 284.705 C 420.719 285.39 420.548 286.075 420.205 286.589 C 419.691 287.788 419.605 289.158 419.948 290.357 C 420.034 290.614 420.291 290.957 420.548 290.957 C 420.804 290.957 421.061 290.357 421.233 290.186 C 421.502 289.831 421.819 289.514 422.175 289.244 L 424.23 287.617 C 425.429 286.589 426.543 285.219 426.457 283.677 C 426.457 283.077 426.2 282.392 425.858 281.878 C 425.515 281.45 425.172 281.022 424.659 280.765 C 424.487 280.679 424.23 280.508 424.23 280.337 C 424.23 280.251 424.23 280.08 424.316 279.994 C 424.744 278.453 423.888 276.74 422.517 275.712 C 421.147 274.77 419.605 274.256 417.978 273.999 L 414.809 273.571 C 413.953 273.485 413.096 273.314 412.325 272.971 C 412.497 272.372 412.839 271.858 413.182 271.344 C 412.411 271.601 411.726 271.858 411.041 272.286 C 411.041 271.943 411.212 271.601 411.298 271.258 C 410.184 271.686 408.985 272.115 408.214 273.057 C 407.272 274.341 407.272 275.969 408.129 277.253 C 408.9 278.538 410.184 279.052 411.64 279.395 L 411.897 279.48 Z" style="fill: rgb(40, 39, 38);"/>
  <path d="M 413.525 291.471 L 413.867 291.471 C 413.953 291.471 414.038 291.471 414.124 291.556 C 414.21 291.642 414.21 291.728 414.21 291.813 C 414.381 293.098 414.381 294.383 414.295 295.582 C 414.21 296.781 417.892 294.64 417.807 290.186 C 416.435 290.782 414.998 291.213 413.525 291.471 Z" fill="#de9f93" style=""/>
  <path d="M 376.53 314.985 C 378.344 317.484 380.54 319.681 383.039 321.494 C 384.838 322.693 386.979 323.464 389.12 323.721 C 389.377 323.721 389.72 323.721 389.977 323.635 C 390.405 323.464 390.833 323.207 391.176 322.779 C 392.118 321.666 392.632 320.295 392.717 318.925 C 392.889 315.242 388.863 313.015 388.863 313.015 C 388.863 313.015 379.699 310.103 378.586 310.532 C 377.986 310.788 377.386 312.073 377.044 313.187 L 376.53 314.985 Z" class="X" style="fill: rgb(57, 123, 227);"/>
  <path d="M 437.763 320.505 C 438.962 323.76 440.075 327.271 439.561 330.697 C 438.962 334.894 436.135 338.405 433.48 341.66 C 431.339 342.002 428.598 341.917 427.828 339.947 C 427.656 339.347 427.571 338.662 427.656 337.977 L 427.913 333.609 C 428.084 331.639 428.17 329.669 427.656 327.871 C 427.057 325.73 425.601 324.017 424.402 322.132 C 422.517 319.049 421.404 315.623 421.147 312.026 C 420.89 308.686 423.46 297.809 428.427 301.063 C 430.483 302.434 432.281 308.001 433.395 310.227 C 435.022 313.653 436.478 317.079 437.763 320.505 Z" class="X" style="fill: rgb(34, 93, 147);"/>
  <path d="M 426.628 344.657 C 426.543 344.829 426.457 345 426.457 345.257 C 426.457 345.428 426.714 345.6 426.885 345.514 C 427.399 347.056 426.372 348.683 426.372 350.31 C 426.358 350.458 426.388 350.607 426.457 350.738 C 426.543 350.91 426.628 351.081 426.8 351.167 C 427.399 351.509 428.084 351.595 428.684 351.252 C 429.284 350.995 429.797 350.567 430.226 350.139 C 431.168 349.282 431.853 348.169 432.281 346.97 C 432.452 346.37 432.538 345.856 432.624 345.257 L 433.138 340.975 C 429.797 340.033 428.084 342.088 426.628 344.657 Z M 377.639 306.459 C 377.553 306.202 377.382 305.945 377.21 305.688 C 376.953 305.517 376.611 305.517 376.439 305.774 C 376.354 305.945 376.268 306.116 376.268 306.288 C 376.097 306.716 375.754 306.887 375.326 306.887 C 374.898 306.887 374.47 306.802 374.127 306.63 C 373.014 306.202 371.9 305.859 370.787 305.603 C 370.53 305.517 370.273 305.517 370.016 305.603 C 369.759 305.774 369.502 306.031 369.416 306.288 C 368.903 307.658 369.245 309.2 370.102 310.399 C 371.044 311.512 372.243 312.369 373.699 312.711 C 375.069 313.054 376.525 313.311 377.981 313.311 C 378.324 313.396 378.752 313.311 379.095 313.139 C 380.722 312.112 378.067 307.658 377.639 306.459 Z" class="f" style="fill: rgb(253, 185, 169);"/>
  <path d="M 308.436 248.819 L 314.431 248.819 L 314.431 283.249 L 308.436 283.249 Z M 316.915 262.95 L 322.91 262.95 L 322.91 283.249 L 316.915 283.249 Z M 325.394 269.288 L 331.389 269.288 L 331.389 283.249 L 325.394 283.249 Z M 333.787 258.497 L 339.783 258.497 L 339.783 283.163 L 333.787 283.163 Z M 342.266 252.416 L 348.262 252.416 L 348.262 283.163 L 342.266 283.163 Z M 350.66 248.819 L 356.655 248.819 L 356.655 283.249 L 350.66 283.249 Z" class="X" style="fill: rgb(34, 93, 147);"/>
</svg>