<?xml version="1.0" encoding="utf-8"?>
<svg xmlns="http://www.w3.org/2000/svg">
  <defs>
    <path id="L" d="M242.4 243.6c-.7 1.4-1.1 3-1 4.6-.7 7.2 0 14.5 1.9 21.6 3.3 10.2 10.6 18.4 17.8 26.2-.6-.9 1.1-5.5 1.3-6.7.4-2.2.9-4.3 1.3-6.4a22.11 22.11 0 00-.9-10.2c-1.8-7.5-5.4-14.5-10.4-20.4-2.9-3.3-6.2-6.3-10-8.7z"/>
    <path id="M" d="M274.5 268.2c2.7-5.3 4.6-10.9 5.8-16.7 1.2-5.9 0-12-3.3-17l-13.9 21.1c-2.9 3.9-5.1 8.3-6.7 12.9-2.2 9.5-.3 19.5 5.2 27.5 3.1-2.7 4.6-8.8 6.3-12.5l6.6-15.3z"/>
    <path id="path-1" d="M163 129.6l8.4-27.5c1.1-5.2 1.6-11.5 2.2-16.9.3-1.8.3-3.6-.1-5.3-.6-2.2-2.1-4.8-.8-6.7 1.2-2 4.6-1.7 6.6-.3 2.9 1.9 4.8 6.2 2.5 8.7-.7.6-1.4 1.2-2 2-.7 1.2-.6 2.8-.4 4.2.7 6.6-.7 13.1-2.1 19.7l-3.7 17.9c-.9 4.4-2.3 9.4-6.6 11-.7.3-1.3.4-2 .1a2.36 2.36 0 01-.9-.8c-.8-1.6-1-4.2-1.1-6.1z"/>
    <path id="K" d="M188.9 208.9c.4 0 .7 0 1 .1.2.1.4.3.6.5l3.5 4c.7.7 1.4 1.9.9 2.7-.4.6-.8.8-1.5.9-1.7.2-3.4-.2-5-.9l-3.2-1.6c-.7-.4-1.5-.9-2-1.6-.8-1.2-1-4.2.4-5.1.7-.5 1.3-.1 2.1.2 1.1.6 2.2.8 3.2.8z"/>
    <path id="path-2" d="M208.9 221c1.1.1 2.2.3 3.2.7s1.9 1.1 2.3 2.2c.2.5.2 1 .1 1.6-.4.7-.9 1.3-1.7 1.7-3.7 2-7.7 2.8-11.8 2.6-1 0-2.1-.4-2.9-1-.6-.8-.8-1.9-.7-2.9l-.1-4.9c.9-.1 1.8.5 2.6.7 1.5.6 2.1-.7 3.4-1 1.5-.5 3.9.1 5.6.3z"/>
    <path id="J" d="M163 129.6l8.4-27.5c1.1-5.2 1.6-11.5 2.2-16.9.3-1.8.3-3.6-.1-5.3-.6-2.2-2.1-4.8-.8-6.7 1.2-2 4.6-1.7 6.6-.3 2.9 1.9 4.8 6.2 2.5 8.7-.7.6-1.4 1.2-2 2-.7 1.2-.6 2.8-.4 4.2.7 6.6-.7 13.1-2.1 19.7l-3.7 17.9c-.9 4.4-2.3 9.4-6.6 11-.7.3-1.3.4-2 .1a2.36 2.36 0 01-.9-.8c-.8-1.6-1-4.2-1.1-6.1z"/>
    <path id="path-3" d="M188.9 208.9c.4 0 .7 0 1 .1.2.1.4.3.6.5l3.5 4c.7.7 1.4 1.9.9 2.7-.4.6-.8.8-1.5.9-1.7.2-3.4-.2-5-.9l-3.2-1.6c-.7-.4-1.5-.9-2-1.6-.8-1.2-1-4.2.4-5.1.7-.5 1.3-.1 2.1.2 1.1.6 2.2.8 3.2.8z"/>
    <path id="path-4" d="M208.9 221c1.1.1 2.2.3 3.2.7s1.9 1.1 2.3 2.2c.2.5.2 1 .1 1.6-.4.7-.9 1.3-1.7 1.7-3.7 2-7.7 2.8-11.8 2.6-1 0-2.1-.4-2.9-1-.6-.8-.8-1.9-.7-2.9l-.1-4.9c.9-.1 1.8.5 2.6.7 1.5.6 2.1-.7 3.4-1 1.5-.5 3.9.1 5.6.3z"/>
  </defs>
  <path d="M 648.504 532.908 C 648.504 538.495 643.945 543.054 638.359 543.118 L 612.223 543.118 C 604.364 543.118 599.452 534.61 603.382 527.804 C 605.206 524.645 608.576 522.699 612.223 522.699 L 615.948 522.699 L 615.948 521.864 C 615.691 516.662 619.673 512.296 624.874 512.039 C 630.075 511.783 634.441 515.764 634.698 520.965 L 634.698 522.699 L 638.422 522.699 C 644.009 522.763 648.504 527.322 648.504 532.908 Z" class="Y" style="fill: rgb(255, 255, 255);"/>
  <path d="M 386.013 143.392 L 361.558 137.167 C 325.765 128.498 287.082 119.604 252.623 132.722 C 224.611 143.614 203.713 167.18 184.15 189.856 C 158.361 219.646 132.573 249.881 113.231 284.119 C 67.657 365.708 60.764 481.091 99.447 565.793 C 114.788 599.585 135.24 632.266 166.142 652.941 C 198.156 674.506 238.617 681.175 277.078 677.619 C 315.539 674.061 352.444 660.722 387.791 645.827 C 427.364 628.931 469.159 608.701 511.399 617.149 C 533.409 621.594 553.195 633.155 572.982 643.826 C 607.662 662.278 645.012 678.062 684.362 681.398 C 723.712 684.732 765.507 674.728 793.963 647.161 C 821.753 620.483 833.536 581.355 840.205 543.561 C 847.32 504.212 848.653 463.972 844.874 424.4 C 841.095 385.939 857.324 349.257 850.877 309.685 C 845.985 278.783 829.757 248.548 803.301 231.43 C 770.621 210.309 728.603 211.865 689.698 212.755 C 656.572 213.644 623.448 213.422 590.099 212.31 C 569.646 211.643 549.415 210.532 529.852 204.084 C 507.843 196.748 488.5 183.188 467.826 172.738 C 442.036 159.176 414.247 150.729 386.013 143.392 Z" opacity=".18" class="O R" style="fill: rgb(63, 114, 252);"/>
  <path d="M 441.701 314.798 L 460.376 253.662 C 462.822 242.1 463.933 228.094 465.266 216.089 C 465.934 212.088 465.934 208.086 465.045 204.307 C 463.71 199.415 460.376 193.635 463.265 189.411 C 465.934 184.966 473.492 185.632 477.939 188.745 C 484.386 192.969 488.61 202.528 483.496 208.086 C 481.94 209.421 480.384 210.754 479.051 212.533 C 477.494 215.201 477.716 218.758 478.161 221.869 C 479.717 236.543 476.605 250.993 473.492 265.667 L 465.266 305.461 C 463.265 315.243 460.154 326.359 450.594 329.916 C 449.037 330.583 447.704 330.804 446.148 330.138 C 445.339 329.728 444.649 329.116 444.147 328.36 C 442.369 324.802 441.924 319.022 441.701 314.798 Z" style="fill: rgb(193, 167, 167);"/>
  <path d="M 544.525 470.642 C 545.414 519.996 506.064 560.458 456.71 561.124 C 407.356 562.014 366.894 522.663 366.227 473.31 L 366.227 470.642 C 366.227 468.418 366.227 465.974 366.45 463.751 C 370.229 414.618 412.914 377.713 462.046 381.493 C 508.51 385.272 544.525 423.955 544.525 470.642 Z" class="O" style="fill: rgb(34, 93, 147);"/>
  <g fill="#020202" class="R" transform="matrix(2.223163, 0, 0, 2.223163, 74.325287, 26.676361)" style="">
    <path d="M154.5 218c-1.3 5.8.3 12-.9 17.8-9.3-4.6-16.4-12.5-19.9-22.3-.2-2-.2-4 .1-6 .3-2.2.7-4.3.1-6.5-.6-1.6-1.4-3.1-2.5-4.4.9-11.9 7-22.7 16.8-29.6.1.3.1.6 0 .8l-1.7 7.7a19.42 19.42 0 010 6.8c-.4 2.2-1.8 4.3-3.7 5.5-.7.3-1.5.7-2.2 1-.7.6-1.2 1.2-1.7 2-1.1 1.6-2 3.3-2.4 5.1-.5 1.9 0 3.8 1.3 5.2l11.2-2.2c1.1-.2 2.6-.4 3.4.5.9 1 .4 2.7.6 4.1.3 1.8 1.9 3.1 2.6 4.8 1.2 3.1-.4 6.5-1.1 9.7z" opacity=".14"/>
    <path d="M144.3 171.7c-1.6 1.9-3.3 3.8-3.7 6.3-.2.6-.2 1 0 1.6.5.8 1.2 1.4 2.1 1.7 3.8 1.5 7.9 2.2 12 2.1-.2 2.2-.4 5 1.3 6.6.7.6 1.4.9 2.2 1.2 2.5 1 5.1 1.6 7.9 1.7 2.2.1 4.6-.1 6.8.1 2.8.3 5.4 1.3 7.8 2.9.6.4 1.1.8 1.4 1.5a3.73 3.73 0 01.3 2.1c0 2.4.4 4.9.9 7.3.6 2.3 1.6 4.7 3.6 6.1 1 .7 2.2 1.2 3.4 1.5l8.1 2.7c.2.1.4.1.7.1.2-.1.4-.3.5-.5.8-1.8 1.8-3.7 1.4-5.6s-1.9-3.4-2.6-5.1c-1.1-2.8-.3-6.2-1.2-9.1-.7-1.8-1.8-3.4-3.1-4.6-2.3-2.2-4.8-4.4-7.4-6.4-4.1-3.3-8.3-6.6-13.1-8.7-2-.8-4.1-1.7-5.2-3.5-1.3-2.2-.7-5.1-2.2-7.2-1.2-1.7-3.4-2.3-5.4-2.4a19.42 19.42 0 00-9.8 2.3c-3.2 1-4.7 2.9-6.7 5.3z" opacity=".14"/>
    <path d="M211.5 199.7c0 12.3-5.6 23.9-15.3 31.5a4.67 4.67 0 01-1.4-1.4c-1.2-1.8-.8-4.7 1.1-5.7-.7.4-3.4-.6-4.1-.7l-4.1-.7c-2-.3-5.4-.2-6.6-2.2-.1-.3-.3-.6-.5-.7-.3-.3-.6-.5-.8-.6-1.2-.6-2.7-1.3-3-2.6-.2-1 .3-2.2-.2-3-.2-.3-.4-.5-.6-.7-.4-.8-.3-1.8.3-2.5 1.8-3 5.3-4.5 8.8-5.1s7-.5 10.4-1.5c2.2-.7 4.1-1.7 6.4-2 1.2-.2 2.7-.3 3.2-1.4.3-.7 0-1.4.3-2.1.1-.3.3-.6.4-.8.3-.8-.2-1.8-1-2.1-.1 0-.2-.1-.3-.1.3-.7.5-1.7-.1-2.2-.4-.3-.9-.4-1.5-.2-1.4.4-2.4 1.6-3.7 2.4-4 2.8-9.5 1.9-12.8-1.5-.6-.5-.9-1.1-1.1-1.8-.1-1.2.6-2.3 1.7-2.9 1.1-.5 2.2-.7 3.5-.7-.5-2.9-.9-5.8-1.3-8.7-6.6 1.8-9.4-4.6-10.3-9.8s2.8-7.2 7.7-7.5c14.9 6.2 24.9 21 24.9 37.3z" opacity=".14"/>
  </g>
  <linearGradient id="B" gradientUnits="userSpaceOnUse" x1="215.28" y1="203.013" x2="159.334" y2="254.728" gradientTransform="matrix(2.223163, 0, 0, 2.223163, 74.325288, 26.676361)">
    <stop offset="0.01"/>
    <stop offset="0.13" stop-opacity=".69"/>
    <stop offset="0.25" stop-opacity=".32"/>
    <stop offset="1" stop-opacity="0"/>
  </linearGradient>
  <path d="M 478.719 510.215 C 478.719 515.105 486.722 519.774 490.501 520.885 L 495.393 522.442 C 496.949 523.331 497.839 524.664 497.839 526.444 C 497.616 528 496.505 528.888 496.283 530.445 C 496.06 531.779 496.283 532.89 496.726 534.002 C 498.283 538.892 504.064 541.783 505.397 546.452 C 513.623 545.562 517.18 546.23 525.183 544.895 L 531.853 540.45 L 521.626 521.552 C 520.293 518.884 518.737 516.44 516.736 513.994 C 514.513 511.771 511.844 509.547 509.176 507.991 C 502.063 503.322 494.725 499.321 487.167 495.764 C 488.5 496.652 478.719 509.102 478.719 510.215 Z" fill="url(#B)" style=""/>
  <path d="M 483.61 487.983 C 482.72 490.65 482.054 493.763 483.61 496.209 C 484.499 497.32 485.389 497.765 486.5 498.21 C 489.168 499.543 492.502 499.321 494.948 497.32 C 496.283 495.764 496.949 494.208 497.394 492.428 C 499.394 485.76 500.95 479.09 502.063 472.198 C 502.285 471.531 502.285 470.864 502.063 470.419 C 501.618 469.753 501.173 469.086 500.507 468.863 C 496.949 467.085 491.391 465.306 489.168 469.753 C 486.722 475.311 485.389 482.202 483.61 487.983 Z" class="P" style="fill: rgb(193, 167, 167);"/>
  <path d="M 494.282 491.095 C 495.17 491.095 495.838 491.095 496.505 491.317 C 496.949 491.54 497.394 491.985 497.839 492.428 L 505.619 501.322 C 507.175 502.877 508.731 505.546 507.62 507.324 C 506.73 508.657 505.842 509.102 504.286 509.325 C 500.507 509.77 496.726 508.88 493.17 507.324 L 486.056 503.767 C 484.499 502.877 482.72 501.766 481.609 500.211 C 479.831 497.542 479.386 490.872 482.498 488.872 C 484.055 487.761 485.389 488.649 487.167 489.317 C 489.613 490.65 492.059 491.095 494.282 491.095 Z" style=""/>
  <path d="M 526.74 518.44 C 526.74 518.884 526.74 519.551 526.518 519.996 C 526.295 520.441 525.85 520.885 525.405 521.33 C 523.976 522.342 522.266 522.886 520.515 522.886 C 518.737 522.886 516.957 522.22 515.624 520.885 C 514.734 519.551 514.29 517.996 514.068 516.44 C 513.4 513.104 512.955 509.547 512.955 506.213 C 512.733 505.323 513.178 504.656 514.068 504.656 L 514.29 504.656 C 517.18 503.99 522.516 502.655 524.072 506.213 C 526.073 509.77 526.74 513.994 526.74 518.44 Z" class="P" style="fill: rgb(193, 167, 167);"/>
  <path d="M 538.745 517.996 C 541.19 518.218 543.635 518.662 545.859 519.551 C 548.082 520.441 550.083 521.997 550.973 524.443 C 551.416 525.554 551.416 526.665 551.194 528 C 550.305 529.556 549.193 530.889 547.414 531.779 C 539.189 536.226 530.297 538.004 521.181 537.559 C 518.958 537.559 516.513 536.67 514.734 535.336 C 513.4 533.557 512.955 531.112 513.178 528.888 L 512.955 517.996 C 514.956 517.773 516.957 519.107 518.737 519.551 C 522.071 520.885 523.404 517.996 526.295 517.328 C 529.629 516.217 534.965 517.551 538.745 517.996 Z" style=""/>
  <linearGradient id="C" gradientUnits="userSpaceOnUse" x1="191.647" y1="208.213" x2="182.782" y2="222.275" gradientTransform="matrix(2.223163, 0, 0, 2.223163, 74.325288, 26.676361)">
    <stop offset="0.01"/>
    <stop offset="0.13" stop-opacity=".69"/>
    <stop offset="0.25" stop-opacity=".32"/>
    <stop offset="1" stop-opacity="0"/>
  </linearGradient>
  <path d="M 494.282 491.095 C 495.17 491.095 495.838 491.095 496.505 491.317 C 496.949 491.54 497.394 491.985 497.839 492.428 L 505.619 501.322 C 507.175 502.877 508.731 505.546 507.62 507.324 C 506.73 508.657 505.842 509.102 504.286 509.325 C 500.507 509.77 496.726 508.88 493.17 507.324 L 486.056 503.767 C 484.499 502.877 482.72 501.766 481.609 500.211 C 479.831 497.542 479.386 490.872 482.498 488.872 C 484.055 487.761 485.389 488.649 487.167 489.317 C 489.613 490.65 492.059 491.095 494.282 491.095 Z" fill="url(#C)" style=""/>
  <path d="M 480.942 492.873 L 481.609 495.097 C 482.054 496.209 482.498 497.097 482.943 497.987 C 483.833 499.098 484.499 499.766 485.611 500.654 C 488.279 502.433 491.169 503.767 494.282 504.878 C 499.172 506.657 504.064 507.102 508.954 506.434 C 508.524 507.487 507.737 508.352 506.73 508.88 C 505.619 509.325 504.508 509.77 503.396 509.77 C 498.727 509.547 494.282 508.435 490.28 506.213 L 485.611 504.212 C 484.944 503.99 484.278 503.545 483.833 503.1 C 482.943 502.433 482.277 501.544 481.832 500.877 C 480.72 499.321 480.276 497.542 480.054 495.764 C 480.054 494.874 480.054 493.986 480.276 493.096 C 480.276 492.651 480.942 491.095 481.387 491.095 C 480.942 491.54 480.942 492.207 480.942 492.873 Z" fill="#473f47" style=""/>
  <linearGradient id="D" gradientUnits="userSpaceOnUse" x1="210.353" y1="235.52" x2="198.894" y2="209.747" gradientTransform="matrix(2.223163, 0, 0, 2.223163, 74.325288, 26.676361)">
    <stop offset="0.01"/>
    <stop offset="0.13" stop-opacity=".69"/>
    <stop offset="0.25" stop-opacity=".32"/>
    <stop offset="1" stop-opacity="0"/>
  </linearGradient>
  <path d="M 538.745 517.996 C 541.19 518.218 543.635 518.662 545.859 519.551 C 548.082 520.441 550.083 521.997 550.973 524.443 C 551.416 525.554 551.416 526.665 551.194 528 C 550.305 529.556 549.193 530.889 547.414 531.779 C 539.189 536.226 530.297 538.004 521.181 537.559 C 518.958 537.559 516.513 536.67 514.734 535.336 C 513.4 533.557 512.955 531.112 513.178 528.888 L 512.955 517.996 C 514.956 517.773 516.957 519.107 518.737 519.551 C 522.071 520.885 523.404 517.996 526.295 517.328 C 529.629 516.217 534.965 517.551 538.745 517.996 Z" fill="url(#D)" style=""/>
  <path d="M 509.844 398.834 C 512.067 399.279 514.513 400.39 516.069 401.946 C 518.069 404.169 518.069 407.503 518.069 410.394 C 518.069 432.181 513.845 453.746 506.287 473.977 C 505.842 475.533 504.952 476.867 503.619 477.534 C 502.285 477.979 501.173 477.756 499.839 477.311 C 494.948 475.978 490.501 474.421 485.834 472.642 L 491.836 431.292 C 492.059 429.958 492.059 429.069 491.614 427.734 C 491.169 426.846 490.501 426.178 489.835 425.956 C 482.72 420.843 475.384 416.174 467.826 412.172 C 461.601 409.061 454.486 405.281 452.93 398.389 C 452.263 396.166 452.708 393.498 454.264 391.719 C 455.376 390.608 456.265 390.163 457.599 389.496 C 461.824 387.495 466.714 384.828 471.605 385.272 C 475.384 385.717 476.718 387.718 479.831 389.496 C 488.723 394.387 500.507 395.943 509.844 398.834 Z" class="Q" style="fill: rgb(255, 255, 255);"/>
  <linearGradient id="E" gradientUnits="userSpaceOnUse" x1="127.954" y1="183.409" x2="197.419" y2="186.218" gradientTransform="matrix(2.223163, 0, 0, 2.223163, 74.325288, 26.676361)">
    <stop offset="0"/>
    <stop offset="1" stop-opacity="0"/>
  </linearGradient>
  <path d="M 490.946 474.866 C 490.501 474.643 492.281 464.862 492.502 463.972 C 492.947 462.193 494.282 453.524 495.838 459.304 C 496.06 460.637 496.283 461.75 496.283 463.306 L 497.171 467.975 C 497.394 469.308 497.839 470.197 498.283 471.531 C 499.394 473.087 500.507 474.643 502.063 475.756 C 502.285 475.978 502.729 476.199 503.174 476.422 C 503.841 476.422 504.286 475.756 504.508 475.311 C 505.175 473.755 505.397 471.754 505.397 469.976 C 505.619 459.526 510.955 450.411 510.732 439.739 C 510.732 437.295 508.288 433.959 507.175 431.515 C 506.287 429.735 505.619 427.513 505.175 425.512 C 503.841 418.397 508.065 411.505 508.731 404.392 L 494.504 411.284 L 486.278 473.532 L 490.946 474.866 Z" fill="url(#E)" style=""/>
  <path d="M 454.264 392.832 L 445.594 397.278 C 444.705 397.722 444.037 397.944 443.371 398.389 C 434.255 402.168 424.251 403.502 414.47 402.613 C 413.359 402.391 412.469 402.391 411.58 402.168 C 406.021 401.28 400.686 398.389 396.907 394.165 C 392.238 388.83 391.349 381.049 390.904 373.712 L 390.904 371.711 C 390.685 362.701 391.356 353.69 392.905 344.81 C 394.461 334.14 398.685 324.136 404.688 315.465 C 408.912 309.907 414.247 305.238 420.472 302.127 C 426.92 298.791 434.7 297.235 441.593 299.458 C 445.149 300.792 448.484 302.793 451.374 305.238 C 452.485 306.128 453.375 306.794 454.264 307.907 C 455.599 309.463 456.043 311.463 456.487 313.464 C 459.378 325.914 455.376 338.587 452.263 351.035 C 450.707 358.15 449.374 365.708 452.485 372.378 C 456.71 381.493 468.048 385.272 454.264 392.832 Z" class="O" style="fill: rgb(34, 93, 147);"/>
  <linearGradient id="F" gradientUnits="userSpaceOnUse" x1="214.071" y1="158.502" x2="141.845" y2="148.222" gradientTransform="matrix(2.223163, 0, 0, 2.223163, 74.325288, 26.676361)">
    <stop offset="0"/>
    <stop offset="1" stop-opacity="0"/>
  </linearGradient>
  <path d="M 454.264 392.832 C 454.043 395.721 450.262 396.833 447.595 397.056 L 445.817 397.278 C 435.368 397.944 424.919 396.833 414.914 394.387 C 413.581 393.943 412.469 393.943 410.913 394.165 C 410.69 394.165 410.468 394.387 410.245 394.387 L 410.245 395.055 C 409.579 397.278 410.023 399.945 411.58 401.723 C 406.021 400.835 400.686 397.944 396.907 393.72 C 392.238 388.385 391.349 380.604 390.904 373.267 L 390.904 371.266 C 390.682 365.931 390.904 360.596 391.349 355.259 C 391.571 350.369 392.238 345.7 393.35 341.031 C 396.24 332.362 401.576 324.581 408.69 318.799 C 409.357 318.133 410.245 317.688 410.913 317.243 C 412.691 316.799 414.914 317.021 416.47 318.356 C 418.026 319.022 419.139 319.912 420.25 321.245 C 421.584 323.023 422.25 325.247 422.25 327.47 C 422.25 330.583 422.028 333.473 421.362 336.363 C 420.695 340.809 419.805 345.255 418.471 349.479 C 417.804 351.035 417.36 352.592 416.915 354.371 C 416.721 356.507 417.105 358.657 418.026 360.596 C 418.916 362.152 418.916 364.152 419.584 365.931 C 420.917 369.71 422.918 373.267 425.586 376.157 C 431.144 382.16 438.702 385.939 446.705 387.495 C 448.261 387.718 450.041 388.162 451.597 388.83 C 453.375 389.496 454.264 391.274 454.264 392.832 Z" fill="url(#F)" style=""/>
  <path d="M 428.031 317.021 C 430.254 319.689 433.589 321.69 437.146 321.912 C 437.814 321.912 438.257 321.912 438.702 321.468 C 439.147 321.023 439.592 320.134 439.592 319.689 C 439.814 318.133 440.036 316.355 440.036 314.798 C 440.036 313.242 440.48 310.574 440.703 309.24 C 441.148 305.016 442.704 301.014 445.372 297.902 C 445.817 297.235 446.483 296.345 447.15 296.124 C 451.597 292.122 433.589 293.678 431.366 288.342 C 428.698 291.9 428.92 296.79 427.587 301.014 C 426.697 303.015 426.03 305.238 425.586 307.462 C 424.696 310.352 425.586 313.909 428.031 317.021 Z" class="P" style="fill: rgb(193, 167, 167);"/>
  <linearGradient id="G" gradientUnits="userSpaceOnUse" x1="167.286" y1="114.46" x2="154.891" y2="141.516" gradientTransform="matrix(2.223163, 0, 0, 2.223163, 74.325288, 26.676361)">
    <stop offset="0.01"/>
    <stop offset="0.13" stop-opacity=".69"/>
    <stop offset="0.25" stop-opacity=".32"/>
    <stop offset="1" stop-opacity="0"/>
  </linearGradient>
  <path d="M 439.592 315.243 L 439.814 314.354 L 440.48 308.795 C 440.925 304.571 442.481 300.569 445.149 297.458 L 445.372 297.013 C 445.372 297.013 431.144 287.676 429.81 298.569 C 428.031 309.463 439.592 315.243 439.592 315.243 Z" fill="url(#G)" style=""/>
  <path d="M 454.486 291.01 C 454.709 293.233 454.264 295.679 453.153 297.68 C 452.485 298.569 451.819 299.236 451.152 299.681 C 445.594 303.905 436.924 303.015 431.589 298.569 C 426.252 293.678 422.918 287.231 422.918 279.895 C 422.491 276.169 423.527 272.422 425.809 269.446 C 428.698 266.778 432.7 265.667 436.479 266.555 C 441.593 267.89 446.26 270.557 450.041 274.336 C 453.375 278.117 454.264 285.675 454.486 291.01 Z" class="P" style="fill: rgb(193, 167, 167);"/>
  <path d="M 505.397 427.957 C 508.288 431.736 510.511 435.96 512.289 440.407 C 521.181 462.193 526.961 485.092 529.407 508.657 C 522.071 509.547 514.734 509.547 507.62 508.657 C 506.953 491.985 504.508 475.533 500.062 459.526 C 499.172 456.191 498.061 452.857 496.06 449.966 C 492.725 445.076 487.612 442.407 482.277 439.739 C 470.715 433.959 458.265 429.291 445.594 425.733 C 440.258 424.177 434.923 422.844 429.588 421.066 C 424.919 419.731 420.917 417.509 417.138 414.618 C 413.359 411.728 410.913 407.282 410.468 402.613 C 410.468 403.947 436.924 402.613 439.369 402.168 C 447.595 401.28 457.377 396.388 465.603 399.945 C 472.05 402.613 477.83 408.171 483.61 411.95 C 490.946 416.842 499.839 421.288 505.397 427.957 Z" class="Q" style="fill: rgb(255, 255, 255);"/>
  <path d="M 467.826 425.956 L 421.584 403.058 L 474.94 383.938 L 516.957 402.391 Z" class="O" style="fill: rgb(29, 80, 127);"/>
  <path d="M 470.048 422.399 L 431.365 403.502 L 476.051 387.273 L 511.176 402.836 Z" style="fill: rgb(63, 136, 252);"/>
  <path d="M 400.577 327.915 C 400.354 328.804 400.354 329.471 400.354 330.138 C 399.02 341.698 400.132 353.481 400.577 365.041 C 400.798 372.378 401.91 386.162 409.246 389.718 C 423.475 396.611 450.598 394.165 450.598 394.165 C 453.71 393.72 457.045 393.72 460.157 394.61 C 461.713 395.277 463.491 396.166 465.048 396.611 C 471.051 398.834 477.72 397.944 483.945 396.611 C 485.057 396.388 485.945 396.166 487.058 395.498 C 489.502 393.943 489.281 389.941 487.501 387.495 C 485.5 385.494 482.611 383.938 479.943 383.271 C 471.94 380.604 463.491 380.382 455.488 382.16 C 454.377 382.605 453.487 382.827 452.376 383.05 C 451.043 383.271 449.93 383.271 448.597 383.271 L 439.036 383.271 C 427.921 383.493 417.695 383.493 415.916 370.155 C 415.249 365.263 415.026 360.373 415.471 355.482 C 416.139 346.812 418.362 337.697 417.917 329.026 C 417.917 326.137 417.027 323.468 415.916 320.8 C 414.583 318.356 412.137 316.576 409.246 316.355 C 406.293 316.605 403.683 318.374 402.355 321.023 C 401.465 323.691 400.798 325.914 400.577 327.915 Z" class="P" style="fill: rgb(193, 167, 167);"/>
  <path d="M 534.298 360.373 L 475.607 390.831 L 467.826 425.956 L 516.957 402.391 Z" class="O" style="fill: rgb(34, 93, 147);"/>
  <path d="M 454.931 265.889 C 454.709 265.444 454.264 265.222 454.043 264.999 C 454.931 264.554 455.376 263.666 455.376 262.998 C 455.154 262.109 454.486 262.109 453.82 261.665 C 453.153 261.22 453.598 260.775 452.93 260.108 C 452.485 259.664 452.042 259.442 451.597 259.442 L 447.15 258.329 C 447.15 257.663 447.373 256.996 446.928 256.773 C 446.483 256.329 445.372 256.773 444.482 256.551 C 443.149 256.329 442.926 254.995 441.815 254.105 C 440.036 252.327 438.48 254.105 436.924 254.55 C 435.368 254.995 434.478 252.994 432.255 252.772 C 430.699 252.549 429.143 252.772 427.364 253.439 C 425.809 253.884 424.251 254.773 422.695 255.662 C 421.807 256.773 421.139 257.886 420.695 259.219 C 419.584 258.329 418.249 258.552 417.36 259.664 L 417.138 259.887 C 416.693 260.775 416.915 261.665 416.248 262.554 L 414.914 262.554 C 414.47 262.776 414.025 262.776 413.581 263.221 C 412.914 263.888 412.469 264.777 412.469 265.444 C 411.801 265.222 411.135 265.222 410.69 265.667 C 411.135 264.999 411.358 264.332 411.358 263.888 C 411.58 263.443 411.358 262.776 410.913 262.331 C 410.468 261.887 409.579 262.331 409.801 262.998 C 410.245 262.109 409.801 261.22 408.912 260.775 C 408.022 260.553 407.134 260.775 406.466 261.443 C 406.244 261.22 406.689 260.553 406.689 260.108 C 406.689 259.887 406.466 259.887 406.466 259.664 C 405.799 258.997 405.133 258.552 404.688 258.329 C 404.02 258.107 403.132 258.107 402.687 258.552 C 402.465 256.996 401.131 254.55 399.13 254.995 C 398.463 255.218 398.018 255.885 398.24 256.329 C 396.685 254.773 394.906 254.105 392.905 254.105 C 392.238 254.105 391.349 254.773 391.571 255.44 C 389.792 254.105 387.569 253.662 385.347 253.884 C 384.902 253.884 384.457 254.105 384.457 254.55 C 384.235 254.995 384.902 255.44 385.124 254.995 C 384.012 254.773 382.901 255.218 382.234 256.329 C 381.123 257.663 381.123 259.442 382.456 260.775 C 383.79 261.887 386.235 260.775 385.791 259.219 C 386.903 260.553 388.236 260.775 389.792 259.887 C 390.237 261.443 391.793 262.776 393.571 262.331 C 394.016 262.331 394.461 262.109 394.684 261.887 C 395.129 263.443 396.24 264.777 398.018 265.222 C 399.618 265.667 401.309 265.667 402.909 265.222 C 402.02 265.889 401.131 266.333 399.796 266.11 C 399.353 265.889 398.685 265.889 398.24 266.11 C 397.573 266.333 397.129 266.778 396.685 267.445 L 396.462 267.667 C 396.017 267.89 395.351 267.89 394.906 267.667 C 394.239 267.445 393.35 267.445 392.683 267.667 C 391.793 267.89 391.349 268.778 391.571 269.446 C 389.792 269.001 387.791 270.334 387.348 272.113 L 387.348 273.225 C 386.235 272.78 385.347 273.225 384.902 274.115 C 384.68 274.559 384.457 275.003 384.457 275.448 C 384.235 276.337 384.235 277.004 384.235 277.894 C 384.235 278.338 384.235 278.56 384.457 278.783 C 384.68 279.005 384.902 279.228 385.347 279.228 C 384.902 279.672 384.68 280.561 384.68 281.006 C 384.68 281.228 384.902 281.451 385.124 281.673 C 385.568 282.118 386.013 282.562 386.458 282.562 C 387.125 282.784 387.569 282.562 388.014 282.118 C 388.681 281.673 388.681 280.561 389.126 280.117 C 389.126 280.561 389.126 281.006 389.57 281.451 C 390.015 281.673 390.46 281.896 390.904 281.896 C 391.127 281.896 391.127 281.896 391.349 281.673 C 391.349 281.673 391.571 281.451 391.571 281.228 C 392.015 280.339 392.015 279.45 391.793 278.56 C 392.238 279.005 392.905 279.005 393.35 279.005 C 394.016 278.783 394.239 278.338 394.461 277.672 L 394.461 276.782 C 394.461 276.337 395.129 276.116 395.572 275.893 C 396.017 275.448 396.462 275.226 396.907 274.781 C 397.129 274.559 398.908 272.558 398.685 272.335 C 399.796 273.003 400.909 272.78 401.797 271.892 C 402.465 273.225 403.798 273.448 405.133 273.225 C 403.132 274.781 400.909 276.337 399.353 278.117 C 397.796 279.895 396.685 282.562 396.462 285.008 C 396.462 286.341 396.907 287.453 397.573 288.564 C 398.463 289.677 399.796 290.122 401.131 289.677 C 401.131 289.009 400.241 288.342 399.575 288.564 L 399.353 288.564 C 398.463 288.787 398.018 289.454 397.796 290.122 C 397.352 291.01 397.352 292.122 397.796 293.011 C 398.24 293.901 399.353 294.344 400.241 293.901 C 400.686 293.456 400.909 293.011 401.131 292.566 L 403.354 290.122 C 404.243 289.232 404.465 288.121 403.798 287.008 C 405.133 286.341 404.91 284.785 404.243 283.452 C 403.354 282.339 402.687 281.451 402.242 280.117 L 406.689 280.117 L 408.69 278.338 C 410.468 279.45 412.691 279.895 414.692 279.228 C 414.247 281.228 415.359 283.452 417.138 284.34 C 416.693 284.563 416.248 285.008 416.248 285.453 C 416.248 285.897 416.693 286.12 416.915 286.12 L 418.026 286.12 C 418.249 286.341 417.804 286.786 417.804 287.231 C 417.804 287.453 418.026 287.676 418.249 287.676 C 418.694 287.898 419.139 288.342 419.584 288.342 C 419.361 288.564 419.361 289.009 419.584 289.232 L 420.25 289.899 C 420.917 290.343 421.807 290.565 422.473 290.788 C 422.473 291.233 422.473 291.677 422.695 292.122 C 422.907 292.539 423.339 292.798 423.808 292.788 C 424.029 292.788 424.251 292.566 424.474 292.566 C 424.696 292.566 424.696 292.788 424.696 292.788 C 425.141 293.233 425.364 293.678 425.586 294.344 C 425.586 294.567 425.809 294.789 425.809 295.012 C 426.03 295.234 426.252 295.457 426.697 295.679 C 427.142 295.902 427.587 295.902 428.031 295.679 C 428.253 295.457 428.253 295.012 428.253 294.789 C 428.031 294.567 428.031 294.123 427.809 293.901 C 428.031 293.901 428.253 293.901 428.475 293.678 L 428.475 293.011 C 428.253 292.344 427.809 291.9 427.364 291.455 L 427.364 291.233 C 427.364 291.233 427.364 291.01 427.587 291.01 C 428.031 290.565 427.587 289.899 427.364 289.454 C 427.142 289.009 426.697 288.342 426.92 287.898 C 427.142 287.676 427.142 287.453 427.364 287.231 C 427.587 287.008 427.587 286.341 427.809 286.12 C 428.031 285.897 428.475 286.12 428.698 286.341 C 428.92 286.564 428.92 287.008 429.143 287.231 C 429.588 287.676 430.031 287.898 430.476 288.342 C 430.699 288.564 431.144 289.009 431.366 289.454 C 431.589 289.899 432.255 289.899 432.7 289.677 C 432.922 289.454 433.144 289.232 433.144 289.009 C 433.144 288.342 432.922 287.898 432.477 287.453 L 432.032 287.008 C 431.811 286.786 431.811 286.564 432.032 286.341 C 432.255 286.341 432.477 286.341 432.477 286.12 L 432.477 285.897 C 432.477 285.675 432.255 285.453 432.255 285.453 L 432.032 285.23 L 432.032 285.008 C 432.255 284.563 432.477 284.34 432.7 283.897 C 432.922 283.229 432.7 282.562 432.255 282.339 C 433.144 283.007 434.255 282.784 434.923 281.896 C 435.59 281.006 436.034 280.339 436.479 279.45 C 437.146 279.895 438.035 279.895 438.257 279.228 C 438.702 278.56 438.702 277.672 438.035 277.449 L 437.369 277.449 C 438.035 277.672 438.48 277.894 438.925 278.117 C 439.592 278.117 440.258 277.894 440.48 277.449 C 440.925 276.782 440.703 275.671 441.37 275.003 L 444.705 277.449 C 446.705 278.117 448.929 277.004 449.596 275.003 L 449.596 274.781 C 450.707 275.448 451.819 275.671 453.153 275.226 C 454.264 274.336 454.486 273.225 454.043 272.113 C 455.376 271.892 456.265 270.779 456.265 269.668 C 455.599 267.223 455.376 266.555 454.931 265.889 Z M 513.4 531.556 C 513.4 531.556 515.401 535.781 529.629 533.335 C 543.858 531.112 550.305 526.665 550.973 524.221 C 552.25 526.16 551.515 528.783 549.415 529.778 C 545.859 531.779 532.298 541.116 515.624 535.336 C 515.624 535.558 513.623 535.113 513.4 531.556 Z" fill="#473f47" style=""/>
  <path d="M 424.474 283.674 C 424.251 283.674 423.808 283.674 423.585 283.897 C 422.473 284.563 422.028 285.675 422.028 287.008 C 422.25 288.342 422.695 289.232 423.585 290.343 C 424.029 290.788 424.474 291.233 424.919 291.455 C 425.586 291.677 426.475 291.9 426.92 291.9 L 427.809 291.9 C 428.475 291.677 428.698 291.01 428.698 290.343 C 428.92 288.787 428.475 287.453 427.809 285.897 C 427.587 285.453 427.142 285.008 426.697 284.785 C 426.252 284.34 425.586 283.897 424.474 283.674 Z" class="P" style="fill: rgb(193, 167, 167);"/>
  <path d="M 409.801 267.667 C 408.912 269.891 408.467 272.558 408.467 275.226 C 408.245 276.782 408.467 277.894 408.912 279.228 C 409.357 280.117 410.023 280.783 410.468 281.451 C 411.801 281.673 412.914 281.006 413.802 280.117 C 414.025 279.895 414.247 279.672 414.247 279.228 C 414.47 278.338 414.025 277.672 413.359 277.004 C 412.024 274.781 411.801 271.892 412.469 269.223 C 412.914 267.667 415.359 264.109 412.024 264.554 C 411.358 264.999 410.245 266.333 409.801 267.667 Z M 453.153 573.574 L 451.152 573.574 C 450.296 573.574 449.761 572.648 450.189 571.908 C 450.388 571.563 450.755 571.351 451.152 571.351 L 453.153 571.351 C 454.009 571.351 454.544 572.277 454.116 573.019 C 453.916 573.362 453.55 573.574 453.153 573.574 Z M 463.602 573.574 C 462.746 573.574 462.211 572.648 462.639 571.908 C 462.837 571.563 463.205 571.351 463.602 571.351 L 465.603 571.351 C 466.459 571.351 466.993 572.277 466.565 573.019 C 466.366 573.362 466 573.574 465.603 573.574 L 463.602 573.574 Z M 440.703 573.352 L 438.702 573.352 C 438.072 573.393 437.549 572.87 437.591 572.241 C 437.549 571.61 438.072 571.087 438.702 571.128 L 440.703 571.128 C 441.559 571.128 442.094 572.055 441.666 572.796 C 441.467 573.14 441.1 573.352 440.703 573.352 Z M 476.052 573.352 C 475.196 573.352 474.661 572.425 475.089 571.685 C 475.287 571.34 475.654 571.128 476.052 571.128 L 478.053 571.128 C 478.907 571.128 479.443 572.055 479.015 572.796 C 478.816 573.14 478.449 573.352 478.053 573.352 L 476.052 573.352 Z M 428.253 572.685 L 426.252 572.463 C 425.586 572.463 425.141 571.796 425.141 571.351 C 425.099 570.721 425.622 570.198 426.252 570.24 L 428.253 570.462 C 428.884 570.421 429.407 570.944 429.365 571.573 C 429.143 572.241 428.92 572.685 428.253 572.685 Z M 488.5 572.685 C 487.646 572.685 487.111 571.759 487.539 571.018 C 487.737 570.674 488.104 570.462 488.5 570.462 L 490.501 570.24 C 491.357 570.24 491.892 571.166 491.464 571.908 C 491.266 572.251 490.899 572.463 490.501 572.463 L 488.5 572.685 Z M 415.803 571.796 L 413.802 571.573 C 413.136 571.573 412.691 570.907 412.691 570.462 C 412.691 569.795 413.359 569.35 414.025 569.572 L 416.025 569.795 C 416.656 569.753 417.179 570.276 417.138 570.907 C 416.915 571.573 416.47 571.796 415.803 571.796 Z M 500.95 571.796 C 500.096 571.796 499.56 570.869 499.988 570.128 C 500.187 569.784 500.554 569.572 500.95 569.572 L 502.951 569.35 C 503.619 569.35 504.064 569.795 504.064 570.24 C 504.064 570.907 503.619 571.351 503.174 571.351 L 500.95 571.796 Z M 403.354 570.907 L 401.131 570.685 C 400.464 570.685 400.019 570.017 400.241 569.35 C 400.464 568.684 400.909 568.239 401.576 568.461 L 403.577 568.684 C 404.207 568.642 404.729 569.165 404.688 569.795 C 404.688 570.462 404.02 570.907 403.354 570.907 Z M 513.623 570.907 C 512.767 570.907 512.232 569.981 512.66 569.239 C 512.859 568.896 513.226 568.684 513.623 568.684 L 515.624 568.461 C 516.291 568.461 516.736 568.906 516.957 569.35 C 516.957 570.017 516.513 570.462 516.069 570.685 L 514.068 570.907 L 513.623 570.907 Z M 390.904 569.35 L 388.681 569.127 C 388.014 569.127 387.569 568.461 387.791 567.794 C 388.014 567.127 388.459 566.683 389.126 566.905 L 391.127 567.127 C 391.793 567.127 392.238 567.794 392.015 568.239 C 391.793 568.684 391.349 569.127 390.904 569.35 Z M 525.85 569.35 C 524.994 569.35 524.46 568.424 524.888 567.683 C 525.087 567.339 525.453 567.127 525.85 567.127 L 527.851 566.905 C 528.518 566.905 528.962 567.127 529.185 567.794 C 529.185 568.461 528.962 568.906 528.296 569.127 L 525.85 569.35 Z M 378.677 567.572 L 376.454 567.127 C 375.786 567.127 375.343 566.461 375.343 566.016 C 375.343 565.348 376.009 564.905 376.454 564.905 L 376.676 564.905 L 378.677 565.348 C 379.344 565.348 379.788 566.016 379.566 566.683 C 379.344 567.127 378.899 567.349 378.677 567.572 Z M 538.3 567.572 C 537.444 567.572 536.909 566.645 537.337 565.905 C 537.535 565.56 537.903 565.348 538.3 565.348 L 540.301 564.905 C 540.968 564.905 541.412 565.126 541.634 565.793 C 541.634 566.461 541.412 566.905 540.746 567.127 L 538.3 567.572 Z M 366.45 565.348 L 364.226 564.905 C 363.559 564.682 363.336 564.237 363.336 563.57 C 363.336 562.904 364.004 562.681 364.671 562.681 L 366.672 563.125 C 367.338 563.347 367.561 563.792 367.561 564.46 C 367.338 564.905 366.894 565.126 366.45 564.905 L 366.45 565.348 Z M 550.528 565.348 C 550.083 565.348 549.638 564.905 549.415 564.46 C 549.415 563.792 549.638 563.347 550.305 563.125 L 552.306 562.681 C 552.973 562.681 553.417 562.904 553.639 563.57 C 553.862 564.237 553.417 564.682 552.973 564.905 L 550.973 565.348 L 550.528 565.348 Z M 354 562.681 L 351.776 562.236 C 351.11 562.014 350.665 561.569 350.888 560.903 C 351.11 560.236 351.554 559.791 352.221 560.013 L 354.222 560.458 C 354.889 560.68 355.112 561.124 355.112 561.791 C 354.889 562.236 354.445 562.681 354 562.681 Z M 562.533 562.459 C 561.865 562.459 561.42 562.014 561.42 561.569 C 561.42 560.903 561.865 560.458 562.31 560.458 L 564.311 560.013 C 564.978 559.791 565.422 560.236 565.644 560.903 C 565.867 561.569 565.422 562.014 564.756 562.236 L 562.533 562.459 Z M 341.772 559.568 L 339.549 559.123 C 338.883 558.901 338.66 558.235 338.66 557.79 C 338.883 557.122 339.549 556.9 339.994 556.9 L 341.995 557.567 C 342.662 557.79 342.884 558.235 342.884 558.901 C 342.662 559.346 342.44 559.568 341.772 559.568 Z M 574.76 559.568 C 574.093 559.568 573.648 559.123 573.425 558.68 C 573.204 558.235 573.87 557.567 574.315 557.345 L 576.316 556.9 C 576.983 556.679 577.649 557.122 577.649 557.79 C 577.649 558.457 577.427 559.123 576.761 559.123 L 574.76 559.568 Z M 329.767 556.234 L 327.544 555.567 C 326.878 555.344 326.655 554.899 326.878 554.233 C 327.099 553.566 327.766 553.343 328.211 553.566 L 330.212 554.233 C 330.879 554.233 331.323 554.899 331.101 555.567 C 331.101 556.011 330.435 556.456 329.767 556.234 Z M 586.765 556.234 C 586.32 556.234 585.875 556.011 585.653 555.344 C 585.43 554.678 585.875 554.233 586.32 554.011 L 588.321 553.343 C 588.988 553.121 589.433 553.566 589.654 554.011 C 589.877 554.678 589.433 555.122 588.988 555.344 L 586.765 556.234 Z M 317.985 552.455 L 317.54 552.455 L 315.539 551.787 C 314.871 551.565 314.65 551.12 314.65 550.454 C 314.65 549.786 315.316 549.564 315.984 549.564 L 316.206 549.564 L 317.985 550.231 C 318.652 550.454 318.873 551.12 318.652 551.565 C 318.652 552.01 318.207 552.232 317.985 552.455 Z M 598.77 552.232 C 598.139 552.274 597.616 551.751 597.658 551.12 C 597.658 550.676 597.88 550.231 598.548 550.009 L 600.326 549.342 C 600.771 549.119 601.438 549.342 601.659 550.009 C 601.882 550.676 601.438 551.12 600.993 551.342 L 598.77 552.232 Z M 306.202 548.231 L 305.757 548.231 L 303.979 547.341 C 303.311 547.118 303.089 546.452 303.311 546.007 C 303.534 545.34 304.201 545.117 304.646 545.34 L 306.425 546.23 C 307.091 546.452 307.313 547.118 307.091 547.563 C 307.091 548.008 306.647 548.453 306.202 548.231 Z M 610.553 548.231 C 610.086 548.238 609.654 547.979 609.442 547.563 C 609.219 546.896 609.442 546.452 610.108 546.23 L 611.886 545.34 C 612.554 545.117 612.998 545.34 613.221 546.007 C 613.443 546.675 613.221 547.118 612.554 547.341 L 610.553 548.231 Z M 294.863 543.561 L 294.42 543.561 L 292.64 542.673 C 292.196 542.451 291.751 541.783 291.974 541.338 C 292.196 540.672 292.862 540.45 293.53 540.893 L 295.308 541.783 C 295.975 542.006 296.198 542.673 295.753 543.339 C 295.308 543.339 295.086 543.561 294.863 543.561 Z M 621.89 543.339 C 621.423 543.348 620.991 543.089 620.779 542.673 C 620.557 542.228 620.779 541.561 621.224 541.338 L 623.003 540.45 C 623.448 540.227 624.114 540.45 624.559 540.893 C 624.781 541.561 624.559 542.006 624.114 542.451 L 622.335 543.339 L 621.89 543.339 Z M 283.525 538.226 L 283.081 538.226 L 281.302 537.114 C 280.857 536.892 280.635 536.226 280.857 535.558 C 281.08 535.113 281.747 534.891 282.192 535.113 L 283.97 536.226 C 284.415 536.448 284.636 537.114 284.415 537.559 C 284.193 538.004 283.748 538.226 283.525 538.226 Z M 633.229 538.004 C 632.562 538.226 632.117 537.781 631.894 537.114 C 631.673 536.448 632.117 536.003 632.784 535.781 L 634.563 534.668 C 635.008 534.447 635.675 534.668 636.119 535.113 C 636.341 535.558 636.119 536.226 635.675 536.67 L 633.895 537.781 C 633.674 537.781 633.452 537.781 633.229 538.004 Z M 272.409 532.224 C 272.188 532.224 271.965 532.224 271.743 532.001 L 270.187 530.889 C 269.742 530.445 269.52 529.778 269.965 529.333 C 270.187 528.888 270.853 528.666 271.298 529.111 L 272.854 530.223 C 273.299 530.445 273.521 531.112 273.299 531.779 C 273.299 532.001 272.854 532.001 272.409 532.224 Z M 644.122 531.779 C 643.678 531.779 643.456 531.556 643.233 531.334 C 643.011 530.889 643.011 530.223 643.678 529.778 L 645.234 528.666 C 645.679 528.445 646.345 528.666 646.79 529.111 C 647.013 529.556 646.79 530.223 646.345 530.445 L 644.789 531.556 C 644.567 531.779 644.344 531.779 644.122 531.779 Z M 262.184 525.109 C 261.961 525.109 261.739 525.109 261.516 524.887 L 259.96 523.553 C 259.515 523.108 259.293 522.442 259.738 521.997 C 259.96 521.552 260.626 521.33 261.071 521.552 L 261.294 521.775 L 262.85 523.108 C 263.295 523.553 263.517 524.221 263.072 524.664 C 262.627 525.109 262.627 525.109 262.184 525.109 Z M 654.571 524.887 C 653.941 524.928 653.418 524.405 653.46 523.776 C 653.46 523.331 653.682 523.108 653.905 522.886 L 655.461 521.552 C 655.906 521.107 656.572 521.33 657.017 521.775 C 657.462 522.22 657.239 522.886 656.794 523.331 C 656.127 523.776 655.683 524.221 655.238 524.664 C 655.016 524.887 654.793 524.887 654.571 524.887 Z M 252.401 517.328 C 252.178 517.328 251.957 517.106 251.735 517.106 L 249.956 515.772 C 249.511 515.327 249.511 514.66 249.956 514.216 C 250.4 513.771 251.067 513.771 251.512 514.216 L 253.068 515.772 C 253.513 516.217 253.513 516.883 253.291 517.328 L 252.401 517.328 Z M 664.353 516.883 C 664.018 516.829 663.709 516.673 663.464 516.44 C 663.019 515.995 663.019 515.327 663.464 514.882 L 665.02 513.327 C 665.465 512.882 666.132 512.882 666.576 513.327 C 667.021 513.771 667.021 514.439 666.576 514.882 L 666.576 515.105 L 665.02 516.661 C 664.575 516.883 664.353 516.883 664.353 516.883 Z M 243.509 508.657 C 243.174 508.603 242.865 508.447 242.619 508.214 L 241.063 506.657 C 240.618 506.213 240.618 505.546 241.063 505.101 C 241.508 504.656 242.174 504.878 242.619 505.323 L 243.954 506.879 C 244.397 507.324 244.397 507.991 243.954 508.435 C 243.954 508.657 243.731 508.657 243.509 508.657 Z M 673.023 508.214 C 672.394 508.255 671.871 507.733 671.912 507.102 C 671.912 506.879 671.912 506.657 672.135 506.434 L 673.468 504.878 C 673.913 504.433 674.579 504.433 675.024 504.656 C 675.469 505.101 675.469 505.768 675.247 506.213 L 673.691 507.769 C 673.468 507.991 673.468 508.214 673.023 508.214 Z M 236.172 498.431 C 235.728 498.431 235.505 498.21 235.283 497.987 L 234.171 496.209 C 233.95 495.764 234.171 495.097 234.616 494.652 C 235.061 494.429 235.728 494.652 235.95 495.097 C 236.394 495.764 236.616 496.43 237.061 496.875 C 237.284 497.32 237.284 497.987 236.616 498.431 L 236.172 498.431 Z M 680.138 497.987 C 679.916 497.987 679.693 497.987 679.471 497.765 C 679.026 497.542 678.804 496.875 679.026 496.209 C 679.471 495.541 679.693 494.874 680.138 494.429 C 680.359 493.986 681.027 493.763 681.694 493.986 C 682.139 494.208 682.36 494.874 682.139 495.541 C 681.694 496.209 681.472 496.875 681.027 497.32 C 681.027 497.765 680.582 497.987 680.138 497.987 Z M 230.836 487.093 C 230.369 487.102 229.937 486.843 229.725 486.426 L 229.058 484.425 C 228.836 483.759 229.28 483.092 229.947 483.092 C 230.614 482.869 231.281 483.314 231.281 483.981 L 231.949 485.76 C 232.17 486.426 231.949 486.871 231.281 487.093 L 230.836 487.093 Z M 685.473 486.871 C 684.584 486.648 684.362 485.982 684.584 485.537 L 685.251 483.759 C 685.473 483.092 686.141 482.869 686.584 482.869 C 687.252 483.092 687.474 483.759 687.474 484.203 L 686.807 486.203 C 686.363 486.648 685.918 486.871 685.473 486.871 Z M 228.613 475.088 C 227.983 475.13 227.46 474.607 227.502 473.977 L 227.502 471.976 C 227.46 471.345 227.983 470.822 228.613 470.864 C 229.244 470.822 229.767 471.345 229.725 471.976 L 229.725 473.977 C 229.767 474.607 229.244 475.13 228.613 475.088 Z M 687.697 474.421 C 687.029 474.421 686.584 473.755 686.584 473.31 L 686.584 471.309 C 686.584 470.453 687.511 469.918 688.252 470.346 C 688.596 470.545 688.808 470.912 688.808 471.309 L 688.808 473.31 C 688.849 473.939 688.326 474.462 687.697 474.421 Z M 687.697 469.308 C 687.066 469.35 686.543 468.827 686.584 468.196 C 686.584 467.53 686.584 466.64 686.363 466.195 C 686.363 465.529 686.807 465.084 687.474 464.862 C 688.142 464.862 688.585 465.306 688.585 465.751 C 688.585 466.417 688.808 467.307 688.808 467.752 C 688.808 468.641 688.364 469.308 687.697 469.308 Z M 229.725 462.638 C 228.836 462.638 228.613 461.971 228.613 461.305 C 228.836 460.637 229.058 459.749 229.058 459.304 C 229.28 458.637 229.725 458.414 230.391 458.414 C 231.059 458.637 231.281 459.082 231.059 459.749 C 230.836 460.415 230.614 461.082 230.614 461.527 C 230.391 462.416 229.947 462.638 229.725 462.638 Z M 685.251 457.303 C 684.784 457.311 684.352 457.052 684.14 456.636 L 683.473 454.857 C 683.25 454.19 683.473 453.746 684.14 453.524 C 684.806 453.301 685.251 453.524 685.473 454.19 C 685.696 454.857 685.918 455.525 686.363 456.191 C 686.584 456.858 686.363 457.303 685.696 457.526 C 685.473 457.303 685.251 457.303 685.251 457.303 Z M 233.727 451.078 L 233.282 451.078 C 232.837 450.856 232.615 450.188 232.837 449.745 C 233.06 449.077 233.505 448.41 233.95 447.965 C 234.171 447.521 234.838 447.299 235.505 447.521 C 235.95 447.744 236.172 448.41 235.95 449.077 L 235.061 450.856 C 234.393 450.856 234.171 451.078 233.727 451.078 Z M 679.916 445.964 C 679.471 445.964 679.248 445.743 679.026 445.521 L 677.915 443.963 C 677.47 443.52 677.693 442.852 678.137 442.407 C 678.581 442.185 679.248 442.185 679.693 442.63 L 680.804 444.408 C 681.027 444.853 681.027 445.521 680.359 445.964 L 679.916 445.964 Z M 240.396 440.407 C 240.173 440.407 239.952 440.407 239.73 440.184 C 239.285 439.739 239.062 439.073 239.507 438.628 L 240.841 437.072 C 241.286 436.627 241.953 436.627 242.397 437.072 C 242.788 437.403 242.882 437.967 242.619 438.406 L 241.286 439.962 C 240.841 440.407 240.618 440.629 240.396 440.407 Z M 672.579 435.96 C 672.244 435.905 671.935 435.749 671.69 435.516 C 671.245 435.072 670.8 434.404 670.134 433.959 C 669.689 433.516 669.689 432.848 670.134 432.403 C 670.578 431.958 671.245 431.958 671.69 432.403 L 673.246 433.959 C 673.691 434.404 673.691 435.072 673.246 435.516 C 673.023 435.96 672.801 435.96 672.579 435.96 Z M 248.621 431.07 C 247.992 431.111 247.469 430.588 247.51 429.958 C 247.51 429.735 247.51 429.291 247.733 429.291 L 249.289 427.734 C 249.734 427.291 250.4 427.291 250.845 427.734 C 251.29 428.179 251.29 428.847 250.845 429.291 L 249.289 430.847 C 249.289 431.07 248.844 431.07 248.621 431.07 Z M 663.687 427.291 C 663.464 427.291 663.242 427.291 663.019 427.068 L 661.463 425.733 C 661.018 425.29 661.018 424.622 661.241 424.177 C 661.686 423.733 662.352 423.733 662.797 423.955 L 664.353 425.512 C 664.798 425.956 664.798 426.623 664.353 427.068 C 664.132 427.068 663.687 427.291 663.687 427.291 Z M 257.96 422.844 C 257.329 422.886 256.806 422.363 256.847 421.732 C 256.903 421.397 257.058 421.088 257.292 420.843 L 258.848 419.51 C 259.293 419.065 259.96 419.287 260.404 419.731 C 260.849 420.176 260.626 420.843 260.183 421.288 L 258.626 422.622 C 258.403 422.844 258.182 422.844 257.96 422.844 Z M 653.905 419.287 C 653.682 419.287 653.46 419.287 653.238 419.065 L 651.682 417.73 C 651.237 417.286 651.014 416.619 651.459 416.174 C 651.904 415.729 652.57 415.507 653.015 415.952 L 654.571 417.286 C 655.016 417.73 655.238 418.397 654.793 418.842 C 654.349 419.287 653.905 419.287 653.905 419.287 Z M 268.186 415.507 C 267.555 415.55 267.032 415.027 267.074 414.396 C 267.074 413.951 267.296 413.728 267.519 413.506 L 269.075 412.395 C 269.52 412.172 270.187 412.172 270.631 412.84 C 271.076 413.506 270.853 413.951 270.187 414.396 L 268.63 415.507 L 268.186 415.507 Z M 643.456 412.617 C 643.233 412.617 643.011 412.617 643.011 412.395 L 641.233 411.284 C 640.788 411.061 640.565 410.394 640.788 409.727 C 641.01 409.283 641.677 409.061 642.344 409.283 L 644.122 410.394 C 644.567 410.617 644.789 411.284 644.567 411.95 C 644.122 412.395 643.678 412.617 643.456 412.617 Z M 278.856 409.283 C 278.227 409.325 277.704 408.802 277.745 408.171 C 277.745 407.726 277.968 407.282 278.412 407.282 L 280.191 406.17 C 280.635 405.948 281.525 406.17 281.747 406.615 C 281.97 407.06 281.747 407.948 281.302 408.171 L 279.524 409.283 C 279.079 409.061 278.856 409.283 278.856 409.283 Z M 632.339 406.615 C 632.117 406.615 631.894 406.615 631.894 406.392 L 630.116 405.503 C 629.672 405.281 629.45 404.614 629.672 404.169 C 629.894 403.724 630.561 403.281 631.228 403.724 L 633.007 404.837 C 633.452 405.059 633.674 405.725 633.452 406.392 C 633.007 406.392 632.784 406.615 632.339 406.615 Z M 289.973 403.502 C 289.528 403.502 289.083 403.281 289.083 402.836 C 288.861 402.391 289.083 401.723 289.528 401.28 L 291.306 400.39 C 291.974 400.167 292.419 400.612 292.64 401.057 C 292.862 401.501 292.64 402.168 292.196 402.391 L 290.418 403.281 C 290.418 403.502 290.195 403.502 289.973 403.502 Z M 621.224 401.28 L 620.779 401.28 L 619.001 400.39 C 618.556 400.167 618.111 399.5 618.556 398.834 C 618.778 398.389 619.446 398.167 619.889 398.167 L 621.669 399.056 C 622.335 399.279 622.558 399.723 622.558 400.39 C 622.113 401.28 621.669 401.501 621.224 401.28 Z M 301.533 398.612 C 301.066 398.619 300.634 398.36 300.422 397.944 C 300.2 397.278 300.422 396.833 301.088 396.611 L 302.866 395.721 C 303.534 395.498 303.979 395.721 304.201 396.388 C 304.424 396.833 304.201 397.499 303.534 397.722 L 301.533 398.612 Z M 609.663 396.388 L 609.219 396.388 L 607.441 395.498 C 606.773 395.277 606.551 394.832 606.551 394.165 C 606.551 393.498 607.218 393.276 607.884 393.276 L 608.107 393.276 L 609.885 394.165 C 610.553 394.387 610.775 395.055 610.553 395.498 C 610.33 395.943 609.885 396.166 609.663 396.388 Z M 313.093 394.165 C 312.626 394.174 312.194 393.915 311.982 393.498 C 311.76 392.832 311.982 392.387 312.649 392.164 L 314.65 391.497 C 315.316 391.274 315.761 391.497 315.984 392.164 C 316.206 392.832 315.761 393.276 315.316 393.498 L 313.538 394.165 L 313.093 394.165 Z M 597.88 392.164 L 597.437 392.164 L 595.657 391.497 C 594.991 391.274 594.768 390.608 594.991 389.941 C 595.213 389.273 595.879 389.052 596.547 389.273 L 598.548 389.941 C 599.215 390.163 599.437 390.831 599.215 391.274 C 598.548 391.719 598.325 392.164 597.88 392.164 Z M 324.876 389.941 C 324.21 389.941 323.765 389.718 323.542 389.052 C 323.542 388.385 323.765 387.94 324.432 387.718 L 326.433 387.051 C 327.099 386.829 327.544 387.273 327.766 387.718 C 327.989 388.385 327.766 388.83 327.099 389.052 L 324.876 389.941 Z M 585.875 388.385 L 583.652 387.718 C 582.986 387.495 582.763 386.829 582.986 386.162 C 583.208 385.494 583.652 385.272 584.319 385.494 L 586.32 386.162 C 586.988 386.384 587.21 386.829 586.988 387.495 C 586.765 388.162 586.32 388.385 585.875 388.385 Z M 336.882 386.384 C 336.215 386.384 335.77 386.162 335.547 385.494 C 335.547 384.828 335.77 384.383 336.437 384.161 L 338.438 383.493 C 339.104 383.493 339.549 383.938 339.771 384.383 C 339.771 384.828 339.549 385.494 339.104 385.717 L 336.882 386.384 Z M 573.87 385.051 L 571.647 384.606 C 570.981 384.383 570.758 383.938 570.758 383.271 C 570.981 382.605 571.425 382.382 572.092 382.382 L 574.093 382.827 C 574.76 382.827 575.205 383.493 574.983 384.161 C 574.76 384.828 574.538 385.272 573.87 385.051 Z M 349.108 383.271 C 348.442 383.271 347.997 382.827 347.775 382.382 C 347.775 381.715 348.22 381.27 348.664 381.049 L 350.665 380.604 C 351.331 380.382 351.999 380.827 351.999 381.493 C 351.999 382.16 351.776 382.827 351.11 382.827 L 349.108 383.271 Z M 561.865 382.16 L 559.642 381.715 C 558.976 381.493 558.753 381.049 558.753 380.382 C 558.753 379.714 559.42 379.492 560.087 379.492 L 562.088 379.937 C 562.755 379.937 563.199 380.604 563.199 381.049 C 562.755 381.938 562.533 382.382 561.865 382.16 Z M 361.336 380.604 C 360.892 380.604 360.447 380.159 360.225 379.714 C 360.002 379.048 360.447 378.603 361.114 378.381 L 363.115 377.936 C 363.781 377.936 364.226 378.158 364.449 378.826 C 364.671 379.492 364.226 379.937 363.559 380.159 L 361.336 380.604 Z M 549.638 379.492 L 547.414 379.048 C 546.748 378.826 546.526 378.381 546.526 377.713 C 546.748 377.047 547.192 376.825 547.859 376.825 L 549.86 377.268 C 550.528 377.491 550.75 377.936 550.75 378.603 C 550.528 379.269 549.86 379.492 549.638 379.492 Z M 373.563 378.381 C 372.708 378.381 372.174 377.454 372.6 376.713 C 372.799 376.37 373.166 376.157 373.563 376.157 L 375.564 375.713 C 376.231 375.713 376.676 375.935 376.899 376.602 C 376.899 377.268 376.676 377.713 376.009 377.936 L 373.563 378.381 Z M 537.188 377.491 L 534.965 377.047 C 534.298 377.047 533.854 376.38 534.076 375.713 C 534.298 375.046 534.743 374.602 535.409 374.824 L 537.41 375.046 C 538.078 375.268 538.523 375.713 538.3 376.38 C 538.342 377.01 537.819 377.533 537.188 377.491 Z M 386.013 376.38 C 385.347 376.38 384.902 375.935 384.902 375.49 C 384.86 374.86 385.383 374.337 386.013 374.379 L 388.014 374.157 C 388.681 374.157 389.126 374.379 389.349 375.046 C 389.349 375.713 388.904 376.157 388.459 376.38 L 386.013 376.38 Z M 524.96 375.713 L 522.738 375.49 C 522.071 375.49 521.626 374.824 521.849 374.157 C 521.849 373.489 522.516 373.046 522.96 373.267 L 524.96 373.489 C 525.628 373.489 526.073 374.157 525.85 374.602 C 525.85 375.268 525.405 375.713 524.96 375.713 C 524.739 375.713 524.739 375.713 524.96 375.713 Z M 512.512 374.157 L 510.511 373.934 C 509.844 373.934 509.399 373.267 509.621 372.601 C 509.621 371.933 510.288 371.488 510.955 371.711 L 512.955 371.933 C 513.811 371.933 514.346 372.86 513.918 373.601 C 513.72 373.945 513.353 374.157 512.955 374.157 L 512.512 374.157 Z M 500.062 372.823 L 498.061 372.601 C 497.394 372.601 496.949 371.933 496.949 371.488 C 496.949 370.822 497.616 370.377 498.061 370.377 L 500.062 370.6 C 500.691 370.558 501.214 371.081 501.173 371.711 C 500.95 372.601 500.728 372.823 500.062 372.823 Z M 487.612 372.156 L 485.611 372.156 C 484.944 372.156 484.499 371.488 484.499 371.045 C 484.499 370.377 485.166 369.933 485.611 369.933 L 487.612 370.155 C 488.242 370.113 488.765 370.636 488.723 371.266 C 488.723 371.933 488.057 372.378 487.612 372.156 Z M 474.94 371.488 L 472.939 371.488 C 472.309 371.53 471.786 371.007 471.828 370.377 C 471.786 369.746 472.309 369.223 472.939 369.265 L 474.94 369.265 C 475.796 369.265 476.33 370.191 475.902 370.933 C 475.704 371.276 475.336 371.488 474.94 371.488 Z M 462.49 371.266 L 460.489 371.266 C 459.634 371.266 459.098 370.34 459.526 369.599 C 459.725 369.255 460.092 369.043 460.489 369.043 L 462.49 369.043 C 463.121 369.001 463.644 369.524 463.602 370.155 C 463.644 370.786 463.121 371.308 462.49 371.266 Z" class="O" style="fill: rgb(29, 80, 127);"/>
  <circle cx="222.611" cy="458.192" r="40.684" class="Q" style="fill: rgb(255, 255, 255);"/>
  <path d="M 217.942 453.079 L 242.397 453.079 L 242.397 462.638 L 217.942 462.638 L 217.942 469.976 L 229.503 469.976 L 229.503 475.311 L 217.942 475.311 L 217.942 483.536 L 207.049 483.536 L 207.049 475.311 L 202.157 475.311 L 202.157 469.976 L 207.049 469.976 L 207.049 432.848 L 242.841 432.848 L 242.841 442.407 L 219.054 442.407 C 218.164 442.407 217.72 442.63 217.72 443.742 L 217.72 451.967 L 217.942 453.079 Z" class="O" style="fill: rgb(29, 80, 127);"/>
  <circle cx="331.546" cy="365.931" r="40.684" class="Q" style="fill: rgb(255, 255, 255);"/>
  <path d="M 358.224 351.48 L 348.664 356.372 C 345.106 350.814 340.216 347.923 333.546 348.813 C 328.434 349.479 323.987 352.815 321.541 357.26 L 340.884 357.26 L 340.884 363.263 L 319.763 363.263 L 319.763 368.377 L 340.884 368.377 L 340.884 374.379 L 321.319 374.379 C 323.542 379.269 327.989 382.382 333.101 383.05 C 339.326 384.383 345.551 381.27 348.442 375.49 L 358.224 380.382 C 356.89 381.938 356 383.493 354.889 385.051 C 350.22 390.386 343.551 393.498 336.659 393.498 C 331.101 393.72 325.543 392.164 320.653 389.496 C 315.316 386.607 311.315 381.493 309.314 375.713 C 308.869 374.602 308.425 374.157 307.313 374.157 L 304.867 374.157 L 304.867 368.154 L 307.536 368.154 L 307.536 363.04 L 304.867 363.04 L 304.867 356.817 L 307.98 356.817 C 308.648 357.038 309.091 356.594 309.314 355.927 C 310.87 351.703 313.316 347.701 316.651 344.81 C 319.763 341.921 323.765 339.92 327.989 338.808 C 332.213 337.697 336.437 337.252 340.661 337.919 C 346.886 338.808 352.444 342.143 356 347.033 C 356.89 348.146 357.556 349.034 358.001 349.924 C 358.001 351.035 358.224 351.258 358.224 351.48 Z" class="O" style="fill: rgb(29, 80, 127);"/>
  <circle transform="matrix(0.266902, -0.963724, 0.963724, 0.266902, 378.370364, 553.583659)" cx="231.9" cy="155.1" r="40.684" class="Q" style="fill: rgb(255, 255, 255);"/>
  <path d="M 574.983 398.612 L 571.203 390.831 C 572.314 390.163 572.982 389.718 574.093 389.273 C 576.538 387.718 578.762 385.494 579.65 382.827 C 580.095 381.049 579.873 378.826 578.984 377.047 C 578.984 376.825 578.317 376.602 578.094 376.602 L 569.424 376.602 L 569.424 370.155 L 574.538 370.155 C 573.648 368.599 572.982 367.264 572.314 365.708 C 570.536 361.484 570.758 356.594 573.648 352.592 C 576.538 348.146 580.985 345.255 585.875 344.367 C 591.212 343.032 596.992 343.699 601.882 346.145 C 604.995 347.701 607.441 350.369 609.219 353.481 L 600.326 358.372 C 599.659 357.26 598.77 356.372 598.103 355.259 C 595.879 353.036 592.545 352.147 589.654 353.258 C 585.653 354.148 582.986 358.15 583.874 361.929 L 584.542 363.708 C 585.43 365.486 586.32 367.487 587.431 369.043 C 587.654 369.265 588.099 369.488 588.543 369.488 L 599.215 369.488 L 599.215 375.935 L 590.322 375.935 C 590.767 379.937 588.988 383.716 585.653 385.939 L 587.21 385.717 C 590.099 385.494 592.99 385.939 595.436 387.273 C 598.561 388.826 602.309 388.39 604.995 386.162 C 605.44 385.717 605.884 385.494 606.106 385.051 L 610.553 393.943 C 609.176 395.335 607.505 396.399 605.661 397.056 C 601.438 398.612 596.992 398.612 592.99 397.056 C 591.655 396.611 590.544 396.166 589.433 395.498 C 586.098 393.943 582.319 393.943 578.984 395.721 L 574.983 398.612 Z" class="O" style="fill: rgb(29, 80, 127);"/>
  <circle cx="663.687" cy="513.549" r="40.684" class="Q" style="fill: rgb(255, 255, 255);"/>
  <path d="M 663.687 508.88 L 666.354 504.433 L 674.802 490.206 C 675.024 489.539 675.692 489.317 676.358 489.317 L 687.252 489.317 L 672.579 511.993 L 685.251 511.993 L 685.251 517.773 L 668.799 517.773 L 668.799 523.553 L 685.251 523.553 L 685.251 529.111 L 668.799 529.111 L 668.799 537.337 L 658.573 537.337 L 658.573 529.111 L 642.121 529.111 L 642.121 523.553 L 658.35 523.553 L 658.35 517.996 L 641.9 517.996 L 641.9 512.216 L 654.571 512.216 L 639.899 489.317 L 650.792 489.317 C 651.237 489.317 651.904 489.539 652.125 489.984 L 659.24 501.544 L 663.687 508.88 Z" class="O" style="fill: rgb(29, 80, 127);"/>
  <circle cx="330.879" cy="555.567" r="40.684" class="Q" style="fill: rgb(255, 255, 255);"/>
  <path d="M 327.321 529.333 L 327.321 522.442 L 335.547 522.442 L 335.547 529.556 C 341.327 530.223 346.886 532.667 350.888 536.67 L 344.44 545.117 C 341.995 542.894 338.883 541.116 335.547 540.227 L 335.547 549.564 L 341.55 551.565 C 348.887 553.343 353.111 560.68 351.554 568.016 C 350.888 572.463 348.442 576.242 344.663 578.466 C 342.217 580.021 339.326 580.911 336.437 581.355 C 335.547 581.355 335.547 581.8 335.547 582.467 L 335.547 588.247 L 327.321 588.247 L 327.321 581.8 L 321.319 580.466 C 317.317 579.354 313.538 577.353 310.649 574.686 C 309.314 573.352 309.314 573.352 310.426 572.018 L 315.761 564.46 C 318.873 567.794 322.875 570.017 327.321 571.128 L 327.321 560.236 C 325.098 559.346 322.654 558.68 320.653 558.012 C 316.651 556.679 313.538 553.788 312.205 550.009 C 310.649 546.23 310.87 542.006 312.649 538.671 C 314.914 533.981 319.301 530.671 324.432 529.778 C 325.098 529.778 326.21 529.556 327.321 529.333 Z M 335.325 571.351 C 337.77 571.128 339.771 569.127 339.994 566.461 C 339.994 564.682 337.993 563.125 335.325 562.681 L 335.325 571.351 Z M 327.321 547.786 L 327.321 539.782 C 325.098 539.782 323.097 541.561 322.875 544.006 C 322.875 545.562 324.654 547.341 327.321 547.786 Z" class="O" style="fill: rgb(29, 80, 127);"/>
</svg>