<?xml version="1.0" encoding="utf-8"?>
<svg viewBox="0 0 500 500" xmlns="http://www.w3.org/2000/svg" xmlns:xlink="http://www.w3.org/1999/xlink">
  <defs>
    <linearGradient id="A" x1="319.96" y1="51.75" x2="183.62" y2="123.17" gradientUnits="userSpaceOnUse" gradientTransform="matrix(1.259993, 0, 0, 1.259993, 14.764177, 113.584062)">
      <stop offset="0"/>
      <stop offset="1" stop-opacity="0"/>
    </linearGradient>
    <linearGradient id="B" x1="-35.98" y1="169.91" x2="195.04" y2="123.38" gradientTransform="matrix(1.259993, 0, 0, 1.259993, 14.764177, 113.584062)" xlink:href="#A"/>
    <linearGradient id="D" x1="48.89" y1="85.98" x2="139.53" y2="37.26" gradientTransform="matrix(1.259993, 0, 0, 1.259993, 19.539547, 121.912607)" xlink:href="#A"/>
    <linearGradient id="E" x1="118.7" y1="41.99" x2="127.31" y2="39.2" gradientTransform="matrix(1.259993, 0, 0, 1.259993, 22.424931, 119.493425)" xlink:href="#A"/>
    <linearGradient id="F" x1="120.74" y1="41.79" x2="128.73" y2="36.64" gradientTransform="matrix(1.259993, 0, 0, 1.259993, 22.424931, 119.493425)" xlink:href="#A"/>
    <linearGradient id="G" x1="123.04" y1="39.88" x2="131.03" y2="34.72" gradientTransform="matrix(1.259993, 0, 0, 1.259993, 22.424931, 119.493425)" xlink:href="#A"/>
    <path id="H" d="M91.21 174.74s-.51 1.26.12 2 7.13 4.78 11.51 1.53-5.94-3.68-5.94-3.68z"/>
    <path id="I" d="M131.32 62.56h-23.57v-29.1h20.32l3.25 4.15v24.95z"/>
    <path id="J" d="M280.85 123.83a2.35 2.35 0 01-1.48-1.15l-.7-1.25a2.17 2.17 0 00-2.27-1.17 2.22 2.22 0 00-2 1.64l-.44 1.47a2.42 2.42 0 01-3 1.59l-2.75-.81a2.44 2.44 0 01-1.7-3.06l.42-1.48a2.16 2.16 0 00-.81-2.37 2.11 2.11 0 00-2.45-.24l-1.26.68a2.49 2.49 0 01-3.41-1l-1.43-2.6a2.41 2.41 0 011-3.39l1.21-.66a2.15 2.15 0 001.16-2.18 2.17 2.17 0 00-1.55-2l-1.47-.44a2.44 2.44 0 01-1.67-3.2l.76-2.61a2.4 2.4 0 012.87-1.73c.52.1 1 .27 1.53.41a2.29 2.29 0 002.68-3.38l-.64-1.17a2.38 2.38 0 011-3.25l2.83-1.52a2.49 2.49 0 013.26 1l.72 1.3a2.13 2.13 0 002.2 1.11 2.16 2.16 0 001.95-1.58l.41-1.37a2.48 2.48 0 013.23-1.72l2.56.75a2.47 2.47 0 011.77 3.12l-.39 1.33a2.19 2.19 0 00.75 2.48 2.22 2.22 0 002.59.21l1.17-.64a2.49 2.49 0 013.38 1l1.48 2.69a2.41 2.41 0 01-1 3.32l-1.31.7a2.09 2.09 0 00-1.12 2 2.13 2.13 0 001.37 2c.5.2 1 .33 1.56.49a2.25 2.25 0 011.64 2.91l-.87 3a2.31 2.31 0 01-3.05 1.59l-1.38-.39a2.14 2.14 0 00-2.31.84 2.08 2.08 0 00-.21 2.41l.72 1.3a2.42 2.42 0 01-1 3.33l-2.69 1.47a2.39 2.39 0 01-1.86.22zm-13.51-19.76a7.92 7.92 0 0011.378 9.203 7.92 7.92 0 00-1.538-14.553 7.9 7.9 0 00-9.84 5.35z"/>
  </defs>
  <path d="M 205.338 121.976 C 216.238 123.656 226.844 126.876 236.838 131.539 C 250.698 138.179 262.139 148.372 275.167 156.31 C 297.368 169.83 323.954 177.478 349.191 182.77 C 359.271 184.9 369.477 186.878 378.549 191.678 C 392.409 199.037 402.338 212.38 409.243 226.53 C 424.363 257.589 427.122 295.262 413.665 327.14 C 400.511 358.123 370.46 384.293 336.314 387.62 C 293.223 392.042 250.143 400.484 206.976 405.827 C 177.001 410.262 146.9 414.647 116.597 415.037 C 103.997 415.176 91.069 414.558 79.062 410.489 C 56.533 402.815 36.184 387.002 27.364 364.423 C 20.205 345.924 20.827 325.316 29.09 307.283 C 34.13 296.333 41.967 286.669 45.634 275.178 C 48.948 264.796 48.582 253.834 48.078 243.086 C 47.448 233.079 48.709 223.042 51.795 213.501 C 57.768 193.984 67.18 175.324 80.473 159.801 C 96.853 140.586 119.407 126.197 144.241 121.56 C 153.85 119.943 163.593 119.256 173.334 119.506 C 184.05 119.503 194.75 120.328 205.338 121.976 Z" class="B E" style="opacity: 0.18; fill: rgb(63, 114, 252);"/>
  <path d="M 137.979 335.343 C 137.938 336.605 138.174 337.861 138.672 339.022 C 139.285 340.114 140.217 340.993 141.343 341.542 C 143.757 342.79 146.557 343.065 149.168 342.311 C 149.523 342.24 149.844 342.048 150.075 341.769 C 150.2 341.529 150.253 341.257 150.226 340.988 C 150.032 339.548 149.303 338.235 148.185 337.308 C 147.068 336.401 146.113 335.31 145.362 334.083 C 144.102 331.664 145.06 325.263 140.499 326.246 C 136.694 327.039 137.878 332.609 137.979 335.343 Z" class="D" style="fill: rgb(255, 186, 168);"/>
  <path d="M 137.349 339.665 C 137.349 339.665 136.706 341.252 137.5 342.185 C 138.294 343.117 146.484 348.207 152.003 344.112 C 157.521 340.017 144.518 339.476 144.518 339.476 Z" style=""/>
  <path d="M 137.676 335.948 C 138.197 335.696 138.823 335.862 139.151 336.338 C 140.253 337.566 141.909 338.142 143.535 337.863 C 145.325 337.434 146.055 335.343 146.937 335.343 C 147.819 335.343 152.607 339.4 152.872 341.139 C 153.137 342.878 150.705 344.163 148.008 344.327 C 145.312 344.49 139.188 342.638 138.067 341.214 C 137.084 339.628 136.938 337.661 137.676 335.948 Z" class="C" style="fill: rgb(255, 255, 255);"/>
  <path d="M 122.342 337.787 C 122.301 339.049 122.538 340.305 123.035 341.466 C 123.65 342.562 124.587 343.441 125.719 343.986 C 128.128 345.234 130.925 345.51 133.531 344.755 C 133.903 344.677 134.234 344.466 134.463 344.163 C 134.589 343.923 134.642 343.651 134.615 343.382 C 134.42 341.942 133.692 340.629 132.573 339.702 C 131.457 338.795 130.502 337.704 129.751 336.477 C 128.554 334.058 129.449 327.657 124.888 328.652 C 121.057 329.534 122.242 335.103 122.342 337.787 Z" class="D" style="fill: rgb(255, 186, 168);"/>
  <path d="M 121.712 342.159 C 121.712 342.159 121.07 343.747 121.864 344.679 C 122.657 345.612 130.847 350.702 136.366 346.607 C 141.885 342.512 128.882 341.97 128.882 341.97 Z" style=""/>
  <path d="M 122.04 338.455 C 122.557 338.196 123.186 338.357 123.514 338.833 C 124.613 340.068 126.268 340.653 127.899 340.383 C 129.688 339.954 130.419 337.863 131.313 337.863 C 132.208 337.863 136.971 341.92 137.235 343.659 C 137.5 345.397 135.068 346.683 132.372 346.846 C 129.676 347.01 123.552 345.158 122.431 343.734 C 121.439 342.146 121.292 340.172 122.04 338.455 Z" class="C" style="fill: rgb(255, 255, 255);"/>
  <g fill="#473f47" transform="matrix(1.259993, 0, 0, 1.259993, 22.424931, 119.493423)" style="">
    <path d="M76.72 119.83s-.68 37.17 2.07 49.57l7 .86 4.84-50.89z"/>
    <path d="M98.3 115.77s3.29 20-.7 52.25l-7 .87-4.84-50.9z"/>
  </g>
  <g class="C" transform="matrix(1.259993, 0, 0, 1.259993, 22.424931, 119.493423)" style="fill: rgb(255, 255, 255);">
    <path d="M97.66 100.09l.09 2c0 3.71-.86 7.53.25 11.17a4.06 4.06 0 01.3 2.48 3 3 0 01-1.55 1.49c-3.27 1.79-7 2.34-10.74 2.86-2.77.39-6.71 1.21-9.27-.28a4.65 4.65 0 01-1.82-3 57 57 0 01-1.73-11.7c0-.52-.07-1-.1-1.54a135.52 135.52 0 01-.22-10.66c0-2.58.26-5.37 1.94-7.32 2.24-2.59 6.57-4.31 9.86-4.91a11.09 11.09 0 013.25-.16 13.77 13.77 0 014.38 1.49c1.64.81 3.09 1.49 3.89 3.1A22.13 22.13 0 0198.02 91a21.43 21.43 0 01.1 5.77c-.1.94-.34 1.87-.43 2.81-.02.17-.02.34-.03.51z"/>
    <path d="M94.56 83.31l9.79 5.22 20.72-7.36 3.6 8.86s-19 9.72-22.67 9.76-13.32-2.63-13.32-2.63z"/>
  </g>
  <path d="M 152.393 238.097 C 150.995 237.933 144.002 234.455 143.233 233.876 C 144.304 236.131 145.753 243.136 145.992 243.275 C 148.629 244.591 151.496 245.383 154.434 245.606 C 157.382 245.823 160.335 245.267 163.002 243.993 C 164.312 243.228 165.662 242.534 167.047 241.914 C 167.878 241.599 168.748 241.423 169.567 241.146 C 171.746 240.321 173.795 239.188 175.653 237.782 C 176.264 237.48 176.721 236.936 176.913 236.282 C 177.039 235.451 176.295 234.745 175.539 234.38 C 174.348 233.857 173.061 233.587 171.759 233.586 C 170.05 233.365 168.317 233.403 166.618 233.699 C 165.547 234.002 164.754 234.959 163.708 235.476 C 160.684 236.799 155.669 238.475 152.393 238.097 Z M 126.412 272.079 C 125.051 272.469 121.927 271.234 120.893 271.045 C 120.263 270.945 119.633 270.63 119.092 270.478 C 115.992 269.71 115.627 261.016 115.312 258.672 C 114.505 252.486 113.27 246.072 113.195 239.873 C 113.06 237.483 113.337 235.088 114.014 232.792 C 114.723 230.467 116.425 228.575 118.663 227.626 C 119.097 227.443 119.575 227.395 120.037 227.487 C 121.914 227.966 122.305 231.078 122.632 232.527 C 123.199 235.173 124.484 236.383 125.795 238.5 C 127.105 240.617 127.193 243.262 128.441 245.442 C 128.749 246.051 129.178 246.591 129.701 247.03 C 130.766 247.651 132.003 247.912 133.229 247.773 L 142.124 247.773 C 142.84 247.674 143.567 247.855 144.153 248.277 C 144.673 248.958 144.867 249.834 144.682 250.671 L 144.14 257.248 C 144.149 257.536 144.075 257.821 143.926 258.067 C 143.671 258.329 143.332 258.494 142.968 258.534 C 140.532 258.885 138.164 259.612 135.95 260.688 C 133.801 262.165 131.514 263.43 129.121 264.468 C 128.431 264.777 127.801 265.204 127.256 265.728 C 126.621 266.522 126.302 267.523 126.362 268.538 C 126.362 269.181 127.181 271.159 126.941 271.625 C 126.833 271.841 126.643 272.005 126.412 272.079 Z" opacity=".1" fill="#020202" style=""/>
  <path d="M 135.925 217.294 C 135.432 217.839 134.754 218.181 134.022 218.252 C 133.411 218.308 132.795 218.308 132.183 218.252 L 131.843 218.252 C 131.761 218.226 131.673 218.226 131.591 218.252 C 131.515 218.324 131.474 218.424 131.477 218.529 C 131.37 219.753 131.37 220.984 131.477 222.208 L 131.477 222.876 C 131.542 223.102 131.542 223.342 131.477 223.569 C 131.302 223.819 131.035 223.991 130.734 224.048 C 130.198 224.23 129.637 224.328 129.071 224.337 C 127.852 224.251 126.674 223.861 125.644 223.203 C 125.732 221.098 125.623 218.988 125.316 216.903 C 124.925 214.22 124.22 211.536 124.51 208.839 C 124.585 207.785 124.98 206.778 125.644 205.954 C 126.715 204.938 128.164 204.417 129.638 204.518 C 131.57 204.49 133.47 205.01 135.119 206.017 C 135.723 206.433 135.786 206.962 135.925 207.643 L 136.429 210.843 C 136.56 212.065 136.636 213.293 136.656 214.522 C 136.751 215.504 136.492 216.487 135.925 217.294 Z" class="D" style="fill: rgb(255, 186, 168);"/>
  <path d="M 133.783 206.622 C 132.523 206.962 130.898 206.622 129.625 207.176 C 127.821 208.101 126.972 210.212 127.634 212.128 C 127.118 212.317 127.017 211.372 126.614 210.994 C 126.211 210.616 125.354 211.12 125.24 211.775 C 125.275 212.434 125.47 213.074 125.807 213.64 C 126.305 214.798 126.394 216.091 126.059 217.307 C 125.971 217.596 125.757 217.937 125.48 217.861 C 125.203 217.785 124.988 217.294 124.812 217.08 C 124.531 216.745 124.224 216.433 123.892 216.147 L 121.901 214.56 C 121.246 214.018 121.007 213.501 120.251 213.3 C 119.536 213.157 118.812 213.068 118.084 213.035 C 115.712 212.577 114.726 209.724 116.308 207.899 C 116.39 207.804 116.478 207.714 116.572 207.63 C 116.821 207.457 117.031 207.234 117.189 206.975 C 117.284 206.682 117.31 206.372 117.265 206.068 C 117.299 204.452 118.141 202.961 119.507 202.099 C 120.856 201.248 122.424 200.811 124.018 200.839 C 124.363 200.861 124.709 200.818 125.039 200.713 C 125.343 200.557 125.619 200.353 125.858 200.108 C 128.732 197.675 133.114 198.484 134.93 201.784 C 135.444 202.647 135.645 203.662 135.497 204.656 C 135.404 205.61 134.716 206.4 133.783 206.622 Z" style="fill: rgb(45, 44, 43);"/>
  <path d="M 132.183 218.289 L 131.843 218.289 C 131.761 218.263 131.673 218.263 131.591 218.289 C 131.515 218.361 131.474 218.462 131.477 218.567 C 131.37 219.791 131.37 221.022 131.477 222.246 C 129.249 221.535 127.827 219.355 128.075 217.029 C 129.41 217.592 130.799 218.014 132.221 218.289 Z" fill="#e0a091" style=""/>
  <rect x="101.618" y="113.286" width="13.356" height="31.437" rx="5.3" transform="matrix(0.942467, -0.3343, 0.3343, 0.942467, -22.128229, 157.217636)" class="C" style="fill: rgb(255, 255, 255);"/>
  <path d="M 309.602 231.948 C 304.197 333.276 236.384 359.761 236.384 359.761 C 161.1 314.906 161.478 227.311 161.478 227.311 C 209.483 214.383 236.926 187.924 237.783 187.042 C 255.65 213.123 309.602 231.948 309.602 231.948 Z" style="fill: rgb(34, 93, 147);"/>
  <path d="M 154.623 240.843 C 155.253 240.377 155.883 239.861 156.413 239.357 C 157.781 238.121 159.327 237.098 160.999 236.32 C 162.678 235.539 164.559 235.301 166.379 235.64 C 166.77 235.715 167.236 235.955 167.185 236.358 C 167.135 236.761 166.908 236.786 166.669 236.912 C 165.609 237.5 164.49 237.973 163.33 238.323 C 162.851 238.462 162.297 238.638 162.07 239.105 C 162.458 239.148 162.85 239.1 163.217 238.966 C 164.652 238.603 166.141 238.497 167.614 238.651 C 167.752 238.651 167.916 238.651 167.992 238.827 C 168.067 239.004 167.992 239.205 167.765 239.319 C 166.354 240.44 164.237 240.365 162.889 241.574 C 162.65 241.776 162.473 242.204 162.738 242.368 C 162.848 242.405 162.968 242.405 163.078 242.368 C 163.658 242.368 164.224 242.129 164.804 242.028 C 165.73 241.845 166.68 241.82 167.614 241.952 C 167.739 241.956 167.857 242.011 167.941 242.103 C 168.08 242.318 167.79 242.557 167.563 242.67 L 162.687 244.8 C 163.358 244.857 164.033 244.857 164.703 244.8 C 165.386 244.761 166.06 244.977 166.593 245.404 C 166.637 245.426 166.665 245.469 166.669 245.518 C 166.669 245.606 166.669 245.656 166.53 245.694 C 165.751 246.115 164.893 246.373 164.01 246.45 C 163.486 246.49 162.966 246.583 162.461 246.727 C 162.153 246.841 161.855 246.976 161.566 247.131 C 160.628 247.629 159.615 247.969 158.567 248.139 C 157.515 248.317 156.433 248.14 155.493 247.635 C 155.242 247.475 154.976 247.34 154.699 247.231 C 153.691 246.954 152.57 248 151.637 247.509 C 151.324 247.295 151.073 247.005 150.906 246.664 C 150.402 245.833 148.714 243.514 150.075 242.746 C 150.84 242.447 151.623 242.194 152.418 241.99 C 153.195 241.694 153.935 241.309 154.623 240.843 Z" class="D" style="fill: rgb(255, 186, 168);"/>
  <path d="M 133.531 243.527 L 150.213 241.927 L 152.91 250.066 C 152.91 250.066 128.529 259.983 123.791 257.223 C 119.054 254.464 123.451 249.966 123.451 249.966 C 123.451 249.966 124.006 243.363 133.531 243.527 Z" class="C" style="fill: rgb(255, 255, 255);"/>
  <path d="M 300.845 237.265 C 296.07 326.573 236.309 349.921 236.309 349.921 C 169.957 310.382 170.285 233.183 170.285 233.183 C 212.583 221.767 236.762 198.407 237.518 197.689 C 253.268 220.683 300.845 237.265 300.845 237.265 Z" class="B" style="fill: rgb(63, 136, 252);"/>
  <path d="M 237.531 197.676 L 236.271 349.921 C 169.92 310.382 170.247 233.183 170.247 233.183 C 212.545 221.767 236.724 198.407 237.48 197.689 Z" style="fill-rule: nonzero;" fill="url(#B)"/>
  <g fill="#473f47" transform="matrix(1.259993, 0, 0, 1.259993, 22.424931, 119.493423)" style="">
    <circle cx="169.75" cy="113.85" r="9.29"/>
    <path d="M164.16 137.02h10.01l-2.84-14.88h-3.65l-3.52 14.88z"/>
  </g>
  <path d="M 173.473 258.66 L 188.53 258.66 L 188.53 247.735 L 200.462 247.735 M 176.421 270.365 L 196.027 270.365 L 196.027 294.204 L 208.299 294.204 M 299.598 251.238 L 274.776 251.238 L 274.776 237.164 L 252.613 237.164 M 294.974 274.649 L 270.795 274.649 L 270.795 299.433 L 253.747 299.433 M 200.462 318.27 L 220.748 318.27 L 220.748 308.744 L 233.02 308.744" class="E" fill="none" stroke="#fff" stroke-miterlimit="10" stroke-width=".96" style="opacity: 0.18;"/>
  <path d="M 185.695 222.914 C 186.186 223.097 186.738 222.984 187.119 222.624 C 187.673 221.981 187.232 221.011 186.778 220.293 C 187.207 219.965 187.824 220.381 188.152 220.822 C 188.479 221.263 188.87 221.792 189.412 221.729 C 189.954 221.666 190.256 220.923 190.117 220.368 C 189.9 219.828 189.625 219.313 189.298 218.831 C 189.538 218.504 190.067 218.831 190.281 219.146 C 190.495 219.461 190.785 219.94 191.176 219.852 C 191.493 219.709 191.659 219.356 191.566 219.02 C 191.471 218.694 191.399 218.361 191.352 218.025 C 192.02 217.811 192.789 218.504 193.406 218.176 C 193.865 217.834 193.924 217.169 193.532 216.752 C 193.134 216.367 192.62 216.123 192.07 216.059 C 190.71 215.77 189.293 215.938 188.038 216.538 C 186.589 217.118 185.077 217.42 183.666 218.151 C 182.363 218.703 181.216 219.569 180.327 220.671 C 180.183 220.924 180.253 221.245 180.491 221.414 C 180.679 221.478 180.883 221.478 181.071 221.414 C 182.072 221.226 183.109 221.4 183.994 221.906 C 184.47 222.239 184.966 222.542 185.481 222.813 Z" class="D" style="fill: rgb(255, 186, 168);"/>
  <path d="M 373.635 230.763 C 359.927 201.532 296.877 179.381 221.403 179.381 C 135.925 179.381 66.424 207.781 66.424 242.695 C 66.424 277.61 135.963 306.01 221.403 306.01 C 279.665 306.01 330.518 292.818 357.003 273.364 C 360.815 270.612 364.313 267.452 367.436 263.939 C 371.546 259.5 374.441 254.075 375.84 248.189 C 376.222 246.383 376.416 244.542 376.42 242.695 C 376.388 238.561 375.437 234.485 373.635 230.763 Z M 366.214 263.826 C 363.497 266.809 360.501 269.526 357.268 271.94 C 331.337 291.571 280.156 304.952 221.378 304.952 C 136.492 304.952 67.419 277.03 67.419 242.695 C 67.419 208.361 136.492 180.427 221.403 180.427 C 295.919 180.427 358.238 201.947 372.363 230.423 C 374.304 234.225 375.331 238.427 375.361 242.695 C 375.366 244.187 375.231 245.676 374.958 247.143 C 373.925 252.964 370.926 258.559 366.214 263.826 Z" class="C" style="fill: rgb(255, 255, 255);"/>
  <g class="B" transform="matrix(1.259993, 0, 0, 1.259993, 22.424931, 119.493423)" style="fill: rgb(252, 91, 63);">
    <path d="M 277.71 88.04 C 277.127 87.927 276.522 88.03 276.01 88.33 C 271.41 79.42 260.3 71.14 243.63 64.4 C 220.72 55.14 190.27 50.04 157.92 50.04 C 125.57 50.04 95.09 55.14 72.18 64.4 C 49.73 73.47 37.38 85.31 37.38 97.78 C 37.38 110.25 49.73 122.08 72.16 131.15 C 95.07 140.42 125.52 145.52 157.9 145.52 C 190.28 145.52 220.72 140.42 243.63 131.15 C 252.84 127.43 260.34 123.25 266 118.72 C 266.121 119.149 266.121 119.602 266 120.03 L 265.72 121.03 C 245.14 136.61 204.52 147.23 157.87 147.23 C 90.5 147.23 35.68 125.07 35.68 97.82 C 35.68 70.57 90.53 48.36 157.92 48.36 C 217.04 48.36 266.5 65.44 277.71 88.04 Z M 280.84 88.94 L 280.66 88.88 L 278.74 88.31 C 267.86 65.11 217.82 47.53 157.92 47.53 C 90.08 47.53 34.92 70.07 34.92 97.78 C 34.92 125.49 90.11 148.03 157.92 148.03 C 204.16 148.03 244.52 137.56 265.54 122.12 C 265.5 122.728 265.705 123.326 266.11 123.78 C 259.699 128.268 252.782 131.984 245.5 134.85 C 222.03 144.43 190.92 149.7 157.92 149.7 C 124.92 149.7 93.79 144.43 70.34 134.85 C 46.4 125.07 33.22 111.9 33.22 97.78 C 33.22 83.66 46.38 70.49 70.32 60.72 C 93.77 51.13 124.92 45.86 157.92 45.86 C 190.92 45.86 222.05 51.13 245.5 60.72 C 264.34 68.42 276.52 78.22 280.84 88.94 Z" class="E" style="opacity: 0.18; fill: rgb(63, 136, 252);"/>
    <ellipse cx="152.49" cy="181.07" rx="96.23" ry="15.86" opacity=".35" style="fill: rgb(43, 45, 50);"/>
  </g>
  <g class="C" transform="matrix(1.259993, 0, 0, 1.259993, 22.424931, 119.493423)" style="fill: rgb(255, 255, 255);">
    <path d="M131.32 62.56h-23.57v-29.1h20.32l3.25 4.15v24.95z" transform="matrix(1, 0, 0, 1, 0, 0)"/>
    <path d="M131.32 62.56h-23.57v-29.1h20.32l3.25 4.15v24.95z" transform="matrix(1, 0, 0, 1, -2.0899999141693115, 1.7200000286102295)"/>
  </g>
  <path d="M 185.002 200.738 L 155.304 200.738 L 155.304 164.072 L 180.907 164.072 L 185.002 169.301 L 185.002 200.738 Z" fill="url(#D)" style=""/>
  <path d="M 182.394 203.774 L 152.696 203.774 L 152.696 167.096 L 178.299 167.096 L 182.394 172.325 L 182.394 203.774 Z" class="C" style="fill: rgb(255, 255, 255);"/>
  <path fill="url(#E)" d="M 178.299 167.096 L 178.299 172.275 L 182.394 172.275 L 178.299 167.096 Z" style=""/>
  <path fill="url(#F)" d="M 180.907 164.072 L 180.907 169.402 L 185.002 169.402 L 180.907 164.072 Z" style=""/>
  <path fill="url(#G)" d="M 183.792 161.653 L 183.792 166.983 L 187.887 166.983 L 183.792 161.653 Z" style=""/>
  <path d="M 376.294 275.518 C 375.498 275.315 374.823 274.79 374.429 274.069 L 373.547 272.494 C 373.014 271.435 371.859 270.839 370.687 271.02 C 369.491 271.098 368.477 271.929 368.167 273.087 L 367.613 274.939 C 367.111 276.527 365.428 277.419 363.833 276.942 L 360.368 275.922 C 358.695 275.47 357.725 273.725 358.226 272.066 L 358.755 270.201 C 359.085 269.09 358.676 267.891 357.734 267.215 C 356.877 266.462 355.634 266.34 354.647 266.913 L 353.06 267.769 C 351.527 268.625 349.591 268.057 348.763 266.509 L 346.961 263.233 C 346.058 261.714 346.638 259.748 348.221 258.962 L 349.746 258.13 C 350.763 257.614 351.347 256.516 351.207 255.384 C 351.164 254.212 350.378 253.198 349.254 252.864 L 347.402 252.309 C 345.65 251.848 344.674 249.979 345.298 248.277 L 346.256 244.989 C 346.67 243.402 348.275 242.434 349.872 242.809 C 350.527 242.935 351.132 243.149 351.8 243.325 C 353.903 244.04 355.991 242.21 355.558 240.032 C 355.49 239.69 355.361 239.363 355.176 239.067 L 354.37 237.593 C 353.568 236.116 354.137 234.268 355.63 233.498 L 359.196 231.582 C 360.683 230.852 362.482 231.404 363.303 232.842 L 364.211 234.48 C 364.744 235.488 365.855 236.049 366.983 235.879 C 368.143 235.808 369.13 235.008 369.439 233.888 L 369.956 232.162 C 370.413 230.385 372.296 229.382 374.026 229.995 L 377.251 230.94 C 378.985 231.368 380.004 233.163 379.482 234.871 L 378.99 236.547 C 378.589 237.683 378.972 238.948 379.935 239.672 C 380.852 240.454 382.167 240.56 383.199 239.936 L 384.673 239.13 C 386.197 238.3 388.105 238.864 388.932 240.39 L 390.796 243.779 C 391.636 245.279 391.065 247.176 389.536 247.962 L 387.886 248.844 C 386.956 249.328 386.401 250.318 386.475 251.364 C 386.469 252.482 387.157 253.486 388.201 253.884 C 388.831 254.136 389.461 254.3 390.166 254.502 C 391.806 254.87 392.766 256.575 392.233 258.168 L 391.137 261.948 C 390.707 263.627 388.916 264.561 387.294 263.952 L 385.555 263.46 C 384.459 263.165 383.295 263.588 382.644 264.519 C 381.916 265.37 381.81 266.59 382.38 267.555 L 383.287 269.193 C 384.127 270.697 383.556 272.597 382.027 273.389 L 378.637 275.241 C 377.926 275.649 377.08 275.749 376.294 275.518 Z M 359.271 250.621 C 357.094 257.988 363.708 264.949 371.177 263.151 C 372.024 262.947 372.842 262.633 373.608 262.217 C 380.356 258.547 380.602 248.948 374.05 244.938 C 373.306 244.483 372.506 244.127 371.67 243.88 C 366.383 242.303 360.822 245.326 359.271 250.621 Z" style=""/>
  <path d="M 376.294 275.518 C 375.498 275.315 374.823 274.79 374.429 274.069 L 373.547 272.494 C 373.014 271.435 371.859 270.839 370.687 271.02 C 369.491 271.098 368.477 271.929 368.167 273.087 L 367.613 274.939 C 367.111 276.527 365.428 277.419 363.833 276.942 L 360.368 275.922 C 358.695 275.47 357.725 273.725 358.226 272.066 L 358.755 270.201 C 359.085 269.09 358.676 267.891 357.734 267.215 C 356.877 266.462 355.634 266.34 354.647 266.913 L 353.06 267.769 C 351.527 268.625 349.591 268.057 348.763 266.509 L 346.961 263.233 C 346.058 261.714 346.638 259.748 348.221 258.962 L 349.746 258.13 C 350.763 257.614 351.347 256.516 351.207 255.384 C 351.164 254.212 350.378 253.198 349.254 252.864 L 347.402 252.309 C 345.65 251.848 344.674 249.979 345.298 248.277 L 346.256 244.989 C 346.67 243.402 348.275 242.434 349.872 242.809 C 350.527 242.935 351.132 243.149 351.8 243.325 C 353.903 244.04 355.991 242.21 355.558 240.032 C 355.49 239.69 355.361 239.363 355.176 239.067 L 354.37 237.593 C 353.568 236.116 354.137 234.268 355.63 233.498 L 359.196 231.582 C 360.683 230.852 362.482 231.404 363.303 232.842 L 364.211 234.48 C 364.744 235.488 365.855 236.049 366.983 235.879 C 368.143 235.808 369.13 235.008 369.439 233.888 L 369.956 232.162 C 370.413 230.385 372.296 229.382 374.026 229.995 L 377.251 230.94 C 378.985 231.368 380.004 233.163 379.482 234.871 L 378.99 236.547 C 378.589 237.683 378.972 238.948 379.935 239.672 C 380.852 240.454 382.167 240.56 383.199 239.936 L 384.673 239.13 C 386.197 238.3 388.105 238.864 388.932 240.39 L 390.796 243.779 C 391.636 245.279 391.065 247.176 389.536 247.962 L 387.886 248.844 C 386.956 249.328 386.401 250.318 386.475 251.364 C 386.469 252.482 387.157 253.486 388.201 253.884 C 388.831 254.136 389.461 254.3 390.166 254.502 C 391.806 254.87 392.766 256.575 392.233 258.168 L 391.137 261.948 C 390.707 263.627 388.916 264.561 387.294 263.952 L 385.555 263.46 C 384.459 263.165 383.295 263.588 382.644 264.519 C 381.916 265.37 381.81 266.59 382.38 267.555 L 383.287 269.193 C 384.127 270.697 383.556 272.597 382.027 273.389 L 378.637 275.241 C 377.926 275.649 377.08 275.749 376.294 275.518 Z M 359.271 250.621 C 357.094 257.988 363.708 264.949 371.177 263.151 C 372.024 262.947 372.842 262.633 373.608 262.217 C 380.356 258.547 380.602 248.948 374.05 244.938 C 373.306 244.483 372.506 244.127 371.67 243.88 C 366.383 242.303 360.822 245.326 359.271 250.621 Z" fill="#020202" opacity=".27" style=""/>
  <path d="M 388.982 255.069 L 387.029 254.451 C 385.985 254.053 385.297 253.049 385.303 251.931 C 385.235 250.883 385.794 249.894 386.727 249.411 L 388.365 248.529 C 389.893 247.743 390.464 245.846 389.625 244.346 L 387.76 240.969 C 386.933 239.444 385.025 238.879 383.501 239.709 L 382.027 240.516 C 380.998 241.143 379.683 241.042 378.763 240.264 L 378.373 239.873 C 377.697 239.129 377.484 238.074 377.818 237.126 C 377.818 237.038 377.881 236.925 377.919 236.837 L 378.297 235.451 C 378.8 233.84 377.912 232.125 376.306 231.608 L 376.08 231.532 L 373.66 230.814 L 372.841 230.574 L 372.363 230.474 C 371.628 230.331 370.866 230.46 370.221 230.839 C 369.54 231.261 369.041 231.921 368.822 232.691 L 368.305 234.43 C 367.977 235.562 366.963 236.358 365.786 236.408 C 364.662 236.576 363.553 236.022 363.014 235.022 L 362.106 233.372 C 361.294 231.929 359.494 231.376 358.011 232.112 L 354.433 234.014 C 352.94 234.785 352.371 236.632 353.173 238.109 L 353.979 239.583 C 354.651 240.614 354.575 241.962 353.79 242.91 C 353.043 243.88 351.758 244.261 350.603 243.855 L 348.675 243.325 C 347.078 242.951 345.473 243.918 345.059 245.505 L 344.101 248.806 C 343.478 250.509 344.461 252.377 346.218 252.826 L 348.057 253.38 C 349.177 253.721 349.96 254.731 350.01 255.9 C 350.16 257.031 349.579 258.132 348.561 258.647 L 347.024 259.479 C 345.441 260.264 344.861 262.231 345.764 263.75 L 347.566 267.026 C 348.403 268.562 350.328 269.127 351.863 268.286 L 353.45 267.417 C 354.439 266.852 355.676 266.974 356.537 267.719 C 356.995 268.06 357.341 268.529 357.533 269.067 C 357.685 269.607 357.685 270.178 357.533 270.718 L 357.18 271.978 L 356.991 272.62 C 356.738 273.622 356.966 274.684 357.608 275.493 C 358.002 275.974 358.534 276.321 359.133 276.489 L 362.598 277.496 C 364.193 277.966 365.871 277.076 366.378 275.493 C 366.592 274.888 366.743 274.233 366.932 273.641 C 367.249 272.488 368.259 271.66 369.452 271.575 C 370.619 271.403 371.766 271.997 372.3 273.049 L 373.169 274.636 C 374.009 276.13 375.883 276.688 377.403 275.896 L 380.792 274.044 C 382.32 273.258 382.892 271.361 382.052 269.861 L 381.145 268.223 C 380.563 267.263 380.665 266.038 381.397 265.186 C 382.049 264.257 383.209 263.831 384.307 264.115 C 384.9 264.254 385.467 264.456 386.046 264.619 C 387.65 265.192 389.4 264.265 389.826 262.616 L 390.935 258.836 C 391.537 257.249 390.626 255.492 388.982 255.069 Z M 377.264 256.757 C 375.964 261.091 371.935 264.028 367.411 263.939 C 367.01 263.933 366.609 263.895 366.214 263.826 C 365.759 263.759 365.308 263.662 364.866 263.536 C 364.565 263.45 364.271 263.344 363.984 263.221 C 356.859 260.373 355.489 250.882 361.517 246.135 C 364.057 244.135 367.41 243.492 370.51 244.409 C 371.401 244.673 372.25 245.064 373.03 245.568 C 373.727 246.003 374.358 246.533 374.908 247.143 C 375.229 247.468 375.524 247.818 375.79 248.189 C 376.419 249.085 376.899 250.076 377.214 251.125 C 377.779 252.957 377.796 254.915 377.264 256.757 Z" class="B" style="fill: rgb(34, 93, 147);"/>
</svg>