<svg xmlns="http://www.w3.org/2000/svg" xmlns:xlink="http://www.w3.org/1999/xlink" viewBox="0 0 65.81 130"><defs><style>.cls-1{mask:url(#mask);}.cls-2{mix-blend-mode:multiply;fill:url(#linear-gradient);}.cls-3{isolation:isolate;}.cls-4{fill:#8e8e8e;}.cls-5{mask:url(#mask-2);}.cls-20,.cls-21,.cls-6{opacity:0.3;}.cls-6{fill:url(#linear-gradient-2);}.cls-7{fill:#1afd32;}.cls-8{fill:#ff4410;}.cls-9{fill:#bcbcbc;}.cls-10{fill:url(#linear-gradient-3);}.cls-11{fill:#ff5b10;}.cls-12{fill:#606060;}.cls-13{fill:url(#linear-gradient-4);}.cls-14{fill:url(#linear-gradient-5);}.cls-15{fill:url(#linear-gradient-6);}.cls-16{fill:url(#linear-gradient-7);}.cls-17{fill:#070707;}.cls-18,.cls-28{opacity:0.5;}.cls-18{mix-blend-mode:overlay;}.cls-19{fill:url(#linear-gradient-8);}.cls-20{fill:url(#linear-gradient-9);}.cls-21{fill:url(#linear-gradient-10);}.cls-22{fill:url(#linear-gradient-11);}.cls-23,.cls-26,.cls-27,.cls-28{fill:#fff;}.cls-24{fill:url(#linear-gradient-12);}.cls-25{fill:url(#linear-gradient-13);}.cls-26{opacity:0.8;}.cls-27,.cls-30{opacity:0.7;}.cls-29{fill:#0c0c0c;}.cls-31{opacity:0.4;}.cls-32{filter:url(#luminosity-noclip-2);}.cls-33{filter:url(#luminosity-noclip);}</style><filter id="luminosity-noclip" x="48.21" y="-8264" width="57.72" height="32766" filterUnits="userSpaceOnUse" color-interpolation-filters="sRGB"><feFlood flood-color="#fff" result="bg"/><feBlend in="SourceGraphic" in2="bg"/></filter><mask id="mask" x="48.21" y="-8264" width="57.72" height="32766" maskUnits="userSpaceOnUse"><g class="cls-33"/></mask><linearGradient id="linear-gradient" x1="77.07" y1="60.56" x2="77.07" y2="80.26" gradientUnits="userSpaceOnUse"><stop offset="0" stop-color="#fff"/><stop offset="1"/></linearGradient><filter id="luminosity-noclip-2" x="48.21" y="55.59" width="57.72" height="24.75" filterUnits="userSpaceOnUse" color-interpolation-filters="sRGB"><feFlood flood-color="#fff" result="bg"/><feBlend in="SourceGraphic" in2="bg"/></filter><mask id="mask-2" x="8.09" y="49.58" width="57.72" height="24.75" maskUnits="userSpaceOnUse"><g class="cls-32"><g transform="translate(-40.11 -6.01)"><g class="cls-1"><polygon class="cls-2" points="105.93 55.59 105.33 55.59 105.33 56.74 104.74 56.74 104.74 58.52 102.95 58.52 101.76 58.9 100.57 58.9 99.98 59.77 99.38 59.96 98.79 60.94 98.19 63.05 97 63.05 97 61.84 96.41 61.43 95.81 61.3 95.22 61.3 94.62 62.24 93.43 62.24 92.84 60.05 92.24 59.55 91.65 59.44 91.05 58.98 90.46 58.33 89.87 58.33 89.27 59.05 88.68 59.53 88.08 59.64 87.49 60.28 86.89 62.49 85.7 62.49 85.11 61.49 84.51 61.49 83.92 61.64 83.32 62.06 82.72 63.35 82.13 63.59 81.53 63.85 80.94 64.61 80.34 64.61 79.75 63.69 79.15 63.69 78.56 64.07 77.96 64.16 77.37 64.57 76.77 66.37 75.58 66.37 74.99 65.59 74.39 65.59 73.8 65.7 73.2 66.03 72.61 67.03 72.01 67.03 71.42 65.3 70.82 64.5 70.23 64.34 69.63 63.62 69.04 63.62 68.44 64.27 68.44 63.63 67.85 63.46 67.25 63.31 66.06 63.31 65.47 61.85 64.87 60.91 64.28 60.27 63.68 60.13 63.09 59.42 62.49 59.42 61.9 60.7 61.3 61.07 60.7 61.33 59.52 61.33 58.92 64.25 58.33 66.14 57.73 67.41 57.13 67.7 56.54 69.11 55.95 75.19 54.75 75.19 54.16 72.57 53.56 72.57 52.97 72.94 52.37 74.06 51.78 77.41 51.18 77.41 50.59 71.58 49.99 68.86 49.4 68.32 48.8 65.9 48.21 65.9 48.21 80.34 105.93 80.34 105.93 55.59"/></g></g></g></mask><linearGradient id="linear-gradient-2" x1="36.95" y1="54.55" x2="36.95" y2="74.25" gradientUnits="userSpaceOnUse"><stop offset="0" stop-color="#f37221"/><stop offset="1" stop-color="#f89b57"/></linearGradient><linearGradient id="linear-gradient-3" x1="24.45" y1="41.78" x2="30.88" y2="41.78" gradientUnits="userSpaceOnUse"><stop offset="0.42" stop-color="#f7931e"/><stop offset="1" stop-color="#f49a0b"/></linearGradient><linearGradient id="linear-gradient-4" x1="67.11" y1="128.83" x2="61.5" y2="134.37" gradientUnits="userSpaceOnUse"><stop offset="0.42" stop-color="#f7931e"/><stop offset="1" stop-color="#bdccd4"/></linearGradient><linearGradient id="linear-gradient-5" x1="67.61" y1="129.33" x2="62" y2="134.87" xlink:href="#linear-gradient-4"/><linearGradient id="linear-gradient-6" x1="67.99" y1="129.72" x2="62.39" y2="135.26" xlink:href="#linear-gradient-4"/><linearGradient id="linear-gradient-7" x1="26.45" y1="122.26" x2="20.84" y2="127.81" xlink:href="#linear-gradient-4"/><linearGradient id="linear-gradient-8" x1="29.74" y1="119.74" x2="19.59" y2="119.74" xlink:href="#linear-gradient-4"/><linearGradient id="linear-gradient-9" x1="55.27" y1="19.88" x2="9.77" y2="31.36" gradientUnits="userSpaceOnUse"><stop offset="0" stop-color="#f7931e"/><stop offset="1" stop-color="#333"/></linearGradient><linearGradient id="linear-gradient-10" x1="56.25" y1="18.07" x2="8.75" y2="30.06" gradientUnits="userSpaceOnUse"><stop offset="0" stop-color="#ff931e"/><stop offset="1" stop-color="#4d4d4d"/></linearGradient><linearGradient id="linear-gradient-11" x1="47.44" y1="96.8" x2="44.05" y2="99.27" gradientUnits="userSpaceOnUse"><stop offset="0" stop-color="#fd76b1"/><stop offset="1" stop-color="#947eee"/></linearGradient><linearGradient id="linear-gradient-12" x1="47.94" y1="107.01" x2="41.31" y2="111.22" gradientUnits="userSpaceOnUse"><stop offset="0" stop-color="#61e5fa"/><stop offset="1" stop-color="#898eff"/></linearGradient><linearGradient id="linear-gradient-13" x1="47.95" y1="117.37" x2="41.31" y2="121.59" gradientUnits="userSpaceOnUse"><stop offset="0" stop-color="#647cae"/><stop offset="1" stop-color="#2d3957"/></linearGradient></defs><g class="cls-3"><g id="Object"><line class="cls-4" x1="8.09" y1="48.45" x2="65.81" y2="48.45"/><line class="cls-4" x1="8.09" y1="54.92" x2="65.81" y2="54.92"/><line class="cls-4" x1="8.09" y1="61.39" x2="65.81" y2="61.39"/><line class="cls-4" x1="8.09" y1="67.86" x2="65.81" y2="67.86"/><line class="cls-4" x1="8.09" y1="74.33" x2="65.81" y2="74.33"/><g class="cls-5"><polygon class="cls-6" points="65.81 49.58 65.22 49.58 65.22 50.73 64.63 50.73 64.63 52.51 62.84 52.51 61.65 52.89 60.46 52.89 59.86 53.76 59.27 53.95 58.67 54.94 58.08 57.04 56.89 57.04 56.89 55.83 56.29 55.42 55.7 55.29 55.1 55.29 54.51 56.23 53.32 56.23 52.72 54.05 52.13 53.54 51.53 53.43 50.94 52.97 50.35 52.32 49.75 52.32 49.16 53.03 48.56 53.52 47.97 53.63 47.37 54.27 46.78 56.48 45.59 56.48 44.99 55.48 44.4 55.48 43.8 55.63 43.21 56.05 42.61 57.34 42.02 57.58 41.42 57.84 40.83 58.6 40.23 58.6 39.63 57.68 39.04 57.68 38.44 58.06 37.85 58.15 37.25 58.56 36.66 60.36 35.47 60.36 34.87 59.58 34.28 59.58 33.68 59.69 33.09 60.02 32.49 61.02 31.9 61.02 31.3 59.29 30.71 58.49 30.11 58.33 29.52 57.61 28.92 57.61 28.33 58.26 28.33 57.62 27.73 57.45 27.14 57.3 25.95 57.3 25.35 55.84 24.76 54.9 24.16 54.26 23.57 54.12 22.97 53.41 22.38 53.41 21.78 54.69 21.19 55.06 20.59 55.33 19.4 55.33 18.81 58.25 18.21 60.13 17.62 61.41 17.02 61.69 16.43 63.1 15.83 69.18 14.64 69.18 14.04 66.56 13.45 66.56 12.86 66.93 12.26 68.05 11.66 71.4 11.07 71.4 10.47 65.57 9.88 62.85 9.29 62.31 8.69 59.89 8.1 59.89 8.1 74.33 65.81 74.33 65.81 49.58"/></g><rect class="cls-7" x="8.09" y="59.47" width="0.6" height="0.42"/><rect class="cls-8" x="8.69" y="59.89" width="0.6" height="2.42"/><rect class="cls-8" x="9.28" y="62.31" width="0.6" height="0.54"/><rect class="cls-7" x="9.88" y="62.85" width="0.6" height="2.72"/><rect class="cls-8" x="10.47" y="65.57" width="0.6" height="5.85"/><rect class="cls-7" x="11.67" y="68.05" width="0.6" height="3.37"/><rect class="cls-7" x="12.26" y="66.93" width="0.6" height="1.12"/><rect class="cls-7" x="14.64" y="69.18" width="0.59" height="0.27"/><rect class="cls-8" x="16.43" y="61.69" width="0.6" height="1.68"/><rect class="cls-7" x="17.02" y="61.4" width="0.59" height="0.29"/><rect class="cls-8" x="21.19" y="54.78" width="0.6" height="0.29"/><rect class="cls-8" x="20.59" y="55.04" width="0.59" height="0.29"/><rect class="cls-8" x="17.62" y="60.13" width="0.6" height="1.28"/><rect class="cls-7" x="19.4" y="54.05" width="0.6" height="1.28"/><rect class="cls-7" x="21.78" y="53.41" width="0.6" height="1.28"/><rect class="cls-7" x="18.81" y="55.32" width="0.59" height="2.92"/><rect class="cls-7" x="18.21" y="58.25" width="0.6" height="1.88"/><rect class="cls-8" x="20" y="55.32" width="0.6" height="1.88"/><rect class="cls-8" x="12.86" y="66.56" width="0.59" height="0.37"/><rect class="cls-8" x="14.05" y="66.56" width="0.6" height="2.62"/><rect class="cls-8" x="15.24" y="69.18" width="0.6" height="2.04"/><rect class="cls-7" x="15.83" y="63.1" width="0.6" height="6.07"/><rect class="cls-8" x="22.97" y="53.28" width="0.59" height="0.84"/><rect class="cls-7" x="23.57" y="54.12" width="0.6" height="0.14"/><rect class="cls-8" x="27.73" y="57.43" width="0.6" height="0.14"/><rect class="cls-8" x="27.14" y="57.3" width="0.6" height="0.14"/><rect class="cls-8" x="24.16" y="54.26" width="0.6" height="0.64"/><rect class="cls-7" x="25.95" y="57.3" width="0.6" height="0.64"/><rect class="cls-7" x="28.33" y="57.62" width="0.6" height="0.64"/><rect class="cls-7" x="25.35" y="55.84" width="0.6" height="1.46"/><rect class="cls-7" x="24.76" y="54.9" width="0.59" height="0.94"/><rect class="cls-8" x="26.54" y="56.36" width="0.6" height="0.94"/><rect class="cls-7" x="22.38" y="51.73" width="0.6" height="1.69"/><rect class="cls-7" x="13.45" y="65.8" width="0.6" height="0.76"/><rect class="cls-7" x="11.07" y="71.4" width="0.59" height="0.65"/><rect class="cls-8" x="39.64" y="57.68" width="0.59" height="0.92"/><rect class="cls-8" x="40.23" y="58.6" width="0.6" height="0.21"/><rect class="cls-7" x="40.83" y="57.58" width="0.6" height="1.04"/><rect class="cls-8" x="41.42" y="57.58" width="0.6" height="0.26"/><rect class="cls-7" x="42.61" y="56.05" width="0.6" height="1.29"/><rect class="cls-7" x="43.21" y="55.63" width="0.6" height="0.43"/><rect class="cls-7" x="45.59" y="56.48" width="0.59" height="0.1"/><rect class="cls-8" x="47.37" y="53.63" width="0.6" height="0.64"/><rect class="cls-7" x="47.97" y="53.52" width="0.59" height="0.11"/><rect class="cls-8" x="48.56" y="53.04" width="0.6" height="0.49"/><rect class="cls-7" x="49.75" y="51.2" width="0.59" height="1.11"/><rect class="cls-7" x="49.16" y="52.32" width="0.6" height="0.72"/><rect class="cls-8" x="43.8" y="55.49" width="0.59" height="0.14"/><rect class="cls-8" x="44.99" y="55.49" width="0.6" height="1"/><rect class="cls-8" x="46.18" y="56.48" width="0.6" height="0.78"/><rect class="cls-7" x="46.78" y="54.17" width="0.6" height="2.31"/><rect class="cls-7" x="44.4" y="55.2" width="0.6" height="0.29"/><rect class="cls-7" x="42.02" y="57.33" width="0.6" height="0.25"/><rect class="cls-7" x="28.92" y="57.49" width="0.59" height="0.12"/><rect class="cls-8" x="29.52" y="57.61" width="0.6" height="0.71"/><rect class="cls-8" x="30.11" y="58.33" width="0.6" height="0.16"/><rect class="cls-7" x="30.71" y="58.49" width="0.59" height="0.81"/><rect class="cls-8" x="31.3" y="59.29" width="0.6" height="1.73"/><rect class="cls-7" x="32.49" y="60.02" width="0.6" height="1"/><rect class="cls-7" x="33.09" y="59.69" width="0.59" height="0.33"/><rect class="cls-7" x="35.47" y="60.36" width="0.6" height="0.08"/><rect class="cls-8" x="37.25" y="58.14" width="0.6" height="0.5"/><rect class="cls-7" x="37.85" y="58.06" width="0.6" height="0.09"/><rect class="cls-8" x="38.44" y="57.68" width="0.6" height="0.38"/><rect class="cls-7" x="39.04" y="57.13" width="0.59" height="0.56"/><rect class="cls-8" x="33.68" y="59.58" width="0.6" height="0.11"/><rect class="cls-8" x="34.87" y="59.58" width="0.59" height="0.77"/><rect class="cls-8" x="36.06" y="60.36" width="0.6" height="0.6"/><rect class="cls-7" x="36.66" y="58.56" width="0.59" height="1.8"/><rect class="cls-7" x="34.28" y="59.36" width="0.6" height="0.22"/><rect class="cls-7" x="31.9" y="61.01" width="0.6" height="0.19"/><rect class="cls-8" x="61.65" y="52.67" width="0.6" height="0.22"/><rect class="cls-8" x="62.24" y="52.51" width="0.6" height="0.18"/><rect class="cls-7" x="65.22" y="48.8" width="0.6" height="0.78"/><rect class="cls-8" x="63.43" y="52.51" width="0.6" height="0.78"/><rect class="cls-8" x="61.05" y="52.89" width="0.6" height="0.78"/><rect class="cls-8" x="64.03" y="50.73" width="0.6" height="1.78"/><rect class="cls-7" x="64.62" y="49.58" width="0.59" height="1.15"/><rect class="cls-7" x="62.84" y="51.36" width="0.59" height="1.15"/><rect class="cls-7" x="60.46" y="52.74" width="0.59" height="0.15"/><rect class="cls-8" x="59.86" y="52.89" width="0.6" height="0.87"/><rect class="cls-7" x="59.27" y="53.76" width="0.6" height="0.2"/><rect class="cls-7" x="58.67" y="53.95" width="0.59" height="0.98"/><rect class="cls-8" x="58.08" y="54.93" width="0.6" height="2.11"/><rect class="cls-8" x="56.89" y="55.83" width="0.59" height="1.22"/><rect class="cls-7" x="56.29" y="55.42" width="0.6" height="0.4"/><rect class="cls-7" x="53.91" y="56.23" width="0.6" height="0.1"/><rect class="cls-8" x="52.13" y="53.54" width="0.6" height="0.61"/><rect class="cls-7" x="51.53" y="53.43" width="0.6" height="0.1"/><rect class="cls-8" x="50.94" y="52.97" width="0.6" height="0.46"/><rect class="cls-7" x="50.34" y="52.29" width="0.59" height="0.68"/><rect class="cls-8" x="55.7" y="55.29" width="0.6" height="0.13"/><rect class="cls-7" x="54.51" y="55.29" width="0.59" height="0.94"/><rect class="cls-8" x="53.32" y="56.23" width="0.6" height="0.74"/><rect class="cls-7" x="52.72" y="54.04" width="0.59" height="2.19"/><rect class="cls-7" x="55.1" y="55.02" width="0.6" height="0.27"/><rect class="cls-7" x="57.48" y="57.03" width="0.6" height="0.23"/><rect class="cls-9" x="3.49" y="39.35" width="6.43" height="4.85" rx="0.37"/><rect class="cls-9" x="13.97" y="39.35" width="6.43" height="4.85" rx="0.37"/><rect class="cls-10" x="24.45" y="39.35" width="6.43" height="4.85" rx="0.37"/><rect class="cls-9" x="34.93" y="39.35" width="6.43" height="4.85" rx="0.37"/><rect class="cls-9" x="45.41" y="39.35" width="6.43" height="4.85" rx="0.37"/><rect class="cls-9" x="55.9" y="39.35" width="6.43" height="4.85" rx="0.37"/><polygon class="cls-7" points="27.54 94.52 26.19 93.04 24.77 93.21 24.75 93.03 26.27 92.84 27.61 94.31 28.72 94.04 29.28 92.61 30.3 92.16 31.19 92.57 32.35 91.85 32.99 90.93 34.37 91.27 34.72 92.32 35.82 93.24 37.52 92.27 38.8 93.2 39.81 90.59 41.74 90.59 43.45 92.03 44.09 92.88 45.06 93.24 46.3 92 47.37 91.83 47.4 92.01 46.39 92.17 45.11 93.46 43.97 93.03 43.31 92.15 41.67 90.78 39.94 90.78 38.89 93.5 37.5 92.49 35.8 93.47 34.55 92.43 34.22 91.43 33.07 91.15 32.49 91.99 31.2 92.78 30.3 92.36 29.43 92.75 28.86 94.2 27.54 94.52"/><polygon class="cls-7" points="52.91 91.74 52.07 92.66 53.76 92.66 52.91 91.74"/><polygon class="cls-11" points="41.74 104.54 39.81 104.54 38.8 102.34 37.52 103.13 35.82 102.31 34.71 103.08 34.36 103.97 32.99 104.25 32.36 103.48 31.19 102.88 30.3 103.22 29.28 102.84 28.73 101.64 27.6 101.41 26.26 102.65 24.75 102.49 24.77 102.3 26.2 102.45 27.54 101.21 28.86 101.47 29.42 102.69 30.3 103.02 31.2 102.67 32.48 103.33 33.07 104.04 34.22 103.81 34.56 102.96 35.8 102.09 37.51 102.91 38.89 102.06 39.93 104.36 41.68 104.36 43.31 103.2 43.97 102.46 45.11 102.1 46.39 103.18 47.4 103.31 47.37 103.5 46.31 103.36 45.06 102.31 44.08 102.62 43.43 103.35 41.74 104.54"/><polygon class="cls-11" points="52.91 103.14 53.76 102.22 52.07 102.22 52.91 103.14"/><polygon class="cls-7" points="27.54 115.18 26.19 113.7 24.77 113.87 24.75 113.69 26.27 113.5 27.61 114.97 28.72 114.7 29.28 113.27 30.3 112.82 31.19 113.23 32.35 112.51 32.99 111.59 34.37 111.93 34.72 112.98 35.82 113.9 37.52 112.93 38.8 113.86 39.81 111.25 41.74 111.25 43.45 112.69 44.09 113.54 45.06 113.9 46.3 112.66 47.37 112.48 47.4 112.67 46.39 112.83 45.11 114.12 43.97 113.69 43.31 112.81 41.67 111.44 39.94 111.44 38.89 114.16 37.5 113.15 35.8 114.13 34.55 113.09 34.22 112.09 33.07 111.81 32.49 112.65 31.2 113.44 30.3 113.03 29.43 113.41 28.86 114.86 27.54 115.18"/><polygon class="cls-7" points="52.91 112.4 52.07 113.32 53.76 113.32 52.91 112.4"/><path class="cls-12" d="M45.35,9H43a.16.16,0,0,1-.16-.16A.16.16,0,0,1,43,8.64h2.33a.16.16,0,0,1,.16.16A.16.16,0,0,1,45.35,9Zm-.66-1.32H43a.16.16,0,0,1-.16-.16A.16.16,0,0,1,43,7.33h1.67a.16.16,0,0,1,.16.15A.16.16,0,0,1,44.69,7.64Zm1-1.32H43a.16.16,0,0,1-.16-.15A.16.16,0,0,1,43,6h2.63a.16.16,0,0,1,.16.16A.16.16,0,0,1,45.65,6.32Z" transform="translate(-40.11 -6.01)"/><path class="cls-12" d="M103,9a.16.16,0,0,1-.11-.05l-.62-.61a1.25,1.25,0,0,1-.78.27,1.27,1.27,0,1,1,1-.49l.61.61a.16.16,0,0,1,0,.22A.16.16,0,0,1,103,9Zm-1.51-2.64a1,1,0,1,0,1,1A1,1,0,0,0,101.51,6.32Z" transform="translate(-40.11 -6.01)"/><path class="cls-9" d="M40.11,125.51v8.93A1.57,1.57,0,0,0,41.69,136h62.67a1.57,1.57,0,0,0,1.57-1.57v-8.93Z" transform="translate(-40.11 -6.01)"/><path class="cls-13" d="M63,133.13h1.09v-1.6H63Zm.33-1.27h.43v.94h-.43Z" transform="translate(-40.11 -6.01)"/><path class="cls-14" d="M64.34,133.13h1.09v-2.22H64.34Zm.34-1.89h.42v1.56h-.42Z" transform="translate(-40.11 -6.01)"/><path class="cls-15" d="M65.67,129.84v3.29h1.09v-3.29Zm.75,3H66v-2.63h.42Z" transform="translate(-40.11 -6.01)"/><polygon class="cls-16" points="26.18 123.43 26.52 123.43 26.52 122.38 25.49 122.38 25.49 122.72 26.02 122.72 25.27 123.64 24.79 123.25 23.88 124.35 23.44 124.02 22.7 124.89 22.96 125.11 23.49 124.47 23.94 124.81 24.84 123.72 25.32 124.11 26.18 123.05 26.18 123.43"/><path class="cls-17" d="M78.9,128.94v3.64h4.62V129Zm4,.34L81.2,130.8l-1.7-1.53Zm.26,2.73L82,130.83l-.24.24,1.16,1.18H79.46l1.16-1.17-.24-.24L79.23,132v-2.52l2,1.77,2-1.76Z" transform="translate(-40.11 -6.01)"/><rect class="cls-17" x="47.44" y="129.62" width="0.83" height="0.33" transform="translate(-118.89 68.1) rotate(-46.02)"/><rect class="cls-17" x="9.69" y="124.91" width="0.33" height="0.26"/><polygon class="cls-17" points="9.69 126.93 7.89 126.93 7.89 126.19 8.54 126.19 8.54 126.73 8.88 126.73 8.88 125.86 7.56 125.86 7.56 126.93 6.74 126.93 6.74 124.91 6.41 124.91 6.41 127.27 10.03 127.27 10.03 125.5 9.69 125.5 9.69 126.93"/><path class="cls-17" d="M48.33,128.17l-2.47,2.56H50.8Zm0,.48L50,130.4H46.65Z" transform="translate(-40.11 -6.01)"/><path class="cls-17" d="M99,131.64a1.81,1.81,0,0,0-.59-.4,1.51,1.51,0,0,0,.79-1.33h0a1.54,1.54,0,0,0-.44-1.07,1.51,1.51,0,0,0-1.07-.45h0A1.52,1.52,0,0,0,96.57,131a1.7,1.7,0,0,0,.34.26,1.93,1.93,0,0,0-.59.4,1.86,1.86,0,0,0-.55,1.32h.33a1.59,1.59,0,0,1,.46-1.09,1.55,1.55,0,0,1,1.08-.44h0A1.53,1.53,0,0,1,99.17,133h.33A1.83,1.83,0,0,0,99,131.64Zm-2.5-1.73a1.15,1.15,0,0,1,.35-.84,1.17,1.17,0,0,1,.83-.34h0a1.18,1.18,0,1,1,0,2.36h0a1.18,1.18,0,0,1-1.18-1.18Z" transform="translate(-40.11 -6.01)"/><g class="cls-18"><rect class="cls-17" x="16.37" y="122.55" width="0.13" height="4.4"/><rect class="cls-17" x="49.24" y="122.55" width="0.13" height="4.4"/><rect class="cls-17" x="32.81" y="122.55" width="0.13" height="4.4"/></g><rect class="cls-19" x="19.86" y="119.5" width="9.78" height="0.47"/><rect class="cls-20" x="10" y="15.13" width="45.96" height="20.74" rx="1.12"/><rect class="cls-21" x="8.99" y="13.12" width="47.98" height="21.65" rx="1.17"/><rect class="cls-9" x="7.52" y="10.63" width="50.93" height="22.98" rx="1.24"/><path class="cls-22" d="M48,98.05a2.27,2.27,0,1,1-2.26-2.26A2.26,2.26,0,0,1,48,98.05Z" transform="translate(-40.11 -6.01)"/><path class="cls-23" d="M45.32,97.3l.15,0,.15,0h0l.06-.23s0,0,0,0l.14,0s0,0,0,0l-.06.22v0l.11,0s0,0,0,0a1.36,1.36,0,0,1,0-.17V97.2s0,0,0,0l.14,0h0l0,.18s0,0,0,.07,0,0,0,0l.16.08a.23.23,0,0,1,.11.11.25.25,0,0,1,0,.22.24.24,0,0,1-.07.13.21.21,0,0,1-.1.06h0l.05,0a.25.25,0,0,1,.11.16.29.29,0,0,1,0,.16.38.38,0,0,1-.08.17.37.37,0,0,1-.19.11,1,1,0,0,1-.29,0s0,0,0,0l-.06.23s0,0,0,0l-.13,0s0,0,0,0l.06-.23s0,0,0,0l-.11,0,0,.13,0,.12s0,0,0,0l-.14,0s0,0,0,0l.06-.23v0L45,98.52l0,0a.61.61,0,0,0,0-.12h0l.1,0s.06,0,.07-.05l.18-.71a.07.07,0,0,0-.05-.09l-.13,0a0,0,0,0,1,0,0,.94.94,0,0,0,0-.16Zm.23,1.15h0a2,2,0,0,0,.24,0,.26.26,0,0,0,.15,0,.15.15,0,0,0,.08-.22.39.39,0,0,0-.1-.08l-.27-.09s0,0,0,0l0,.13Zm.39-.47H46a.13.13,0,0,0,.09-.2.18.18,0,0,0-.1-.09l-.2-.06h0c0,.1,0,.19-.07.29s0,0,0,0h0A.58.58,0,0,0,45.94,98Z" transform="translate(-40.11 -6.01)"/><path class="cls-24" d="M48,108.42a2.27,2.27,0,1,1-2.27-2.27A2.27,2.27,0,0,1,48,108.42Z" transform="translate(-40.11 -6.01)"/><path class="cls-23" d="M46.09,108.7a.26.26,0,0,0-.15,0,.14.14,0,0,1-.12-.06v0a.14.14,0,0,1,0-.15v0a.14.14,0,0,1,.12-.06.32.32,0,0,0,.16,0,.38.38,0,1,0-.55-.38.34.34,0,0,0,.08.26.14.14,0,0,1,0,.15h0a.12.12,0,0,1-.1,0h0a.12.12,0,0,1-.11-.07.39.39,0,1,0,0,.35.11.11,0,0,1,.11-.07h0a.13.13,0,0,1,.11.05l0,0a.14.14,0,0,1,0,.14.39.39,0,0,0,0,.24.39.39,0,1,0,.77-.08A.38.38,0,0,0,46.09,108.7Z" transform="translate(-40.11 -6.01)"/><path class="cls-25" d="M48,118.78a2.27,2.27,0,1,1-2.27-2.27A2.27,2.27,0,0,1,48,118.78Z" transform="translate(-40.11 -6.01)"/><path class="cls-26" d="M45.73,117.72h0v.77h0s0,0,0,0l-.06,0-.1,0-.11,0-.09,0-.11,0-.09,0-.08,0h0l0,0c0-.09.1-.18.16-.27l.17-.29.17-.27.11-.19Z" transform="translate(-40.11 -6.01)"/><path class="cls-23" d="M46.38,118.8h0l-.16.09-.49.29h0v-.65h.05l.12.06.11,0,.1.05.1,0,.09,0,.07,0Z" transform="translate(-40.11 -6.01)"/><path class="cls-23" d="M45.73,119.84h0l-.19-.28-.2-.28-.2-.28-.05-.07h0l.27.16.31.19.06,0h0v.52Z" transform="translate(-40.11 -6.01)"/><path class="cls-27" d="M45.08,118.8h0l.1,0,.13,0,.1,0,.14-.07.1,0,.07,0h0v.66h0l-.62-.37Z" transform="translate(-40.11 -6.01)"/><path class="cls-27" d="M46.37,118.93h0c-.19.28-.39.55-.58.82l-.06.09h0v-.51h0l.13-.08.51-.3Z" transform="translate(-40.11 -6.01)"/><path class="cls-28" d="M45.73,118.51h0v-.77h0l.64,1.07h0l-.05,0,0,0,0,0,0,0,0,0-.07,0h0l-.05,0h0l-.07,0,0,0,0,0,0,0-.06,0Z" transform="translate(-40.11 -6.01)"/><rect class="cls-29" x="41.47" y="24.46" width="0.25" height="2.32"/><polygon class="cls-29" points="41.59 26.96 40.75 26.1 40.93 25.93 41.59 26.6 42.25 25.93 42.43 26.1 41.59 26.96"/></g><g id="Text"><path class="cls-12" d="M44.45,79.56a.49.49,0,0,1,0,.19.4.4,0,0,1-.12.16.46.46,0,0,1-.21,0,.38.38,0,0,1-.22-.06.37.37,0,0,1-.13-.17.47.47,0,0,1,0-.17V79a.28.28,0,0,1,.1-.23.36.36,0,0,1,.26-.09.48.48,0,0,1,.18,0,.32.32,0,0,1,.12.11.3.3,0,0,1,.05.16v0h-.15v0h0a.19.19,0,0,0,0-.13.21.21,0,0,0-.13-.05.2.2,0,0,0-.14.05.18.18,0,0,0-.06.14v.22h0a.29.29,0,0,1,.22-.08.31.31,0,0,1,.3.16A.51.51,0,0,1,44.45,79.56Zm-.17,0a.29.29,0,0,0,0-.14.19.19,0,0,0-.18-.1.17.17,0,0,0-.1,0,.16.16,0,0,0-.07.07.33.33,0,0,0,0,.15.28.28,0,0,0,0,.13.19.19,0,0,0,.18.11.18.18,0,0,0,.17-.11A.29.29,0,0,0,44.28,79.56Z" transform="translate(-40.11 -6.01)"/><path class="cls-12" d="M45.34,79.56a.47.47,0,0,1,0,.17.27.27,0,0,1-.12.17A.38.38,0,0,1,45,80a.34.34,0,0,1-.22-.07.37.37,0,0,1-.13-.17.51.51,0,0,1,0-.13,0,0,0,0,1,0,0h.11a0,0,0,0,1,0,0,.32.32,0,0,1,0,.08.3.3,0,0,0,.07.11.21.21,0,0,0,.12,0,.18.18,0,0,0,.11,0,.27.27,0,0,0,.07-.08.68.68,0,0,0,0-.14.38.38,0,0,0,0-.16.16.16,0,0,0-.17-.11h-.1l-.06-.07v0l.29-.31s0,0,0,0h-.49v-.12h.71v.11a0,0,0,0,1,0,0l-.27.29h0a.28.28,0,0,1,.25.18A.64.64,0,0,1,45.34,79.56Z" transform="translate(-40.11 -6.01)"/><path class="cls-12" d="M46.29,79.56a.33.33,0,0,1,0,.15.29.29,0,0,1-.12.18.37.37,0,0,1-.23.07.4.4,0,0,1-.22-.06.32.32,0,0,1-.12-.18.25.25,0,0,1,0-.07h0a0,0,0,0,1,0,0h.12s0,0,0,0a0,0,0,0,0,0,0,.2.2,0,0,0,.06.11.27.27,0,0,0,.12,0,.16.16,0,0,0,.12,0,.14.14,0,0,0,.07-.11.22.22,0,0,0,0-.09.21.21,0,0,0,0-.11.2.2,0,0,0-.06-.11.25.25,0,0,0-.13,0l-.11,0a.14.14,0,0,0-.07.08l0,0h-.15v-.69h.66s0,0,0,0h0v.12h-.52v.37s0,0,0,0a.32.32,0,0,1,.22-.07.37.37,0,0,1,.21.06.3.3,0,0,1,.12.17A.88.88,0,0,1,46.29,79.56Z" transform="translate(-40.11 -6.01)"/><path class="cls-12" d="M46.58,79.86a.34.34,0,0,1-.11-.27v-.52a.37.37,0,0,1,.11-.27.44.44,0,0,1,.56,0,.37.37,0,0,1,.11.27v.52a.34.34,0,0,1-.11.27.44.44,0,0,1-.56,0Zm.44-.1a.21.21,0,0,0,.06-.16v-.53a.22.22,0,1,0-.44,0v.53a.23.23,0,0,0,.38.16Z" transform="translate(-40.11 -6.01)"/><path class="cls-12" d="M44.29,73.22a.36.36,0,0,1,0,.19.28.28,0,0,1-.12.16.46.46,0,0,1-.21.05.4.4,0,0,1-.22-.06.37.37,0,0,1-.13-.17.79.79,0,0,1,0-.17v-.54a.29.29,0,0,1,.1-.23.37.37,0,0,1,.26-.08.48.48,0,0,1,.18,0,.36.36,0,0,1,.13.11.29.29,0,0,1,0,.16v0h-.16v0a.15.15,0,0,0-.05-.13.19.19,0,0,0-.13,0,.17.17,0,0,0-.19.19v.22h0a.26.26,0,0,1,.22-.08.31.31,0,0,1,.29.16A.51.51,0,0,1,44.29,73.22Zm-.17,0a.32.32,0,0,0,0-.14.17.17,0,0,0-.17-.1.2.2,0,0,0-.11,0,.11.11,0,0,0-.06.07.33.33,0,0,0,0,.15.51.51,0,0,0,0,.13.19.19,0,0,0,.07.08.2.2,0,0,0,.11,0,.17.17,0,0,0,.18-.11A.52.52,0,0,0,44.12,73.22Z" transform="translate(-40.11 -6.01)"/><path class="cls-12" d="M45.26,73.13a0,0,0,0,1,0,0v.1s0,0,0,0,0,0,0,0h-.06s0,0,0,0v.29s0,0,0,0H45s0,0,0,0v-.29s0,0,0,0h-.52s0,0,0,0,0,0,0,0v-.08a0,0,0,0,1,0,0l.34-.74,0,0h.12s0,0,0,0h0l-.32.71H45v-.25s0,0,0,0h.15s0,0,0,0v.25h.09Z" transform="translate(-40.11 -6.01)"/><path class="cls-12" d="M45.58,73.52a.33.33,0,0,1-.1-.27v-.52a.36.36,0,0,1,.1-.27.43.43,0,0,1,.28-.1.44.44,0,0,1,.29.1.36.36,0,0,1,.1.27v.52a.33.33,0,0,1-.1.27.4.4,0,0,1-.29.11A.39.39,0,0,1,45.58,73.52Zm.45-.1a.21.21,0,0,0,.06-.16v-.53a.21.21,0,0,0-.06-.16.24.24,0,0,0-.17-.06.2.2,0,0,0-.15.06.21.21,0,0,0-.06.16v.53a.21.21,0,0,0,.06.16.2.2,0,0,0,.15.06A.24.24,0,0,0,46,73.42Z" transform="translate(-40.11 -6.01)"/><path class="cls-12" d="M46.58,73.52a.34.34,0,0,1-.11-.27v-.52a.37.37,0,0,1,.11-.27.44.44,0,0,1,.56,0,.37.37,0,0,1,.11.27v.52a.34.34,0,0,1-.11.27.41.41,0,0,1-.56,0Zm.44-.1a.21.21,0,0,0,.06-.16v-.53a.22.22,0,1,0-.44,0v.53a.23.23,0,0,0,.38.16Z" transform="translate(-40.11 -6.01)"/><path class="cls-12" d="M44.37,66.89a.48.48,0,0,1,0,.18.4.4,0,0,1-.12.16.46.46,0,0,1-.21,0,.38.38,0,0,1-.22-.06.33.33,0,0,1-.13-.17.44.44,0,0,1,0-.17v-.54a.32.32,0,0,1,.09-.23A.4.4,0,0,1,44,66a.34.34,0,0,1,.18,0,.29.29,0,0,1,.12.1.3.3,0,0,1,.05.16v0s0,0,0,0h-.16v0a.17.17,0,0,0-.18-.18.2.2,0,0,0-.14,0,.18.18,0,0,0-.06.14v.22h0a.35.35,0,0,1,.52.08A.52.52,0,0,1,44.37,66.89Zm-.17,0a.33.33,0,0,0,0-.15.19.19,0,0,0-.18-.1.17.17,0,0,0-.1,0,.19.19,0,0,0-.07.08.26.26,0,0,0,0,.14.25.25,0,0,0,0,.13.12.12,0,0,0,.06.08.23.23,0,0,0,.11,0,.17.17,0,0,0,.18-.11A.28.28,0,0,0,44.2,66.89Z" transform="translate(-40.11 -6.01)"/><path class="cls-12" d="M45.34,66.79v.12a0,0,0,0,1,0,0h-.09a0,0,0,0,0,0,0v.31h-.16V67a0,0,0,0,0,0,0h-.55V66.8l.34-.74,0,0H45a0,0,0,0,1,0,0h0l-.33.71h.37v-.27h.16v.27h.1Z" transform="translate(-40.11 -6.01)"/><path class="cls-12" d="M46.29,66.88a.41.41,0,0,1,0,.16.3.3,0,0,1-.12.17.37.37,0,0,1-.23.07.4.4,0,0,1-.22-.06.3.3,0,0,1-.12-.17.45.45,0,0,1,0-.08h0s0,0,0,0h.12a0,0,0,0,1,0,0v0a.2.2,0,0,0,.06.11.28.28,0,0,0,.12,0,.21.21,0,0,0,.12,0A.19.19,0,0,0,46.1,67a.31.31,0,0,0,0-.1.22.22,0,0,0,0-.11.2.2,0,0,0-.06-.11.25.25,0,0,0-.13,0l-.11,0a.18.18,0,0,0-.07.08l0,0h-.15v-.7h.68s0,0,0,0v.09s0,0,0,0h-.52v.37h0a.38.38,0,0,1,.22-.07.37.37,0,0,1,.21.06.3.3,0,0,1,.12.17A1,1,0,0,1,46.29,66.88Z" transform="translate(-40.11 -6.01)"/><path class="cls-12" d="M46.58,67.19a.38.38,0,0,1-.11-.28v-.52a.37.37,0,0,1,.11-.27.44.44,0,0,1,.56,0,.37.37,0,0,1,.11.27v.52a.38.38,0,0,1-.11.28.44.44,0,0,1-.56,0Zm.44-.11a.21.21,0,0,0,.06-.16v-.53a.22.22,0,1,0-.44,0v.53a.23.23,0,0,0,.38.16Z" transform="translate(-40.11 -6.01)"/><path class="cls-12" d="M44.37,60.55a.58.58,0,0,1,0,.19.37.37,0,0,1-.13.15.39.39,0,0,1-.2,0,.38.38,0,0,1-.22-.06.28.28,0,0,1-.13-.17.4.4,0,0,1,0-.17V60a.33.33,0,0,1,.1-.23.45.45,0,0,1,.26-.08.41.41,0,0,1,.19,0,.29.29,0,0,1,.12.1.3.3,0,0,1,.05.16v0h-.16v0a.21.21,0,0,0,0-.13.22.22,0,0,0-.14-.05.2.2,0,0,0-.14.06.17.17,0,0,0-.05.13v.22h0a.31.31,0,0,1,.22-.08.29.29,0,0,1,.29.16A.43.43,0,0,1,44.37,60.55Zm-.16,0a.33.33,0,0,0,0-.15.18.18,0,0,0-.17-.1.15.15,0,0,0-.1,0,.14.14,0,0,0-.07.08.33.33,0,0,0,0,.15.37.37,0,0,0,0,.12.22.22,0,0,0,.07.09.2.2,0,0,0,.11,0,.17.17,0,0,0,.18-.11A.25.25,0,0,0,44.21,60.55Z" transform="translate(-40.11 -6.01)"/><path class="cls-12" d="M45.29,60.55a.77.77,0,0,1,0,.15.39.39,0,0,1-.57.18.37.37,0,0,1-.13-.17s0-.06,0-.08h0a0,0,0,0,1,0,0h.12s0,0,0,0v0a.23.23,0,0,0,.07.1.2.2,0,0,0,.24,0,.24.24,0,0,0,.06-.11.3.3,0,0,0,0-.1.45.45,0,0,0,0-.11.14.14,0,0,0-.07-.1.16.16,0,0,0-.12,0,.2.2,0,0,0-.11,0,.14.14,0,0,0-.08.07s0,0,0,0h-.12s0,0,0,0h0v-.67s0,0,0,0h.68v.13h-.52v.36h0a.38.38,0,0,1,.21-.07.37.37,0,0,1,.21.06.29.29,0,0,1,.12.18A.78.78,0,0,1,45.29,60.55Z" transform="translate(-40.11 -6.01)"/><path class="cls-12" d="M45.58,60.85a.36.36,0,0,1-.1-.27v-.52a.33.33,0,0,1,.1-.27.39.39,0,0,1,.28-.1.41.41,0,0,1,.29.1.33.33,0,0,1,.1.27v.52a.36.36,0,0,1-.1.27.46.46,0,0,1-.29.1A.43.43,0,0,1,45.58,60.85Zm.44-.11a.2.2,0,0,0,.06-.15v-.54a.21.21,0,0,0-.22-.22.25.25,0,0,0-.16.06.21.21,0,0,0-.06.16v.54a.2.2,0,0,0,.06.15.25.25,0,0,0,.16.06A.21.21,0,0,0,46,60.74Z" transform="translate(-40.11 -6.01)"/><path class="cls-12" d="M46.58,60.85a.37.37,0,0,1-.11-.27v-.52a.34.34,0,0,1,.11-.27.44.44,0,0,1,.56,0,.34.34,0,0,1,.11.27v.52a.37.37,0,0,1-.11.27.44.44,0,0,1-.56,0Zm.44-.11a.2.2,0,0,0,.06-.15v-.54a.22.22,0,1,0-.44,0v.54a.2.2,0,0,0,.06.15.24.24,0,0,0,.32,0Z" transform="translate(-40.11 -6.01)"/><path class="cls-12" d="M44.45,54.21a.41.41,0,0,1,0,.19.35.35,0,0,1-.12.15.36.36,0,0,1-.21.05.38.38,0,0,1-.22-.06.34.34,0,0,1-.13-.16.9.9,0,0,1,0-.18v-.54a.29.29,0,0,1,.1-.23.4.4,0,0,1,.26-.08.34.34,0,0,1,.18,0,.27.27,0,0,1,.13.1.29.29,0,0,1,0,.16v.05h-.15a0,0,0,0,1,0,0v0a.13.13,0,0,0,0-.12.15.15,0,0,0-.13,0,.17.17,0,0,0-.14,0,.15.15,0,0,0,0,.13v.22h0a.29.29,0,0,1,.21-.08.31.31,0,0,1,.3.16A.56.56,0,0,1,44.45,54.21Zm-.17,0a.33.33,0,0,0,0-.15.19.19,0,0,0-.17-.1A.2.2,0,0,0,44,54a.19.19,0,0,0-.07.08.61.61,0,0,0,0,.15.22.22,0,0,0,0,.12.16.16,0,0,0,.07.09.2.2,0,0,0,.11,0,.17.17,0,0,0,.17-.12A.25.25,0,0,0,44.28,54.21Z" transform="translate(-40.11 -6.01)"/><path class="cls-12" d="M45.37,54.21a.77.77,0,0,1,0,.15.46.46,0,0,1-.13.18.41.41,0,0,1-.23.06.43.43,0,0,1-.22-.06.3.3,0,0,1-.12-.17.31.31,0,0,1,0-.08h0s0,0,0,0h.12a0,0,0,0,1,0,0v0a.14.14,0,0,0,.07.1.15.15,0,0,0,.11,0,.21.21,0,0,0,.12,0,.19.19,0,0,0,.07-.11.31.31,0,0,0,0-.1.22.22,0,0,0,0-.11.12.12,0,0,0-.06-.1A.18.18,0,0,0,45,54a.23.23,0,0,0-.11,0,.12.12,0,0,0-.07.07l0,0h-.15v-.69h.68s0,0,0,0v.09s0,0,0,0h-.5s0,0,0,0v.36h0a.29.29,0,0,1,.21-.08.37.37,0,0,1,.21.06.32.32,0,0,1,.12.18A.78.78,0,0,1,45.37,54.21Z" transform="translate(-40.11 -6.01)"/><path class="cls-12" d="M46.28,54.21a.39.39,0,0,1,0,.15.36.36,0,0,1-.12.18.44.44,0,0,1-.23.06.4.4,0,0,1-.22-.06.37.37,0,0,1-.13-.17.25.25,0,0,1,0-.08h0s0,0,0,0h.12s0,0,0,0v0a.17.17,0,0,0,.06.1.17.17,0,0,0,.12,0,.21.21,0,0,0,.12,0,.19.19,0,0,0,.07-.11.31.31,0,0,0,0-.1.45.45,0,0,0,0-.11A.14.14,0,0,0,46,54a.22.22,0,0,0-.24,0,.12.12,0,0,0-.07.07l0,0h-.15v-.69h.68v.11a0,0,0,0,1,0,0h-.51a0,0,0,0,0,0,0v.36h0a.32.32,0,0,1,.21-.08.38.38,0,0,1,.22.06.37.37,0,0,1,.11.18A.41.41,0,0,1,46.28,54.21Z" transform="translate(-40.11 -6.01)"/><path class="cls-12" d="M46.58,54.51a.37.37,0,0,1-.11-.27v-.52a.34.34,0,0,1,.11-.27.44.44,0,0,1,.56,0,.34.34,0,0,1,.11.27v.52a.4.4,0,0,1-.67.27ZM47,54.4a.2.2,0,0,0,.06-.15v-.54a.22.22,0,1,0-.44,0v.54a.2.2,0,0,0,.06.15.24.24,0,0,0,.32,0Z" transform="translate(-40.11 -6.01)"/><path class="cls-29" d="M46.08,46.9h.21a0,0,0,0,1,0,0v1.53a0,0,0,0,1,0,0h-.2a0,0,0,0,1,0,0v-1.3h0l-.21.06h0s0,0,0,0v-.13s0,0,0,0l.22-.1Z" transform="translate(-40.11 -6.01)"/><path class="cls-29" d="M47.55,46.9h.2a0,0,0,0,1,0,0v1.53a0,0,0,0,1,0,0h-.2a0,0,0,0,1,0,0v-.64l0,0h-.57l0,0v.64a0,0,0,0,1,0,0h-.2a0,0,0,0,1,0,0V46.93a0,0,0,0,1,0,0h.2a0,0,0,0,1,0,0v.63h.61v-.63A0,0,0,0,1,47.55,46.9Z" transform="translate(-40.11 -6.01)"/><path class="cls-29" d="M56.56,46.9h.21s0,0,0,0v1.53s0,0,0,0h-.19s0,0,0,0v-1.3h0l-.22.06h0s0,0,0,0v-.13s0,0,0,0l.22-.1Z" transform="translate(-40.11 -6.01)"/><path class="cls-29" d="M57.13,48.46V46.93s0,0,0,0h.54A.84.84,0,0,1,58,47a.44.44,0,0,1,.19.17.48.48,0,0,1,.07.24V48a.48.48,0,0,1-.07.24.52.52,0,0,1-.19.17.84.84,0,0,1-.29.05h-.54S57.13,48.48,57.13,48.46Zm.28-.2h.31a.26.26,0,0,0,.2-.07A.28.28,0,0,0,58,48v-.57a.28.28,0,0,0-.07-.21.26.26,0,0,0-.2-.08h-.31s0,0,0,0v1.11Z" transform="translate(-40.11 -6.01)"/><path class="cls-29" d="M66.86,46.9h.2s0,0,0,0v1.53s0,0,0,0h-.19s0,0,0,0v-1.3h0l-.22.06h0v-.15s0,0,0,0l.22-.1Z" transform="translate(-40.11 -6.01)"/><path class="cls-29" d="M67.72,48.46l-.41-1.52h0v0h.23s0,0,0,0l.26,1h0l.24-1s0,0,0,0h.21s0,0,0,0l.26,1h0l.25-1s0,0,0,0h.22s0,0,0,0l-.38,1.52a0,0,0,0,1,0,0h-.19s0,0,0,0l-.27-1.07h0L68,48.46s0,0,0,0h-.18S67.72,48.48,67.72,48.46Z" transform="translate(-40.11 -6.01)"/><path class="cls-29" d="M77.53,46.9h.2s0,0,0,0v1.53s0,0,0,0h-.19s0,0,0,0v-1.3h0l-.22.06h0v-.15s0,0,0,0l.22-.1Z" transform="translate(-40.11 -6.01)"/><path class="cls-29" d="M78.09,48.46V46.93s0,0,0,0h.19s0,0,.05,0l.35.58h0l.36-.58s0,0,.05,0h.19s0,0,0,0v1.53s0,0,0,0h-.19s0,0,0,0V47.38h0l-.28.45a.05.05,0,0,1,0,0h-.09l0,0-.27-.45h0v1.08s0,0,0,0h-.19S78.09,48.48,78.09,48.46Z" transform="translate(-40.11 -6.01)"/><path class="cls-29" d="M88,46.9h.2s0,0,0,0v1.53s0,0,0,0H88s0,0,0,0v-1.3h0l-.22.06h0v-.15s0,0,0,0l.22-.1Z" transform="translate(-40.11 -6.01)"/><path class="cls-29" d="M89,48.45v-.6h0l-.46-.9v0s0,0,0,0h.2l0,0,.31.63a0,0,0,0,0,0,0,0,0,0,0,0,0,0l.31-.63,0,0h.21s0,0,0,0v0l-.46.9h0v.6s0,0,0,0H89S89,48.48,89,48.45Z" transform="translate(-40.11 -6.01)"/><path class="cls-29" d="M98.31,48.46l-.07-.23h-.63l-.07.23s0,0,0,0h-.24v0l.49-1.52s0,0,0,0h.26s0,0,0,0l.5,1.52v0s0,0,0,0h-.21S98.31,48.48,98.31,48.46ZM97.69,48h.46l0,0-.24-.77h0l-.23.77S97.68,48,97.69,48Z" transform="translate(-40.11 -6.01)"/><path class="cls-29" d="M98.83,48.46V46.93a0,0,0,0,1,0,0h.2a0,0,0,0,1,0,0v1.32h.77a0,0,0,0,1,0,0v.16s0,0,0,0h-1A0,0,0,0,1,98.83,48.46Z" transform="translate(-40.11 -6.01)"/><path class="cls-29" d="M100.13,48.46V46.93s0,0,0,0h.19s0,0,0,0v1.32h.76a0,0,0,0,1,0,0v.16s0,0,0,0h-1S100.13,48.48,100.13,48.46Z" transform="translate(-40.11 -6.01)"/><g class="cls-30"><path class="cls-12" d="M43.6,85.75a0,0,0,0,1,0,0V84.56s0,0,0,0h.15s0,0,0,0v1a0,0,0,0,0,0,0h.61s0,0,0,0v.1a0,0,0,0,1,0,0s0,0,0,0h-.74S43.6,85.76,43.6,85.75Z" transform="translate(-40.11 -6.01)"/><path class="cls-12" d="M45.09,84.89a.32.32,0,0,1,.12.11.24.24,0,0,1,0,.15v.59a0,0,0,0,1,0,0s0,0,0,0h-.14v0h0a.41.41,0,0,1-.11.07.4.4,0,0,1-.15,0,.33.33,0,0,1-.21-.07.22.22,0,0,1-.08-.2.26.26,0,0,1,.09-.21.38.38,0,0,1,.27-.08h.19s0,0,0,0v0A.16.16,0,0,0,45,85a.2.2,0,0,0-.14,0,.18.18,0,0,0-.11,0,.11.11,0,0,0-.06.07s0,0,0,0h-.15s0,0,0,0a.22.22,0,0,1,.11-.16.43.43,0,0,1,.24-.07A.58.58,0,0,1,45.09,84.89Zm-.08.69a.13.13,0,0,0,.07-.12v-.1s0,0,0,0h-.16a.25.25,0,0,0-.16,0,.12.12,0,0,0-.07.11.12.12,0,0,0,0,.1.21.21,0,0,0,.12,0A.22.22,0,0,0,45,85.58Z" transform="translate(-40.11 -6.01)"/><path class="cls-12" d="M45.61,85.74a.23.23,0,0,1-.12-.09.17.17,0,0,1-.05-.12h0v0h.15a.12.12,0,0,0,.06.09.3.3,0,0,0,.26,0,.11.11,0,0,0,0-.09.08.08,0,0,0,0-.07l-.14-.06-.17,0a.34.34,0,0,1-.12-.09.18.18,0,0,1,0-.13.23.23,0,0,1,.09-.19.37.37,0,0,1,.25-.07.57.57,0,0,1,.18,0,.27.27,0,0,1,.12.09.28.28,0,0,1,0,.13s0,0,0,0H46a.1.1,0,0,0,0-.08.2.2,0,0,0-.14,0,.21.21,0,0,0-.12,0,.1.1,0,0,0,0,.08.09.09,0,0,0,0,.08l.15.06.17.05.11.08a.23.23,0,0,1-.05.33.37.37,0,0,1-.25.07A.48.48,0,0,1,45.61,85.74Z" transform="translate(-40.11 -6.01)"/><path class="cls-12" d="M46.77,85h-.21v.45a.11.11,0,0,0,.14.14h.06v.11s0,0,0,0h-.07a.41.41,0,0,1-.21-.05.21.21,0,0,1-.06-.17V85h-.13v-.13h.12s0,0,0,0v-.22h.15v.22s0,0,0,0h.2V85Z" transform="translate(-40.11 -6.01)"/><path class="cls-12" d="M48,84.58a.3.3,0,0,1,.13.12.41.41,0,0,1,0,.19.34.34,0,0,1,0,.18.33.33,0,0,1-.13.13.58.58,0,0,1-.19,0h-.31s0,0,0,0v.49a0,0,0,0,1,0,0s0,0,0,0h-.11s0,0,0,0a0,0,0,0,1,0,0V84.56s0,0,0,0,0,0,0,0h.46A.38.38,0,0,1,48,84.58ZM48,85a.18.18,0,0,0,.05-.15.2.2,0,0,0-.05-.15.23.23,0,0,0-.16-.06h-.3v.4h.3A.23.23,0,0,0,48,85Z" transform="translate(-40.11 -6.01)"/><path class="cls-12" d="M48.86,84.88s0,0,0,0l0,.12s0,0,0,0h-.1a.24.24,0,0,0-.14,0,.22.22,0,0,0-.05.14v.51a0,0,0,0,1,0,0s0,0,0,0H48.4s0,0,0,0h0v-.87h.15a0,0,0,0,1,0,0V85h0a.24.24,0,0,1,.21-.12Z" transform="translate(-40.11 -6.01)"/><path class="cls-12" d="M49,84.7a.1.1,0,0,1,0-.08.12.12,0,0,1,.11-.11.08.08,0,0,1,.08,0,.08.08,0,0,1,0,.07.08.08,0,0,1,0,.08s0,0-.08,0A.08.08,0,0,1,49,84.7Zm0,1a0,0,0,0,1,0,0v-.85a0,0,0,0,1,0,0h.15v.87h-.15A0,0,0,0,1,49.05,85.75Z" transform="translate(-40.11 -6.01)"/><path class="cls-12" d="M49.59,85.71a.46.46,0,0,1-.13-.18,1.27,1.27,0,0,1,0-.22,1.25,1.25,0,0,1,0-.21.36.36,0,0,1,.14-.18.41.41,0,0,1,.22-.07.42.42,0,0,1,.23.07.27.27,0,0,1,.13.17.09.09,0,0,1,0,0h0s0,0,0,0h-.12s0,0,0,0v0A.17.17,0,0,0,50,85a.18.18,0,0,0-.13,0,.2.2,0,0,0-.13,0,.21.21,0,0,0-.07.11.76.76,0,0,0,0,.16.81.81,0,0,0,0,.17.3.3,0,0,0,.07.11.2.2,0,0,0,.13,0,.18.18,0,0,0,.13,0,.17.17,0,0,0,.07-.1h0s0,0,0,0h0l.12,0s0,0,0,0v0a.27.27,0,0,1-.13.17.42.42,0,0,1-.23.07A.45.45,0,0,1,49.59,85.71Z" transform="translate(-40.11 -6.01)"/><path class="cls-12" d="M51,85.52h0l.08,0s0,0,0,0h0a.47.47,0,0,1-.14.14.42.42,0,0,1-.2,0,.37.37,0,0,1-.21-.06.34.34,0,0,1-.13-.16.62.62,0,0,1,0-.25.84.84,0,0,1,0-.19.38.38,0,0,1,.13-.19.36.36,0,0,1,.23-.08.32.32,0,0,1,.25.09.45.45,0,0,1,.12.25.81.81,0,0,1,0,.16s0,0,0,0h-.56s0,0,0,0,0,.07,0,.09a.23.23,0,0,0,.08.11.23.23,0,0,0,.14,0A.22.22,0,0,0,51,85.52ZM50.61,85a.14.14,0,0,0-.07.1.87.87,0,0,0,0,.1h.41a0,0,0,0,0,0,0s0-.07,0-.09a.26.26,0,0,0-.07-.11.2.2,0,0,0-.13,0A.16.16,0,0,0,50.61,85Z" transform="translate(-40.11 -6.01)"/></g><path class="cls-12" d="M44.71,89.17a.78.78,0,0,1-.05.28.48.48,0,0,1-.19.23.62.62,0,0,1-.31.08.58.58,0,0,1-.33-.09.44.44,0,0,1-.19-.25.71.71,0,0,1,0-.26v-.81a.42.42,0,0,1,.15-.34.56.56,0,0,1,.39-.13.67.67,0,0,1,.28.06.35.35,0,0,1,.18.16.48.48,0,0,1,.07.24v0a0,0,0,0,1,0,0h-.23s0,0,0,0v0a.26.26,0,0,0-.07-.19.27.27,0,0,0-.2-.07.28.28,0,0,0-.21.07.3.3,0,0,0-.08.21v.32h0a.41.41,0,0,1,.32-.12.47.47,0,0,1,.45.24A.89.89,0,0,1,44.71,89.17Zm-.25,0a.48.48,0,0,0-.05-.22.27.27,0,0,0-.26-.15.29.29,0,0,0-.16,0,.4.4,0,0,0-.1.12.67.67,0,0,0,0,.22.54.54,0,0,0,0,.19.26.26,0,0,0,.11.12.29.29,0,0,0,.43-.12A.59.59,0,0,0,44.46,89.17Z" transform="translate(-40.11 -6.01)"/><path class="cls-12" d="M45.15,89.62a.53.53,0,0,1-.16-.41v-.78a.51.51,0,0,1,.16-.4A.66.66,0,0,1,46,88a.51.51,0,0,1,.16.4v.78a.53.53,0,0,1-.16.41.66.66,0,0,1-.84,0Zm.66-.16a.32.32,0,0,0,.09-.23v-.81a.32.32,0,0,0-.09-.24.4.4,0,0,0-.48,0,.32.32,0,0,0-.09.24v.81a.32.32,0,0,0,.09.23.37.37,0,0,0,.48,0Z" transform="translate(-40.11 -6.01)"/><path class="cls-12" d="M47.54,89.17a.77.77,0,0,1,0,.25.48.48,0,0,1-.19.25.57.57,0,0,1-.32.09.52.52,0,0,1-.33-.1.52.52,0,0,1-.2-.26,1.06,1.06,0,0,1,0-.2s0,0,0,0h.18s0,0,0,0a.31.31,0,0,0,0,.13.21.21,0,0,0,.1.15.28.28,0,0,0,.18.06.27.27,0,0,0,.16,0,.26.26,0,0,0,.1-.13.52.52,0,0,0,0-.21.57.57,0,0,0,0-.24.25.25,0,0,0-.26-.17.16.16,0,0,0-.09,0h0l-.09-.11v0s0,0,0,0l.45-.47s0,0,0,0h-.73s0,0,0,0v-.14s0,0,0,0h1.06s0,0,0,0v.15a.08.08,0,0,1,0,0l-.4.44h0a.4.4,0,0,1,.37.27A.67.67,0,0,1,47.54,89.17Z" transform="translate(-40.11 -6.01)"/><path class="cls-12" d="M49,89.17a.78.78,0,0,1-.05.28.48.48,0,0,1-.19.23.62.62,0,0,1-.31.08.58.58,0,0,1-.33-.09.44.44,0,0,1-.19-.25.71.71,0,0,1,0-.26v-.81A.42.42,0,0,1,48,88a.56.56,0,0,1,.39-.13.67.67,0,0,1,.28.06.4.4,0,0,1,.18.16.48.48,0,0,1,.07.24v0a0,0,0,0,1,0,0h-.24s0,0,0,0v0a.26.26,0,0,0-.07-.19.27.27,0,0,0-.2-.07.28.28,0,0,0-.21.07.3.3,0,0,0-.08.21v.32h0a.41.41,0,0,1,.32-.12.45.45,0,0,1,.44.24A.74.74,0,0,1,49,89.17Zm-.26,0a.48.48,0,0,0,0-.22.27.27,0,0,0-.26-.15.26.26,0,0,0-.26.16.48.48,0,0,0,0,.22.54.54,0,0,0,0,.19.26.26,0,0,0,.11.12.29.29,0,0,0,.43-.12A.6.6,0,0,0,48.7,89.17Z" transform="translate(-40.11 -6.01)"/><path class="cls-12" d="M49.29,89.69a.21.21,0,0,1,0-.13.18.18,0,0,1,.06-.13.19.19,0,0,1,.13-.05.21.21,0,0,1,.13.05.17.17,0,0,1,0,.26.19.19,0,0,1-.13,0A.22.22,0,0,1,49.29,89.69Z" transform="translate(-40.11 -6.01)"/><path class="cls-12" d="M50.14,89.7l.59-1.57h-.65v.11a0,0,0,0,1,0,0h-.19a0,0,0,0,1,0,0v-.3a0,0,0,0,1,0,0H51a0,0,0,0,1,0,0v.2l-.59,1.57a.05.05,0,0,1,0,0h-.19S50.13,89.73,50.14,89.7Z" transform="translate(-40.11 -6.01)"/><path class="cls-12" d="M51.21,89.73a0,0,0,0,1,0,0v-.13a.13.13,0,0,1,0-.06c.1-.1.2-.22.31-.35l.2-.24.08-.1a.85.85,0,0,0,.25-.45.25.25,0,0,0-.09-.2.29.29,0,0,0-.22-.07.28.28,0,0,0-.21.07.22.22,0,0,0-.08.2v.07s0,0,0,0H51.2a0,0,0,0,1,0,0v-.1a.41.41,0,0,1,.08-.24.52.52,0,0,1,.19-.17.87.87,0,0,1,.28-.05.7.7,0,0,1,.3.06.41.41,0,0,1,.19.18.4.4,0,0,1,.07.24.88.88,0,0,1-.24.52c-.1.13-.27.34-.52.63,0,0,0,0,0,0h.8a0,0,0,0,1,0,0v.14a0,0,0,0,1,0,0H51.21Z" transform="translate(-40.11 -6.01)"/><g class="cls-30"><path class="cls-12" d="M57.53,85.75h0v-.1a0,0,0,0,1,0,0l.2-.23.14-.17,0-.06a.54.54,0,0,0,.16-.3.17.17,0,0,0-.05-.14.25.25,0,0,0-.15,0,.17.17,0,0,0-.14.06.15.15,0,0,0-.06.13v.06h-.16a0,0,0,0,1,0,0v-.06a.32.32,0,0,1,.06-.17.27.27,0,0,1,.13-.1.34.34,0,0,1,.18,0,.42.42,0,0,1,.2,0,.37.37,0,0,1,.13.12.29.29,0,0,1,0,.16.61.61,0,0,1-.15.35l-.35.42h.53s0,0,0,0v.1a0,0,0,0,1,0,0s0,0,0,0h-.74Z" transform="translate(-40.11 -6.01)"/><path class="cls-12" d="M59.28,85.29s0,0,0,0v.1a0,0,0,0,1,0,0,0,0,0,0,1,0,0h-.08v.3a0,0,0,0,1,0,0s0,0,0,0h-.11s0,0,0,0a0,0,0,0,1,0,0v-.3h-.53s0,0,0,0h0v-.08s0,0,0,0l.34-.74,0,0H59s0,0,0,0v0l-.32.7H59s0,0,0,0V85h.15v.27s0,0,0,0h.07A0,0,0,0,1,59.28,85.29Z" transform="translate(-40.11 -6.01)"/><path class="cls-12" d="M60.14,84.94a.33.33,0,0,1,.08.22v.58h-.17V85.2a.19.19,0,0,0-.18-.2.21.21,0,0,0-.13,0,.23.23,0,0,0-.06.12v.57a0,0,0,0,1,0,0s0,0,0,0h-.11s0,0,0,0h0V84.56s0,0,0,0h.15s0,0,0,0v.38h0a.27.27,0,0,1,.22-.09A.3.3,0,0,1,60.14,84.94Z" transform="translate(-40.11 -6.01)"/><path class="cls-12" d="M61,85.73a.34.34,0,0,1-.15-.14.43.43,0,0,1-.06-.22v-.45a.37.37,0,0,1,.06-.21.29.29,0,0,1,.15-.14.51.51,0,0,1,.44,0,.28.28,0,0,1,.15.13.37.37,0,0,1,.06.21s0,0,0,0h-.14v0a.29.29,0,0,0-.07-.18.29.29,0,0,0-.38,0,.24.24,0,0,0-.07.18v.47a.21.21,0,0,0,.07.18.26.26,0,0,0,.45-.18v0h.17a.36.36,0,0,1-.06.2.29.29,0,0,1-.15.14.51.51,0,0,1-.44,0Z" transform="translate(-40.11 -6.01)"/><path class="cls-12" d="M62.51,84.94a.33.33,0,0,1,.08.22v.58a0,0,0,0,1,0,0s0,0,0,0h-.11s0,0,0,0a0,0,0,0,1,0,0V85.2a.19.19,0,0,0-.18-.2.19.19,0,0,0-.13,0,.14.14,0,0,0-.06.12v.57a0,0,0,0,1,0,0s0,0,0,0h-.11s0,0,0,0a0,0,0,0,1,0,0V84.56s0,0,0,0H62s0,0,0,0v.38h0a.27.27,0,0,1,.22-.09A.31.31,0,0,1,62.51,84.94Z" transform="translate(-40.11 -6.01)"/><path class="cls-12" d="M63.35,84.89a.32.32,0,0,1,.12.11.24.24,0,0,1,0,.15v.59a0,0,0,0,1,0,0,0,0,0,0,1,0,0h-.15v0h0a.41.41,0,0,1-.11.07.4.4,0,0,1-.15,0,.33.33,0,0,1-.21-.07.22.22,0,0,1-.08-.2.26.26,0,0,1,.09-.21.38.38,0,0,1,.27-.08h.19s0,0,0,0v0a.16.16,0,0,0,0-.12.2.2,0,0,0-.14,0,.18.18,0,0,0-.11,0,.11.11,0,0,0-.06.07s0,0,0,0h-.15s0,0,0,0a.22.22,0,0,1,.11-.16.43.43,0,0,1,.24-.07A.58.58,0,0,1,63.35,84.89Zm-.08.69a.13.13,0,0,0,.07-.12v-.1s0,0,0,0h-.16a.25.25,0,0,0-.16,0,.12.12,0,0,0-.07.11.12.12,0,0,0,.05.1.21.21,0,0,0,.12,0A.22.22,0,0,0,63.27,85.58Z" transform="translate(-40.11 -6.01)"/><path class="cls-12" d="M64.36,84.94a.29.29,0,0,1,.09.22v.58a0,0,0,0,1,0,0s0,0,0,0h-.11s0,0,0,0a0,0,0,0,1,0,0V85.2a.2.2,0,0,0,0-.14.18.18,0,0,0-.14-.06.17.17,0,0,0-.12,0,.14.14,0,0,0-.06.12v.57h-.17v-.87h.16v.07h0a.25.25,0,0,1,.22-.09A.27.27,0,0,1,64.36,84.94Z" transform="translate(-40.11 -6.01)"/><path class="cls-12" d="M65.25,84.87h.15a0,0,0,0,1,0,0v.83a.35.35,0,0,1-.12.3.53.53,0,0,1-.32.09h-.08a0,0,0,0,1,0,0V86a0,0,0,0,1,0,0H65a.36.36,0,0,0,.21,0,.22.22,0,0,0,.07-.19v0h0a.29.29,0,0,1-.22.08.36.36,0,0,1-.2-.06.31.31,0,0,1-.13-.17,1.27,1.27,0,0,1,0-.22,1.18,1.18,0,0,1,0-.22.43.43,0,0,1,.12-.17.37.37,0,0,1,.2-.07.3.3,0,0,1,.23.09s0,0,0,0h0v0A0,0,0,0,1,65.25,84.87Zm0,.55v-.21a.13.13,0,0,1,0-.06.16.16,0,0,0-.07-.11.2.2,0,0,0-.24,0,.16.16,0,0,0-.07.11.34.34,0,0,0,0,.16.37.37,0,0,0,0,.17.17.17,0,0,0,.07.1.16.16,0,0,0,.12,0,.2.2,0,0,0,.13,0,.21.21,0,0,0,.06-.1Z" transform="translate(-40.11 -6.01)"/><path class="cls-12" d="M66.22,85.52h0l.07,0a0,0,0,0,1,0,0h0a.38.38,0,0,1-.14.14.39.39,0,0,1-.2,0,.37.37,0,0,1-.21-.06.34.34,0,0,1-.13-.16.62.62,0,0,1,0-.25.5.5,0,0,1,0-.19.31.31,0,0,1,.12-.19.38.38,0,0,1,.23-.08.36.36,0,0,1,.26.09.45.45,0,0,1,.11.25.81.81,0,0,1,0,.16s0,0,0,0h-.56a0,0,0,0,0,0,0,.64.64,0,0,0,0,.09.21.21,0,0,0,.07.11.24.24,0,0,0,.15,0A.22.22,0,0,0,66.22,85.52ZM65.87,85a.18.18,0,0,0-.07.1.28.28,0,0,0,0,.1h.4a0,0,0,0,0,0,0,.22.22,0,0,0,0-.09.19.19,0,0,0-.07-.11A.18.18,0,0,0,66,85,.16.16,0,0,0,65.87,85Z" transform="translate(-40.11 -6.01)"/></g><path class="cls-12" d="M57.75,89.62a.56.56,0,0,1-.15-.41v-.78a.54.54,0,0,1,.15-.4.57.57,0,0,1,.43-.15.56.56,0,0,1,.42.15.51.51,0,0,1,.16.4v.78a.53.53,0,0,1-.16.41.6.6,0,0,1-.42.15A.61.61,0,0,1,57.75,89.62Zm.67-.16a.32.32,0,0,0,.09-.23v-.81a.32.32,0,0,0-.09-.24.4.4,0,0,0-.48,0,.32.32,0,0,0-.09.24v.81a.32.32,0,0,0,.09.23.37.37,0,0,0,.48,0Z" transform="translate(-40.11 -6.01)"/><path class="cls-12" d="M59.14,89.69a.17.17,0,0,1,0-.26.24.24,0,0,1,.13-.05.24.24,0,0,1,.14.05.17.17,0,0,1,0,.26.22.22,0,0,1-.14,0A.21.21,0,0,1,59.14,89.69Z" transform="translate(-40.11 -6.01)"/><path class="cls-12" d="M59.87,89.62a.56.56,0,0,1-.15-.41v-.78a.54.54,0,0,1,.15-.4.57.57,0,0,1,.43-.15.54.54,0,0,1,.42.15.51.51,0,0,1,.16.4v.78a.53.53,0,0,1-.16.41.58.58,0,0,1-.42.15A.61.61,0,0,1,59.87,89.62Zm.67-.16a.32.32,0,0,0,.09-.23v-.81a.32.32,0,0,0-.09-.24.4.4,0,0,0-.48,0,.32.32,0,0,0-.09.24v.81a.32.32,0,0,0,.09.23.37.37,0,0,0,.48,0Z" transform="translate(-40.11 -6.01)"/><path class="cls-12" d="M61.45,87.9h.22s0,0,0,0V89.7s0,0,0,0h-.23a0,0,0,0,1,0,0V88.16h0l-.26.09h0a0,0,0,0,1,0,0v-.12a.05.05,0,0,1,0,0l.27-.13Z" transform="translate(-40.11 -6.01)"/><path class="cls-12" d="M62.3,88.6a.32.32,0,0,1-.14-.14.35.35,0,0,1,0-.2.32.32,0,0,1,0-.19.32.32,0,0,1,.14-.14.35.35,0,0,1,.2-.05.32.32,0,0,1,.19.05.4.4,0,0,1,.15.14.41.41,0,0,1,0,.19.46.46,0,0,1,0,.2.4.4,0,0,1-.15.14.32.32,0,0,1-.19.05A.35.35,0,0,1,62.3,88.6Zm.37-.16a.24.24,0,0,0,.07-.18.22.22,0,0,0-.07-.17A.23.23,0,0,0,62.5,88a.25.25,0,0,0-.18.08.22.22,0,0,0-.07.17.24.24,0,0,0,.25.25A.21.21,0,0,0,62.67,88.44Zm-.25,1.29s0,0,0,0v0l1-1.77s0,0,0,0h.13a0,0,0,0,1,0,0,0,0,0,0,1,0,0l-1,1.76a.05.05,0,0,1-.05,0h-.12Zm.89,0a.34.34,0,0,1-.15-.14.41.41,0,0,1,0-.19.46.46,0,0,1,0-.2.34.34,0,0,1,.15-.14A.3.3,0,0,1,63.5,89a.35.35,0,0,1,.2.05.32.32,0,0,1,.14.14.35.35,0,0,1,0,.2.32.32,0,0,1,0,.19.32.32,0,0,1-.14.14.36.36,0,0,1-.2.06A.31.31,0,0,1,63.31,89.71Zm.37-.16a.28.28,0,0,0,.07-.17.29.29,0,0,0-.07-.18.24.24,0,0,0-.18-.07.21.21,0,0,0-.17.07.25.25,0,0,0-.08.18.28.28,0,0,0,.25.25A.25.25,0,0,0,63.68,89.55Z" transform="translate(-40.11 -6.01)"/><g class="cls-30"><path class="cls-12" d="M72.22,85.13a.3.3,0,0,1,.18.29.27.27,0,0,1-.11.25.4.4,0,0,1-.27.09h-.43s0,0,0,0a0,0,0,0,1,0,0V84.56s0,0,0,0H72a.39.39,0,0,1,.28.09.28.28,0,0,1,.11.24.27.27,0,0,1-.17.26S72.21,85.13,72.22,85.13Zm-.49-.44v.36s0,0,0,0H72a.21.21,0,0,0,.16,0,.17.17,0,0,0,.06-.14.18.18,0,0,0-.06-.14.25.25,0,0,0-.16,0h-.27Zm.44.87a.22.22,0,0,0,0-.3A.21.21,0,0,0,72,85.2h-.28v.4H72A.2.2,0,0,0,72.17,85.56Z" transform="translate(-40.11 -6.01)"/><path class="cls-12" d="M72.65,84.7a.1.1,0,0,1,0-.08.12.12,0,0,1,.11-.11.11.11,0,0,1,.09,0,.09.09,0,0,1,0,.07.1.1,0,0,1,0,.08.1.1,0,0,1-.09,0A.08.08,0,0,1,72.65,84.7Zm0,1a0,0,0,0,1,0,0v-.85a0,0,0,0,1,0,0h.15a0,0,0,0,1,0,0v.85a0,0,0,0,1,0,0s0,0,0,0h-.12A0,0,0,0,1,72.66,85.75Z" transform="translate(-40.11 -6.01)"/><path class="cls-12" d="M73.63,84.54h.15s0,0,0,0v1.18a0,0,0,0,1,0,0s0,0,0,0h-.11s0,0,0,0a0,0,0,0,1,0,0v0h0a.28.28,0,0,1-.09.07.23.23,0,0,1-.11,0,.28.28,0,0,1-.21-.07.37.37,0,0,1-.13-.17.75.75,0,0,1,0-.23.66.66,0,0,1,0-.21.29.29,0,0,1,.12-.18.38.38,0,0,1,.22-.07.23.23,0,0,1,.11,0,.24.24,0,0,1,.09.06h0v-.38S73.62,84.55,73.63,84.54Zm0,.77a.45.45,0,0,0-.05-.22.16.16,0,0,0-.15-.09.18.18,0,0,0-.15.08.43.43,0,0,0-.06.24.56.56,0,0,0,0,.21.18.18,0,0,0,.17.1.18.18,0,0,0,.16-.09A.68.68,0,0,0,73.62,85.31Z" transform="translate(-40.11 -6.01)"/></g><path class="cls-12" d="M72.68,89.17a.78.78,0,0,1-.05.28.55.55,0,0,1-.19.23.62.62,0,0,1-.31.08.58.58,0,0,1-.33-.09.44.44,0,0,1-.19-.25.71.71,0,0,1,0-.26v-.81a.42.42,0,0,1,.15-.34.56.56,0,0,1,.39-.13.6.6,0,0,1,.27.06.38.38,0,0,1,.19.16.48.48,0,0,1,.07.24v0a0,0,0,0,1,0,0h-.24s0,0,0,0v0a.26.26,0,0,0-.07-.19.27.27,0,0,0-.2-.07.28.28,0,0,0-.21.07.3.3,0,0,0-.08.21v.32h0a.41.41,0,0,1,.32-.12.45.45,0,0,1,.44.24A.74.74,0,0,1,72.68,89.17Zm-.26,0a.48.48,0,0,0,0-.22.27.27,0,0,0-.26-.15.26.26,0,0,0-.26.16.48.48,0,0,0,0,.22.54.54,0,0,0,0,.19.26.26,0,0,0,.11.12.29.29,0,0,0,.43-.12A.6.6,0,0,0,72.42,89.17Z" transform="translate(-40.11 -6.01)"/><path class="cls-12" d="M73.11,89.62a.56.56,0,0,1-.15-.41v-.78a.54.54,0,0,1,.15-.4.57.57,0,0,1,.43-.15A.54.54,0,0,1,74,88a.51.51,0,0,1,.16.4v.78a.53.53,0,0,1-.16.41.58.58,0,0,1-.42.15A.61.61,0,0,1,73.11,89.62Zm.67-.16a.32.32,0,0,0,.09-.23v-.81a.32.32,0,0,0-.09-.24.4.4,0,0,0-.48,0,.32.32,0,0,0-.09.24v.81a.32.32,0,0,0,.09.23.37.37,0,0,0,.48,0Z" transform="translate(-40.11 -6.01)"/><path class="cls-12" d="M75.51,89.17a.77.77,0,0,1,0,.25.48.48,0,0,1-.19.25.57.57,0,0,1-.32.09.52.52,0,0,1-.33-.1.52.52,0,0,1-.2-.26.6.6,0,0,1,0-.2s0,0,0,0h.18a0,0,0,0,1,0,0,.49.49,0,0,0,0,.13.21.21,0,0,0,.1.15.26.26,0,0,0,.18.06.27.27,0,0,0,.16,0,.26.26,0,0,0,.1-.13.52.52,0,0,0,0-.21.57.57,0,0,0-.05-.24.25.25,0,0,0-.26-.17.16.16,0,0,0-.09,0h0l-.09-.11a0,0,0,0,1,0,0,0,0,0,0,1,0,0l.45-.47s0,0,0,0h-.73s0,0,0,0v-.14s0,0,0,0h1.06s0,0,0,0v.15a.08.08,0,0,1,0,0l-.4.44h0a.4.4,0,0,1,.37.27A.67.67,0,0,1,75.51,89.17Z" transform="translate(-40.11 -6.01)"/><path class="cls-12" d="M76.93,89.17a.78.78,0,0,1-.05.28.55.55,0,0,1-.19.23.62.62,0,0,1-.31.08.58.58,0,0,1-.33-.09.44.44,0,0,1-.19-.25.71.71,0,0,1,0-.26v-.81A.42.42,0,0,1,76,88a.56.56,0,0,1,.39-.13.6.6,0,0,1,.27.06.38.38,0,0,1,.19.16.48.48,0,0,1,.06.24v.06h-.24s0,0,0,0v0a.26.26,0,0,0-.07-.19.27.27,0,0,0-.2-.07.28.28,0,0,0-.21.07.3.3,0,0,0-.08.21v.32h0a.52.52,0,0,1,.77.12A.74.74,0,0,1,76.93,89.17Zm-.26,0a.48.48,0,0,0,0-.22.27.27,0,0,0-.26-.15.26.26,0,0,0-.26.16.48.48,0,0,0,0,.22.54.54,0,0,0,0,.19.26.26,0,0,0,.11.12.29.29,0,0,0,.43-.12A.6.6,0,0,0,76.67,89.17Z" transform="translate(-40.11 -6.01)"/><path class="cls-12" d="M77.26,89.69a.17.17,0,0,1-.05-.13.21.21,0,0,1,.05-.13.24.24,0,0,1,.14-.05.24.24,0,0,1,.13.05.17.17,0,0,1,0,.26.19.19,0,0,1-.13,0A.22.22,0,0,1,77.26,89.69Z" transform="translate(-40.11 -6.01)"/><path class="cls-12" d="M78.11,89.7l.59-1.57h-.65v.11s0,0,0,0h-.19a0,0,0,0,1,0,0v-.3a0,0,0,0,1,0,0H79a0,0,0,0,1,0,0v.15a.09.09,0,0,1,0,0l-.59,1.57s0,0,0,0h-.19S78.1,89.73,78.11,89.7Z" transform="translate(-40.11 -6.01)"/><path class="cls-12" d="M79.18,89.73l0,0v-.13a.14.14,0,0,1,0-.06c.1-.1.2-.22.31-.35l.2-.24.08-.1a.85.85,0,0,0,.25-.45.25.25,0,0,0-.09-.2.31.31,0,0,0-.22-.07.32.32,0,0,0-.22.07.28.28,0,0,0-.08.2v.07a0,0,0,0,1,0,0h-.23a0,0,0,0,1,0,0v-.1a.41.41,0,0,1,.08-.24.52.52,0,0,1,.19-.17.87.87,0,0,1,.28-.05.7.7,0,0,1,.3.06.41.41,0,0,1,.19.18.4.4,0,0,1,.07.24.88.88,0,0,1-.24.52c-.1.13-.27.34-.52.63h.8a0,0,0,0,1,0,0v.14a0,0,0,0,1,0,0H79.18Z" transform="translate(-40.11 -6.01)"/><g class="cls-30"><path class="cls-12" d="M86,85.74l-.06-.2H85.4l-.06.2s0,0,0,0h-.12s0,0,0,0l.38-1.18s0,0,0,0h.16l0,0,.38,1.18h0s0,0,0,0H86Zm-.51-.34h.4s0,0,0,0l-.21-.65h0l-.2.65S85.45,85.4,85.46,85.4Z" transform="translate(-40.11 -6.01)"/><path class="cls-12" d="M86.47,85.74a.25.25,0,0,1-.13-.09.16.16,0,0,1,0-.12h0v0h.15s0,0,0,0h0a.14.14,0,0,0,.05.09.29.29,0,0,0,.14,0,.28.28,0,0,0,.13,0,.11.11,0,0,0,0-.09.08.08,0,0,0,0-.07l-.15-.06-.16,0a.27.27,0,0,1-.12-.09.19.19,0,0,1,0-.13.22.22,0,0,1,.1-.19.36.36,0,0,1,.24-.07.48.48,0,0,1,.18,0,.27.27,0,0,1,.12.09.2.2,0,0,1,0,.13v0h-.15a.1.1,0,0,0,0-.08.26.26,0,0,0-.26,0,.08.08,0,0,0,0,.08.08.08,0,0,0,0,.08l.15.06.17.05a.36.36,0,0,1,.12.08.21.21,0,0,1,0,.14.23.23,0,0,1-.09.19.39.39,0,0,1-.25.07A.48.48,0,0,1,86.47,85.74Z" transform="translate(-40.11 -6.01)"/><path class="cls-12" d="M87.2,85.75a0,0,0,0,1,0,0V84.56s0,0,0,0h.15s0,0,0,0v.66h0l.32-.35h.19s0,0,0,0l-.21.25h0l.26.57h0s0,0,0,0h-.12s0,0,0,0l-.2-.47h0l-.17.18h0v.28a0,0,0,0,1,0,0s0,0,0,0h-.11S87.2,85.76,87.2,85.75Z" transform="translate(-40.11 -6.01)"/></g><path class="cls-12" d="M86.37,89.17a.78.78,0,0,1-.05.28.55.55,0,0,1-.19.23.62.62,0,0,1-.31.08.58.58,0,0,1-.33-.09.44.44,0,0,1-.19-.25.71.71,0,0,1,0-.26v-.81a.42.42,0,0,1,.15-.34.56.56,0,0,1,.39-.13.6.6,0,0,1,.27.06.38.38,0,0,1,.19.16.48.48,0,0,1,.06.24v.06h-.24s0,0,0,0v0a.26.26,0,0,0-.07-.19.27.27,0,0,0-.2-.07.28.28,0,0,0-.21.07.3.3,0,0,0-.08.21v.32h0a.52.52,0,0,1,.77.12A.74.74,0,0,1,86.37,89.17Zm-.26,0a.48.48,0,0,0,0-.22.27.27,0,0,0-.26-.15.26.26,0,0,0-.26.16.48.48,0,0,0,0,.22.54.54,0,0,0,0,.19.26.26,0,0,0,.11.12.29.29,0,0,0,.43-.12A.6.6,0,0,0,86.11,89.17Z" transform="translate(-40.11 -6.01)"/><path class="cls-12" d="M86.64,89.73l0,0v-.13a.14.14,0,0,1,0-.06c.1-.1.2-.22.31-.35l.2-.24.08-.1a.85.85,0,0,0,.25-.45.25.25,0,0,0-.09-.2.31.31,0,0,0-.22-.07.32.32,0,0,0-.22.07.24.24,0,0,0-.07.2v.07s0,0,0,0h-.23a0,0,0,0,1,0,0v-.1a.41.41,0,0,1,.08-.24.52.52,0,0,1,.19-.17.87.87,0,0,1,.28-.05.7.7,0,0,1,.3.06.41.41,0,0,1,.19.18.4.4,0,0,1,.07.24.88.88,0,0,1-.24.52c-.1.13-.27.34-.52.63,0,0,0,0,0,0h.8a0,0,0,0,1,0,0v.14a0,0,0,0,1,0,0H86.64Z" transform="translate(-40.11 -6.01)"/><path class="cls-12" d="M88.07,89.73a0,0,0,0,1,0,0v-.13a.13.13,0,0,1,0-.06c.1-.1.2-.22.31-.35l.2-.24.08-.1a.79.79,0,0,0,.25-.45.25.25,0,0,0-.09-.2.29.29,0,0,0-.22-.07.28.28,0,0,0-.21.07.24.24,0,0,0-.08.2v.07s0,0,0,0h-.24s0,0,0,0v-.1a.49.49,0,0,1,.08-.24.48.48,0,0,1,.2-.17.76.76,0,0,1,.27-.05.67.67,0,0,1,.3.06.41.41,0,0,1,.19.18.4.4,0,0,1,.07.24.93.93,0,0,1-.23.52c-.1.13-.28.34-.53.63,0,0,0,0,0,0h.8a0,0,0,0,1,0,0v.14a0,0,0,0,1,0,0H88.07Z" transform="translate(-40.11 -6.01)"/><path class="cls-12" d="M90.55,89.17a.77.77,0,0,1,0,.25.48.48,0,0,1-.19.25.57.57,0,0,1-.32.09.52.52,0,0,1-.33-.1.52.52,0,0,1-.2-.26.6.6,0,0,1,0-.2s0,0,0,0h.18a0,0,0,0,1,0,0,.49.49,0,0,0,0,.13.21.21,0,0,0,.1.15.26.26,0,0,0,.18.06.27.27,0,0,0,.16,0,.26.26,0,0,0,.1-.13.78.78,0,0,0,0-.21.57.57,0,0,0,0-.24.25.25,0,0,0-.26-.17.16.16,0,0,0-.09,0h-.05l-.09-.11a0,0,0,0,1,0,0,0,0,0,0,1,0,0l.45-.47s0,0,0,0h-.73s0,0,0,0v-.14s0,0,0,0h1.06s0,0,0,0v.15a.08.08,0,0,1,0,0l-.4.44h0a.4.4,0,0,1,.37.27A.67.67,0,0,1,90.55,89.17Z" transform="translate(-40.11 -6.01)"/><path class="cls-12" d="M90.92,89.69a.21.21,0,0,1,0-.13.18.18,0,0,1,.06-.13.19.19,0,0,1,.26,0,.18.18,0,0,1,.06.13.21.21,0,0,1,0,.13.24.24,0,0,1-.14,0A.22.22,0,0,1,90.92,89.69Z" transform="translate(-40.11 -6.01)"/><path class="cls-12" d="M92.76,89a0,0,0,0,1,0,0v.15a0,0,0,0,1,0,0h-.12s0,0,0,0v.44a0,0,0,0,1,0,0h-.23a0,0,0,0,1,0,0v-.44a0,0,0,0,0,0,0h-.82a0,0,0,0,1,0,0v-.12a.07.07,0,0,1,0,0l.51-1.11a.05.05,0,0,1,0,0h.18s0,0,0,0v0l-.48,1v0h.54v-.38a0,0,0,0,1,0,0h.23a0,0,0,0,1,0,0V89h.11S92.76,89,92.76,89Z" transform="translate(-40.11 -6.01)"/><path class="cls-12" d="M94.15,89.17a.77.77,0,0,1,0,.25.48.48,0,0,1-.19.25.58.58,0,0,1-.33.09.51.51,0,0,1-.32-.1.47.47,0,0,1-.2-.26.6.6,0,0,1,0-.2s0,0,0,0h.18a0,0,0,0,1,0,0c0,.07,0,.11,0,.13a.25.25,0,0,0,.11.15.24.24,0,0,0,.17.06.29.29,0,0,0,.17,0,.26.26,0,0,0,.1-.13.78.78,0,0,0,0-.21.57.57,0,0,0-.05-.24.25.25,0,0,0-.26-.17.16.16,0,0,0-.09,0h-.06l-.08-.11a0,0,0,0,1,0,0,0,0,0,0,1,0,0l.44-.47s0,0,0,0h-.73s0,0,0,0v-.14s0,0,0,0h1.06s0,0,0,0v.15a.08.08,0,0,1,0,0l-.41.44h0a.4.4,0,0,1,.37.27A.85.85,0,0,1,94.15,89.17Z" transform="translate(-40.11 -6.01)"/><g class="cls-30"><path class="cls-12" d="M98,85.75a0,0,0,0,1,0,0v-.1a0,0,0,0,1,0,0c.07-.07.13-.15.2-.23l.14-.17,0-.06a.58.58,0,0,0,.17-.3.18.18,0,0,0-.06-.14.23.23,0,0,0-.15,0,.18.18,0,0,0-.14.06.14.14,0,0,0,0,.13v0a0,0,0,0,1,0,0s0,0,0,0H98v-.08a.31.31,0,0,1,.05-.17.27.27,0,0,1,.13-.1.37.37,0,0,1,.18,0,.42.42,0,0,1,.2,0,.33.33,0,0,1,.18.28.63.63,0,0,1-.16.35l-.35.42h.53s0,0,0,0v.1a0,0,0,0,1,0,0s0,0,0,0H98S98,85.76,98,85.75Z" transform="translate(-40.11 -6.01)"/><path class="cls-12" d="M99.75,85.29v.12h-.1v.3a0,0,0,0,1,0,0,0,0,0,0,1,0,0h-.12s0,0,0,0h0v-.3h-.55v-.12l.34-.74,0,0h.13l0,0v0l-.32.7h.35s0,0,0,0V85s0,0,0,0h.15v.27s0,0,0,0h.09Z" transform="translate(-40.11 -6.01)"/><path class="cls-12" d="M100.6,84.94a.29.29,0,0,1,.09.22v.58h-.17V85.2a.2.2,0,0,0,0-.14.18.18,0,0,0-.14-.06.21.21,0,0,0-.13,0,.23.23,0,0,0-.06.12v.57H100v-1.2h.16v.4h0a.27.27,0,0,1,.22-.09A.28.28,0,0,1,100.6,84.94Z" transform="translate(-40.11 -6.01)"/><path class="cls-12" d="M101.59,85.74l-.38-1.18h0s0,0,0,0h.14s0,0,0,0l.29,1h0l.28-1,0,0h.14s0,0,0,0l-.38,1.18s0,0,0,0h-.12S101.59,85.75,101.59,85.74Z" transform="translate(-40.11 -6.01)"/><path class="cls-12" d="M102.38,85.71a.42.42,0,0,1-.14-.18.78.78,0,0,1,0-.22.66.66,0,0,1,0-.21.32.32,0,0,1,.14-.18.42.42,0,0,1,.23-.07.41.41,0,0,1,.22.07.3.3,0,0,1,.13.18.66.66,0,0,1,0,.21.78.78,0,0,1,0,.22.34.34,0,0,1-.13.18.41.41,0,0,1-.22.07A.42.42,0,0,1,102.38,85.71Zm.35-.12a.21.21,0,0,0,.07-.11.42.42,0,0,0,0-.17.76.76,0,0,0,0-.16.23.23,0,0,0-.08-.11.18.18,0,0,0-.13,0,.16.16,0,0,0-.12,0,.23.23,0,0,0-.08.11.7.7,0,0,0,0,.16.72.72,0,0,0,0,.17.23.23,0,0,0,.08.11.18.18,0,0,0,.13,0A.19.19,0,0,0,102.73,85.59Z" transform="translate(-40.11 -6.01)"/><path class="cls-12" d="M103.22,85.75h0V84.56s0,0,0,0h.16v1.2h-.16Z" transform="translate(-40.11 -6.01)"/><path class="cls-12" d="M104.17,84.87h.15a0,0,0,0,1,0,0v.85a0,0,0,0,1,0,0s0,0,0,0h-.11s0,0,0,0a0,0,0,0,1,0,0v-.06h0a.25.25,0,0,1-.21.09.41.41,0,0,1-.16,0,.23.23,0,0,1-.12-.1.25.25,0,0,1,0-.16v-.59a0,0,0,0,1,0,0h.15v.56a.25.25,0,0,0,0,.15.22.22,0,0,0,.28,0,.2.2,0,0,0,0-.15v-.54A0,0,0,0,1,104.17,84.87Z" transform="translate(-40.11 -6.01)"/><path class="cls-12" d="M105.71,84.94a.26.26,0,0,1,.08.22v.58a0,0,0,0,1,0,0s0,0,0,0h-.14v-.55a.16.16,0,0,0-.17-.19.17.17,0,0,0-.18.19v.55h-.15a0,0,0,0,1,0,0,0,0,0,0,1,0,0v-.55a.22.22,0,0,0,0-.14.17.17,0,0,0-.13,0,.19.19,0,0,0-.13,0,.22.22,0,0,0-.05.14v.55h-.16v-.87h.16v.07h0a.3.3,0,0,1,.23-.09.37.37,0,0,1,.15,0,.32.32,0,0,1,.1.1h0a.21.21,0,0,1,.11-.1.4.4,0,0,1,.15,0A.25.25,0,0,1,105.71,84.94Z" transform="translate(-40.11 -6.01)"/></g><path class="cls-12" d="M98.22,89.62a.53.53,0,0,1-.16-.41v-.78a.51.51,0,0,1,.16-.4.66.66,0,0,1,.84,0,.51.51,0,0,1,.16.4v.78a.53.53,0,0,1-.16.41.66.66,0,0,1-.84,0Zm.66-.16a.32.32,0,0,0,.09-.23v-.81a.32.32,0,0,0-.09-.24.4.4,0,0,0-.48,0,.32.32,0,0,0-.09.24v.81a.32.32,0,0,0,.09.23.36.36,0,0,0,.48,0Z" transform="translate(-40.11 -6.01)"/><path class="cls-12" d="M99.6,89.69a.21.21,0,0,1,0-.13.18.18,0,0,1,.06-.13.19.19,0,0,1,.13-.05.21.21,0,0,1,.13.05.17.17,0,0,1,0,.26.19.19,0,0,1-.13,0A.22.22,0,0,1,99.6,89.69Z" transform="translate(-40.11 -6.01)"/><path class="cls-12" d="M100.34,89.62a.53.53,0,0,1-.16-.41v-.78a.51.51,0,0,1,.16-.4.66.66,0,0,1,.84,0,.51.51,0,0,1,.16.4v.78a.53.53,0,0,1-.16.41.66.66,0,0,1-.84,0Zm.66-.16a.32.32,0,0,0,.09-.23v-.81a.32.32,0,0,0-.09-.24.4.4,0,0,0-.48,0,.32.32,0,0,0-.09.24v.81a.32.32,0,0,0,.09.23.37.37,0,0,0,.48,0Z" transform="translate(-40.11 -6.01)"/><path class="cls-12" d="M101.83,89.62a.53.53,0,0,1-.16-.41v-.78a.51.51,0,0,1,.16-.4.53.53,0,0,1,.42-.15.57.57,0,0,1,.43.15.54.54,0,0,1,.15.4v.78a.56.56,0,0,1-.15.41.61.61,0,0,1-.43.15A.57.57,0,0,1,101.83,89.62Zm.66-.16a.32.32,0,0,0,.09-.23v-.81a.32.32,0,0,0-.09-.24.4.4,0,0,0-.48,0,.32.32,0,0,0-.09.24v.81a.32.32,0,0,0,.09.23.36.36,0,0,0,.48,0Z" transform="translate(-40.11 -6.01)"/><path class="cls-17" d="M50.7,97.88v-.17s0,0,0,0,.22-.24.41-.47L51.3,97a.86.86,0,0,0,.25-.43.21.21,0,0,0-.08-.17.32.32,0,0,0-.4,0,.21.21,0,0,0-.07.18v0a0,0,0,0,1,0,.05h-.23a0,0,0,0,1,0-.05v-.1a.49.49,0,0,1,.08-.24.51.51,0,0,1,.21-.17.68.68,0,0,1,.29-.06.74.74,0,0,1,.31.07.44.44,0,0,1,.2.18.46.46,0,0,1,.07.26.77.77,0,0,1-.23.49,1.41,1.41,0,0,1-.2.24,2.85,2.85,0,0,1-.23.26l-.07.09h.73s0,0,0,0v.17s0,.05,0,.05H50.74S50.7,97.91,50.7,97.88Z" transform="translate(-40.11 -6.01)"/><path class="cls-17" d="M53.31,97.35a.64.64,0,0,1-.06.28.43.43,0,0,1-.19.23.58.58,0,0,1-.33.09.64.64,0,0,1-.34-.09.57.57,0,0,1-.2-.26,1,1,0,0,1,0-.26v-.8a.52.52,0,0,1,.07-.25.55.55,0,0,1,.2-.17.7.7,0,0,1,.3-.06.64.64,0,0,1,.28.06.55.55,0,0,1,.2.17.48.48,0,0,1,.07.24v0a0,0,0,0,1-.05.05H53s0,0,0,0v0a.24.24,0,0,0-.07-.18.28.28,0,0,0-.18-.06.24.24,0,0,0-.18.07.21.21,0,0,0-.07.18v.28h0a.41.41,0,0,1,.3-.11.6.6,0,0,1,.27.07.5.5,0,0,1,.19.19A.81.81,0,0,1,53.31,97.35Zm-.31,0a.4.4,0,0,0,0-.2.25.25,0,0,0-.23-.13.24.24,0,0,0-.23.13.44.44,0,0,0,0,.21.48.48,0,0,0,0,.18.24.24,0,0,0,.24.14.23.23,0,0,0,.23-.14A.41.41,0,0,0,53,97.35Z" transform="translate(-40.11 -6.01)"/><path class="cls-17" d="M53.54,97.88v-.17s0,0,0,0,.22-.24.42-.47l.17-.19a.82.82,0,0,0,.24-.43.21.21,0,0,0-.08-.17.27.27,0,0,0-.2-.07.25.25,0,0,0-.19.07.22.22,0,0,0-.08.18v0s0,.05,0,.05h-.22a0,0,0,0,1,0-.05v-.1a.5.5,0,0,1,.09-.24.55.55,0,0,1,.2-.17.72.72,0,0,1,.29-.06.74.74,0,0,1,.31.07.46.46,0,0,1,.21.18.56.56,0,0,1,.07.26.83.83,0,0,1-.23.49l-.2.24-.24.26-.07.09s0,0,0,0h.74a0,0,0,0,1,0,0v.17a0,0,0,0,1,0,.05H53.58A0,0,0,0,1,53.54,97.88Z" transform="translate(-40.11 -6.01)"/><path class="cls-17" d="M55.28,96.09h.23s0,0,0,0v1.75s0,.05,0,.05h-.22s0,0,0-.05V96.39s0,0,0,0l-.24.07h0s0,0,0,0a0,0,0,0,1,0,0v-.15a.05.05,0,0,1,0-.05l.25-.11Z" transform="translate(-40.11 -6.01)"/><path class="cls-17" d="M57,97.35a.59.59,0,0,1,0,.23.48.48,0,0,1-.2.27.65.65,0,0,1-.34.1.62.62,0,0,1-.34-.1.49.49,0,0,1-.21-.26l0-.12h0v0h.26s0,0,0,0v0s0,0,0,0a.25.25,0,0,0,.09.13.22.22,0,0,0,.16.05.24.24,0,0,0,.24-.19.32.32,0,0,0,0-.14.77.77,0,0,0,0-.15.23.23,0,0,0-.09-.14.27.27,0,0,0-.16,0,.33.33,0,0,0-.15,0,.19.19,0,0,0-.1.1,0,0,0,0,1-.05,0h-.24a0,0,0,0,1,0,0v-1a0,0,0,0,1,0,0h1s0,0,0,0v.18a0,0,0,0,1,0,0h-.74v.47h0a.51.51,0,0,1,.3-.09.57.57,0,0,1,.32.09.48.48,0,0,1,.18.26A.69.69,0,0,1,57,97.35Z" transform="translate(-40.11 -6.01)"/><path class="cls-17" d="M57.33,97.87a.19.19,0,0,1,0-.28.24.24,0,0,1,.15-.06.2.2,0,0,1,.15.06.19.19,0,0,1,.07.14.17.17,0,0,1-.07.14.22.22,0,0,1-.3,0Z" transform="translate(-40.11 -6.01)"/><path class="cls-17" d="M58.07,97.8a.54.54,0,0,1-.16-.42v-.75a.53.53,0,0,1,.16-.41.58.58,0,0,1,.44-.16.6.6,0,0,1,.44.16.53.53,0,0,1,.17.41v.75a.54.54,0,0,1-.17.42.64.64,0,0,1-.44.16A.62.62,0,0,1,58.07,97.8Zm.66-.19a.31.31,0,0,0,.08-.22v-.77a.28.28,0,0,0-.3-.29.27.27,0,0,0-.29.29v.77a.27.27,0,0,0,.08.22.29.29,0,0,0,.21.08A.33.33,0,0,0,58.73,97.61Z" transform="translate(-40.11 -6.01)"/><path class="cls-17" d="M59.57,97.8a.54.54,0,0,1-.16-.42v-.75a.53.53,0,0,1,.16-.41.58.58,0,0,1,.44-.16.6.6,0,0,1,.44.16.53.53,0,0,1,.16.41v.75a.54.54,0,0,1-.16.42A.64.64,0,0,1,60,98,.62.62,0,0,1,59.57,97.8Zm.66-.19a.31.31,0,0,0,.08-.22v-.77a.28.28,0,0,0-.3-.29.27.27,0,0,0-.22.08.29.29,0,0,0-.08.21v.77a.28.28,0,0,0,.3.3A.33.33,0,0,0,60.23,97.61Z" transform="translate(-40.11 -6.01)"/><g class="cls-31"><path class="cls-17" d="M50.71,100.12a0,0,0,0,1,0,0V99s0,0,0,0h.15v1h.58a0,0,0,0,1,0,0s0,0,0,0v.08s0,0,0,0h-.74Z" transform="translate(-40.11 -6.01)"/><path class="cls-17" d="M52.12,99.3a.4.4,0,0,1,.12.1.42.42,0,0,1,0,.15v.55a0,0,0,0,1,0,0h-.14s0,0,0,0v0h0a.41.41,0,0,1-.11.07l-.14,0a.32.32,0,0,1-.2-.06.27.27,0,0,1,0-.39.4.4,0,0,1,.26-.08h.18s0,0,0,0v0a.18.18,0,0,0,0-.11.18.18,0,0,0-.13,0c-.05,0-.09,0-.11,0a.13.13,0,0,0-.06.07s0,0,0,0h-.14v0a.23.23,0,0,1,.11-.15.38.38,0,0,1,.22-.06A.48.48,0,0,1,52.12,99.3Zm-.07.66a.13.13,0,0,0,.07-.12v-.09s0,0,0,0H52a.25.25,0,0,0-.16,0,.11.11,0,0,0-.06.1.18.18,0,0,0,0,.1.21.21,0,0,0,.12,0A.25.25,0,0,0,52.05,100Z" transform="translate(-40.11 -6.01)"/><path class="cls-17" d="M52.62,100.11a.28.28,0,0,1-.12-.08.19.19,0,0,1,0-.12h0v0h.15a.1.1,0,0,0,0,.08.25.25,0,0,0,.13,0,.16.16,0,0,0,.12,0A.09.09,0,0,0,53,99.9s0-.05-.05-.07a.42.42,0,0,0-.14,0l-.15,0a.31.31,0,0,1-.11-.08.21.21,0,0,1,0-.13.2.2,0,0,1,.09-.18.42.42,0,0,1,.23-.07.43.43,0,0,1,.17,0,.27.27,0,0,1,.12.09.28.28,0,0,1,0,.12v0H53a.1.1,0,0,0-.05-.08.25.25,0,0,0-.13,0,.21.21,0,0,0-.12,0,.08.08,0,0,0,0,.07.08.08,0,0,0,0,.08l.14,0,.16.05a.31.31,0,0,1,.11.08.19.19,0,0,1,0,.13.2.2,0,0,1-.09.18.36.36,0,0,1-.24.07A.43.43,0,0,1,52.62,100.11Z" transform="translate(-40.11 -6.01)"/><path class="cls-17" d="M53.71,99.41h-.19v.44a.15.15,0,0,0,0,.1.13.13,0,0,0,.1,0h.05s0,0,0,0v.09s0,0,0,0h-.07a.31.31,0,0,1-.19,0s-.07-.08-.07-.17v-.49h-.11s0,0,0,0v-.08s0,0,0,0a0,0,0,0,1,0,0h.1v-.18a0,0,0,0,1,0,0h.14a0,0,0,0,1,0,0v.18h.17s0,0,0,0,0,0,0,0v.08S53.72,99.4,53.71,99.41Z" transform="translate(-40.11 -6.01)"/><path class="cls-17" d="M54.9,99a.25.25,0,0,1,.12.11.34.34,0,0,1,0,.18.37.37,0,0,1,0,.18.43.43,0,0,1-.12.11.34.34,0,0,1-.18,0h-.29a0,0,0,0,0,0,0v.46a0,0,0,0,1,0,0h-.15V99h.46A.35.35,0,0,1,54.9,99Zm0,.44a.2.2,0,0,0,0-.15.16.16,0,0,0,0-.14.2.2,0,0,0-.15-.06h-.27s0,0,0,0v.39h.28A.25.25,0,0,0,54.85,99.45Z" transform="translate(-40.11 -6.01)"/><path class="cls-17" d="M55.7,99.29a0,0,0,0,1,0,0l0,.11s0,0,0,0h-.1a.21.21,0,0,0-.13,0,.22.22,0,0,0,0,.14v.49h-.15a0,0,0,0,1,0,0v-.79a0,0,0,0,1,0,0s0,0,0,0h.13v.09h0a.24.24,0,0,1,.21-.12Z" transform="translate(-40.11 -6.01)"/><path class="cls-17" d="M55.87,99.13a.1.1,0,0,1,0-.16l.07,0L56,99a.12.12,0,0,1,0,.16.1.1,0,0,1-.08,0A.09.09,0,0,1,55.87,99.13Zm0,1a0,0,0,0,1,0,0v-.79a0,0,0,0,1,0,0H56v.83h-.15Z" transform="translate(-40.11 -6.01)"/><path class="cls-17" d="M56.39,100.08a.29.29,0,0,1-.12-.18.53.53,0,0,1,0-.2.64.64,0,0,1,0-.2.3.3,0,0,1,.12-.17.38.38,0,0,1,.22-.06.43.43,0,0,1,.22.06.31.31,0,0,1,.12.16s0,0,0,.05h0l0,0h-.12l0,0v0a.23.23,0,0,0-.07-.1.21.21,0,0,0-.12,0,.28.28,0,0,0-.13,0,.2.2,0,0,0-.06.11.61.61,0,0,0,0,.15.63.63,0,0,0,0,.16.16.16,0,0,0,.07.11.21.21,0,0,0,.12,0,.27.27,0,0,0,.12,0,.36.36,0,0,0,.07-.1h0a0,0,0,0,1,0,0h0l.1,0a0,0,0,0,1,0,0v0a.31.31,0,0,1-.12.16.43.43,0,0,1-.22.06A.38.38,0,0,1,56.39,100.08Z" transform="translate(-40.11 -6.01)"/><path class="cls-17" d="M57.69,99.9a0,0,0,0,1,0,0h0l.07,0a0,0,0,0,1,0,0v0a.37.37,0,0,1-.13.12.3.3,0,0,1-.19,0,.39.39,0,0,1-.2,0,.29.29,0,0,1-.12-.15.6.6,0,0,1,0-.24.74.74,0,0,1,0-.18.35.35,0,0,1,.12-.19.38.38,0,0,1,.22-.06.35.35,0,0,1,.24.08.45.45,0,0,1,.11.24s0,.09,0,.15,0,0,0,0h-.54s0,.07,0,.09a.23.23,0,0,0,.08.11.25.25,0,0,0,.13,0A.21.21,0,0,0,57.69,99.9Zm-.34-.46a.17.17,0,0,0-.06.1.64.64,0,0,0,0,.09,0,0,0,0,0,0,0h.38a0,0,0,0,0,0,0s0-.06,0-.08a.18.18,0,0,0-.07-.1.16.16,0,0,0-.12,0A.21.21,0,0,0,57.35,99.44Z" transform="translate(-40.11 -6.01)"/></g><path class="cls-17" d="M96.24,98.13v.18s0,0,0,0h-.37a0,0,0,0,0,0,0v.36s0,0,0,0h-.18a0,0,0,0,1,0,0v-.36s0,0,0,0h-.38s0,0,0,0v-.18s0,0,0,0h.38s0,0,0,0V97.7a0,0,0,0,1,0,0h.18s0,0,0,0v.37a0,0,0,0,0,0,0h.37S96.24,98.1,96.24,98.13Z" transform="translate(-40.11 -6.01)"/><path class="cls-17" d="M96.77,97.18H97s0,0,0,0V99s0,0,0,0h-.22s0,0,0,0V97.49s0,0,0,0l-.24.07h0s0,0,0,0,0,0,0,0v-.16s0,0,0,0l.26-.12Z" transform="translate(-40.11 -6.01)"/><path class="cls-17" d="M97.68,97.18h.24a0,0,0,0,1,0,0V99a0,0,0,0,1,0,0H97.7s0,0,0,0V97.49s0,0,0,0l-.24.07h0v-.18s0,0,0,0l.26-.12Z" transform="translate(-40.11 -6.01)"/><path class="cls-17" d="M98.34,99a.2.2,0,0,1-.06-.15.2.2,0,0,1,.06-.14.24.24,0,0,1,.15-.06.2.2,0,0,1,.15.06.21.21,0,0,1,.07.14.18.18,0,0,1-.07.15.25.25,0,0,1-.3,0Z" transform="translate(-40.11 -6.01)"/><path class="cls-17" d="M100.14,98.44a.85.85,0,0,1,0,.23.51.51,0,0,1-.2.27.6.6,0,0,1-.35.1.57.57,0,0,1-.34-.1.52.52,0,0,1-.2-.26.21.21,0,0,1,0-.12h0v0h.26s0,0,0,0v0s0,0,0,0a.25.25,0,0,0,.25.18.28.28,0,0,0,.16,0,.42.42,0,0,0,.09-.14.57.57,0,0,0,0-.3.2.2,0,0,0-.08-.13.31.31,0,0,0-.17,0,.4.4,0,0,0-.15,0,.28.28,0,0,0-.09.1.05.05,0,0,1,0,0H99s0,0,0,0v-1s0,0,0,0h1s0,0,0,0v.18s0,0,0,0h-.72a0,0,0,0,0,0,0h0v.47h0a.48.48,0,0,1,.29-.09.55.55,0,0,1,.32.09.47.47,0,0,1,.19.25A1.07,1.07,0,0,1,100.14,98.44Z" transform="translate(-40.11 -6.01)"/><path class="cls-17" d="M100.64,97.9a.4.4,0,0,1-.15-.14.46.46,0,0,1,0-.2.42.42,0,0,1,0-.2.43.43,0,0,1,.15-.15.35.35,0,0,1,.2,0,.33.33,0,0,1,.2,0,.31.31,0,0,1,.15.15.34.34,0,0,1,.06.2.36.36,0,0,1-.06.2.32.32,0,0,1-.14.14.39.39,0,0,1-.21.06A.36.36,0,0,1,100.64,97.9Zm.37-.17a.28.28,0,0,0,.07-.17.24.24,0,0,0-.07-.17.22.22,0,0,0-.17-.07.2.2,0,0,0-.16.07.21.21,0,0,0-.07.17.21.21,0,0,0,.23.23A.25.25,0,0,0,101,97.73ZM100.74,99v0l1-1.76s0,0,0,0h.13s0,0,0,0a0,0,0,0,1,0,0L101,99a0,0,0,0,1,0,0h-.13S100.74,99,100.74,99Zm.91,0a.4.4,0,0,1-.15-.14.5.5,0,0,1,0-.21.46.46,0,0,1,0-.2.4.4,0,0,1,.15-.14.39.39,0,0,1,.21-.06.36.36,0,0,1,.2.06.4.4,0,0,1,.15.14.46.46,0,0,1,.05.2.5.5,0,0,1-.05.21.4.4,0,0,1-.15.14.36.36,0,0,1-.2.06A.39.39,0,0,1,101.65,99Zm.37-.18a.21.21,0,0,0,.07-.17.24.24,0,0,0-.23-.23.25.25,0,0,0-.17.06.23.23,0,0,0-.07.17.24.24,0,0,0,.24.24A.2.2,0,0,0,102,98.81Z" transform="translate(-40.11 -6.01)"/><path class="cls-17" d="M51,106.42h.24s0,0,0,0v1.76a0,0,0,0,1,0,0H51a0,0,0,0,1,0,0v-1.5s0,0,0,0l-.25.07h0s0,0,0,0a0,0,0,0,1,0,0v-.15a.05.05,0,0,1,0,0l.25-.11Z" transform="translate(-40.11 -6.01)"/><path class="cls-17" d="M52.76,107.68a.64.64,0,0,1-.06.28.41.41,0,0,1-.2.23.55.55,0,0,1-.32.09.64.64,0,0,1-.34-.09.57.57,0,0,1-.2-.26.68.68,0,0,1,0-.26v-.8a.43.43,0,0,1,.07-.25.48.48,0,0,1,.2-.17.73.73,0,0,1,.58,0,.39.39,0,0,1,.19.17.4.4,0,0,1,.07.24v0a0,0,0,0,1,0,0h-.22s0,0,0,0v0a.29.29,0,0,0-.07-.18.28.28,0,0,0-.18-.06.24.24,0,0,0-.18.07.21.21,0,0,0-.07.18v.28h0a.45.45,0,0,1,.31-.11.6.6,0,0,1,.27.07.41.41,0,0,1,.18.19A.67.67,0,0,1,52.76,107.68Zm-.31,0a.59.59,0,0,0,0-.2.26.26,0,0,0-.23-.13.27.27,0,0,0-.24.13.66.66,0,0,0,0,.21.48.48,0,0,0,0,.18.24.24,0,0,0,.24.14.24.24,0,0,0,.23-.14A.38.38,0,0,0,52.45,107.68Z" transform="translate(-40.11 -6.01)"/><path class="cls-17" d="M54.26,107.54v.19s0,0,0,0h-.09a0,0,0,0,0,0,0v.43a0,0,0,0,1,0,0h-.22a0,0,0,0,1,0,0v-.43a0,0,0,0,0,0,0H53s0,0,0,0v-.15a.07.07,0,0,1,0,0l.49-1.08a.05.05,0,0,1,0,0h.24s0,0,0,0v0l-.46,1s0,0,0,0h.46l0,0v-.34s0,0,0,0h.22s0,0,0,0v.34a0,0,0,0,0,0,0h.09S54.26,107.51,54.26,107.54Z" transform="translate(-40.11 -6.01)"/><path class="cls-17" d="M54.53,108.22V108s0,0,0-.05.22-.24.42-.47l.17-.19a.82.82,0,0,0,.24-.43.21.21,0,0,0-.08-.17.26.26,0,0,0-.2-.07.25.25,0,0,0-.19.07.22.22,0,0,0-.08.18V107a0,0,0,0,1,0,0h-.22a0,0,0,0,1,0,0v-.11a.5.5,0,0,1,.09-.24.47.47,0,0,1,.2-.17.72.72,0,0,1,.29-.06.74.74,0,0,1,.31.07.46.46,0,0,1,.21.18.56.56,0,0,1,.07.26.88.88,0,0,1-.23.5l-.2.23-.24.26L55,108s0,0,0,0h.74a0,0,0,0,1,0,.05v.18a0,0,0,0,1,0,0H54.57A0,0,0,0,1,54.53,108.22Z" transform="translate(-40.11 -6.01)"/><path class="cls-17" d="M56.16,108.13a.55.55,0,0,1-.16-.42V107a.54.54,0,0,1,.16-.42.62.62,0,0,1,.44-.16.64.64,0,0,1,.44.16.54.54,0,0,1,.16.42v.74a.55.55,0,0,1-.16.42.64.64,0,0,1-.44.16A.62.62,0,0,1,56.16,108.13Zm.66-.19a.31.31,0,0,0,.08-.22V107a.29.29,0,0,0-.08-.22.34.34,0,0,0-.44,0,.29.29,0,0,0-.08.22v.76a.31.31,0,0,0,.08.22.34.34,0,0,0,.44,0Z" transform="translate(-40.11 -6.01)"/><path class="cls-17" d="M57.54,108.2a.22.22,0,0,1,0-.14.18.18,0,0,1,.06-.14.2.2,0,0,1,.15-.06.24.24,0,0,1,.15.06.18.18,0,0,1,.06.14.2.2,0,0,1-.06.14.2.2,0,0,1-.15.06A.21.21,0,0,1,57.54,108.2Z" transform="translate(-40.11 -6.01)"/><path class="cls-17" d="M59.35,107.68a.64.64,0,0,1-.06.28.43.43,0,0,1-.19.23.58.58,0,0,1-.33.09.64.64,0,0,1-.34-.09.57.57,0,0,1-.2-.26,1,1,0,0,1,0-.26v-.8a.52.52,0,0,1,.07-.25.55.55,0,0,1,.2-.17.7.7,0,0,1,.3-.06.64.64,0,0,1,.28.06.47.47,0,0,1,.2.17.48.48,0,0,1,.06.24v0a0,0,0,0,1,0,0H59s0,0,0,0v0a.24.24,0,0,0-.07-.18.28.28,0,0,0-.18-.06.24.24,0,0,0-.18.07.21.21,0,0,0-.07.18v.28h0a.41.41,0,0,1,.3-.11.6.6,0,0,1,.27.07.5.5,0,0,1,.19.19A.81.81,0,0,1,59.35,107.68Zm-.31,0a.42.42,0,0,0,0-.2.26.26,0,0,0-.23-.13.24.24,0,0,0-.23.13.46.46,0,0,0,0,.21.48.48,0,0,0,0,.18.24.24,0,0,0,.24.14.23.23,0,0,0,.23-.14A.38.38,0,0,0,59,107.68Z" transform="translate(-40.11 -6.01)"/><path class="cls-17" d="M59.76,108.13a.56.56,0,0,1-.17-.42V107a.54.54,0,0,1,.17-.42.61.61,0,0,1,.44-.16.64.64,0,0,1,.44.16.54.54,0,0,1,.16.42v.74a.55.55,0,0,1-.16.42.64.64,0,0,1-.44.16A.61.61,0,0,1,59.76,108.13Zm.65-.19a.28.28,0,0,0,.09-.22V107a.27.27,0,0,0-.09-.22.25.25,0,0,0-.21-.08.27.27,0,0,0-.22.08.29.29,0,0,0-.08.22v.76a.28.28,0,0,0,.3.3A.29.29,0,0,0,60.41,107.94Z" transform="translate(-40.11 -6.01)"/><g class="cls-31"><path class="cls-17" d="M50.71,110.45v-1.13s0,0,0,0h.15v1h.58a0,0,0,0,1,0,0s0,0,0,0v.08s0,0,0,0h-.74Z" transform="translate(-40.11 -6.01)"/><path class="cls-17" d="M52.12,109.64a.27.27,0,0,1,.12.09.42.42,0,0,1,0,.15v.57h-.14s0,0,0,0v0h0a.41.41,0,0,1-.11.07l-.14,0a.32.32,0,0,1-.2-.06.23.23,0,0,1-.08-.19.24.24,0,0,1,.09-.2.4.4,0,0,1,.26-.08h.19v0a.18.18,0,0,0,0-.11.18.18,0,0,0-.13,0l-.11,0a.13.13,0,0,0-.06.07s0,0,0,0h-.14a.23.23,0,0,1,.11-.16.38.38,0,0,1,.22-.06A.34.34,0,0,1,52.12,109.64Zm-.07.65a.13.13,0,0,0,.07-.12v-.09s0,0,0,0H52a.25.25,0,0,0-.16,0,.11.11,0,0,0-.06.1.15.15,0,0,0,0,.1.21.21,0,0,0,.12,0A.25.25,0,0,0,52.05,110.29Z" transform="translate(-40.11 -6.01)"/><path class="cls-17" d="M52.62,110.44a.28.28,0,0,1-.12-.08.19.19,0,0,1,0-.12h0v0h.15a.1.1,0,0,0,0,.08.18.18,0,0,0,.13,0,.21.21,0,0,0,.12,0s.05,0,.05-.09,0,0-.05-.07l-.14,0-.15,0a.31.31,0,0,1-.11-.08.21.21,0,0,1,0-.13.2.2,0,0,1,.09-.18.41.41,0,0,1,.23-.06.31.31,0,0,1,.17,0,.25.25,0,0,1,.12.08.28.28,0,0,1,0,.12v0H53s0,0-.05-.08a.25.25,0,0,0-.13,0,.21.21,0,0,0-.12,0,.08.08,0,0,0,0,.08.08.08,0,0,0,0,.07l.14,0L53,110a.31.31,0,0,1,.11.08.21.21,0,0,1,0,.13.2.2,0,0,1-.09.18.36.36,0,0,1-.24.07A.43.43,0,0,1,52.62,110.44Z" transform="translate(-40.11 -6.01)"/><path class="cls-17" d="M53.71,109.74h-.19v.44a.15.15,0,0,0,0,.1.13.13,0,0,0,.1,0h0a0,0,0,0,1,0,0s0,0,0,0v.09l0,0h-.07a.31.31,0,0,1-.19,0s-.07-.08-.07-.17v-.49h-.11s0,0,0,0v-.08s0,0,0,0h.11v-.19s0,0,0,0h.14s0,0,0,0v.19h.19s0,0,0,0v.08S53.72,109.73,53.71,109.74Z" transform="translate(-40.11 -6.01)"/><path class="cls-17" d="M54.9,109.34a.23.23,0,0,1,.12.12.33.33,0,0,1,0,.17.34.34,0,0,1,0,.18.32.32,0,0,1-.12.11.34.34,0,0,1-.18,0h-.29a0,0,0,0,0,0,0v.48h-.15V109.3h.46A.35.35,0,0,1,54.9,109.34Zm0,.44a.18.18,0,0,0,0-.15.16.16,0,0,0,0-.14.2.2,0,0,0-.15-.06h-.28v.39h.28A.2.2,0,0,0,54.85,109.78Z" transform="translate(-40.11 -6.01)"/><path class="cls-17" d="M55.7,109.62a0,0,0,0,1,0,0l0,.11s0,0,0,0h-.1a.21.21,0,0,0-.13,0,.22.22,0,0,0,0,.14v.49h-.15v-.81a0,0,0,0,1,0,0h.15v.09h0a.23.23,0,0,1,.21-.11Z" transform="translate(-40.11 -6.01)"/><path class="cls-17" d="M55.87,109.46a.09.09,0,0,1,0-.08.08.08,0,0,1,0-.07.09.09,0,0,1,.07,0,.1.1,0,0,1,.08,0,.09.09,0,0,1,0,.07.11.11,0,0,1,0,.08.1.1,0,0,1-.08,0A.09.09,0,0,1,55.87,109.46Zm0,1v-.81a0,0,0,0,1,0,0H56v.83h-.15Z" transform="translate(-40.11 -6.01)"/><path class="cls-17" d="M56.39,110.41a.3.3,0,0,1-.12-.17.62.62,0,0,1,0-.21.64.64,0,0,1,0-.2.33.33,0,0,1,.12-.17.38.38,0,0,1,.22-.06.43.43,0,0,1,.22.06.36.36,0,0,1,.12.16s0,0,0,.05h0s0,0,0,0h-.12a0,0,0,0,1,0,0v0a.21.21,0,0,0-.19-.13.2.2,0,0,0-.13,0,.17.17,0,0,0-.06.1.63.63,0,0,0,0,.16.61.61,0,0,0,0,.15.16.16,0,0,0,.07.11.21.21,0,0,0,.12,0,.27.27,0,0,0,.12,0,.36.36,0,0,0,.07-.1h0s0,0,0,0l.1,0a0,0,0,0,1,0,0v0a.28.28,0,0,1-.12.16.43.43,0,0,1-.22.06A.38.38,0,0,1,56.39,110.41Z" transform="translate(-40.11 -6.01)"/><path class="cls-17" d="M57.69,110.23a0,0,0,0,1,0,0h0l.07,0a0,0,0,0,1,0,0v0a.4.4,0,0,1-.13.13.38.38,0,0,1-.19,0,.31.31,0,0,1-.2,0,.26.26,0,0,1-.12-.15.6.6,0,0,1,0-.24.74.74,0,0,1,0-.18.29.29,0,0,1,.12-.18.32.32,0,0,1,.22-.07.35.35,0,0,1,.24.08.45.45,0,0,1,.11.24s0,.09,0,.15,0,0,0,0h-.54a.55.55,0,0,0,0,.09.23.23,0,0,0,.08.11.25.25,0,0,0,.13,0A.24.24,0,0,0,57.69,110.23Zm-.34-.46a.21.21,0,0,0-.06.1.64.64,0,0,0,0,.09,0,0,0,0,0,0,0h.38a0,0,0,0,0,0,0s0-.06,0-.08a.18.18,0,0,0-.07-.1.16.16,0,0,0-.12,0A.21.21,0,0,0,57.35,109.77Z" transform="translate(-40.11 -6.01)"/></g><path class="cls-17" d="M95.71,108.46v.18s0,0,0,0H95.3a0,0,0,0,0,0,0v.36s0,0,0,0h-.18a0,0,0,0,1,0,0v-.36s0,0,0,0h-.38s0,0,0,0v-.18s0,0,0,0H95s0,0,0,0V108a0,0,0,0,1,0,0h.18s0,0,0,0v.37l0,0h.37S95.71,108.43,95.71,108.46Z" transform="translate(-40.11 -6.01)"/><path class="cls-17" d="M97.05,108.09v.81a.45.45,0,0,1-.07.25.46.46,0,0,1-.2.16.65.65,0,0,1-.29.06.88.88,0,0,1-.29-.05.45.45,0,0,1-.19-.17.4.4,0,0,1-.07-.24v0s0,0,0,0h.22s0,0,0,0v0a.24.24,0,0,0,.25.24.21.21,0,0,0,.18-.07.25.25,0,0,0,.08-.18v-.29h0a.44.44,0,0,1-.3.1.61.61,0,0,1-.28-.06.47.47,0,0,1-.18-.19.67.67,0,0,1-.07-.33.61.61,0,0,1,0-.28.52.52,0,0,1,.2-.24.66.66,0,0,1,.32-.08.62.62,0,0,1,.34.09.52.52,0,0,1,.2.26A.62.62,0,0,1,97.05,108.09Zm-.3,0a.34.34,0,0,0,0-.18.22.22,0,0,0-.23-.14.23.23,0,0,0-.24.14.34.34,0,0,0,0,.18.46.46,0,0,0,0,.21.27.27,0,0,0,.46,0A.54.54,0,0,0,96.75,108.08Z" transform="translate(-40.11 -6.01)"/><path class="cls-17" d="M97.39,109.3a.2.2,0,0,1-.06-.15.2.2,0,0,1,.06-.14.2.2,0,0,1,.15-.06.24.24,0,0,1,.15.06.2.2,0,0,1,.06.14.2.2,0,0,1-.06.15.25.25,0,0,1-.15,0A.23.23,0,0,1,97.39,109.3Z" transform="translate(-40.11 -6.01)"/><path class="cls-17" d="M98.33,107.51h.24s0,0,0,0v1.76s0,0,0,0h-.22s0,0,0,0v-1.49s0,0,0,0l-.25.07h0s0,0,0,0,0,0,0,0v-.16s0,0,0,0l.25-.12Z" transform="translate(-40.11 -6.01)"/><path class="cls-17" d="M98.93,109.31v-.17s0,0,0,0l.41-.47.17-.2a.83.83,0,0,0,.24-.42.23.23,0,0,0-.07-.18.29.29,0,0,0-.2-.07.27.27,0,0,0-.2.07.24.24,0,0,0-.07.18v.06s0,0,0,0H99s0,0,0,0V108a.41.41,0,0,1,.08-.25.42.42,0,0,1,.21-.16.65.65,0,0,1,.29-.06.75.75,0,0,1,.31.06.7.7,0,0,1,.2.18.48.48,0,0,1,.07.26.85.85,0,0,1-.23.5c0,.07-.12.15-.2.24l-.23.26-.07.08h0a0,0,0,0,0,0,0h.73s0,0,0,0v.18s0,0,0,0H99S98.93,109.34,98.93,109.31Z" transform="translate(-40.11 -6.01)"/><path class="cls-17" d="M100.64,108.23a.4.4,0,0,1-.15-.14.46.46,0,0,1,0-.21.41.41,0,0,1,0-.19.43.43,0,0,1,.15-.15.35.35,0,0,1,.2-.05.33.33,0,0,1,.2.05.31.31,0,0,1,.15.15.33.33,0,0,1,.06.19.37.37,0,0,1-.06.21.32.32,0,0,1-.14.14.39.39,0,0,1-.21.06A.36.36,0,0,1,100.64,108.23Zm.37-.17a.29.29,0,0,0,.07-.18.24.24,0,0,0-.07-.16.22.22,0,0,0-.17-.07.24.24,0,0,0-.23.23.28.28,0,0,0,.06.18.27.27,0,0,0,.17.06A.25.25,0,0,0,101,108.06Zm-.27,1.27v0l1-1.76s0,0,0,0h.13s0,0,0,0v0l-1,1.76a0,0,0,0,1,0,0h-.13S100.74,109.34,100.74,109.33Zm.91,0a.4.4,0,0,1-.15-.14.5.5,0,0,1,0-.21.46.46,0,0,1,0-.2.4.4,0,0,1,.15-.14.39.39,0,0,1,.21-.06.36.36,0,0,1,.2.06.4.4,0,0,1,.15.14.46.46,0,0,1,.05.2.5.5,0,0,1-.05.21.4.4,0,0,1-.15.14.36.36,0,0,1-.2.06A.39.39,0,0,1,101.65,109.32Zm.37-.18a.21.21,0,0,0,.07-.17.24.24,0,0,0-.23-.23.25.25,0,0,0-.17.06.23.23,0,0,0-.07.17.24.24,0,0,0,.24.24A.2.2,0,0,0,102,109.14Z" transform="translate(-40.11 -6.01)"/><path class="cls-17" d="M51.83,118a.82.82,0,0,1,0,.26.52.52,0,0,1-.2.26.64.64,0,0,1-.34.09.57.57,0,0,1-.34-.1.51.51,0,0,1-.2-.27.88.88,0,0,1,0-.2s0,0,0,0h.23s0,0,0,0a.37.37,0,0,0,0,.12.28.28,0,0,0,.09.14.3.3,0,0,0,.16,0,.24.24,0,0,0,.24-.16.59.59,0,0,0,0-.2.51.51,0,0,0-.05-.22.23.23,0,0,0-.23-.15.19.19,0,0,0-.11,0h-.06l-.11-.14s0,0,0,0,0,0,0,0l.42-.42v0h-.67s0,0,0,0v-.18s0,0,0,0h1s0,0,0,0V117a.07.07,0,0,1,0,.06l-.37.38h0a.45.45,0,0,1,.35.27A.68.68,0,0,1,51.83,118Z" transform="translate(-40.11 -6.01)"/><path class="cls-17" d="M52.39,116.75h.24s0,0,0,0v1.76a0,0,0,0,1,0,0h-.22a0,0,0,0,1,0,0v-1.5h0l-.25.07h0s0,0,0,0a0,0,0,0,1,0,0v-.15a.05.05,0,0,1,0,0l.25-.11Z" transform="translate(-40.11 -6.01)"/><path class="cls-17" d="M53,118.55v-.18s0,0,0-.05.22-.24.41-.47l.17-.19a.82.82,0,0,0,.24-.43.21.21,0,0,0-.08-.17.25.25,0,0,0-.19-.07.27.27,0,0,0-.2.07.21.21,0,0,0-.07.18v.06a0,0,0,0,1,0,0H53a0,0,0,0,1,0,0v-.11a.41.41,0,0,1,.08-.24.51.51,0,0,1,.21-.17.65.65,0,0,1,.29,0,.7.7,0,0,1,.3.06.53.53,0,0,1,.21.18.56.56,0,0,1,.07.26.83.83,0,0,1-.23.49,2.12,2.12,0,0,1-.2.24l-.23.27-.08.08h.74s0,0,0,.05v.18a0,0,0,0,1,0,0H53A0,0,0,0,1,53,118.55Z" transform="translate(-40.11 -6.01)"/><path class="cls-17" d="M54.72,116.75H55s0,0,0,0v1.76a0,0,0,0,1,0,0h-.22a0,0,0,0,1,0,0v-1.5h0l-.24.07h0s0,0,0,0a0,0,0,0,1,0,0v-.15a.05.05,0,0,1,0,0l.26-.11Z" transform="translate(-40.11 -6.01)"/><path class="cls-17" d="M56.58,117.87v.19s0,0,0,0h-.09a0,0,0,0,0,0,0v.43a0,0,0,0,1,0,0h-.22a0,0,0,0,1,0,0v-.43a0,0,0,0,0,0,0h-.79s0,0,0,0v-.15a.07.07,0,0,1,0,0l.49-1.08a.05.05,0,0,1,0,0h.23s0,0,0,0v0l-.46,1s0,0,0,0h.46s0,0,0,0v-.34s0,0,0,0h.22s0,0,0,0v.34s0,0,0,0h.09S56.58,117.84,56.58,117.87Z" transform="translate(-40.11 -6.01)"/><path class="cls-17" d="M58,118a.85.85,0,0,1,0,.23.6.6,0,0,1-.2.27.68.68,0,0,1-.35.1.65.65,0,0,1-.34-.1.47.47,0,0,1-.2-.26.27.27,0,0,1,0-.12h0a0,0,0,0,1,0,0h.26l0,0v0a0,0,0,0,1,0,0,.34.34,0,0,0,.09.14.29.29,0,0,0,.16,0,.24.24,0,0,0,.16,0,.28.28,0,0,0,.09-.14.59.59,0,0,0,0-.14.77.77,0,0,0,0-.15.22.22,0,0,0-.08-.14.31.31,0,0,0-.17,0,.4.4,0,0,0-.15,0,.18.18,0,0,0-.09.1.05.05,0,0,1,0,0H56.9a0,0,0,0,1,0,0v-1s0,0,0,0h1s0,0,0,0V117s0,0,0,0h-.74v.47h0s0,0,0,0a.48.48,0,0,1,.29-.09.5.5,0,0,1,.51.35A1,1,0,0,1,58,118Z" transform="translate(-40.11 -6.01)"/><path class="cls-17" d="M58.31,118.53a.18.18,0,0,1-.06-.14.19.19,0,0,1,.07-.14.2.2,0,0,1,.15-.06.24.24,0,0,1,.15.06.19.19,0,0,1,0,.28.2.2,0,0,1-.15.06A.21.21,0,0,1,58.31,118.53Z" transform="translate(-40.11 -6.01)"/><path class="cls-17" d="M60.09,118a.63.63,0,0,1-.05.26.43.43,0,0,1-.2.26.58.58,0,0,1-.33.09.57.57,0,0,1-.34-.1.46.46,0,0,1-.2-.27.88.88,0,0,1,0-.2s0,0,0,0h.22s.05,0,.05,0a.37.37,0,0,0,0,.12.28.28,0,0,0,.09.14.28.28,0,0,0,.16,0,.25.25,0,0,0,.24-.16.59.59,0,0,0,0-.2.51.51,0,0,0,0-.22.23.23,0,0,0-.23-.15.19.19,0,0,0-.11,0h-.06l-.11-.14s0,0,0,0,0,0,0,0l.42-.42v0H59s0,0,0,0v-.18s0,0,0,0h1s0,0,0,0V117a.14.14,0,0,1,0,.06l-.38.38h0a.46.46,0,0,1,.35.27A.68.68,0,0,1,60.09,118Z" transform="translate(-40.11 -6.01)"/><path class="cls-17" d="M60.65,116.75h.24a0,0,0,0,1,0,0v1.76a0,0,0,0,1,0,0h-.22a0,0,0,0,1-.05,0v-1.5h0l-.25.07h0s0,0,0,0v-.15a.05.05,0,0,1,0,0l.26-.11Z" transform="translate(-40.11 -6.01)"/><g class="cls-31"><path class="cls-17" d="M50.71,120.78v-1.13s0,0,0,0h.15v1a0,0,0,0,0,0,0h.58s0,0,0,0v.08s0,0,0,0a0,0,0,0,1,0,0h-.71S50.71,120.79,50.71,120.78Z" transform="translate(-40.11 -6.01)"/><path class="cls-17" d="M52.12,120a.27.27,0,0,1,.12.09.42.42,0,0,1,0,.15v.57s0,0,0,0h-.11a0,0,0,0,1,0,0s0,0,0,0v0h0a.41.41,0,0,1-.11.07l-.14,0a.32.32,0,0,1-.2-.06.23.23,0,0,1-.08-.19.24.24,0,0,1,.09-.2.4.4,0,0,1,.26-.08h.19v0a.18.18,0,0,0,0-.11.18.18,0,0,0-.13,0l-.11,0a.13.13,0,0,0-.06.07s0,0,0,0h-.14a.23.23,0,0,1,.11-.16.38.38,0,0,1,.22-.06A.34.34,0,0,1,52.12,120Zm-.07.65a.13.13,0,0,0,.07-.12v-.09H52a.25.25,0,0,0-.16,0,.11.11,0,0,0-.06.1.15.15,0,0,0,0,.1.21.21,0,0,0,.12,0A.25.25,0,0,0,52.05,120.62Z" transform="translate(-40.11 -6.01)"/><path class="cls-17" d="M52.62,120.77a.28.28,0,0,1-.12-.08.19.19,0,0,1,0-.12h0v0h.15a.1.1,0,0,0,0,.08.18.18,0,0,0,.13,0,.21.21,0,0,0,.12,0s.05-.05.05-.09,0,0-.05-.07l-.14,0-.15,0a.31.31,0,0,1-.11-.08.21.21,0,0,1,0-.13.2.2,0,0,1,.09-.18.42.42,0,0,1,.23-.07.31.31,0,0,1,.17,0,.25.25,0,0,1,.12.08.28.28,0,0,1,0,.12,0,0,0,0,1,0,0H53a.1.1,0,0,0-.05-.08.25.25,0,0,0-.13,0,.21.21,0,0,0-.12,0,.08.08,0,0,0,0,.08.08.08,0,0,0,0,.07l.14.05.16,0a.31.31,0,0,1,.11.08.21.21,0,0,1,0,.13.2.2,0,0,1-.09.18.36.36,0,0,1-.24.07A.43.43,0,0,1,52.62,120.77Z" transform="translate(-40.11 -6.01)"/><path class="cls-17" d="M53.71,120.07h-.19v.44a.15.15,0,0,0,0,.1.13.13,0,0,0,.1,0h.05s0,0,0,0v.09l0,0h-.07a.31.31,0,0,1-.19-.05s-.07-.08-.07-.17v-.49h-.11s0,0,0,0V120s0,0,0,0h.11v-.18a0,0,0,0,1,0,0h.14a0,0,0,0,1,0,0v.18h.19s0,0,0,0v.08S53.72,120.06,53.71,120.07Z" transform="translate(-40.11 -6.01)"/><path class="cls-17" d="M54.9,119.67a.23.23,0,0,1,.12.12.33.33,0,0,1,0,.17.34.34,0,0,1,0,.18.32.32,0,0,1-.12.11.34.34,0,0,1-.18,0h-.3v.48s0,0,0,0h-.13v-1.15h.46A.35.35,0,0,1,54.9,119.67Zm0,.44a.2.2,0,0,0,0-.15.16.16,0,0,0,0-.14.2.2,0,0,0-.15-.06h-.28v.39h.28A.2.2,0,0,0,54.85,120.11Z" transform="translate(-40.11 -6.01)"/><path class="cls-17" d="M55.7,120a0,0,0,0,1,0,0l0,.11s0,0,0,0h-.1a.21.21,0,0,0-.13.05.22.22,0,0,0,0,.14v.49h-.13s0,0,0,0V120a0,0,0,0,1,0,0h.15V120h0a.24.24,0,0,1,.21-.12Z" transform="translate(-40.11 -6.01)"/><path class="cls-17" d="M55.87,119.79a.09.09,0,0,1,0-.08.08.08,0,0,1,0-.07.09.09,0,0,1,.07,0,.1.1,0,0,1,.08,0,.09.09,0,0,1,0,.07.11.11,0,0,1,0,.08.1.1,0,0,1-.08,0A.09.09,0,0,1,55.87,119.79Zm0,1V120a0,0,0,0,1,0,0H56v.83h-.15Z" transform="translate(-40.11 -6.01)"/><path class="cls-17" d="M56.39,120.74a.3.3,0,0,1-.12-.17.62.62,0,0,1,0-.21.64.64,0,0,1,0-.2.33.33,0,0,1,.12-.17.38.38,0,0,1,.22-.06.43.43,0,0,1,.22.06.36.36,0,0,1,.12.16s0,0,0,0h0s0,0,0,0h-.12a0,0,0,0,1,0,0v0a.21.21,0,0,0-.19-.13.2.2,0,0,0-.13,0,.17.17,0,0,0-.06.1.63.63,0,0,0,0,.16.61.61,0,0,0,0,.15.16.16,0,0,0,.07.11.21.21,0,0,0,.12,0,.27.27,0,0,0,.12,0,.36.36,0,0,0,.07-.1h0s0,0,0,0l.1,0a0,0,0,0,1,0,0v0a.28.28,0,0,1-.12.16.43.43,0,0,1-.22.06A.38.38,0,0,1,56.39,120.74Z" transform="translate(-40.11 -6.01)"/><path class="cls-17" d="M57.69,120.56a0,0,0,0,1,0,0h0l.07,0a0,0,0,0,1,0,0v0a.4.4,0,0,1-.13.13.38.38,0,0,1-.19,0,.31.31,0,0,1-.2,0,.29.29,0,0,1-.12-.15.6.6,0,0,1,0-.24.74.74,0,0,1,0-.18.29.29,0,0,1,.12-.18.32.32,0,0,1,.22-.07.35.35,0,0,1,.24.08.45.45,0,0,1,.11.24s0,.09,0,.15,0,0,0,0h-.53a0,0,0,0,0,0,0,.55.55,0,0,0,0,.09.23.23,0,0,0,.08.11.25.25,0,0,0,.13,0A.24.24,0,0,0,57.69,120.56Zm-.34-.46a.21.21,0,0,0-.06.1.64.64,0,0,0,0,.09h.4s0-.06,0-.08a.18.18,0,0,0-.07-.1.16.16,0,0,0-.12,0A.21.21,0,0,0,57.35,120.1Z" transform="translate(-40.11 -6.01)"/></g><path class="cls-17" d="M96.24,118.79V119s0,0,0,0h-.37a0,0,0,0,0,0,0v.36s0,0,0,0h-.18a0,0,0,0,1,0,0V119s0,0,0,0h-.38s0,0,0,0v-.18s0,0,0,0h.38s0,0,0,0v-.37a0,0,0,0,1,0,0h.18s0,0,0,0v.37a0,0,0,0,0,0,0h.37S96.24,118.76,96.24,118.79Z" transform="translate(-40.11 -6.01)"/><path class="cls-17" d="M96.77,117.84H97s0,0,0,0v1.76s0,0,0,0h-.22s0,0,0,0v-1.49a0,0,0,0,0,0,0l-.24.07h0a0,0,0,0,1,0,0s0,0,0,0V118s0,0,0,0l.26-.12Z" transform="translate(-40.11 -6.01)"/><path class="cls-17" d="M97.68,117.84h.24a0,0,0,0,1,0,0v1.76a0,0,0,0,1,0,0H97.7s0,0,0,0v-1.49s0,0,0,0l-.24.07h0l0,0a0,0,0,0,1,0,0V118s0,0,0,0l.26-.12Z" transform="translate(-40.11 -6.01)"/><path class="cls-17" d="M98.34,119.63a.2.2,0,0,1-.06-.15.2.2,0,0,1,.06-.14.24.24,0,0,1,.15-.06.2.2,0,0,1,.15.06.21.21,0,0,1,.07.14.18.18,0,0,1-.07.15.25.25,0,0,1-.15.05A.2.2,0,0,1,98.34,119.63Z" transform="translate(-40.11 -6.01)"/><path class="cls-17" d="M100.14,119.1a1,1,0,0,1,0,.24.52.52,0,0,1-.2.26.6.6,0,0,1-.35.1.64.64,0,0,1-.34-.09.63.63,0,0,1-.2-.26.28.28,0,0,1,0-.13h0s0,0,0,0h.26s0,0,0,0v0s0,0,0,0a.25.25,0,0,0,.25.18.28.28,0,0,0,.16,0,.34.34,0,0,0,.09-.14.36.36,0,0,0,0-.14.41.41,0,0,0,0-.16.2.2,0,0,0-.08-.13.31.31,0,0,0-.17,0,.4.4,0,0,0-.15,0,.28.28,0,0,0-.09.1.05.05,0,0,1,0,0H99s0,0,0,0v-1s0,0,0,0h1s0,0,0,0v.18s0,0,0,0h-.72a0,0,0,0,0,0,0,0,0,0,0,0,0,0v.47h0a.59.59,0,0,1,.61,0,.46.46,0,0,1,.19.26A1,1,0,0,1,100.14,119.1Z" transform="translate(-40.11 -6.01)"/><path class="cls-17" d="M100.64,118.56a.4.4,0,0,1-.15-.14.46.46,0,0,1,0-.2.42.42,0,0,1,0-.2.43.43,0,0,1,.15-.15.35.35,0,0,1,.2-.05.33.33,0,0,1,.2.05.31.31,0,0,1,.15.15.34.34,0,0,1,.06.2.36.36,0,0,1-.06.2.32.32,0,0,1-.14.14.39.39,0,0,1-.21.06A.36.36,0,0,1,100.64,118.56Zm.37-.17a.28.28,0,0,0,.07-.17.26.26,0,0,0-.07-.17.22.22,0,0,0-.17-.07.2.2,0,0,0-.16.07.21.21,0,0,0-.07.17.27.27,0,0,0,.06.17.28.28,0,0,0,.17.07A.26.26,0,0,0,101,118.39Zm-.27,1.27v0l1-1.76s0,0,0,0h.13s0,0,0,0v0l-1,1.76a0,0,0,0,1,0,0h-.13S100.74,119.67,100.74,119.66Zm.91,0a.4.4,0,0,1-.15-.14.5.5,0,0,1,0-.21.46.46,0,0,1,0-.2.4.4,0,0,1,.15-.14.39.39,0,0,1,.21-.06.36.36,0,0,1,.2.06.4.4,0,0,1,.15.14.46.46,0,0,1,.05.2.5.5,0,0,1-.05.21.4.4,0,0,1-.15.14.36.36,0,0,1-.2.06A.39.39,0,0,1,101.65,119.65Zm.37-.18a.21.21,0,0,0,.07-.17.24.24,0,0,0-.23-.23.22.22,0,0,0-.17.07.2.2,0,0,0-.07.16.24.24,0,0,0,.24.24A.2.2,0,0,0,102,119.47Z" transform="translate(-40.11 -6.01)"/><path class="cls-12" d="M69.28,8.6,68.7,6.45s0,0,0,0l0,0s0,0,0,0H69a.06.06,0,0,1,.06.05l.36,1.45h0l.34-1.45a.06.06,0,0,1,.06-.05h.29a0,0,0,0,1,0,.05l.37,1.45h0L71,6.44A.06.06,0,0,1,71,6.39h.28l0,0s0,0,0,0L70.8,8.6a.06.06,0,0,1-.06.05h-.28a0,0,0,0,1,0-.05L70,7.08h0L69.65,8.6s0,.05-.06.05h-.26A0,0,0,0,1,69.28,8.6Z" transform="translate(-40.11 -6.01)"/><path class="cls-12" d="M72.43,7.05a.57.57,0,0,1,.24.19.54.54,0,0,1,.08.28V8.59s0,.06,0,.06h-.27s-.05,0-.05-.06V8.51h0a.6.6,0,0,1-.46.17.61.61,0,0,1-.39-.12.44.44,0,0,1-.16-.36.49.49,0,0,1,.18-.4A.79.79,0,0,1,72,7.65h.35s0,0,0,0V7.56a.24.24,0,0,0-.08-.19.31.31,0,0,0-.22-.07.36.36,0,0,0-.19,0,.18.18,0,0,0-.1.11.05.05,0,0,1-.06,0l-.29,0h0a0,0,0,0,1,0,0,.43.43,0,0,1,.22-.31A.74.74,0,0,1,72.07,7,.86.86,0,0,1,72.43,7.05Zm-.17,1.24a.25.25,0,0,0,.12-.21V7.93a0,0,0,0,0,0,0h-.27a.41.41,0,0,0-.27.07.19.19,0,0,0-.1.18.17.17,0,0,0,.08.16.29.29,0,0,0,.19.06A.4.4,0,0,0,72.26,8.29Z" transform="translate(-40.11 -6.01)"/><path class="cls-12" d="M73.12,8.59V6.44a0,0,0,0,1,0-.05h.28a0,0,0,0,1,0,.05V8.59s0,.06,0,.06h-.28S73.12,8.63,73.12,8.59Z" transform="translate(-40.11 -6.01)"/><path class="cls-12" d="M73.91,8.59V6.44s0-.05,0-.05h.27a0,0,0,0,1,0,.05V8.59s0,.06,0,.06H74S73.91,8.63,73.91,8.59Z" transform="translate(-40.11 -6.01)"/><path class="cls-12" d="M75.63,8.31a.35.35,0,0,0,.14-.13.05.05,0,0,1,0,0h0l.16.13a.05.05,0,0,1,0,0,0,0,0,0,1,0,0,.79.79,0,0,1-.25.23.87.87,0,0,1-.37.08A.75.75,0,0,1,75,8.55a.68.68,0,0,1-.25-.34,1.2,1.2,0,0,1-.06-.4,1.52,1.52,0,0,1,0-.34.64.64,0,0,1,.24-.36A.72.72,0,0,1,75.36,7a.67.67,0,0,1,.71.66c0,.08,0,.16,0,.27a0,0,0,0,1,0,0H75l0,0a.52.52,0,0,0,0,.14.3.3,0,0,0,.13.18.49.49,0,0,0,.25.07A.65.65,0,0,0,75.63,8.31Zm-.47-1a.26.26,0,0,0-.11.16.58.58,0,0,0,0,.14l0,0h.65a0,0,0,0,0,0,0c0-.07,0-.11,0-.12a.36.36,0,0,0-.12-.18.35.35,0,0,0-.21-.06A.32.32,0,0,0,75.16,7.36Z" transform="translate(-40.11 -6.01)"/><path class="cls-12" d="M77.22,7.3h-.31a0,0,0,0,0,0,0v.76a.26.26,0,0,0,0,.18.22.22,0,0,0,.17.06h.09s0,0,0,0v.21s0,.06,0,.06H77a.64.64,0,0,1-.38-.09.39.39,0,0,1-.13-.33v-.9s0,0,0,0h-.17s0,0,0,0v-.2a0,0,0,0,1,0,0h.17s0,0,0,0V6.62s0,0,0,0h.26s0,0,0,0V7l0,0h.31s0,0,0,0v.2S77.26,7.3,77.22,7.3Z" transform="translate(-40.11 -6.01)"/><path class="cls-29" d="M62.13,28.06a1.52,1.52,0,0,1-1,.4s0,0,0,0v.36a.1.1,0,0,1-.1.1h-.24a.11.11,0,0,1-.08,0,.12.12,0,0,1,0-.07v-.36a0,0,0,0,0,0,0,1.44,1.44,0,0,1-.91-.39,1.11,1.11,0,0,1-.32-.82V27s0-.06,0-.07a.11.11,0,0,1,.08,0H60a.1.1,0,0,1,.08,0,.08.08,0,0,1,0,.07v.13a.75.75,0,0,0,.24.57.91.91,0,0,0,.67.23.89.89,0,0,0,.62-.2.7.7,0,0,0,.21-.52.51.51,0,0,0-.1-.32,1.16,1.16,0,0,0-.29-.24l-.5-.27a5.85,5.85,0,0,1-.56-.29,2.21,2.21,0,0,1-.69-.51,1.1,1.1,0,0,1-.22-.7,1.18,1.18,0,0,1,.31-.86,1.44,1.44,0,0,1,.88-.39s0,0,0,0v-.41a.11.11,0,0,1,0-.08l.07,0H61l.08,0a.11.11,0,0,1,0,.08v.4s0,0,0,0a1.46,1.46,0,0,1,1,.38,1.15,1.15,0,0,1,.35.87V25a.11.11,0,0,1,0,.08l-.08,0H61.9s-.06,0-.08,0a.09.09,0,0,1,0-.07V25a.84.84,0,0,0-.22-.6.93.93,0,0,0-.67-.22.92.92,0,0,0-.59.17.63.63,0,0,0-.21.5.55.55,0,0,0,.11.34.84.84,0,0,0,.27.22l.51.23.35.15a2.49,2.49,0,0,1,.86.6,1.2,1.2,0,0,1,.27.79A1.24,1.24,0,0,1,62.13,28.06Z" transform="translate(-40.11 -6.01)"/><path class="cls-29" d="M67.44,26.92a1.79,1.79,0,0,1-.14.73,1.22,1.22,0,0,1-.49.6,1.44,1.44,0,0,1-.8.21,1.58,1.58,0,0,1-.86-.23,1.31,1.31,0,0,1-.49-.66,1.91,1.91,0,0,1-.1-.66v-2.1a1.14,1.14,0,0,1,.39-.9,1.5,1.5,0,0,1,1-.33,1.66,1.66,0,0,1,.72.15,1.22,1.22,0,0,1,.48.42,1.18,1.18,0,0,1,.17.62v.1a.11.11,0,0,1,0,.08l-.07,0h-.45s-.06,0-.08,0a.05.05,0,0,1,0-.05v-.06a.68.68,0,0,0-.19-.5.82.82,0,0,0-1.06,0,.69.69,0,0,0-.21.53v.84s0,0,0,0h0a1.08,1.08,0,0,1,.85-.32,1.19,1.19,0,0,1,1.15.64A1.91,1.91,0,0,1,67.44,26.92Zm-.66,0a1.16,1.16,0,0,0-.12-.56A.69.69,0,0,0,66,26a.78.78,0,0,0-.41.1.72.72,0,0,0-.26.31,1.36,1.36,0,0,0-.11.58,1.14,1.14,0,0,0,.09.48.64.64,0,0,0,.27.33.75.75,0,0,0,.43.12.68.68,0,0,0,.68-.44A1.22,1.22,0,0,0,66.78,26.92Z" transform="translate(-40.11 -6.01)"/><path class="cls-29" d="M71.22,26.57a.09.09,0,0,1,0,.07V27a.09.09,0,0,1,0,.07.08.08,0,0,1-.07,0h-.26a0,0,0,0,0,0,0v1.15a.08.08,0,0,1,0,.07.1.1,0,0,1-.08,0H70.3a.09.09,0,0,1-.07,0,.08.08,0,0,1,0-.07V27.16a0,0,0,0,0,0,0h-2A.1.1,0,0,1,68,27v-.31a.28.28,0,0,1,0-.13l1.32-2.88a.12.12,0,0,1,.12-.08H70c.06,0,.09,0,.09.07v.06L68.8,26.5a0,0,0,0,0,0,0h1.37a0,0,0,0,0,0,0v-1a.08.08,0,0,1,0-.07.09.09,0,0,1,.07,0h.45a.1.1,0,0,1,.08,0,.08.08,0,0,1,0,.07v1a0,0,0,0,0,0,0h.26A.08.08,0,0,1,71.22,26.57Z" transform="translate(-40.11 -6.01)"/><path class="cls-29" d="M72.56,28.3l1.52-4.06s0,0,0,0H72.43s0,0,0,0v.27a.1.1,0,0,1,0,.08.08.08,0,0,1-.07,0H72a.11.11,0,0,1-.08,0,.15.15,0,0,1,0-.08v-.77a.15.15,0,0,1,0-.08.11.11,0,0,1,.08,0h2.73a.1.1,0,0,1,.11.11v.4a.74.74,0,0,1,0,.12l-1.53,4.07a.12.12,0,0,1-.12.08h-.49C72.55,28.41,72.53,28.37,72.56,28.3Z" transform="translate(-40.11 -6.01)"/><path class="cls-29" d="M75.75,28.09A1.42,1.42,0,0,1,75.34,27V25A1.39,1.39,0,0,1,75.75,24a1.5,1.5,0,0,1,1.09-.39,1.52,1.52,0,0,1,1.1.39A1.36,1.36,0,0,1,78.36,25v2a1.39,1.39,0,0,1-.42,1.06,1.52,1.52,0,0,1-1.1.39A1.5,1.5,0,0,1,75.75,28.09Zm1.72-.41a.82.82,0,0,0,.23-.61V25a.78.78,0,0,0-.86-.84A.79.79,0,0,0,76,25v2.08a.79.79,0,0,0,.24.61.8.8,0,0,0,.61.23A.83.83,0,0,0,77.47,27.68Z" transform="translate(-40.11 -6.01)"/><path class="cls-29" d="M79.34,28.28a.5.5,0,0,1-.14-.35.42.42,0,0,1,.15-.32.51.51,0,0,1,.34-.14.52.52,0,0,1,.35.14.42.42,0,0,1,.15.32.46.46,0,0,1-.14.34.48.48,0,0,1-.36.14A.49.49,0,0,1,79.34,28.28Z" transform="translate(-40.11 -6.01)"/><path class="cls-29" d="M81.84,23.63h.48a.11.11,0,0,1,.08,0s0,0,0,.08v4.57s0,.06,0,.07a.11.11,0,0,1-.08,0h-.45a.1.1,0,0,1-.1-.1v-4a0,0,0,0,0,0,0h0l-.68.23h0c-.05,0-.07,0-.07-.09v-.31A.13.13,0,0,1,81,24l.7-.34A.25.25,0,0,1,81.84,23.63Z" transform="translate(-40.11 -6.01)"/><path class="cls-29" d="M86.46,26.57a.14.14,0,0,1,0,.07V27a.14.14,0,0,1,0,.07.11.11,0,0,1-.08,0h-.26a0,0,0,0,0,0,0v1.15a.08.08,0,0,1,0,.07.09.09,0,0,1-.07,0h-.45a.1.1,0,0,1-.08,0,.08.08,0,0,1,0-.07V27.16a0,0,0,0,0,0,0h-2a.1.1,0,0,1-.1-.1v-.31a.28.28,0,0,1,0-.13l1.32-2.88a.13.13,0,0,1,.12-.08h.48c.06,0,.09,0,.09.07l0,.06L84,26.5a0,0,0,0,0,0,0H85.4a0,0,0,0,0,0,0v-1a.08.08,0,0,1,0-.07.1.1,0,0,1,.08,0H86a.09.09,0,0,1,.07,0,.08.08,0,0,1,0,.07v1a0,0,0,0,0,0,0h.26A.11.11,0,0,1,86.46,26.57Z" transform="translate(-40.11 -6.01)"/><path class="cls-29" d="M63.59,32s0,0,0,0v-.15s0,0,0,0l0,0h.89l0,0s0,0,0,0v.15s0,0,0,0h-1Z" transform="translate(-40.11 -6.01)"/><path class="cls-29" d="M65.18,30.7h.24s0,0,0,0v2s0,0,0,0l0,0h-.2l0,0s0,0,0,0V31h0l-.29.1h0s0,0,0,0v-.14a.05.05,0,0,1,0-.05l.3-.15Z" transform="translate(-40.11 -6.01)"/><path class="cls-29" d="M66,32.63a.62.62,0,0,1-.18-.46V31.3a.62.62,0,0,1,.18-.46.77.77,0,0,1,.94,0,.62.62,0,0,1,.18.46v.87a.62.62,0,0,1-.18.46.73.73,0,0,1-.94,0Zm.74-.18a.33.33,0,0,0,.1-.26v-.9a.36.36,0,0,0-.1-.27.37.37,0,0,0-.64.27v.9a.38.38,0,0,0,.64.26Z" transform="translate(-40.11 -6.01)"/><path class="cls-29" d="M67.51,32.75s0,0,0,0v-.15a.09.09,0,0,1,0-.06l.33-.39.23-.27.09-.11a.93.93,0,0,0,.28-.51.26.26,0,0,0-.1-.22.32.32,0,0,0-.24-.09.37.37,0,0,0-.25.09.25.25,0,0,0-.08.22v.08s0,0,0,0,0,0,0,0H67.5a0,0,0,0,1,0,0V31.2a.45.45,0,0,1,.09-.28.44.44,0,0,1,.22-.18.75.75,0,0,1,.31-.06.72.72,0,0,1,.33.07.59.59,0,0,1,.22.19.55.55,0,0,1,.07.28,1,1,0,0,1-.26.58c-.11.15-.31.38-.59.7,0,0,0,0,0,0h.91s0,0,0,0v.15s0,0,0,0a.05.05,0,0,1,0,0h-1.2Z" transform="translate(-40.11 -6.01)"/><path class="cls-29" d="M69.18,32.71a.2.2,0,0,1-.06-.15.16.16,0,0,1,.07-.14.2.2,0,0,1,.15-.06.2.2,0,0,1,.14.06.16.16,0,0,1,.07.14.21.21,0,0,1-.21.21A.21.21,0,0,1,69.18,32.71Z" transform="translate(-40.11 -6.01)"/><path class="cls-29" d="M71.15,32.12a.79.79,0,0,1-.06.32.49.49,0,0,1-.21.26.63.63,0,0,1-.35.09.69.69,0,0,1-.36-.1A.5.5,0,0,1,70,32.4a.79.79,0,0,1,0-.28v-.91a.48.48,0,0,1,.17-.39.66.66,0,0,1,.44-.14.73.73,0,0,1,.3.06.55.55,0,0,1,.21.19.44.44,0,0,1,.07.26v0a0,0,0,0,1,0,0h-.26a0,0,0,0,1,0,0v0a.3.3,0,0,0-.08-.21.29.29,0,0,0-.22-.08.32.32,0,0,0-.24.08.3.3,0,0,0-.09.23v.36h0s0,0,0,0a.46.46,0,0,1,.36-.14.51.51,0,0,1,.5.28A.84.84,0,0,1,71.15,32.12Zm-.28,0a.54.54,0,0,0-.05-.24.31.31,0,0,0-.29-.17.35.35,0,0,0-.18.05.24.24,0,0,0-.11.13.58.58,0,0,0,0,.25.46.46,0,0,0,0,.21.26.26,0,0,0,.11.14.38.38,0,0,0,.19,0,.28.28,0,0,0,.29-.19A.52.52,0,0,0,70.87,32.12Z" transform="translate(-40.11 -6.01)"/><path class="cls-29" d="M71.76,30.7H72a.05.05,0,0,1,0,0v2s0,0,0,0l0,0h-.19l0,0a0,0,0,0,1,0,0V31h0l-.29.1h0s0,0,0,0v-.14a.05.05,0,0,1,0-.05l.31-.15Z" transform="translate(-40.11 -6.01)"/><path class="cls-29" d="M73.16,33a1.8,1.8,0,0,1-.24-.54,2.56,2.56,0,0,1-.09-.69,2.63,2.63,0,0,1,.09-.7,2.16,2.16,0,0,1,.25-.55.05.05,0,0,1,0,0h.19s0,0,0,0a0,0,0,0,0,0,0,2.52,2.52,0,0,0-.21.55,2.89,2.89,0,0,0,0,1.35,2.25,2.25,0,0,0,.21.54,0,0,0,0,0,0,0s0,0,0,0h-.19Z" transform="translate(-40.11 -6.01)"/><path class="cls-29" d="M73.87,32.75s0,0,0,0v-.15a.07.07,0,0,1,0-.06l.34-.39.22-.27.1-.11a1,1,0,0,0,.27-.51.28.28,0,0,0-.09-.22.35.35,0,0,0-.25-.09.32.32,0,0,0-.24.09.29.29,0,0,0-.09.22v.08s0,0,0,0h-.27s0,0,0,0V31.2a.62.62,0,0,1,.09-.28.49.49,0,0,1,.22-.18.78.78,0,0,1,.31-.06.67.67,0,0,1,.33.07.52.52,0,0,1,.22.19.57.57,0,0,1,.08.28,1,1,0,0,1-.27.58c-.11.15-.31.38-.59.7v0h.9s0,0,0,0v.15s0,0,0,0l0,0H73.9Z" transform="translate(-40.11 -6.01)"/><path class="cls-29" d="M75.79,30.7H76a.05.05,0,0,1,0,0v2s0,0,0,0,0,0,0,0h-.19l0,0a0,0,0,0,1,0,0V31h0l-.29.1h0a0,0,0,0,1,0,0v-.14a.05.05,0,0,1,0-.05l.3-.15Z" transform="translate(-40.11 -6.01)"/><path class="cls-29" d="M76.74,31.49a.49.49,0,0,1-.16-.16.43.43,0,0,1,0-.44.49.49,0,0,1,.16-.16.59.59,0,0,1,.23-.05.39.39,0,0,1,.21.06.39.39,0,0,1,.16.15.43.43,0,0,1,0,.44.41.41,0,0,1-.16.16.39.39,0,0,1-.21.06A.46.46,0,0,1,76.74,31.49Zm.42-.18a.29.29,0,0,0,0-.4.27.27,0,0,0-.19-.08.28.28,0,0,0-.2.08.29.29,0,0,0,0,.4.28.28,0,0,0,.2.08A.27.27,0,0,0,77.16,31.31Zm-.29,1.45v0a0,0,0,0,1,0,0l1.1-2a.05.05,0,0,1,0,0h.14s0,0,0,0v0l-1.1,2a.06.06,0,0,1-.06,0h-.14Zm1,0a.41.41,0,0,1-.16-.16.37.37,0,0,1-.06-.21.4.4,0,0,1,.06-.22.41.41,0,0,1,.16-.16.4.4,0,0,1,.22-.06.43.43,0,0,1,.22.06.49.49,0,0,1,.16.16.4.4,0,0,1,.06.22.37.37,0,0,1-.06.21.49.49,0,0,1-.16.16.43.43,0,0,1-.22.06A.4.4,0,0,1,77.87,32.73Zm.41-.18a.24.24,0,0,0,.08-.19.24.24,0,0,0-.08-.2.27.27,0,0,0-.19-.08.27.27,0,0,0-.28.28.3.3,0,0,0,.08.2.28.28,0,0,0,.2.08A.23.23,0,0,0,78.28,32.55Z" transform="translate(-40.11 -6.01)"/><path class="cls-29" d="M79.23,33.06h-.18s0,0,0,0v0a1.9,1.9,0,0,0,.21-.54,2.46,2.46,0,0,0,.08-.67,2.49,2.49,0,0,0-.08-.68,2.1,2.1,0,0,0-.21-.55v0s0,0,0,0h.18a.05.05,0,0,1,0,0,1.64,1.64,0,0,1,.25.55,2.63,2.63,0,0,1,.09.7,2.56,2.56,0,0,1-.09.69,1.8,1.8,0,0,1-.24.54A.06.06,0,0,1,79.23,33.06Z" transform="translate(-40.11 -6.01)"/></g></g></svg>