<?xml version="1.0" encoding="utf-8"?>
<svg viewBox="0 0 500 500" xmlns="http://www.w3.org/2000/svg">
  <defs>
    <path id="J" d="M77.4 284.3L222.9 221c3.2-1.6 6.7-2.2 10.2-1.7l180 15.3c3.4.5 2.8 15.3 0 17.7l-106.3 90.6a26.76 26.76 0 01-23.8 5.9L78.7 299.1c-2.7-.7-3.8-13.6-1.3-14.8z"/>
  </defs>
  <path d="M 434.692 297.189 C 432.944 293.929 431.114 290.712 429.204 287.544 L 423.633 278.729 C 415.234 266.173 405.921 253.783 401.847 239.232 C 396.775 221.271 401.847 201.314 396.442 183.852 C 391.785 168.718 377.732 152.919 367.172 141.693 C 343.557 116.747 311.626 98.62 276.702 99.036 C 269.966 99.119 263.314 99.867 256.662 101.114 C 243.607 103.526 230.718 107.6 218.079 111.924 C 186.065 122.734 153.968 134.875 126.527 154.582 C 99.087 174.289 76.469 202.644 70.233 235.906 C 66.99 253.035 68.154 271.162 62.582 287.71 C 55.93 307.583 41.129 320.555 36.389 341.177 C 30.984 364.876 36.639 392.899 56.512 406.951 C 66.823 414.269 79.795 416.93 92.268 418.426 C 123.783 422.085 155.714 419.009 185.982 409.446 C 203.028 404.041 219.908 396.474 237.786 396.391 C 257.077 396.308 275.122 404.873 293.083 411.857 C 320.689 422.418 350.458 429.652 379.562 424.996 C 408.665 420.339 436.937 401.713 446.5 373.856 C 455.231 348.578 447.581 321.387 434.692 297.189 Z" opacity=".18" class="S X" style="fill: rgb(63, 114, 252);"/>
  <linearGradient id="A" gradientUnits="userSpaceOnUse" x1="264.338" y1="349.89" x2="268.696" y2="353.144" gradientTransform="matrix(0.83153, 0, 0, 0.83153, 34.476545, 99.035173)">
    <stop offset="0.01"/>
    <stop offset="0.08" stop-opacity=".69"/>
    <stop offset="0.21" stop-opacity=".32"/>
    <stop offset="1" stop-opacity="0"/>
  </linearGradient>
  <path d="M 255.248 390.82 L 256.08 390.903 C 256.662 391.402 254.999 391.485 255.248 390.82 Z" fill="url(#A)" style=""/>
  <linearGradient id="B" gradientUnits="userSpaceOnUse" x1="-151.28" y1="-51.844" x2="957.14" y2="777.164" gradientTransform="matrix(0.83153, 0, 0, 0.83153, 34.476545, 99.035173)">
    <stop offset="0.01"/>
    <stop offset="0.08" stop-opacity=".69"/>
    <stop offset="0.21" stop-opacity=".32"/>
    <stop offset="1" stop-opacity="0"/>
  </linearGradient>
  <path d="M 434.692 297.189 C 428.705 299.601 422.302 301.929 418.394 304.673 L 325.928 369.616 C 318.86 374.771 311.459 379.428 303.809 383.669 C 297.573 386.995 293.997 393.481 286.43 395.144 C 282.689 395.809 278.863 395.726 275.122 394.977 C 269.051 393.979 263.064 392.483 257.244 390.404 C 256.495 390.154 255.497 389.988 255.165 390.737 C 201.282 383.419 149.727 363.795 96.343 353.65 C 94.763 353.318 93.682 351.821 94.014 350.241 C 94.181 349.243 94.846 348.412 95.844 348.079 C 100.334 346.499 104.907 345.335 109.647 344.67 L 135.258 340.179 C 152.471 337.186 169.85 335.273 187.312 334.359 C 216.332 333.111 245.519 336.271 274.207 331.698 C 301.398 327.457 327.092 316.564 352.454 305.671 C 358.607 303.01 364.761 300.349 369.583 295.693 C 373.325 292.117 376.319 287.294 381.142 284.966 C 385.965 282.554 392.201 282.97 397.523 283.22 C 408.166 283.968 418.727 285.382 429.121 287.46 C 431.117 290.703 432.946 293.946 434.692 297.189 Z" fill="url(#B)" style=""/>
  <path d="M 98.837 335.44 L 219.825 282.804 C 222.486 281.473 225.396 280.975 228.306 281.39 L 377.982 294.113 C 380.809 294.528 380.31 306.835 377.982 308.831 L 289.59 384.167 C 284.175 388.907 276.802 390.734 269.8 389.073 L 99.918 347.746 C 97.673 347.164 96.758 336.438 98.837 335.44 Z" style=""/>
  <path d="M 98.837 335.44 L 219.825 282.804 C 222.486 281.473 225.396 280.975 228.306 281.39 L 377.982 294.113 C 380.809 294.528 380.31 306.835 377.982 308.831 L 289.59 384.167 C 284.175 388.907 276.802 390.734 269.8 389.073 L 99.918 347.746 C 97.673 347.164 96.758 336.438 98.837 335.44 Z" style="fill: rgb(9, 62, 112);"/>
  <path d="M 378.065 300.1 L 289.673 375.353 C 284.268 380.093 276.868 382.005 269.883 380.342 L 99.835 339.015 C 97.673 338.516 97.424 335.024 99.419 334.026 L 195.544 279.894 C 198.122 278.563 201.115 278.064 204.026 278.48 L 376.568 293.531 C 379.396 293.863 380.393 298.104 378.065 300.1 Z" class="S" style="fill: rgb(34, 93, 147);"/>
  <path d="M 204.026 282.638 L 361.684 305.92 L 313.206 345.335 L 151.307 312.573 Z" style="fill: rgb(63, 136, 252);"/>
  <linearGradient id="E" gradientUnits="userSpaceOnUse" x1="213.63" y1="231.619" x2="448.705" y2="312.962" gradientTransform="matrix(0.83153, 0, 0, 0.83153, 34.476545, 99.035173)">
    <stop offset="0.01"/>
    <stop offset="0.08" stop-opacity=".69"/>
    <stop offset="0.21" stop-opacity=".32"/>
    <stop offset="1" stop-opacity="0"/>
  </linearGradient>
  <path d="M 267.305 324.048 C 274.013 322.634 280.426 320.074 286.264 316.481 C 287.844 315.483 289.673 313.571 288.676 311.907 C 288.01 310.66 286.43 310.328 286.015 309.08 C 288.177 308.249 290.505 308.581 292.417 306.918 C 294.33 305.255 294.579 302.012 292.501 300.765 C 294.164 300.682 295.66 300.1 297.074 299.268 C 298.431 298.322 298.978 296.579 298.404 295.027 C 297.656 293.447 295.66 293.032 293.997 292.782 C 291.669 292.283 289.258 292.117 286.846 292.2 C 284.102 292.455 281.441 293.276 279.03 294.612 C 276.785 295.859 274.955 297.938 272.71 299.102 C 268.137 301.43 262.15 301.181 257.161 302.262 C 253.502 303.093 249.926 304.424 246.351 305.505 C 242.775 306.586 239.283 307.417 235.707 308.166 L 209.763 313.571 C 210.345 317.396 214.42 319.558 218.079 321.054 C 223.102 323.236 228.342 324.881 233.711 325.96 C 237.952 326.542 242.193 326.792 246.434 326.542 C 253.502 326.293 260.487 325.545 267.305 324.048 Z" fill="url(#E)" style=""/>
  <path d="M 187.478 322.385 L 252.504 335.523 L 218.91 362.963 L 151.307 347.746 Z" style="fill: rgb(63, 136, 252);"/>
  <linearGradient id="G" gradientUnits="userSpaceOnUse" x1="179.284" y1="294.933" x2="150.452" y2="369.09" gradientTransform="matrix(0.83153, 0, 0, 0.83153, 34.476545, 99.035173)">
    <stop offset="0.01"/>
    <stop offset="0.08" stop-opacity=".69"/>
    <stop offset="0.21" stop-opacity=".32"/>
    <stop offset="1" stop-opacity="0"/>
  </linearGradient>
  <path d="M 154.965 352.486 C 156.296 355.23 158.707 357.226 161.701 357.974 L 194.297 366.29 C 194.297 366.29 198.787 366.788 201.365 363.878 L 154.965 352.486 Z" fill="url(#G)" style=""/>
  <path d="M 199.037 278.48 L 376.984 303.842 C 379.728 304.257 382.223 302.428 382.805 299.767 L 408.166 171.545 C 409.247 166.14 405.755 160.902 400.35 159.904 C 400.017 159.821 399.602 159.821 399.269 159.737 L 223.567 144.105 C 218.162 143.606 213.422 147.514 212.84 152.919 L 199.037 278.48 Z" class="S" style="fill: rgb(252, 91, 63);"/>
  <path d="M 199.037 278.48 L 376.568 303.758 C 379.562 304.174 382.306 302.179 382.888 299.268 L 408.166 171.545 C 409.247 166.14 405.755 160.902 400.35 159.904 C 400.017 159.821 399.602 159.821 399.269 159.737 L 223.567 144.105 C 218.162 143.606 213.422 147.514 212.84 152.919 L 199.037 278.48 Z" style="fill: rgb(9, 62, 112);"/>
  <path d="M 373.824 296.441 L 399.103 167.055 L 219.825 150.424 L 205.606 272.992 Z" fill="#fff" style=""/>
  <path d="M 191.636 350.075 C 191.553 350.74 191.802 351.405 192.301 351.987 C 192.551 352.154 192.883 352.32 193.133 352.32 C 193.964 352.486 194.796 352.569 195.544 352.486 C 197.041 352.403 198.538 352.154 200.034 351.821 L 202.612 351.322 C 202.945 351.322 203.277 351.156 203.444 350.906 C 203.61 350.574 203.527 350.158 203.277 349.908 C 202.862 349.409 202.28 348.994 201.614 348.827 C 200.118 348.162 198.455 347.663 196.875 347.331 C 196.625 347.331 196.376 347.164 196.126 346.998 C 195.794 346.749 195.71 346.25 195.544 345.834 C 195.128 345.169 194.297 344.836 193.548 345.086 C 192.8 345.252 191.719 345.751 191.553 346.582 C 191.47 347.746 191.47 348.911 191.636 350.075 Z" class="V" style="fill: rgb(249, 198, 214);"/>
  <path d="M 199.868 347.663 C 199.369 347.497 198.787 347.663 198.371 348.079 C 197.956 348.744 198.538 349.659 197.956 350.241 C 197.623 350.49 197.207 350.657 196.791 350.574 L 193.964 350.574 C 193.216 350.574 192.467 350.574 191.719 350.407 C 191.553 350.324 191.387 350.324 191.22 350.324 C 190.971 350.407 190.804 350.657 190.721 350.906 C 190.721 351.156 190.721 351.405 190.804 351.655 C 190.971 352.154 191.22 352.652 191.553 353.068 C 191.618 353.217 191.737 353.335 191.885 353.401 C 192.052 353.484 192.218 353.484 192.384 353.484 L 197.457 353.401 L 200.949 353.068 C 202.612 353.068 204.275 352.819 205.855 352.237 C 206.271 352.07 206.604 351.821 206.77 351.405 C 206.853 351.073 206.77 350.657 206.52 350.324 C 206.271 349.992 206.021 349.825 205.689 349.576 C 204.774 348.994 203.776 348.578 202.695 348.328 C 201.864 347.996 200.949 347.746 199.868 347.663 Z" class="W" style="fill: rgb(86, 80, 86);"/>
  <path d="M 160.62 346.915 L 160.62 347.081 C 160.703 349.326 163.697 349.409 165.276 349.326 C 166.773 349.243 168.353 348.994 169.767 348.661 L 172.344 348.162 C 172.677 348.162 173.01 347.996 173.176 347.746 C 173.342 347.414 173.259 346.998 173.01 346.749 C 172.594 346.25 172.012 345.834 171.347 345.668 L 167.106 344.337 C 165.859 343.921 166.856 342.175 167.023 341.26 C 167.106 341.094 167.106 340.845 167.023 340.678 C 166.856 340.512 166.69 340.346 166.441 340.263 C 165.692 340.013 164.944 339.847 164.112 339.847 C 163.946 339.847 163.78 339.847 163.697 339.93 C 163.541 340.009 163.444 340.171 163.447 340.346 L 161.036 345.584 C 160.786 346 160.703 346.499 160.62 346.915 Z" class="V" style="fill: rgb(249, 198, 214);"/>
  <g fill="#473f47" transform="matrix(0.83153, 0, 0, 0.83153, 34.476543, 99.035172)" style="">
    <path d="M153 218.3s-2.2 12.4 2.3 21.7c2.4 5 5 9.8 8 14.5 0 0-9.5 10.2-9.5 23.1s-.2 13.5-.2 13.5l5.7 2.9 14.1-39.5s.9-5.6 0-7.5-8.1-23.4-8.1-23.4l-12.3-5.3zm51.3-50.2c-2.9 0-6.1-3.1-7.9-8-2.1-5.6-1.2-10.7 2.1-11.9 3.2-1.2 7.2 2.1 9.3 7.7 2.1 5.6 1.2 10.7-2.1 11.9-.4.2-.9.3-1.4.3zm-4.4-17.4c-.2 0-.3 0-.5.1-1.5.6-2.1 4.3-.5 8.5s4.4 6.7 5.9 6.2 2.1-4.3.5-8.5c-1.5-3.8-4-6.2-5.5-6.2h.1z"/>
    <path d="M216 180.4c-.4 0-.8-.2-1-.5l-9.7-12.3c-.5-.6-.4-1.4.2-1.8.6-.5 1.4-.4 1.8.2l9.7 12.3c.5.6.4 1.4-.2 1.8-.2.2-.5.3-.8.3z"/>
  </g>
  <path d="M 199.702 233.827 C 199.868 234.908 199.868 235.989 199.868 237.07 C 199.702 237.901 199.12 238.65 198.455 239.149 C 197.706 239.647 196.958 239.98 196.126 240.146 C 195.877 240.23 195.627 240.313 195.461 240.479 C 195.128 240.812 195.045 241.311 195.128 241.809 L 195.128 244.553 C 195.128 244.803 195.128 245.136 194.962 245.385 C 194.796 245.551 194.629 245.634 194.463 245.634 C 193.05 245.967 191.636 245.219 191.137 243.971 L 190.056 242.225 C 189.723 241.477 189.474 240.645 189.391 239.814 C 189.141 237.153 189.64 234.492 190.804 232.081 C 191.553 230.584 192.634 229.253 194.047 228.255 C 195.128 227.507 197.207 226.343 198.371 227.673 C 198.953 228.339 198.87 229.336 199.452 230.002 C 199.785 230.501 200.45 230.833 200.616 231.498 C 200.7 232.081 200.284 232.579 200.118 233.078 C 199.702 233.245 199.702 233.494 199.702 233.827 Z M 207.768 239.481 L 207.768 239.315 C 207.768 238.65 208.017 238.068 208.433 237.569 C 208.849 237.07 209.597 236.987 210.179 237.319 C 210.429 237.485 210.512 237.735 210.761 237.818 C 211.011 237.901 211.51 237.818 211.759 238.151 C 212.008 238.483 211.925 238.65 212.092 238.982 C 212.258 239.315 212.591 239.481 212.84 239.731 C 214.004 240.978 212.757 243.223 212.258 244.47 L 210.345 250.208 C 209.68 250.291 209.015 250.208 208.35 249.792 C 208.1 249.626 207.934 249.46 207.768 249.293 C 207.352 248.628 207.269 247.796 207.518 247.048 C 207.684 246.466 207.684 245.884 207.601 245.385 L 207.019 243.556 C 206.853 243.057 206.687 242.392 207.102 242.059 C 207.269 241.976 207.435 241.893 207.518 241.726 C 207.601 241.56 207.684 241.394 207.684 241.227 C 207.851 240.562 207.768 239.98 207.768 239.481 Z" class="V" style="fill: rgb(249, 198, 214);"/>
  <path d="M 185.399 284.966 L 196.791 310.66 L 196.293 347.081 L 191.054 346.665 C 191.054 346.665 182.073 325.96 187.894 313.155 C 187.894 313.155 174.008 301.347 168.935 294.612 C 162.616 286.296 164.029 279.395 164.029 279.395 L 185.399 284.966 Z" class="W" style="fill: rgb(86, 80, 86);"/>
  <path d="M 190.721 240.728 C 192.135 241.061 193.465 241.56 194.796 242.142 C 199.203 244.138 199.369 247.63 200.949 251.788 C 201.947 254.449 203.028 257.026 204.275 259.521 L 206.354 247.048 L 212.175 249.46 C 212.175 249.46 212.757 267.919 208.516 270.414 C 205.772 271.994 201.864 270.165 199.369 268.834 C 198.455 268.335 196.958 266.922 195.96 266.838 C 194.047 266.589 193.964 268.834 192.301 270.081 C 191.22 270.747 190.139 271.412 189.225 272.16 C 188.31 273.241 187.561 274.489 187.146 275.819 C 186.647 277.482 186.564 279.228 186.73 280.975 C 186.979 282.139 186.73 283.386 186.065 284.301 C 185.566 284.716 184.984 284.966 184.402 285.049 C 182.323 285.382 180.161 285.298 178.082 284.966 C 173.976 284.631 169.911 283.907 165.942 282.804 C 164.528 282.388 163.114 281.806 161.701 281.141 C 161.368 280.975 161.119 280.808 160.869 280.642 C 160.62 280.309 160.454 279.977 160.37 279.644 C 159.788 277.149 161.618 274.738 162.532 272.41 C 163.114 270.83 163.364 269 163.863 267.421 C 164.611 265.758 165.526 264.178 166.607 262.764 C 167.438 261.517 167.854 259.937 168.686 258.689 C 170.931 255.28 173.342 252.12 176.003 249.044 C 177.583 247.131 179.329 245.302 181.242 243.722 C 183.404 241.809 186.231 240.728 189.058 240.645 C 189.723 240.562 190.222 240.645 190.721 240.728 Z" class="S" style="fill: rgb(63, 136, 252);"/>
  <path d="M 185.815 217.279 C 184.318 217.529 182.822 218.111 181.574 219.025 C 178.914 221.187 178.248 225.179 175.754 227.507 C 173.592 229.503 170.432 229.835 167.522 230.168 C 169.517 235.822 175.671 238.816 181.408 236.903 L 181.491 236.903 L 178.498 239.897 C 178.415 239.98 178.331 240.063 178.331 240.146 C 178.331 240.313 178.498 240.479 178.664 240.562 C 180.078 241.061 181.574 241.061 182.988 240.479 C 182.988 241.809 183.986 242.89 185.316 243.057 C 186.231 243.223 187.146 243.057 187.977 242.724 C 188.476 242.558 188.975 242.475 189.474 242.475 C 189.89 242.475 190.306 242.724 190.721 242.558 C 191.969 241.726 193.05 240.645 193.632 239.232 C 194.629 237.07 193.216 234.326 194.38 232.164 C 195.378 230.417 198.371 229.919 198.87 228.006 C 199.369 225.844 198.205 222.767 196.958 221.021 C 195.537 219.107 193.468 217.777 191.137 217.279 C 189.807 217.03 188.393 217.03 186.979 217.196 L 185.815 217.279 Z" style="fill: rgb(73, 72, 71);"/>
  <path d="M 169.185 344.171 C 168.686 344.005 168.104 344.171 167.688 344.587 C 167.272 345.169 167.854 346.166 167.272 346.749 C 166.94 346.998 166.524 347.164 166.108 347.081 L 163.281 347.081 C 162.532 347.164 161.784 347.081 161.036 346.915 C 160.869 346.832 160.703 346.832 160.537 346.832 C 160.287 346.915 160.121 347.164 160.038 347.414 C 160.038 347.663 160.038 347.913 160.121 348.162 C 160.287 348.661 160.537 349.16 160.869 349.576 C 160.952 349.742 161.119 349.825 161.202 349.908 C 161.368 349.992 161.535 349.992 161.701 349.992 L 166.773 349.908 L 170.266 349.576 C 171.929 349.576 173.592 349.243 175.172 348.744 C 175.587 348.578 175.92 348.328 176.086 347.913 C 176.169 347.58 176.086 347.164 175.837 346.832 C 175.587 346.582 175.338 346.333 175.005 346.083 C 174.091 345.501 173.093 345.086 172.012 344.836 C 171.18 344.503 170.182 344.254 169.185 344.171 Z" class="W" style="fill: rgb(86, 80, 86);"/>
  <path d="M 244.189 325.129 C 224.398 324.879 208.433 318.061 208.516 309.995 C 208.516 309.08 207.851 304.008 208.267 303.176 C 211.426 296.358 226.976 295.609 244.604 295.859 C 261.9 296.108 276.452 295.859 279.695 302.594 C 280.194 303.509 280.277 310.078 280.194 310.993 C 280.194 319.059 263.979 325.378 244.189 325.129 Z" class="T" style="fill: rgb(232, 168, 37);"/>
  <g transform="matrix(0.0119, -0.831446, 0.831446, 0.0119, 36.485111, 510.451721)" style="">
    <ellipse cx="252.2" cy="246.2" rx="17.6" ry="43.1" class="U" style="fill: rgb(248, 194, 68);"/>
    <ellipse cx="252.2" cy="246.2" rx="15" ry="36.7" class="T" style="fill: rgb(232, 168, 37);"/>
  </g>
  <path d="M 224.897 302.262 L 229.803 302.345 C 229.97 301.014 230.801 299.933 231.965 299.351 L 235.208 299.85 C 234.044 300.349 233.296 301.43 233.129 302.677 C 233.129 304.091 235.125 305.089 237.869 305.089 C 240.031 305.255 242.11 304.424 243.607 302.927 C 245.769 300.682 248.928 299.518 252.005 299.767 C 255.996 299.767 259.073 301.014 259.821 302.844 L 264.727 302.927 L 264.727 304.174 L 259.988 304.091 C 259.838 305.175 259.193 306.128 258.242 306.669 L 255.082 306.17 C 255.996 305.671 256.578 304.756 256.745 303.758 C 256.745 302.262 254.583 301.596 252.587 301.596 C 250.425 301.513 248.429 302.345 247.016 304.008 C 244.937 306.004 242.442 307.001 238.035 307.001 C 234.21 307.001 230.552 305.754 229.803 303.758 L 224.731 303.675 L 224.897 302.262 Z" class="U" style="fill: rgb(248, 194, 68);"/>
  <path d="M 238.534 310.66 C 218.744 310.411 202.778 303.592 202.862 295.526 C 202.862 294.612 202.196 289.539 202.529 288.708 C 205.689 281.889 221.238 281.141 238.867 281.39 C 256.163 281.64 270.715 281.39 273.957 288.126 C 274.456 289.04 274.54 295.609 274.456 296.524 C 274.54 304.507 258.325 310.91 238.534 310.66 Z" class="T" style="fill: rgb(232, 168, 37);"/>
  <g transform="matrix(0.0119, -0.831446, 0.831446, 0.0119, 45.410328, 490.51178)" style="">
    <ellipse cx="245.4" cy="228.7" rx="17.6" ry="43.1" class="U" style="fill: rgb(248, 194, 68);"/>
    <ellipse cx="245.4" cy="228.7" rx="15" ry="36.7" class="T" style="fill: rgb(232, 168, 37);"/>
  </g>
  <path d="M 219.243 287.793 L 224.149 287.876 C 224.315 286.546 225.147 285.465 226.311 284.883 L 229.554 285.382 C 228.39 285.881 227.641 286.962 227.475 288.209 C 227.475 289.622 229.471 290.62 232.215 290.62 C 234.377 290.787 236.539 290.038 238.035 288.458 C 240.197 286.213 243.357 285.049 246.434 285.298 C 250.425 285.298 253.502 286.546 254.25 288.375 L 259.156 288.458 L 259.156 289.706 L 254.417 289.622 C 254.267 290.707 253.622 291.659 252.67 292.2 L 249.51 291.701 C 250.425 291.202 251.007 290.288 251.174 289.29 C 251.174 287.793 249.012 287.211 247.016 287.128 C 244.854 287.045 242.858 287.876 241.445 289.539 C 239.366 291.535 236.871 292.533 232.464 292.533 C 228.639 292.533 224.98 291.285 224.232 289.29 L 219.16 289.207 L 219.243 287.793 Z" class="U" style="fill: rgb(248, 194, 68);"/>
  <path d="M 255.248 303.758 C 235.458 303.426 219.492 296.69 219.575 288.625 C 219.575 287.71 218.91 282.638 219.326 281.806 C 222.486 274.987 238.035 274.239 255.664 274.489 C 272.96 274.738 287.511 274.489 290.754 281.224 C 291.253 282.139 291.336 288.708 291.253 289.706 C 291.17 297.688 275.038 304.008 255.248 303.758 Z" class="T" style="fill: rgb(232, 168, 37);"/>
  <g transform="matrix(0.0119, -0.831446, 0.831446, 0.0119, 68.735588, 500.411438)" style="">
    <ellipse cx="265.4" cy="220.5" rx="17.6" ry="43.1" class="U" style="fill: rgb(248, 194, 68);"/>
    <ellipse cx="265.4" cy="220.5" rx="15" ry="36.7" class="T" style="fill: rgb(232, 168, 37);"/>
  </g>
  <path d="M 235.873 280.891 L 240.779 280.975 C 240.946 279.644 241.777 278.563 242.941 277.981 L 246.184 278.48 C 245.02 278.979 244.272 280.06 244.022 281.307 C 244.022 282.721 246.018 283.719 248.762 283.719 C 250.924 283.885 253.086 283.136 254.583 281.557 C 256.745 279.311 259.905 278.147 262.981 278.397 C 266.973 278.397 270.049 279.644 270.798 281.473 L 275.704 281.557 L 275.704 282.804 L 270.964 282.721 C 270.798 283.802 270.132 284.716 269.218 285.298 L 266.058 284.8 C 266.973 284.301 267.555 283.386 267.721 282.388 C 267.721 280.891 265.476 280.309 263.563 280.226 C 261.401 280.143 259.406 280.975 257.992 282.638 C 255.913 284.633 253.419 285.631 249.012 285.631 C 245.187 285.631 241.528 284.384 240.779 282.388 L 235.707 282.305 L 235.873 280.891 Z" class="U" style="fill: rgb(248, 194, 68);"/>
  <g class="S" transform="matrix(0.83153, 0, 0, 0.83153, 34.476543, 99.035172)" style="fill: rgb(252, 91, 63);">
    <path d="M236.4 161.8c-.7-.5 2.9-24.8 2.9-24.8l12.4 1.2-3.2 24.4-12.1-.8zm24.7 2.4c-.7-.5 5.5-36.8 5.5-36.8l12.4 1.2-5.7 36.5-12.2-.9zm24.7 2.4c-.7-.5 9.2-65.2 9.2-65.2l12.4 1.2-9.4 64.9-12.2-.9zm24.6 2.4c-.7-.5 7.1-49.2 7.1-49.2l12.4 1.2-7.2 48.8-12.3-.8zm12.5 7.6l-96.7-7 .1-.6 10.3-76.7 1.1.3c-.4 1.5-6.7 49.9-10.1 75.9l95.5 6.9-.2 1.2z" style="fill: rgb(34, 93, 147);"/>
    <path d="M363.8 198.6l2.3-11.9c-6.3.1-12.4-1.6-17.7-5l4.4-7.9c4.9 3.3 10.6 5 16.5 4.9 8.7 0 15.4-4.9 16.7-11.6s-2.7-10.5-11.1-14c-11.5-4.6-18.2-10-16.2-20.2 1.9-9.8 10.5-17.2 22.1-19.1l2.3-11.9h7.6l-2.3 11.4c5.3 0 10.5 1.3 15 4l-4.5 7.9c-4.4-2.7-9.4-4.1-14.6-3.9-9.4 0-13.9 5.5-14.8 10.2-1.2 6.1 2.8 9.2 12.5 13.3 11.6 4.9 16.8 10.9 14.7 21.4-1.8 9.3-10.2 18.1-23.1 20.2l-2.3 12.2h-7.5z" opacity=".39" class="X" style="fill: rgb(63, 136, 252);"/>
  </g>
</svg>