<?xml version="1.0" encoding="utf-8"?>
<svg viewBox="0 0 500 500" xmlns="http://www.w3.org/2000/svg">
  <defs>
    <path id="X" d="M211.3 231.9c.5 2.2.8 4.3 1.1 6.4.7 5 1.3 10 1.5 15.1.1.5 0 1-.1 1.4-.5 1.4-2.4 1.4-3.8 1.4s-3.3.5-3.3 2c0 1.1 1.3 1.8 2.3 2.2a27.16 27.16 0 009.8 1.5c.4 0 .8-.1 1.2-.2 2.3-1 .5-3.6.3-5.2-.4-2.3.5-4.6 1.1-6.8 1.3-5 4.6-9.4 4.4-14.7-.1-.6 0-1.4.4-1.9.6-.8 3.3.5 4.1.6 1.3.3 2.5.5 3.8.8 6.9 1.4 13.2 2.9 20.3 1.5.5-.1.8-.2 1.2-.4.5-.4.7-.9.8-1.4 1-3.1.7-6.4-.7-9.3-1.7-3.4-4.4-4.7-7.6-6.3-3.7-1.9-6.8-3.3-11-3.2-.4 0-.6 0-1 .1-2.1.2-4.2.5-6.2 1.1-5.2 1.4-17.1 3.3-19.1 9.2-.6 1.9.2 3.4.5 5.2-.2.3-.1.5 0 .9z"/>
    <path id="Y" d="M248 223.1l.1 2.4.2 2.4c0 .2 0 .4.1.5l.3 1.7v.1l.2 1c-.3 1.8-.1 3.6.6 5.2 1.6.1 3.3 0 4.8-.1 3.2-.2 6.2-.7 9.2-1.6 3.1-1.5 5.9-3.5 8.4-6 .7-.6 1.3-1.4 1.6-2.2a6.72 6.72 0 00.3-2.8c-.1-5.2.5-10.4 2-15.5.4-1.1.6-2.2 1.1-3.3l1.4-3.6c1.3-2.8 2.7-5.5 3.3-8.5.3-1.6.4-3.3.1-5 0-.3-.1-.5-.4-.8s-.6-.4-1-.3c-3.8.1-7.2 2.3-11 2.9-1.9.4-3.9.3-5.8.8-2.6.9-4.8 2.6-6.3 5-.8 1.2-1.5 2.4-2.2 3.8-1 2-1.9 3.9-2.7 5.7-.5 1.1-.9 2.2-1.4 3.3a41.93 41.93 0 00-2.9 10.5v.1c.1 1.5 0 3 0 4.3z"/>
    <path id="Z" d="M80.7 230c-1.2 0-2.6.2-3.3 1.3-.4.6-.4 1.4 0 2.2.4.6.9 1.2 1.6 1.4.9.4 1.8.6 2.7.8l11.7 2.2 5.9 1c1.5.3 3 1 4.6 1.4s3.7.5 5.1-.6c.8-.7 1.3-1.9 1.1-3-.1-.4-.2-.7-.5-1a3.04 3.04 0 00-.7-.5c-2.9-1.3-5.9-2.2-9-2.6l-6.3-1.3c-1.9-.5-3.9-.9-5.9-1.1-2.3-.3-4.6-.3-7-.2z"/>
    <path id="a" d="M89.3 222.7l-.1 2.4-.2 2.4c0 .2 0 .4-.1.5l-.3 1.7v.1l-.2 1c.3 1.8.1 3.6-.6 5.2-1.6.1-3.3 0-4.8-.1-3.2-.2-6.2-.7-9.2-1.6-3.1-1.5-5.9-3.6-8.4-6-.7-.6-1.3-1.4-1.6-2.2-.3-.9-.4-1.8-.3-2.8.1-5.2-.5-10.5-2-15.5-.3-1.1-.6-2.2-1.1-3.3-.5-1.2-.9-2.4-1.4-3.6-1.3-2.8-2.7-5.5-3.3-8.5-.4-1.6-.4-3.3-.1-5 0-.3.1-.5.3-.8.3-.3.6-.4 1-.3 3.8.1 7.2 2.3 11 2.9 1.9.4 3.9.3 5.8.8 2.6.9 4.9 2.6 6.3 5 .8 1.2 1.5 2.4 2.2 3.8 1 2 1.9 3.9 2.7 5.7.5 1.1.9 2.2 1.4 3.3a41.93 41.93 0 012.9 10.5v.1c0 1.5.1 2.9.1 4.3z"/>
  </defs>
  <path d="M 281.091 81.914 C 299.048 85.8 317.004 91.293 332.412 101.345 C 374.219 128.814 388.691 182.948 422.057 220.333 C 436.662 236.547 455.155 250.348 462.925 270.85 C 468.956 287.063 467.349 305.019 464.534 322.17 C 461.987 337.982 458.637 353.526 454.349 368.935 C 451.805 378.449 448.856 387.964 443.362 396.137 C 426.88 420.524 393.113 425.08 363.769 424.946 C 333.753 424.679 303.603 421.596 274.124 415.835 C 259.385 412.886 244.511 409.403 229.504 408.33 C 196.941 406.053 164.783 415.566 132.489 421.194 C 100.196 426.823 64.822 428.162 36.95 411.01 C 15.376 397.477 1.173 374.698 -1.508 349.372 C -3.25 331.015 1.173 312.924 5.996 295.103 C 12.161 272.324 18.994 249.678 26.365 227.033 C 32.126 209.748 38.291 192.328 47.67 176.517 C 89.476 106.436 204.446 65.432 281.091 81.914 Z" opacity=".18" class="l r" style="fill: rgb(63, 114, 252);"/>
  <linearGradient id="A" gradientUnits="userSpaceOnUse" x1="92.398" y1="168.337" x2="104.509" y2="331.763" gradientTransform="matrix(1.339969, 0, 0, 1.339969, -2.043429, 28.047443)">
    <stop offset="0.01"/>
    <stop offset="0.08" stop-opacity=".69"/>
    <stop offset="0.21" stop-opacity=".32"/>
    <stop offset="1" stop-opacity="0"/>
  </linearGradient>
  <path d="M 137.581 339.725 L 171.348 345.352 C 178.718 346.692 186.356 348.167 192.653 352.186 C 194.799 353.526 197.076 355.401 197.21 357.948 C 197.611 360.762 195.335 363.442 192.788 364.647 C 190.109 365.585 187.161 366.122 184.48 365.854 L 110.781 366.39 C 95.105 366.524 78.221 366.122 66.027 356.206 C 64.016 354.731 62.409 352.722 61.472 350.31 C 60.667 347.898 61.337 345.084 63.347 343.475 C 64.687 342.805 66.295 342.27 67.769 342.404 L 101.134 339.859" fill="url(#A)" style=""/>
  <path d="M 126.192 333.828 C 132.355 332.355 131.15 341.199 132.891 344.549 C 133.964 346.29 135.17 347.763 136.777 348.97 C 138.386 350.176 139.323 352.051 139.591 353.928 C 139.591 354.33 139.591 354.598 139.323 355 C 139.056 355.401 138.653 355.669 138.118 355.669 C 134.633 356.742 130.748 356.339 127.398 354.598 C 125.79 353.928 124.583 352.722 123.78 351.248 C 123.11 349.64 122.842 348.031 122.842 346.29 C 122.707 342.538 120.966 335.034 126.192 333.828 Z" class="q" style="fill: rgb(253, 185, 169);"/>
  <path d="M 122.707 356.464 C 124.315 358.339 132.489 360.886 136.241 360.752 C 139.994 360.484 143.209 358.875 142.808 356.33 C 142.27 353.918 135.839 348.424 134.633 348.424 C 133.427 348.424 132.489 351.238 130.078 351.774 C 127.933 352.176 125.656 351.238 124.182 349.63 C 123.645 348.96 122.842 348.826 122.172 349.093 C 121.368 351.507 121.368 354.186 122.707 356.464 Z" class="m" style="fill: rgb(255, 255, 255);"/>
  <path d="M 104.752 337.313 C 110.916 335.838 109.71 344.682 111.451 348.031 C 112.39 349.774 113.73 351.248 115.337 352.455 C 116.946 353.66 117.884 355.536 118.152 357.413 C 118.152 357.814 118.152 358.083 117.884 358.484 C 117.616 358.886 117.214 359.154 116.678 359.154 C 113.195 360.092 109.308 359.824 105.958 358.083 C 104.35 357.413 103.143 356.206 102.34 354.731 C 101.67 353.125 101.402 351.516 101.402 349.774 C 101.269 345.888 99.661 338.384 104.752 337.313 Z" class="q" style="fill: rgb(253, 185, 169);"/>
  <path d="M 101.536 356.68 C 103.143 358.556 111.318 361.102 115.069 360.968 C 118.822 360.834 122.038 359.092 121.636 356.546 C 121.1 354.134 114.668 348.64 113.462 348.64 C 112.257 348.64 111.318 351.455 108.907 351.99 C 106.762 352.392 104.484 351.455 103.01 349.846 C 102.474 349.176 101.67 349.042 101 349.31 C 99.929 351.857 100.062 354.536 101.536 356.68 Z" class="m" style="fill: rgb(255, 255, 255);"/>
  <g fill="#473f47" transform="matrix(1.339969, 0, 0, 1.339969, -2.043429, 28.047441)" style="">
    <path d="M91.7 171l-6.2 65.2-9-1.1c-3.5-16-2.5-63.6-2.5-63.6l17.7-.5z"/>
    <path d="M85.4 169.3l6.2 65.2 9-1.1c5.1-41.3.9-66.9.9-66.9l-16.1 2.8z"/>
  </g>
  <path d="M 132.891 223.147 C 133.025 221.538 133.561 219.932 133.561 218.324 C 133.964 215.107 133.964 211.624 133.293 208.407 C 132.623 204.923 131.685 201.44 130.078 198.357 C 128.738 195.543 126.192 194.472 123.377 192.998 C 121.1 191.792 118.554 190.854 115.874 190.452 C 113.998 190.317 112.122 190.317 110.246 190.719 C 104.484 191.792 97.114 194.74 93.228 199.161 C 90.279 202.512 90.012 207.336 90.012 211.624 C 89.881 217.745 90.014 223.871 90.415 229.981 C 90.415 230.784 90.549 231.858 90.683 232.661 C 91.218 239.36 91.755 246.195 93.631 252.76 C 94.3 254.771 94.837 256.914 96.846 257.852 C 101.269 260.398 107.969 258.924 112.792 258.389 C 119.089 257.584 125.656 256.512 131.283 253.431 C 132.489 252.895 133.293 251.956 133.964 250.884 C 134.5 249.545 133.83 247.936 133.427 246.596 C 131.551 240.432 132.891 233.732 132.891 227.435 C 132.891 226.362 132.758 225.156 132.758 223.951 C 132.891 223.817 132.891 223.415 132.891 223.147 Z" class="m" style="fill: rgb(255, 255, 255);"/>
  <path d="M 121.636 196.213 C 121.77 198.357 121.636 200.501 121.368 202.645 L 121.502 208.407 C 121.368 211.624 120.162 214.974 118.286 217.653 L 133.83 214.438 C 134.232 214.438 134.5 214.304 134.633 213.9 C 134.768 213.633 134.768 213.23 134.633 213.097 L 133.293 207.068 C 132.758 203.985 131.685 201.172 130.078 198.492 C 128.335 196.213 126.057 194.337 123.512 192.998 C 122.842 192.729 120.966 191.255 120.295 192.328 C 120.162 192.729 121.502 195.677 121.636 196.213 Z" opacity=".1" fill="#020202" class="r" style=""/>
  <path d="M 129.542 211.624 C 131.128 210.691 133.057 210.543 134.768 211.221 C 136.509 212.025 137.447 213.768 137.581 215.644 C 137.444 216.881 137.033 218.07 136.376 219.127 C 135.973 219.797 135.571 220.333 134.768 220.868 C 133.83 221.538 132.623 221.673 131.551 221.538 C 130.48 221.538 129.542 221.137 128.603 220.735 C 127.263 220.065 125.388 217.787 125.924 216.179 C 126.594 214.169 127.8 212.695 129.542 211.624 Z" class="q" style="fill: rgb(253, 185, 169);"/>
  <path d="M 107.834 252.224 C 108.772 249.813 109.308 247.266 109.308 244.72 C 109.175 242.308 108.772 239.897 108.237 237.619 L 104.217 218.324 C 103.547 214.839 101.938 197.687 96.444 199.698 C 93.362 201.038 91.085 203.583 90.146 206.666 C 89.208 209.748 88.806 213.097 89.074 216.313 C 89.208 224.755 90.95 233.599 92.023 241.907 C 92.424 245.123 92.961 256.914 97.114 257.986 C 97.919 258.254 98.722 258.656 99.526 258.656 C 101 258.924 105.288 260.532 107.03 259.996 C 107.431 259.862 107.7 259.728 107.7 259.46 C 108.772 257.315 107.03 253.163 107.03 250.751 C 107.298 246.864 108.907 243.113 111.451 240.165 C 114.534 237.082 117.75 234.402 121.502 232.259 L 126.46 229.043 C 127.263 228.373 128.335 228.105 129.274 227.971 C 129.944 228.105 130.613 228.239 131.283 228.239 C 132.355 228.105 133.025 226.9 133.293 225.961 C 134.232 223.55 134.768 220.868 134.633 218.188 C 134.633 217.787 134.5 217.518 134.232 217.251 C 133.83 216.983 133.561 216.983 133.159 217.251 L 117.482 222.075 C 115.204 223.013 112.658 223.415 110.246 223.147 C 107.834 222.745 105.422 220.868 105.422 218.457" opacity=".1" fill="#020202" class="r" style=""/>
  <path d="M 92.023 201.038 C 86.93 209.48 85.055 219.529 83.447 229.311 C 83.179 230.517 83.045 231.723 83.312 232.929 C 83.982 235.072 85.724 236.815 87.868 237.351 C 90.012 237.887 92.291 238.02 94.567 237.752 C 99.259 237.351 105.02 237.082 109.04 234.269 C 110.38 233.331 111.719 232.125 113.06 231.188 C 114.4 230.249 115.874 229.579 117.348 229.043 C 120.162 227.703 122.975 226.094 125.388 224.353 C 126.23 223.778 126.957 223.052 127.532 222.208 C 128.335 220.467 127.8 218.592 126.995 216.849 C 126.862 216.045 126.192 215.375 125.254 215.509 C 124.986 215.509 124.717 215.644 124.583 215.777 C 117.75 217.787 110.781 219.395 103.681 220.333 C 101.804 220.601 102.608 218.457 102.875 217.385 C 103.279 215.777 103.547 214.169 103.814 212.695 C 104.316 208.084 102.512 203.521 98.991 200.501 C 98.186 199.698 96.981 199.161 95.774 198.893 C 94.567 199.028 93.094 199.831 92.023 201.038 Z" class="m" style="fill: rgb(255, 255, 255);"/>
  <path d="M 120.833 181.741 C 120.833 180 120.698 178.391 120.563 176.784 C 120.429 175.311 120.162 173.835 119.894 172.362 C 119.894 171.559 119.357 170.621 118.822 170.218 C 116.678 168.879 113.998 168.208 111.318 168.208 C 108.102 167.673 105.02 170.084 104.484 173.166 C 104.484 173.568 104.35 173.835 104.35 174.103 C 103.949 177.722 105.02 181.34 105.422 185.091 C 105.824 187.906 106.092 190.854 105.958 193.534 C 107.298 194.472 108.907 195.007 110.514 195.142 C 111.184 195.142 112.122 195.007 112.792 194.74 C 113.195 194.605 113.462 194.337 113.73 194.07 C 113.864 193.802 113.864 193.4 113.864 193.132 C 113.864 192.864 113.73 192.462 113.73 192.328 C 113.596 190.586 113.596 188.978 113.864 187.369 C 113.864 187.236 113.864 187.102 113.998 186.967 L 114.936 186.967 C 115.739 187.102 116.678 187.102 117.482 186.967 C 118.419 186.834 119.357 186.298 120.162 185.628 C 120.698 184.422 120.966 183.081 120.833 181.741 Z" class="q" style="fill: rgb(253, 185, 169);"/>
  <path d="M 118.956 182.01 C 118.822 181.741 118.419 181.34 118.286 181.474 C 118.018 181.608 117.884 181.876 117.884 182.01 C 117.482 182.814 117.08 183.752 116.41 184.422 C 116.007 184.958 115.739 185.226 115.204 185.628 L 114.4 186.298 C 115.069 186.566 116.007 186.834 116.678 186.834 C 117.482 186.967 118.286 186.566 118.822 186.164 C 119.224 185.761 119.492 185.494 119.492 184.958 C 119.759 184.556 119.894 184.155 120.027 183.618 C 120.027 183.081 119.894 182.814 119.625 182.411" fill="#de9f93" style=""/>
  <path d="M 117.482 170.754 C 118.822 170.352 120.833 170.218 121.502 168.879 C 122.038 167.538 121.636 166.064 120.429 165.26 C 118.554 163.385 115.739 162.313 113.06 162.848 C 112.257 163.116 111.318 163.251 110.514 163.385 C 109.442 163.518 108.237 163.116 107.163 162.983 C 105.152 162.974 103.203 163.688 101.67 164.992 C 100.732 165.93 99.661 166.868 98.454 167.404 C 97.249 167.941 95.641 167.806 94.837 166.735 C 94.307 168.316 94.555 170.055 95.506 171.424 C 94.971 171.96 94.3 171.96 93.631 171.559 C 93.764 173.434 94.166 175.444 94.971 177.186 C 94.3 177.32 93.496 177.186 92.826 177.052 C 93.631 178.928 95.238 180.536 97.249 181.474 C 99.929 182.546 103.01 182.679 104.887 184.958 C 105.154 185.226 105.422 185.896 105.69 186.029 C 106.092 186.164 106.36 185.628 106.493 185.36 C 107.03 183.618 106.896 182.01 106.092 180.402 C 105.557 179.732 105.422 178.66 105.288 177.856 C 105.422 177.052 106.628 176.248 107.163 176.784 C 107.834 177.32 107.834 178.66 108.638 178.391 C 107.834 175.847 108.907 172.63 111.318 171.559 C 113.195 170.889 115.337 171.291 117.08 170.754 L 117.482 170.754 Z" fill="#dd8049" style=""/>
  <path d="M 114.801 186.834 C 112.926 186.431 110.916 185.896 109.04 185.091 C 108.907 190.987 113.73 192.194 113.73 192.194 C 113.596 190.452 113.596 188.844 113.864 187.236 C 113.864 187.102 113.864 186.967 113.998 186.834 L 114.801 186.834 Z" fill="#de9f93" style=""/>
  <circle cx="215.299" cy="198.893" r="46.095" class="m" style="fill: rgb(255, 255, 255);"/>
  <linearGradient id="B" gradientUnits="userSpaceOnUse" x1="203.785" y1="128" x2="190.217" y2="325.258" gradientTransform="matrix(1.339969, 0, 0, 1.339969, -2.043429, 26.047443)">
    <stop offset="0.01"/>
    <stop offset="0.08" stop-opacity=".69"/>
    <stop offset="0.21" stop-opacity=".32"/>
    <stop offset="1" stop-opacity="0"/>
  </linearGradient>
  <path d="M 353.719 356.083 C 346.483 358.494 339.38 361.844 339.649 365.462 C 339.917 369.348 310.035 370.018 307.088 369.615 C 307.758 368.41 307.222 366.4 307.758 365.194 C 296.903 362.647 286.05 359.433 275.598 355.413 C 261.796 350.319 245.314 349.516 230.709 348.176 C 198.148 344.96 164.917 345.63 133.293 354.607 C 126.326 356.484 119.759 359.029 113.462 362.245 C 111.586 363.05 110.112 364.39 109.04 366.132 C 107.163 369.482 109.576 373.77 112.39 376.315 C 116.813 380.335 122.707 382.346 128.335 383.953 C 147.229 389.446 166.927 391.19 186.491 389.582 C 194.932 388.911 203.643 387.437 212.084 388.911 C 220.526 390.385 228.163 394.673 236.471 396.816 C 244.779 398.961 254.695 398.693 260.457 392.395 C 261.931 390.787 263.136 389.045 264.878 387.973 C 267.156 386.634 270.104 387.035 272.651 387.303 C 297.44 390.653 322.363 390.922 347.153 387.839 C 349.162 387.572 351.441 387.169 352.646 385.562 C 353.584 384.355 353.719 382.614 354.791 381.541 C 356.131 379.934 358.408 379.934 360.552 379.934 C 372.746 379.934 384.939 379.264 396.999 377.656 C 400.215 377.12 403.565 376.718 406.245 374.841 C 408.925 372.966 410.801 369.615 409.729 366.533 C 408.925 364.657 407.585 363.05 405.843 361.977 C 395.258 353.938 381.456 350.857 368.19 352.464 C 363.501 353.134 358.542 354.474 353.719 356.083 Z" fill="url(#B)" style=""/>
  <g class="l" transform="matrix(1.339969, 0, 0, 1.339969, -2.043429, 28.047441)" style="fill: rgb(252, 91, 63);">
    <path d="M166.8 248.1c0 2.1 7.2 3.8 16 3.8s16-1.7 16-3.8c.1-.8.1-1.5 0-2.4-1.2-1.8-8-1.4-16-1.4-7.8 0-14.5-.3-16 1.4-.1.8-.1 1.6 0 2.4z" style="fill: rgb(63, 136, 252);"/>
    <ellipse cx="182.8" cy="245.7" rx="16" ry="3.8" style="fill: rgb(63, 136, 252);"/>
  </g>
  <ellipse cx="243.903" cy="357.278" rx="21.44" ry="5.091" style="fill: rgb(34, 93, 147);"/>
  <ellipse cx="362.293" cy="363.174" rx="21.44" ry="5.091" class="n" style="fill: rgb(76, 80, 109);"/>
  <path d="M 240.356 309.442 L 245.314 309.442 L 245.314 357.68 L 240.356 357.68 Z" class="l" style="fill: rgb(63, 136, 252);"/>
  <linearGradient id="D" gradientUnits="userSpaceOnUse" x1="194.162" y1="200.699" x2="162.565" y2="243.764" gradientTransform="matrix(1.339969, 0, 0, 1.339969, -2.043429, 28.047443)">
    <stop offset="0.01"/>
    <stop offset="0.08" stop-opacity=".69"/>
    <stop offset="0.21" stop-opacity=".32"/>
    <stop offset="1" stop-opacity="0"/>
  </linearGradient>
  <path d="M 240.356 309.442 L 245.314 309.442 L 245.314 326.056 L 240.356 326.056 Z" fill="url(#D)" style=""/>
  <path d="M 304.943 354.866 L 304.943 362.236 L 278.68 362.236 C 278.68 362.236 280.288 356.607 290.74 354.866 L 294.091 352.051 L 304.943 354.866 Z" class="l" style="fill: rgb(252, 91, 63);"/>
  <path d="M 304.943 354.866 L 304.943 362.236 L 278.68 362.236 C 278.68 362.236 280.288 356.607 290.74 354.866 L 294.091 352.051 L 304.943 354.866 Z" style="fill: rgb(45, 97, 180);"/>
  <path d="M 277.742 362.236 L 306.149 362.236 L 306.149 364.112 L 277.742 364.112 Z" class="l" style="fill: rgb(44, 95, 177);"/>
  <path d="M 360.284 320.697 L 364.438 320.697 L 364.438 358.752 L 360.284 358.752 Z" class="n" style="fill: rgb(76, 80, 109);"/>
  <path d="M 340.988 363.174 C 340.988 365.988 350.637 368.265 362.428 368.265 C 374.354 368.265 383.868 365.988 383.868 363.174 C 384.001 362.102 384.001 361.163 383.868 359.957 C 382.26 357.546 373.148 358.083 362.428 358.083 C 352.111 358.083 342.999 357.68 340.988 359.957 C 340.855 361.029 340.855 362.102 340.988 363.174 Z" class="p" style="fill: rgb(47, 53, 84);"/>
  <g class="n" transform="matrix(1.339969, 0, 0, 1.339969, -2.043429, 28.047441)" style="fill: rgb(76, 80, 109);">
    <ellipse cx="271.9" cy="247.7" rx="16" ry="3.8"/>
    <path d="M267 213.3h26.4l6.3-34.4c.4-2.3-1.1-4.3-3.3-4.8-.3 0-.5-.1-.8-.1h-18.1c-2 0-3.7 1.4-4.1 3.3l-6.4 36z"/>
  </g>
  <path d="M 346.349 313.863 L 381.724 313.863 L 390.166 267.768 C 390.702 264.686 388.691 262.007 385.744 261.336 C 385.342 261.336 385.073 261.201 384.805 261.201 L 360.552 261.201 C 357.872 261.201 355.594 263.078 355.059 265.624 L 346.349 313.863 Z" class="p" style="fill: rgb(47, 53, 84);"/>
  <path d="M 359.079 306.895 L 384.671 306.895 C 388.558 306.895 391.639 310.112 391.639 313.863 C 391.639 317.75 388.423 320.83 384.671 320.83 L 359.079 320.83 C 355.193 320.83 352.111 317.614 352.111 313.863 C 351.976 309.977 355.193 306.895 359.079 306.895 Z" class="n" style="fill: rgb(76, 80, 109);"/>
  <path d="M 343.4 306.895 L 368.995 306.895 C 372.88 306.895 375.962 310.112 375.962 313.863 C 375.962 317.75 372.746 320.83 368.995 320.83 L 343.4 320.83 C 339.515 320.83 336.432 317.614 336.432 313.863 C 336.432 309.977 339.515 306.895 343.4 306.895 Z" class="p" style="fill: rgb(47, 53, 84);"/>
  <g class="m" transform="matrix(1.339969, 0, 0, 1.339969, -2.043429, 28.047441)" style="fill: rgb(255, 255, 255);">
    <path d="M280.9 164.8c-.2-.3-.4-.5-.6-.6-3.1-3-8.1-2.6-11.3-2.5-2.8.1-5.6 0-8.4-.3l-1.2-.2h-.4c-2.1-.2-4.6-.2-5.3 2-.8 2.6-.9 5.7-1.3 8.3-1.1 8-1.7 15.8-2.1 23.8-.4 7.1 9.1 7.6 14.1 7.6 1.7 0 3.4-.1 5.2-.3 1.5-.3 3-.9 4.5-1.2.8-.1 1.5-.4 2.2-.9.9-.8.9-2.2.9-3.4 0-3.1.2-6.1.7-9.1l1-4.4c.3-1.2.7-2.4 1.3-3.5 2.1-5.4 3.8-11.5.7-15.3z"/>
    <path d="M242.8 165.6c.2-.7.5-1.4.9-1.9 1-1.3 2.7-1.4 4.3-1.6.7-.1 1.6 0 2 .6.2.4.2.7.1 1.2l-.4 4c1-.6 2.2-1.2 3.3-1.4.3-.1 3.4-.5 3.4 0a56.33 56.33 0 01.3 5.8c.1 1.4-.3 2.8-1.3 3.9-1.6 2.4-3.5 4.5-5.5 6.5-2.2 2.2-5.1 3.3-8.1 3.4-1 .2-1.9-.2-2.6-.9-.3-.5-.5-1.1-.4-1.7 0-1.7.2-3.4.5-5.1.8-4.5 2-8.7 3.5-12.8z"/>
  </g>
  <path d="M 326.919 254.904 C 327.186 253.431 326.919 249.946 328.124 249.008 L 328.392 248.875 C 329.465 248.338 330.804 248.741 331.474 249.946 C 331.742 250.616 331.742 251.286 331.609 251.822 C 331.474 253.431 331.474 255.039 331.742 256.645 C 331.877 257.584 332.279 258.656 333.082 259.059 C 333.753 259.192 334.557 259.059 334.959 258.656 C 336.603 257.898 338.101 256.855 339.38 255.574 C 339.649 255.306 340.05 255.039 340.453 255.172 C 340.692 255.278 340.883 255.469 340.988 255.709 L 350.905 271.118 C 351.709 272.458 352.513 274.334 351.575 275.406 C 350.637 276.478 348.894 276.076 347.555 275.54 C 343.668 273.797 340.318 271.386 337.37 268.304 L 336.7 267.634 C 336.165 267.634 335.897 267.768 335.495 268.17 C 333.619 269.509 331.742 270.716 329.733 271.654 C 328.259 272.324 326.115 272.859 325.177 271.386 C 324.775 270.716 324.642 269.644 324.91 268.84 L 326.919 254.904 Z M 363.635 258.924 C 364.305 257.048 365.51 255.44 366.984 254.234 C 368.592 252.895 370.736 252.76 372.613 253.564 C 374.889 255.039 375.157 258.254 374.889 260.933 C 374.488 264.82 373.55 268.706 372.345 272.324 C 371.674 274.199 370.602 275.942 370.2 277.817 C 369.664 279.292 369.664 281.034 369.262 282.373 C 368.057 286.26 367.386 290.279 367.386 294.433 C 367.386 294.969 367.251 295.505 367.118 296.04 C 366.85 296.578 366.448 296.711 365.778 296.711 C 365.376 296.578 365.108 296.31 365.108 296.04 C 362.562 292.826 358.14 291.619 353.986 291.217 C 349.162 290.548 344.338 290.548 339.38 290.279 C 337.506 290.146 334.959 289.61 334.557 287.6 C 334.423 286.393 335.092 285.322 336.03 284.652 C 336.968 283.982 338.041 283.714 339.247 283.58 C 343.668 282.775 348.091 282.105 351.709 279.56 C 350.367 279.158 349.162 278.487 348.225 277.684 C 350.503 279.292 354.254 274.199 355.996 272.994 C 357.47 271.788 358.676 270.315 359.614 268.706 C 361.222 265.489 362.16 262.007 363.635 258.924 Z" fill="#d8dae1" style=""/>
  <path d="M 351.038 247.401 C 351.575 247.266 352.111 247.401 352.646 247.668 C 353.182 247.936 353.584 248.071 354.254 248.071 L 354.254 248.204 C 354.925 249.678 354.254 251.286 352.914 251.956 C 352.646 252.09 352.244 252.224 352.111 252.357 C 351.709 252.895 351.441 253.431 351.575 254.101 C 351.709 259.059 350.234 264.016 349.028 268.84 C 347.688 274.603 346.751 280.497 347.555 286.26 L 347.555 287.197 C 347.421 287.465 347.287 287.6 347.153 287.868 L 344.606 290.816 C 343.937 289.61 342.061 289.208 341.658 287.868 C 341.524 287.465 341.524 287.063 341.524 286.661 C 342.061 281.167 342.999 275.808 344.338 270.716 C 345.678 264.686 347.421 258.79 349.564 253.028 C 349.698 252.76 349.698 252.492 349.698 252.357 C 349.698 252.09 349.564 251.956 349.431 251.822 C 348.761 250.348 349.832 247.802 351.038 247.401 Z" class="l" style="fill: rgb(34, 93, 147);"/>
  <path d="M 364.17 244.587 L 353.316 243.916 C 350.905 243.783 347.688 243.246 345.544 244.185 C 346.082 244.185 346.617 244.319 347.153 244.453 C 350.905 244.855 354.655 244.989 358.408 244.855 C 362.696 244.72 369.396 244.185 373.55 248.204 C 371.272 245.525 367.655 244.855 364.17 244.587 Z" class="m" style="fill: rgb(255, 255, 255);"/>
  <path d="M 360.954 233.599 C 361.357 233.867 361.758 234 362.16 233.732 C 361.624 236.547 361.222 238.958 362.562 241.639 C 363.098 242.845 363.902 243.648 365.108 244.185 C 362.696 244.72 360.419 245.525 358.14 246.463 C 356.666 247.133 355.059 247.401 353.584 247.401 C 353.45 247.401 350.637 246.73 351.038 246.195 C 353.182 242.978 351.575 237.619 351.575 237.619 C 355.326 238.69 359.481 236.815 360.82 233.063 C 360.82 233.331 360.82 233.464 360.954 233.599 Z" fill="#8c6239" style=""/>
  <path d="M 358.676 213.097 C 358.676 213.097 343.803 212.025 343.535 222.476 C 343.535 224.621 343.668 226.764 344.205 228.909 L 344.74 231.052 C 346.617 237.351 350.905 241.639 355.996 240.165 C 364.975 237.351 370.602 215.777 358.676 213.097 Z" fill="#a67c52" style=""/>
  <path d="M 362.963 230.784 C 364.037 229.713 364.305 227.971 363.501 226.631 C 363.367 226.362 363.098 226.229 362.963 226.094 C 362.428 225.826 361.892 225.826 361.222 226.229 C 360.82 226.496 360.284 227.301 359.749 226.764 C 359.481 226.496 359.347 226.094 359.481 225.693 C 359.614 224.755 360.017 223.817 360.687 223.013 C 359.882 222.745 359.213 222.208 358.943 221.271 C 357.604 221.538 356.131 221.673 354.655 221.538 C 354.254 221.538 353.986 221.405 353.719 221.271 C 353.049 220.868 352.781 220.065 351.976 219.529 C 351.173 218.994 350.1 218.859 349.028 219.127 C 348.091 219.127 346.885 218.725 346.617 217.787 C 344.74 218.457 342.597 217.653 341.927 215.911 C 340.988 216.313 340.05 216.179 339.112 215.509 C 338.577 214.839 338.443 213.768 338.711 212.963 C 339.112 211.087 339.917 209.077 341.794 208.541 C 340.72 208.006 340.855 206.666 340.988 205.326 C 340.988 204.923 341.123 204.654 341.256 204.387 C 341.794 203.718 342.865 203.718 343.668 203.315 C 344.473 202.913 345.143 202.378 345.946 201.975 C 346.751 201.574 347.823 201.574 348.358 202.512 C 349.406 201.834 350.601 201.421 351.843 201.305 C 353.049 201.172 354.254 201.842 355.059 202.78 C 355.729 202.378 356.399 202.11 356.934 202.11 C 357.638 202.11 358.271 202.532 358.542 203.181 C 358.542 203.315 358.676 203.583 358.81 203.583 C 358.943 203.718 359.079 203.718 359.347 203.583 C 360.284 203.181 361.222 203.048 362.428 203.315 C 363.367 203.583 364.17 204.387 364.305 205.46 C 365.51 205.862 366.581 206.398 367.519 207.336 C 368.458 208.006 368.995 209.211 368.726 210.551 C 370.334 212.294 370.468 214.839 368.995 216.58 C 369.53 216.849 369.664 217.251 369.664 217.787 C 369.664 218.324 369.396 218.725 368.995 219.127 C 368.86 219.262 368.86 219.395 368.86 219.663 C 368.86 219.932 369.128 220.065 369.262 220.199 C 369.933 221.003 369.933 222.208 369.128 223.013 C 368.995 223.147 368.726 223.282 368.592 223.415 C 369.262 223.951 369.664 224.621 369.664 225.425 C 369.612 226.142 369.042 226.714 368.325 226.764 L 368.057 226.764 C 368.469 227.658 368.311 228.713 367.655 229.444 C 366.984 230.382 366.046 230.114 365.242 230.517 C 364.438 231.052 363.902 232.259 363.367 232.929 C 363.231 231.991 362.963 231.321 362.963 230.784 Z M 331.474 292.156 L 311.107 302.607 L 294.091 351.784 L 304.408 358.083 L 324.507 317.347 L 348.225 309.977 C 353.182 308.235 359.614 292.558 359.614 292.558 L 331.474 292.156 Z" class="p" style="fill: rgb(47, 53, 84);"/>
  <path d="M 347.555 293.898 L 327.186 304.348 L 312.984 361.7 L 323.836 364.513 L 340.587 319.089 L 364.305 311.719 C 369.262 310.112 368.19 295.772 368.19 295.772 C 359.481 289.61 347.555 293.898 347.555 293.898 Z" class="n" style="fill: rgb(76, 80, 109);"/>
  <path d="M 368.19 246.864 C 364.975 246.195 357.202 262.81 357.202 262.81 L 344.473 250.081 L 336.968 253.028 C 336.968 253.028 348.358 280.9 357.738 278.22 C 367.118 275.54 376.095 255.574 376.095 255.574 C 377.168 252.09 371.406 247.534 368.19 246.864 Z" class="m" style="fill: rgb(255, 255, 255);"/>
  <path d="M 329.733 238.288 C 328.93 238.958 328.124 240.031 327.589 241.102 C 326.919 242.175 326.651 243.38 326.249 244.587 C 325.847 245.525 325.847 246.463 325.847 247.534 C 325.981 248.473 326.517 249.411 327.321 249.813 C 328.662 250.348 330.135 249.946 331.073 248.875 C 331.877 247.802 332.412 246.463 332.68 245.123 C 332.95 243.783 333.351 242.443 333.887 241.102 C 334.361 240.52 334.682 239.83 334.825 239.092 C 334.825 236.146 331.073 237.082 329.733 238.288 Z" fill="#8c6239" style=""/>
  <path d="M 342.329 248.338 C 342.999 251.286 339.649 252.492 337.236 251.822 C 336.567 251.688 335.762 251.286 335.227 250.884 C 333.753 249.813 333.351 247.802 332.412 246.328 C 331.742 245.257 330.804 244.453 330.269 243.113 C 329.599 242.04 329.465 240.701 329.868 239.495 C 330.671 238.02 332.68 237.752 334.289 237.752 C 335.092 237.619 336.03 237.752 336.835 238.155 C 337.639 238.69 338.443 239.36 338.845 240.165 C 340.318 242.576 341.524 245.39 342.329 248.338 Z" fill="#a67c52" style=""/>
  <path d="M 121.234 296.711 C 121.234 307.163 173.895 315.471 238.75 315.471 C 303.603 315.471 356.264 307.163 356.264 296.711 C 356.264 296.176 356.399 291.083 356.264 290.681 C 352.111 280.9 300.923 277.952 238.75 277.952 C 177.915 277.952 127.263 281.167 121.234 290.681 C 120.833 291.217 121.234 295.907 121.234 296.711 Z" class="l" style="fill: rgb(252, 91, 63);"/>
  <path d="M 356.131 296.711 C 356.131 307.163 303.47 315.471 238.615 315.471 C 173.76 315.471 121.1 307.163 121.1 296.711 C 121.1 295.505 120.966 294.299 121.1 293.093 C 121.234 292.423 121.502 291.619 121.904 291.083 C 122.707 288.538 125.121 287.063 127.665 287.331 C 130.345 287.331 133.159 287.331 135.839 287.465 C 139.591 287.6 143.344 288.002 146.962 288.403 C 149.775 288.805 152.59 289.341 155.27 289.475 C 161.031 289.878 166.792 288.538 172.554 288.27 C 173.09 288.27 173.359 288.27 173.895 288.403 C 174.43 288.538 174.698 288.805 175.235 289.073 C 177.245 290.146 179.656 290.548 182.069 290.146 C 202.973 291.619 223.741 290.146 244.644 287.734 C 261.931 285.723 279.35 283.312 296.903 282.775 C 315.261 282.24 333.486 283.982 351.306 288.002 C 353.719 288.538 356.666 289.743 356.8 292.156 C 356.8 293.629 355.059 295.371 356.131 296.711 Z" style="fill: rgb(34, 93, 147);"/>
  <g class="l" transform="matrix(1.339969, 0, 0, 1.339969, -2.043429, 28.047441)" style="fill: rgb(252, 91, 63);">
    <ellipse cx="179.7" cy="196" rx="87.7" ry="14" style="fill: rgb(63, 136, 252);"/>
    <path d="M243.2 251.1v5.4h-19.6s1.2-4.2 9-5.4l2.5-2.1 8.1 2.1z" style="fill: rgb(63, 136, 252);"/>
  </g>
  <linearGradient id="G" gradientUnits="userSpaceOnUse" x1="245.291" y1="251.177" x2="215.558" y2="258.825" gradientTransform="matrix(1.339969, 0, 0, 1.339969, -2.043429, 28.047443)">
    <stop offset="0.01"/>
    <stop offset="0.08" stop-opacity=".69"/>
    <stop offset="0.21" stop-opacity=".32"/>
    <stop offset="1" stop-opacity="0"/>
  </linearGradient>
  <path d="M 323.836 364.513 L 323.836 371.75 L 297.573 371.75 C 297.573 371.75 299.182 366.122 309.634 364.513 L 312.984 361.7 L 323.836 364.513 Z" fill="url(#G)" style=""/>
  <path d="M 296.635 371.75 L 325.043 371.75 L 325.043 373.625 L 296.635 373.625 Z" class="l" style="fill: rgb(45, 97, 180);"/>
  <path d="M 362.83 243.113 C 363.231 242.978 363.635 242.978 364.037 243.113 C 364.707 243.38 364.84 244.185 365.51 244.453 C 364.037 245.793 362.16 246.328 360.419 247.534 C 358.676 248.741 357.202 250.214 355.863 251.822 C 354.254 251.018 354.388 248.607 353.049 247.401 C 353.986 247.133 354.925 246.73 355.863 246.195 C 356.532 245.793 357.202 245.525 357.738 245.123 C 359.213 243.916 360.954 243.38 362.83 243.113 Z M 349.296 243.916 L 347.956 245.39 L 346.349 247.266 C 346.215 247.401 346.082 247.668 346.082 247.936 C 346.209 248.188 346.469 248.344 346.751 248.338 C 347.018 248.204 347.287 248.204 347.421 248.071 C 348.091 247.936 348.626 247.936 349.162 247.936 C 349.832 247.802 350.637 247.668 351.173 247.401 C 351.306 247.401 351.306 247.266 351.441 247.266 L 351.441 246.998 C 351.441 246.328 351.575 245.658 351.843 244.989 C 351.976 244.453 352.379 243.916 351.976 243.38 C 351.441 242.443 349.966 243.514 349.296 243.916 Z M 315.127 281.167 L 284.576 282.507 L 293.955 293.361 L 327.589 290.681 Z M 188.098 281.167 C 189.84 281.302 218.113 289.475 218.113 289.475 L 201.632 302.072 L 169.205 293.361 L 188.098 281.167 Z" class="m" style="fill: rgb(255, 255, 255);"/>
  <path d="M 318.075 339.725 L 322.23 339.725 L 322.23 377.779 L 318.075 377.779 Z" class="n" style="fill: rgb(76, 80, 109);"/>
  <linearGradient id="H" gradientUnits="userSpaceOnUse" x1="241.751" y1="260.663" x2="239.714" y2="239.765" gradientTransform="matrix(1.339969, 0, 0, 1.339969, -2.043429, 28.047443)">
    <stop offset="0" stop-opacity="0"/>
    <stop offset="0.99"/>
  </linearGradient>
  <path d="M 318.075 339.725 L 322.23 339.725 L 322.23 377.779 L 318.075 377.779 Z" fill="url(#H)" style=""/>
  <path d="M 298.646 382.201 C 298.646 385.015 308.293 387.294 320.086 387.294 C 331.877 387.294 341.524 385.015 341.524 382.201 C 341.658 381.129 341.658 380.191 341.524 378.986 C 339.917 376.573 330.804 377.109 320.086 377.109 C 309.767 377.109 300.655 376.708 298.646 378.986 C 298.512 380.058 298.512 381.129 298.646 382.201 Z" class="p" style="fill: rgb(47, 53, 84);"/>
  <path d="M 301.058 262.007 C 287.256 258.79 280.154 242.04 266.754 237.619 C 266.218 237.485 265.816 237.485 265.414 237.619 C 265.013 237.887 264.745 238.288 264.745 238.557 L 261.528 245.39 L 280.02 266.965 C 281.36 268.706 282.968 270.179 284.576 271.654 C 288.596 274.736 293.687 275.674 298.646 276.612 C 301.593 277.147 304.541 277.684 307.49 276.879 C 311.241 275.808 315.528 270.716 314.323 266.428 C 312.984 261.872 304.81 262.81 301.058 262.007 Z" class="m" style="fill: rgb(255, 255, 255);"/>
  <g class="o" transform="matrix(1.339969, 0, 0, 1.339969, -3.826927, 28.047441)" style="fill: rgb(62, 62, 84);">
    <path d="M211 226.7c-.1 1.6.3 3.3.9 4.9h.1c1.8-.1 3.5 0 5.3.1l8.8 1.3 4 .8 3.8.8 7.1 1.2c2.9-1.3 5.5-3.1 7.7-5.5.3-.3.5-.5.6-.8l.8-1.1c.7-1.1 1.2-2.3 1.4-3.5.1-.5 0-1.1-.1-1.5-.5-1.7-1.5-3.3-3.1-4.3l-.5-.4c-3.3-2.3-7.1-3.3-11-3.3-.4 0-.6 0-1 .1-2.1.2-4.2.5-6.2 1.1-3.3.8-6.4 2-9.6 3-2.4.6-4.6 1.6-6.7 2.8a6.73 6.73 0 00-1.5 1.4c-.6.9-.9 1.9-.8 2.9z"/>
    <path d="M211.3 231.9c.5 2.2.8 4.3 1.1 6.4.7 5 1.3 10 1.5 15.1.1.5 0 1-.1 1.4-.5 1.4-2.4 1.4-3.8 1.4s-3.3.5-3.3 2c0 1.1 1.3 1.8 2.3 2.2a27.16 27.16 0 009.8 1.5c.4 0 .8-.1 1.2-.2 2.3-1 .5-3.6.3-5.2-.4-2.3.5-4.6 1.1-6.8 1.3-5 4.6-9.4 4.4-14.7-.1-.6 0-1.4.4-1.9.6-.8 3.3.5 4.1.6 1.3.3 2.5.5 3.8.8 6.9 1.4 13.2 2.9 20.3 1.5.5-.1.8-.2 1.2-.4.5-.4.7-.9.8-1.4 1-3.1.7-6.4-.7-9.3-1.7-3.4-4.4-4.7-7.6-6.3-3.7-1.9-6.8-3.3-11-3.2-.4 0-.6 0-1 .1-2.1.2-4.2.5-6.2 1.1-5.2 1.4-17.1 3.3-19.1 9.2-.6 1.9.2 3.4.5 5.2-.2.3-.1.5 0 .9z" transform="matrix(1, 0, 0, 1, 0, 0)"/>
  </g>
  <g class="o" transform="matrix(1.339969, 0, 0, 1.339969, -2.043429, 28.047441)" style="fill: rgb(62, 62, 84);">
    <path d="M201.5 232.4c-1.7 2.1-3 4.3-4 6.8-1.3 2.8-8.3 32.5-8.6 32.4l5.3 1.4c6.2-8.9 11.4-18.5 15.5-28.5 1.2-2.9 1.3-3.2 4.3-3.8 2.8-.5 5.5-1.1 8.2-1.8 5.3-1.3 10.6-2.9 15.7-4.9 3.1-1.2 6.1-2.7 8.9-4.5.4-.3.7-.6 1.1-1.1.2-.2.3-.4.4-.5.5-.8.7-1.7.6-2.6 0-.3-.1-.5-.1-.7-.2-.5-.5-1-.8-1.4-.5-.7-1.2-1.3-1.9-1.7-1.9-1.4-4.2-2.2-6.5-2.4-1.6-.1-3.2.2-4.7.2-1.4-.1-2.4-.8-3.6-1-.9-.1-1.9 0-2.8.3-2.1.7-4.1 1.6-6.1 2.7l-11.3 5.6h-.1l-2.3 1.1c-2.4 1.2-5.1 2.4-7 4.3l-.2.1z"/>
    <path d="M180.9 270.2c-1 .1-2 .4-2.8.9s-1.2 1.6-.9 2.5c.4.6.9 1.2 1.5 1.4 3.9 1.9 8.3 2.8 12.7 2.4.6 0 1.3-.1 1.7-.5a2.72 2.72 0 00.8-1.6c.4-1.2.5-2.4.3-3.5-.7-2.4-3.3-1.9-5.2-2-2.6 0-5.3.1-8.1.4z"/>
  </g>
  <linearGradient id="K" gradientUnits="userSpaceOnUse" x1="219.638" y1="167.262" x2="235.011" y2="167.262" gradientTransform="matrix(1.339969, 0, 0, 1.339969, -2.043429, 28.047443)">
    <stop offset="0" stop-color="#e5c5d5"/>
    <stop offset="0.42" stop-color="#ead4d1"/>
    <stop offset="1" stop-color="#f0e9cb"/>
  </linearGradient>
  <path d="M 293.553 249.545 C 292.884 250.214 291.946 251.152 292.347 251.956 C 292.615 252.492 293.017 252.626 293.42 252.895 C 294.492 253.833 295.162 255.039 295.296 256.512 C 295.43 257.852 295.832 259.326 296.234 260.532 C 296.903 261.872 298.243 262.409 299.584 262.274 C 300.253 262.007 301.058 261.201 301.861 261.471 C 302.665 261.739 302.665 262.274 303.068 262.944 C 304.006 264.15 305.613 264.82 307.222 264.418 C 308.696 264.016 310.169 263.347 311.376 262.542 C 311.911 262.274 312.314 261.872 312.716 261.336 C 312.984 260.8 312.984 260.264 312.716 259.728 C 312.046 258.121 311.107 256.78 310.035 255.574 C 308.16 253.163 306.819 250.348 306.417 247.266 C 306.016 245.257 305.881 242.845 304.541 241.37 C 302.531 239.36 298.11 239.762 296.1 241.639 C 293.553 243.38 295.43 247.133 293.553 249.545 Z" fill="url(#K)" style=""/>
  <path d="M 295.162 239.628 C 295.564 240.165 295.832 240.567 296.502 240.835 L 299.584 242.576 C 300.522 243.113 301.325 244.05 301.593 245.123 C 302.263 246.998 301.325 249.411 302.129 251.152 C 302.397 251.554 302.934 251.152 303.202 250.751 C 303.47 250.348 303.47 249.813 303.872 249.545 C 304.541 249.008 305.346 249.678 305.748 250.348 C 306.417 252.09 305.881 253.966 304.273 254.771 C 304.408 255.44 305.211 255.44 305.881 255.44 C 306.551 255.172 307.088 255.039 307.758 254.904 C 309.231 255.039 309.901 257.048 311.376 257.048 C 312.314 257.048 313.117 256.244 313.654 255.306 L 315.261 253.163 C 315.528 252.76 315.798 252.357 316.066 252.09 C 316.467 251.688 317.004 251.554 317.405 251.286 C 317.807 250.884 317.272 250.081 317.539 249.545 C 317.674 249.277 317.942 249.143 318.209 249.008 C 319.147 248.338 319.548 247.133 319.147 246.06 C 319.013 245.926 319.013 245.793 319.013 245.658 C 319.013 245.39 319.281 245.39 319.548 245.257 C 320.487 244.453 320.889 242.978 320.219 241.907 C 319.548 240.835 318.611 239.897 317.539 239.226 C 315.395 237.485 312.984 235.743 312.314 232.929 C 312.152 232.196 311.927 231.479 311.644 230.784 C 311.241 230.114 310.437 229.847 309.767 230.114 C 309.901 228.641 309.901 227.301 309.499 225.826 C 309.366 225.425 309.231 225.156 308.963 224.889 C 308.428 224.353 307.891 224.22 307.222 224.353 C 306.551 224.487 306.016 224.889 305.479 225.156 C 305.479 224.487 304.676 224.22 303.872 224.22 C 301.191 224.353 298.914 225.826 297.573 228.105 C 297.44 228.373 297.305 228.506 297.172 228.775 C 296.903 229.043 296.502 229.176 296.234 229.311 C 295.162 229.981 294.358 231.052 294.358 232.125 C 294.091 233.331 294.091 234.537 294.358 235.609 C 294.358 236.547 294.626 237.485 294.894 238.288 L 295.162 239.628 Z" fill="#dd8049" style=""/>
  <g class="m" transform="matrix(1.339969, 0, 0, 1.339969, -2.043429, 28.047441)" style="fill: rgb(255, 255, 255);">
    <path d="M232.1 173.1c-1.1.6-2.2 1.4-3.3 2.1-.4.3-.6.5-.8.9s-.2.8 0 1.2c.4.5 1 .3 1.5 0 2.4-1.1 5-1.7 7.6-1.8.4 0 .7-.2.9-.5.1-.4 0-.7-.2-1.1-1.5-2.7-3.6-2.1-5.7-.8z"/>
    <path d="M227.5 206.9c-1.8-3.7-2.7-7.6-4-11.6-3 2.4-3.3 6.6-6 9.4-.4.5-.8.8-1.4 1.1-1.8 1-4.4.5-6.4.5-1-.1-2-.5-2.7-1.2-.5-.6-.7-1.4-.7-2.1-.2-2.6 1.3-5 2.7-7.1l9.8-14.9c.7-1.4 2-2.3 3.5-2.5 6.2-1.8 12.5-3.3 18.8-4.4.9-.2 1.9-.3 2.9-.2 2.7.4 4.5 3 5.9 5.3 7.2 12.4 12.2 26.4 11.4 40.7 0 .8-.2 1.5-.4 2.3-.5 1.1-1.3 2.1-2.3 2.8-3.2 2.5-7.4 3.4-11.4 3.5-6.1.1-14-1.8-18.6-6.2-2.5-2.4 0-4 1.3-6.3 1.5-3-1.1-6.3-2.4-9.1z"/>
  </g>
  <linearGradient id="L" gradientUnits="userSpaceOnUse" x1="289.284" y1="253.84" x2="211.445" y2="176.001" gradientTransform="matrix(1.339969, 0, 0, 1.339969, -2.043429, 28.047443)">
    <stop offset="0.01"/>
    <stop offset="0.08" stop-opacity=".69"/>
    <stop offset="0.21" stop-opacity=".32"/>
    <stop offset="1" stop-opacity="0"/>
  </linearGradient>
  <path d="M 343.267 291.888 C 342.597 289.341 341.794 286.929 340.855 284.518 C 336.165 287.868 332.547 294.433 330.939 300.06 C 329.198 305.689 327.723 311.451 324.104 316.007 L 320.219 314.668 L 319.548 317.079 C 318.879 318.955 320.622 320.965 320.354 322.841 C 319.952 324.85 318.477 326.458 316.334 326.995 C 314.055 327.53 311.778 327.263 309.499 326.458 C 308.026 326.19 306.685 325.655 305.479 324.717 C 304.273 323.779 303.603 322.306 304.006 320.83 C 303.068 321.5 302.665 322.573 302.934 323.645 C 303.336 324.717 303.872 325.52 304.81 326.19 C 307.49 328.603 310.839 329.808 314.323 331.149 C 315.932 331.818 317.539 332.355 319.147 332.891 C 323.033 333.694 326.919 334.096 330.804 334.096 C 333.218 334.231 334.557 333.694 335.629 331.417 C 337.102 328.067 337.236 324.315 337.506 320.562 C 338.845 311.049 340.72 301.401 343.267 291.888 Z" fill="url(#L)" style=""/>
  <path d="M 330.269 326.995 L 330.403 330.21 L 330.671 333.426 C 330.671 333.694 330.671 333.962 330.804 334.096 L 331.207 336.375 L 331.207 336.508 L 331.474 337.848 C 331.073 340.261 331.341 342.672 332.279 344.817 C 334.423 344.951 336.7 344.817 338.711 344.682 C 342.999 344.414 347.018 343.743 351.038 342.538 C 355.193 340.529 358.943 337.848 362.293 334.498 C 363.231 333.694 364.037 332.623 364.438 331.55 C 364.836 330.342 364.973 329.063 364.84 327.799 C 364.707 320.83 365.51 313.863 367.519 307.029 C 368.057 305.555 368.325 304.081 368.995 302.607 L 370.869 297.784 C 372.613 294.031 374.488 290.413 375.292 286.393 C 375.694 284.25 375.827 281.972 375.426 279.694 C 375.426 279.292 375.292 279.024 374.889 278.622 C 374.488 278.22 374.086 278.085 373.55 278.22 C 368.458 278.353 363.902 281.302 358.81 282.105 C 356.264 282.641 353.584 282.507 351.038 283.177 C 347.555 284.384 344.606 286.661 342.597 289.878 C 341.524 291.485 340.587 293.093 339.649 294.969 C 338.309 297.649 337.102 300.195 336.03 302.607 C 335.361 304.081 334.825 305.555 334.156 307.029 C 332.253 311.53 330.947 316.259 330.269 321.099 L 330.269 321.232 C 330.403 323.242 330.269 325.252 330.269 326.995 Z" style=""/>
  <linearGradient id="M" gradientUnits="userSpaceOnUse" x1="281.947" y1="211.715" x2="247.979" y2="211.715" gradientTransform="matrix(1.339969, 0, 0, 1.339969, -2.043429, 28.047443)">
    <stop offset="0" stop-opacity="0"/>
    <stop offset="0.99"/>
  </linearGradient>
  <path d="M 330.269 326.995 L 330.403 330.21 L 330.671 333.426 C 330.671 333.694 330.671 333.962 330.804 334.096 L 331.207 336.375 L 331.207 336.508 L 331.474 337.848 C 331.073 340.261 331.341 342.672 332.279 344.817 C 334.423 344.951 336.7 344.817 338.711 344.682 C 342.999 344.414 347.018 343.743 351.038 342.538 C 355.193 340.529 358.943 337.848 362.293 334.498 C 363.231 333.694 364.037 332.623 364.438 331.55 C 364.836 330.342 364.973 329.063 364.84 327.799 C 364.707 320.83 365.51 313.863 367.519 307.029 C 368.057 305.555 368.325 304.081 368.995 302.607 L 370.869 297.784 C 372.613 294.031 374.488 290.413 375.292 286.393 C 375.694 284.25 375.827 281.972 375.426 279.694 C 375.426 279.292 375.292 279.024 374.889 278.622 C 374.488 278.22 374.086 278.085 373.55 278.22 C 368.458 278.353 363.902 281.302 358.81 282.105 C 356.264 282.641 353.584 282.507 351.038 283.177 C 347.555 284.384 344.606 286.661 342.597 289.878 C 341.524 291.485 340.587 293.093 339.649 294.969 C 338.309 297.649 337.102 300.195 336.03 302.607 C 335.361 304.081 334.825 305.555 334.156 307.029 C 332.253 311.53 330.947 316.259 330.269 321.099 L 330.269 321.232 C 330.403 323.242 330.269 325.252 330.269 326.995 Z" fill="url(#M)" style=""/>
  <linearGradient id="N" gradientUnits="userSpaceOnUse" x1="187.681" y1="154.897" x2="200.593" y2="154.897" gradientTransform="matrix(1.339969, 0, 0, 1.339969, -2.043429, 28.047443)">
    <stop offset="0" stop-color="#e5c5d5"/>
    <stop offset="0.42" stop-color="#ead4d1"/>
    <stop offset="1" stop-color="#f0e9cb"/>
  </linearGradient>
  <path d="M 261.261 232.929 C 258.58 230.65 255.634 228.239 252.282 227.167 C 251.828 226.898 251.263 226.898 250.809 227.167 C 250.54 227.435 250.407 227.703 250.407 227.837 C 250.272 229.043 250.809 230.249 251.613 231.052 C 252.417 231.858 253.355 232.929 253.89 233.867 C 252.685 233.599 251.346 233.732 250.138 234 C 249.857 233.996 249.597 234.151 249.469 234.402 C 249.312 234.758 249.363 235.169 249.602 235.476 C 250.54 236.949 252.282 237.887 254.025 237.887 C 254.426 237.887 254.695 238.02 254.964 238.155 C 255.634 238.69 255.231 239.628 255.365 240.299 C 255.499 240.969 256.035 241.639 256.705 242.04 C 257.375 242.443 258.045 242.576 258.714 242.845 C 259.653 243.514 260.725 243.916 261.931 244.319 C 264.208 244.453 266.486 241.37 266.486 239.226 C 266.754 236.815 262.868 234.269 261.261 232.929 Z" fill="url(#N)" style=""/>
  <path d="M 125.522 339.322 L 129.676 339.322 L 129.676 377.377 L 125.522 377.377 Z" class="n" style="fill: rgb(76, 80, 109);"/>
  <linearGradient id="O" gradientUnits="userSpaceOnUse" x1="95.42" y1="260.25" x2="97.456" y2="239.352" gradientTransform="matrix(1.339969, 0, 0, 1.339969, -2.043429, 28.047443)">
    <stop offset="0" stop-opacity="0"/>
    <stop offset="0.99"/>
  </linearGradient>
  <path d="M 125.522 339.322 L 129.676 339.322 L 129.676 377.377 L 125.522 377.377 Z" fill="url(#O)" style=""/>
  <path d="M 149.105 381.665 C 149.105 384.479 139.458 386.757 127.665 386.757 C 115.874 386.757 106.226 384.479 106.226 381.665 C 106.092 380.593 106.092 379.656 106.226 378.449 C 107.834 376.038 116.946 376.573 127.665 376.573 C 138.118 376.573 147.096 376.171 149.105 378.449 C 149.239 379.521 149.239 380.593 149.105 381.665 Z" class="p" style="fill: rgb(47, 53, 84);"/>
  <ellipse cx="127.665" cy="378.449" rx="21.44" ry="5.091" class="n" style="fill: rgb(76, 80, 109);"/>
  <path d="M 167.195 331.283 C 167.328 333.426 166.792 335.705 165.989 337.848 L 165.855 337.848 L 158.752 337.982 L 146.962 339.725 L 141.601 340.796 L 136.509 341.869 L 126.995 343.475 C 123.11 341.734 119.625 339.188 116.678 336.106 L 115.874 334.9 L 114.801 333.426 C 113.864 331.953 113.195 330.344 112.926 328.737 C 112.792 328.067 112.926 327.263 113.06 326.727 C 113.73 324.449 115.069 322.306 117.214 320.965 L 117.884 320.429 C 122.306 317.347 127.398 316.007 132.623 316.007 C 133.159 316.007 133.427 316.007 133.964 316.141 C 136.777 316.409 139.591 316.811 142.27 317.614 C 146.694 318.687 150.846 320.295 155.134 321.635 C 158.351 322.439 161.299 323.779 164.113 325.52 C 164.876 326.039 165.553 326.673 166.122 327.397 C 166.792 328.603 167.195 329.943 167.195 331.283 Z" class="o" style="fill: rgb(62, 62, 84);"/>
  <linearGradient id="P" gradientUnits="userSpaceOnUse" x1="120.335" y1="192.47" x2="92.929" y2="272.961" gradientTransform="matrix(1.339969, 0, 0, 1.339969, -2.043429, 28.047443)">
    <stop offset="0" stop-color="#e5c5d5"/>
    <stop offset="0.42" stop-color="#ead4d1"/>
    <stop offset="1" stop-color="#f0e9cb"/>
  </linearGradient>
  <path d="M 166.792 338.116 C 166.122 341.064 165.721 343.879 165.319 346.692 L 163.846 358.618 C 163.174 362.504 163.309 366.524 162.639 370.41 C 162.237 371.883 162.102 373.358 162.102 374.832 C 162.371 376.841 162.772 378.986 163.71 380.727 C 163.577 380.996 163.174 380.996 163.04 380.861 C 161.433 380.459 159.825 380.058 158.619 379.253 C 157.145 378.582 155.94 377.377 155.403 375.903 C 154.599 373.759 155.27 371.348 155.134 369.07 C 154.866 366.657 154.464 364.38 153.661 362.102 C 151.92 355.401 147.497 349.507 147.765 342.404 C 147.899 341.6 147.765 340.529 147.229 339.859 C 146.425 338.786 142.808 340.529 141.735 340.663 L 136.643 341.734 C 127.398 343.61 118.956 345.62 109.576 343.743 C 108.907 343.61 108.504 343.475 107.969 343.074 C 107.298 342.538 107.03 341.869 106.896 341.199 C 105.557 337.044 105.958 332.623 107.834 328.737 C 110.112 324.315 113.73 322.439 118.018 320.295 C 122.975 317.882 127.13 315.873 132.758 316.007 C 133.293 316.007 133.561 316.007 134.098 316.141 C 136.911 316.409 139.726 316.811 142.406 317.614 C 149.373 319.491 165.319 322.036 167.998 329.943 C 168.803 332.488 167.73 334.498 167.328 336.911 C 166.927 337.446 166.927 337.848 166.792 338.116 Z" fill="url(#P)" style=""/>
  <path d="M 154.599 374.966 L 154.866 374.698 C 155.403 374.564 155.672 375.1 155.94 375.368 C 157.011 377.243 158.619 378.582 160.495 379.253 C 160.763 379.388 161.031 379.388 161.165 379.388 C 161.433 379.253 161.701 378.852 161.834 378.718 C 162.237 378.449 162.639 378.315 163.04 378.449 C 163.442 378.582 163.846 378.852 164.113 379.12 C 165.185 379.79 166.122 380.727 167.195 381.531 C 167.73 382.067 168.132 382.737 167.865 383.408 C 167.597 383.809 167.328 384.077 167.06 384.077 C 165.721 384.479 164.247 384.479 162.907 383.944 C 160.495 383.14 158.351 381.665 155.94 380.727 C 155.805 380.593 155.537 380.593 155.403 380.593 C 155.27 380.593 155.134 380.593 155.001 380.727 C 154.464 380.727 154.196 380.459 153.929 380.058 C 152.857 378.449 152.991 376.306 154.599 374.966 Z" class="o" style="fill: rgb(62, 62, 84);"/>
  <linearGradient id="Q" gradientUnits="userSpaceOnUse" x1="111.807" y1="229.746" x2="149.866" y2="272.892" gradientTransform="matrix(1.339969, 0, 0, 1.339969, -2.043429, 28.047443)">
    <stop offset="0" stop-color="#e5c5d5"/>
    <stop offset="0.42" stop-color="#ead4d1"/>
    <stop offset="1" stop-color="#f0e9cb"/>
  </linearGradient>
  <path d="M 178.183 339.591 C 179.254 342.27 179.791 345.219 179.656 348.031 C 179.656 355.401 177.647 362.772 175.503 369.873 C 174.698 372.955 173.895 375.903 172.957 378.986 C 172.286 381.129 171.215 382.737 172.689 385.015 C 172.957 385.417 173.359 385.819 173.493 386.355 C 173.76 386.891 173.627 387.428 173.359 387.829 C 172.823 388.365 171.884 387.964 171.348 387.696 C 169.607 387.158 168.132 386.623 166.525 385.953 C 163.442 384.211 164.649 382.201 165.185 379.521 C 165.855 376.306 166.122 373.223 166.525 370.009 C 167.328 363.576 167.195 357.01 165.989 350.712 C 165.855 350.042 165.587 349.238 165.185 348.702 C 164.516 348.167 163.846 347.898 163.04 347.898 C 152.187 346.022 141.467 345.352 131.015 341.064 C 126.862 339.455 122.842 337.446 119.224 335.034 C 118.688 334.632 118.286 334.231 117.75 333.561 C 117.482 333.293 117.348 333.025 117.214 332.891 C 116.545 331.818 116.275 330.612 116.41 329.406 C 116.41 329.005 116.545 328.737 116.545 328.468 C 116.813 327.799 117.214 327.129 117.616 326.594 C 118.313 325.629 119.232 324.847 120.295 324.315 C 122.842 322.439 125.924 321.367 129.005 321.099 C 131.15 320.965 133.293 321.5 135.303 321.367 C 137.179 321.232 138.52 320.295 140.127 320.027 C 141.392 319.895 142.672 320.031 143.879 320.429 C 146.694 321.367 149.373 322.573 152.053 324.047 L 161.567 328.737 C 165.989 330.881 171.215 332.355 174.966 335.437 C 176.306 336.241 177.513 337.848 178.183 339.591 Z" fill="url(#Q)" style=""/>
  <path d="M 168.266 323.779 C 176.441 328.737 181.397 337.581 181.533 347.093 C 173.76 352.857 164.917 356.875 155.403 358.886 C 154.368 359.288 153.221 359.288 152.187 358.886 C 151.384 358.35 150.445 357.814 149.908 357.01 C 141.333 348.167 126.057 348.97 116.946 340.529 C 113.596 337.313 111.184 331.818 113.998 327.933 C 115.069 326.594 116.41 325.52 118.018 324.717 C 124.986 320.429 133.427 314.131 141.869 315.604 C 150.445 317.079 160.897 319.357 168.266 323.779 Z" class="l" style="fill: rgb(63, 136, 252);"/>
  <path d="M 171.616 353.66 C 167.195 349.104 166.525 342.27 165.855 335.973 C 164.649 337.044 163.174 337.848 161.701 338.519 L 161.031 336.643 C 161.031 336.241 160.629 335.973 160.361 336.106 C 160.228 336.106 160.228 336.106 160.093 336.241 C 153.929 338.25 147.497 339.455 140.931 339.455 C 138.52 339.455 135.839 339.322 133.83 337.848 C 131.82 336.375 130.613 333.426 132.221 331.283 C 126.995 332.756 121.636 333.694 116.275 334.498 C 115.739 334.498 115.472 334.632 115.069 335.034 C 114.668 335.571 115.069 336.375 115.472 336.911 C 119.894 342.94 126.326 347.093 133.696 348.569 C 135.706 348.97 146.694 352.99 151.517 359.422 C 152.187 360.226 153.393 360.627 154.464 360.359 L 171.616 353.66 Z" style="fill: rgb(34, 93, 147);"/>
  <path d="M 106.092 336.241 C 104.484 336.241 102.608 336.508 101.67 337.982 C 101.134 338.786 101.134 339.859 101.67 340.931 C 102.205 341.734 102.875 342.538 103.814 342.805 C 105.02 343.342 106.226 343.61 107.431 343.879 L 123.11 346.826 L 131.015 348.167 C 133.025 348.569 135.036 349.507 137.179 350.042 C 139.323 350.578 142.137 350.712 144.014 349.238 C 145.085 348.301 145.755 346.692 145.487 345.219 C 145.353 344.682 145.219 344.281 144.817 343.879 C 144.537 343.612 144.222 343.387 143.879 343.208 C 139.994 341.466 135.973 340.261 131.82 339.725 L 123.377 337.982 C 120.833 337.313 118.152 336.776 115.472 336.508 C 112.39 336.106 109.308 336.106 106.092 336.241 Z" style=""/>
  <linearGradient id="S" gradientUnits="userSpaceOnUse" x1="104.384" y1="225.186" x2="82.978" y2="244.808" gradientTransform="matrix(1.339969, 0, 0, 1.339969, -2.043429, 28.047443)">
    <stop offset="0" stop-opacity="0"/>
    <stop offset="0.99"/>
  </linearGradient>
  <path d="M 106.092 336.241 C 104.484 336.241 102.608 336.508 101.67 337.982 C 101.134 338.786 101.134 339.859 101.67 340.931 C 102.205 341.734 102.875 342.538 103.814 342.805 C 105.02 343.342 106.226 343.61 107.431 343.879 L 123.11 346.826 L 131.015 348.167 C 133.025 348.569 135.036 349.507 137.179 350.042 C 139.323 350.578 142.137 350.712 144.014 349.238 C 145.085 348.301 145.755 346.692 145.487 345.219 C 145.353 344.682 145.219 344.281 144.817 343.879 C 144.537 343.612 144.222 343.387 143.879 343.208 C 139.994 341.466 135.973 340.261 131.82 339.725 L 123.377 337.982 C 120.833 337.313 118.152 336.776 115.472 336.508 C 112.39 336.106 109.308 336.106 106.092 336.241 Z" fill="url(#S)" style=""/>
  <linearGradient id="T" gradientUnits="userSpaceOnUse" x1="116.352" y1="166.711" x2="102.223" y2="166.711" gradientTransform="matrix(1.339969, 0, 0, 1.339969, -2.043429, 28.047443)">
    <stop offset="0" stop-color="#e5c5d5"/>
    <stop offset="0.42" stop-color="#ead4d1"/>
    <stop offset="1" stop-color="#f0e9cb"/>
  </linearGradient>
  <path d="M 151.92 240.835 C 151.249 240.299 150.713 240.031 150.043 239.762 C 148.034 239.092 145.085 238.958 143.344 240.567 C 141.601 242.308 141.735 244.453 141.467 246.463 C 140.797 249.545 139.591 252.224 137.715 254.771 C 136.509 255.976 135.706 257.315 135.036 258.924 C 134.901 259.46 134.901 259.996 135.036 260.532 C 135.438 261.068 135.706 261.471 136.376 261.739 C 137.581 262.542 139.056 263.347 140.529 263.614 C 141.467 263.882 142.539 263.614 143.477 262.944 C 144.147 262.274 144.817 262.007 145.621 262.14 C 146.425 262.409 147.364 262.542 148.302 262.677 C 149.775 262.409 150.846 261.471 151.249 260.13 C 151.652 258.79 151.92 257.451 151.92 255.976 C 152.322 252.357 153.795 248.875 153.929 245.123 C 154.063 243.514 153.393 241.907 151.92 240.835 Z" fill="url(#T)" style=""/>
  <g class="m" transform="matrix(1.339969, 0, 0, 1.339969, -2.043429, 28.047441)" style="fill: rgb(255, 255, 255);">
    <path d="M99.3 173.3a1.39 1.39 0 00-.2 1.1c.2.4.5.5.9.5 2.6.1 5.2.7 7.6 1.9.5.3 1.2.5 1.5 0 .2-.4.2-.8 0-1.3-.2-.4-.5-.6-.8-.8l-3.3-2.1c-2-1.3-4.1-1.9-5.7.7z"/>
    <path d="M107.4 215.7c1.3 2.4 3.8 3.9 1.3 6.4-4.5 4.3-12.5 6.2-18.6 6.2-4.1 0-8.2-1-11.4-3.5-1-.7-1.7-1.6-2.2-2.8-.3-.7-.4-1.5-.4-2.3-.8-14.3 4.3-28.3 11.4-40.7 1.4-2.4 3.2-4.9 5.9-5.3 1-.1 2 0 2.9.2 6.3 1.1 12.6 2.5 18.8 4.4.8.2 1.6.5 2.3 1 .5.5.9.9 1.3 1.5l9.8 14.9c1.4 2.2 2.9 4.5 2.7 7.1 0 .7-.3 1.4-.7 2.1-.7.7-1.7 1.1-2.7 1.2-3.5.5-7.2.4-10.7-.7 1.9-1.4 1.4-4.5.1-6.6-.9-1.4-1.9-2.6-3.2-3.7-.8 4.1-2.2 8-4 11.7-1.6 2.6-4.2 5.7-2.6 8.9z"/>
  </g>
  <path d="M 154.331 241.37 C 154.733 240.165 154.866 238.825 154.464 237.619 C 153.953 235.826 153.036 234.176 151.785 232.794 C 149.373 229.847 146.157 227.301 142.406 226.764 C 132.221 225.023 120.429 235.476 116.545 244.05 C 114.131 249.411 113.328 255.306 112.122 261.201 C 110.916 267.098 108.638 272.859 103.949 276.612 C 102.072 278.22 99.794 279.426 98.722 281.435 C 97.382 283.982 98.052 287.331 99.929 289.743 C 101.536 291.753 103.681 292.691 105.69 294.166 C 107.567 295.505 109.04 297.381 110.112 299.525 C 112.39 303.947 113.328 309.174 116.143 313.462 L 120.295 311.183 C 123.78 309.442 127.13 307.163 129.944 304.348 C 132.623 301.401 134.5 297.381 133.83 293.496 C 133.427 291.217 132.088 289.073 131.418 286.661 C 129.139 279.56 134.232 276.612 138.52 272.324 C 141.571 269.321 142.969 265.023 142.27 260.8 C 141.467 258.522 142.27 255.842 144.281 254.502 C 146.157 252.224 144.683 249.277 146.962 247.133 C 148.703 245.39 151.384 245.257 152.857 243.514 C 153.795 242.576 154.063 242.04 154.331 241.37 Z" class="p" style="fill: rgb(47, 53, 84);"/>
  <linearGradient id="U" gradientUnits="userSpaceOnUse" x1="47.947" y1="253.453" x2="125.795" y2="175.614" gradientTransform="matrix(1.339969, 0, 0, 1.339969, -2.043429, 28.047443)">
    <stop offset="0.01"/>
    <stop offset="0.08" stop-opacity=".69"/>
    <stop offset="0.21" stop-opacity=".32"/>
    <stop offset="1" stop-opacity="0"/>
  </linearGradient>
  <path d="M 104.619 291.351 C 105.288 288.805 105.958 286.393 107.03 283.982 C 111.719 287.331 115.337 293.898 116.946 299.525 C 118.688 305.154 120.162 310.915 123.78 315.471 L 127.665 314.131 L 128.335 316.542 C 129.005 318.419 127.263 320.429 127.532 322.306 C 127.933 324.315 129.408 325.922 131.551 326.458 C 133.83 326.995 136.108 326.727 138.386 325.922 C 139.859 325.655 141.199 325.118 142.27 324.18 C 143.477 323.377 144.147 321.768 143.746 320.295 C 144.683 320.965 145.219 322.036 144.817 323.109 C 144.415 324.18 143.879 324.985 142.941 325.655 C 140.261 328.067 136.911 329.273 133.427 330.612 C 131.82 331.283 130.212 331.818 128.603 332.355 C 124.717 333.158 120.833 333.561 116.946 333.561 C 114.534 333.561 113.195 333.158 112.122 330.881 C 110.648 327.53 110.514 323.779 110.246 320.027 C 108.772 310.513 107.03 300.866 104.619 291.351 Z" fill="url(#U)" style=""/>
  <path d="M 164.247 382.335 L 164.516 382.067 C 165.051 381.934 165.319 382.469 165.587 382.737 C 166.659 384.614 168.266 385.953 170.143 386.623 C 170.41 386.757 170.678 386.757 170.813 386.757 C 171.08 386.623 171.348 386.22 171.483 386.087 C 171.884 385.819 172.286 385.685 172.689 385.819 C 173.09 385.953 173.493 386.22 173.76 386.489 C 174.833 387.158 175.77 388.097 176.842 388.902 C 177.378 389.437 177.781 390.107 177.513 390.777 C 177.245 391.178 176.977 391.446 176.708 391.446 C 175.368 391.984 173.895 391.849 172.554 391.313 C 170.143 390.508 167.998 389.035 165.587 388.097 C 165.452 387.964 165.185 387.964 165.051 387.964 C 164.917 387.964 164.783 387.964 164.649 388.097 C 164.113 388.097 163.846 387.829 163.577 387.428 C 162.639 385.953 162.772 383.676 164.247 382.335 Z" class="o" style="fill: rgb(62, 62, 84);"/>
  <path d="M 200.293 230.114 L 192.922 231.723 L 192.922 199.028 L 200.293 197.554 Z M 209.94 227.971 L 202.704 229.579 L 202.704 204.923 L 209.94 203.315 Z M 219.856 225.826 L 212.486 227.435 L 212.486 182.679 L 219.856 180.938 Z M 229.638 223.683 L 222.401 225.425 L 222.401 170.754 L 229.638 169.28 Z" class="l" style="fill: rgb(63, 136, 252);"/>
  <path d="M 187.964 232.661 L 234.729 223.147 L 234.729 169.414" fill="none" stroke="#2f3554" stroke-miterlimit="10" style=""/>
  <path d="M 119.492 189.246 C 119.894 189.379 120.162 189.514 120.429 189.648 L 123.377 191.255 C 123.512 191.389 123.645 191.389 123.913 191.523 L 124.45 191.523 C 128.603 190.719 128.603 185.226 125.254 183.349 C 124.583 183.081 124.047 182.679 123.377 182.278 C 122.842 181.741 122.574 181.34 122.172 180.805 C 121.636 180.268 121.1 180.134 120.429 180.134 C 119.759 180.402 119.492 180.805 119.492 181.474 C 119.357 182.144 119.224 182.679 118.956 183.216 C 118.688 183.618 118.554 183.886 118.286 184.155 L 117.214 185.628 C 116.813 186.164 116.678 186.699 116.678 187.369 C 116.946 188.04 117.348 188.576 118.152 188.844 L 119.492 189.246 Z" class="q" style="fill: rgb(253, 185, 169);"/>
  <path d="M 146.023 211.221 C 146.558 212.159 146.827 213.097 147.096 214.304 C 147.096 216.447 146.157 218.457 144.281 219.797 C 142.003 221.673 139.056 223.013 135.973 223.147 C 135.303 223.282 134.366 223.147 133.696 222.745 C 132.758 222.075 131.953 221.137 131.551 220.065 C 127.8 212.294 123.645 202.78 123.244 193.936 C 123.11 191.255 125.388 186.431 128.738 188.174 C 132.221 190.049 135.571 195.007 137.849 198.09 C 141.065 202.378 143.879 206.531 146.023 211.221 Z" class="m" style="fill: rgb(255, 255, 255);"/>
</svg>