<?xml version="1.0" encoding="utf-8"?>
<svg viewBox="0 0 500 500" xmlns="http://www.w3.org/2000/svg">
  <g fill="#fc5b3f" transform="matrix(1.223735, 0, 0, 1.223735, 25.797178, 77.918701)" style="">
    <path d="M343.2 181.8c-6.2 11.7-17.4 20.8-20.5 33.6-1.4 5.5-1 11.3-1.7 17-2.5 19.9-17.3 36.3-35.1 45.7-.8.4-1.5.8-2.3 1.2-11.7 5.7-24.3 8.8-37.1 10.7-7.8 1.2-15.7 1.9-23.6 2.5-32.6 2.6-65.2 3.5-98 2.8-15.8-.3-31.9-1.1-46.8-6.3-.8-.3-1.5-.5-2.3-.8-12.1-4.6-22.8-12.3-32.3-21.2l-.4-.4c-14.1-13.2-25.9-29.2-33.4-47C-1.1 194-2.9 165.7 4.4 139c4.5-15.9 12.3-30.9 13.5-47.3.9-12.3-2-24.8-.1-37 4-24.3 26.5-42.1 50.3-48.1s48.9-2.6 73.2.8c11.9 1.7 25.8 6.3 37.5 2.6C193.2 5.6 205.4 0 221 0c6.3 0 12.8.7 18.7 3.2 7.1 3.1 12.7 8.7 18.4 13.9 16 14.3 34.2 25.9 50.6 39.9 16.4 13.9 31.2 30.9 37.2 51.6 3 10.1 3.7 20.7 4 31.2.5 14.3 0 29.3-6.7 42z" opacity=".18" style="fill: rgb(63, 114, 252);"/>
    <path d="M94.4 95.6h166c7.1 0 12.9 5.7 12.9 12.9v110.8c0 7.1-5.7 12.9-12.9 12.9h-166c-7.1 0-12.9-5.7-12.9-12.9V108.5c-.1-7.2 5.8-12.9 12.9-12.9z" style="fill: rgb(63, 136, 252);"/>
  </g>
  <path d="M 139.849 206.778 L 345.926 206.778 L 345.926 346.651 L 139.849 346.651 Z" fill="#fff" style=""/>
  <path d="M 234.322 272.003 L 240.44 272.003 L 240.44 328.173 L 234.322 328.173 Z M 244.968 281.181 L 251.087 281.181 L 251.087 328.173 L 244.968 328.173 Z M 255.492 289.503 L 261.611 289.503 L 261.611 328.05 L 255.492 328.05 Z M 266.139 281.181 L 272.257 281.181 L 272.257 328.173 L 266.139 328.173 Z M 276.541 300.027 L 282.659 300.027 L 282.659 328.173 L 276.541 328.173 Z M 287.309 281.181 L 293.428 281.181 L 293.428 328.173 L 287.309 328.173 Z M 297.711 295.254 L 303.83 295.254 L 303.83 328.173 L 297.711 328.173 Z M 308.358 288.891 L 314.476 288.891 L 314.476 328.05 L 308.358 328.05 Z M 162.244 306.023 L 197.365 306.023 L 197.365 308.103 L 162.244 308.103 Z M 162.244 311.775 L 197.365 311.775 L 197.365 313.855 L 162.244 313.855 Z M 162.244 317.404 L 197.365 317.404 L 197.365 319.484 L 162.244 319.484 Z M 162.244 323.155 L 197.365 323.155 L 197.365 325.236 L 162.244 325.236 Z M 162.244 328.784 L 197.365 328.784 L 197.365 330.865 L 162.244 330.865 Z M 198.099 234.19 C 185.495 234.19 175.215 244.347 175.093 256.951 C 175.093 269.556 185.25 279.835 197.854 279.957 L 197.854 272.003 L 197.732 272.003 C 189.411 272.003 182.68 265.273 182.68 256.951 C 182.68 248.63 189.411 241.899 197.732 241.899 C 206.053 241.899 212.784 248.63 212.784 256.951 C 212.784 257.685 212.662 258.42 212.539 259.154 L 220.616 259.154 C 220.738 258.542 220.738 257.93 220.738 257.196 C 220.983 244.469 210.826 234.19 198.099 234.19 Z" style="fill: rgb(34, 93, 147);"/>
  <linearGradient id="A" gradientUnits="userSpaceOnUse" x1="305.951" y1="-80.113" x2="288.574" y2="237.372" gradientTransform="matrix(1.223735, 0, 0, 1.223735, 25.797179, 77.918703)">
    <stop offset="0.02" stop-color="#fff" stop-opacity="0"/>
    <stop offset="0.14" stop-color="#fff" stop-opacity=".06"/>
    <stop offset="0.32" stop-color="#fff" stop-opacity=".39"/>
    <stop offset="0.68" stop-color="#fff" stop-opacity=".68"/>
    <stop offset="1" stop-color="#fff"/>
  </linearGradient>
  <path d="M 356.695 215.344 L 413.966 215.344 C 418.249 215.344 421.676 218.771 421.676 223.054 L 421.676 278.978 C 421.676 283.261 418.249 286.688 413.966 286.688 L 356.695 286.688 C 352.412 286.688 348.986 283.261 348.986 278.978 L 348.986 223.054 C 348.986 218.771 352.412 215.344 356.695 215.344 Z" fill="url(#A)" style=""/>
  <linearGradient id="B" gradientUnits="userSpaceOnUse" x1="233.889" y1="-246.705" x2="216.504" y2="70.781" gradientTransform="matrix(1.223735, 0, 0, 1.223735, 25.797179, 77.918703)">
    <stop offset="0.02" stop-color="#fff" stop-opacity="0"/>
    <stop offset="0.32" stop-color="#fff" stop-opacity=".39"/>
    <stop offset="0.68" stop-color="#fff" stop-opacity=".68"/>
    <stop offset="1" stop-color="#fff"/>
  </linearGradient>
  <path d="M 262.957 112.183 L 320.228 112.183 C 324.511 112.183 327.937 115.61 327.937 119.893 L 327.937 175.818 C 327.937 180.101 324.511 183.527 320.228 183.527 L 262.957 183.527 C 258.674 183.527 255.248 180.101 255.248 175.818 L 255.248 119.77 C 255.37 115.61 258.796 112.183 262.957 112.183 Z" fill="url(#B)" style=""/>
  <linearGradient id="C" gradientUnits="userSpaceOnUse" x1="84.176" y1="-172.372" x2="66.791" y2="145.114" gradientTransform="matrix(1.223735, 0, 0, 1.223735, 25.797179, 77.918703)">
    <stop offset="0.02" stop-color="#fff" stop-opacity="0"/>
    <stop offset="0.32" stop-color="#fff" stop-opacity=".39"/>
    <stop offset="0.68" stop-color="#fff" stop-opacity=".68"/>
    <stop offset="1" stop-color="#fff"/>
  </linearGradient>
  <path d="M 85.271 104.229 L 142.542 104.229 C 146.825 104.229 150.251 107.655 150.251 111.939 L 150.251 167.863 C 150.251 172.146 146.825 175.573 142.542 175.573 L 85.271 175.573 C 80.988 175.573 77.561 172.146 77.561 167.863 L 77.561 111.816 C 77.439 107.655 80.988 104.229 85.271 104.229 Z" fill="url(#C)" style=""/>
  <linearGradient id="D" gradientUnits="userSpaceOnUse" x1="66.695" y1="-82.075" x2="49.318" y2="235.41" gradientTransform="matrix(1.223735, 0, 0, 1.223735, 25.797179, 77.918703)">
    <stop offset="0.02" stop-color="#fff" stop-opacity="0"/>
    <stop offset="0.32" stop-color="#fff" stop-opacity=".39"/>
    <stop offset="0.68" stop-color="#fff" stop-opacity=".68"/>
    <stop offset="1" stop-color="#fff"/>
  </linearGradient>
  <path d="M 63.978 211.183 L 121.249 211.183 C 125.532 211.183 128.958 214.61 128.958 218.893 L 128.958 274.94 C 128.958 279.223 125.532 282.65 121.249 282.65 L 63.978 282.65 C 59.695 282.65 56.268 279.223 56.268 274.94 L 56.268 219.015 C 56.391 214.61 59.817 211.183 63.978 211.183 Z" fill="url(#D)" style=""/>
  <g fill="#fc5b3f" transform="matrix(1.223735, 0, 0, 1.223735, 25.797178, 77.918701)" style="">
    <path d="M234.2 177.7l-.6-.1 11-42.5h20v.6h-19.5zM187.6 69.6h-9.1l-25 83.7-.6-.1 25-84.3h9.7zm-48.1 64.1l-22-68.9h-17.1v-.7H118l.1.3 22.1 69.1zm-25.3 26l-15.6-17.4H83.3v-.7h15.6l15.8 17.7z" style="fill: rgb(34, 93, 147);"/>
  </g>
  <path d="M 220.861 259.032 C 219.882 270.779 209.969 279.957 198.099 279.957 L 197.977 279.957 L 197.977 272.003 C 205.442 272.003 211.683 266.374 212.906 259.032 L 220.861 259.032 Z" style="fill: rgb(221, 230, 255);"/>
  <path d="M 141.563 282.772 L 152.209 260.5 L 176.806 274.818 L 159.919 309.694 L 146.702 302.352 Z" style="fill: rgb(63, 136, 252);"/>
  <path d="M 143.643 280.569 L 152.576 263.315 L 172.768 275.062 L 157.471 305.778 L 147.069 297.824 Z" style="" fill="#fff"/>
  <path d="M 142.909 335.515 L 149.884 379.325 L 142.909 423.012 L 146.825 426.071 L 140.339 425.704 L 140.951 380.671 L 128.713 348.976 L 130.182 382.017 L 123.084 424.481 L 126.143 426.194 L 119.046 425.827 L 122.105 381.65 L 116.476 355.217 C 116.476 355.217 111.581 336.127 116.476 332.823 C 121.371 329.519 142.909 335.515 142.909 335.515 Z" fill="#3e3e54" style=""/>
  <path d="M 117.088 269.923 C 117.088 269.923 134.22 271.881 138.503 274.94 C 142.786 277.999 147.192 283.017 147.192 286.933 C 147.192 290.849 148.905 310.551 148.905 310.551 L 156.003 294.153 L 159.919 296.478 C 159.919 296.478 155.391 324.991 152.821 325.847 C 150.251 326.704 143.276 324.868 143.276 324.868 L 142.909 335.637 C 142.909 335.637 119.658 337.962 116.476 333.068 C 113.417 328.05 106.074 277.877 117.088 269.923 Z" style="fill: rgb(34, 93, 147);"/>
  <g fill="#eea886" transform="matrix(1.223735, 0, 0, 1.223735, 25.797178, 77.918701)" style="">
    <path d="M86.7 152.6s-1.7 3.5-.8 6.5c0 0-5.2-.7-5.4-1.4-.2-.6.7-6.1.1-7.8s6.1 2.7 6.1 2.7z"/>
    <path d="M81.1 138c2-.8 7.7-2.1 9.7 6.3 2.1 8.4-1.1 8.8-4.3 8.8-3.3 0-8.8-5.2-9.3-7s-2-5.5 3.9-8.1zm25.6 34.8c0-.3 0-.4.1-.7.2-.6.8-.9 1.2-1.5.2-.3.3-.8.3-1.1a1.93 1.93 0 01.3-1c.2-.3.5-.5.8-.5.5.1.8.6.8 1 .8 2.8.7 5.7-.3 8.5-.2.4-.4.8-.8.8-.2 0-.3-.1-.4-.2-.8-.4-2-.8-2.1-1.9s0-2.3.1-3.4z"/>
  </g>
  <path d="M 158.695 285.709 L 153.8 281.181 L 153.433 282.038 L 157.838 286.688 C 157.961 286.688 158.817 286.443 158.695 285.709 Z" style="fill: rgb(34, 93, 147);"/>
  <linearGradient id="F" gradientUnits="userSpaceOnUse" x1="107.183" y1="185.551" x2="68.576" y2="219.113" gradientTransform="matrix(1.223735, 0, 0, 1.223735, 25.797179, 77.918703)">
    <stop offset="0" stop-opacity="0"/>
    <stop offset="0.99"/>
  </linearGradient>
  <path d="M 143.398 324.746 C 143.398 324.746 140.951 323.767 140.094 316.425 L 138.258 301.74 L 138.258 335.76 L 143.888 335.76 L 143.398 324.746 Z" fill="url(#F)" style=""/>
  <path d="M 132.629 244.591 C 132.262 243.49 131.406 242.511 130.304 242.022 C 129.448 241.532 128.591 241.532 127.734 241.899 C 127.245 241.165 126.388 240.798 125.532 240.798 C 124.797 240.676 124.063 240.798 123.451 241.165 C 122.839 241.532 122.472 242.266 122.595 243.001 C 121.616 242.878 120.514 242.878 119.535 243.001 C 119.168 243.001 118.923 243.123 118.556 243.368 C 118.189 243.735 117.944 243.98 117.822 244.347 C 117.333 245.693 116.965 247.039 116.965 248.507 C 115.923 249.307 115.258 250.504 115.13 251.811 C 115.007 253.158 115.619 254.381 116.598 255.36 C 116.231 256.706 116.354 258.175 117.088 259.399 C 117.944 260.622 119.413 261.112 120.759 260.867 C 120.759 261.479 120.881 262.213 121.371 262.58 C 121.559 262.679 121.771 262.722 121.983 262.703 C 122.595 262.703 123.207 262.58 123.696 262.336 C 123.574 262.825 123.574 263.315 123.696 263.804 C 123.818 264.294 124.185 264.661 124.675 264.661 C 125.042 264.538 125.287 264.416 125.654 264.171 C 126.388 263.682 126.878 262.947 127.245 262.213 C 127.367 261.479 127.49 260.745 127.49 259.888 C 127.734 258.909 128.224 258.175 127.979 257.318 C 127.734 256.462 127 256.095 126.511 255.483 C 126.021 254.871 125.532 253.892 126.143 253.402 C 126.755 252.913 127.612 253.28 128.101 253.892 C 128.469 254.137 128.713 254.381 129.08 254.259 C 129.448 254.137 129.325 253.647 129.203 253.28 C 128.836 252.668 128.713 251.934 128.469 251.2 C 128.224 250.465 128.469 249.609 129.08 249.119 C 130.059 248.385 131.406 248.752 132.262 248.14 C 133.364 247.161 132.996 245.448 132.629 244.591 Z" fill="#3e3e54" style=""/>
</svg>